<?xml version="1.0" encoding="UTF-8" standalone="no"?>
<!DOCTYPE svg PUBLIC "-//W3C//DTD SVG 1.1//EN"
 "http://www.w3.org/Graphics/SVG/1.1/DTD/svg11.dtd">
<!-- Generated by graphviz version 2.36.0 (20140111.2315)
 -->
<!-- Title: Screen Pages: 1 -->
<svg width="221pt" height="140pt"
 viewBox="0.00 0.00 221.00 140.00" xmlns="http://www.w3.org/2000/svg" xmlns:xlink="http://www.w3.org/1999/xlink">
<g id="graph0" class="graph" transform="scale(1 1) rotate(0) translate(4 136)">
<title>Screen</title>
<polygon fill="white" stroke="none" points="-4,4 -4,-136 217,-136 217,4 -4,4"/>
<!-- Node1 -->
<g id="node1" class="node"><title>Node1</title>
<polygon fill="#bfbfbf" stroke="black" points="42,-112.5 42,-131.5 92,-131.5 92,-112.5 42,-112.5"/>
<text text-anchor="middle" x="67" y="-119.5" font-family="Helvetica,sans-Serif" font-size="10.00">Screen</text>
</g>
<!-- Node2 -->
<g id="node2" class="node"><title>Node2</title>
<g id="a_node2"><a xlink:href="../../d2/d3e/class_level1.html" target="_top" xlink:title="Level1">
<polygon fill="white" stroke="black" points="5.5,-56.5 5.5,-75.5 52.5,-75.5 52.5,-56.5 5.5,-56.5"/>
<text text-anchor="middle" x="29" y="-63.5" font-family="Helvetica,sans-Serif" font-size="10.00">Level1</text>
</a>
</g>
</g>
<!-- Node1&#45;&gt;Node2 -->
<g id="edge1" class="edge"><title>Node1&#45;&gt;Node2</title>
<path fill="none" stroke="midnightblue" d="M54.9353,-103.855C48.3553,-94.5048 40.489,-83.3265 35.1582,-75.7511"/>
<polygon fill="midnightblue" stroke="midnightblue" points="52.1078,-105.919 60.7251,-112.083 57.8324,-101.891 52.1078,-105.919"/>
</g>
<!-- Node4 -->
<g id="node4" class="node"><title>Node4</title>
<g id="a_node4"><a xlink:href="../../d2/db8/class_menu.html" target="_top" xlink:title="Menu">
<polygon fill="white" stroke="black" points="77.5,-56.5 77.5,-75.5 120.5,-75.5 120.5,-56.5 77.5,-56.5"/>
<text text-anchor="middle" x="99" y="-63.5" font-family="Helvetica,sans-Serif" font-size="10.00">Menu</text>
</a>
</g>
</g>
<!-- Node1&#45;&gt;Node4 -->
<g id="edge3" class="edge"><title>Node1&#45;&gt;Node4</title>
<path fill="none" stroke="midnightblue" d="M77.5039,-103.275C82.9731,-94.0454 89.4176,-83.1703 93.8142,-75.7511"/>
<polygon fill="midnightblue" stroke="midnightblue" points="74.3712,-101.696 72.2841,-112.083 80.3932,-105.264 74.3712,-101.696"/>
</g>
<!-- Node3 -->
<g id="node3" class="node"><title>Node3</title>
<g id="a_node3"><a xlink:href="../../d0/dc8/class_level2.html" target="_top" xlink:title="Level2">
<polygon fill="white" stroke="black" points="-0.5,-0.5 -0.5,-19.5 46.5,-19.5 46.5,-0.5 -0.5,-0.5"/>
<text text-anchor="middle" x="23" y="-7.5" font-family="Helvetica,sans-Serif" font-size="10.00">Level2</text>
</a>
</g>
</g>
<!-- Node2&#45;&gt;Node3 -->
<g id="edge2" class="edge"><title>Node2&#45;&gt;Node3</title>
<path fill="none" stroke="midnightblue" d="M26.9001,-46.1005C25.904,-37.1357 24.762,-26.8579 23.9723,-19.7511"/>
<polygon fill="midnightblue" stroke="midnightblue" points="23.4262,-46.5307 28.0092,-56.083 30.3834,-45.7576 23.4262,-46.5307"/>
</g>
<!-- Node5 -->
<g id="node5" class="node"><title>Node5</title>
<g id="a_node5"><a xlink:href="../../d5/db1/class_game_over.html" target="_top" xlink:title="GameOver">
<polygon fill="white" stroke="black" points="65,-0.5 65,-19.5 133,-19.5 133,-0.5 65,-0.5"/>
<text text-anchor="middle" x="99" y="-7.5" font-family="Helvetica,sans-Serif" font-size="10.00">GameOver</text>
</a>
</g>
</g>
<!-- Node4&#45;&gt;Node5 -->
<g id="edge4" class="edge"><title>Node4&#45;&gt;Node5</title>
<path fill="none" stroke="midnightblue" d="M99,-45.8045C99,-36.9102 99,-26.7798 99,-19.7511"/>
<polygon fill="midnightblue" stroke="midnightblue" points="95.5001,-46.083 99,-56.083 102.5,-46.083 95.5001,-46.083"/>
</g>
<!-- Node6 -->
<g id="node6" class="node"><title>Node6</title>
<g id="a_node6"><a xlink:href="../../dd/d7f/class_game_win.html" target="_top" xlink:title="GameWin">
<polygon fill="white" stroke="black" points="151,-0.5 151,-19.5 213,-19.5 213,-0.5 151,-0.5"/>
<text text-anchor="middle" x="182" y="-7.5" font-family="Helvetica,sans-Serif" font-size="10.00">GameWin</text>
</a>
</g>
</g>
<!-- Node4&#45;&gt;Node6 -->
<g id="edge5" class="edge"><title>Node4&#45;&gt;Node6</title>
<path fill="none" stroke="midnightblue" d="M121.099,-50.6221C136.262,-40.7574 155.883,-27.9919 168.698,-19.6545"/>
<polygon fill="midnightblue" stroke="midnightblue" points="118.809,-47.9367 112.335,-56.324 122.626,-53.8042 118.809,-47.9367"/>
</g>
</g>
</svg>
