<?xml version="1.0" encoding="UTF-8" standalone="no"?>
<!DOCTYPE svg PUBLIC "-//W3C//DTD SVG 1.1//EN"
 "http://www.w3.org/Graphics/SVG/1.1/DTD/svg11.dtd">
<!-- Generated by graphviz version 2.36.0 (20140111.2315)
 -->
<!-- Title: Screen Pages: 1 -->
<svg width="141pt" height="140pt"
 viewBox="0.00 0.00 141.00 140.00" xmlns="http://www.w3.org/2000/svg" xmlns:xlink="http://www.w3.org/1999/xlink">
<g id="graph0" class="graph" transform="scale(1 1) rotate(0) translate(4 136)">
<title>Screen</title>
<polygon fill="white" stroke="none" points="-4,4 -4,-136 137,-136 137,4 -4,4"/>
<!-- Node1 -->
<g id="node1" class="node"><title>Node1</title>
<polygon fill="#bfbfbf" stroke="black" points="35,-112.5 35,-131.5 85,-131.5 85,-112.5 35,-112.5"/>
<text text-anchor="middle" x="60" y="-119.5" font-family="Helvetica,sans-Serif" font-size="10.00">Screen</text>
</g>
<!-- Node2 -->
<g id="node2" class="node"><title>Node2</title>
<g id="a_node2"><a xlink:href="../../d2/d3e/class_level1.html" target="_top" xlink:title="Level1">
<polygon fill="white" stroke="black" points="2.5,-56.5 2.5,-75.5 49.5,-75.5 49.5,-56.5 2.5,-56.5"/>
<text text-anchor="middle" x="26" y="-63.5" font-family="Helvetica,sans-Serif" font-size="10.00">Level1</text>
</a>
</g>
</g>
<!-- Node1&#45;&gt;Node2 -->
<g id="edge1" class="edge"><title>Node1&#45;&gt;Node2</title>
<path fill="none" stroke="midnightblue" d="M49.0228,-103.566C43.173,-94.2747 36.2305,-83.2484 31.5099,-75.7511"/>
<polygon fill="midnightblue" stroke="midnightblue" points="46.0956,-105.486 54.3856,-112.083 52.0192,-101.756 46.0956,-105.486"/>
</g>
<!-- Node4 -->
<g id="node4" class="node"><title>Node4</title>
<g id="a_node4"><a xlink:href="../../d2/db8/class_menu.html" target="_top" xlink:title="Menu">
<polygon fill="white" stroke="black" points="73.5,-56.5 73.5,-75.5 116.5,-75.5 116.5,-56.5 73.5,-56.5"/>
<text text-anchor="middle" x="95" y="-63.5" font-family="Helvetica,sans-Serif" font-size="10.00">Menu</text>
</a>
</g>
</g>
<!-- Node1&#45;&gt;Node4 -->
<g id="edge3" class="edge"><title>Node1&#45;&gt;Node4</title>
<path fill="none" stroke="midnightblue" d="M71.3001,-103.566C77.3219,-94.2747 84.4686,-83.2484 89.328,-75.7511"/>
<polygon fill="midnightblue" stroke="midnightblue" points="68.2815,-101.788 65.7795,-112.083 74.1556,-105.595 68.2815,-101.788"/>
</g>
<!-- Node3 -->
<g id="node3" class="node"><title>Node3</title>
<g id="a_node3"><a xlink:href="../../d0/dc8/class_level2.html" target="_top" xlink:title="Level2">
<polygon fill="white" stroke="black" points="-0.5,-0.5 -0.5,-19.5 46.5,-19.5 46.5,-0.5 -0.5,-0.5"/>
<text text-anchor="middle" x="23" y="-7.5" font-family="Helvetica,sans-Serif" font-size="10.00">Level2</text>
</a>
</g>
</g>
<!-- Node2&#45;&gt;Node3 -->
<g id="edge2" class="edge"><title>Node2&#45;&gt;Node3</title>
<path fill="none" stroke="midnightblue" d="M24.9336,-45.8045C24.4395,-36.9102 23.8767,-26.7798 23.4862,-19.7511"/>
<polygon fill="midnightblue" stroke="midnightblue" points="21.4552,-46.2926 25.5046,-56.083 28.4444,-45.9042 21.4552,-46.2926"/>
</g>
<!-- Node5 -->
<g id="node5" class="node"><title>Node5</title>
<g id="a_node5"><a xlink:href="../../d5/db1/class_game_over.html" target="_top" xlink:title="GameOver">
<polygon fill="white" stroke="black" points="65,-0.5 65,-19.5 133,-19.5 133,-0.5 65,-0.5"/>
<text text-anchor="middle" x="99" y="-7.5" font-family="Helvetica,sans-Serif" font-size="10.00">GameOver</text>
</a>
</g>
</g>
<!-- Node4&#45;&gt;Node5 -->
<g id="edge4" class="edge"><title>Node4&#45;&gt;Node5</title>
<path fill="none" stroke="midnightblue" d="M96.4,-46.1005C97.064,-37.1357 97.8253,-26.8579 98.3518,-19.7511"/>
<polygon fill="midnightblue" stroke="midnightblue" points="92.9089,-45.8517 95.6605,-56.083 99.8898,-46.3689 92.9089,-45.8517"/>
</g>
</g>
</svg>
