<?xml version="1.0" encoding="UTF-8" standalone="no"?>
<!DOCTYPE svg PUBLIC "-//W3C//DTD SVG 1.1//EN"
 "http://www.w3.org/Graphics/SVG/1.1/DTD/svg11.dtd">
<!-- Generated by graphviz version 2.36.0 (20140111.2315)
 -->
<!-- Title: GameOver Pages: 1 -->
<svg width="174pt" height="222pt"
 viewBox="0.00 0.00 174.19 222.00" xmlns="http://www.w3.org/2000/svg" xmlns:xlink="http://www.w3.org/1999/xlink">
<g id="graph0" class="graph" transform="scale(1 1) rotate(0) translate(4 218)">
<title>GameOver</title>
<polygon fill="white" stroke="none" points="-4,4 -4,-218 170.188,-218 170.188,4 -4,4"/>
<!-- Node1 -->
<g id="node1" class="node"><title>Node1</title>
<polygon fill="#bfbfbf" stroke="black" points="44.1883,-0.5 44.1883,-19.5 112.188,-19.5 112.188,-0.5 44.1883,-0.5"/>
<text text-anchor="middle" x="78.1883" y="-7.5" font-family="Helvetica,sans-Serif" font-size="10.00">GameOver</text>
</g>
<!-- Node2 -->
<g id="node2" class="node"><title>Node2</title>
<g id="a_node2"><a xlink:href="../../d2/db8/class_menu.html" target="_top" xlink:title="Menu">
<polygon fill="white" stroke="black" points="56.6883,-58.5 56.6883,-77.5 99.6883,-77.5 99.6883,-58.5 56.6883,-58.5"/>
<text text-anchor="middle" x="78.1883" y="-65.5" font-family="Helvetica,sans-Serif" font-size="10.00">Menu</text>
</a>
</g>
</g>
<!-- Node2&#45;&gt;Node1 -->
<g id="edge1" class="edge"><title>Node2&#45;&gt;Node1</title>
<path fill="none" stroke="midnightblue" d="M78.1883,-47.953C78.1883,-38.2875 78.1883,-27.0312 78.1883,-19.5052"/>
<polygon fill="midnightblue" stroke="midnightblue" points="74.6884,-48.25 78.1883,-58.25 81.6884,-48.25 74.6884,-48.25"/>
</g>
<!-- Node3 -->
<g id="node3" class="node"><title>Node3</title>
<g id="a_node3"><a xlink:href="../../d6/d21/class_screen.html" target="_top" xlink:title="Screen">
<polygon fill="white" stroke="black" points="53.1883,-126.5 53.1883,-145.5 103.188,-145.5 103.188,-126.5 53.1883,-126.5"/>
<text text-anchor="middle" x="78.1883" y="-133.5" font-family="Helvetica,sans-Serif" font-size="10.00">Screen</text>
</a>
</g>
</g>
<!-- Node3&#45;&gt;Node2 -->
<g id="edge2" class="edge"><title>Node3&#45;&gt;Node2</title>
<path fill="none" stroke="midnightblue" d="M78.1883,-116.041C78.1883,-103.472 78.1883,-87.5631 78.1883,-77.8411"/>
<polygon fill="midnightblue" stroke="midnightblue" points="74.6884,-116.372 78.1883,-126.372 81.6884,-116.372 74.6884,-116.372"/>
</g>
<!-- Node4 -->
<g id="node4" class="node"><title>Node4</title>
<polygon fill="white" stroke="#bfbfbf" points="1.18831,-194.5 1.18831,-213.5 47.1883,-213.5 47.1883,-194.5 1.18831,-194.5"/>
<text text-anchor="middle" x="24.1883" y="-201.5" font-family="Helvetica,sans-Serif" font-size="10.00">Group</text>
</g>
<!-- Node4&#45;&gt;Node2 -->
<g id="edge5" class="edge"><title>Node4&#45;&gt;Node2</title>
<path fill="none" stroke="#9a32cd" stroke-dasharray="5,2" d="M12.7267,-185.168C3.94707,-169.083 -5.20339,-145.089 4.18831,-126 15.4995,-103.01 41.0365,-86.6855 58.9307,-77.5565"/>
<polygon fill="#9a32cd" stroke="#9a32cd" points="9.874,-187.221 17.9762,-194.047 15.8997,-183.658 9.874,-187.221"/>
<text text-anchor="middle" x="24.1883" y="-133.5" font-family="Helvetica,sans-Serif" font-size="10.00"> myRoot</text>
</g>
<!-- Node4&#45;&gt;Node3 -->
<g id="edge3" class="edge"><title>Node4&#45;&gt;Node3</title>
<path fill="none" stroke="#9a32cd" stroke-dasharray="5,2" d="M37.8437,-186.31C48.3707,-173.444 62.5133,-156.158 70.9547,-145.841"/>
<polygon fill="#9a32cd" stroke="#9a32cd" points="34.8714,-184.416 31.2479,-194.372 40.2891,-188.848 34.8714,-184.416"/>
<text text-anchor="middle" x="76.1883" y="-167.5" font-family="Helvetica,sans-Serif" font-size="10.00"> myRoot</text>
</g>
<!-- Node5 -->
<g id="node5" class="node"><title>Node5</title>
<polygon fill="white" stroke="#bfbfbf" points="121.688,-126.5 121.688,-145.5 166.688,-145.5 166.688,-126.5 121.688,-126.5"/>
<text text-anchor="middle" x="144.188" y="-133.5" font-family="Helvetica,sans-Serif" font-size="10.00">Stage</text>
</g>
<!-- Node5&#45;&gt;Node2 -->
<g id="edge4" class="edge"><title>Node5&#45;&gt;Node2</title>
<path fill="none" stroke="#9a32cd" stroke-dasharray="5,2" d="M128.236,-119.047C115.299,-106.111 97.545,-88.3567 87.0294,-77.8411"/>
<polygon fill="#9a32cd" stroke="#9a32cd" points="126.014,-121.775 135.56,-126.372 130.964,-116.826 126.014,-121.775"/>
<text text-anchor="middle" x="132.688" y="-99.5" font-family="Helvetica,sans-Serif" font-size="10.00"> stage</text>
</g>
</g>
</svg>
