<?xml version="1.0" encoding="UTF-8" standalone="no"?>
<!DOCTYPE svg PUBLIC "-//W3C//DTD SVG 1.1//EN"
 "http://www.w3.org/Graphics/SVG/1.1/DTD/svg11.dtd">
<!-- Generated by graphviz version 2.36.0 (20140111.2315)
 -->
<!-- Title: Level2 Pages: 1 -->
<svg width="842pt" height="418pt"
 viewBox="0.00 0.00 842.00 417.99" xmlns="http://www.w3.org/2000/svg" xmlns:xlink="http://www.w3.org/1999/xlink">
<g id="graph0" class="graph" transform="scale(1 1) rotate(0) translate(4 413.994)">
<title>Level2</title>
<polygon fill="white" stroke="none" points="-4,4 -4,-413.994 838,-413.994 838,4 -4,4"/>
<!-- Node1 -->
<g id="node1" class="node"><title>Node1</title>
<polygon fill="#bfbfbf" stroke="black" points="786.5,-191.494 786.5,-210.494 833.5,-210.494 833.5,-191.494 786.5,-191.494"/>
<text text-anchor="middle" x="810" y="-198.494" font-family="Helvetica,sans-Serif" font-size="10.00">Level2</text>
</g>
<!-- Node2 -->
<g id="node2" class="node"><title>Node2</title>
<g id="a_node2"><a xlink:href="../../d2/d3e/class_level1.html" target="_top" xlink:title="Level1">
<polygon fill="white" stroke="black" points="700.5,-191.494 700.5,-210.494 747.5,-210.494 747.5,-191.494 700.5,-191.494"/>
<text text-anchor="middle" x="724" y="-198.494" font-family="Helvetica,sans-Serif" font-size="10.00">Level1</text>
</a>
</g>
</g>
<!-- Node2&#45;&gt;Node1 -->
<g id="edge1" class="edge"><title>Node2&#45;&gt;Node1</title>
<path fill="none" stroke="midnightblue" d="M757.594,-200.994C767.233,-200.994 777.57,-200.994 786.427,-200.994"/>
<polygon fill="midnightblue" stroke="midnightblue" points="757.51,-197.494 747.51,-200.994 757.51,-204.494 757.51,-197.494"/>
</g>
<!-- Node3 -->
<g id="node3" class="node"><title>Node3</title>
<g id="a_node3"><a xlink:href="../../d6/d21/class_screen.html" target="_top" xlink:title="Screen">
<polygon fill="white" stroke="black" points="510,-390.494 510,-409.494 560,-409.494 560,-390.494 510,-390.494"/>
<text text-anchor="middle" x="535" y="-397.494" font-family="Helvetica,sans-Serif" font-size="10.00">Screen</text>
</a>
</g>
</g>
<!-- Node3&#45;&gt;Node2 -->
<g id="edge2" class="edge"><title>Node3&#45;&gt;Node2</title>
<path fill="none" stroke="midnightblue" d="M570.284,-404.015C603.218,-405.854 652.243,-402.966 682,-374.994 706.422,-352.037 718.82,-243.947 722.099,-210.729"/>
<polygon fill="midnightblue" stroke="midnightblue" points="570.43,-400.516 560.201,-403.278 569.919,-407.498 570.43,-400.516"/>
</g>
<!-- Node4 -->
<g id="node4" class="node"><title>Node4</title>
<polygon fill="white" stroke="#bfbfbf" points="315,-324.494 315,-343.494 361,-343.494 361,-324.494 315,-324.494"/>
<text text-anchor="middle" x="338" y="-331.494" font-family="Helvetica,sans-Serif" font-size="10.00">Group</text>
</g>
<!-- Node4&#45;&gt;Node2 -->
<g id="edge22" class="edge"><title>Node4&#45;&gt;Node2</title>
<path fill="none" stroke="#9a32cd" stroke-dasharray="5,2" d="M371.44,-338.357C447.436,-347.849 634.179,-366.709 682,-329.994 720.211,-300.657 723.516,-235.584 723.316,-210.821"/>
<polygon fill="#9a32cd" stroke="#9a32cd" points="371.84,-334.88 361.477,-337.087 370.954,-341.824 371.84,-334.88"/>
<text text-anchor="middle" x="535" y="-353.994" font-family="Helvetica,sans-Serif" font-size="10.00"> myRoot</text>
</g>
<!-- Node4&#45;&gt;Node3 -->
<g id="edge3" class="edge"><title>Node4&#45;&gt;Node3</title>
<path fill="none" stroke="#9a32cd" stroke-dasharray="5,2" d="M355.016,-351.162C363.917,-359.658 375.667,-369.291 388,-374.994 428.03,-393.506 479.95,-398.435 509.864,-399.672"/>
<polygon fill="#9a32cd" stroke="#9a32cd" points="357.245,-348.439 347.708,-343.824 352.285,-353.379 357.245,-348.439"/>
<text text-anchor="middle" x="422" y="-395.994" font-family="Helvetica,sans-Serif" font-size="10.00"> myRoot</text>
</g>
<!-- Node9 -->
<g id="node9" class="node"><title>Node9</title>
<g id="a_node9"><a xlink:href="../../dd/d7a/class_enemy.html" target="_top" xlink:title="Enemy">
<polygon fill="white" stroke="black" points="510,-115.494 510,-134.494 560,-134.494 560,-115.494 510,-115.494"/>
<text text-anchor="middle" x="535" y="-122.494" font-family="Helvetica,sans-Serif" font-size="10.00">Enemy</text>
</a>
</g>
</g>
<!-- Node4&#45;&gt;Node9 -->
<g id="edge15" class="edge"><title>Node4&#45;&gt;Node9</title>
<path fill="none" stroke="#9a32cd" stroke-dasharray="5,2" d="M344.247,-314.411C351.393,-290.154 365.886,-248.326 388,-217.994 417.706,-177.249 429.958,-168.549 474,-143.994 485.07,-137.822 498.428,-133.342 509.726,-130.288"/>
<polygon fill="#9a32cd" stroke="#9a32cd" points="340.827,-313.641 341.479,-324.215 347.564,-315.542 340.827,-313.641"/>
<text text-anchor="middle" x="422" y="-220.994" font-family="Helvetica,sans-Serif" font-size="10.00"> myRoot</text>
</g>
<!-- Node18 -->
<g id="node18" class="node"><title>Node18</title>
<g id="a_node18"><a xlink:href="../../d8/d53/class_player.html" target="_top" xlink:title="Player">
<polygon fill="white" stroke="black" points="512,-153.494 512,-172.494 558,-172.494 558,-153.494 512,-153.494"/>
<text text-anchor="middle" x="535" y="-160.494" font-family="Helvetica,sans-Serif" font-size="10.00">Player</text>
</a>
</g>
</g>
<!-- Node4&#45;&gt;Node18 -->
<g id="edge21" class="edge"><title>Node4&#45;&gt;Node18</title>
<path fill="none" stroke="#9a32cd" stroke-dasharray="5,2" d="M363.146,-318.8C389.404,-301.135 430.963,-269.671 456,-232.994 469.552,-213.142 456.728,-198.711 474,-181.994 484.128,-172.191 499.284,-167.443 511.829,-165.145"/>
<polygon fill="#9a32cd" stroke="#9a32cd" points="360.977,-316.037 354.548,-324.458 364.826,-321.884 360.977,-316.037"/>
<text text-anchor="middle" x="422" y="-302.994" font-family="Helvetica,sans-Serif" font-size="10.00"> myRoot</text>
</g>
<!-- Node5 -->
<g id="node5" class="node"><title>Node5</title>
<polygon fill="white" stroke="#bfbfbf" points="474,-305.494 474,-324.494 596,-324.494 596,-305.494 474,-305.494"/>
<text text-anchor="middle" x="535" y="-312.494" font-family="Helvetica,sans-Serif" font-size="10.00">ArrayList&lt; KeyCode &gt;</text>
</g>
<!-- Node5&#45;&gt;Node2 -->
<g id="edge4" class="edge"><title>Node5&#45;&gt;Node2</title>
<path fill="none" stroke="#9a32cd" stroke-dasharray="5,2" d="M606.394,-316.873C632.378,-314.315 660.658,-307.324 682,-290.994 708.454,-270.753 718.359,-229.505 721.605,-210.712"/>
<polygon fill="#9a32cd" stroke="#9a32cd" points="605.887,-313.402 596.19,-317.669 606.432,-320.381 605.887,-313.402"/>
<text text-anchor="middle" x="648" y="-317.994" font-family="Helvetica,sans-Serif" font-size="10.00"> keysPressed</text>
</g>
<!-- Node6 -->
<g id="node6" class="node"><title>Node6</title>
<polygon fill="white" stroke="#bfbfbf" points="480,-267.494 480,-286.494 590,-286.494 590,-267.494 480,-267.494"/>
<text text-anchor="middle" x="535" y="-274.494" font-family="Helvetica,sans-Serif" font-size="10.00">ArrayList&lt; Sprite &gt;</text>
</g>
<!-- Node6&#45;&gt;Node2 -->
<g id="edge5" class="edge"><title>Node6&#45;&gt;Node2</title>
<path fill="none" stroke="#9a32cd" stroke-dasharray="5,2" d="M600.241,-269.425C626.779,-264.356 657.093,-255.937 682,-241.994 696.054,-234.127 708.556,-220.078 715.956,-210.648"/>
<polygon fill="#9a32cd" stroke="#9a32cd" points="599.501,-266.002 590.274,-271.209 600.734,-272.893 599.501,-266.002"/>
<text text-anchor="middle" x="648" y="-278.994" font-family="Helvetica,sans-Serif" font-size="10.00"> Shots</text>
<text text-anchor="middle" x="648" y="-267.994" font-family="Helvetica,sans-Serif" font-size="10.00">Poops</text>
</g>
<!-- Node7 -->
<g id="node7" class="node"><title>Node7</title>
<polygon fill="white" stroke="#bfbfbf" points="512.5,-229.494 512.5,-248.494 557.5,-248.494 557.5,-229.494 512.5,-229.494"/>
<text text-anchor="middle" x="535" y="-236.494" font-family="Helvetica,sans-Serif" font-size="10.00">Stage</text>
</g>
<!-- Node7&#45;&gt;Node2 -->
<g id="edge6" class="edge"><title>Node7&#45;&gt;Node2</title>
<path fill="none" stroke="#9a32cd" stroke-dasharray="5,2" d="M568.176,-234.782C597.933,-230.581 643.274,-223.402 682,-213.994 687.95,-212.549 694.295,-210.695 700.171,-208.844"/>
<polygon fill="#9a32cd" stroke="#9a32cd" points="567.386,-231.358 557.959,-236.194 568.344,-238.292 567.386,-231.358"/>
<text text-anchor="middle" x="648" y="-229.994" font-family="Helvetica,sans-Serif" font-size="10.00"> stage</text>
</g>
<!-- Node8 -->
<g id="node8" class="node"><title>Node8</title>
<polygon fill="white" stroke="#bfbfbf" points="489.5,-191.494 489.5,-210.494 580.5,-210.494 580.5,-191.494 489.5,-191.494"/>
<text text-anchor="middle" x="535" y="-198.494" font-family="Helvetica,sans-Serif" font-size="10.00">IntegerProperty</text>
</g>
<!-- Node8&#45;&gt;Node2 -->
<g id="edge7" class="edge"><title>Node8&#45;&gt;Node2</title>
<path fill="none" stroke="#9a32cd" stroke-dasharray="5,2" d="M590.814,-200.994C627.334,-200.994 673.414,-200.994 700.403,-200.994"/>
<polygon fill="#9a32cd" stroke="#9a32cd" points="590.791,-197.494 580.791,-200.994 590.791,-204.494 590.791,-197.494"/>
<text text-anchor="middle" x="648" y="-203.994" font-family="Helvetica,sans-Serif" font-size="10.00"> timeSeconds</text>
</g>
<!-- Node9&#45;&gt;Node2 -->
<g id="edge8" class="edge"><title>Node9&#45;&gt;Node2</title>
<path fill="none" stroke="#9a32cd" stroke-dasharray="5,2" d="M570.346,-126.742C601.32,-129.61 647.216,-137.16 682,-156.994 696.875,-165.476 709.518,-181.148 716.684,-191.317"/>
<polygon fill="#9a32cd" stroke="#9a32cd" points="570.304,-123.227 560.055,-125.91 569.74,-130.204 570.304,-123.227"/>
<text text-anchor="middle" x="648" y="-159.994" font-family="Helvetica,sans-Serif" font-size="10.00"> myEnemy</text>
</g>
<!-- Node10 -->
<g id="node10" class="node"><title>Node10</title>
<g id="a_node10"><a xlink:href="../../d7/da7/class_character.html" target="_top" xlink:title="Character">
<polygon fill="white" stroke="black" points="306,-132.494 306,-151.494 370,-151.494 370,-132.494 306,-132.494"/>
<text text-anchor="middle" x="338" y="-139.494" font-family="Helvetica,sans-Serif" font-size="10.00">Character</text>
</a>
</g>
</g>
<!-- Node10&#45;&gt;Node9 -->
<g id="edge9" class="edge"><title>Node10&#45;&gt;Node9</title>
<path fill="none" stroke="midnightblue" d="M380.399,-138.385C419.726,-134.957 477.509,-129.919 509.831,-127.101"/>
<polygon fill="midnightblue" stroke="midnightblue" points="379.988,-134.907 370.33,-139.263 380.596,-141.881 379.988,-134.907"/>
</g>
<!-- Node10&#45;&gt;Node18 -->
<g id="edge20" class="edge"><title>Node10&#45;&gt;Node18</title>
<path fill="none" stroke="midnightblue" d="M380.348,-146.447C420.506,-150.772 479.945,-157.173 511.845,-160.608"/>
<polygon fill="midnightblue" stroke="midnightblue" points="380.647,-142.959 370.33,-145.368 379.898,-149.919 380.647,-142.959"/>
</g>
<!-- Node11 -->
<g id="node11" class="node"><title>Node11</title>
<g id="a_node11"><a xlink:href="../../d7/dbf/class_sprite.html" target="_top" xlink:title="Sprite">
<polygon fill="white" stroke="black" points="175.5,-151.494 175.5,-170.494 220.5,-170.494 220.5,-151.494 175.5,-151.494"/>
<text text-anchor="middle" x="198" y="-158.494" font-family="Helvetica,sans-Serif" font-size="10.00">Sprite</text>
</a>
</g>
</g>
<!-- Node11&#45;&gt;Node10 -->
<g id="edge10" class="edge"><title>Node11&#45;&gt;Node10</title>
<path fill="none" stroke="midnightblue" d="M230.648,-156.637C253.214,-153.53 283.408,-149.373 305.858,-146.282"/>
<polygon fill="midnightblue" stroke="midnightblue" points="229.992,-153.194 220.562,-158.025 230.946,-160.129 229.992,-153.194"/>
</g>
<!-- Node12 -->
<g id="node12" class="node"><title>Node12</title>
<polygon fill="white" stroke="#bfbfbf" points="0,-170.494 0,-189.494 68,-189.494 68,-170.494 0,-170.494"/>
<text text-anchor="middle" x="34" y="-177.494" font-family="Helvetica,sans-Serif" font-size="10.00">ImageView</text>
</g>
<!-- Node12&#45;&gt;Node11 -->
<g id="edge11" class="edge"><title>Node12&#45;&gt;Node11</title>
<path fill="none" stroke="midnightblue" d="M78.3765,-174.907C109.659,-171.238 150.566,-166.44 175.256,-163.544"/>
<polygon fill="midnightblue" stroke="midnightblue" points="77.6982,-171.462 68.174,-176.103 78.5137,-178.415 77.6982,-171.462"/>
</g>
<!-- Node13 -->
<g id="node13" class="node"><title>Node13</title>
<polygon fill="white" stroke="#bfbfbf" points="7,-132.494 7,-151.494 61,-151.494 61,-132.494 7,-132.494"/>
<text text-anchor="middle" x="34" y="-139.494" font-family="Helvetica,sans-Serif" font-size="10.00">Point2D</text>
</g>
<!-- Node13&#45;&gt;Node11 -->
<g id="edge12" class="edge"><title>Node13&#45;&gt;Node11</title>
<path fill="none" stroke="#9a32cd" stroke-dasharray="5,2" d="M70.9963,-144.735C91.7867,-146.474 118.412,-148.966 142,-151.994 153.036,-153.411 165.256,-155.371 175.369,-157.101"/>
<polygon fill="#9a32cd" stroke="#9a32cd" points="71.2528,-141.244 61.0012,-143.919 70.6833,-148.221 71.2528,-141.244"/>
<text text-anchor="middle" x="114" y="-154.994" font-family="Helvetica,sans-Serif" font-size="10.00"> myVelocity</text>
</g>
<!-- Node14 -->
<g id="node14" class="node"><title>Node14</title>
<polygon fill="white" stroke="#bfbfbf" points="160.5,-113.494 160.5,-132.494 235.5,-132.494 235.5,-113.494 160.5,-113.494"/>
<text text-anchor="middle" x="198" y="-120.494" font-family="Helvetica,sans-Serif" font-size="10.00">ProgressBar</text>
</g>
<!-- Node14&#45;&gt;Node10 -->
<g id="edge13" class="edge"><title>Node14&#45;&gt;Node10</title>
<path fill="none" stroke="#9a32cd" stroke-dasharray="5,2" d="M245.95,-128.45C259.531,-130.123 274.368,-132.04 288,-133.994 293.802,-134.826 299.979,-135.78 305.922,-136.734"/>
<polygon fill="#9a32cd" stroke="#9a32cd" points="246.198,-124.955 235.849,-127.223 245.354,-131.904 246.198,-124.955"/>
<text text-anchor="middle" x="271" y="-136.994" font-family="Helvetica,sans-Serif" font-size="10.00"> HPBar</text>
</g>
<!-- Node15 -->
<g id="node15" class="node"><title>Node15</title>
<polygon fill="white" stroke="#bfbfbf" points="310,-54.4942 310,-73.4942 366,-73.4942 366,-54.4942 310,-54.4942"/>
<text text-anchor="middle" x="338" y="-61.4942" font-family="Helvetica,sans-Serif" font-size="10.00">Random</text>
</g>
<!-- Node15&#45;&gt;Node2 -->
<g id="edge18" class="edge"><title>Node15&#45;&gt;Node2</title>
<path fill="none" stroke="#9a32cd" stroke-dasharray="5,2" d="M367.475,-50.0141C433.568,-19.7956 598.123,42.2183 682,-43.9942 723.057,-86.1945 724.403,-164.133 723.513,-191.329"/>
<polygon fill="#9a32cd" stroke="#9a32cd" points="365.68,-46.9898 358.1,-54.3922 368.641,-53.3324 365.68,-46.9898"/>
<text text-anchor="middle" x="535" y="-14.9942" font-family="Helvetica,sans-Serif" font-size="10.00"> myGenerator</text>
</g>
<!-- Node15&#45;&gt;Node9 -->
<g id="edge14" class="edge"><title>Node15&#45;&gt;Node9</title>
<path fill="none" stroke="#9a32cd" stroke-dasharray="5,2" d="M375.851,-75.522C415.162,-87.8193 476.293,-106.942 509.875,-117.447"/>
<polygon fill="#9a32cd" stroke="#9a32cd" points="376.703,-72.1212 366.114,-72.4759 374.613,-78.8019 376.703,-72.1212"/>
<text text-anchor="middle" x="422" y="-101.994" font-family="Helvetica,sans-Serif" font-size="10.00"> myGenerator</text>
</g>
<!-- Node16 -->
<g id="node16" class="node"><title>Node16</title>
<polygon fill="white" stroke="#bfbfbf" points="514,-77.4942 514,-96.4942 556,-96.4942 556,-77.4942 514,-77.4942"/>
<text text-anchor="middle" x="535" y="-84.4942" font-family="Helvetica,sans-Serif" font-size="10.00">Label</text>
</g>
<!-- Node16&#45;&gt;Node2 -->
<g id="edge16" class="edge"><title>Node16&#45;&gt;Node2</title>
<path fill="none" stroke="#9a32cd" stroke-dasharray="5,2" d="M566.297,-86.0292C598.261,-86.5622 648.543,-91.9959 682,-117.994 706.239,-136.83 717.132,-173.762 721.101,-191.302"/>
<polygon fill="#9a32cd" stroke="#9a32cd" points="566.216,-82.5292 556.211,-86.0137 566.205,-89.5292 566.216,-82.5292"/>
<text text-anchor="middle" x="648" y="-120.994" font-family="Helvetica,sans-Serif" font-size="10.00"> timerLabel</text>
</g>
<!-- Node17 -->
<g id="node17" class="node"><title>Node17</title>
<polygon fill="white" stroke="#bfbfbf" points="511.5,-39.4942 511.5,-58.4942 558.5,-58.4942 558.5,-39.4942 511.5,-39.4942"/>
<text text-anchor="middle" x="535" y="-46.4942" font-family="Helvetica,sans-Serif" font-size="10.00">Scene</text>
</g>
<!-- Node17&#45;&gt;Node2 -->
<g id="edge17" class="edge"><title>Node17&#45;&gt;Node2</title>
<path fill="none" stroke="#9a32cd" stroke-dasharray="5,2" d="M568.86,-45.8199C601.436,-44.5384 650.856,-47.8862 682,-74.9942 717.398,-105.804 722.416,-167.522 722.994,-191.324"/>
<polygon fill="#9a32cd" stroke="#9a32cd" points="568.296,-42.346 558.509,-46.4043 568.691,-49.3349 568.296,-42.346"/>
<text text-anchor="middle" x="648" y="-77.9942" font-family="Helvetica,sans-Serif" font-size="10.00"> myScene</text>
</g>
<!-- Node18&#45;&gt;Node2 -->
<g id="edge19" class="edge"><title>Node18&#45;&gt;Node2</title>
<path fill="none" stroke="#9a32cd" stroke-dasharray="5,2" d="M568.284,-166.254C598.116,-169.695 643.506,-176.022 682,-185.994 688.017,-187.553 694.385,-189.652 700.263,-191.785"/>
<polygon fill="#9a32cd" stroke="#9a32cd" points="568.364,-162.741 558.039,-165.115 567.591,-169.699 568.364,-162.741"/>
<text text-anchor="middle" x="648" y="-188.994" font-family="Helvetica,sans-Serif" font-size="10.00"> myPlayer</text>
</g>
</g>
</svg>
