<?xml version="1.0" encoding="UTF-8" standalone="no"?>
<!DOCTYPE svg PUBLIC "-//W3C//DTD SVG 1.1//EN"
 "http://www.w3.org/Graphics/SVG/1.1/DTD/svg11.dtd">
<!-- Generated by graphviz version 2.36.0 (20140111.2315)
 -->
<!-- Title: Level2 Pages: 1 -->
<!--zoomable 463 -->
<svg id="main" version="1.1" xmlns="http://www.w3.org/2000/svg" xmlns:xlink="http://www.w3.org/1999/xlink" xml:space="preserve" onload="init(evt)">
<style type="text/css"><![CDATA[
.edge:hover path { stroke: red; }
.edge:hover polygon { stroke: red; fill: red; }
]]></style>
<script type="text/javascript"><![CDATA[
var edges = document.getElementsByTagName('g');
if (edges && edges.length) {
  for (var i=0;i<edges.length;i++) {
    if (edges[i].id.substr(0,4)=='edge') {
      edges[i].setAttribute('class','edge');
    }
  }
}
]]></script>
        <defs>
                <circle id="rim" cx="0" cy="0" r="7"/>
                <circle id="rim2" cx="0" cy="0" r="3.5"/>
                <g id="zoomPlus">
                        <use xlink:href="#rim" fill="#404040">
                                <set attributeName="fill" to="#808080" begin="zoomplus.mouseover" end="zoomplus.mouseout"/>
                        </use>
                        <path d="M-4,0h8M0,-4v8" fill="none" stroke="white" stroke-width="1.5" pointer-events="none"/>
                </g>
                <g id="zoomMin">
                        <use xlink:href="#rim" fill="#404040">
                                <set attributeName="fill" to="#808080" begin="zoomminus.mouseover" end="zoomminus.mouseout"/>
                        </use>
                        <path d="M-4,0h8" fill="none" stroke="white" stroke-width="1.5" pointer-events="none"/>
                </g>
                <g id="dirArrow">
                        <path fill="none" stroke="white" stroke-width="1.5" d="M0,-3.0v7 M-2.5,-0.5L0,-3.0L2.5,-0.5"/>
                </g>
               <g id="resetDef">
                       <use xlink:href="#rim2" fill="#404040">
                               <set attributeName="fill" to="#808080" begin="reset.mouseover" end="reset.mouseout"/>
                       </use>
               </g>
        </defs>

<script type="text/javascript">
var viewWidth = 842;
var viewHeight = 463;
var sectionId = 'dynsection-1';
</script>
<script xlink:href="../../svgpan.js"/>
<svg id="graph" class="graph">
<g id="viewport">
<title>Level2</title>
<polygon fill="white" stroke="none" points="-4,4 -4,-459 838,-459 838,4 -4,4"/>
<!-- Node1 -->
<g id="node1" class="node"><title>Node1</title>
<polygon fill="#bfbfbf" stroke="black" points="786.5,-44.5 786.5,-63.5 833.5,-63.5 833.5,-44.5 786.5,-44.5"/>
<text text-anchor="middle" x="810" y="-51.5" font-family="Helvetica,sans-Serif" font-size="10.00">Level2</text>
</g>
<!-- Node2 -->
<g id="node2" class="node"><title>Node2</title>
<g id="a_node2"><a xlink:href="../../d2/d3e/class_level1.html" target="_top" xlink:title="Level1">
<polygon fill="white" stroke="black" points="700.5,-190.5 700.5,-209.5 747.5,-209.5 747.5,-190.5 700.5,-190.5"/>
<text text-anchor="middle" x="724" y="-197.5" font-family="Helvetica,sans-Serif" font-size="10.00">Level1</text>
</a>
</g>
</g>
<!-- Node2&#45;&gt;Node1 -->
<g id="edge1" class="edge"><title>Node2&#45;&gt;Node1</title>
<path fill="none" stroke="midnightblue" d="M735.686,-181.427C753.704,-150.109 789.518,-87.8617 803.358,-63.8062"/>
<polygon fill="midnightblue" stroke="midnightblue" points="732.465,-180.007 730.511,-190.421 738.532,-183.498 732.465,-180.007"/>
</g>
<!-- Node3 -->
<g id="node3" class="node"><title>Node3</title>
<g id="a_node3"><a xlink:href="../../d6/d21/class_screen.html" target="_top" xlink:title="Screen">
<polygon fill="white" stroke="black" points="510,-302.5 510,-321.5 560,-321.5 560,-302.5 510,-302.5"/>
<text text-anchor="middle" x="535" y="-309.5" font-family="Helvetica,sans-Serif" font-size="10.00">Screen</text>
</a>
</g>
</g>
<!-- Node3&#45;&gt;Node2 -->
<g id="edge2" class="edge"><title>Node3&#45;&gt;Node2</title>
<path fill="none" stroke="midnightblue" d="M570.169,-307.457C601.884,-301.796 649.031,-289.552 682,-264 700.774,-249.45 713.417,-223.72 719.269,-209.726"/>
<polygon fill="midnightblue" stroke="midnightblue" points="569.341,-304.047 560.048,-309.135 570.485,-310.953 569.341,-304.047"/>
</g>
<!-- Node4 -->
<g id="node4" class="node"><title>Node4</title>
<polygon fill="white" stroke="#bfbfbf" points="315,-309.5 315,-328.5 361,-328.5 361,-309.5 315,-309.5"/>
<text text-anchor="middle" x="338" y="-316.5" font-family="Helvetica,sans-Serif" font-size="10.00">Group</text>
</g>
<!-- Node4&#45;&gt;Node2 -->
<g id="edge22" class="edge"><title>Node4&#45;&gt;Node2</title>
<path fill="none" stroke="#9a32cd" stroke-dasharray="5,2" d="M370.984,-328.756C376.605,-330.104 382.436,-331.275 388,-332 419.53,-336.111 563.023,-337.916 596,-331 636.724,-322.46 652.504,-323.349 682,-294 706.485,-269.637 717.405,-228.217 721.259,-209.583"/>
<polygon fill="#9a32cd" stroke="#9a32cd" points="371.758,-325.34 361.198,-326.193 369.985,-332.112 371.758,-325.34"/>
<text text-anchor="middle" x="535" y="-338" font-family="Helvetica,sans-Serif" font-size="10.00"> myRoot</text>
</g>
<!-- Node4&#45;&gt;Node3 -->
<g id="edge3" class="edge"><title>Node4&#45;&gt;Node3</title>
<path fill="none" stroke="#9a32cd" stroke-dasharray="5,2" d="M371.648,-317.828C410.634,-316.429 474.931,-314.12 509.762,-312.87"/>
<polygon fill="#9a32cd" stroke="#9a32cd" points="371.237,-314.34 361.369,-318.197 371.488,-321.336 371.237,-314.34"/>
<text text-anchor="middle" x="422" y="-320" font-family="Helvetica,sans-Serif" font-size="10.00"> myRoot</text>
</g>
<!-- Node9 -->
<g id="node9" class="node"><title>Node9</title>
<g id="a_node9"><a xlink:href="../../dd/d7a/class_enemy.html" target="_top" xlink:title="Enemy">
<polygon fill="white" stroke="black" points="510,-211.5 510,-230.5 560,-230.5 560,-211.5 510,-211.5"/>
<text text-anchor="middle" x="535" y="-218.5" font-family="Helvetica,sans-Serif" font-size="10.00">Enemy</text>
</a>
</g>
</g>
<!-- Node4&#45;&gt;Node9 -->
<g id="edge15" class="edge"><title>Node4&#45;&gt;Node9</title>
<path fill="none" stroke="#9a32cd" stroke-dasharray="5,2" d="M352.649,-301.273C361.669,-290.615 374.32,-277.511 388,-269 426.966,-244.756 479.478,-231.422 509.744,-225.282"/>
<polygon fill="#9a32cd" stroke="#9a32cd" points="349.83,-299.192 346.244,-309.161 355.264,-303.604 349.83,-299.192"/>
<text text-anchor="middle" x="422" y="-272" font-family="Helvetica,sans-Serif" font-size="10.00"> myRoot</text>
</g>
<!-- Node18 -->
<g id="node18" class="node"><title>Node18</title>
<g id="a_node18"><a xlink:href="../../d8/d53/class_player.html" target="_top" xlink:title="Player">
<polygon fill="white" stroke="black" points="512,-259.5 512,-278.5 558,-278.5 558,-259.5 512,-259.5"/>
<text text-anchor="middle" x="535" y="-266.5" font-family="Helvetica,sans-Serif" font-size="10.00">Player</text>
</a>
</g>
</g>
<!-- Node4&#45;&gt;Node18 -->
<g id="edge21" class="edge"><title>Node4&#45;&gt;Node18</title>
<path fill="none" stroke="#9a32cd" stroke-dasharray="5,2" d="M371.014,-306.531C376.631,-304.547 382.454,-302.618 388,-301 431.344,-288.353 483.215,-278.115 511.999,-272.854"/>
<polygon fill="#9a32cd" stroke="#9a32cd" points="369.42,-303.387 361.228,-310.107 371.822,-309.962 369.42,-303.387"/>
<text text-anchor="middle" x="422" y="-304" font-family="Helvetica,sans-Serif" font-size="10.00"> myRoot</text>
</g>
<!-- Node5 -->
<g id="node5" class="node"><title>Node5</title>
<polygon fill="white" stroke="#bfbfbf" points="474,-126.5 474,-145.5 596,-145.5 596,-126.5 474,-126.5"/>
<text text-anchor="middle" x="535" y="-133.5" font-family="Helvetica,sans-Serif" font-size="10.00">ArrayList&lt; KeyCode &gt;</text>
</g>
<!-- Node5&#45;&gt;Node2 -->
<g id="edge4" class="edge"><title>Node5&#45;&gt;Node2</title>
<path fill="none" stroke="#9a32cd" stroke-dasharray="5,2" d="M606.418,-136.732C631.396,-139.37 658.994,-145.139 682,-157 697.036,-164.752 709.633,-180.219 716.746,-190.335"/>
<polygon fill="#9a32cd" stroke="#9a32cd" points="606.536,-133.229 596.261,-135.812 605.905,-140.2 606.536,-133.229"/>
<text text-anchor="middle" x="648" y="-160" font-family="Helvetica,sans-Serif" font-size="10.00"> keysPressed</text>
</g>
<!-- Node6 -->
<g id="node6" class="node"><title>Node6</title>
<polygon fill="white" stroke="#bfbfbf" points="480,-88.5 480,-107.5 590,-107.5 590,-88.5 480,-88.5"/>
<text text-anchor="middle" x="535" y="-95.5" font-family="Helvetica,sans-Serif" font-size="10.00">ArrayList&lt; Sprite &gt;</text>
</g>
<!-- Node6&#45;&gt;Node2 -->
<g id="edge5" class="edge"><title>Node6&#45;&gt;Node2</title>
<path fill="none" stroke="#9a32cd" stroke-dasharray="5,2" d="M600.388,-91.2374C627.764,-91.5539 658.678,-96.4771 682,-113 708.432,-131.726 718.348,-172.033 721.601,-190.458"/>
<polygon fill="#9a32cd" stroke="#9a32cd" points="600.061,-87.74 590.092,-91.3271 600.122,-94.7398 600.061,-87.74"/>
<text text-anchor="middle" x="648" y="-127" font-family="Helvetica,sans-Serif" font-size="10.00"> Shots</text>
<text text-anchor="middle" x="648" y="-116" font-family="Helvetica,sans-Serif" font-size="10.00">Poops</text>
</g>
<!-- Node7 -->
<g id="node7" class="node"><title>Node7</title>
<polygon fill="white" stroke="#bfbfbf" points="512.5,-0.5 512.5,-19.5 557.5,-19.5 557.5,-0.5 512.5,-0.5"/>
<text text-anchor="middle" x="535" y="-7.5" font-family="Helvetica,sans-Serif" font-size="10.00">Stage</text>
</g>
<!-- Node7&#45;&gt;Node1 -->
<g id="edge23" class="edge"><title>Node7&#45;&gt;Node1</title>
<path fill="none" stroke="#9a32cd" stroke-dasharray="5,2" d="M568.17,-7.29956C597.924,-5.49022 643.263,-4.48372 682,-11 720.336,-17.4488 762.701,-33.7827 787.524,-44.3604"/>
<polygon fill="#9a32cd" stroke="#9a32cd" points="567.696,-3.82354 557.955,-7.99004 568.168,-10.8076 567.696,-3.82354"/>
<text text-anchor="middle" x="724" y="-32" font-family="Helvetica,sans-Serif" font-size="10.00"> stage</text>
</g>
<!-- Node7&#45;&gt;Node2 -->
<g id="edge6" class="edge"><title>Node7&#45;&gt;Node2</title>
<path fill="none" stroke="#9a32cd" stroke-dasharray="5,2" d="M567.506,-7.23284C600.398,-6.17101 651.371,-9.96077 682,-39 704.397,-60.2341 717.999,-158.473 721.86,-190.136"/>
<polygon fill="#9a32cd" stroke="#9a32cd" points="567.328,-3.73728 557.511,-7.72221 567.67,-10.7289 567.328,-3.73728"/>
<text text-anchor="middle" x="648" y="-42" font-family="Helvetica,sans-Serif" font-size="10.00"> stage</text>
</g>
<!-- Node8 -->
<g id="node8" class="node"><title>Node8</title>
<polygon fill="white" stroke="#bfbfbf" points="489.5,-50.5 489.5,-69.5 580.5,-69.5 580.5,-50.5 489.5,-50.5"/>
<text text-anchor="middle" x="535" y="-57.5" font-family="Helvetica,sans-Serif" font-size="10.00">IntegerProperty</text>
</g>
<!-- Node8&#45;&gt;Node2 -->
<g id="edge7" class="edge"><title>Node8&#45;&gt;Node2</title>
<path fill="none" stroke="#9a32cd" stroke-dasharray="5,2" d="M590.998,-53.0207C620.963,-52.245 656.935,-56.6275 682,-77 717.634,-105.962 722.512,-166.872 723.023,-190.422"/>
<polygon fill="#9a32cd" stroke="#9a32cd" points="590.507,-49.5394 580.678,-53.4924 590.827,-56.5321 590.507,-49.5394"/>
<text text-anchor="middle" x="648" y="-80" font-family="Helvetica,sans-Serif" font-size="10.00"> timeSeconds</text>
</g>
<!-- Node9&#45;&gt;Node2 -->
<g id="edge8" class="edge"><title>Node9&#45;&gt;Node2</title>
<path fill="none" stroke="#9a32cd" stroke-dasharray="5,2" d="M570.12,-217.168C608.004,-212.914 668.075,-206.168 700.488,-202.528"/>
<polygon fill="#9a32cd" stroke="#9a32cd" points="569.611,-213.703 560.064,-218.298 570.392,-220.66 569.611,-213.703"/>
<text text-anchor="middle" x="648" y="-214" font-family="Helvetica,sans-Serif" font-size="10.00"> myEnemy</text>
</g>
<!-- Node10 -->
<g id="node10" class="node"><title>Node10</title>
<g id="a_node10"><a xlink:href="../../d7/da7/class_character.html" target="_top" xlink:title="Character">
<polygon fill="white" stroke="black" points="306,-211.5 306,-230.5 370,-230.5 370,-211.5 306,-211.5"/>
<text text-anchor="middle" x="338" y="-218.5" font-family="Helvetica,sans-Serif" font-size="10.00">Character</text>
</a>
</g>
</g>
<!-- Node10&#45;&gt;Node9 -->
<g id="edge9" class="edge"><title>Node10&#45;&gt;Node9</title>
<path fill="none" stroke="midnightblue" d="M380.399,-221C419.726,-221 477.509,-221 509.831,-221"/>
<polygon fill="midnightblue" stroke="midnightblue" points="380.33,-217.5 370.33,-221 380.33,-224.5 380.33,-217.5"/>
</g>
<!-- Node10&#45;&gt;Node18 -->
<g id="edge20" class="edge"><title>Node10&#45;&gt;Node18</title>
<path fill="none" stroke="midnightblue" d="M357.273,-237.031C365.987,-243.754 376.916,-250.94 388,-255 429.843,-270.326 482.704,-271.241 511.967,-270.285"/>
<polygon fill="midnightblue" stroke="midnightblue" points="359.337,-234.198 349.373,-230.595 354.915,-239.624 359.337,-234.198"/>
</g>
<!-- Node11 -->
<g id="node11" class="node"><title>Node11</title>
<g id="a_node11"><a xlink:href="../../d7/dbf/class_sprite.html" target="_top" xlink:title="Sprite">
<polygon fill="white" stroke="black" points="175.5,-230.5 175.5,-249.5 220.5,-249.5 220.5,-230.5 175.5,-230.5"/>
<text text-anchor="middle" x="198" y="-237.5" font-family="Helvetica,sans-Serif" font-size="10.00">Sprite</text>
</a>
</g>
</g>
<!-- Node11&#45;&gt;Node10 -->
<g id="edge10" class="edge"><title>Node11&#45;&gt;Node10</title>
<path fill="none" stroke="midnightblue" d="M230.648,-235.643C253.214,-232.536 283.408,-228.379 305.858,-225.288"/>
<polygon fill="midnightblue" stroke="midnightblue" points="229.992,-232.2 220.562,-237.031 230.946,-239.135 229.992,-232.2"/>
</g>
<!-- Node12 -->
<g id="node12" class="node"><title>Node12</title>
<polygon fill="white" stroke="#bfbfbf" points="0,-249.5 0,-268.5 68,-268.5 68,-249.5 0,-249.5"/>
<text text-anchor="middle" x="34" y="-256.5" font-family="Helvetica,sans-Serif" font-size="10.00">ImageView</text>
</g>
<!-- Node12&#45;&gt;Node11 -->
<g id="edge11" class="edge"><title>Node12&#45;&gt;Node11</title>
<path fill="none" stroke="midnightblue" d="M78.3765,-253.913C109.659,-250.244 150.566,-245.446 175.256,-242.55"/>
<polygon fill="midnightblue" stroke="midnightblue" points="77.6982,-250.468 68.174,-255.109 78.5137,-257.42 77.6982,-250.468"/>
</g>
<!-- Node13 -->
<g id="node13" class="node"><title>Node13</title>
<polygon fill="white" stroke="#bfbfbf" points="7,-211.5 7,-230.5 61,-230.5 61,-211.5 7,-211.5"/>
<text text-anchor="middle" x="34" y="-218.5" font-family="Helvetica,sans-Serif" font-size="10.00">Point2D</text>
</g>
<!-- Node13&#45;&gt;Node11 -->
<g id="edge12" class="edge"><title>Node13&#45;&gt;Node11</title>
<path fill="none" stroke="#9a32cd" stroke-dasharray="5,2" d="M70.9963,-223.741C91.7867,-225.48 118.412,-227.972 142,-231 153.036,-232.417 165.256,-234.377 175.369,-236.106"/>
<polygon fill="#9a32cd" stroke="#9a32cd" points="71.2528,-220.25 61.0012,-222.925 70.6833,-227.227 71.2528,-220.25"/>
<text text-anchor="middle" x="114" y="-234" font-family="Helvetica,sans-Serif" font-size="10.00"> myVelocity</text>
</g>
<!-- Node14 -->
<g id="node14" class="node"><title>Node14</title>
<polygon fill="white" stroke="#bfbfbf" points="160.5,-192.5 160.5,-211.5 235.5,-211.5 235.5,-192.5 160.5,-192.5"/>
<text text-anchor="middle" x="198" y="-199.5" font-family="Helvetica,sans-Serif" font-size="10.00">ProgressBar</text>
</g>
<!-- Node14&#45;&gt;Node10 -->
<g id="edge13" class="edge"><title>Node14&#45;&gt;Node10</title>
<path fill="none" stroke="#9a32cd" stroke-dasharray="5,2" d="M245.95,-207.456C259.531,-209.128 274.368,-211.046 288,-213 293.802,-213.832 299.979,-214.786 305.922,-215.739"/>
<polygon fill="#9a32cd" stroke="#9a32cd" points="246.198,-203.961 235.849,-206.229 245.354,-210.91 246.198,-203.961"/>
<text text-anchor="middle" x="271" y="-216" font-family="Helvetica,sans-Serif" font-size="10.00"> HPBar</text>
</g>
<!-- Node15 -->
<g id="node15" class="node"><title>Node15</title>
<polygon fill="white" stroke="#bfbfbf" points="310,-163.5 310,-182.5 366,-182.5 366,-163.5 310,-163.5"/>
<text text-anchor="middle" x="338" y="-170.5" font-family="Helvetica,sans-Serif" font-size="10.00">Random</text>
</g>
<!-- Node15&#45;&gt;Node2 -->
<g id="edge18" class="edge"><title>Node15&#45;&gt;Node2</title>
<path fill="none" stroke="#9a32cd" stroke-dasharray="5,2" d="M376.014,-175.583C425.955,-179.07 517.691,-185.483 596,-191 632.381,-193.563 674.623,-196.561 700.058,-198.368"/>
<polygon fill="#9a32cd" stroke="#9a32cd" points="376.231,-172.09 366.011,-174.884 375.743,-179.073 376.231,-172.09"/>
<text text-anchor="middle" x="535" y="-194" font-family="Helvetica,sans-Serif" font-size="10.00"> myGenerator</text>
</g>
<!-- Node15&#45;&gt;Node9 -->
<g id="edge14" class="edge"><title>Node15&#45;&gt;Node9</title>
<path fill="none" stroke="#9a32cd" stroke-dasharray="5,2" d="M375.851,-182.071C415.162,-191.748 476.293,-206.795 509.875,-215.062"/>
<polygon fill="#9a32cd" stroke="#9a32cd" points="376.661,-178.666 366.114,-179.674 374.987,-185.463 376.661,-178.666"/>
<text text-anchor="middle" x="422" y="-204" font-family="Helvetica,sans-Serif" font-size="10.00"> myGenerator</text>
</g>
<!-- Node16 -->
<g id="node16" class="node"><title>Node16</title>
<polygon fill="white" stroke="#bfbfbf" points="514,-429.5 514,-448.5 556,-448.5 556,-429.5 514,-429.5"/>
<text text-anchor="middle" x="535" y="-436.5" font-family="Helvetica,sans-Serif" font-size="10.00">Label</text>
</g>
<!-- Node16&#45;&gt;Node2 -->
<g id="edge16" class="edge"><title>Node16&#45;&gt;Node2</title>
<path fill="none" stroke="#9a32cd" stroke-dasharray="5,2" d="M566.067,-443.7C599.046,-447.01 651.352,-446.529 682,-417 712.44,-387.671 720.86,-247.877 722.609,-209.669"/>
<polygon fill="#9a32cd" stroke="#9a32cd" points="566.431,-440.219 556.09,-442.524 565.612,-447.17 566.431,-440.219"/>
<text text-anchor="middle" x="648" y="-447" font-family="Helvetica,sans-Serif" font-size="10.00"> timerLabel</text>
</g>
<!-- Node17 -->
<g id="node17" class="node"><title>Node17</title>
<polygon fill="white" stroke="#bfbfbf" points="511.5,-391.5 511.5,-410.5 558.5,-410.5 558.5,-391.5 511.5,-391.5"/>
<text text-anchor="middle" x="535" y="-398.5" font-family="Helvetica,sans-Serif" font-size="10.00">Scene</text>
</g>
<!-- Node17&#45;&gt;Node2 -->
<g id="edge17" class="edge"><title>Node17&#45;&gt;Node2</title>
<path fill="none" stroke="#9a32cd" stroke-dasharray="5,2" d="M568.628,-404.939C601.568,-406.979 651.772,-404.487 682,-376 706.659,-352.761 718.894,-243.441 722.116,-209.846"/>
<polygon fill="#9a32cd" stroke="#9a32cd" points="568.833,-401.444 558.588,-404.144 568.28,-408.422 568.833,-401.444"/>
<text text-anchor="middle" x="648" y="-406" font-family="Helvetica,sans-Serif" font-size="10.00"> myScene</text>
</g>
<!-- Node18&#45;&gt;Node2 -->
<g id="edge19" class="edge"><title>Node18&#45;&gt;Node2</title>
<path fill="none" stroke="#9a32cd" stroke-dasharray="5,2" d="M568.189,-262.249C598.4,-255.284 644.436,-243.036 682,-226 691.825,-221.544 702.075,-215.044 709.869,-209.658"/>
<polygon fill="#9a32cd" stroke="#9a32cd" points="567.193,-258.885 558.202,-264.491 568.726,-265.715 567.193,-258.885"/>
<text text-anchor="middle" x="648" y="-252" font-family="Helvetica,sans-Serif" font-size="10.00"> myPlayer</text>
</g>
</g>
</svg>
        <g id="navigator" transform="translate(0 0)" fill="#404254">
                <rect fill="#f2f5e9" fill-opacity="0.5" stroke="#606060" stroke-width=".5" x="0" y="0" width="60" height="60"/>
                <use id="zoomplus" xlink:href="#zoomPlus" x="17" y="9" onmousedown="handleZoom(evt,'in')"/>
                <use id="zoomminus" xlink:href="#zoomMin" x="42" y="9" onmousedown="handleZoom(evt,'out')"/>
                <use id="reset" xlink:href="#resetDef" x="30" y="36" onmousedown="handleReset()"/>
                <g id="arrowUp" xlink:href="#dirArrow" transform="translate(30 24)" onmousedown="handlePan(0,-1)">
                  <use xlink:href="#rim" fill="#404040">
                        <set attributeName="fill" to="#808080" begin="arrowUp.mouseover" end="arrowUp.mouseout"/>
                  </use>
                  <path fill="none" stroke="white" stroke-width="1.5" d="M0,-3.0v7 M-2.5,-0.5L0,-3.0L2.5,-0.5"/>
                </g>
                <g id="arrowRight" xlink:href="#dirArrow" transform="rotate(90) translate(36 -43)" onmousedown="handlePan(1,0)">
                  <use xlink:href="#rim" fill="#404040">
                        <set attributeName="fill" to="#808080" begin="arrowRight.mouseover" end="arrowRight.mouseout"/>
                  </use>
                  <path fill="none" stroke="white" stroke-width="1.5" d="M0,-3.0v7 M-2.5,-0.5L0,-3.0L2.5,-0.5"/>
                </g>
                <g id="arrowDown" xlink:href="#dirArrow" transform="rotate(180) translate(-30 -48)" onmousedown="handlePan(0,1)">
                  <use xlink:href="#rim" fill="#404040">
                        <set attributeName="fill" to="#808080" begin="arrowDown.mouseover" end="arrowDown.mouseout"/>
                  </use>
                  <path fill="none" stroke="white" stroke-width="1.5" d="M0,-3.0v7 M-2.5,-0.5L0,-3.0L2.5,-0.5"/>
                </g>
                <g id="arrowLeft" xlink:href="#dirArrow" transform="rotate(270) translate(-36 17)" onmousedown="handlePan(-1,0)">
                  <use xlink:href="#rim" fill="#404040">
                        <set attributeName="fill" to="#808080" begin="arrowLeft.mouseover" end="arrowLeft.mouseout"/>
                  </use>
                  <path fill="none" stroke="white" stroke-width="1.5" d="M0,-3.0v7 M-2.5,-0.5L0,-3.0L2.5,-0.5"/>
                </g>
        </g>
        <svg viewBox="0 0 15 15" width="100%" height="30px" preserveAspectRatio="xMaxYMin meet">
         <g id="arrow_out" transform="scale(0.3 0.3)">
          <a xlink:href="class_level2__coll__graph_org.svg" target="_base">
           <rect id="button" ry="5" rx="5" y="6" x="6" height="38" width="38"
                fill="#f2f5e9" fill-opacity="0.5" stroke="#606060" stroke-width="1.0"/>
           <path id="arrow"
             d="M 11.500037,31.436501 C 11.940474,20.09759 22.043105,11.32322 32.158766,21.979434 L 37.068811,17.246167 C 37.068811,17.246167 37.088388,32 37.088388,32 L 22.160133,31.978069 C 22.160133,31.978069 26.997745,27.140456 26.997745,27.140456 C 18.528582,18.264221 13.291696,25.230495 11.500037,31.436501 z"
             style="fill:#404040;"/>
          </a>
         </g>
        </svg>
</svg>
