<?xml version="1.0" encoding="UTF-8" standalone="no"?>
<!DOCTYPE svg PUBLIC "-//W3C//DTD SVG 1.1//EN"
 "http://www.w3.org/Graphics/SVG/1.1/DTD/svg11.dtd">
<!-- Generated by graphviz version 2.36.0 (20140111.2315)
 -->
<!-- Title: Main Pages: 1 -->
<svg width="204pt" height="232pt"
 viewBox="0.00 0.00 204.00 232.00" xmlns="http://www.w3.org/2000/svg" xmlns:xlink="http://www.w3.org/1999/xlink">
<g id="graph0" class="graph" transform="scale(1 1) rotate(0) translate(4 228)">
<title>Main</title>
<polygon fill="white" stroke="none" points="-4,4 -4,-228 200,-228 200,4 -4,4"/>
<!-- Node1 -->
<g id="node1" class="node"><title>Node1</title>
<polygon fill="#bfbfbf" stroke="black" points="40.5,-0.5 40.5,-19.5 79.5,-19.5 79.5,-0.5 40.5,-0.5"/>
<text text-anchor="middle" x="60" y="-7.5" font-family="Helvetica,sans-Serif" font-size="10.00">Main</text>
</g>
<!-- Node2 -->
<g id="node2" class="node"><title>Node2</title>
<polygon fill="white" stroke="#bfbfbf" points="-0.5,-68.5 -0.5,-87.5 68.5,-87.5 68.5,-68.5 -0.5,-68.5"/>
<text text-anchor="middle" x="34" y="-75.5" font-family="Helvetica,sans-Serif" font-size="10.00">Application</text>
</g>
<!-- Node2&#45;&gt;Node1 -->
<g id="edge1" class="edge"><title>Node2&#45;&gt;Node1</title>
<path fill="none" stroke="midnightblue" d="M41.1671,-58.8066C46.1631,-46.1244 52.6091,-29.7615 56.5171,-19.8411"/>
<polygon fill="midnightblue" stroke="midnightblue" points="37.8079,-57.7847 37.399,-68.3717 44.3208,-60.3504 37.8079,-57.7847"/>
</g>
<!-- Node3 -->
<g id="node3" class="node"><title>Node3</title>
<g id="a_node3"><a xlink:href="../../d2/db8/class_menu.html" target="_top" xlink:title="Menu">
<polygon fill="white" stroke="black" points="86.5,-68.5 86.5,-87.5 129.5,-87.5 129.5,-68.5 86.5,-68.5"/>
<text text-anchor="middle" x="108" y="-75.5" font-family="Helvetica,sans-Serif" font-size="10.00">Menu</text>
</a>
</g>
</g>
<!-- Node3&#45;&gt;Node1 -->
<g id="edge2" class="edge"><title>Node3&#45;&gt;Node1</title>
<path fill="none" stroke="#9a32cd" stroke-dasharray="5,2" d="M95.5911,-59.9377C86.2632,-47.112 73.8612,-30.0591 66.4299,-19.8411"/>
<polygon fill="#9a32cd" stroke="#9a32cd" points="93.0125,-62.3429 101.725,-68.3717 98.6737,-58.2257 93.0125,-62.3429"/>
<text text-anchor="middle" x="111.5" y="-41.5" font-family="Helvetica,sans-Serif" font-size="10.00"> myMenu</text>
</g>
<!-- Node4 -->
<g id="node4" class="node"><title>Node4</title>
<g id="a_node4"><a xlink:href="../../d6/d21/class_screen.html" target="_top" xlink:title="Screen">
<polygon fill="white" stroke="black" points="83,-136.5 83,-155.5 133,-155.5 133,-136.5 83,-136.5"/>
<text text-anchor="middle" x="108" y="-143.5" font-family="Helvetica,sans-Serif" font-size="10.00">Screen</text>
</a>
</g>
</g>
<!-- Node4&#45;&gt;Node3 -->
<g id="edge3" class="edge"><title>Node4&#45;&gt;Node3</title>
<path fill="none" stroke="midnightblue" d="M108,-126.041C108,-113.472 108,-97.5631 108,-87.8411"/>
<polygon fill="midnightblue" stroke="midnightblue" points="104.5,-126.372 108,-136.372 111.5,-126.372 104.5,-126.372"/>
</g>
<!-- Node5 -->
<g id="node5" class="node"><title>Node5</title>
<polygon fill="white" stroke="#bfbfbf" points="31,-204.5 31,-223.5 77,-223.5 77,-204.5 31,-204.5"/>
<text text-anchor="middle" x="54" y="-211.5" font-family="Helvetica,sans-Serif" font-size="10.00">Group</text>
</g>
<!-- Node5&#45;&gt;Node3 -->
<g id="edge6" class="edge"><title>Node5&#45;&gt;Node3</title>
<path fill="none" stroke="#9a32cd" stroke-dasharray="5,2" d="M42.5384,-195.168C33.7588,-179.083 24.6083,-155.089 34,-136 45.3112,-113.01 70.8482,-96.6855 88.7424,-87.5565"/>
<polygon fill="#9a32cd" stroke="#9a32cd" points="39.6857,-197.221 47.7879,-204.047 45.7114,-193.658 39.6857,-197.221"/>
<text text-anchor="middle" x="54" y="-143.5" font-family="Helvetica,sans-Serif" font-size="10.00"> myRoot</text>
</g>
<!-- Node5&#45;&gt;Node4 -->
<g id="edge4" class="edge"><title>Node5&#45;&gt;Node4</title>
<path fill="none" stroke="#9a32cd" stroke-dasharray="5,2" d="M67.6554,-196.31C78.1824,-183.444 92.325,-166.158 100.766,-155.841"/>
<polygon fill="#9a32cd" stroke="#9a32cd" points="64.6831,-194.416 61.0596,-204.372 70.1008,-198.848 64.6831,-194.416"/>
<text text-anchor="middle" x="106" y="-177.5" font-family="Helvetica,sans-Serif" font-size="10.00"> myRoot</text>
</g>
<!-- Node6 -->
<g id="node6" class="node"><title>Node6</title>
<polygon fill="white" stroke="#bfbfbf" points="151.5,-136.5 151.5,-155.5 196.5,-155.5 196.5,-136.5 151.5,-136.5"/>
<text text-anchor="middle" x="174" y="-143.5" font-family="Helvetica,sans-Serif" font-size="10.00">Stage</text>
</g>
<!-- Node6&#45;&gt;Node3 -->
<g id="edge5" class="edge"><title>Node6&#45;&gt;Node3</title>
<path fill="none" stroke="#9a32cd" stroke-dasharray="5,2" d="M158.047,-129.047C145.111,-116.111 127.357,-98.3567 116.841,-87.8411"/>
<polygon fill="#9a32cd" stroke="#9a32cd" points="155.826,-131.775 165.372,-136.372 160.775,-126.826 155.826,-131.775"/>
<text text-anchor="middle" x="161.5" y="-109.5" font-family="Helvetica,sans-Serif" font-size="10.00"> stage</text>
</g>
</g>
</svg>
