<?xml version="1.0" encoding="UTF-8" standalone="no"?>
<!DOCTYPE svg PUBLIC "-//W3C//DTD SVG 1.1//EN"
 "http://www.w3.org/Graphics/SVG/1.1/DTD/svg11.dtd">
<!-- Generated by graphviz version 2.36.0 (20140111.2315)
 -->
<!-- Title: Poop Pages: 1 -->
<svg width="159pt" height="154pt"
 viewBox="0.00 0.00 159.00 154.00" xmlns="http://www.w3.org/2000/svg" xmlns:xlink="http://www.w3.org/1999/xlink">
<g id="graph0" class="graph" transform="scale(1 1) rotate(0) translate(4 150)">
<title>Poop</title>
<polygon fill="white" stroke="none" points="-4,4 -4,-150 155,-150 155,4 -4,4"/>
<!-- Node1 -->
<g id="node1" class="node"><title>Node1</title>
<polygon fill="#bfbfbf" stroke="black" points="52.5,-0.5 52.5,-19.5 93.5,-19.5 93.5,-0.5 52.5,-0.5"/>
<text text-anchor="middle" x="73" y="-7.5" font-family="Helvetica,sans-Serif" font-size="10.00">Poop</text>
</g>
<!-- Node2 -->
<g id="node2" class="node"><title>Node2</title>
<g id="a_node2"><a xlink:href="../../d7/dbf/class_sprite.html" target="_top" xlink:title="Sprite">
<polygon fill="white" stroke="black" points="50.5,-58.5 50.5,-77.5 95.5,-77.5 95.5,-58.5 50.5,-58.5"/>
<text text-anchor="middle" x="73" y="-65.5" font-family="Helvetica,sans-Serif" font-size="10.00">Sprite</text>
</a>
</g>
</g>
<!-- Node2&#45;&gt;Node1 -->
<g id="edge1" class="edge"><title>Node2&#45;&gt;Node1</title>
<path fill="none" stroke="midnightblue" d="M73,-47.953C73,-38.2875 73,-27.0312 73,-19.5052"/>
<polygon fill="midnightblue" stroke="midnightblue" points="69.5001,-48.25 73,-58.25 76.5001,-48.25 69.5001,-48.25"/>
</g>
<!-- Node3 -->
<g id="node3" class="node"><title>Node3</title>
<polygon fill="white" stroke="#bfbfbf" points="0,-126.5 0,-145.5 68,-145.5 68,-126.5 0,-126.5"/>
<text text-anchor="middle" x="34" y="-133.5" font-family="Helvetica,sans-Serif" font-size="10.00">ImageView</text>
</g>
<!-- Node3&#45;&gt;Node2 -->
<g id="edge2" class="edge"><title>Node3&#45;&gt;Node2</title>
<path fill="none" stroke="midnightblue" d="M44.3037,-117.563C51.8564,-104.781 61.7964,-87.9599 67.7757,-77.8411"/>
<polygon fill="midnightblue" stroke="midnightblue" points="41.1727,-115.982 39.0986,-126.372 47.1992,-119.543 41.1727,-115.982"/>
</g>
<!-- Node4 -->
<g id="node4" class="node"><title>Node4</title>
<polygon fill="white" stroke="#bfbfbf" points="86,-126.5 86,-145.5 140,-145.5 140,-126.5 86,-126.5"/>
<text text-anchor="middle" x="113" y="-133.5" font-family="Helvetica,sans-Serif" font-size="10.00">Point2D</text>
</g>
<!-- Node4&#45;&gt;Node2 -->
<g id="edge3" class="edge"><title>Node4&#45;&gt;Node2</title>
<path fill="none" stroke="#9a32cd" stroke-dasharray="5,2" d="M102.432,-117.563C94.6857,-104.781 84.4909,-87.9599 78.3583,-77.8411"/>
<polygon fill="#9a32cd" stroke="#9a32cd" points="99.5944,-119.634 107.771,-126.372 105.581,-116.006 99.5944,-119.634"/>
<text text-anchor="middle" x="123.5" y="-99.5" font-family="Helvetica,sans-Serif" font-size="10.00"> myVelocity</text>
</g>
</g>
</svg>
