<?xml version="1.0" encoding="UTF-8" standalone="no"?>
<!DOCTYPE svg PUBLIC "-//W3C//DTD SVG 1.1//EN"
 "http://www.w3.org/Graphics/SVG/1.1/DTD/svg11.dtd">
<!-- Generated by graphviz version 2.36.0 (20140111.2315)
 -->
<!-- Title: Menu Pages: 1 -->
<svg width="174pt" height="164pt"
 viewBox="0.00 0.00 174.19 164.00" xmlns="http://www.w3.org/2000/svg" xmlns:xlink="http://www.w3.org/1999/xlink">
<g id="graph0" class="graph" transform="scale(1 1) rotate(0) translate(4 160)">
<title>Menu</title>
<polygon fill="white" stroke="none" points="-4,4 -4,-160 170.188,-160 170.188,4 -4,4"/>
<!-- Node1 -->
<g id="node1" class="node"><title>Node1</title>
<polygon fill="#bfbfbf" stroke="black" points="56.6883,-0.5 56.6883,-19.5 99.6883,-19.5 99.6883,-0.5 56.6883,-0.5"/>
<text text-anchor="middle" x="78.1883" y="-7.5" font-family="Helvetica,sans-Serif" font-size="10.00">Menu</text>
</g>
<!-- Node2 -->
<g id="node2" class="node"><title>Node2</title>
<g id="a_node2"><a xlink:href="../../d6/d21/class_screen.html" target="_top" xlink:title="Screen">
<polygon fill="white" stroke="black" points="53.1883,-68.5 53.1883,-87.5 103.188,-87.5 103.188,-68.5 53.1883,-68.5"/>
<text text-anchor="middle" x="78.1883" y="-75.5" font-family="Helvetica,sans-Serif" font-size="10.00">Screen</text>
</a>
</g>
</g>
<!-- Node2&#45;&gt;Node1 -->
<g id="edge1" class="edge"><title>Node2&#45;&gt;Node1</title>
<path fill="none" stroke="midnightblue" d="M78.1883,-58.0413C78.1883,-45.4724 78.1883,-29.5631 78.1883,-19.8411"/>
<polygon fill="midnightblue" stroke="midnightblue" points="74.6884,-58.3716 78.1883,-68.3717 81.6884,-58.3717 74.6884,-58.3716"/>
</g>
<!-- Node3 -->
<g id="node3" class="node"><title>Node3</title>
<polygon fill="white" stroke="#bfbfbf" points="1.18831,-136.5 1.18831,-155.5 47.1883,-155.5 47.1883,-136.5 1.18831,-136.5"/>
<text text-anchor="middle" x="24.1883" y="-143.5" font-family="Helvetica,sans-Serif" font-size="10.00">Group</text>
</g>
<!-- Node3&#45;&gt;Node1 -->
<g id="edge4" class="edge"><title>Node3&#45;&gt;Node1</title>
<path fill="none" stroke="#9a32cd" stroke-dasharray="5,2" d="M12.7267,-127.168C3.94707,-111.083 -5.20339,-87.089 4.18831,-68 15.4995,-45.0096 41.0365,-28.6855 58.9307,-19.5565"/>
<polygon fill="#9a32cd" stroke="#9a32cd" points="9.874,-129.221 17.9762,-136.047 15.8997,-125.658 9.874,-129.221"/>
<text text-anchor="middle" x="24.1883" y="-75.5" font-family="Helvetica,sans-Serif" font-size="10.00"> myRoot</text>
</g>
<!-- Node3&#45;&gt;Node2 -->
<g id="edge2" class="edge"><title>Node3&#45;&gt;Node2</title>
<path fill="none" stroke="#9a32cd" stroke-dasharray="5,2" d="M37.8437,-128.31C48.3707,-115.444 62.5133,-98.1583 70.9547,-87.8411"/>
<polygon fill="#9a32cd" stroke="#9a32cd" points="34.8714,-126.416 31.2479,-136.372 40.2891,-130.848 34.8714,-126.416"/>
<text text-anchor="middle" x="76.1883" y="-109.5" font-family="Helvetica,sans-Serif" font-size="10.00"> myRoot</text>
</g>
<!-- Node4 -->
<g id="node4" class="node"><title>Node4</title>
<polygon fill="white" stroke="#bfbfbf" points="121.688,-68.5 121.688,-87.5 166.688,-87.5 166.688,-68.5 121.688,-68.5"/>
<text text-anchor="middle" x="144.188" y="-75.5" font-family="Helvetica,sans-Serif" font-size="10.00">Stage</text>
</g>
<!-- Node4&#45;&gt;Node1 -->
<g id="edge3" class="edge"><title>Node4&#45;&gt;Node1</title>
<path fill="none" stroke="#9a32cd" stroke-dasharray="5,2" d="M128.236,-61.0474C115.299,-48.1111 97.545,-30.3567 87.0294,-19.8411"/>
<polygon fill="#9a32cd" stroke="#9a32cd" points="126.014,-63.7754 135.56,-68.3717 130.964,-58.8257 126.014,-63.7754"/>
<text text-anchor="middle" x="132.688" y="-41.5" font-family="Helvetica,sans-Serif" font-size="10.00"> stage</text>
</g>
</g>
</svg>
