<?xml version="1.0" encoding="UTF-8" standalone="no"?>
<!DOCTYPE svg PUBLIC "-//W3C//DTD SVG 1.1//EN"
 "http://www.w3.org/Graphics/SVG/1.1/DTD/svg11.dtd">
<!-- Generated by graphviz version 2.36.0 (20140111.2315)
 -->
<!-- Title: Sprite.getVelocity Pages: 1 -->
<svg width="1350pt" height="104pt"
 viewBox="0.00 0.00 1350.00 104.00" xmlns="http://www.w3.org/2000/svg" xmlns:xlink="http://www.w3.org/1999/xlink">
<g id="graph0" class="graph" transform="scale(1 1) rotate(0) translate(4 100)">
<title>Sprite.getVelocity</title>
<polygon fill="white" stroke="none" points="-4,4 -4,-100 1346,-100 1346,4 -4,4"/>
<!-- Node1 -->
<g id="node1" class="node"><title>Node1</title>
<polygon fill="#bfbfbf" stroke="black" points="0.5,-57.5 0.5,-76.5 101.5,-76.5 101.5,-57.5 0.5,-57.5"/>
<text text-anchor="middle" x="51" y="-64.5" font-family="Helvetica,sans-Serif" font-size="10.00">Sprite.getVelocity</text>
</g>
<!-- Node2 -->
<g id="node2" class="node"><title>Node2</title>
<g id="a_node2"><a xlink:href="../../d8/d53/class_player.html#aabc2918b7a68a9557a2f01b243a21fa8" target="_top" xlink:title="Player.makeShot">
<polygon fill="white" stroke="black" points="143,-76.5 143,-95.5 241,-95.5 241,-76.5 143,-76.5"/>
<text text-anchor="middle" x="192" y="-83.5" font-family="Helvetica,sans-Serif" font-size="10.00">Player.makeShot</text>
</a>
</g>
</g>
<!-- Node1&#45;&gt;Node2 -->
<g id="edge1" class="edge"><title>Node1&#45;&gt;Node2</title>
<path fill="none" stroke="midnightblue" d="M112.004,-75.2019C122.348,-76.6159 132.978,-78.0689 142.954,-79.4326"/>
<polygon fill="midnightblue" stroke="midnightblue" points="112.171,-71.6924 101.79,-73.8058 111.223,-78.6279 112.171,-71.6924"/>
</g>
<!-- Node6 -->
<g id="node6" class="node"><title>Node6</title>
<g id="a_node6"><a xlink:href="../../dd/d7a/class_enemy.html#ab653212b50d9e64ba497ae18696d3678" target="_top" xlink:title="Enemy.moveSprite">
<polygon fill="white" stroke="black" points="138.5,-38.5 138.5,-57.5 245.5,-57.5 245.5,-38.5 138.5,-38.5"/>
<text text-anchor="middle" x="192" y="-45.5" font-family="Helvetica,sans-Serif" font-size="10.00">Enemy.moveSprite</text>
</a>
</g>
</g>
<!-- Node1&#45;&gt;Node6 -->
<g id="edge5" class="edge"><title>Node1&#45;&gt;Node6</title>
<path fill="none" stroke="midnightblue" d="M111.943,-58.8063C120.703,-57.6089 129.669,-56.3834 138.27,-55.2076"/>
<polygon fill="midnightblue" stroke="midnightblue" points="111.223,-55.3721 101.79,-60.1942 112.171,-62.3076 111.223,-55.3721"/>
</g>
<!-- Node3 -->
<g id="node3" class="node"><title>Node3</title>
<g id="a_node3"><a xlink:href="../../d2/d3e/class_level1.html#ac36d707d46288fb3ee16958317c6f68f" target="_top" xlink:title="Level1.handleMouseInput">
<polygon fill="white" stroke="black" points="282,-76.5 282,-95.5 420,-95.5 420,-76.5 282,-76.5"/>
<text text-anchor="middle" x="351" y="-83.5" font-family="Helvetica,sans-Serif" font-size="10.00">Level1.handleMouseInput</text>
</a>
</g>
</g>
<!-- Node2&#45;&gt;Node3 -->
<g id="edge2" class="edge"><title>Node2&#45;&gt;Node3</title>
<path fill="none" stroke="midnightblue" d="M251.504,-86C261.398,-86 271.745,-86 281.86,-86"/>
<polygon fill="midnightblue" stroke="midnightblue" points="251.386,-82.5001 241.386,-86 251.386,-89.5001 251.386,-82.5001"/>
</g>
<!-- Node4 -->
<g id="node4" class="node"><title>Node4</title>
<g id="a_node4"><a xlink:href="../../d2/d3e/class_level1.html#a7a6c3c5e659524ade852b1b959144034" target="_top" xlink:title="Level1.makeScene">
<polygon fill="white" stroke="black" points="459.5,-76.5 459.5,-95.5 566.5,-95.5 566.5,-76.5 459.5,-76.5"/>
<text text-anchor="middle" x="513" y="-83.5" font-family="Helvetica,sans-Serif" font-size="10.00">Level1.makeScene</text>
</a>
</g>
</g>
<!-- Node3&#45;&gt;Node4 -->
<g id="edge3" class="edge"><title>Node3&#45;&gt;Node4</title>
<path fill="none" stroke="midnightblue" d="M430.495,-86C440.295,-86 450.125,-86 459.397,-86"/>
<polygon fill="midnightblue" stroke="midnightblue" points="430.319,-82.5001 420.319,-86 430.318,-89.5001 430.319,-82.5001"/>
</g>
<!-- Node5 -->
<g id="node5" class="node"><title>Node5</title>
<g id="a_node5"><a xlink:href="../../d2/d3e/class_level1.html#a587fa04eadbb6b07c199ff971cff79df" target="_top" xlink:title="Level1.init">
<polygon fill="white" stroke="black" points="610.5,-76.5 610.5,-95.5 675.5,-95.5 675.5,-76.5 610.5,-76.5"/>
<text text-anchor="middle" x="643" y="-83.5" font-family="Helvetica,sans-Serif" font-size="10.00">Level1.init</text>
</a>
</g>
</g>
<!-- Node4&#45;&gt;Node5 -->
<g id="edge4" class="edge"><title>Node4&#45;&gt;Node5</title>
<path fill="none" stroke="midnightblue" d="M576.906,-86C588.462,-86 600.065,-86 610.208,-86"/>
<polygon fill="midnightblue" stroke="midnightblue" points="576.802,-82.5001 566.801,-86 576.801,-89.5001 576.802,-82.5001"/>
</g>
<!-- Node7 -->
<g id="node7" class="node"><title>Node7</title>
<g id="a_node7"><a xlink:href="../../d2/d3e/class_level1.html#a78a7fb5633734b1815af8db43db23a41" target="_top" xlink:title="Level1.updateSprites">
<polygon fill="white" stroke="black" points="292,-38.5 292,-57.5 410,-57.5 410,-38.5 292,-38.5"/>
<text text-anchor="middle" x="351" y="-45.5" font-family="Helvetica,sans-Serif" font-size="10.00">Level1.updateSprites</text>
</a>
</g>
</g>
<!-- Node6&#45;&gt;Node7 -->
<g id="edge6" class="edge"><title>Node6&#45;&gt;Node7</title>
<path fill="none" stroke="midnightblue" d="M255.95,-48C267.771,-48 280.083,-48 291.753,-48"/>
<polygon fill="midnightblue" stroke="midnightblue" points="255.716,-44.5001 245.715,-48 255.715,-51.5001 255.716,-44.5001"/>
</g>
<!-- Node8 -->
<g id="node8" class="node"><title>Node8</title>
<g id="a_node8"><a xlink:href="../../d2/d3e/class_level1.html#a324da1e22a7a87fa4bb1859b5774bdba" target="_top" xlink:title="Level1.updateFrame">
<polygon fill="white" stroke="black" points="456,-38.5 456,-57.5 570,-57.5 570,-38.5 456,-38.5"/>
<text text-anchor="middle" x="513" y="-45.5" font-family="Helvetica,sans-Serif" font-size="10.00">Level1.updateFrame</text>
</a>
</g>
</g>
<!-- Node7&#45;&gt;Node8 -->
<g id="edge7" class="edge"><title>Node7&#45;&gt;Node8</title>
<path fill="none" stroke="midnightblue" d="M420.5,-48C432.333,-48 444.509,-48 455.963,-48"/>
<polygon fill="midnightblue" stroke="midnightblue" points="420.216,-44.5001 410.216,-48 420.216,-51.5001 420.216,-44.5001"/>
</g>
<!-- Node9 -->
<g id="node9" class="node"><title>Node9</title>
<g id="a_node9"><a xlink:href="../../d2/d3e/class_level1.html#a0871325d07c0614d5f1f2df7df13b703" target="_top" xlink:title="Level1.start">
<polygon fill="white" stroke="black" points="606.5,-38.5 606.5,-57.5 679.5,-57.5 679.5,-38.5 606.5,-38.5"/>
<text text-anchor="middle" x="643" y="-45.5" font-family="Helvetica,sans-Serif" font-size="10.00">Level1.start</text>
</a>
</g>
</g>
<!-- Node8&#45;&gt;Node9 -->
<g id="edge8" class="edge"><title>Node8&#45;&gt;Node9</title>
<path fill="none" stroke="midnightblue" d="M580.221,-48C589.159,-48 598.039,-48 606.163,-48"/>
<polygon fill="midnightblue" stroke="midnightblue" points="580.143,-44.5001 570.143,-48 580.143,-51.5001 580.143,-44.5001"/>
</g>
<!-- Node10 -->
<g id="node10" class="node"><title>Node10</title>
<g id="a_node10"><a xlink:href="../../d2/db8/class_menu.html#ab6296880308728ced459f772430d025b" target="_top" xlink:title="Menu.createGame">
<polygon fill="white" stroke="black" points="718,-38.5 718,-57.5 824,-57.5 824,-38.5 718,-38.5"/>
<text text-anchor="middle" x="771" y="-45.5" font-family="Helvetica,sans-Serif" font-size="10.00">Menu.createGame</text>
</a>
</g>
</g>
<!-- Node9&#45;&gt;Node10 -->
<g id="edge9" class="edge"><title>Node9&#45;&gt;Node10</title>
<path fill="none" stroke="midnightblue" d="M690.04,-48C699.024,-48 708.506,-48 717.676,-48"/>
<polygon fill="midnightblue" stroke="midnightblue" points="689.77,-44.5001 679.77,-48 689.769,-51.5001 689.77,-44.5001"/>
</g>
<!-- Node17 -->
<g id="node17" class="node"><title>Node17</title>
<g id="a_node17"><a xlink:href="../../d2/d3e/class_level1.html#ac56e75129bb2946c38cfcf43608f3f05" target="_top" xlink:title="Level1.goNextLevel">
<polygon fill="white" stroke="black" points="716,-0.5 716,-19.5 826,-19.5 826,-0.5 716,-0.5"/>
<text text-anchor="middle" x="771" y="-7.5" font-family="Helvetica,sans-Serif" font-size="10.00">Level1.goNextLevel</text>
</a>
</g>
</g>
<!-- Node9&#45;&gt;Node17 -->
<g id="edge16" class="edge"><title>Node9&#45;&gt;Node17</title>
<path fill="none" stroke="midnightblue" d="M685.564,-35.4647C702.705,-30.2952 722.25,-24.4009 738.215,-19.5859"/>
<polygon fill="midnightblue" stroke="midnightblue" points="684.359,-32.1726 675.795,-38.411 686.38,-38.8744 684.359,-32.1726"/>
</g>
<!-- Node11 -->
<g id="node11" class="node"><title>Node11</title>
<g id="a_node11"><a xlink:href="../../d2/db8/class_menu.html#a53c8b072d5ec777994fed9ee76c98561" target="_top" xlink:title="Menu.handle">
<polygon fill="white" stroke="black" points="862,-38.5 862,-57.5 940,-57.5 940,-38.5 862,-38.5"/>
<text text-anchor="middle" x="901" y="-45.5" font-family="Helvetica,sans-Serif" font-size="10.00">Menu.handle</text>
</a>
</g>
</g>
<!-- Node10&#45;&gt;Node11 -->
<g id="edge10" class="edge"><title>Node10&#45;&gt;Node11</title>
<path fill="none" stroke="midnightblue" d="M834.198,-48C843.592,-48 853.038,-48 861.726,-48"/>
<polygon fill="midnightblue" stroke="midnightblue" points="834.063,-44.5001 824.062,-48 834.062,-51.5001 834.063,-44.5001"/>
</g>
<!-- Node12 -->
<g id="node12" class="node"><title>Node12</title>
<g id="a_node12"><a xlink:href="../../d2/db8/class_menu.html#aff7a7627619921545f94547ab6135007" target="_top" xlink:title="Menu.addButton">
<polygon fill="white" stroke="black" points="976,-38.5 976,-57.5 1072,-57.5 1072,-38.5 976,-38.5"/>
<text text-anchor="middle" x="1024" y="-45.5" font-family="Helvetica,sans-Serif" font-size="10.00">Menu.addButton</text>
</a>
</g>
</g>
<!-- Node11&#45;&gt;Node12 -->
<g id="edge11" class="edge"><title>Node11&#45;&gt;Node12</title>
<path fill="none" stroke="midnightblue" d="M950.539,-48C958.803,-48 967.377,-48 975.612,-48"/>
<polygon fill="midnightblue" stroke="midnightblue" points="950.285,-44.5001 940.285,-48 950.285,-51.5001 950.285,-44.5001"/>
</g>
<!-- Node13 -->
<g id="node13" class="node"><title>Node13</title>
<g id="a_node13"><a xlink:href="../../dd/d7f/class_game_win.html#a0ebbfe299d7456f57ae3dbf3817b7f8d" target="_top" xlink:title="GameWin.addAllButtons">
<polygon fill="white" stroke="black" points="1111,-76.5 1111,-95.5 1243,-95.5 1243,-76.5 1111,-76.5"/>
<text text-anchor="middle" x="1177" y="-83.5" font-family="Helvetica,sans-Serif" font-size="10.00">GameWin.addAllButtons</text>
</a>
</g>
</g>
<!-- Node12&#45;&gt;Node13 -->
<g id="edge12" class="edge"><title>Node12&#45;&gt;Node13</title>
<path fill="none" stroke="midnightblue" d="M1072.84,-60.04C1093.94,-65.3488 1118.38,-71.4988 1138.17,-76.4799"/>
<polygon fill="midnightblue" stroke="midnightblue" points="1073.66,-56.6354 1063.1,-57.589 1071.95,-63.4237 1073.66,-56.6354"/>
</g>
<!-- Node14 -->
<g id="node14" class="node"><title>Node14</title>
<g id="a_node14"><a xlink:href="../../d5/db1/class_game_over.html#abb505ac8c26999beff755f4c299370da" target="_top" xlink:title="GameOver.addAllButtons">
<polygon fill="white" stroke="black" points="1108.5,-38.5 1108.5,-57.5 1245.5,-57.5 1245.5,-38.5 1108.5,-38.5"/>
<text text-anchor="middle" x="1177" y="-45.5" font-family="Helvetica,sans-Serif" font-size="10.00">GameOver.addAllButtons</text>
</a>
</g>
</g>
<!-- Node12&#45;&gt;Node14 -->
<g id="edge13" class="edge"><title>Node12&#45;&gt;Node14</title>
<path fill="none" stroke="midnightblue" d="M1082.48,-48C1090.94,-48 1099.71,-48 1108.34,-48"/>
<polygon fill="midnightblue" stroke="midnightblue" points="1082.36,-44.5001 1072.36,-48 1082.36,-51.5001 1082.36,-44.5001"/>
</g>
<!-- Node15 -->
<g id="node15" class="node"><title>Node15</title>
<g id="a_node15"><a xlink:href="../../d2/db8/class_menu.html#a461e62e606af2391013ce3aaf92a8cc7" target="_top" xlink:title="Menu.addAllButtons">
<polygon fill="white" stroke="black" points="1120.5,-0.5 1120.5,-19.5 1233.5,-19.5 1233.5,-0.5 1120.5,-0.5"/>
<text text-anchor="middle" x="1177" y="-7.5" font-family="Helvetica,sans-Serif" font-size="10.00">Menu.addAllButtons</text>
</a>
</g>
</g>
<!-- Node12&#45;&gt;Node15 -->
<g id="edge14" class="edge"><title>Node12&#45;&gt;Node15</title>
<path fill="none" stroke="midnightblue" d="M1072.84,-35.96C1093.94,-30.6512 1118.38,-24.5012 1138.17,-19.5201"/>
<polygon fill="midnightblue" stroke="midnightblue" points="1071.95,-32.5763 1063.1,-38.411 1073.66,-39.3646 1071.95,-32.5763"/>
</g>
<!-- Node16 -->
<g id="node16" class="node"><title>Node16</title>
<g id="a_node16"><a xlink:href="../../d2/db8/class_menu.html#a3c99ad09e9f2f975c1a0d0597642651a" target="_top" xlink:title="Menu.init">
<polygon fill="white" stroke="black" points="1282,-0.5 1282,-19.5 1342,-19.5 1342,-0.5 1282,-0.5"/>
<text text-anchor="middle" x="1312" y="-7.5" font-family="Helvetica,sans-Serif" font-size="10.00">Menu.init</text>
</a>
</g>
</g>
<!-- Node15&#45;&gt;Node16 -->
<g id="edge15" class="edge"><title>Node15&#45;&gt;Node16</title>
<path fill="none" stroke="midnightblue" d="M1243.78,-10C1257.09,-10 1270.45,-10 1281.71,-10"/>
<polygon fill="midnightblue" stroke="midnightblue" points="1243.63,-6.5001 1233.63,-10 1243.63,-13.5001 1243.63,-6.5001"/>
</g>
<!-- Node17&#45;&gt;Node7 -->
<g id="edge17" class="edge"><title>Node17&#45;&gt;Node7</title>
<path fill="none" stroke="midnightblue" d="M705.649,-11.6313C642.035,-13.776 542.025,-18.5777 456,-29 436.686,-31.34 415.535,-34.9997 397.381,-38.4851"/>
<polygon fill="midnightblue" stroke="midnightblue" points="706.046,-15.1204 715.927,-11.2974 705.818,-8.12411 706.046,-15.1204"/>
</g>
</g>
</svg>
