<?xml version="1.0" encoding="UTF-8" standalone="no"?>
<!DOCTYPE svg PUBLIC "-//W3C//DTD SVG 1.1//EN"
 "http://www.w3.org/Graphics/SVG/1.1/DTD/svg11.dtd">
<!-- Generated by graphviz version 2.36.0 (20140111.2315)
 -->
<!-- Title: Sprite.getVelocity Pages: 1 -->
<svg width="1330pt" height="85pt"
 viewBox="0.00 0.00 1330.00 85.00" xmlns="http://www.w3.org/2000/svg" xmlns:xlink="http://www.w3.org/1999/xlink">
<g id="graph0" class="graph" transform="scale(1 1) rotate(0) translate(4 81)">
<title>Sprite.getVelocity</title>
<polygon fill="white" stroke="none" points="-4,4 -4,-81 1326,-81 1326,4 -4,4"/>
<!-- Node1 -->
<g id="node1" class="node"><title>Node1</title>
<polygon fill="#bfbfbf" stroke="black" points="0.5,-19.5 0.5,-38.5 101.5,-38.5 101.5,-19.5 0.5,-19.5"/>
<text text-anchor="middle" x="51" y="-26.5" font-family="Helvetica,sans-Serif" font-size="10.00">Sprite.getVelocity</text>
</g>
<!-- Node2 -->
<g id="node2" class="node"><title>Node2</title>
<g id="a_node2"><a xlink:href="../../dd/d7a/class_enemy.html#ab653212b50d9e64ba497ae18696d3678" target="_top" xlink:title="Enemy.moveSprite">
<polygon fill="white" stroke="black" points="138.5,-19.5 138.5,-38.5 245.5,-38.5 245.5,-19.5 138.5,-19.5"/>
<text text-anchor="middle" x="192" y="-26.5" font-family="Helvetica,sans-Serif" font-size="10.00">Enemy.moveSprite</text>
</a>
</g>
</g>
<!-- Node1&#45;&gt;Node2 -->
<g id="edge1" class="edge"><title>Node1&#45;&gt;Node2</title>
<path fill="none" stroke="midnightblue" d="M111.943,-29C120.703,-29 129.669,-29 138.27,-29"/>
<polygon fill="midnightblue" stroke="midnightblue" points="111.79,-25.5001 101.79,-29 111.79,-32.5001 111.79,-25.5001"/>
</g>
<!-- Node3 -->
<g id="node3" class="node"><title>Node3</title>
<g id="a_node3"><a xlink:href="../../d2/d3e/class_level1.html#a78a7fb5633734b1815af8db43db23a41" target="_top" xlink:title="Level1.updateSprites">
<polygon fill="white" stroke="black" points="282,-19.5 282,-38.5 400,-38.5 400,-19.5 282,-19.5"/>
<text text-anchor="middle" x="341" y="-26.5" font-family="Helvetica,sans-Serif" font-size="10.00">Level1.updateSprites</text>
</a>
</g>
</g>
<!-- Node2&#45;&gt;Node3 -->
<g id="edge2" class="edge"><title>Node2&#45;&gt;Node3</title>
<path fill="none" stroke="midnightblue" d="M255.75,-29C264.455,-29 273.366,-29 281.98,-29"/>
<polygon fill="midnightblue" stroke="midnightblue" points="255.655,-25.5001 245.655,-29 255.655,-32.5001 255.655,-25.5001"/>
</g>
<!-- Node4 -->
<g id="node4" class="node"><title>Node4</title>
<g id="a_node4"><a xlink:href="../../d2/d3e/class_level1.html#a324da1e22a7a87fa4bb1859b5774bdba" target="_top" xlink:title="Level1.updateFrame">
<polygon fill="white" stroke="black" points="436,-38.5 436,-57.5 550,-57.5 550,-38.5 436,-38.5"/>
<text text-anchor="middle" x="493" y="-45.5" font-family="Helvetica,sans-Serif" font-size="10.00">Level1.updateFrame</text>
</a>
</g>
</g>
<!-- Node3&#45;&gt;Node4 -->
<g id="edge3" class="edge"><title>Node3&#45;&gt;Node4</title>
<path fill="none" stroke="midnightblue" d="M410.386,-37.6623C418.941,-38.7459 427.612,-39.8442 435.949,-40.9002"/>
<polygon fill="midnightblue" stroke="midnightblue" points="410.784,-34.1848 400.423,-36.4003 409.904,-41.1293 410.784,-34.1848"/>
</g>
<!-- Node5 -->
<g id="node5" class="node"><title>Node5</title>
<g id="a_node5"><a xlink:href="../../d2/d3e/class_level1.html#a0871325d07c0614d5f1f2df7df13b703" target="_top" xlink:title="Level1.start">
<polygon fill="white" stroke="black" points="586.5,-38.5 586.5,-57.5 659.5,-57.5 659.5,-38.5 586.5,-38.5"/>
<text text-anchor="middle" x="623" y="-45.5" font-family="Helvetica,sans-Serif" font-size="10.00">Level1.start</text>
</a>
</g>
</g>
<!-- Node4&#45;&gt;Node5 -->
<g id="edge4" class="edge"><title>Node4&#45;&gt;Node5</title>
<path fill="none" stroke="midnightblue" d="M560.221,-48C569.159,-48 578.039,-48 586.163,-48"/>
<polygon fill="midnightblue" stroke="midnightblue" points="560.143,-44.5001 550.143,-48 560.143,-51.5001 560.143,-44.5001"/>
</g>
<!-- Node6 -->
<g id="node6" class="node"><title>Node6</title>
<g id="a_node6"><a xlink:href="../../d2/db8/class_menu.html#ab6296880308728ced459f772430d025b" target="_top" xlink:title="Menu.createGame">
<polygon fill="white" stroke="black" points="698,-38.5 698,-57.5 804,-57.5 804,-38.5 698,-38.5"/>
<text text-anchor="middle" x="751" y="-45.5" font-family="Helvetica,sans-Serif" font-size="10.00">Menu.createGame</text>
</a>
</g>
</g>
<!-- Node5&#45;&gt;Node6 -->
<g id="edge5" class="edge"><title>Node5&#45;&gt;Node6</title>
<path fill="none" stroke="midnightblue" d="M670.04,-48C679.024,-48 688.506,-48 697.676,-48"/>
<polygon fill="midnightblue" stroke="midnightblue" points="669.77,-44.5001 659.77,-48 669.769,-51.5001 669.77,-44.5001"/>
</g>
<!-- Node12 -->
<g id="node12" class="node"><title>Node12</title>
<g id="a_node12"><a xlink:href="../../d2/d3e/class_level1.html#ac56e75129bb2946c38cfcf43608f3f05" target="_top" xlink:title="Level1.goNextLevel">
<polygon fill="white" stroke="black" points="696,-0.5 696,-19.5 806,-19.5 806,-0.5 696,-0.5"/>
<text text-anchor="middle" x="751" y="-7.5" font-family="Helvetica,sans-Serif" font-size="10.00">Level1.goNextLevel</text>
</a>
</g>
</g>
<!-- Node5&#45;&gt;Node12 -->
<g id="edge11" class="edge"><title>Node5&#45;&gt;Node12</title>
<path fill="none" stroke="midnightblue" d="M665.564,-35.4647C682.705,-30.2952 702.25,-24.4009 718.215,-19.5859"/>
<polygon fill="midnightblue" stroke="midnightblue" points="664.359,-32.1726 655.795,-38.411 666.38,-38.8744 664.359,-32.1726"/>
</g>
<!-- Node7 -->
<g id="node7" class="node"><title>Node7</title>
<g id="a_node7"><a xlink:href="../../d2/db8/class_menu.html#a53c8b072d5ec777994fed9ee76c98561" target="_top" xlink:title="Menu.handle">
<polygon fill="white" stroke="black" points="842,-38.5 842,-57.5 920,-57.5 920,-38.5 842,-38.5"/>
<text text-anchor="middle" x="881" y="-45.5" font-family="Helvetica,sans-Serif" font-size="10.00">Menu.handle</text>
</a>
</g>
</g>
<!-- Node6&#45;&gt;Node7 -->
<g id="edge6" class="edge"><title>Node6&#45;&gt;Node7</title>
<path fill="none" stroke="midnightblue" d="M814.198,-48C823.592,-48 833.038,-48 841.726,-48"/>
<polygon fill="midnightblue" stroke="midnightblue" points="814.063,-44.5001 804.062,-48 814.062,-51.5001 814.063,-44.5001"/>
</g>
<!-- Node8 -->
<g id="node8" class="node"><title>Node8</title>
<g id="a_node8"><a xlink:href="../../d2/db8/class_menu.html#aff7a7627619921545f94547ab6135007" target="_top" xlink:title="Menu.addButton">
<polygon fill="white" stroke="black" points="956,-38.5 956,-57.5 1052,-57.5 1052,-38.5 956,-38.5"/>
<text text-anchor="middle" x="1004" y="-45.5" font-family="Helvetica,sans-Serif" font-size="10.00">Menu.addButton</text>
</a>
</g>
</g>
<!-- Node7&#45;&gt;Node8 -->
<g id="edge7" class="edge"><title>Node7&#45;&gt;Node8</title>
<path fill="none" stroke="midnightblue" d="M930.539,-48C938.803,-48 947.377,-48 955.612,-48"/>
<polygon fill="midnightblue" stroke="midnightblue" points="930.285,-44.5001 920.285,-48 930.285,-51.5001 930.285,-44.5001"/>
</g>
<!-- Node9 -->
<g id="node9" class="node"><title>Node9</title>
<g id="a_node9"><a xlink:href="../../d5/db1/class_game_over.html#abb505ac8c26999beff755f4c299370da" target="_top" xlink:title="GameOver.addAllButtons">
<polygon fill="white" stroke="black" points="1088.5,-57.5 1088.5,-76.5 1225.5,-76.5 1225.5,-57.5 1088.5,-57.5"/>
<text text-anchor="middle" x="1157" y="-64.5" font-family="Helvetica,sans-Serif" font-size="10.00">GameOver.addAllButtons</text>
</a>
</g>
</g>
<!-- Node8&#45;&gt;Node9 -->
<g id="edge8" class="edge"><title>Node8&#45;&gt;Node9</title>
<path fill="none" stroke="midnightblue" d="M1062.48,-55.2331C1070.94,-56.2966 1079.71,-57.4005 1088.34,-58.4869"/>
<polygon fill="midnightblue" stroke="midnightblue" points="1062.72,-51.7355 1052.36,-53.9596 1061.85,-58.6807 1062.72,-51.7355"/>
</g>
<!-- Node10 -->
<g id="node10" class="node"><title>Node10</title>
<g id="a_node10"><a xlink:href="../../d2/db8/class_menu.html#a461e62e606af2391013ce3aaf92a8cc7" target="_top" xlink:title="Menu.addAllButtons">
<polygon fill="white" stroke="black" points="1100.5,-19.5 1100.5,-38.5 1213.5,-38.5 1213.5,-19.5 1100.5,-19.5"/>
<text text-anchor="middle" x="1157" y="-26.5" font-family="Helvetica,sans-Serif" font-size="10.00">Menu.addAllButtons</text>
</a>
</g>
</g>
<!-- Node8&#45;&gt;Node10 -->
<g id="edge9" class="edge"><title>Node8&#45;&gt;Node10</title>
<path fill="none" stroke="midnightblue" d="M1062.58,-40.7552C1074.96,-39.1965 1088.04,-37.5517 1100.35,-36.0024"/>
<polygon fill="midnightblue" stroke="midnightblue" points="1061.85,-37.3193 1052.36,-42.0404 1062.72,-44.2645 1061.85,-37.3193"/>
</g>
<!-- Node11 -->
<g id="node11" class="node"><title>Node11</title>
<g id="a_node11"><a xlink:href="../../d2/db8/class_menu.html#a3c99ad09e9f2f975c1a0d0597642651a" target="_top" xlink:title="Menu.init">
<polygon fill="white" stroke="black" points="1262,-19.5 1262,-38.5 1322,-38.5 1322,-19.5 1262,-19.5"/>
<text text-anchor="middle" x="1292" y="-26.5" font-family="Helvetica,sans-Serif" font-size="10.00">Menu.init</text>
</a>
</g>
</g>
<!-- Node10&#45;&gt;Node11 -->
<g id="edge10" class="edge"><title>Node10&#45;&gt;Node11</title>
<path fill="none" stroke="midnightblue" d="M1223.78,-29C1237.09,-29 1250.45,-29 1261.71,-29"/>
<polygon fill="midnightblue" stroke="midnightblue" points="1223.63,-25.5001 1213.63,-29 1223.63,-32.5001 1223.63,-25.5001"/>
</g>
<!-- Node12&#45;&gt;Node3 -->
<g id="edge12" class="edge"><title>Node12&#45;&gt;Node3</title>
<path fill="none" stroke="midnightblue" d="M685.511,-13.0032C606.981,-16.6602 475.505,-22.7828 400.023,-26.2979"/>
<polygon fill="midnightblue" stroke="midnightblue" points="685.932,-16.4874 695.759,-12.5259 685.607,-9.49501 685.932,-16.4874"/>
</g>
</g>
</svg>
