<?xml version="1.0" encoding="UTF-8" standalone="no"?>
<!DOCTYPE svg PUBLIC "-//W3C//DTD SVG 1.1//EN"
 "http://www.w3.org/Graphics/SVG/1.1/DTD/svg11.dtd">
<!-- Generated by graphviz version 2.36.0 (20140111.2315)
 -->
<!-- Title: Sprite.setVelocity Pages: 1 -->
<svg width="1328pt" height="256pt"
 viewBox="0.00 0.00 1328.00 256.00" xmlns="http://www.w3.org/2000/svg" xmlns:xlink="http://www.w3.org/1999/xlink">
<g id="graph0" class="graph" transform="scale(1 1) rotate(0) translate(4 252)">
<title>Sprite.setVelocity</title>
<polygon fill="white" stroke="none" points="-4,4 -4,-252 1324,-252 1324,4 -4,4"/>
<!-- Node1 -->
<g id="node1" class="node"><title>Node1</title>
<polygon fill="#bfbfbf" stroke="black" points="0,-114.5 0,-133.5 100,-133.5 100,-114.5 0,-114.5"/>
<text text-anchor="middle" x="50" y="-121.5" font-family="Helvetica,sans-Serif" font-size="10.00">Sprite.setVelocity</text>
</g>
<!-- Node2 -->
<g id="node2" class="node"><title>Node2</title>
<g id="a_node2"><a xlink:href="../../dd/d7a/class_enemy.html#a837aaeb79ea3e113e4cdbfeb9eac9150" target="_top" xlink:title="Enemy.Enemy">
<polygon fill="white" stroke="black" points="148,-228.5 148,-247.5 232,-247.5 232,-228.5 148,-228.5"/>
<text text-anchor="middle" x="190" y="-235.5" font-family="Helvetica,sans-Serif" font-size="10.00">Enemy.Enemy</text>
</a>
</g>
</g>
<!-- Node1&#45;&gt;Node2 -->
<g id="edge1" class="edge"><title>Node1&#45;&gt;Node2</title>
<path fill="none" stroke="midnightblue" d="M62.8023,-141.897C77.5922,-163.046 104.816,-198.005 136,-219 141.595,-222.767 148.024,-225.883 154.431,-228.426"/>
<polygon fill="midnightblue" stroke="midnightblue" points="65.606,-139.796 57.0808,-133.506 59.8224,-143.74 65.606,-139.796"/>
</g>
<!-- Node3 -->
<g id="node3" class="node"><title>Node3</title>
<g id="a_node3"><a xlink:href="../../d2/d3e/class_level1.html#a587fa04eadbb6b07c199ff971cff79df" target="_top" xlink:title="Level1.init">
<polygon fill="white" stroke="black" points="157.5,-190.5 157.5,-209.5 222.5,-209.5 222.5,-190.5 157.5,-190.5"/>
<text text-anchor="middle" x="190" y="-197.5" font-family="Helvetica,sans-Serif" font-size="10.00">Level1.init</text>
</a>
</g>
</g>
<!-- Node1&#45;&gt;Node3 -->
<g id="edge2" class="edge"><title>Node1&#45;&gt;Node3</title>
<path fill="none" stroke="midnightblue" d="M71.4894,-139.847C88.1804,-152.226 112.713,-169.245 136,-181 142.981,-184.524 150.774,-187.701 158.191,-190.403"/>
<polygon fill="midnightblue" stroke="midnightblue" points="73.1736,-136.734 63.0811,-133.51 68.9604,-142.324 73.1736,-136.734"/>
</g>
<!-- Node4 -->
<g id="node4" class="node"><title>Node4</title>
<g id="a_node4"><a xlink:href="../../dd/d7a/class_enemy.html#a9b6840dcc6b8165268e957fc43d95b06" target="_top" xlink:title="Enemy.makePoop">
<polygon fill="white" stroke="black" points="139,-152.5 139,-171.5 241,-171.5 241,-152.5 139,-152.5"/>
<text text-anchor="middle" x="190" y="-159.5" font-family="Helvetica,sans-Serif" font-size="10.00">Enemy.makePoop</text>
</a>
</g>
</g>
<!-- Node1&#45;&gt;Node4 -->
<g id="edge3" class="edge"><title>Node1&#45;&gt;Node4</title>
<path fill="none" stroke="midnightblue" d="M95.473,-136.246C114.495,-141.484 136.375,-147.509 154.188,-152.414"/>
<polygon fill="midnightblue" stroke="midnightblue" points="96.3936,-132.869 85.8232,-133.589 94.5352,-139.618 96.3936,-132.869"/>
</g>
<!-- Node15 -->
<g id="node15" class="node"><title>Node15</title>
<g id="a_node15"><a xlink:href="../../d8/d53/class_player.html#a1b7a0a6c68deb202a672d42e205d5a21" target="_top" xlink:title="Player.moveSprite">
<polygon fill="white" stroke="black" points="138,-114.5 138,-133.5 242,-133.5 242,-114.5 138,-114.5"/>
<text text-anchor="middle" x="190" y="-121.5" font-family="Helvetica,sans-Serif" font-size="10.00">Player.moveSprite</text>
</a>
</g>
</g>
<!-- Node1&#45;&gt;Node15 -->
<g id="edge15" class="edge"><title>Node1&#45;&gt;Node15</title>
<path fill="none" stroke="midnightblue" d="M110.253,-124C119.417,-124 128.815,-124 137.782,-124"/>
<polygon fill="midnightblue" stroke="midnightblue" points="110.042,-120.5 100.042,-124 110.042,-127.5 110.042,-120.5"/>
</g>
<!-- Node16 -->
<g id="node16" class="node"><title>Node16</title>
<g id="a_node16"><a xlink:href="../../dd/d7a/class_enemy.html#ab653212b50d9e64ba497ae18696d3678" target="_top" xlink:title="Enemy.moveSprite">
<polygon fill="white" stroke="black" points="136.5,-76.5 136.5,-95.5 243.5,-95.5 243.5,-76.5 136.5,-76.5"/>
<text text-anchor="middle" x="190" y="-83.5" font-family="Helvetica,sans-Serif" font-size="10.00">Enemy.moveSprite</text>
</a>
</g>
</g>
<!-- Node1&#45;&gt;Node16 -->
<g id="edge17" class="edge"><title>Node1&#45;&gt;Node16</title>
<path fill="none" stroke="midnightblue" d="M95.473,-111.754C114.495,-106.516 136.375,-100.491 154.188,-95.5859"/>
<polygon fill="midnightblue" stroke="midnightblue" points="94.5352,-108.382 85.8232,-114.411 96.3936,-115.131 94.5352,-108.382"/>
</g>
<!-- Node17 -->
<g id="node17" class="node"><title>Node17</title>
<g id="a_node17"><a xlink:href="../../d3/d20/class_poop.html#af7794fba35e91ac67bbdb0b3d867be96" target="_top" xlink:title="Poop.Poop">
<polygon fill="white" stroke="black" points="156,-38.5 156,-57.5 224,-57.5 224,-38.5 156,-38.5"/>
<text text-anchor="middle" x="190" y="-45.5" font-family="Helvetica,sans-Serif" font-size="10.00">Poop.Poop</text>
</a>
</g>
</g>
<!-- Node1&#45;&gt;Node17 -->
<g id="edge19" class="edge"><title>Node1&#45;&gt;Node17</title>
<path fill="none" stroke="midnightblue" d="M71.4894,-108.153C88.1804,-95.7736 112.713,-78.7547 136,-67 142.981,-63.4762 150.774,-60.2993 158.191,-57.5966"/>
<polygon fill="midnightblue" stroke="midnightblue" points="68.9604,-105.676 63.0811,-114.49 73.1736,-111.266 68.9604,-105.676"/>
</g>
<!-- Node18 -->
<g id="node18" class="node"><title>Node18</title>
<g id="a_node18"><a xlink:href="../../de/d74/class_shot.html#a541228be7f9f329c8c92be4a15a07b04" target="_top" xlink:title="Shot.Shot">
<polygon fill="white" stroke="black" points="157.5,-0.5 157.5,-19.5 222.5,-19.5 222.5,-0.5 157.5,-0.5"/>
<text text-anchor="middle" x="190" y="-7.5" font-family="Helvetica,sans-Serif" font-size="10.00">Shot.Shot</text>
</a>
</g>
</g>
<!-- Node1&#45;&gt;Node18 -->
<g id="edge20" class="edge"><title>Node1&#45;&gt;Node18</title>
<path fill="none" stroke="midnightblue" d="M62.8023,-106.103C77.5922,-84.9541 104.816,-49.9949 136,-29 142.487,-24.6327 150.095,-21.1396 157.49,-18.4006"/>
<polygon fill="midnightblue" stroke="midnightblue" points="59.8224,-104.26 57.0808,-114.494 65.606,-108.204 59.8224,-104.26"/>
</g>
<!-- Node5 -->
<g id="node5" class="node"><title>Node5</title>
<g id="a_node5"><a xlink:href="../../d2/d3e/class_level1.html#a78a7fb5633734b1815af8db43db23a41" target="_top" xlink:title="Level1.updateSprites">
<polygon fill="white" stroke="black" points="280,-114.5 280,-133.5 398,-133.5 398,-114.5 280,-114.5"/>
<text text-anchor="middle" x="339" y="-121.5" font-family="Helvetica,sans-Serif" font-size="10.00">Level1.updateSprites</text>
</a>
</g>
</g>
<!-- Node4&#45;&gt;Node5 -->
<g id="edge4" class="edge"><title>Node4&#45;&gt;Node5</title>
<path fill="none" stroke="midnightblue" d="M237.855,-149.888C258.328,-144.596 281.99,-138.479 301.172,-133.52"/>
<polygon fill="midnightblue" stroke="midnightblue" points="236.9,-146.52 228.094,-152.411 238.652,-153.297 236.9,-146.52"/>
</g>
<!-- Node6 -->
<g id="node6" class="node"><title>Node6</title>
<g id="a_node6"><a xlink:href="../../d2/d3e/class_level1.html#a324da1e22a7a87fa4bb1859b5774bdba" target="_top" xlink:title="Level1.updateFrame">
<polygon fill="white" stroke="black" points="434,-133.5 434,-152.5 548,-152.5 548,-133.5 434,-133.5"/>
<text text-anchor="middle" x="491" y="-140.5" font-family="Helvetica,sans-Serif" font-size="10.00">Level1.updateFrame</text>
</a>
</g>
</g>
<!-- Node5&#45;&gt;Node6 -->
<g id="edge5" class="edge"><title>Node5&#45;&gt;Node6</title>
<path fill="none" stroke="midnightblue" d="M408.386,-132.662C416.941,-133.746 425.612,-134.844 433.949,-135.9"/>
<polygon fill="midnightblue" stroke="midnightblue" points="408.784,-129.185 398.423,-131.4 407.904,-136.129 408.784,-129.185"/>
</g>
<!-- Node7 -->
<g id="node7" class="node"><title>Node7</title>
<g id="a_node7"><a xlink:href="../../d2/d3e/class_level1.html#a0871325d07c0614d5f1f2df7df13b703" target="_top" xlink:title="Level1.start">
<polygon fill="white" stroke="black" points="584.5,-133.5 584.5,-152.5 657.5,-152.5 657.5,-133.5 584.5,-133.5"/>
<text text-anchor="middle" x="621" y="-140.5" font-family="Helvetica,sans-Serif" font-size="10.00">Level1.start</text>
</a>
</g>
</g>
<!-- Node6&#45;&gt;Node7 -->
<g id="edge6" class="edge"><title>Node6&#45;&gt;Node7</title>
<path fill="none" stroke="midnightblue" d="M558.221,-143C567.159,-143 576.039,-143 584.163,-143"/>
<polygon fill="midnightblue" stroke="midnightblue" points="558.143,-139.5 548.143,-143 558.143,-146.5 558.143,-139.5"/>
</g>
<!-- Node8 -->
<g id="node8" class="node"><title>Node8</title>
<g id="a_node8"><a xlink:href="../../d2/db8/class_menu.html#ab6296880308728ced459f772430d025b" target="_top" xlink:title="Menu.createGame">
<polygon fill="white" stroke="black" points="696,-133.5 696,-152.5 802,-152.5 802,-133.5 696,-133.5"/>
<text text-anchor="middle" x="749" y="-140.5" font-family="Helvetica,sans-Serif" font-size="10.00">Menu.createGame</text>
</a>
</g>
</g>
<!-- Node7&#45;&gt;Node8 -->
<g id="edge7" class="edge"><title>Node7&#45;&gt;Node8</title>
<path fill="none" stroke="midnightblue" d="M668.04,-143C677.024,-143 686.506,-143 695.676,-143"/>
<polygon fill="midnightblue" stroke="midnightblue" points="667.77,-139.5 657.77,-143 667.769,-146.5 667.77,-139.5"/>
</g>
<!-- Node14 -->
<g id="node14" class="node"><title>Node14</title>
<g id="a_node14"><a xlink:href="../../d2/d3e/class_level1.html#ac56e75129bb2946c38cfcf43608f3f05" target="_top" xlink:title="Level1.goNextLevel">
<polygon fill="white" stroke="black" points="694,-95.5 694,-114.5 804,-114.5 804,-95.5 694,-95.5"/>
<text text-anchor="middle" x="749" y="-102.5" font-family="Helvetica,sans-Serif" font-size="10.00">Level1.goNextLevel</text>
</a>
</g>
</g>
<!-- Node7&#45;&gt;Node14 -->
<g id="edge13" class="edge"><title>Node7&#45;&gt;Node14</title>
<path fill="none" stroke="midnightblue" d="M663.564,-130.465C680.705,-125.295 700.25,-119.401 716.215,-114.586"/>
<polygon fill="midnightblue" stroke="midnightblue" points="662.359,-127.173 653.795,-133.411 664.38,-133.874 662.359,-127.173"/>
</g>
<!-- Node9 -->
<g id="node9" class="node"><title>Node9</title>
<g id="a_node9"><a xlink:href="../../d2/db8/class_menu.html#a53c8b072d5ec777994fed9ee76c98561" target="_top" xlink:title="Menu.handle">
<polygon fill="white" stroke="black" points="840,-133.5 840,-152.5 918,-152.5 918,-133.5 840,-133.5"/>
<text text-anchor="middle" x="879" y="-140.5" font-family="Helvetica,sans-Serif" font-size="10.00">Menu.handle</text>
</a>
</g>
</g>
<!-- Node8&#45;&gt;Node9 -->
<g id="edge8" class="edge"><title>Node8&#45;&gt;Node9</title>
<path fill="none" stroke="midnightblue" d="M812.198,-143C821.592,-143 831.038,-143 839.726,-143"/>
<polygon fill="midnightblue" stroke="midnightblue" points="812.063,-139.5 802.062,-143 812.062,-146.5 812.063,-139.5"/>
</g>
<!-- Node10 -->
<g id="node10" class="node"><title>Node10</title>
<g id="a_node10"><a xlink:href="../../d2/db8/class_menu.html#aff7a7627619921545f94547ab6135007" target="_top" xlink:title="Menu.addButton">
<polygon fill="white" stroke="black" points="954,-133.5 954,-152.5 1050,-152.5 1050,-133.5 954,-133.5"/>
<text text-anchor="middle" x="1002" y="-140.5" font-family="Helvetica,sans-Serif" font-size="10.00">Menu.addButton</text>
</a>
</g>
</g>
<!-- Node9&#45;&gt;Node10 -->
<g id="edge9" class="edge"><title>Node9&#45;&gt;Node10</title>
<path fill="none" stroke="midnightblue" d="M928.539,-143C936.803,-143 945.377,-143 953.612,-143"/>
<polygon fill="midnightblue" stroke="midnightblue" points="928.285,-139.5 918.285,-143 928.285,-146.5 928.285,-139.5"/>
</g>
<!-- Node11 -->
<g id="node11" class="node"><title>Node11</title>
<g id="a_node11"><a xlink:href="../../d5/db1/class_game_over.html#abb505ac8c26999beff755f4c299370da" target="_top" xlink:title="GameOver.addAllButtons">
<polygon fill="white" stroke="black" points="1086.5,-152.5 1086.5,-171.5 1223.5,-171.5 1223.5,-152.5 1086.5,-152.5"/>
<text text-anchor="middle" x="1155" y="-159.5" font-family="Helvetica,sans-Serif" font-size="10.00">GameOver.addAllButtons</text>
</a>
</g>
</g>
<!-- Node10&#45;&gt;Node11 -->
<g id="edge10" class="edge"><title>Node10&#45;&gt;Node11</title>
<path fill="none" stroke="midnightblue" d="M1060.48,-150.233C1068.94,-151.297 1077.71,-152.4 1086.34,-153.487"/>
<polygon fill="midnightblue" stroke="midnightblue" points="1060.72,-146.735 1050.36,-148.96 1059.85,-153.681 1060.72,-146.735"/>
</g>
<!-- Node12 -->
<g id="node12" class="node"><title>Node12</title>
<g id="a_node12"><a xlink:href="../../d2/db8/class_menu.html#a461e62e606af2391013ce3aaf92a8cc7" target="_top" xlink:title="Menu.addAllButtons">
<polygon fill="white" stroke="black" points="1098.5,-114.5 1098.5,-133.5 1211.5,-133.5 1211.5,-114.5 1098.5,-114.5"/>
<text text-anchor="middle" x="1155" y="-121.5" font-family="Helvetica,sans-Serif" font-size="10.00">Menu.addAllButtons</text>
</a>
</g>
</g>
<!-- Node10&#45;&gt;Node12 -->
<g id="edge11" class="edge"><title>Node10&#45;&gt;Node12</title>
<path fill="none" stroke="midnightblue" d="M1060.58,-135.755C1072.96,-134.196 1086.04,-132.552 1098.35,-131.002"/>
<polygon fill="midnightblue" stroke="midnightblue" points="1059.85,-132.319 1050.36,-137.04 1060.72,-139.265 1059.85,-132.319"/>
</g>
<!-- Node13 -->
<g id="node13" class="node"><title>Node13</title>
<g id="a_node13"><a xlink:href="../../d2/db8/class_menu.html#a3c99ad09e9f2f975c1a0d0597642651a" target="_top" xlink:title="Menu.init">
<polygon fill="white" stroke="black" points="1260,-114.5 1260,-133.5 1320,-133.5 1320,-114.5 1260,-114.5"/>
<text text-anchor="middle" x="1290" y="-121.5" font-family="Helvetica,sans-Serif" font-size="10.00">Menu.init</text>
</a>
</g>
</g>
<!-- Node12&#45;&gt;Node13 -->
<g id="edge12" class="edge"><title>Node12&#45;&gt;Node13</title>
<path fill="none" stroke="midnightblue" d="M1221.78,-124C1235.09,-124 1248.45,-124 1259.71,-124"/>
<polygon fill="midnightblue" stroke="midnightblue" points="1221.63,-120.5 1211.63,-124 1221.63,-127.5 1221.63,-120.5"/>
</g>
<!-- Node14&#45;&gt;Node5 -->
<g id="edge14" class="edge"><title>Node14&#45;&gt;Node5</title>
<path fill="none" stroke="midnightblue" d="M683.511,-108.003C604.981,-111.66 473.505,-117.783 398.023,-121.298"/>
<polygon fill="midnightblue" stroke="midnightblue" points="683.932,-111.487 693.759,-107.526 683.607,-104.495 683.932,-111.487"/>
</g>
<!-- Node15&#45;&gt;Node5 -->
<g id="edge16" class="edge"><title>Node15&#45;&gt;Node5</title>
<path fill="none" stroke="midnightblue" d="M252.174,-124C261.311,-124 270.709,-124 279.782,-124"/>
<polygon fill="midnightblue" stroke="midnightblue" points="252.001,-120.5 242.001,-124 252.001,-127.5 252.001,-120.5"/>
</g>
<!-- Node16&#45;&gt;Node5 -->
<g id="edge18" class="edge"><title>Node16&#45;&gt;Node5</title>
<path fill="none" stroke="midnightblue" d="M237.855,-98.1121C258.328,-103.404 281.99,-109.521 301.172,-114.48"/>
<polygon fill="midnightblue" stroke="midnightblue" points="238.652,-94.7032 228.094,-95.589 236.9,-101.48 238.652,-94.7032"/>
</g>
</g>
</svg>
