<?xml version="1.0" encoding="UTF-8" standalone="no"?>
<!DOCTYPE svg PUBLIC "-//W3C//DTD SVG 1.1//EN"
 "http://www.w3.org/Graphics/SVG/1.1/DTD/svg11.dtd">
<!-- Generated by graphviz version 2.36.0 (20140111.2315)
 -->
<!-- Title: Sprite.setVelocity Pages: 1 -->
<!--zoomable 294 -->
<svg id="main" version="1.1" xmlns="http://www.w3.org/2000/svg" xmlns:xlink="http://www.w3.org/1999/xlink" xml:space="preserve" onload="init(evt)">
<style type="text/css"><![CDATA[
.edge:hover path { stroke: red; }
.edge:hover polygon { stroke: red; fill: red; }
]]></style>
<script type="text/javascript"><![CDATA[
var edges = document.getElementsByTagName('g');
if (edges && edges.length) {
  for (var i=0;i<edges.length;i++) {
    if (edges[i].id.substr(0,4)=='edge') {
      edges[i].setAttribute('class','edge');
    }
  }
}
]]></script>
        <defs>
                <circle id="rim" cx="0" cy="0" r="7"/>
                <circle id="rim2" cx="0" cy="0" r="3.5"/>
                <g id="zoomPlus">
                        <use xlink:href="#rim" fill="#404040">
                                <set attributeName="fill" to="#808080" begin="zoomplus.mouseover" end="zoomplus.mouseout"/>
                        </use>
                        <path d="M-4,0h8M0,-4v8" fill="none" stroke="white" stroke-width="1.5" pointer-events="none"/>
                </g>
                <g id="zoomMin">
                        <use xlink:href="#rim" fill="#404040">
                                <set attributeName="fill" to="#808080" begin="zoomminus.mouseover" end="zoomminus.mouseout"/>
                        </use>
                        <path d="M-4,0h8" fill="none" stroke="white" stroke-width="1.5" pointer-events="none"/>
                </g>
                <g id="dirArrow">
                        <path fill="none" stroke="white" stroke-width="1.5" d="M0,-3.0v7 M-2.5,-0.5L0,-3.0L2.5,-0.5"/>
                </g>
               <g id="resetDef">
                       <use xlink:href="#rim2" fill="#404040">
                               <set attributeName="fill" to="#808080" begin="reset.mouseover" end="reset.mouseout"/>
                       </use>
               </g>
        </defs>

<script type="text/javascript">
var viewWidth = 1348;
var viewHeight = 294;
var sectionId = 'dynsection-4';
</script>
<script xlink:href="../../svgpan.js"/>
<svg id="graph" class="graph">
<g id="viewport">
<title>Sprite.setVelocity</title>
<polygon fill="white" stroke="none" points="-4,4 -4,-290 1344,-290 1344,4 -4,4"/>
<!-- Node1 -->
<g id="node1" class="node"><title>Node1</title>
<polygon fill="#bfbfbf" stroke="black" points="0,-133.5 0,-152.5 100,-152.5 100,-133.5 0,-133.5"/>
<text text-anchor="middle" x="50" y="-140.5" font-family="Helvetica,sans-Serif" font-size="10.00">Sprite.setVelocity</text>
</g>
<!-- Node2 -->
<g id="node2" class="node"><title>Node2</title>
<g id="a_node2"><a xlink:href="../../dd/d7a/class_enemy.html#a837aaeb79ea3e113e4cdbfeb9eac9150" target="_top" xlink:title="Enemy.Enemy">
<polygon fill="white" stroke="black" points="148,-266.5 148,-285.5 232,-285.5 232,-266.5 148,-266.5"/>
<text text-anchor="middle" x="190" y="-273.5" font-family="Helvetica,sans-Serif" font-size="10.00">Enemy.Enemy</text>
</a>
</g>
</g>
<!-- Node1&#45;&gt;Node2 -->
<g id="edge1" class="edge"><title>Node1&#45;&gt;Node2</title>
<path fill="none" stroke="midnightblue" d="M61.4713,-161.427C75.7056,-185.089 103.185,-226.17 136,-252 143.461,-257.873 152.588,-262.668 161.153,-266.386"/>
<polygon fill="midnightblue" stroke="midnightblue" points="64.4436,-159.576 56.3628,-152.724 58.4068,-163.12 64.4436,-159.576"/>
</g>
<!-- Node3 -->
<g id="node3" class="node"><title>Node3</title>
<g id="a_node3"><a xlink:href="../../d2/d3e/class_level1.html#a587fa04eadbb6b07c199ff971cff79df" target="_top" xlink:title="Level1.init">
<polygon fill="white" stroke="black" points="608.5,-190.5 608.5,-209.5 673.5,-209.5 673.5,-190.5 608.5,-190.5"/>
<text text-anchor="middle" x="641" y="-197.5" font-family="Helvetica,sans-Serif" font-size="10.00">Level1.init</text>
</a>
</g>
</g>
<!-- Node1&#45;&gt;Node3 -->
<g id="edge2" class="edge"><title>Node1&#45;&gt;Node3</title>
<path fill="none" stroke="midnightblue" d="M64.0495,-160.604C79.0325,-179.183 105.508,-207.356 136,-219 303.896,-283.114 526.547,-232.207 608.227,-209.503"/>
<polygon fill="midnightblue" stroke="midnightblue" points="66.7279,-158.346 57.8253,-152.602 61.2026,-162.644 66.7279,-158.346"/>
</g>
<!-- Node4 -->
<g id="node4" class="node"><title>Node4</title>
<g id="a_node4"><a xlink:href="../../dd/d7a/class_enemy.html#a9b6840dcc6b8165268e957fc43d95b06" target="_top" xlink:title="Enemy.makePoop">
<polygon fill="white" stroke="black" points="139,-152.5 139,-171.5 241,-171.5 241,-152.5 139,-152.5"/>
<text text-anchor="middle" x="190" y="-159.5" font-family="Helvetica,sans-Serif" font-size="10.00">Enemy.makePoop</text>
</a>
</g>
</g>
<!-- Node1&#45;&gt;Node4 -->
<g id="edge3" class="edge"><title>Node1&#45;&gt;Node4</title>
<path fill="none" stroke="midnightblue" d="M110.212,-151.152C119.708,-152.46 129.457,-153.802 138.718,-155.077"/>
<polygon fill="midnightblue" stroke="midnightblue" points="110.426,-147.649 100.042,-149.752 109.471,-154.584 110.426,-147.649"/>
</g>
<!-- Node15 -->
<g id="node15" class="node"><title>Node15</title>
<g id="a_node15"><a xlink:href="../../d8/d53/class_player.html#aabc2918b7a68a9557a2f01b243a21fa8" target="_top" xlink:title="Player.makeShot">
<polygon fill="white" stroke="black" points="141,-190.5 141,-209.5 239,-209.5 239,-190.5 141,-190.5"/>
<text text-anchor="middle" x="190" y="-197.5" font-family="Helvetica,sans-Serif" font-size="10.00">Player.makeShot</text>
</a>
</g>
</g>
<!-- Node1&#45;&gt;Node15 -->
<g id="edge15" class="edge"><title>Node1&#45;&gt;Node15</title>
<path fill="none" stroke="midnightblue" d="M80.898,-157.036C97.081,-164.463 117.495,-173.559 136,-181 144.071,-184.246 152.937,-187.531 161.068,-190.436"/>
<polygon fill="midnightblue" stroke="midnightblue" points="81.9691,-153.675 71.4233,-152.657 79.0323,-160.029 81.9691,-153.675"/>
</g>
<!-- Node18 -->
<g id="node18" class="node"><title>Node18</title>
<g id="a_node18"><a xlink:href="../../d8/d53/class_player.html#a1b7a0a6c68deb202a672d42e205d5a21" target="_top" xlink:title="Player.moveSprite">
<polygon fill="white" stroke="black" points="138,-114.5 138,-133.5 242,-133.5 242,-114.5 138,-114.5"/>
<text text-anchor="middle" x="190" y="-121.5" font-family="Helvetica,sans-Serif" font-size="10.00">Player.moveSprite</text>
</a>
</g>
</g>
<!-- Node1&#45;&gt;Node18 -->
<g id="edge19" class="edge"><title>Node1&#45;&gt;Node18</title>
<path fill="none" stroke="midnightblue" d="M109.958,-134.883C119.215,-133.608 128.718,-132.3 137.782,-131.052"/>
<polygon fill="midnightblue" stroke="midnightblue" points="109.471,-131.416 100.042,-136.248 110.426,-138.351 109.471,-131.416"/>
</g>
<!-- Node19 -->
<g id="node19" class="node"><title>Node19</title>
<g id="a_node19"><a xlink:href="../../dd/d7a/class_enemy.html#ab653212b50d9e64ba497ae18696d3678" target="_top" xlink:title="Enemy.moveSprite">
<polygon fill="white" stroke="black" points="136.5,-76.5 136.5,-95.5 243.5,-95.5 243.5,-76.5 136.5,-76.5"/>
<text text-anchor="middle" x="190" y="-83.5" font-family="Helvetica,sans-Serif" font-size="10.00">Enemy.moveSprite</text>
</a>
</g>
</g>
<!-- Node1&#45;&gt;Node19 -->
<g id="edge21" class="edge"><title>Node1&#45;&gt;Node19</title>
<path fill="none" stroke="midnightblue" d="M80.898,-128.964C97.081,-121.537 117.495,-112.441 136,-105 144.071,-101.754 152.937,-98.4692 161.068,-95.564"/>
<polygon fill="midnightblue" stroke="midnightblue" points="79.0323,-125.971 71.4233,-133.343 81.9691,-132.325 79.0323,-125.971"/>
</g>
<!-- Node20 -->
<g id="node20" class="node"><title>Node20</title>
<g id="a_node20"><a xlink:href="../../d3/d20/class_poop.html#af7794fba35e91ac67bbdb0b3d867be96" target="_top" xlink:title="Poop.Poop">
<polygon fill="white" stroke="black" points="156,-38.5 156,-57.5 224,-57.5 224,-38.5 156,-38.5"/>
<text text-anchor="middle" x="190" y="-45.5" font-family="Helvetica,sans-Serif" font-size="10.00">Poop.Poop</text>
</a>
</g>
</g>
<!-- Node1&#45;&gt;Node20 -->
<g id="edge23" class="edge"><title>Node1&#45;&gt;Node20</title>
<path fill="none" stroke="midnightblue" d="M66.4594,-125.738C82.436,-108.787 108.81,-83.1836 136,-67 142.216,-63.3004 149.266,-60.1521 156.15,-57.5454"/>
<polygon fill="midnightblue" stroke="midnightblue" points="63.7042,-123.562 59.4935,-133.284 68.848,-128.31 63.7042,-123.562"/>
</g>
<!-- Node21 -->
<g id="node21" class="node"><title>Node21</title>
<g id="a_node21"><a xlink:href="../../de/d74/class_shot.html#a541228be7f9f329c8c92be4a15a07b04" target="_top" xlink:title="Shot.Shot">
<polygon fill="white" stroke="black" points="157.5,-0.5 157.5,-19.5 222.5,-19.5 222.5,-0.5 157.5,-0.5"/>
<text text-anchor="middle" x="190" y="-7.5" font-family="Helvetica,sans-Serif" font-size="10.00">Shot.Shot</text>
</a>
</g>
</g>
<!-- Node1&#45;&gt;Node21 -->
<g id="edge24" class="edge"><title>Node1&#45;&gt;Node21</title>
<path fill="none" stroke="midnightblue" d="M60.3534,-124.373C73.8233,-99.3213 100.964,-54.9319 136,-29 142.364,-24.2897 150.007,-20.658 157.482,-17.8939"/>
<polygon fill="midnightblue" stroke="midnightblue" points="57.2504,-122.754 55.7254,-133.238 63.4557,-125.993 57.2504,-122.754"/>
</g>
<!-- Node5 -->
<g id="node5" class="node"><title>Node5</title>
<g id="a_node5"><a xlink:href="../../d2/d3e/class_level1.html#a78a7fb5633734b1815af8db43db23a41" target="_top" xlink:title="Level1.updateSprites">
<polygon fill="white" stroke="black" points="290,-114.5 290,-133.5 408,-133.5 408,-114.5 290,-114.5"/>
<text text-anchor="middle" x="349" y="-121.5" font-family="Helvetica,sans-Serif" font-size="10.00">Level1.updateSprites</text>
</a>
</g>
</g>
<!-- Node4&#45;&gt;Node5 -->
<g id="edge4" class="edge"><title>Node4&#45;&gt;Node5</title>
<path fill="none" stroke="midnightblue" d="M240.447,-150.032C262.448,-144.707 287.994,-138.524 308.667,-133.52"/>
<polygon fill="midnightblue" stroke="midnightblue" points="239.514,-146.657 230.618,-152.411 241.16,-153.46 239.514,-146.657"/>
</g>
<!-- Node6 -->
<g id="node6" class="node"><title>Node6</title>
<g id="a_node6"><a xlink:href="../../d2/d3e/class_level1.html#a324da1e22a7a87fa4bb1859b5774bdba" target="_top" xlink:title="Level1.updateFrame">
<polygon fill="white" stroke="black" points="454,-133.5 454,-152.5 568,-152.5 568,-133.5 454,-133.5"/>
<text text-anchor="middle" x="511" y="-140.5" font-family="Helvetica,sans-Serif" font-size="10.00">Level1.updateFrame</text>
</a>
</g>
</g>
<!-- Node5&#45;&gt;Node6 -->
<g id="edge5" class="edge"><title>Node5&#45;&gt;Node6</title>
<path fill="none" stroke="midnightblue" d="M418.5,-132.134C430.333,-133.54 442.509,-134.985 453.963,-136.346"/>
<polygon fill="midnightblue" stroke="midnightblue" points="418.559,-128.617 408.216,-130.913 417.734,-135.568 418.559,-128.617"/>
</g>
<!-- Node7 -->
<g id="node7" class="node"><title>Node7</title>
<g id="a_node7"><a xlink:href="../../d2/d3e/class_level1.html#a0871325d07c0614d5f1f2df7df13b703" target="_top" xlink:title="Level1.start">
<polygon fill="white" stroke="black" points="604.5,-133.5 604.5,-152.5 677.5,-152.5 677.5,-133.5 604.5,-133.5"/>
<text text-anchor="middle" x="641" y="-140.5" font-family="Helvetica,sans-Serif" font-size="10.00">Level1.start</text>
</a>
</g>
</g>
<!-- Node6&#45;&gt;Node7 -->
<g id="edge6" class="edge"><title>Node6&#45;&gt;Node7</title>
<path fill="none" stroke="midnightblue" d="M578.221,-143C587.159,-143 596.039,-143 604.163,-143"/>
<polygon fill="midnightblue" stroke="midnightblue" points="578.143,-139.5 568.143,-143 578.143,-146.5 578.143,-139.5"/>
</g>
<!-- Node8 -->
<g id="node8" class="node"><title>Node8</title>
<g id="a_node8"><a xlink:href="../../d2/db8/class_menu.html#ab6296880308728ced459f772430d025b" target="_top" xlink:title="Menu.createGame">
<polygon fill="white" stroke="black" points="716,-133.5 716,-152.5 822,-152.5 822,-133.5 716,-133.5"/>
<text text-anchor="middle" x="769" y="-140.5" font-family="Helvetica,sans-Serif" font-size="10.00">Menu.createGame</text>
</a>
</g>
</g>
<!-- Node7&#45;&gt;Node8 -->
<g id="edge7" class="edge"><title>Node7&#45;&gt;Node8</title>
<path fill="none" stroke="midnightblue" d="M688.04,-143C697.024,-143 706.506,-143 715.676,-143"/>
<polygon fill="midnightblue" stroke="midnightblue" points="687.77,-139.5 677.77,-143 687.769,-146.5 687.77,-139.5"/>
</g>
<!-- Node14 -->
<g id="node14" class="node"><title>Node14</title>
<g id="a_node14"><a xlink:href="../../d2/d3e/class_level1.html#ac56e75129bb2946c38cfcf43608f3f05" target="_top" xlink:title="Level1.goNextLevel">
<polygon fill="white" stroke="black" points="714,-95.5 714,-114.5 824,-114.5 824,-95.5 714,-95.5"/>
<text text-anchor="middle" x="769" y="-102.5" font-family="Helvetica,sans-Serif" font-size="10.00">Level1.goNextLevel</text>
</a>
</g>
</g>
<!-- Node7&#45;&gt;Node14 -->
<g id="edge13" class="edge"><title>Node7&#45;&gt;Node14</title>
<path fill="none" stroke="midnightblue" d="M683.564,-130.465C700.705,-125.295 720.25,-119.401 736.215,-114.586"/>
<polygon fill="midnightblue" stroke="midnightblue" points="682.359,-127.173 673.795,-133.411 684.38,-133.874 682.359,-127.173"/>
</g>
<!-- Node9 -->
<g id="node9" class="node"><title>Node9</title>
<g id="a_node9"><a xlink:href="../../d2/db8/class_menu.html#a53c8b072d5ec777994fed9ee76c98561" target="_top" xlink:title="Menu.handle">
<polygon fill="white" stroke="black" points="860,-133.5 860,-152.5 938,-152.5 938,-133.5 860,-133.5"/>
<text text-anchor="middle" x="899" y="-140.5" font-family="Helvetica,sans-Serif" font-size="10.00">Menu.handle</text>
</a>
</g>
</g>
<!-- Node8&#45;&gt;Node9 -->
<g id="edge8" class="edge"><title>Node8&#45;&gt;Node9</title>
<path fill="none" stroke="midnightblue" d="M832.198,-143C841.592,-143 851.038,-143 859.726,-143"/>
<polygon fill="midnightblue" stroke="midnightblue" points="832.063,-139.5 822.062,-143 832.062,-146.5 832.063,-139.5"/>
</g>
<!-- Node10 -->
<g id="node10" class="node"><title>Node10</title>
<g id="a_node10"><a xlink:href="../../d2/db8/class_menu.html#aff7a7627619921545f94547ab6135007" target="_top" xlink:title="Menu.addButton">
<polygon fill="white" stroke="black" points="974,-133.5 974,-152.5 1070,-152.5 1070,-133.5 974,-133.5"/>
<text text-anchor="middle" x="1022" y="-140.5" font-family="Helvetica,sans-Serif" font-size="10.00">Menu.addButton</text>
</a>
</g>
</g>
<!-- Node9&#45;&gt;Node10 -->
<g id="edge9" class="edge"><title>Node9&#45;&gt;Node10</title>
<path fill="none" stroke="midnightblue" d="M948.539,-143C956.803,-143 965.377,-143 973.612,-143"/>
<polygon fill="midnightblue" stroke="midnightblue" points="948.285,-139.5 938.285,-143 948.285,-146.5 948.285,-139.5"/>
</g>
<!-- Node11 -->
<g id="node11" class="node"><title>Node11</title>
<g id="a_node11"><a xlink:href="../../d5/db1/class_game_over.html#abb505ac8c26999beff755f4c299370da" target="_top" xlink:title="GameOver.addAllButtons">
<polygon fill="white" stroke="black" points="1106.5,-152.5 1106.5,-171.5 1243.5,-171.5 1243.5,-152.5 1106.5,-152.5"/>
<text text-anchor="middle" x="1175" y="-159.5" font-family="Helvetica,sans-Serif" font-size="10.00">GameOver.addAllButtons</text>
</a>
</g>
</g>
<!-- Node10&#45;&gt;Node11 -->
<g id="edge10" class="edge"><title>Node10&#45;&gt;Node11</title>
<path fill="none" stroke="midnightblue" d="M1080.48,-150.233C1088.94,-151.297 1097.71,-152.4 1106.34,-153.487"/>
<polygon fill="midnightblue" stroke="midnightblue" points="1080.72,-146.735 1070.36,-148.96 1079.85,-153.681 1080.72,-146.735"/>
</g>
<!-- Node12 -->
<g id="node12" class="node"><title>Node12</title>
<g id="a_node12"><a xlink:href="../../d2/db8/class_menu.html#a461e62e606af2391013ce3aaf92a8cc7" target="_top" xlink:title="Menu.addAllButtons">
<polygon fill="white" stroke="black" points="1118.5,-114.5 1118.5,-133.5 1231.5,-133.5 1231.5,-114.5 1118.5,-114.5"/>
<text text-anchor="middle" x="1175" y="-121.5" font-family="Helvetica,sans-Serif" font-size="10.00">Menu.addAllButtons</text>
</a>
</g>
</g>
<!-- Node10&#45;&gt;Node12 -->
<g id="edge11" class="edge"><title>Node10&#45;&gt;Node12</title>
<path fill="none" stroke="midnightblue" d="M1080.58,-135.755C1092.96,-134.196 1106.04,-132.552 1118.35,-131.002"/>
<polygon fill="midnightblue" stroke="midnightblue" points="1079.85,-132.319 1070.36,-137.04 1080.72,-139.265 1079.85,-132.319"/>
</g>
<!-- Node13 -->
<g id="node13" class="node"><title>Node13</title>
<g id="a_node13"><a xlink:href="../../d2/db8/class_menu.html#a3c99ad09e9f2f975c1a0d0597642651a" target="_top" xlink:title="Menu.init">
<polygon fill="white" stroke="black" points="1280,-114.5 1280,-133.5 1340,-133.5 1340,-114.5 1280,-114.5"/>
<text text-anchor="middle" x="1310" y="-121.5" font-family="Helvetica,sans-Serif" font-size="10.00">Menu.init</text>
</a>
</g>
</g>
<!-- Node12&#45;&gt;Node13 -->
<g id="edge12" class="edge"><title>Node12&#45;&gt;Node13</title>
<path fill="none" stroke="midnightblue" d="M1241.78,-124C1255.09,-124 1268.45,-124 1279.71,-124"/>
<polygon fill="midnightblue" stroke="midnightblue" points="1241.63,-120.5 1231.63,-124 1241.63,-127.5 1241.63,-120.5"/>
</g>
<!-- Node14&#45;&gt;Node5 -->
<g id="edge14" class="edge"><title>Node14&#45;&gt;Node5</title>
<path fill="none" stroke="midnightblue" d="M703.653,-107.925C622.954,-111.593 485.781,-117.828 408.121,-121.358"/>
<polygon fill="midnightblue" stroke="midnightblue" points="703.858,-111.419 713.689,-107.469 703.54,-104.426 703.858,-111.419"/>
</g>
<!-- Node16 -->
<g id="node16" class="node"><title>Node16</title>
<g id="a_node16"><a xlink:href="../../d2/d3e/class_level1.html#ac36d707d46288fb3ee16958317c6f68f" target="_top" xlink:title="Level1.handleMouseInput">
<polygon fill="white" stroke="black" points="280,-190.5 280,-209.5 418,-209.5 418,-190.5 280,-190.5"/>
<text text-anchor="middle" x="349" y="-197.5" font-family="Helvetica,sans-Serif" font-size="10.00">Level1.handleMouseInput</text>
</a>
</g>
</g>
<!-- Node15&#45;&gt;Node16 -->
<g id="edge16" class="edge"><title>Node15&#45;&gt;Node16</title>
<path fill="none" stroke="midnightblue" d="M249.504,-200C259.398,-200 269.745,-200 279.86,-200"/>
<polygon fill="midnightblue" stroke="midnightblue" points="249.386,-196.5 239.386,-200 249.386,-203.5 249.386,-196.5"/>
</g>
<!-- Node17 -->
<g id="node17" class="node"><title>Node17</title>
<g id="a_node17"><a xlink:href="../../d2/d3e/class_level1.html#a7a6c3c5e659524ade852b1b959144034" target="_top" xlink:title="Level1.makeScene">
<polygon fill="white" stroke="black" points="457.5,-190.5 457.5,-209.5 564.5,-209.5 564.5,-190.5 457.5,-190.5"/>
<text text-anchor="middle" x="511" y="-197.5" font-family="Helvetica,sans-Serif" font-size="10.00">Level1.makeScene</text>
</a>
</g>
</g>
<!-- Node16&#45;&gt;Node17 -->
<g id="edge17" class="edge"><title>Node16&#45;&gt;Node17</title>
<path fill="none" stroke="midnightblue" d="M428.495,-200C438.295,-200 448.125,-200 457.397,-200"/>
<polygon fill="midnightblue" stroke="midnightblue" points="428.319,-196.5 418.319,-200 428.318,-203.5 428.319,-196.5"/>
</g>
<!-- Node17&#45;&gt;Node3 -->
<g id="edge18" class="edge"><title>Node17&#45;&gt;Node3</title>
<path fill="none" stroke="midnightblue" d="M574.906,-200C586.462,-200 598.065,-200 608.208,-200"/>
<polygon fill="midnightblue" stroke="midnightblue" points="574.802,-196.5 564.801,-200 574.801,-203.5 574.802,-196.5"/>
</g>
<!-- Node18&#45;&gt;Node5 -->
<g id="edge20" class="edge"><title>Node18&#45;&gt;Node5</title>
<path fill="none" stroke="midnightblue" d="M252.578,-124C264.883,-124 277.77,-124 289.95,-124"/>
<polygon fill="midnightblue" stroke="midnightblue" points="252.408,-120.5 242.408,-124 252.408,-127.5 252.408,-120.5"/>
</g>
<!-- Node19&#45;&gt;Node5 -->
<g id="edge22" class="edge"><title>Node19&#45;&gt;Node5</title>
<path fill="none" stroke="midnightblue" d="M240.447,-97.968C262.448,-103.293 287.994,-109.476 308.667,-114.48"/>
<polygon fill="midnightblue" stroke="midnightblue" points="241.16,-94.5398 230.618,-95.589 239.514,-101.343 241.16,-94.5398"/>
</g>
</g>
</svg>
        <g id="navigator" transform="translate(0 0)" fill="#404254">
                <rect fill="#f2f5e9" fill-opacity="0.5" stroke="#606060" stroke-width=".5" x="0" y="0" width="60" height="60"/>
                <use id="zoomplus" xlink:href="#zoomPlus" x="17" y="9" onmousedown="handleZoom(evt,'in')"/>
                <use id="zoomminus" xlink:href="#zoomMin" x="42" y="9" onmousedown="handleZoom(evt,'out')"/>
                <use id="reset" xlink:href="#resetDef" x="30" y="36" onmousedown="handleReset()"/>
                <g id="arrowUp" xlink:href="#dirArrow" transform="translate(30 24)" onmousedown="handlePan(0,-1)">
                  <use xlink:href="#rim" fill="#404040">
                        <set attributeName="fill" to="#808080" begin="arrowUp.mouseover" end="arrowUp.mouseout"/>
                  </use>
                  <path fill="none" stroke="white" stroke-width="1.5" d="M0,-3.0v7 M-2.5,-0.5L0,-3.0L2.5,-0.5"/>
                </g>
                <g id="arrowRight" xlink:href="#dirArrow" transform="rotate(90) translate(36 -43)" onmousedown="handlePan(1,0)">
                  <use xlink:href="#rim" fill="#404040">
                        <set attributeName="fill" to="#808080" begin="arrowRight.mouseover" end="arrowRight.mouseout"/>
                  </use>
                  <path fill="none" stroke="white" stroke-width="1.5" d="M0,-3.0v7 M-2.5,-0.5L0,-3.0L2.5,-0.5"/>
                </g>
                <g id="arrowDown" xlink:href="#dirArrow" transform="rotate(180) translate(-30 -48)" onmousedown="handlePan(0,1)">
                  <use xlink:href="#rim" fill="#404040">
                        <set attributeName="fill" to="#808080" begin="arrowDown.mouseover" end="arrowDown.mouseout"/>
                  </use>
                  <path fill="none" stroke="white" stroke-width="1.5" d="M0,-3.0v7 M-2.5,-0.5L0,-3.0L2.5,-0.5"/>
                </g>
                <g id="arrowLeft" xlink:href="#dirArrow" transform="rotate(270) translate(-36 17)" onmousedown="handlePan(-1,0)">
                  <use xlink:href="#rim" fill="#404040">
                        <set attributeName="fill" to="#808080" begin="arrowLeft.mouseover" end="arrowLeft.mouseout"/>
                  </use>
                  <path fill="none" stroke="white" stroke-width="1.5" d="M0,-3.0v7 M-2.5,-0.5L0,-3.0L2.5,-0.5"/>
                </g>
        </g>
        <svg viewBox="0 0 15 15" width="100%" height="30px" preserveAspectRatio="xMaxYMin meet">
         <g id="arrow_out" transform="scale(0.3 0.3)">
          <a xlink:href="class_sprite_accdf1c21264c6ff648ece508cf176bfb_icgraph_org.svg" target="_base">
           <rect id="button" ry="5" rx="5" y="6" x="6" height="38" width="38"
                fill="#f2f5e9" fill-opacity="0.5" stroke="#606060" stroke-width="1.0"/>
           <path id="arrow"
             d="M 11.500037,31.436501 C 11.940474,20.09759 22.043105,11.32322 32.158766,21.979434 L 37.068811,17.246167 C 37.068811,17.246167 37.088388,32 37.088388,32 L 22.160133,31.978069 C 22.160133,31.978069 26.997745,27.140456 26.997745,27.140456 C 18.528582,18.264221 13.291696,25.230495 11.500037,31.436501 z"
             style="fill:#404040;"/>
          </a>
         </g>
        </svg>
</svg>
