<?xml version="1.0" encoding="UTF-8" standalone="no"?>
<!DOCTYPE svg PUBLIC "-//W3C//DTD SVG 1.1//EN"
 "http://www.w3.org/Graphics/SVG/1.1/DTD/svg11.dtd">
<!-- Generated by graphviz version 2.36.0 (20140111.2315)
 -->
<!-- Title: Sprite.moveSprite Pages: 1 -->
<svg width="1332pt" height="104pt"
 viewBox="0.00 0.00 1332.00 104.00" xmlns="http://www.w3.org/2000/svg" xmlns:xlink="http://www.w3.org/1999/xlink">
<g id="graph0" class="graph" transform="scale(1 1) rotate(0) translate(4 100)">
<title>Sprite.moveSprite</title>
<polygon fill="white" stroke="none" points="-4,4 -4,-100 1328,-100 1328,4 -4,4"/>
<!-- Node1 -->
<g id="node1" class="node"><title>Node1</title>
<polygon fill="#bfbfbf" stroke="black" points="0,-19.5 0,-38.5 104,-38.5 104,-19.5 0,-19.5"/>
<text text-anchor="middle" x="52" y="-26.5" font-family="Helvetica,sans-Serif" font-size="10.00">Sprite.moveSprite</text>
</g>
<!-- Node2 -->
<g id="node2" class="node"><title>Node2</title>
<g id="a_node2"><a xlink:href="../../d8/d53/class_player.html#a1b7a0a6c68deb202a672d42e205d5a21" target="_top" xlink:title="Player.moveSprite">
<polygon fill="white" stroke="black" points="142,-38.5 142,-57.5 246,-57.5 246,-38.5 142,-38.5"/>
<text text-anchor="middle" x="194" y="-45.5" font-family="Helvetica,sans-Serif" font-size="10.00">Player.moveSprite</text>
</a>
</g>
</g>
<!-- Node1&#45;&gt;Node2 -->
<g id="edge1" class="edge"><title>Node1&#45;&gt;Node2</title>
<path fill="none" stroke="midnightblue" d="M114.471,-37.3426C123.551,-38.5748 132.825,-39.8334 141.67,-41.0338"/>
<polygon fill="midnightblue" stroke="midnightblue" points="114.716,-33.8437 104.336,-35.967 113.774,-40.7801 114.716,-33.8437"/>
</g>
<!-- Node14 -->
<g id="node14" class="node"><title>Node14</title>
<g id="a_node14"><a xlink:href="../../dd/d7a/class_enemy.html#ab653212b50d9e64ba497ae18696d3678" target="_top" xlink:title="Enemy.moveSprite">
<polygon fill="white" stroke="black" points="140.5,-0.5 140.5,-19.5 247.5,-19.5 247.5,-0.5 140.5,-0.5"/>
<text text-anchor="middle" x="194" y="-7.5" font-family="Helvetica,sans-Serif" font-size="10.00">Enemy.moveSprite</text>
</a>
</g>
</g>
<!-- Node1&#45;&gt;Node14 -->
<g id="edge14" class="edge"><title>Node1&#45;&gt;Node14</title>
<path fill="none" stroke="midnightblue" d="M114.359,-20.6727C122.994,-19.5008 131.807,-18.3047 140.262,-17.1573"/>
<polygon fill="midnightblue" stroke="midnightblue" points="113.774,-17.2199 104.336,-22.033 114.716,-24.1563 113.774,-17.2199"/>
</g>
<!-- Node3 -->
<g id="node3" class="node"><title>Node3</title>
<g id="a_node3"><a xlink:href="../../d2/d3e/class_level1.html#a78a7fb5633734b1815af8db43db23a41" target="_top" xlink:title="Level1.updateSprites">
<polygon fill="white" stroke="black" points="284,-19.5 284,-38.5 402,-38.5 402,-19.5 284,-19.5"/>
<text text-anchor="middle" x="343" y="-26.5" font-family="Helvetica,sans-Serif" font-size="10.00">Level1.updateSprites</text>
</a>
</g>
</g>
<!-- Node2&#45;&gt;Node3 -->
<g id="edge2" class="edge"><title>Node2&#45;&gt;Node3</title>
<path fill="none" stroke="midnightblue" d="M256.174,-40.0931C265.311,-38.9122 274.709,-37.6975 283.782,-36.5248"/>
<polygon fill="midnightblue" stroke="midnightblue" points="255.47,-36.655 246.001,-41.408 256.367,-43.5972 255.47,-36.655"/>
</g>
<!-- Node4 -->
<g id="node4" class="node"><title>Node4</title>
<g id="a_node4"><a xlink:href="../../d2/d3e/class_level1.html#a324da1e22a7a87fa4bb1859b5774bdba" target="_top" xlink:title="Level1.updateFrame">
<polygon fill="white" stroke="black" points="438,-38.5 438,-57.5 552,-57.5 552,-38.5 438,-38.5"/>
<text text-anchor="middle" x="495" y="-45.5" font-family="Helvetica,sans-Serif" font-size="10.00">Level1.updateFrame</text>
</a>
</g>
</g>
<!-- Node3&#45;&gt;Node4 -->
<g id="edge3" class="edge"><title>Node3&#45;&gt;Node4</title>
<path fill="none" stroke="midnightblue" d="M412.386,-37.6623C420.941,-38.7459 429.612,-39.8442 437.949,-40.9002"/>
<polygon fill="midnightblue" stroke="midnightblue" points="412.784,-34.1848 402.423,-36.4003 411.904,-41.1293 412.784,-34.1848"/>
</g>
<!-- Node5 -->
<g id="node5" class="node"><title>Node5</title>
<g id="a_node5"><a xlink:href="../../d2/d3e/class_level1.html#a0871325d07c0614d5f1f2df7df13b703" target="_top" xlink:title="Level1.start">
<polygon fill="white" stroke="black" points="588.5,-38.5 588.5,-57.5 661.5,-57.5 661.5,-38.5 588.5,-38.5"/>
<text text-anchor="middle" x="625" y="-45.5" font-family="Helvetica,sans-Serif" font-size="10.00">Level1.start</text>
</a>
</g>
</g>
<!-- Node4&#45;&gt;Node5 -->
<g id="edge4" class="edge"><title>Node4&#45;&gt;Node5</title>
<path fill="none" stroke="midnightblue" d="M562.221,-48C571.159,-48 580.039,-48 588.163,-48"/>
<polygon fill="midnightblue" stroke="midnightblue" points="562.143,-44.5001 552.143,-48 562.143,-51.5001 562.143,-44.5001"/>
</g>
<!-- Node6 -->
<g id="node6" class="node"><title>Node6</title>
<g id="a_node6"><a xlink:href="../../d2/db8/class_menu.html#ab6296880308728ced459f772430d025b" target="_top" xlink:title="Menu.createGame">
<polygon fill="white" stroke="black" points="700,-38.5 700,-57.5 806,-57.5 806,-38.5 700,-38.5"/>
<text text-anchor="middle" x="753" y="-45.5" font-family="Helvetica,sans-Serif" font-size="10.00">Menu.createGame</text>
</a>
</g>
</g>
<!-- Node5&#45;&gt;Node6 -->
<g id="edge5" class="edge"><title>Node5&#45;&gt;Node6</title>
<path fill="none" stroke="midnightblue" d="M672.04,-48C681.024,-48 690.506,-48 699.676,-48"/>
<polygon fill="midnightblue" stroke="midnightblue" points="671.77,-44.5001 661.77,-48 671.769,-51.5001 671.77,-44.5001"/>
</g>
<!-- Node13 -->
<g id="node13" class="node"><title>Node13</title>
<g id="a_node13"><a xlink:href="../../d2/d3e/class_level1.html#ac56e75129bb2946c38cfcf43608f3f05" target="_top" xlink:title="Level1.goNextLevel">
<polygon fill="white" stroke="black" points="698,-0.5 698,-19.5 808,-19.5 808,-0.5 698,-0.5"/>
<text text-anchor="middle" x="753" y="-7.5" font-family="Helvetica,sans-Serif" font-size="10.00">Level1.goNextLevel</text>
</a>
</g>
</g>
<!-- Node5&#45;&gt;Node13 -->
<g id="edge12" class="edge"><title>Node5&#45;&gt;Node13</title>
<path fill="none" stroke="midnightblue" d="M667.564,-35.4647C684.705,-30.2952 704.25,-24.4009 720.215,-19.5859"/>
<polygon fill="midnightblue" stroke="midnightblue" points="666.359,-32.1726 657.795,-38.411 668.38,-38.8744 666.359,-32.1726"/>
</g>
<!-- Node7 -->
<g id="node7" class="node"><title>Node7</title>
<g id="a_node7"><a xlink:href="../../d2/db8/class_menu.html#a53c8b072d5ec777994fed9ee76c98561" target="_top" xlink:title="Menu.handle">
<polygon fill="white" stroke="black" points="844,-38.5 844,-57.5 922,-57.5 922,-38.5 844,-38.5"/>
<text text-anchor="middle" x="883" y="-45.5" font-family="Helvetica,sans-Serif" font-size="10.00">Menu.handle</text>
</a>
</g>
</g>
<!-- Node6&#45;&gt;Node7 -->
<g id="edge6" class="edge"><title>Node6&#45;&gt;Node7</title>
<path fill="none" stroke="midnightblue" d="M816.198,-48C825.592,-48 835.038,-48 843.726,-48"/>
<polygon fill="midnightblue" stroke="midnightblue" points="816.063,-44.5001 806.062,-48 816.062,-51.5001 816.063,-44.5001"/>
</g>
<!-- Node8 -->
<g id="node8" class="node"><title>Node8</title>
<g id="a_node8"><a xlink:href="../../d2/db8/class_menu.html#aff7a7627619921545f94547ab6135007" target="_top" xlink:title="Menu.addButton">
<polygon fill="white" stroke="black" points="958,-38.5 958,-57.5 1054,-57.5 1054,-38.5 958,-38.5"/>
<text text-anchor="middle" x="1006" y="-45.5" font-family="Helvetica,sans-Serif" font-size="10.00">Menu.addButton</text>
</a>
</g>
</g>
<!-- Node7&#45;&gt;Node8 -->
<g id="edge7" class="edge"><title>Node7&#45;&gt;Node8</title>
<path fill="none" stroke="midnightblue" d="M932.539,-48C940.803,-48 949.377,-48 957.612,-48"/>
<polygon fill="midnightblue" stroke="midnightblue" points="932.285,-44.5001 922.285,-48 932.285,-51.5001 932.285,-44.5001"/>
</g>
<!-- Node9 -->
<g id="node9" class="node"><title>Node9</title>
<g id="a_node9"><a xlink:href="../../dd/d7f/class_game_win.html#a0ebbfe299d7456f57ae3dbf3817b7f8d" target="_top" xlink:title="GameWin.addAllButtons">
<polygon fill="white" stroke="black" points="1093,-76.5 1093,-95.5 1225,-95.5 1225,-76.5 1093,-76.5"/>
<text text-anchor="middle" x="1159" y="-83.5" font-family="Helvetica,sans-Serif" font-size="10.00">GameWin.addAllButtons</text>
</a>
</g>
</g>
<!-- Node8&#45;&gt;Node9 -->
<g id="edge8" class="edge"><title>Node8&#45;&gt;Node9</title>
<path fill="none" stroke="midnightblue" d="M1054.84,-60.04C1075.94,-65.3488 1100.38,-71.4988 1120.17,-76.4799"/>
<polygon fill="midnightblue" stroke="midnightblue" points="1055.66,-56.6354 1045.1,-57.589 1053.95,-63.4237 1055.66,-56.6354"/>
</g>
<!-- Node10 -->
<g id="node10" class="node"><title>Node10</title>
<g id="a_node10"><a xlink:href="../../d5/db1/class_game_over.html#abb505ac8c26999beff755f4c299370da" target="_top" xlink:title="GameOver.addAllButtons">
<polygon fill="white" stroke="black" points="1090.5,-38.5 1090.5,-57.5 1227.5,-57.5 1227.5,-38.5 1090.5,-38.5"/>
<text text-anchor="middle" x="1159" y="-45.5" font-family="Helvetica,sans-Serif" font-size="10.00">GameOver.addAllButtons</text>
</a>
</g>
</g>
<!-- Node8&#45;&gt;Node10 -->
<g id="edge9" class="edge"><title>Node8&#45;&gt;Node10</title>
<path fill="none" stroke="midnightblue" d="M1064.48,-48C1072.94,-48 1081.71,-48 1090.34,-48"/>
<polygon fill="midnightblue" stroke="midnightblue" points="1064.36,-44.5001 1054.36,-48 1064.36,-51.5001 1064.36,-44.5001"/>
</g>
<!-- Node11 -->
<g id="node11" class="node"><title>Node11</title>
<g id="a_node11"><a xlink:href="../../d2/db8/class_menu.html#a461e62e606af2391013ce3aaf92a8cc7" target="_top" xlink:title="Menu.addAllButtons">
<polygon fill="white" stroke="black" points="1102.5,-0.5 1102.5,-19.5 1215.5,-19.5 1215.5,-0.5 1102.5,-0.5"/>
<text text-anchor="middle" x="1159" y="-7.5" font-family="Helvetica,sans-Serif" font-size="10.00">Menu.addAllButtons</text>
</a>
</g>
</g>
<!-- Node8&#45;&gt;Node11 -->
<g id="edge10" class="edge"><title>Node8&#45;&gt;Node11</title>
<path fill="none" stroke="midnightblue" d="M1054.84,-35.96C1075.94,-30.6512 1100.38,-24.5012 1120.17,-19.5201"/>
<polygon fill="midnightblue" stroke="midnightblue" points="1053.95,-32.5763 1045.1,-38.411 1055.66,-39.3646 1053.95,-32.5763"/>
</g>
<!-- Node12 -->
<g id="node12" class="node"><title>Node12</title>
<g id="a_node12"><a xlink:href="../../d2/db8/class_menu.html#a3c99ad09e9f2f975c1a0d0597642651a" target="_top" xlink:title="Menu.init">
<polygon fill="white" stroke="black" points="1264,-0.5 1264,-19.5 1324,-19.5 1324,-0.5 1264,-0.5"/>
<text text-anchor="middle" x="1294" y="-7.5" font-family="Helvetica,sans-Serif" font-size="10.00">Menu.init</text>
</a>
</g>
</g>
<!-- Node11&#45;&gt;Node12 -->
<g id="edge11" class="edge"><title>Node11&#45;&gt;Node12</title>
<path fill="none" stroke="midnightblue" d="M1225.78,-10C1239.09,-10 1252.45,-10 1263.71,-10"/>
<polygon fill="midnightblue" stroke="midnightblue" points="1225.63,-6.5001 1215.63,-10 1225.63,-13.5001 1225.63,-6.5001"/>
</g>
<!-- Node13&#45;&gt;Node3 -->
<g id="edge13" class="edge"><title>Node13&#45;&gt;Node3</title>
<path fill="none" stroke="midnightblue" d="M687.511,-13.0032C608.981,-16.6602 477.505,-22.7828 402.023,-26.2979"/>
<polygon fill="midnightblue" stroke="midnightblue" points="687.932,-16.4874 697.759,-12.5259 687.607,-9.49501 687.932,-16.4874"/>
</g>
<!-- Node14&#45;&gt;Node3 -->
<g id="edge15" class="edge"><title>Node14&#45;&gt;Node3</title>
<path fill="none" stroke="midnightblue" d="M257.75,-18.1105C266.455,-19.2357 275.366,-20.3875 283.98,-21.5008"/>
<polygon fill="midnightblue" stroke="midnightblue" points="258.021,-14.6166 247.655,-16.8058 257.124,-21.5588 258.021,-14.6166"/>
</g>
</g>
</svg>
