<?xml version="1.0" encoding="UTF-8" standalone="no"?>
<!DOCTYPE svg PUBLIC "-//W3C//DTD SVG 1.1//EN"
 "http://www.w3.org/Graphics/SVG/1.1/DTD/svg11.dtd">
<!-- Generated by graphviz version 2.36.0 (20140111.2315)
 -->
<!-- Title: Sprite Pages: 1 -->
<svg width="159pt" height="96pt"
 viewBox="0.00 0.00 159.00 96.00" xmlns="http://www.w3.org/2000/svg" xmlns:xlink="http://www.w3.org/1999/xlink">
<g id="graph0" class="graph" transform="scale(1 1) rotate(0) translate(4 92)">
<title>Sprite</title>
<polygon fill="white" stroke="none" points="-4,4 -4,-92 155,-92 155,4 -4,4"/>
<!-- Node1 -->
<g id="node1" class="node"><title>Node1</title>
<polygon fill="#bfbfbf" stroke="black" points="50.5,-0.5 50.5,-19.5 95.5,-19.5 95.5,-0.5 50.5,-0.5"/>
<text text-anchor="middle" x="73" y="-7.5" font-family="Helvetica,sans-Serif" font-size="10.00">Sprite</text>
</g>
<!-- Node2 -->
<g id="node2" class="node"><title>Node2</title>
<polygon fill="white" stroke="#bfbfbf" points="0,-68.5 0,-87.5 68,-87.5 68,-68.5 0,-68.5"/>
<text text-anchor="middle" x="34" y="-75.5" font-family="Helvetica,sans-Serif" font-size="10.00">ImageView</text>
</g>
<!-- Node2&#45;&gt;Node1 -->
<g id="edge1" class="edge"><title>Node2&#45;&gt;Node1</title>
<path fill="none" stroke="midnightblue" d="M44.3037,-59.563C51.8564,-46.7815 61.7964,-29.9599 67.7757,-19.8411"/>
<polygon fill="midnightblue" stroke="midnightblue" points="41.1727,-57.9818 39.0986,-68.3717 47.1992,-61.5429 41.1727,-57.9818"/>
</g>
<!-- Node3 -->
<g id="node3" class="node"><title>Node3</title>
<polygon fill="white" stroke="#bfbfbf" points="86,-68.5 86,-87.5 140,-87.5 140,-68.5 86,-68.5"/>
<text text-anchor="middle" x="113" y="-75.5" font-family="Helvetica,sans-Serif" font-size="10.00">Point2D</text>
</g>
<!-- Node3&#45;&gt;Node1 -->
<g id="edge2" class="edge"><title>Node3&#45;&gt;Node1</title>
<path fill="none" stroke="#9a32cd" stroke-dasharray="5,2" d="M102.432,-59.563C94.6857,-46.7815 84.4909,-29.9599 78.3583,-19.8411"/>
<polygon fill="#9a32cd" stroke="#9a32cd" points="99.5944,-61.6337 107.771,-68.3717 105.581,-58.0056 99.5944,-61.6337"/>
<text text-anchor="middle" x="123.5" y="-41.5" font-family="Helvetica,sans-Serif" font-size="10.00"> myVelocity</text>
</g>
</g>
</svg>
