<?xml version="1.0" encoding="UTF-8" standalone="no"?>
<!DOCTYPE svg PUBLIC "-//W3C//DTD SVG 1.1//EN"
 "http://www.w3.org/Graphics/SVG/1.1/DTD/svg11.dtd">
<!-- Generated by graphviz version 2.36.0 (20140111.2315)
 -->
<!-- Title: Level2 Pages: 1 -->
<svg width="58pt" height="140pt"
 viewBox="0.00 0.00 58.00 140.00" xmlns="http://www.w3.org/2000/svg" xmlns:xlink="http://www.w3.org/1999/xlink">
<g id="graph0" class="graph" transform="scale(1 1) rotate(0) translate(4 136)">
<title>Level2</title>
<polygon fill="white" stroke="none" points="-4,4 -4,-136 54,-136 54,4 -4,4"/>
<!-- Node1 -->
<g id="node1" class="node"><title>Node1</title>
<polygon fill="#bfbfbf" stroke="black" points="1.5,-0.5 1.5,-19.5 48.5,-19.5 48.5,-0.5 1.5,-0.5"/>
<text text-anchor="middle" x="25" y="-7.5" font-family="Helvetica,sans-Serif" font-size="10.00">Level2</text>
</g>
<!-- Node2 -->
<g id="node2" class="node"><title>Node2</title>
<g id="a_node2"><a xlink:href="../../d2/d3e/class_level1.html" target="_top" xlink:title="Level1">
<polygon fill="white" stroke="black" points="1.5,-56.5 1.5,-75.5 48.5,-75.5 48.5,-56.5 1.5,-56.5"/>
<text text-anchor="middle" x="25" y="-63.5" font-family="Helvetica,sans-Serif" font-size="10.00">Level1</text>
</a>
</g>
</g>
<!-- Node2&#45;&gt;Node1 -->
<g id="edge1" class="edge"><title>Node2&#45;&gt;Node1</title>
<path fill="none" stroke="midnightblue" d="M25,-45.8045C25,-36.9102 25,-26.7798 25,-19.7511"/>
<polygon fill="midnightblue" stroke="midnightblue" points="21.5001,-46.083 25,-56.083 28.5001,-46.083 21.5001,-46.083"/>
</g>
<!-- Node3 -->
<g id="node3" class="node"><title>Node3</title>
<g id="a_node3"><a xlink:href="../../d6/d21/class_screen.html" target="_top" xlink:title="Screen">
<polygon fill="white" stroke="black" points="0,-112.5 0,-131.5 50,-131.5 50,-112.5 0,-112.5"/>
<text text-anchor="middle" x="25" y="-119.5" font-family="Helvetica,sans-Serif" font-size="10.00">Screen</text>
</a>
</g>
</g>
<!-- Node3&#45;&gt;Node2 -->
<g id="edge2" class="edge"><title>Node3&#45;&gt;Node2</title>
<path fill="none" stroke="midnightblue" d="M25,-101.805C25,-92.9102 25,-82.7798 25,-75.7511"/>
<polygon fill="midnightblue" stroke="midnightblue" points="21.5001,-102.083 25,-112.083 28.5001,-102.083 21.5001,-102.083"/>
</g>
</g>
</svg>
