<?xml version="1.0" encoding="UTF-8" standalone="no"?>
<!DOCTYPE svg PUBLIC "-//W3C//DTD SVG 1.1//EN"
 "http://www.w3.org/Graphics/SVG/1.1/DTD/svg11.dtd">
<!-- Generated by graphviz version 2.36.0 (20140111.2315)
 -->
<!-- Title: Player.makeShot Pages: 1 -->
<svg width="244pt" height="66pt"
 viewBox="0.00 0.00 244.00 66.00" xmlns="http://www.w3.org/2000/svg" xmlns:xlink="http://www.w3.org/1999/xlink">
<g id="graph0" class="graph" transform="scale(1 1) rotate(0) translate(4 62)">
<title>Player.makeShot</title>
<polygon fill="white" stroke="none" points="-4,4 -4,-62 240,-62 240,4 -4,4"/>
<!-- Node1 -->
<g id="node1" class="node"><title>Node1</title>
<polygon fill="#bfbfbf" stroke="black" points="0,-19.5 0,-38.5 98,-38.5 98,-19.5 0,-19.5"/>
<text text-anchor="middle" x="49" y="-26.5" font-family="Helvetica,sans-Serif" font-size="10.00">Player.makeShot</text>
</g>
<!-- Node2 -->
<g id="node2" class="node"><title>Node2</title>
<g id="a_node2"><a xlink:href="../../d7/dbf/class_sprite.html#a4dd4a643703de09c632a0e7d70a570e7" target="_top" xlink:title="Sprite.getVelocity">
<polygon fill="white" stroke="black" points="134.5,-38.5 134.5,-57.5 235.5,-57.5 235.5,-38.5 134.5,-38.5"/>
<text text-anchor="middle" x="185" y="-45.5" font-family="Helvetica,sans-Serif" font-size="10.00">Sprite.getVelocity</text>
</a>
</g>
</g>
<!-- Node1&#45;&gt;Node2 -->
<g id="edge1" class="edge"><title>Node1&#45;&gt;Node2</title>
<path fill="none" stroke="midnightblue" d="M98.3771,-35.8594C106.783,-37.0513 115.613,-38.3033 124.279,-39.5321"/>
<polygon fill="midnightblue" stroke="midnightblue" points="123.949,-43.0202 134.341,-40.9588 124.932,-36.0896 123.949,-43.0202"/>
</g>
<!-- Node3 -->
<g id="node3" class="node"><title>Node3</title>
<g id="a_node3"><a xlink:href="../../d7/dbf/class_sprite.html#accdf1c21264c6ff648ece508cf176bfb" target="_top" xlink:title="Sprite.setVelocity">
<polygon fill="white" stroke="black" points="135,-0.5 135,-19.5 235,-19.5 235,-0.5 135,-0.5"/>
<text text-anchor="middle" x="185" y="-7.5" font-family="Helvetica,sans-Serif" font-size="10.00">Sprite.setVelocity</text>
</a>
</g>
</g>
<!-- Node1&#45;&gt;Node3 -->
<g id="edge2" class="edge"><title>Node1&#45;&gt;Node3</title>
<path fill="none" stroke="midnightblue" d="M98.3771,-22.1406C106.89,-20.9334 115.84,-19.6645 124.612,-18.4206"/>
<polygon fill="midnightblue" stroke="midnightblue" points="125.383,-21.8464 134.793,-16.9771 124.401,-14.9157 125.383,-21.8464"/>
</g>
</g>
</svg>
