<?xml version="1.0" encoding="UTF-8" standalone="no"?>
<!DOCTYPE svg PUBLIC "-//W3C//DTD SVG 1.1//EN"
 "http://www.w3.org/Graphics/SVG/1.1/DTD/svg11.dtd">
<!-- Generated by graphviz version 2.36.0 (20140111.2315)
 -->
<!-- Title: Screen.showScreen Pages: 1 -->
<svg width="1394pt" height="122pt"
 viewBox="0.00 0.00 1394.00 122.25" xmlns="http://www.w3.org/2000/svg" xmlns:xlink="http://www.w3.org/1999/xlink">
<g id="graph0" class="graph" transform="scale(1 1) rotate(0) translate(4 118.253)">
<title>Screen.showScreen</title>
<polygon fill="white" stroke="none" points="-4,4 -4,-118.253 1390,-118.253 1390,4 -4,4"/>
<!-- Node1 -->
<g id="node1" class="node"><title>Node1</title>
<polygon fill="#bfbfbf" stroke="black" points="0.5,-38.5 0.5,-57.5 111.5,-57.5 111.5,-38.5 0.5,-38.5"/>
<text text-anchor="middle" x="56" y="-45.5" font-family="Helvetica,sans-Serif" font-size="10.00">Screen.showScreen</text>
</g>
<!-- Node2 -->
<g id="node2" class="node"><title>Node2</title>
<g id="a_node2"><a xlink:href="../../d2/d3e/class_level1.html#a5e6976ef755d0e678034870e374ee4ca" target="_top" xlink:title="Level1.goGameOver">
<polygon fill="white" stroke="black" points="148,-76.5 148,-95.5 262,-95.5 262,-76.5 148,-76.5"/>
<text text-anchor="middle" x="205" y="-83.5" font-family="Helvetica,sans-Serif" font-size="10.00">Level1.goGameOver</text>
</a>
</g>
</g>
<!-- Node1&#45;&gt;Node2 -->
<g id="edge1" class="edge"><title>Node1&#45;&gt;Node2</title>
<path fill="none" stroke="midnightblue" d="M103.855,-60.1121C124.328,-65.4044 147.99,-71.5213 167.172,-76.4799"/>
<polygon fill="midnightblue" stroke="midnightblue" points="104.652,-56.7032 94.0943,-57.589 102.9,-63.4805 104.652,-56.7032"/>
</g>
<!-- Node13 -->
<g id="node13" class="node"><title>Node13</title>
<g id="a_node13"><a xlink:href="../../d6/d21/class_screen.html#a5d40342bbe33c27c9e0e24bd8709d1f6" target="_top" xlink:title="Screen.showAndAnim">
<polygon fill="white" stroke="black" points="602.5,-38.5 602.5,-57.5 723.5,-57.5 723.5,-38.5 602.5,-38.5"/>
<text text-anchor="middle" x="663" y="-45.5" font-family="Helvetica,sans-Serif" font-size="10.00">Screen.showAndAnim</text>
</a>
</g>
</g>
<!-- Node1&#45;&gt;Node13 -->
<g id="edge13" class="edge"><title>Node1&#45;&gt;Node13</title>
<path fill="none" stroke="midnightblue" d="M122.097,-48C240.302,-48 488.517,-48 602.486,-48"/>
<polygon fill="midnightblue" stroke="midnightblue" points="121.757,-44.5001 111.757,-48 121.757,-51.5001 121.757,-44.5001"/>
</g>
<!-- Node14 -->
<g id="node14" class="node"><title>Node14</title>
<g id="a_node14"><a xlink:href="../../d0/d4b/class_main.html#a7595d13c514a02c35aca322dd91d2063" target="_top" xlink:title="Main.start">
<polygon fill="white" stroke="black" points="172.5,-0.5 172.5,-19.5 237.5,-19.5 237.5,-0.5 172.5,-0.5"/>
<text text-anchor="middle" x="205" y="-7.5" font-family="Helvetica,sans-Serif" font-size="10.00">Main.start</text>
</a>
</g>
</g>
<!-- Node1&#45;&gt;Node14 -->
<g id="edge16" class="edge"><title>Node1&#45;&gt;Node14</title>
<path fill="none" stroke="midnightblue" d="M104.054,-35.8363C126.385,-30.0636 152.474,-23.3195 172.397,-18.1695"/>
<polygon fill="midnightblue" stroke="midnightblue" points="102.9,-32.5195 94.0943,-38.411 104.652,-39.2968 102.9,-32.5195"/>
</g>
<!-- Node3 -->
<g id="node3" class="node"><title>Node3</title>
<g id="a_node3"><a xlink:href="../../d2/d3e/class_level1.html#a78a7fb5633734b1815af8db43db23a41" target="_top" xlink:title="Level1.updateSprites">
<polygon fill="white" stroke="black" points="298,-76.5 298,-95.5 416,-95.5 416,-76.5 298,-76.5"/>
<text text-anchor="middle" x="357" y="-83.5" font-family="Helvetica,sans-Serif" font-size="10.00">Level1.updateSprites</text>
</a>
</g>
</g>
<!-- Node2&#45;&gt;Node3 -->
<g id="edge2" class="edge"><title>Node2&#45;&gt;Node3</title>
<path fill="none" stroke="midnightblue" d="M272.505,-86C280.971,-86 289.583,-86 297.902,-86"/>
<polygon fill="midnightblue" stroke="midnightblue" points="272.281,-82.5001 262.281,-86 272.281,-89.5001 272.281,-82.5001"/>
</g>
<!-- Node4 -->
<g id="node4" class="node"><title>Node4</title>
<g id="a_node4"><a xlink:href="../../d2/d3e/class_level1.html#a324da1e22a7a87fa4bb1859b5774bdba" target="_top" xlink:title="Level1.updateFrame">
<polygon fill="white" stroke="black" points="452,-76.5 452,-95.5 566,-95.5 566,-76.5 452,-76.5"/>
<text text-anchor="middle" x="509" y="-83.5" font-family="Helvetica,sans-Serif" font-size="10.00">Level1.updateFrame</text>
</a>
</g>
</g>
<!-- Node3&#45;&gt;Node4 -->
<g id="edge3" class="edge"><title>Node3&#45;&gt;Node4</title>
<path fill="none" stroke="midnightblue" d="M426.665,-86C435.13,-86 443.703,-86 451.949,-86"/>
<polygon fill="midnightblue" stroke="midnightblue" points="426.423,-82.5001 416.423,-86 426.423,-89.5001 426.423,-82.5001"/>
</g>
<!-- Node5 -->
<g id="node5" class="node"><title>Node5</title>
<g id="a_node5"><a xlink:href="../../d2/d3e/class_level1.html#a0871325d07c0614d5f1f2df7df13b703" target="_top" xlink:title="Level1.start">
<polygon fill="white" stroke="black" points="626.5,-76.5 626.5,-95.5 699.5,-95.5 699.5,-76.5 626.5,-76.5"/>
<text text-anchor="middle" x="663" y="-83.5" font-family="Helvetica,sans-Serif" font-size="10.00">Level1.start</text>
</a>
</g>
</g>
<!-- Node4&#45;&gt;Node5 -->
<g id="edge4" class="edge"><title>Node4&#45;&gt;Node5</title>
<path fill="none" stroke="midnightblue" d="M576.207,-86C593.44,-86 611.356,-86 626.331,-86"/>
<polygon fill="midnightblue" stroke="midnightblue" points="576.167,-82.5001 566.167,-86 576.167,-89.5001 576.167,-82.5001"/>
</g>
<!-- Node6 -->
<g id="node6" class="node"><title>Node6</title>
<g id="a_node6"><a xlink:href="../../d2/db8/class_menu.html#ab6296880308728ced459f772430d025b" target="_top" xlink:title="Menu.createGame">
<polygon fill="white" stroke="black" points="762,-38.5 762,-57.5 868,-57.5 868,-38.5 762,-38.5"/>
<text text-anchor="middle" x="815" y="-45.5" font-family="Helvetica,sans-Serif" font-size="10.00">Menu.createGame</text>
</a>
</g>
</g>
<!-- Node5&#45;&gt;Node6 -->
<g id="edge5" class="edge"><title>Node5&#45;&gt;Node6</title>
<path fill="none" stroke="midnightblue" d="M709.393,-74.5004C730.795,-69.0786 756.029,-62.6861 776.35,-57.538"/>
<polygon fill="midnightblue" stroke="midnightblue" points="708.382,-71.1459 699.548,-76.9945 710.101,-77.9315 708.382,-71.1459"/>
</g>
<!-- Node12 -->
<g id="node12" class="node"><title>Node12</title>
<g id="a_node12"><a xlink:href="../../d2/d3e/class_level1.html#ac56e75129bb2946c38cfcf43608f3f05" target="_top" xlink:title="Level1.goNextLevel">
<polygon fill="white" stroke="black" points="760,-76.5 760,-95.5 870,-95.5 870,-76.5 760,-76.5"/>
<text text-anchor="middle" x="815" y="-83.5" font-family="Helvetica,sans-Serif" font-size="10.00">Level1.goNextLevel</text>
</a>
</g>
</g>
<!-- Node5&#45;&gt;Node12 -->
<g id="edge11" class="edge"><title>Node5&#45;&gt;Node12</title>
<path fill="none" stroke="midnightblue" d="M709.636,-86C725.5,-86 743.446,-86 759.926,-86"/>
<polygon fill="midnightblue" stroke="midnightblue" points="709.548,-82.5001 699.548,-86 709.548,-89.5001 709.548,-82.5001"/>
</g>
<!-- Node7 -->
<g id="node7" class="node"><title>Node7</title>
<g id="a_node7"><a xlink:href="../../d2/db8/class_menu.html#a53c8b072d5ec777994fed9ee76c98561" target="_top" xlink:title="Menu.handle">
<polygon fill="white" stroke="black" points="906,-38.5 906,-57.5 984,-57.5 984,-38.5 906,-38.5"/>
<text text-anchor="middle" x="945" y="-45.5" font-family="Helvetica,sans-Serif" font-size="10.00">Menu.handle</text>
</a>
</g>
</g>
<!-- Node6&#45;&gt;Node7 -->
<g id="edge6" class="edge"><title>Node6&#45;&gt;Node7</title>
<path fill="none" stroke="midnightblue" d="M878.198,-48C887.592,-48 897.038,-48 905.726,-48"/>
<polygon fill="midnightblue" stroke="midnightblue" points="878.063,-44.5001 868.062,-48 878.062,-51.5001 878.063,-44.5001"/>
</g>
<!-- Node8 -->
<g id="node8" class="node"><title>Node8</title>
<g id="a_node8"><a xlink:href="../../d2/db8/class_menu.html#aff7a7627619921545f94547ab6135007" target="_top" xlink:title="Menu.addButton">
<polygon fill="white" stroke="black" points="1020,-38.5 1020,-57.5 1116,-57.5 1116,-38.5 1020,-38.5"/>
<text text-anchor="middle" x="1068" y="-45.5" font-family="Helvetica,sans-Serif" font-size="10.00">Menu.addButton</text>
</a>
</g>
</g>
<!-- Node7&#45;&gt;Node8 -->
<g id="edge7" class="edge"><title>Node7&#45;&gt;Node8</title>
<path fill="none" stroke="midnightblue" d="M994.539,-48C1002.8,-48 1011.38,-48 1019.61,-48"/>
<polygon fill="midnightblue" stroke="midnightblue" points="994.285,-44.5001 984.285,-48 994.285,-51.5001 994.285,-44.5001"/>
</g>
<!-- Node9 -->
<g id="node9" class="node"><title>Node9</title>
<g id="a_node9"><a xlink:href="../../d5/db1/class_game_over.html#abb505ac8c26999beff755f4c299370da" target="_top" xlink:title="GameOver.addAllButtons">
<polygon fill="white" stroke="black" points="1152.5,-57.5 1152.5,-76.5 1289.5,-76.5 1289.5,-57.5 1152.5,-57.5"/>
<text text-anchor="middle" x="1221" y="-64.5" font-family="Helvetica,sans-Serif" font-size="10.00">GameOver.addAllButtons</text>
</a>
</g>
</g>
<!-- Node8&#45;&gt;Node9 -->
<g id="edge8" class="edge"><title>Node8&#45;&gt;Node9</title>
<path fill="none" stroke="midnightblue" d="M1126.48,-55.2331C1134.94,-56.2966 1143.71,-57.4005 1152.34,-58.4869"/>
<polygon fill="midnightblue" stroke="midnightblue" points="1126.72,-51.7355 1116.36,-53.9596 1125.85,-58.6807 1126.72,-51.7355"/>
</g>
<!-- Node10 -->
<g id="node10" class="node"><title>Node10</title>
<g id="a_node10"><a xlink:href="../../d2/db8/class_menu.html#a461e62e606af2391013ce3aaf92a8cc7" target="_top" xlink:title="Menu.addAllButtons">
<polygon fill="white" stroke="black" points="1164.5,-19.5 1164.5,-38.5 1277.5,-38.5 1277.5,-19.5 1164.5,-19.5"/>
<text text-anchor="middle" x="1221" y="-26.5" font-family="Helvetica,sans-Serif" font-size="10.00">Menu.addAllButtons</text>
</a>
</g>
</g>
<!-- Node8&#45;&gt;Node10 -->
<g id="edge9" class="edge"><title>Node8&#45;&gt;Node10</title>
<path fill="none" stroke="midnightblue" d="M1126.58,-40.7552C1138.96,-39.1965 1152.04,-37.5517 1164.35,-36.0024"/>
<polygon fill="midnightblue" stroke="midnightblue" points="1125.85,-37.3193 1116.36,-42.0404 1126.72,-44.2645 1125.85,-37.3193"/>
</g>
<!-- Node11 -->
<g id="node11" class="node"><title>Node11</title>
<g id="a_node11"><a xlink:href="../../d2/db8/class_menu.html#a3c99ad09e9f2f975c1a0d0597642651a" target="_top" xlink:title="Menu.init">
<polygon fill="white" stroke="black" points="1326,-19.5 1326,-38.5 1386,-38.5 1386,-19.5 1326,-19.5"/>
<text text-anchor="middle" x="1356" y="-26.5" font-family="Helvetica,sans-Serif" font-size="10.00">Menu.init</text>
</a>
</g>
</g>
<!-- Node10&#45;&gt;Node11 -->
<g id="edge10" class="edge"><title>Node10&#45;&gt;Node11</title>
<path fill="none" stroke="midnightblue" d="M1287.78,-29C1301.09,-29 1314.45,-29 1325.71,-29"/>
<polygon fill="midnightblue" stroke="midnightblue" points="1287.63,-25.5001 1277.63,-29 1287.63,-32.5001 1287.63,-25.5001"/>
</g>
<!-- Node12&#45;&gt;Node3 -->
<g id="edge12" class="edge"><title>Node12&#45;&gt;Node3</title>
<path fill="none" stroke="midnightblue" d="M767.639,-97.7111C753.705,-100.708 738.315,-103.505 724,-105 603.765,-117.553 572.288,-117.035 452,-105 433.445,-103.144 413.134,-99.2748 396.154,-95.5098"/>
<polygon fill="midnightblue" stroke="midnightblue" points="768.496,-101.106 777.492,-95.509 766.969,-94.2745 768.496,-101.106"/>
</g>
<!-- Node13&#45;&gt;Node6 -->
<g id="edge14" class="edge"><title>Node13&#45;&gt;Node6</title>
<path fill="none" stroke="midnightblue" d="M733.84,-48C743.236,-48 752.74,-48 761.759,-48"/>
<polygon fill="midnightblue" stroke="midnightblue" points="733.715,-44.5001 723.715,-48 733.715,-51.5001 733.715,-44.5001"/>
</g>
<!-- Node13&#45;&gt;Node12 -->
<g id="edge15" class="edge"><title>Node13&#45;&gt;Node12</title>
<path fill="none" stroke="midnightblue" d="M711.811,-60.1121C732.702,-65.4044 756.847,-71.5213 776.421,-76.4799"/>
<polygon fill="midnightblue" stroke="midnightblue" points="712.405,-56.652 701.851,-57.589 710.686,-63.4377 712.405,-56.652"/>
</g>
</g>
</svg>
