<?xml version="1.0" encoding="UTF-8" standalone="no"?>
<!DOCTYPE svg PUBLIC "-//W3C//DTD SVG 1.1//EN"
 "http://www.w3.org/Graphics/SVG/1.1/DTD/svg11.dtd">
<!-- Generated by graphviz version 2.36.0 (20140111.2315)
 -->
<!-- Title: Screen.showAndAnim Pages: 1 -->
<svg width="1348pt" height="105pt"
 viewBox="0.00 0.00 1348.00 104.57" xmlns="http://www.w3.org/2000/svg" xmlns:xlink="http://www.w3.org/1999/xlink">
<g id="graph0" class="graph" transform="scale(1 1) rotate(0) translate(4 100.569)">
<title>Screen.showAndAnim</title>
<polygon fill="white" stroke="none" points="-4,4 -4,-100.569 1344,-100.569 1344,4 -4,4"/>
<!-- Node1 -->
<g id="node1" class="node"><title>Node1</title>
<polygon fill="#bfbfbf" stroke="black" points="0.5,-39.0691 0.5,-58.0691 121.5,-58.0691 121.5,-39.0691 0.5,-39.0691"/>
<text text-anchor="middle" x="61" y="-46.0691" font-family="Helvetica,sans-Serif" font-size="10.00">Screen.showAndAnim</text>
</g>
<!-- Node2 -->
<g id="node2" class="node"><title>Node2</title>
<g id="a_node2"><a xlink:href="../../d2/db8/class_menu.html#ab6296880308728ced459f772430d025b" target="_top" xlink:title="Menu.createGame">
<polygon fill="white" stroke="black" points="718,-39.0691 718,-58.0691 824,-58.0691 824,-39.0691 718,-39.0691"/>
<text text-anchor="middle" x="771" y="-46.0691" font-family="Helvetica,sans-Serif" font-size="10.00">Menu.createGame</text>
</a>
</g>
</g>
<!-- Node1&#45;&gt;Node2 -->
<g id="edge1" class="edge"><title>Node1&#45;&gt;Node2</title>
<path fill="none" stroke="midnightblue" d="M131.933,-55.5092C192.683,-60.9368 283.066,-67.5691 362,-67.5691 362,-67.5691 362,-67.5691 516,-67.5691 585.868,-67.5691 666.247,-60.3316 717.548,-54.7904"/>
<polygon fill="midnightblue" stroke="midnightblue" points="131.97,-51.9983 121.695,-54.5808 131.338,-58.9697 131.97,-51.9983"/>
</g>
<!-- Node9 -->
<g id="node9" class="node"><title>Node9</title>
<g id="a_node9"><a xlink:href="../../d2/d3e/class_level1.html#ac56e75129bb2946c38cfcf43608f3f05" target="_top" xlink:title="Level1.goNextLevel">
<polygon fill="white" stroke="black" points="158,-20.0691 158,-39.0691 268,-39.0691 268,-20.0691 158,-20.0691"/>
<text text-anchor="middle" x="213" y="-27.0691" font-family="Helvetica,sans-Serif" font-size="10.00">Level1.goNextLevel</text>
</a>
</g>
</g>
<!-- Node1&#45;&gt;Node9 -->
<g id="edge8" class="edge"><title>Node1&#45;&gt;Node9</title>
<path fill="none" stroke="midnightblue" d="M131.879,-39.7178C140.597,-38.6134 149.409,-37.4973 157.838,-36.4296"/>
<polygon fill="midnightblue" stroke="midnightblue" points="131.196,-36.2762 121.715,-41.0052 132.076,-43.2207 131.196,-36.2762"/>
</g>
<!-- Node3 -->
<g id="node3" class="node"><title>Node3</title>
<g id="a_node3"><a xlink:href="../../d2/db8/class_menu.html#a53c8b072d5ec777994fed9ee76c98561" target="_top" xlink:title="Menu.handle">
<polygon fill="white" stroke="black" points="860,-39.0691 860,-58.0691 938,-58.0691 938,-39.0691 860,-39.0691"/>
<text text-anchor="middle" x="899" y="-46.0691" font-family="Helvetica,sans-Serif" font-size="10.00">Menu.handle</text>
</a>
</g>
</g>
<!-- Node2&#45;&gt;Node3 -->
<g id="edge2" class="edge"><title>Node2&#45;&gt;Node3</title>
<path fill="none" stroke="midnightblue" d="M834.466,-48.5691C843.13,-48.5691 851.808,-48.5691 859.843,-48.5691"/>
<polygon fill="midnightblue" stroke="midnightblue" points="834.341,-45.0692 824.341,-48.5691 834.341,-52.0692 834.341,-45.0692"/>
</g>
<!-- Node4 -->
<g id="node4" class="node"><title>Node4</title>
<g id="a_node4"><a xlink:href="../../d2/db8/class_menu.html#aff7a7627619921545f94547ab6135007" target="_top" xlink:title="Menu.addButton">
<polygon fill="white" stroke="black" points="974,-39.0691 974,-58.0691 1070,-58.0691 1070,-39.0691 974,-39.0691"/>
<text text-anchor="middle" x="1022" y="-46.0691" font-family="Helvetica,sans-Serif" font-size="10.00">Menu.addButton</text>
</a>
</g>
</g>
<!-- Node3&#45;&gt;Node4 -->
<g id="edge3" class="edge"><title>Node3&#45;&gt;Node4</title>
<path fill="none" stroke="midnightblue" d="M948.539,-48.5691C956.803,-48.5691 965.377,-48.5691 973.612,-48.5691"/>
<polygon fill="midnightblue" stroke="midnightblue" points="948.285,-45.0692 938.285,-48.5691 948.285,-52.0692 948.285,-45.0692"/>
</g>
<!-- Node5 -->
<g id="node5" class="node"><title>Node5</title>
<g id="a_node5"><a xlink:href="../../dd/d7f/class_game_win.html#a0ebbfe299d7456f57ae3dbf3817b7f8d" target="_top" xlink:title="GameWin.addAllButtons">
<polygon fill="white" stroke="black" points="1109,-77.0691 1109,-96.0691 1241,-96.0691 1241,-77.0691 1109,-77.0691"/>
<text text-anchor="middle" x="1175" y="-84.0691" font-family="Helvetica,sans-Serif" font-size="10.00">GameWin.addAllButtons</text>
</a>
</g>
</g>
<!-- Node4&#45;&gt;Node5 -->
<g id="edge4" class="edge"><title>Node4&#45;&gt;Node5</title>
<path fill="none" stroke="midnightblue" d="M1070.84,-60.6091C1091.94,-65.9178 1116.38,-72.0678 1136.17,-77.049"/>
<polygon fill="midnightblue" stroke="midnightblue" points="1071.66,-57.2044 1061.1,-58.1581 1069.95,-63.9928 1071.66,-57.2044"/>
</g>
<!-- Node6 -->
<g id="node6" class="node"><title>Node6</title>
<g id="a_node6"><a xlink:href="../../d5/db1/class_game_over.html#abb505ac8c26999beff755f4c299370da" target="_top" xlink:title="GameOver.addAllButtons">
<polygon fill="white" stroke="black" points="1106.5,-39.0691 1106.5,-58.0691 1243.5,-58.0691 1243.5,-39.0691 1106.5,-39.0691"/>
<text text-anchor="middle" x="1175" y="-46.0691" font-family="Helvetica,sans-Serif" font-size="10.00">GameOver.addAllButtons</text>
</a>
</g>
</g>
<!-- Node4&#45;&gt;Node6 -->
<g id="edge5" class="edge"><title>Node4&#45;&gt;Node6</title>
<path fill="none" stroke="midnightblue" d="M1080.48,-48.5691C1088.94,-48.5691 1097.71,-48.5691 1106.34,-48.5691"/>
<polygon fill="midnightblue" stroke="midnightblue" points="1080.36,-45.0692 1070.36,-48.5691 1080.36,-52.0692 1080.36,-45.0692"/>
</g>
<!-- Node7 -->
<g id="node7" class="node"><title>Node7</title>
<g id="a_node7"><a xlink:href="../../d2/db8/class_menu.html#a461e62e606af2391013ce3aaf92a8cc7" target="_top" xlink:title="Menu.addAllButtons">
<polygon fill="white" stroke="black" points="1118.5,-1.06907 1118.5,-20.0691 1231.5,-20.0691 1231.5,-1.06907 1118.5,-1.06907"/>
<text text-anchor="middle" x="1175" y="-8.06907" font-family="Helvetica,sans-Serif" font-size="10.00">Menu.addAllButtons</text>
</a>
</g>
</g>
<!-- Node4&#45;&gt;Node7 -->
<g id="edge6" class="edge"><title>Node4&#45;&gt;Node7</title>
<path fill="none" stroke="midnightblue" d="M1070.84,-36.5291C1091.94,-31.2203 1116.38,-25.0703 1136.17,-20.0891"/>
<polygon fill="midnightblue" stroke="midnightblue" points="1069.95,-33.1453 1061.1,-38.9801 1071.66,-39.9337 1069.95,-33.1453"/>
</g>
<!-- Node8 -->
<g id="node8" class="node"><title>Node8</title>
<g id="a_node8"><a xlink:href="../../d2/db8/class_menu.html#a3c99ad09e9f2f975c1a0d0597642651a" target="_top" xlink:title="Menu.init">
<polygon fill="white" stroke="black" points="1280,-1.06907 1280,-20.0691 1340,-20.0691 1340,-1.06907 1280,-1.06907"/>
<text text-anchor="middle" x="1310" y="-8.06907" font-family="Helvetica,sans-Serif" font-size="10.00">Menu.init</text>
</a>
</g>
</g>
<!-- Node7&#45;&gt;Node8 -->
<g id="edge7" class="edge"><title>Node7&#45;&gt;Node8</title>
<path fill="none" stroke="midnightblue" d="M1241.78,-10.5691C1255.09,-10.5691 1268.45,-10.5691 1279.71,-10.5691"/>
<polygon fill="midnightblue" stroke="midnightblue" points="1241.63,-7.06917 1231.63,-10.5691 1241.63,-14.0692 1241.63,-7.06917"/>
</g>
<!-- Node10 -->
<g id="node10" class="node"><title>Node10</title>
<g id="a_node10"><a xlink:href="../../d2/d3e/class_level1.html#a78a7fb5633734b1815af8db43db23a41" target="_top" xlink:title="Level1.updateSprites">
<polygon fill="white" stroke="black" points="304,-20.0691 304,-39.0691 422,-39.0691 422,-20.0691 304,-20.0691"/>
<text text-anchor="middle" x="363" y="-27.0691" font-family="Helvetica,sans-Serif" font-size="10.00">Level1.updateSprites</text>
</a>
</g>
</g>
<!-- Node9&#45;&gt;Node10 -->
<g id="edge9" class="edge"><title>Node9&#45;&gt;Node10</title>
<path fill="none" stroke="midnightblue" d="M278.429,-29.5691C286.85,-29.5691 295.44,-29.5691 303.752,-29.5691"/>
<polygon fill="midnightblue" stroke="midnightblue" points="278.269,-26.0692 268.269,-29.5691 278.269,-33.0692 278.269,-26.0692"/>
</g>
<!-- Node11 -->
<g id="node11" class="node"><title>Node11</title>
<g id="a_node11"><a xlink:href="../../d2/d3e/class_level1.html#a324da1e22a7a87fa4bb1859b5774bdba" target="_top" xlink:title="Level1.updateFrame">
<polygon fill="white" stroke="black" points="458,-20.0691 458,-39.0691 572,-39.0691 572,-20.0691 458,-20.0691"/>
<text text-anchor="middle" x="515" y="-27.0691" font-family="Helvetica,sans-Serif" font-size="10.00">Level1.updateFrame</text>
</a>
</g>
</g>
<!-- Node10&#45;&gt;Node11 -->
<g id="edge10" class="edge"><title>Node10&#45;&gt;Node11</title>
<path fill="none" stroke="midnightblue" d="M432.665,-29.5691C441.13,-29.5691 449.703,-29.5691 457.949,-29.5691"/>
<polygon fill="midnightblue" stroke="midnightblue" points="432.423,-26.0692 422.423,-29.5691 432.423,-33.0692 432.423,-26.0692"/>
</g>
<!-- Node12 -->
<g id="node12" class="node"><title>Node12</title>
<g id="a_node12"><a xlink:href="../../d2/d3e/class_level1.html#a0871325d07c0614d5f1f2df7df13b703" target="_top" xlink:title="Level1.start">
<polygon fill="white" stroke="black" points="608.5,-20.0691 608.5,-39.0691 681.5,-39.0691 681.5,-20.0691 608.5,-20.0691"/>
<text text-anchor="middle" x="645" y="-27.0691" font-family="Helvetica,sans-Serif" font-size="10.00">Level1.start</text>
</a>
</g>
</g>
<!-- Node11&#45;&gt;Node12 -->
<g id="edge11" class="edge"><title>Node11&#45;&gt;Node12</title>
<path fill="none" stroke="midnightblue" d="M582.221,-29.5691C591.159,-29.5691 600.039,-29.5691 608.163,-29.5691"/>
<polygon fill="midnightblue" stroke="midnightblue" points="582.143,-26.0692 572.143,-29.5691 582.143,-33.0692 582.143,-26.0692"/>
</g>
<!-- Node12&#45;&gt;Node2 -->
<g id="edge12" class="edge"><title>Node12&#45;&gt;Node2</title>
<path fill="none" stroke="midnightblue" d="M691.654,-36.5644C700.17,-37.8693 709.129,-39.2421 717.824,-40.5744"/>
<polygon fill="midnightblue" stroke="midnightblue" points="691.948,-33.0687 681.533,-35.0137 690.888,-39.988 691.948,-33.0687"/>
</g>
<!-- Node12&#45;&gt;Node9 -->
<g id="edge13" class="edge"><title>Node12&#45;&gt;Node9</title>
<path fill="none" stroke="midnightblue" d="M605.082,-17.3419C594.462,-14.5447 582.881,-11.9806 572,-10.5691 453.879,4.75411 422.467,1.79949 304,-10.5691 286.211,-12.4263 266.761,-16.2952 250.508,-20.06"/>
<polygon fill="midnightblue" stroke="midnightblue" points="604.344,-20.7692 614.915,-20.0652 606.212,-14.0231 604.344,-20.7692"/>
</g>
</g>
</svg>
