<?xml version="1.0" encoding="UTF-8" standalone="no"?>
<!DOCTYPE svg PUBLIC "-//W3C//DTD SVG 1.1//EN"
 "http://www.w3.org/Graphics/SVG/1.1/DTD/svg11.dtd">
<!-- Generated by graphviz version 2.36.0 (20140111.2315)
 -->
<!-- Title: Screen.init Pages: 1 -->
<svg width="1498pt" height="160pt"
 viewBox="0.00 0.00 1498.00 160.25" xmlns="http://www.w3.org/2000/svg" xmlns:xlink="http://www.w3.org/1999/xlink">
<g id="graph0" class="graph" transform="scale(1 1) rotate(0) translate(4 156.253)">
<title>Screen.init</title>
<polygon fill="white" stroke="none" points="-4,4 -4,-156.253 1494,-156.253 1494,4 -4,4"/>
<!-- Node1 -->
<g id="node1" class="node"><title>Node1</title>
<polygon fill="#bfbfbf" stroke="black" points="0,-57.5 0,-76.5 68,-76.5 68,-57.5 0,-57.5"/>
<text text-anchor="middle" x="34" y="-64.5" font-family="Helvetica,sans-Serif" font-size="10.00">Screen.init</text>
</g>
<!-- Node2 -->
<g id="node2" class="node"><title>Node2</title>
<g id="a_node2"><a xlink:href="../../d6/d21/class_screen.html#a5d9534b81b96cfc0a00009dea6be6c09" target="_top" xlink:title="Screen.showScreen">
<polygon fill="white" stroke="black" points="104.5,-57.5 104.5,-76.5 215.5,-76.5 215.5,-57.5 104.5,-57.5"/>
<text text-anchor="middle" x="160" y="-64.5" font-family="Helvetica,sans-Serif" font-size="10.00">Screen.showScreen</text>
</a>
</g>
</g>
<!-- Node1&#45;&gt;Node2 -->
<g id="edge1" class="edge"><title>Node1&#45;&gt;Node2</title>
<path fill="none" stroke="midnightblue" d="M78.4324,-67C86.7338,-67 95.5245,-67 104.13,-67"/>
<polygon fill="midnightblue" stroke="midnightblue" points="78.2298,-63.5001 68.2297,-67 78.2297,-70.5001 78.2298,-63.5001"/>
</g>
<!-- Node3 -->
<g id="node3" class="node"><title>Node3</title>
<g id="a_node3"><a xlink:href="../../d2/d3e/class_level1.html#a5e6976ef755d0e678034870e374ee4ca" target="_top" xlink:title="Level1.goGameOver">
<polygon fill="white" stroke="black" points="252,-114.5 252,-133.5 366,-133.5 366,-114.5 252,-114.5"/>
<text text-anchor="middle" x="309" y="-121.5" font-family="Helvetica,sans-Serif" font-size="10.00">Level1.goGameOver</text>
</a>
</g>
</g>
<!-- Node2&#45;&gt;Node3 -->
<g id="edge2" class="edge"><title>Node2&#45;&gt;Node3</title>
<path fill="none" stroke="midnightblue" d="M195.05,-80.203C222.041,-90.669 259.119,-105.046 283.315,-114.428"/>
<polygon fill="midnightblue" stroke="midnightblue" points="196.193,-76.8926 185.604,-76.5405 193.663,-83.4191 196.193,-76.8926"/>
</g>
<!-- Node15 -->
<g id="node15" class="node"><title>Node15</title>
<g id="a_node15"><a xlink:href="../../d0/dc8/class_level2.html#a5f48ec87e567f2e4994668ba29ac4266" target="_top" xlink:title="Level2.goNextLevel">
<polygon fill="white" stroke="black" points="254,-38.5 254,-57.5 364,-57.5 364,-38.5 254,-38.5"/>
<text text-anchor="middle" x="309" y="-45.5" font-family="Helvetica,sans-Serif" font-size="10.00">Level2.goNextLevel</text>
</a>
</g>
</g>
<!-- Node2&#45;&gt;Node15 -->
<g id="edge15" class="edge"><title>Node2&#45;&gt;Node15</title>
<path fill="none" stroke="midnightblue" d="M225.758,-58.63C235.087,-57.4241 244.608,-56.1935 253.706,-55.0175"/>
<polygon fill="midnightblue" stroke="midnightblue" points="225.206,-55.172 215.737,-59.9251 226.104,-62.1143 225.206,-55.172"/>
</g>
<!-- Node16 -->
<g id="node16" class="node"><title>Node16</title>
<g id="a_node16"><a xlink:href="../../d0/d4b/class_main.html#a7595d13c514a02c35aca322dd91d2063" target="_top" xlink:title="Main.start">
<polygon fill="white" stroke="black" points="276.5,-0.5 276.5,-19.5 341.5,-19.5 341.5,-0.5 276.5,-0.5"/>
<text text-anchor="middle" x="309" y="-7.5" font-family="Helvetica,sans-Serif" font-size="10.00">Main.start</text>
</a>
</g>
</g>
<!-- Node2&#45;&gt;Node16 -->
<g id="edge16" class="edge"><title>Node2&#45;&gt;Node16</title>
<path fill="none" stroke="midnightblue" d="M192.56,-53.1956C209.974,-45.7371 232.052,-36.5388 252,-29 260.547,-25.7698 269.92,-22.4891 278.511,-19.5835"/>
<polygon fill="midnightblue" stroke="midnightblue" points="190.695,-50.188 182.897,-57.3603 193.466,-56.6163 190.695,-50.188"/>
</g>
<!-- Node17 -->
<g id="node17" class="node"><title>Node17</title>
<g id="a_node17"><a xlink:href="../../d6/d21/class_screen.html#a5d40342bbe33c27c9e0e24bd8709d1f6" target="_top" xlink:title="Screen.showAndAnim">
<polygon fill="white" stroke="black" points="706.5,-76.5 706.5,-95.5 827.5,-95.5 827.5,-76.5 706.5,-76.5"/>
<text text-anchor="middle" x="767" y="-83.5" font-family="Helvetica,sans-Serif" font-size="10.00">Screen.showAndAnim</text>
</a>
</g>
</g>
<!-- Node2&#45;&gt;Node17 -->
<g id="edge17" class="edge"><title>Node2&#45;&gt;Node17</title>
<path fill="none" stroke="midnightblue" d="M226.097,-69.0444C344.302,-72.7566 592.517,-80.5518 706.486,-84.131"/>
<polygon fill="midnightblue" stroke="midnightblue" points="225.862,-65.5353 215.757,-68.7196 225.642,-72.5319 225.862,-65.5353"/>
</g>
<!-- Node4 -->
<g id="node4" class="node"><title>Node4</title>
<g id="a_node4"><a xlink:href="../../d2/d3e/class_level1.html#a78a7fb5633734b1815af8db43db23a41" target="_top" xlink:title="Level1.updateSprites">
<polygon fill="white" stroke="black" points="402,-114.5 402,-133.5 520,-133.5 520,-114.5 402,-114.5"/>
<text text-anchor="middle" x="461" y="-121.5" font-family="Helvetica,sans-Serif" font-size="10.00">Level1.updateSprites</text>
</a>
</g>
</g>
<!-- Node3&#45;&gt;Node4 -->
<g id="edge3" class="edge"><title>Node3&#45;&gt;Node4</title>
<path fill="none" stroke="midnightblue" d="M376.505,-124C384.971,-124 393.583,-124 401.902,-124"/>
<polygon fill="midnightblue" stroke="midnightblue" points="376.281,-120.5 366.281,-124 376.281,-127.5 376.281,-120.5"/>
</g>
<!-- Node5 -->
<g id="node5" class="node"><title>Node5</title>
<g id="a_node5"><a xlink:href="../../d2/d3e/class_level1.html#a324da1e22a7a87fa4bb1859b5774bdba" target="_top" xlink:title="Level1.updateFrame">
<polygon fill="white" stroke="black" points="556,-114.5 556,-133.5 670,-133.5 670,-114.5 556,-114.5"/>
<text text-anchor="middle" x="613" y="-121.5" font-family="Helvetica,sans-Serif" font-size="10.00">Level1.updateFrame</text>
</a>
</g>
</g>
<!-- Node4&#45;&gt;Node5 -->
<g id="edge4" class="edge"><title>Node4&#45;&gt;Node5</title>
<path fill="none" stroke="midnightblue" d="M530.665,-124C539.13,-124 547.703,-124 555.949,-124"/>
<polygon fill="midnightblue" stroke="midnightblue" points="530.423,-120.5 520.423,-124 530.423,-127.5 530.423,-120.5"/>
</g>
<!-- Node6 -->
<g id="node6" class="node"><title>Node6</title>
<g id="a_node6"><a xlink:href="../../d2/d3e/class_level1.html#a0871325d07c0614d5f1f2df7df13b703" target="_top" xlink:title="Level1.start">
<polygon fill="white" stroke="black" points="730.5,-114.5 730.5,-133.5 803.5,-133.5 803.5,-114.5 730.5,-114.5"/>
<text text-anchor="middle" x="767" y="-121.5" font-family="Helvetica,sans-Serif" font-size="10.00">Level1.start</text>
</a>
</g>
</g>
<!-- Node5&#45;&gt;Node6 -->
<g id="edge5" class="edge"><title>Node5&#45;&gt;Node6</title>
<path fill="none" stroke="midnightblue" d="M680.207,-124C697.44,-124 715.356,-124 730.331,-124"/>
<polygon fill="midnightblue" stroke="midnightblue" points="680.167,-120.5 670.167,-124 680.167,-127.5 680.167,-120.5"/>
</g>
<!-- Node7 -->
<g id="node7" class="node"><title>Node7</title>
<g id="a_node7"><a xlink:href="../../d2/db8/class_menu.html#ab6296880308728ced459f772430d025b" target="_top" xlink:title="Menu.createGame">
<polygon fill="white" stroke="black" points="866,-76.5 866,-95.5 972,-95.5 972,-76.5 866,-76.5"/>
<text text-anchor="middle" x="919" y="-83.5" font-family="Helvetica,sans-Serif" font-size="10.00">Menu.createGame</text>
</a>
</g>
</g>
<!-- Node6&#45;&gt;Node7 -->
<g id="edge6" class="edge"><title>Node6&#45;&gt;Node7</title>
<path fill="none" stroke="midnightblue" d="M813.393,-112.5C834.795,-107.079 860.029,-100.686 880.35,-95.538"/>
<polygon fill="midnightblue" stroke="midnightblue" points="812.382,-109.146 803.548,-114.995 814.101,-115.932 812.382,-109.146"/>
</g>
<!-- Node14 -->
<g id="node14" class="node"><title>Node14</title>
<g id="a_node14"><a xlink:href="../../d2/d3e/class_level1.html#ac56e75129bb2946c38cfcf43608f3f05" target="_top" xlink:title="Level1.goNextLevel">
<polygon fill="white" stroke="black" points="864,-114.5 864,-133.5 974,-133.5 974,-114.5 864,-114.5"/>
<text text-anchor="middle" x="919" y="-121.5" font-family="Helvetica,sans-Serif" font-size="10.00">Level1.goNextLevel</text>
</a>
</g>
</g>
<!-- Node6&#45;&gt;Node14 -->
<g id="edge13" class="edge"><title>Node6&#45;&gt;Node14</title>
<path fill="none" stroke="midnightblue" d="M813.636,-124C829.5,-124 847.446,-124 863.926,-124"/>
<polygon fill="midnightblue" stroke="midnightblue" points="813.548,-120.5 803.548,-124 813.548,-127.5 813.548,-120.5"/>
</g>
<!-- Node8 -->
<g id="node8" class="node"><title>Node8</title>
<g id="a_node8"><a xlink:href="../../d2/db8/class_menu.html#a53c8b072d5ec777994fed9ee76c98561" target="_top" xlink:title="Menu.handle">
<polygon fill="white" stroke="black" points="1010,-76.5 1010,-95.5 1088,-95.5 1088,-76.5 1010,-76.5"/>
<text text-anchor="middle" x="1049" y="-83.5" font-family="Helvetica,sans-Serif" font-size="10.00">Menu.handle</text>
</a>
</g>
</g>
<!-- Node7&#45;&gt;Node8 -->
<g id="edge7" class="edge"><title>Node7&#45;&gt;Node8</title>
<path fill="none" stroke="midnightblue" d="M982.198,-86C991.592,-86 1001.04,-86 1009.73,-86"/>
<polygon fill="midnightblue" stroke="midnightblue" points="982.063,-82.5001 972.062,-86 982.062,-89.5001 982.063,-82.5001"/>
</g>
<!-- Node9 -->
<g id="node9" class="node"><title>Node9</title>
<g id="a_node9"><a xlink:href="../../d2/db8/class_menu.html#aff7a7627619921545f94547ab6135007" target="_top" xlink:title="Menu.addButton">
<polygon fill="white" stroke="black" points="1124,-76.5 1124,-95.5 1220,-95.5 1220,-76.5 1124,-76.5"/>
<text text-anchor="middle" x="1172" y="-83.5" font-family="Helvetica,sans-Serif" font-size="10.00">Menu.addButton</text>
</a>
</g>
</g>
<!-- Node8&#45;&gt;Node9 -->
<g id="edge8" class="edge"><title>Node8&#45;&gt;Node9</title>
<path fill="none" stroke="midnightblue" d="M1098.54,-86C1106.8,-86 1115.38,-86 1123.61,-86"/>
<polygon fill="midnightblue" stroke="midnightblue" points="1098.29,-82.5001 1088.29,-86 1098.29,-89.5001 1098.29,-82.5001"/>
</g>
<!-- Node10 -->
<g id="node10" class="node"><title>Node10</title>
<g id="a_node10"><a xlink:href="../../dd/d7f/class_game_win.html#a0ebbfe299d7456f57ae3dbf3817b7f8d" target="_top" xlink:title="GameWin.addAllButtons">
<polygon fill="white" stroke="black" points="1259,-114.5 1259,-133.5 1391,-133.5 1391,-114.5 1259,-114.5"/>
<text text-anchor="middle" x="1325" y="-121.5" font-family="Helvetica,sans-Serif" font-size="10.00">GameWin.addAllButtons</text>
</a>
</g>
</g>
<!-- Node9&#45;&gt;Node10 -->
<g id="edge9" class="edge"><title>Node9&#45;&gt;Node10</title>
<path fill="none" stroke="midnightblue" d="M1220.84,-98.04C1241.94,-103.349 1266.38,-109.499 1286.17,-114.48"/>
<polygon fill="midnightblue" stroke="midnightblue" points="1221.66,-94.6354 1211.1,-95.589 1219.95,-101.424 1221.66,-94.6354"/>
</g>
<!-- Node11 -->
<g id="node11" class="node"><title>Node11</title>
<g id="a_node11"><a xlink:href="../../d5/db1/class_game_over.html#abb505ac8c26999beff755f4c299370da" target="_top" xlink:title="GameOver.addAllButtons">
<polygon fill="white" stroke="black" points="1256.5,-76.5 1256.5,-95.5 1393.5,-95.5 1393.5,-76.5 1256.5,-76.5"/>
<text text-anchor="middle" x="1325" y="-83.5" font-family="Helvetica,sans-Serif" font-size="10.00">GameOver.addAllButtons</text>
</a>
</g>
</g>
<!-- Node9&#45;&gt;Node11 -->
<g id="edge10" class="edge"><title>Node9&#45;&gt;Node11</title>
<path fill="none" stroke="midnightblue" d="M1230.48,-86C1238.94,-86 1247.71,-86 1256.34,-86"/>
<polygon fill="midnightblue" stroke="midnightblue" points="1230.36,-82.5001 1220.36,-86 1230.36,-89.5001 1230.36,-82.5001"/>
</g>
<!-- Node12 -->
<g id="node12" class="node"><title>Node12</title>
<g id="a_node12"><a xlink:href="../../d2/db8/class_menu.html#a461e62e606af2391013ce3aaf92a8cc7" target="_top" xlink:title="Menu.addAllButtons">
<polygon fill="white" stroke="black" points="1268.5,-38.5 1268.5,-57.5 1381.5,-57.5 1381.5,-38.5 1268.5,-38.5"/>
<text text-anchor="middle" x="1325" y="-45.5" font-family="Helvetica,sans-Serif" font-size="10.00">Menu.addAllButtons</text>
</a>
</g>
</g>
<!-- Node9&#45;&gt;Node12 -->
<g id="edge11" class="edge"><title>Node9&#45;&gt;Node12</title>
<path fill="none" stroke="midnightblue" d="M1220.84,-73.96C1241.94,-68.6512 1266.38,-62.5012 1286.17,-57.5201"/>
<polygon fill="midnightblue" stroke="midnightblue" points="1219.95,-70.5763 1211.1,-76.411 1221.66,-77.3646 1219.95,-70.5763"/>
</g>
<!-- Node13 -->
<g id="node13" class="node"><title>Node13</title>
<g id="a_node13"><a xlink:href="../../d2/db8/class_menu.html#a3c99ad09e9f2f975c1a0d0597642651a" target="_top" xlink:title="Menu.init">
<polygon fill="white" stroke="black" points="1430,-38.5 1430,-57.5 1490,-57.5 1490,-38.5 1430,-38.5"/>
<text text-anchor="middle" x="1460" y="-45.5" font-family="Helvetica,sans-Serif" font-size="10.00">Menu.init</text>
</a>
</g>
</g>
<!-- Node12&#45;&gt;Node13 -->
<g id="edge12" class="edge"><title>Node12&#45;&gt;Node13</title>
<path fill="none" stroke="midnightblue" d="M1391.78,-48C1405.09,-48 1418.45,-48 1429.71,-48"/>
<polygon fill="midnightblue" stroke="midnightblue" points="1391.63,-44.5001 1381.63,-48 1391.63,-51.5001 1391.63,-44.5001"/>
</g>
<!-- Node14&#45;&gt;Node4 -->
<g id="edge14" class="edge"><title>Node14&#45;&gt;Node4</title>
<path fill="none" stroke="midnightblue" d="M871.639,-135.711C857.705,-138.708 842.315,-141.505 828,-143 707.765,-155.553 676.288,-155.035 556,-143 537.445,-141.144 517.134,-137.275 500.154,-133.51"/>
<polygon fill="midnightblue" stroke="midnightblue" points="872.496,-139.106 881.492,-133.509 870.969,-132.275 872.496,-139.106"/>
</g>
<!-- Node17&#45;&gt;Node7 -->
<g id="edge19" class="edge"><title>Node17&#45;&gt;Node7</title>
<path fill="none" stroke="midnightblue" d="M837.84,-86C847.236,-86 856.74,-86 865.759,-86"/>
<polygon fill="midnightblue" stroke="midnightblue" points="837.715,-82.5001 827.715,-86 837.715,-89.5001 837.715,-82.5001"/>
</g>
<!-- Node17&#45;&gt;Node14 -->
<g id="edge18" class="edge"><title>Node17&#45;&gt;Node14</title>
<path fill="none" stroke="midnightblue" d="M815.811,-98.1121C836.702,-103.404 860.847,-109.521 880.421,-114.48"/>
<polygon fill="midnightblue" stroke="midnightblue" points="816.405,-94.652 805.851,-95.589 814.686,-101.438 816.405,-94.652"/>
</g>
</g>
</svg>
