<?xml version="1.0" encoding="UTF-8" standalone="no"?>
<!DOCTYPE svg PUBLIC "-//W3C//DTD SVG 1.1//EN"
 "http://www.w3.org/Graphics/SVG/1.1/DTD/svg11.dtd">
<!-- Generated by graphviz version 2.36.0 (20140111.2315)
 -->
<!-- Title: Screen.startAnim Pages: 1 -->
<!--zoomable 86 -->
<svg id="main" version="1.1" xmlns="http://www.w3.org/2000/svg" xmlns:xlink="http://www.w3.org/1999/xlink" xml:space="preserve" onload="init(evt)">
<style type="text/css"><![CDATA[
.edge:hover path { stroke: red; }
.edge:hover polygon { stroke: red; fill: red; }
]]></style>
<script type="text/javascript"><![CDATA[
var edges = document.getElementsByTagName('g');
if (edges && edges.length) {
  for (var i=0;i<edges.length;i++) {
    if (edges[i].id.substr(0,4)=='edge') {
      edges[i].setAttribute('class','edge');
    }
  }
}
]]></script>
        <defs>
                <circle id="rim" cx="0" cy="0" r="7"/>
                <circle id="rim2" cx="0" cy="0" r="3.5"/>
                <g id="zoomPlus">
                        <use xlink:href="#rim" fill="#404040">
                                <set attributeName="fill" to="#808080" begin="zoomplus.mouseover" end="zoomplus.mouseout"/>
                        </use>
                        <path d="M-4,0h8M0,-4v8" fill="none" stroke="white" stroke-width="1.5" pointer-events="none"/>
                </g>
                <g id="zoomMin">
                        <use xlink:href="#rim" fill="#404040">
                                <set attributeName="fill" to="#808080" begin="zoomminus.mouseover" end="zoomminus.mouseout"/>
                        </use>
                        <path d="M-4,0h8" fill="none" stroke="white" stroke-width="1.5" pointer-events="none"/>
                </g>
                <g id="dirArrow">
                        <path fill="none" stroke="white" stroke-width="1.5" d="M0,-3.0v7 M-2.5,-0.5L0,-3.0L2.5,-0.5"/>
                </g>
               <g id="resetDef">
                       <use xlink:href="#rim2" fill="#404040">
                               <set attributeName="fill" to="#808080" begin="reset.mouseover" end="reset.mouseout"/>
                       </use>
               </g>
        </defs>

<script type="text/javascript">
var viewWidth = 1486;
var viewHeight = 86;
var sectionId = 'dynsection-7';
</script>
<script xlink:href="../../svgpan.js"/>
<svg id="graph" class="graph">
<g id="viewport">
<title>Screen.startAnim</title>
<polygon fill="white" stroke="none" points="-4,4 -4,-81.5691 1482,-81.5691 1482,4 -4,4"/>
<!-- Node1 -->
<g id="node1" class="node"><title>Node1</title>
<polygon fill="#bfbfbf" stroke="black" points="0.5,-39.0691 0.5,-58.0691 101.5,-58.0691 101.5,-39.0691 0.5,-39.0691"/>
<text text-anchor="middle" x="51" y="-46.0691" font-family="Helvetica,sans-Serif" font-size="10.00">Screen.startAnim</text>
</g>
<!-- Node2 -->
<g id="node2" class="node"><title>Node2</title>
<g id="a_node2"><a xlink:href="../../d6/d21/class_screen.html#a5d40342bbe33c27c9e0e24bd8709d1f6" target="_top" xlink:title="Screen.showAndAnim">
<polygon fill="white" stroke="black" points="138.5,-39.0691 138.5,-58.0691 259.5,-58.0691 259.5,-39.0691 138.5,-39.0691"/>
<text text-anchor="middle" x="199" y="-46.0691" font-family="Helvetica,sans-Serif" font-size="10.00">Screen.showAndAnim</text>
</a>
</g>
</g>
<!-- Node1&#45;&gt;Node2 -->
<g id="edge1" class="edge"><title>Node1&#45;&gt;Node2</title>
<path fill="none" stroke="midnightblue" d="M111.914,-48.5691C120.626,-48.5691 129.595,-48.5691 138.302,-48.5691"/>
<polygon fill="midnightblue" stroke="midnightblue" points="111.837,-45.0692 101.837,-48.5691 111.837,-52.0692 111.837,-45.0692"/>
</g>
<!-- Node3 -->
<g id="node3" class="node"><title>Node3</title>
<g id="a_node3"><a xlink:href="../../d2/db8/class_menu.html#ab6296880308728ced459f772430d025b" target="_top" xlink:title="Menu.createGame">
<polygon fill="white" stroke="black" points="856,-39.0691 856,-58.0691 962,-58.0691 962,-39.0691 856,-39.0691"/>
<text text-anchor="middle" x="909" y="-46.0691" font-family="Helvetica,sans-Serif" font-size="10.00">Menu.createGame</text>
</a>
</g>
</g>
<!-- Node2&#45;&gt;Node3 -->
<g id="edge2" class="edge"><title>Node2&#45;&gt;Node3</title>
<path fill="none" stroke="midnightblue" d="M269.933,-55.5092C330.683,-60.9368 421.066,-67.5691 500,-67.5691 500,-67.5691 500,-67.5691 654,-67.5691 723.868,-67.5691 804.247,-60.3316 855.548,-54.7904"/>
<polygon fill="midnightblue" stroke="midnightblue" points="269.97,-51.9983 259.695,-54.5808 269.338,-58.9697 269.97,-51.9983"/>
</g>
<!-- Node9 -->
<g id="node9" class="node"><title>Node9</title>
<g id="a_node9"><a xlink:href="../../d2/d3e/class_level1.html#ac56e75129bb2946c38cfcf43608f3f05" target="_top" xlink:title="Level1.goNextLevel">
<polygon fill="white" stroke="black" points="296,-20.0691 296,-39.0691 406,-39.0691 406,-20.0691 296,-20.0691"/>
<text text-anchor="middle" x="351" y="-27.0691" font-family="Helvetica,sans-Serif" font-size="10.00">Level1.goNextLevel</text>
</a>
</g>
</g>
<!-- Node2&#45;&gt;Node9 -->
<g id="edge8" class="edge"><title>Node2&#45;&gt;Node9</title>
<path fill="none" stroke="midnightblue" d="M269.879,-39.7178C278.597,-38.6134 287.409,-37.4973 295.838,-36.4296"/>
<polygon fill="midnightblue" stroke="midnightblue" points="269.196,-36.2762 259.715,-41.0052 270.076,-43.2207 269.196,-36.2762"/>
</g>
<!-- Node4 -->
<g id="node4" class="node"><title>Node4</title>
<g id="a_node4"><a xlink:href="../../d2/db8/class_menu.html#a53c8b072d5ec777994fed9ee76c98561" target="_top" xlink:title="Menu.handle">
<polygon fill="white" stroke="black" points="998,-39.0691 998,-58.0691 1076,-58.0691 1076,-39.0691 998,-39.0691"/>
<text text-anchor="middle" x="1037" y="-46.0691" font-family="Helvetica,sans-Serif" font-size="10.00">Menu.handle</text>
</a>
</g>
</g>
<!-- Node3&#45;&gt;Node4 -->
<g id="edge3" class="edge"><title>Node3&#45;&gt;Node4</title>
<path fill="none" stroke="midnightblue" d="M972.466,-48.5691C981.13,-48.5691 989.808,-48.5691 997.843,-48.5691"/>
<polygon fill="midnightblue" stroke="midnightblue" points="972.341,-45.0692 962.341,-48.5691 972.341,-52.0692 972.341,-45.0692"/>
</g>
<!-- Node5 -->
<g id="node5" class="node"><title>Node5</title>
<g id="a_node5"><a xlink:href="../../d2/db8/class_menu.html#aff7a7627619921545f94547ab6135007" target="_top" xlink:title="Menu.addButton">
<polygon fill="white" stroke="black" points="1112,-39.0691 1112,-58.0691 1208,-58.0691 1208,-39.0691 1112,-39.0691"/>
<text text-anchor="middle" x="1160" y="-46.0691" font-family="Helvetica,sans-Serif" font-size="10.00">Menu.addButton</text>
</a>
</g>
</g>
<!-- Node4&#45;&gt;Node5 -->
<g id="edge4" class="edge"><title>Node4&#45;&gt;Node5</title>
<path fill="none" stroke="midnightblue" d="M1086.54,-48.5691C1094.8,-48.5691 1103.38,-48.5691 1111.61,-48.5691"/>
<polygon fill="midnightblue" stroke="midnightblue" points="1086.29,-45.0692 1076.29,-48.5691 1086.29,-52.0692 1086.29,-45.0692"/>
</g>
<!-- Node6 -->
<g id="node6" class="node"><title>Node6</title>
<g id="a_node6"><a xlink:href="../../d5/db1/class_game_over.html#abb505ac8c26999beff755f4c299370da" target="_top" xlink:title="GameOver.addAllButtons">
<polygon fill="white" stroke="black" points="1244.5,-58.0691 1244.5,-77.0691 1381.5,-77.0691 1381.5,-58.0691 1244.5,-58.0691"/>
<text text-anchor="middle" x="1313" y="-65.0691" font-family="Helvetica,sans-Serif" font-size="10.00">GameOver.addAllButtons</text>
</a>
</g>
</g>
<!-- Node5&#45;&gt;Node6 -->
<g id="edge5" class="edge"><title>Node5&#45;&gt;Node6</title>
<path fill="none" stroke="midnightblue" d="M1218.48,-55.8021C1226.94,-56.8657 1235.71,-57.9695 1244.34,-59.056"/>
<polygon fill="midnightblue" stroke="midnightblue" points="1218.72,-52.3046 1208.36,-54.5287 1217.85,-59.2498 1218.72,-52.3046"/>
</g>
<!-- Node7 -->
<g id="node7" class="node"><title>Node7</title>
<g id="a_node7"><a xlink:href="../../d2/db8/class_menu.html#a461e62e606af2391013ce3aaf92a8cc7" target="_top" xlink:title="Menu.addAllButtons">
<polygon fill="white" stroke="black" points="1256.5,-20.0691 1256.5,-39.0691 1369.5,-39.0691 1369.5,-20.0691 1256.5,-20.0691"/>
<text text-anchor="middle" x="1313" y="-27.0691" font-family="Helvetica,sans-Serif" font-size="10.00">Menu.addAllButtons</text>
</a>
</g>
</g>
<!-- Node5&#45;&gt;Node7 -->
<g id="edge6" class="edge"><title>Node5&#45;&gt;Node7</title>
<path fill="none" stroke="midnightblue" d="M1218.58,-41.3243C1230.96,-39.7655 1244.04,-38.1208 1256.35,-36.5714"/>
<polygon fill="midnightblue" stroke="midnightblue" points="1217.85,-37.8883 1208.36,-42.6095 1218.72,-44.8336 1217.85,-37.8883"/>
</g>
<!-- Node8 -->
<g id="node8" class="node"><title>Node8</title>
<g id="a_node8"><a xlink:href="../../d2/db8/class_menu.html#a3c99ad09e9f2f975c1a0d0597642651a" target="_top" xlink:title="Menu.init">
<polygon fill="white" stroke="black" points="1418,-20.0691 1418,-39.0691 1478,-39.0691 1478,-20.0691 1418,-20.0691"/>
<text text-anchor="middle" x="1448" y="-27.0691" font-family="Helvetica,sans-Serif" font-size="10.00">Menu.init</text>
</a>
</g>
</g>
<!-- Node7&#45;&gt;Node8 -->
<g id="edge7" class="edge"><title>Node7&#45;&gt;Node8</title>
<path fill="none" stroke="midnightblue" d="M1379.78,-29.5691C1393.09,-29.5691 1406.45,-29.5691 1417.71,-29.5691"/>
<polygon fill="midnightblue" stroke="midnightblue" points="1379.63,-26.0692 1369.63,-29.5691 1379.63,-33.0692 1379.63,-26.0692"/>
</g>
<!-- Node10 -->
<g id="node10" class="node"><title>Node10</title>
<g id="a_node10"><a xlink:href="../../d2/d3e/class_level1.html#a78a7fb5633734b1815af8db43db23a41" target="_top" xlink:title="Level1.updateSprites">
<polygon fill="white" stroke="black" points="442,-20.0691 442,-39.0691 560,-39.0691 560,-20.0691 442,-20.0691"/>
<text text-anchor="middle" x="501" y="-27.0691" font-family="Helvetica,sans-Serif" font-size="10.00">Level1.updateSprites</text>
</a>
</g>
</g>
<!-- Node9&#45;&gt;Node10 -->
<g id="edge9" class="edge"><title>Node9&#45;&gt;Node10</title>
<path fill="none" stroke="midnightblue" d="M416.429,-29.5691C424.85,-29.5691 433.44,-29.5691 441.752,-29.5691"/>
<polygon fill="midnightblue" stroke="midnightblue" points="416.269,-26.0692 406.269,-29.5691 416.269,-33.0692 416.269,-26.0692"/>
</g>
<!-- Node11 -->
<g id="node11" class="node"><title>Node11</title>
<g id="a_node11"><a xlink:href="../../d2/d3e/class_level1.html#a324da1e22a7a87fa4bb1859b5774bdba" target="_top" xlink:title="Level1.updateFrame">
<polygon fill="white" stroke="black" points="596,-20.0691 596,-39.0691 710,-39.0691 710,-20.0691 596,-20.0691"/>
<text text-anchor="middle" x="653" y="-27.0691" font-family="Helvetica,sans-Serif" font-size="10.00">Level1.updateFrame</text>
</a>
</g>
</g>
<!-- Node10&#45;&gt;Node11 -->
<g id="edge10" class="edge"><title>Node10&#45;&gt;Node11</title>
<path fill="none" stroke="midnightblue" d="M570.665,-29.5691C579.13,-29.5691 587.703,-29.5691 595.949,-29.5691"/>
<polygon fill="midnightblue" stroke="midnightblue" points="570.423,-26.0692 560.423,-29.5691 570.423,-33.0692 570.423,-26.0692"/>
</g>
<!-- Node12 -->
<g id="node12" class="node"><title>Node12</title>
<g id="a_node12"><a xlink:href="../../d2/d3e/class_level1.html#a0871325d07c0614d5f1f2df7df13b703" target="_top" xlink:title="Level1.start">
<polygon fill="white" stroke="black" points="746.5,-20.0691 746.5,-39.0691 819.5,-39.0691 819.5,-20.0691 746.5,-20.0691"/>
<text text-anchor="middle" x="783" y="-27.0691" font-family="Helvetica,sans-Serif" font-size="10.00">Level1.start</text>
</a>
</g>
</g>
<!-- Node11&#45;&gt;Node12 -->
<g id="edge11" class="edge"><title>Node11&#45;&gt;Node12</title>
<path fill="none" stroke="midnightblue" d="M720.221,-29.5691C729.159,-29.5691 738.039,-29.5691 746.163,-29.5691"/>
<polygon fill="midnightblue" stroke="midnightblue" points="720.143,-26.0692 710.143,-29.5691 720.143,-33.0692 720.143,-26.0692"/>
</g>
<!-- Node12&#45;&gt;Node3 -->
<g id="edge12" class="edge"><title>Node12&#45;&gt;Node3</title>
<path fill="none" stroke="midnightblue" d="M829.654,-36.5644C838.17,-37.8693 847.129,-39.2421 855.824,-40.5744"/>
<polygon fill="midnightblue" stroke="midnightblue" points="829.948,-33.0687 819.533,-35.0137 828.888,-39.988 829.948,-33.0687"/>
</g>
<!-- Node12&#45;&gt;Node9 -->
<g id="edge13" class="edge"><title>Node12&#45;&gt;Node9</title>
<path fill="none" stroke="midnightblue" d="M743.082,-17.3419C732.462,-14.5447 720.881,-11.9806 710,-10.5691 591.879,4.75411 560.467,1.79949 442,-10.5691 424.211,-12.4263 404.761,-16.2952 388.508,-20.06"/>
<polygon fill="midnightblue" stroke="midnightblue" points="742.344,-20.7692 752.915,-20.0652 744.212,-14.0231 742.344,-20.7692"/>
</g>
</g>
</svg>
        <g id="navigator" transform="translate(0 0)" fill="#404254">
                <rect fill="#f2f5e9" fill-opacity="0.5" stroke="#606060" stroke-width=".5" x="0" y="0" width="60" height="60"/>
                <use id="zoomplus" xlink:href="#zoomPlus" x="17" y="9" onmousedown="handleZoom(evt,'in')"/>
                <use id="zoomminus" xlink:href="#zoomMin" x="42" y="9" onmousedown="handleZoom(evt,'out')"/>
                <use id="reset" xlink:href="#resetDef" x="30" y="36" onmousedown="handleReset()"/>
                <g id="arrowUp" xlink:href="#dirArrow" transform="translate(30 24)" onmousedown="handlePan(0,-1)">
                  <use xlink:href="#rim" fill="#404040">
                        <set attributeName="fill" to="#808080" begin="arrowUp.mouseover" end="arrowUp.mouseout"/>
                  </use>
                  <path fill="none" stroke="white" stroke-width="1.5" d="M0,-3.0v7 M-2.5,-0.5L0,-3.0L2.5,-0.5"/>
                </g>
                <g id="arrowRight" xlink:href="#dirArrow" transform="rotate(90) translate(36 -43)" onmousedown="handlePan(1,0)">
                  <use xlink:href="#rim" fill="#404040">
                        <set attributeName="fill" to="#808080" begin="arrowRight.mouseover" end="arrowRight.mouseout"/>
                  </use>
                  <path fill="none" stroke="white" stroke-width="1.5" d="M0,-3.0v7 M-2.5,-0.5L0,-3.0L2.5,-0.5"/>
                </g>
                <g id="arrowDown" xlink:href="#dirArrow" transform="rotate(180) translate(-30 -48)" onmousedown="handlePan(0,1)">
                  <use xlink:href="#rim" fill="#404040">
                        <set attributeName="fill" to="#808080" begin="arrowDown.mouseover" end="arrowDown.mouseout"/>
                  </use>
                  <path fill="none" stroke="white" stroke-width="1.5" d="M0,-3.0v7 M-2.5,-0.5L0,-3.0L2.5,-0.5"/>
                </g>
                <g id="arrowLeft" xlink:href="#dirArrow" transform="rotate(270) translate(-36 17)" onmousedown="handlePan(-1,0)">
                  <use xlink:href="#rim" fill="#404040">
                        <set attributeName="fill" to="#808080" begin="arrowLeft.mouseover" end="arrowLeft.mouseout"/>
                  </use>
                  <path fill="none" stroke="white" stroke-width="1.5" d="M0,-3.0v7 M-2.5,-0.5L0,-3.0L2.5,-0.5"/>
                </g>
        </g>
        <svg viewBox="0 0 15 15" width="100%" height="30px" preserveAspectRatio="xMaxYMin meet">
         <g id="arrow_out" transform="scale(0.3 0.3)">
          <a xlink:href="class_screen_a601576a0d49770789b2eb08328f09c53_icgraph_org.svg" target="_base">
           <rect id="button" ry="5" rx="5" y="6" x="6" height="38" width="38"
                fill="#f2f5e9" fill-opacity="0.5" stroke="#606060" stroke-width="1.0"/>
           <path id="arrow"
             d="M 11.500037,31.436501 C 11.940474,20.09759 22.043105,11.32322 32.158766,21.979434 L 37.068811,17.246167 C 37.068811,17.246167 37.088388,32 37.088388,32 L 22.160133,31.978069 C 22.160133,31.978069 26.997745,27.140456 26.997745,27.140456 C 18.528582,18.264221 13.291696,25.230495 11.500037,31.436501 z"
             style="fill:#404040;"/>
          </a>
         </g>
        </svg>
</svg>
