<?xml version="1.0" encoding="UTF-8" standalone="no"?>
<!DOCTYPE svg PUBLIC "-//W3C//DTD SVG 1.1//EN"
 "http://www.w3.org/Graphics/SVG/1.1/DTD/svg11.dtd">
<!-- Generated by graphviz version 2.36.0 (20140111.2315)
 -->
<!-- Title: BallWorld Pages: 1 -->
<svg width="316pt" height="164pt"
 viewBox="0.00 0.00 316.00 164.00" xmlns="http://www.w3.org/2000/svg" xmlns:xlink="http://www.w3.org/1999/xlink">
<g id="graph0" class="graph" transform="scale(1 1) rotate(0) translate(4 160)">
<title>BallWorld</title>
<polygon fill="white" stroke="none" points="-4,4 -4,-160 312,-160 312,4 -4,4"/>
<!-- Node1 -->
<g id="node1" class="node"><title>Node1</title>
<polygon fill="#bfbfbf" stroke="black" points="80.5,-0.5 80.5,-19.5 139.5,-19.5 139.5,-0.5 80.5,-0.5"/>
<text text-anchor="middle" x="110" y="-7.5" font-family="Helvetica,sans-Serif" font-size="10.00">BallWorld</text>
</g>
<!-- Node2 -->
<g id="node2" class="node"><title>Node2</title>
<polygon fill="white" stroke="#bfbfbf" points="45.5,-68.5 45.5,-87.5 114.5,-87.5 114.5,-68.5 45.5,-68.5"/>
<text text-anchor="middle" x="80" y="-75.5" font-family="Helvetica,sans-Serif" font-size="10.00">Application</text>
</g>
<!-- Node2&#45;&gt;Node1 -->
<g id="edge1" class="edge"><title>Node2&#45;&gt;Node1</title>
<path fill="none" stroke="midnightblue" d="M88.0973,-59.1859C93.8853,-46.4523 101.427,-29.8607 105.981,-19.8411"/>
<polygon fill="midnightblue" stroke="midnightblue" points="84.8738,-57.8196 83.922,-68.3717 91.2463,-60.7163 84.8738,-57.8196"/>
</g>
<!-- Node3 -->
<g id="node3" class="node"><title>Node3</title>
<g id="a_node3"><a xlink:href="../../d2/de5/class_game_loop.html" target="_top" xlink:title="GameLoop">
<polygon fill="white" stroke="black" points="132.5,-68.5 132.5,-87.5 201.5,-87.5 201.5,-68.5 132.5,-68.5"/>
<text text-anchor="middle" x="167" y="-75.5" font-family="Helvetica,sans-Serif" font-size="10.00">GameLoop</text>
</a>
</g>
</g>
<!-- Node3&#45;&gt;Node1 -->
<g id="edge2" class="edge"><title>Node3&#45;&gt;Node1</title>
<path fill="none" stroke="#9a32cd" stroke-dasharray="5,2" d="M152.905,-60.68C141.762,-47.7768 126.632,-30.2575 117.636,-19.8411"/>
<polygon fill="#9a32cd" stroke="#9a32cd" points="150.363,-63.0911 159.548,-68.3717 155.661,-58.5157 150.363,-63.0911"/>
<text text-anchor="middle" x="168" y="-41.5" font-family="Helvetica,sans-Serif" font-size="10.00"> myGame</text>
</g>
<!-- Node4 -->
<g id="node4" class="node"><title>Node4</title>
<polygon fill="white" stroke="#bfbfbf" points="0,-136.5 0,-155.5 68,-155.5 68,-136.5 0,-136.5"/>
<text text-anchor="middle" x="34" y="-143.5" font-family="Helvetica,sans-Serif" font-size="10.00">ImageView</text>
</g>
<!-- Node4&#45;&gt;Node3 -->
<g id="edge3" class="edge"><title>Node4&#45;&gt;Node3</title>
<path fill="none" stroke="#9a32cd" stroke-dasharray="5,2" d="M58.911,-131.427C73.1811,-123.764 91.4828,-114.124 108,-106 121.04,-99.5865 135.919,-92.7807 147.473,-87.6065"/>
<polygon fill="#9a32cd" stroke="#9a32cd" points="56.8845,-128.543 49.7472,-136.373 60.2096,-134.703 56.8845,-128.543"/>
<text text-anchor="middle" x="135.5" y="-109.5" font-family="Helvetica,sans-Serif" font-size="10.00"> imageView</text>
</g>
<!-- Node5 -->
<g id="node5" class="node"><title>Node5</title>
<polygon fill="white" stroke="#bfbfbf" points="86.5,-136.5 86.5,-155.5 247.5,-155.5 247.5,-136.5 86.5,-136.5"/>
<text text-anchor="middle" x="167" y="-143.5" font-family="Helvetica,sans-Serif" font-size="10.00">EventHandler&lt; ActionEvent &gt;</text>
</g>
<!-- Node5&#45;&gt;Node3 -->
<g id="edge4" class="edge"><title>Node5&#45;&gt;Node3</title>
<path fill="none" stroke="#9a32cd" stroke-dasharray="5,2" d="M167,-126.041C167,-113.472 167,-97.5631 167,-87.8411"/>
<polygon fill="#9a32cd" stroke="#9a32cd" points="163.5,-126.372 167,-136.372 170.5,-126.372 163.5,-126.372"/>
<text text-anchor="middle" x="193" y="-109.5" font-family="Helvetica,sans-Serif" font-size="10.00"> oneFrame</text>
</g>
<!-- Node6 -->
<g id="node6" class="node"><title>Node6</title>
<polygon fill="white" stroke="#bfbfbf" points="265.5,-136.5 265.5,-155.5 308.5,-155.5 308.5,-136.5 265.5,-136.5"/>
<text text-anchor="middle" x="287" y="-143.5" font-family="Helvetica,sans-Serif" font-size="10.00">Circle</text>
</g>
<!-- Node6&#45;&gt;Node3 -->
<g id="edge5" class="edge"><title>Node6&#45;&gt;Node3</title>
<path fill="none" stroke="#9a32cd" stroke-dasharray="5,2" d="M264.897,-130.794C252.709,-123.149 237.208,-113.73 223,-106 210.864,-99.3975 196.864,-92.6475 185.898,-87.5481"/>
<polygon fill="#9a32cd" stroke="#9a32cd" points="263.173,-133.845 273.494,-136.237 266.917,-127.931 263.173,-133.845"/>
<text text-anchor="middle" x="260" y="-109.5" font-family="Helvetica,sans-Serif" font-size="10.00"> myBall</text>
</g>
</g>
</svg>
