<?xml version="1.0" encoding="UTF-8" standalone="no"?>
<!DOCTYPE svg PUBLIC "-//W3C//DTD SVG 1.1//EN"
 "http://www.w3.org/Graphics/SVG/1.1/DTD/svg11.dtd">
<!-- Generated by graphviz version 2.36.0 (20140111.2315)
 -->
<!-- Title: /tmp/git/duke&#45;compsci308&#45;spring2015/game_mo82/repository Pages: 1 -->
<svg width="476pt" height="111pt"
 viewBox="0.00 0.00 476.00 111.00" xmlns="http://www.w3.org/2000/svg" xmlns:xlink="http://www.w3.org/1999/xlink">
<g id="graph0" class="graph" transform="scale(1 1) rotate(0) translate(4 107)">
<title>/tmp/git/duke&#45;compsci308&#45;spring2015/game_mo82/repository</title>
<polygon fill="white" stroke="none" points="-4,4 -4,-107 472,-107 472,4 -4,4"/>
<g id="clust1" class="cluster"><title>clusterdir_47acf1170b944755380dacecf7496add</title>
<g id="a_clust1"><a xlink:href="dir_47acf1170b944755380dacecf7496add.html" target="_top" xlink:title="game_mo82">
<polygon fill="#ddddee" stroke="black" points="8,-8 8,-95 460,-95 460,-8 8,-8"/>
<text text-anchor="middle" x="234" y="-83" font-family="Helvetica,sans-Serif" font-size="10.00">game_mo82</text>
</a>
</g>
</g>
<g id="clust2" class="cluster"><title>clusterdir_804e406e9160242c45688a50854ed807</title>
<g id="a_clust2"><a xlink:href="dir_804e406e9160242c45688a50854ed807.html" target="_top">
<polygon fill="#eeeeff" stroke="black" points="16,-16 16,-68 452,-68 452,-16 16,-16"/>
</a>
</g>
</g>
<!-- dir_804e406e9160242c45688a50854ed807 -->
<g id="node1" class="node"><title>dir_804e406e9160242c45688a50854ed807</title>
<text text-anchor="middle" x="411" y="-39.5" font-family="Helvetica,sans-Serif" font-size="10.00">repository</text>
</g>
<!-- dir_19cc91115ad91f85d42b129dc00c3cf4 -->
<g id="node2" class="node"><title>dir_19cc91115ad91f85d42b129dc00c3cf4</title>
<g id="a_node2"><a xlink:href="dir_19cc91115ad91f85d42b129dc00c3cf4.html" target="_top" xlink:title="BallWorld">
<polygon fill="white" stroke="red" points="360.25,-60 301.75,-60 301.75,-24 360.25,-24 360.25,-60"/>
<text text-anchor="middle" x="331" y="-39.5" font-family="Helvetica,sans-Serif" font-size="10.00">BallWorld</text>
</a>
</g>
</g>
<!-- dir_4f229b8ef73636b95223c35f9ef46cbf -->
<g id="node3" class="node"><title>dir_4f229b8ef73636b95223c35f9ef46cbf</title>
<g id="a_node3"><a xlink:href="dir_4f229b8ef73636b95223c35f9ef46cbf.html" target="_top" xlink:title="CopiedExample">
<polygon fill="white" stroke="red" points="283.25,-60 192.75,-60 192.75,-24 283.25,-24 283.25,-60"/>
<text text-anchor="middle" x="238" y="-39.5" font-family="Helvetica,sans-Serif" font-size="10.00">CopiedExample</text>
</a>
</g>
</g>
<!-- dir_df3369709a684a7c8d8f5e96a229a2f6 -->
<g id="node4" class="node"><title>dir_df3369709a684a7c8d8f5e96a229a2f6</title>
<g id="a_node4"><a xlink:href="dir_df3369709a684a7c8d8f5e96a229a2f6.html" target="_top" xlink:title="Hi">
<polygon fill="white" stroke="red" points="174,-60 120,-60 120,-24 174,-24 174,-60"/>
<text text-anchor="middle" x="147" y="-39.5" font-family="Helvetica,sans-Serif" font-size="10.00">Hi</text>
</a>
</g>
</g>
<!-- dir_85484d1dd53b1edabb2c2e076e1428ba -->
<g id="node5" class="node"><title>dir_85484d1dd53b1edabb2c2e076e1428ba</title>
<g id="a_node5"><a xlink:href="dir_85484d1dd53b1edabb2c2e076e1428ba.html" target="_top" xlink:title="ShutTheButt">
<polygon fill="white" stroke="red" points="101.25,-60 24.75,-60 24.75,-24 101.25,-24 101.25,-60"/>
<text text-anchor="middle" x="63" y="-39.5" font-family="Helvetica,sans-Serif" font-size="10.00">ShutTheButt</text>
</a>
</g>
</g>
</g>
</svg>
