<?xml version="1.0" encoding="UTF-8" standalone="no"?>
<!DOCTYPE svg PUBLIC "-//W3C//DTD SVG 1.1//EN"
 "http://www.w3.org/Graphics/SVG/1.1/DTD/svg11.dtd">
<!-- Generated by graphviz version 2.36.0 (20140111.2315)
 -->
<!-- Title: Graphical Class Hierarchy Pages: 1 -->
<svg width="344pt" height="123pt"
 viewBox="0.00 0.00 344.00 123.00" xmlns="http://www.w3.org/2000/svg" xmlns:xlink="http://www.w3.org/1999/xlink">
<g id="graph0" class="graph" transform="scale(1 1) rotate(0) translate(4 119)">
<title>Graphical Class Hierarchy</title>
<polygon fill="white" stroke="none" points="-4,4 -4,-119 340,-119 340,4 -4,4"/>
<!-- Node1 -->
<g id="node1" class="node"><title>Node1</title>
<polygon fill="white" stroke="#bfbfbf" points="0,-38.5 0,-57.5 68,-57.5 68,-38.5 0,-38.5"/>
<text text-anchor="middle" x="34" y="-45.5" font-family="Helvetica,sans-Serif" font-size="10.00">ImageView</text>
</g>
<!-- Node2 -->
<g id="node2" class="node"><title>Node2</title>
<g id="a_node2"><a xlink:href="d7/dbf/class_sprite.html" target="_top" xlink:title="Sprite">
<polygon fill="white" stroke="black" points="104.5,-38.5 104.5,-57.5 149.5,-57.5 149.5,-38.5 104.5,-38.5"/>
<text text-anchor="middle" x="127" y="-45.5" font-family="Helvetica,sans-Serif" font-size="10.00">Sprite</text>
</a>
</g>
</g>
<!-- Node1&#45;&gt;Node2 -->
<g id="edge1" class="edge"><title>Node1&#45;&gt;Node2</title>
<path fill="none" stroke="midnightblue" d="M78.2382,-48C87.3224,-48 96.5271,-48 104.399,-48"/>
<polygon fill="midnightblue" stroke="midnightblue" points="78.1105,-44.5001 68.1105,-48 78.1105,-51.5001 78.1105,-44.5001"/>
</g>
<!-- Node3 -->
<g id="node3" class="node"><title>Node3</title>
<g id="a_node3"><a xlink:href="d7/da7/class_character.html" target="_top" xlink:title="Character">
<polygon fill="white" stroke="black" points="186,-76.5 186,-95.5 250,-95.5 250,-76.5 186,-76.5"/>
<text text-anchor="middle" x="218" y="-83.5" font-family="Helvetica,sans-Serif" font-size="10.00">Character</text>
</a>
</g>
</g>
<!-- Node2&#45;&gt;Node3 -->
<g id="edge2" class="edge"><title>Node2&#45;&gt;Node3</title>
<path fill="none" stroke="midnightblue" d="M159.015,-61.2425C170.776,-66.264 183.925,-71.8782 194.725,-76.4891"/>
<polygon fill="midnightblue" stroke="midnightblue" points="160.116,-57.9066 149.544,-57.1987 157.367,-64.3444 160.116,-57.9066"/>
</g>
<!-- Node6 -->
<g id="node6" class="node"><title>Node6</title>
<g id="a_node6"><a xlink:href="d3/d20/class_poop.html" target="_top" xlink:title="Poop">
<polygon fill="white" stroke="black" points="197.5,-38.5 197.5,-57.5 238.5,-57.5 238.5,-38.5 197.5,-38.5"/>
<text text-anchor="middle" x="218" y="-45.5" font-family="Helvetica,sans-Serif" font-size="10.00">Poop</text>
</a>
</g>
</g>
<!-- Node2&#45;&gt;Node6 -->
<g id="edge5" class="edge"><title>Node2&#45;&gt;Node6</title>
<path fill="none" stroke="midnightblue" d="M159.685,-48C172.297,-48 186.41,-48 197.475,-48"/>
<polygon fill="midnightblue" stroke="midnightblue" points="159.544,-44.5001 149.544,-48 159.544,-51.5001 159.544,-44.5001"/>
</g>
<!-- Node7 -->
<g id="node7" class="node"><title>Node7</title>
<g id="a_node7"><a xlink:href="de/d74/class_shot.html" target="_top" xlink:title="Shot">
<polygon fill="white" stroke="black" points="198.5,-0.5 198.5,-19.5 237.5,-19.5 237.5,-0.5 198.5,-0.5"/>
<text text-anchor="middle" x="218" y="-7.5" font-family="Helvetica,sans-Serif" font-size="10.00">Shot</text>
</a>
</g>
</g>
<!-- Node2&#45;&gt;Node7 -->
<g id="edge6" class="edge"><title>Node2&#45;&gt;Node7</title>
<path fill="none" stroke="midnightblue" d="M158.753,-34.8696C171.936,-29.2407 186.905,-22.8496 198.366,-17.9559"/>
<polygon fill="midnightblue" stroke="midnightblue" points="157.367,-31.6556 149.544,-38.8013 160.116,-38.0934 157.367,-31.6556"/>
</g>
<!-- Node4 -->
<g id="node4" class="node"><title>Node4</title>
<g id="a_node4"><a xlink:href="dd/d7a/class_enemy.html" target="_top" xlink:title="Enemy">
<polygon fill="white" stroke="black" points="286,-95.5 286,-114.5 336,-114.5 336,-95.5 286,-95.5"/>
<text text-anchor="middle" x="311" y="-102.5" font-family="Helvetica,sans-Serif" font-size="10.00">Enemy</text>
</a>
</g>
</g>
<!-- Node3&#45;&gt;Node4 -->
<g id="edge3" class="edge"><title>Node3&#45;&gt;Node4</title>
<path fill="none" stroke="midnightblue" d="M259.94,-94.5478C268.842,-96.4065 277.979,-98.3143 285.97,-99.9827"/>
<polygon fill="midnightblue" stroke="midnightblue" points="260.567,-91.1034 250.063,-92.4856 259.136,-97.9556 260.567,-91.1034"/>
</g>
<!-- Node5 -->
<g id="node5" class="node"><title>Node5</title>
<g id="a_node5"><a xlink:href="d8/d53/class_player.html" target="_top" xlink:title="Player">
<polygon fill="white" stroke="black" points="288,-57.5 288,-76.5 334,-76.5 334,-57.5 288,-57.5"/>
<text text-anchor="middle" x="311" y="-64.5" font-family="Helvetica,sans-Serif" font-size="10.00">Player</text>
</a>
</g>
</g>
<!-- Node3&#45;&gt;Node5 -->
<g id="edge4" class="edge"><title>Node3&#45;&gt;Node5</title>
<path fill="none" stroke="midnightblue" d="M259.947,-77.4506C269.599,-75.4353 279.527,-73.3624 287.971,-71.5996"/>
<polygon fill="midnightblue" stroke="midnightblue" points="259.136,-74.0444 250.063,-79.5144 260.567,-80.8966 259.136,-74.0444"/>
</g>
</g>
</svg>
