<?xml version="1.0" encoding="UTF-8" standalone="no"?>
<!DOCTYPE svg PUBLIC "-//W3C//DTD SVG 1.1//EN"
 "http://www.w3.org/Graphics/SVG/1.1/DTD/svg11.dtd">
<!-- Generated by graphviz version 2.36.0 (20140111.2315)
 -->
<!-- Title: Graphical Class Hierarchy Pages: 1 -->
<svg width="246pt" height="104pt"
 viewBox="0.00 0.00 246.00 104.00" xmlns="http://www.w3.org/2000/svg" xmlns:xlink="http://www.w3.org/1999/xlink">
<g id="graph0" class="graph" transform="scale(1 1) rotate(0) translate(4 100)">
<title>Graphical Class Hierarchy</title>
<polygon fill="white" stroke="none" points="-4,4 -4,-100 242,-100 242,4 -4,4"/>
<!-- Node1 -->
<g id="node1" class="node"><title>Node1</title>
<g id="a_node1"><a xlink:href="d6/d21/class_screen.html" target="_top" xlink:title="Screen">
<polygon fill="white" stroke="black" points="0,-57.5 0,-76.5 50,-76.5 50,-57.5 0,-57.5"/>
<text text-anchor="middle" x="25" y="-64.5" font-family="Helvetica,sans-Serif" font-size="10.00">Screen</text>
</a>
</g>
</g>
<!-- Node2 -->
<g id="node2" class="node"><title>Node2</title>
<g id="a_node2"><a xlink:href="d2/d3e/class_level1.html" target="_top" xlink:title="Level1">
<polygon fill="white" stroke="black" points="86.5,-76.5 86.5,-95.5 133.5,-95.5 133.5,-76.5 86.5,-76.5"/>
<text text-anchor="middle" x="110" y="-83.5" font-family="Helvetica,sans-Serif" font-size="10.00">Level1</text>
</a>
</g>
</g>
<!-- Node1&#45;&gt;Node2 -->
<g id="edge1" class="edge"><title>Node1&#45;&gt;Node2</title>
<path fill="none" stroke="midnightblue" d="M59.8305,-74.7443C68.8005,-76.7977 78.2658,-78.9645 86.4706,-80.8427"/>
<polygon fill="midnightblue" stroke="midnightblue" points="60.5359,-71.3154 50.007,-72.4956 58.9739,-78.1389 60.5359,-71.3154"/>
</g>
<!-- Node4 -->
<g id="node4" class="node"><title>Node4</title>
<g id="a_node4"><a xlink:href="d2/db8/class_menu.html" target="_top" xlink:title="Menu">
<polygon fill="white" stroke="black" points="88.5,-38.5 88.5,-57.5 131.5,-57.5 131.5,-38.5 88.5,-38.5"/>
<text text-anchor="middle" x="110" y="-45.5" font-family="Helvetica,sans-Serif" font-size="10.00">Menu</text>
</a>
</g>
</g>
<!-- Node1&#45;&gt;Node4 -->
<g id="edge3" class="edge"><title>Node1&#45;&gt;Node4</title>
<path fill="none" stroke="midnightblue" d="M59.8088,-59.2606C69.5054,-57.0409 79.7825,-54.6884 88.4215,-52.7107"/>
<polygon fill="midnightblue" stroke="midnightblue" points="58.9739,-55.8611 50.007,-61.5044 60.5359,-62.6846 58.9739,-55.8611"/>
</g>
<!-- Node3 -->
<g id="node3" class="node"><title>Node3</title>
<g id="a_node3"><a xlink:href="d0/dc8/class_level2.html" target="_top" xlink:title="Level2">
<polygon fill="white" stroke="black" points="180.5,-76.5 180.5,-95.5 227.5,-95.5 227.5,-76.5 180.5,-76.5"/>
<text text-anchor="middle" x="204" y="-83.5" font-family="Helvetica,sans-Serif" font-size="10.00">Level2</text>
</a>
</g>
</g>
<!-- Node2&#45;&gt;Node3 -->
<g id="edge2" class="edge"><title>Node2&#45;&gt;Node3</title>
<path fill="none" stroke="midnightblue" d="M143.883,-86C155.912,-86 169.246,-86 180.201,-86"/>
<polygon fill="midnightblue" stroke="midnightblue" points="143.742,-82.5001 133.742,-86 143.742,-89.5001 143.742,-82.5001"/>
</g>
<!-- Node5 -->
<g id="node5" class="node"><title>Node5</title>
<g id="a_node5"><a xlink:href="d5/db1/class_game_over.html" target="_top" xlink:title="GameOver">
<polygon fill="white" stroke="black" points="170,-38.5 170,-57.5 238,-57.5 238,-38.5 170,-38.5"/>
<text text-anchor="middle" x="204" y="-45.5" font-family="Helvetica,sans-Serif" font-size="10.00">GameOver</text>
</a>
</g>
</g>
<!-- Node4&#45;&gt;Node5 -->
<g id="edge4" class="edge"><title>Node4&#45;&gt;Node5</title>
<path fill="none" stroke="midnightblue" d="M141.948,-48C150.948,-48 160.812,-48 169.936,-48"/>
<polygon fill="midnightblue" stroke="midnightblue" points="141.876,-44.5001 131.876,-48 141.876,-51.5001 141.876,-44.5001"/>
</g>
<!-- Node6 -->
<g id="node6" class="node"><title>Node6</title>
<g id="a_node6"><a xlink:href="dd/d7f/class_game_win.html" target="_top" xlink:title="GameWin">
<polygon fill="white" stroke="black" points="173,-0.5 173,-19.5 235,-19.5 235,-0.5 173,-0.5"/>
<text text-anchor="middle" x="204" y="-7.5" font-family="Helvetica,sans-Serif" font-size="10.00">GameWin</text>
</a>
</g>
</g>
<!-- Node4&#45;&gt;Node6 -->
<g id="edge5" class="edge"><title>Node4&#45;&gt;Node6</title>
<path fill="none" stroke="midnightblue" d="M141.476,-35.4122C154.016,-30.2326 168.3,-24.3327 179.946,-19.5223"/>
<polygon fill="midnightblue" stroke="midnightblue" points="139.783,-32.3246 131.876,-39.3772 142.455,-38.7945 139.783,-32.3246"/>
</g>
</g>
</svg>
