<?xml version="1.0" encoding="UTF-8" standalone="no"?>
<!DOCTYPE svg PUBLIC "-//W3C//DTD SVG 1.1//EN"
 "http://www.w3.org/Graphics/SVG/1.1/DTD/svg11.dtd">
<!-- Generated by graphviz version 2.36.0 (20140111.2315)
 -->
<!-- Title: Graphical Class Hierarchy Pages: 1 -->
<svg width="230pt" height="104pt"
 viewBox="0.00 0.00 230.00 104.00" xmlns="http://www.w3.org/2000/svg" xmlns:xlink="http://www.w3.org/1999/xlink">
<g id="graph0" class="graph" transform="scale(1 1) rotate(0) translate(4 100)">
<title>Graphical Class Hierarchy</title>
<polygon fill="white" stroke="none" points="-4,4 -4,-100 226,-100 226,4 -4,4"/>
<!-- Node1 -->
<g id="node1" class="node"><title>Node1</title>
<polygon fill="white" stroke="#bfbfbf" points="0.5,-38.5 0.5,-57.5 69.5,-57.5 69.5,-38.5 0.5,-38.5"/>
<text text-anchor="middle" x="35" y="-45.5" font-family="Helvetica,sans-Serif" font-size="10.00">Application</text>
</g>
<!-- Node2 -->
<g id="node2" class="node"><title>Node2</title>
<g id="a_node2"><a xlink:href="d0/d22/class_ball_world.html" target="_top" xlink:title="BallWorld">
<polygon fill="white" stroke="black" points="134.5,-76.5 134.5,-95.5 193.5,-95.5 193.5,-76.5 134.5,-76.5"/>
<text text-anchor="middle" x="164" y="-83.5" font-family="Helvetica,sans-Serif" font-size="10.00">BallWorld</text>
</a>
</g>
</g>
<!-- Node1&#45;&gt;Node2 -->
<g id="edge1" class="edge"><title>Node1&#45;&gt;Node2</title>
<path fill="none" stroke="midnightblue" d="M77.7446,-60.4905C96.3184,-66.048 117.717,-72.4507 134.429,-77.4513"/>
<polygon fill="midnightblue" stroke="midnightblue" points="78.6311,-57.1025 68.0475,-57.589 76.6245,-63.8088 78.6311,-57.1025"/>
</g>
<!-- Node3 -->
<g id="node3" class="node"><title>Node3</title>
<g id="a_node3"><a xlink:href="d0/da4/classhelloworld_1_1_hello_world.html" target="_top" xlink:title="helloworld.HelloWorld">
<polygon fill="white" stroke="black" points="106,-38.5 106,-57.5 222,-57.5 222,-38.5 106,-38.5"/>
<text text-anchor="middle" x="164" y="-45.5" font-family="Helvetica,sans-Serif" font-size="10.00">helloworld.HelloWorld</text>
</a>
</g>
</g>
<!-- Node1&#45;&gt;Node3 -->
<g id="edge2" class="edge"><title>Node1&#45;&gt;Node3</title>
<path fill="none" stroke="midnightblue" d="M79.8785,-48C88.1608,-48 96.937,-48 105.563,-48"/>
<polygon fill="midnightblue" stroke="midnightblue" points="79.7003,-44.5001 69.7002,-48 79.7002,-51.5001 79.7003,-44.5001"/>
</g>
<!-- Node4 -->
<g id="node4" class="node"><title>Node4</title>
<g id="a_node4"><a xlink:href="d0/d4b/class_main.html" target="_top" xlink:title="Main">
<polygon fill="white" stroke="black" points="144.5,-0.5 144.5,-19.5 183.5,-19.5 183.5,-0.5 144.5,-0.5"/>
<text text-anchor="middle" x="164" y="-7.5" font-family="Helvetica,sans-Serif" font-size="10.00">Main</text>
</a>
</g>
</g>
<!-- Node1&#45;&gt;Node4 -->
<g id="edge3" class="edge"><title>Node1&#45;&gt;Node4</title>
<path fill="none" stroke="midnightblue" d="M77.728,-35.5145C100.246,-28.7767 126.921,-20.7954 144.363,-15.5764"/>
<polygon fill="midnightblue" stroke="midnightblue" points="76.6245,-32.1912 68.0475,-38.411 78.6311,-38.8975 76.6245,-32.1912"/>
</g>
</g>
</svg>
