<?xml version="1.0" encoding="UTF-8" standalone="no"?>
<!DOCTYPE svg PUBLIC "-//W3C//DTD SVG 1.1//EN"
 "http://www.w3.org/Graphics/SVG/1.1/DTD/svg11.dtd">
<!-- Generated by graphviz version 2.36.0 (20140111.2315)
 -->
<!-- Title: Level1.updateTimer Pages: 1 -->
<svg width="1082pt" height="104pt"
 viewBox="0.00 0.00 1082.00 104.00" xmlns="http://www.w3.org/2000/svg" xmlns:xlink="http://www.w3.org/1999/xlink">
<g id="graph0" class="graph" transform="scale(1 1) rotate(0) translate(4 100)">
<title>Level1.updateTimer</title>
<polygon fill="white" stroke="none" points="-4,4 -4,-100 1078,-100 1078,4 -4,4"/>
<!-- Node1 -->
<g id="node1" class="node"><title>Node1</title>
<polygon fill="#bfbfbf" stroke="black" points="0.5,-0.5 0.5,-19.5 111.5,-19.5 111.5,-0.5 0.5,-0.5"/>
<text text-anchor="middle" x="56" y="-7.5" font-family="Helvetica,sans-Serif" font-size="10.00">Level1.updateTimer</text>
</g>
<!-- Node2 -->
<g id="node2" class="node"><title>Node2</title>
<g id="a_node2"><a xlink:href="../../d2/d3e/class_level1.html#a324da1e22a7a87fa4bb1859b5774bdba" target="_top" xlink:title="Level1.updateFrame">
<polygon fill="white" stroke="black" points="148,-0.5 148,-19.5 262,-19.5 262,-0.5 148,-0.5"/>
<text text-anchor="middle" x="205" y="-7.5" font-family="Helvetica,sans-Serif" font-size="10.00">Level1.updateFrame</text>
</a>
</g>
</g>
<!-- Node1&#45;&gt;Node2 -->
<g id="edge1" class="edge"><title>Node1&#45;&gt;Node2</title>
<path fill="none" stroke="midnightblue" d="M121.789,-10C130.44,-10 139.255,-10 147.744,-10"/>
<polygon fill="midnightblue" stroke="midnightblue" points="121.737,-6.5001 111.737,-10 121.737,-13.5001 121.737,-6.5001"/>
</g>
<!-- Node3 -->
<g id="node3" class="node"><title>Node3</title>
<g id="a_node3"><a xlink:href="../../d2/d3e/class_level1.html#a0871325d07c0614d5f1f2df7df13b703" target="_top" xlink:title="Level1.start">
<polygon fill="white" stroke="black" points="298.5,-19.5 298.5,-38.5 371.5,-38.5 371.5,-19.5 298.5,-19.5"/>
<text text-anchor="middle" x="335" y="-26.5" font-family="Helvetica,sans-Serif" font-size="10.00">Level1.start</text>
</a>
</g>
</g>
<!-- Node2&#45;&gt;Node3 -->
<g id="edge2" class="edge"><title>Node2&#45;&gt;Node3</title>
<path fill="none" stroke="midnightblue" d="M272.221,-19.8297C281.159,-21.1564 290.039,-22.4745 298.163,-23.6804"/>
<polygon fill="midnightblue" stroke="midnightblue" points="272.548,-16.34 262.143,-18.3337 271.52,-23.2641 272.548,-16.34"/>
</g>
<!-- Node4 -->
<g id="node4" class="node"><title>Node4</title>
<g id="a_node4"><a xlink:href="../../d2/db8/class_menu.html#ab6296880308728ced459f772430d025b" target="_top" xlink:title="Menu.createGame">
<polygon fill="white" stroke="black" points="410,-57.5 410,-76.5 516,-76.5 516,-57.5 410,-57.5"/>
<text text-anchor="middle" x="463" y="-64.5" font-family="Helvetica,sans-Serif" font-size="10.00">Menu.createGame</text>
</a>
</g>
</g>
<!-- Node3&#45;&gt;Node4 -->
<g id="edge3" class="edge"><title>Node3&#45;&gt;Node4</title>
<path fill="none" stroke="midnightblue" d="M377.564,-41.5353C394.705,-46.7048 414.25,-52.5991 430.215,-57.4141"/>
<polygon fill="midnightblue" stroke="midnightblue" points="378.38,-38.1256 367.795,-38.589 376.359,-44.8274 378.38,-38.1256"/>
</g>
<!-- Node10 -->
<g id="node10" class="node"><title>Node10</title>
<g id="a_node10"><a xlink:href="../../d2/d3e/class_level1.html#ac56e75129bb2946c38cfcf43608f3f05" target="_top" xlink:title="Level1.goNextLevel">
<polygon fill="white" stroke="black" points="408,-19.5 408,-38.5 518,-38.5 518,-19.5 408,-19.5"/>
<text text-anchor="middle" x="463" y="-26.5" font-family="Helvetica,sans-Serif" font-size="10.00">Level1.goNextLevel</text>
</a>
</g>
</g>
<!-- Node3&#45;&gt;Node10 -->
<g id="edge9" class="edge"><title>Node3&#45;&gt;Node10</title>
<path fill="none" stroke="midnightblue" d="M381.797,-29C390.237,-29 399.122,-29 407.782,-29"/>
<polygon fill="midnightblue" stroke="midnightblue" points="381.77,-25.5001 371.77,-29 381.769,-32.5001 381.77,-25.5001"/>
</g>
<!-- Node5 -->
<g id="node5" class="node"><title>Node5</title>
<g id="a_node5"><a xlink:href="../../d2/db8/class_menu.html#a53c8b072d5ec777994fed9ee76c98561" target="_top" xlink:title="Menu.handle">
<polygon fill="white" stroke="black" points="574,-57.5 574,-76.5 652,-76.5 652,-57.5 574,-57.5"/>
<text text-anchor="middle" x="613" y="-64.5" font-family="Helvetica,sans-Serif" font-size="10.00">Menu.handle</text>
</a>
</g>
</g>
<!-- Node4&#45;&gt;Node5 -->
<g id="edge4" class="edge"><title>Node4&#45;&gt;Node5</title>
<path fill="none" stroke="midnightblue" d="M526.579,-67C542.615,-67 559.383,-67 573.775,-67"/>
<polygon fill="midnightblue" stroke="midnightblue" points="526.179,-63.5001 516.179,-67 526.179,-70.5001 526.179,-63.5001"/>
</g>
<!-- Node6 -->
<g id="node6" class="node"><title>Node6</title>
<g id="a_node6"><a xlink:href="../../d2/db8/class_menu.html#aff7a7627619921545f94547ab6135007" target="_top" xlink:title="Menu.addButton">
<polygon fill="white" stroke="black" points="708,-57.5 708,-76.5 804,-76.5 804,-57.5 708,-57.5"/>
<text text-anchor="middle" x="756" y="-64.5" font-family="Helvetica,sans-Serif" font-size="10.00">Menu.addButton</text>
</a>
</g>
</g>
<!-- Node5&#45;&gt;Node6 -->
<g id="edge5" class="edge"><title>Node5&#45;&gt;Node6</title>
<path fill="none" stroke="midnightblue" d="M662.523,-67C677.157,-67 693.194,-67 707.744,-67"/>
<polygon fill="midnightblue" stroke="midnightblue" points="662.157,-63.5001 652.157,-67 662.157,-70.5001 662.157,-63.5001"/>
</g>
<!-- Node7 -->
<g id="node7" class="node"><title>Node7</title>
<g id="a_node7"><a xlink:href="../../d5/db1/class_game_over.html#abb505ac8c26999beff755f4c299370da" target="_top" xlink:title="GameOver.addAllButtons">
<polygon fill="white" stroke="black" points="840.5,-76.5 840.5,-95.5 977.5,-95.5 977.5,-76.5 840.5,-76.5"/>
<text text-anchor="middle" x="909" y="-83.5" font-family="Helvetica,sans-Serif" font-size="10.00">GameOver.addAllButtons</text>
</a>
</g>
</g>
<!-- Node6&#45;&gt;Node7 -->
<g id="edge6" class="edge"><title>Node6&#45;&gt;Node7</title>
<path fill="none" stroke="midnightblue" d="M814.484,-74.2331C822.936,-75.2966 831.709,-76.4005 840.343,-77.4869"/>
<polygon fill="midnightblue" stroke="midnightblue" points="814.722,-70.7355 804.363,-72.9596 813.848,-77.6807 814.722,-70.7355"/>
</g>
<!-- Node8 -->
<g id="node8" class="node"><title>Node8</title>
<g id="a_node8"><a xlink:href="../../d2/db8/class_menu.html#a461e62e606af2391013ce3aaf92a8cc7" target="_top" xlink:title="Menu.addAllButtons">
<polygon fill="white" stroke="black" points="852.5,-38.5 852.5,-57.5 965.5,-57.5 965.5,-38.5 852.5,-38.5"/>
<text text-anchor="middle" x="909" y="-45.5" font-family="Helvetica,sans-Serif" font-size="10.00">Menu.addAllButtons</text>
</a>
</g>
</g>
<!-- Node6&#45;&gt;Node8 -->
<g id="edge7" class="edge"><title>Node6&#45;&gt;Node8</title>
<path fill="none" stroke="midnightblue" d="M814.577,-59.7552C826.965,-58.1965 840.036,-56.5517 852.35,-55.0024"/>
<polygon fill="midnightblue" stroke="midnightblue" points="813.848,-56.3193 804.363,-61.0404 814.722,-63.2645 813.848,-56.3193"/>
</g>
<!-- Node9 -->
<g id="node9" class="node"><title>Node9</title>
<g id="a_node9"><a xlink:href="../../d2/db8/class_menu.html#a3c99ad09e9f2f975c1a0d0597642651a" target="_top" xlink:title="Menu.init">
<polygon fill="white" stroke="black" points="1014,-38.5 1014,-57.5 1074,-57.5 1074,-38.5 1014,-38.5"/>
<text text-anchor="middle" x="1044" y="-45.5" font-family="Helvetica,sans-Serif" font-size="10.00">Menu.init</text>
</a>
</g>
</g>
<!-- Node8&#45;&gt;Node9 -->
<g id="edge8" class="edge"><title>Node8&#45;&gt;Node9</title>
<path fill="none" stroke="midnightblue" d="M975.775,-48C989.094,-48 1002.45,-48 1013.71,-48"/>
<polygon fill="midnightblue" stroke="midnightblue" points="975.633,-44.5001 965.633,-48 975.633,-51.5001 975.633,-44.5001"/>
</g>
<!-- Node11 -->
<g id="node11" class="node"><title>Node11</title>
<g id="a_node11"><a xlink:href="../../d2/d3e/class_level1.html#a78a7fb5633734b1815af8db43db23a41" target="_top" xlink:title="Level1.updateSprites">
<polygon fill="white" stroke="black" points="554,-0.5 554,-19.5 672,-19.5 672,-0.5 554,-0.5"/>
<text text-anchor="middle" x="613" y="-7.5" font-family="Helvetica,sans-Serif" font-size="10.00">Level1.updateSprites</text>
</a>
</g>
</g>
<!-- Node10&#45;&gt;Node11 -->
<g id="edge10" class="edge"><title>Node10&#45;&gt;Node11</title>
<path fill="none" stroke="midnightblue" d="M528.429,-20.7288C536.85,-19.6476 545.44,-18.5448 553.752,-17.4778"/>
<polygon fill="midnightblue" stroke="midnightblue" points="527.742,-17.2881 518.269,-22.033 528.634,-24.2311 527.742,-17.2881"/>
</g>
<!-- Node11&#45;&gt;Node2 -->
<g id="edge11" class="edge"><title>Node11&#45;&gt;Node2</title>
<path fill="none" stroke="midnightblue" d="M543.571,-10C464.393,-10 335.516,-10 262.026,-10"/>
<polygon fill="midnightblue" stroke="midnightblue" points="543.925,-13.5001 553.925,-10 543.925,-6.5001 543.925,-13.5001"/>
</g>
</g>
</svg>
