<?xml version="1.0" encoding="UTF-8" standalone="no"?>
<!DOCTYPE svg PUBLIC "-//W3C//DTD SVG 1.1//EN"
 "http://www.w3.org/Graphics/SVG/1.1/DTD/svg11.dtd">
<!-- Generated by graphviz version 2.36.0 (20140111.2315)
 -->
<!-- Title: Level1.init Pages: 1 -->
<svg width="664pt" height="180pt"
 viewBox="0.00 0.00 664.00 180.00" xmlns="http://www.w3.org/2000/svg" xmlns:xlink="http://www.w3.org/1999/xlink">
<g id="graph0" class="graph" transform="scale(1 1) rotate(0) translate(4 176)">
<title>Level1.init</title>
<polygon fill="white" stroke="none" points="-4,4 -4,-176 660,-176 660,4 -4,4"/>
<!-- Node1 -->
<g id="node1" class="node"><title>Node1</title>
<polygon fill="#bfbfbf" stroke="black" points="0.5,-38.5 0.5,-57.5 65.5,-57.5 65.5,-38.5 0.5,-38.5"/>
<text text-anchor="middle" x="33" y="-45.5" font-family="Helvetica,sans-Serif" font-size="10.00">Level1.init</text>
</g>
<!-- Node2 -->
<g id="node2" class="node"><title>Node2</title>
<g id="a_node2"><a xlink:href="../../d2/d3e/class_level1.html#a7a6c3c5e659524ade852b1b959144034" target="_top" xlink:title="Level1.makeScene">
<polygon fill="white" stroke="black" points="102.5,-95.5 102.5,-114.5 209.5,-114.5 209.5,-95.5 102.5,-95.5"/>
<text text-anchor="middle" x="156" y="-102.5" font-family="Helvetica,sans-Serif" font-size="10.00">Level1.makeScene</text>
</a>
</g>
</g>
<!-- Node1&#45;&gt;Node2 -->
<g id="edge1" class="edge"><title>Node1&#45;&gt;Node2</title>
<path fill="none" stroke="midnightblue" d="M54.2527,-57.5405C73.7094,-66.7061 103.33,-80.6595 125.424,-91.0676"/>
<polygon fill="midnightblue" stroke="midnightblue" points="124.143,-94.333 134.681,-95.4284 127.126,-88.0005 124.143,-94.333"/>
</g>
<!-- Node5 -->
<g id="node5" class="node"><title>Node5</title>
<g id="a_node5"><a xlink:href="../../d7/dbf/class_sprite.html#accdf1c21264c6ff648ece508cf176bfb" target="_top" xlink:title="Sprite.setVelocity">
<polygon fill="white" stroke="black" points="555,-57.5 555,-76.5 655,-76.5 655,-57.5 555,-57.5"/>
<text text-anchor="middle" x="605" y="-64.5" font-family="Helvetica,sans-Serif" font-size="10.00">Sprite.setVelocity</text>
</a>
</g>
</g>
<!-- Node1&#45;&gt;Node5 -->
<g id="edge9" class="edge"><title>Node1&#45;&gt;Node5</title>
<path fill="none" stroke="midnightblue" d="M65.8671,-49.0622C157.903,-52.1301 425.151,-61.0384 544.832,-65.0277"/>
<polygon fill="midnightblue" stroke="midnightblue" points="544.802,-68.5286 554.913,-65.3638 545.035,-61.5325 544.802,-68.5286"/>
</g>
<!-- Node9 -->
<g id="node9" class="node"><title>Node9</title>
<g id="a_node9"><a xlink:href="../../d2/d3e/class_level1.html#a59e45786a8a03f932910b3315ebb3ed4" target="_top" xlink:title="Level1.makeTimer">
<polygon fill="white" stroke="black" points="104,-0.5 104,-19.5 208,-19.5 208,-0.5 104,-0.5"/>
<text text-anchor="middle" x="156" y="-7.5" font-family="Helvetica,sans-Serif" font-size="10.00">Level1.makeTimer</text>
</a>
</g>
</g>
<!-- Node1&#45;&gt;Node9 -->
<g id="edge8" class="edge"><title>Node1&#45;&gt;Node9</title>
<path fill="none" stroke="midnightblue" d="M64.5334,-38.411C79.7234,-33.6406 98.2853,-27.8112 114.633,-22.6771"/>
<polygon fill="midnightblue" stroke="midnightblue" points="115.984,-25.9214 124.476,-19.5859 113.887,-19.243 115.984,-25.9214"/>
</g>
<!-- Node3 -->
<g id="node3" class="node"><title>Node3</title>
<g id="a_node3"><a xlink:href="../../d2/d3e/class_level1.html#ac36d707d46288fb3ee16958317c6f68f" target="_top" xlink:title="Level1.handleMouseInput">
<polygon fill="white" stroke="black" points="246,-152.5 246,-171.5 384,-171.5 384,-152.5 246,-152.5"/>
<text text-anchor="middle" x="315" y="-159.5" font-family="Helvetica,sans-Serif" font-size="10.00">Level1.handleMouseInput</text>
</a>
</g>
</g>
<!-- Node2&#45;&gt;Node3 -->
<g id="edge2" class="edge"><title>Node2&#45;&gt;Node3</title>
<path fill="none" stroke="midnightblue" d="M177.202,-114.526C195.049,-122.723 221.908,-134.532 246,-143 252.527,-145.294 259.48,-147.5 266.356,-149.545"/>
<polygon fill="midnightblue" stroke="midnightblue" points="265.736,-153.009 276.314,-152.418 267.676,-146.283 265.736,-153.009"/>
</g>
<!-- Node7 -->
<g id="node7" class="node"><title>Node7</title>
<g id="a_node7"><a xlink:href="../../d2/d3e/class_level1.html#a9ada798f6a1547c9ae408b800d76835b" target="_top" xlink:title="Level1.handleKeyInput">
<polygon fill="white" stroke="black" points="253.5,-114.5 253.5,-133.5 376.5,-133.5 376.5,-114.5 253.5,-114.5"/>
<text text-anchor="middle" x="315" y="-121.5" font-family="Helvetica,sans-Serif" font-size="10.00">Level1.handleKeyInput</text>
</a>
</g>
</g>
<!-- Node2&#45;&gt;Node7 -->
<g id="edge6" class="edge"><title>Node2&#45;&gt;Node7</title>
<path fill="none" stroke="midnightblue" d="M209.715,-111.38C220.423,-112.675 231.852,-114.058 243.071,-115.416"/>
<polygon fill="midnightblue" stroke="midnightblue" points="242.942,-118.926 253.29,-116.653 243.783,-111.977 242.942,-118.926"/>
</g>
<!-- Node8 -->
<g id="node8" class="node"><title>Node8</title>
<g id="a_node8"><a xlink:href="../../d2/d3e/class_level1.html#a76b72ede88f469adb5f1b7da5ad39598" target="_top" xlink:title="Level1.handleKeyRelease">
<polygon fill="white" stroke="black" points="247,-76.5 247,-95.5 383,-95.5 383,-76.5 247,-76.5"/>
<text text-anchor="middle" x="315" y="-83.5" font-family="Helvetica,sans-Serif" font-size="10.00">Level1.handleKeyRelease</text>
</a>
</g>
</g>
<!-- Node2&#45;&gt;Node8 -->
<g id="edge7" class="edge"><title>Node2&#45;&gt;Node8</title>
<path fill="none" stroke="midnightblue" d="M209.715,-98.6204C218.482,-97.5595 227.731,-96.4402 236.953,-95.3242"/>
<polygon fill="midnightblue" stroke="midnightblue" points="237.418,-98.7935 246.925,-94.1173 236.577,-91.8442 237.418,-98.7935"/>
</g>
<!-- Node4 -->
<g id="node4" class="node"><title>Node4</title>
<g id="a_node4"><a xlink:href="../../d8/d53/class_player.html#aabc2918b7a68a9557a2f01b243a21fa8" target="_top" xlink:title="Player.makeShot">
<polygon fill="white" stroke="black" points="420,-133.5 420,-152.5 518,-152.5 518,-133.5 420,-133.5"/>
<text text-anchor="middle" x="469" y="-140.5" font-family="Helvetica,sans-Serif" font-size="10.00">Player.makeShot</text>
</a>
</g>
</g>
<!-- Node3&#45;&gt;Node4 -->
<g id="edge3" class="edge"><title>Node3&#45;&gt;Node4</title>
<path fill="none" stroke="midnightblue" d="M384.441,-153.445C392.956,-152.381 401.599,-151.3 409.936,-150.258"/>
<polygon fill="midnightblue" stroke="midnightblue" points="410.437,-153.723 419.926,-149.009 409.569,-146.777 410.437,-153.723"/>
</g>
<!-- Node4&#45;&gt;Node5 -->
<g id="edge4" class="edge"><title>Node4&#45;&gt;Node5</title>
<path fill="none" stroke="midnightblue" d="M486.971,-133.375C510.028,-120.297 551.45,-96.8043 578.322,-81.5634"/>
<polygon fill="midnightblue" stroke="midnightblue" points="580.195,-84.5252 587.167,-76.5473 576.742,-78.4363 580.195,-84.5252"/>
</g>
<!-- Node6 -->
<g id="node6" class="node"><title>Node6</title>
<g id="a_node6"><a xlink:href="../../d7/dbf/class_sprite.html#a4dd4a643703de09c632a0e7d70a570e7" target="_top" xlink:title="Sprite.getVelocity">
<polygon fill="white" stroke="black" points="554.5,-133.5 554.5,-152.5 655.5,-152.5 655.5,-133.5 554.5,-133.5"/>
<text text-anchor="middle" x="605" y="-140.5" font-family="Helvetica,sans-Serif" font-size="10.00">Sprite.getVelocity</text>
</a>
</g>
</g>
<!-- Node4&#45;&gt;Node6 -->
<g id="edge5" class="edge"><title>Node4&#45;&gt;Node6</title>
<path fill="none" stroke="midnightblue" d="M518.377,-143C526.783,-143 535.613,-143 544.279,-143"/>
<polygon fill="midnightblue" stroke="midnightblue" points="544.341,-146.5 554.341,-143 544.341,-139.5 544.341,-146.5"/>
</g>
</g>
</svg>
