<?xml version="1.0" encoding="UTF-8" standalone="no"?>
<!DOCTYPE svg PUBLIC "-//W3C//DTD SVG 1.1//EN"
 "http://www.w3.org/Graphics/SVG/1.1/DTD/svg11.dtd">
<!-- Generated by graphviz version 2.36.0 (20140111.2315)
 -->
<!-- Title: Level1.start Pages: 1 -->
<svg width="802pt" height="104pt"
 viewBox="0.00 0.00 802.00 104.00" xmlns="http://www.w3.org/2000/svg" xmlns:xlink="http://www.w3.org/1999/xlink">
<g id="graph0" class="graph" transform="scale(1 1) rotate(0) translate(4 100)">
<title>Level1.start</title>
<polygon fill="white" stroke="none" points="-4,4 -4,-100 798,-100 798,4 -4,4"/>
<!-- Node1 -->
<g id="node1" class="node"><title>Node1</title>
<polygon fill="#bfbfbf" stroke="black" points="0.5,-19.5 0.5,-38.5 73.5,-38.5 73.5,-19.5 0.5,-19.5"/>
<text text-anchor="middle" x="37" y="-26.5" font-family="Helvetica,sans-Serif" font-size="10.00">Level1.start</text>
</g>
<!-- Node2 -->
<g id="node2" class="node"><title>Node2</title>
<g id="a_node2"><a xlink:href="../../d2/db8/class_menu.html#ab6296880308728ced459f772430d025b" target="_top" xlink:title="Menu.createGame">
<polygon fill="white" stroke="black" points="112,-57.5 112,-76.5 218,-76.5 218,-57.5 112,-57.5"/>
<text text-anchor="middle" x="165" y="-64.5" font-family="Helvetica,sans-Serif" font-size="10.00">Menu.createGame</text>
</a>
</g>
</g>
<!-- Node1&#45;&gt;Node2 -->
<g id="edge1" class="edge"><title>Node1&#45;&gt;Node2</title>
<path fill="none" stroke="midnightblue" d="M79.5644,-41.5353C96.7052,-46.7048 116.25,-52.5991 132.215,-57.4141"/>
<polygon fill="midnightblue" stroke="midnightblue" points="80.3798,-38.1256 69.7951,-38.589 78.3586,-44.8274 80.3798,-38.1256"/>
</g>
<!-- Node8 -->
<g id="node8" class="node"><title>Node8</title>
<g id="a_node8"><a xlink:href="../../d2/d3e/class_level1.html#ac56e75129bb2946c38cfcf43608f3f05" target="_top" xlink:title="Level1.goNextLevel">
<polygon fill="white" stroke="black" points="110,-19.5 110,-38.5 220,-38.5 220,-19.5 110,-19.5"/>
<text text-anchor="middle" x="165" y="-26.5" font-family="Helvetica,sans-Serif" font-size="10.00">Level1.goNextLevel</text>
</a>
</g>
</g>
<!-- Node1&#45;&gt;Node8 -->
<g id="edge7" class="edge"><title>Node1&#45;&gt;Node8</title>
<path fill="none" stroke="midnightblue" d="M83.7974,-29C92.2368,-29 101.122,-29 109.782,-29"/>
<polygon fill="midnightblue" stroke="midnightblue" points="83.7695,-25.5001 73.7695,-29 83.7695,-32.5001 83.7695,-25.5001"/>
</g>
<!-- Node3 -->
<g id="node3" class="node"><title>Node3</title>
<g id="a_node3"><a xlink:href="../../d2/db8/class_menu.html#a53c8b072d5ec777994fed9ee76c98561" target="_top" xlink:title="Menu.handle">
<polygon fill="white" stroke="black" points="276,-57.5 276,-76.5 354,-76.5 354,-57.5 276,-57.5"/>
<text text-anchor="middle" x="315" y="-64.5" font-family="Helvetica,sans-Serif" font-size="10.00">Menu.handle</text>
</a>
</g>
</g>
<!-- Node2&#45;&gt;Node3 -->
<g id="edge2" class="edge"><title>Node2&#45;&gt;Node3</title>
<path fill="none" stroke="midnightblue" d="M228.579,-67C244.615,-67 261.383,-67 275.775,-67"/>
<polygon fill="midnightblue" stroke="midnightblue" points="228.179,-63.5001 218.179,-67 228.179,-70.5001 228.179,-63.5001"/>
</g>
<!-- Node4 -->
<g id="node4" class="node"><title>Node4</title>
<g id="a_node4"><a xlink:href="../../d2/db8/class_menu.html#aff7a7627619921545f94547ab6135007" target="_top" xlink:title="Menu.addButton">
<polygon fill="white" stroke="black" points="419,-57.5 419,-76.5 515,-76.5 515,-57.5 419,-57.5"/>
<text text-anchor="middle" x="467" y="-64.5" font-family="Helvetica,sans-Serif" font-size="10.00">Menu.addButton</text>
</a>
</g>
</g>
<!-- Node3&#45;&gt;Node4 -->
<g id="edge3" class="edge"><title>Node3&#45;&gt;Node4</title>
<path fill="none" stroke="midnightblue" d="M364.266,-67C381.793,-67 401.562,-67 418.98,-67"/>
<polygon fill="midnightblue" stroke="midnightblue" points="364.239,-63.5001 354.239,-67 364.239,-70.5001 364.239,-63.5001"/>
</g>
<!-- Node5 -->
<g id="node5" class="node"><title>Node5</title>
<g id="a_node5"><a xlink:href="../../d5/db1/class_game_over.html#abb505ac8c26999beff755f4c299370da" target="_top" xlink:title="GameOver.addAllButtons">
<polygon fill="white" stroke="black" points="560.5,-76.5 560.5,-95.5 697.5,-95.5 697.5,-76.5 560.5,-76.5"/>
<text text-anchor="middle" x="629" y="-83.5" font-family="Helvetica,sans-Serif" font-size="10.00">GameOver.addAllButtons</text>
</a>
</g>
</g>
<!-- Node4&#45;&gt;Node5 -->
<g id="edge4" class="edge"><title>Node4&#45;&gt;Node5</title>
<path fill="none" stroke="midnightblue" d="M525.367,-73.8123C536.739,-75.1628 548.776,-76.5921 560.45,-77.9784"/>
<polygon fill="midnightblue" stroke="midnightblue" points="525.483,-70.3016 515.14,-72.5979 524.657,-77.2527 525.483,-70.3016"/>
</g>
<!-- Node6 -->
<g id="node6" class="node"><title>Node6</title>
<g id="a_node6"><a xlink:href="../../d2/db8/class_menu.html#a461e62e606af2391013ce3aaf92a8cc7" target="_top" xlink:title="Menu.addAllButtons">
<polygon fill="white" stroke="black" points="572.5,-38.5 572.5,-57.5 685.5,-57.5 685.5,-38.5 572.5,-38.5"/>
<text text-anchor="middle" x="629" y="-45.5" font-family="Helvetica,sans-Serif" font-size="10.00">Menu.addAllButtons</text>
</a>
</g>
</g>
<!-- Node4&#45;&gt;Node6 -->
<g id="edge5" class="edge"><title>Node4&#45;&gt;Node6</title>
<path fill="none" stroke="midnightblue" d="M525.503,-60.1715C540.791,-58.3561 557.272,-56.3989 572.454,-54.5961"/>
<polygon fill="midnightblue" stroke="midnightblue" points="524.657,-56.7473 515.14,-61.4021 525.483,-63.6984 524.657,-56.7473"/>
</g>
<!-- Node7 -->
<g id="node7" class="node"><title>Node7</title>
<g id="a_node7"><a xlink:href="../../d2/db8/class_menu.html#a3c99ad09e9f2f975c1a0d0597642651a" target="_top" xlink:title="Menu.init">
<polygon fill="white" stroke="black" points="734,-38.5 734,-57.5 794,-57.5 794,-38.5 734,-38.5"/>
<text text-anchor="middle" x="764" y="-45.5" font-family="Helvetica,sans-Serif" font-size="10.00">Menu.init</text>
</a>
</g>
</g>
<!-- Node6&#45;&gt;Node7 -->
<g id="edge6" class="edge"><title>Node6&#45;&gt;Node7</title>
<path fill="none" stroke="midnightblue" d="M695.775,-48C709.094,-48 722.451,-48 733.71,-48"/>
<polygon fill="midnightblue" stroke="midnightblue" points="695.633,-44.5001 685.633,-48 695.633,-51.5001 695.633,-44.5001"/>
</g>
<!-- Node9 -->
<g id="node9" class="node"><title>Node9</title>
<g id="a_node9"><a xlink:href="../../d2/d3e/class_level1.html#a78a7fb5633734b1815af8db43db23a41" target="_top" xlink:title="Level1.updateSprites">
<polygon fill="white" stroke="black" points="256,-19.5 256,-38.5 374,-38.5 374,-19.5 256,-19.5"/>
<text text-anchor="middle" x="315" y="-26.5" font-family="Helvetica,sans-Serif" font-size="10.00">Level1.updateSprites</text>
</a>
</g>
</g>
<!-- Node8&#45;&gt;Node9 -->
<g id="edge8" class="edge"><title>Node8&#45;&gt;Node9</title>
<path fill="none" stroke="midnightblue" d="M230.429,-29C238.85,-29 247.44,-29 255.752,-29"/>
<polygon fill="midnightblue" stroke="midnightblue" points="230.269,-25.5001 220.269,-29 230.269,-32.5001 230.269,-25.5001"/>
</g>
<!-- Node10 -->
<g id="node10" class="node"><title>Node10</title>
<g id="a_node10"><a xlink:href="../../d2/d3e/class_level1.html#a324da1e22a7a87fa4bb1859b5774bdba" target="_top" xlink:title="Level1.updateFrame">
<polygon fill="white" stroke="black" points="410,-0.5 410,-19.5 524,-19.5 524,-0.5 410,-0.5"/>
<text text-anchor="middle" x="467" y="-7.5" font-family="Helvetica,sans-Serif" font-size="10.00">Level1.updateFrame</text>
</a>
</g>
</g>
<!-- Node9&#45;&gt;Node10 -->
<g id="edge9" class="edge"><title>Node9&#45;&gt;Node10</title>
<path fill="none" stroke="midnightblue" d="M384.386,-20.3377C392.941,-19.2541 401.612,-18.1558 409.949,-17.0998"/>
<polygon fill="midnightblue" stroke="midnightblue" points="383.904,-16.8707 374.423,-21.5997 384.784,-23.8152 383.904,-16.8707"/>
</g>
<!-- Node10&#45;&gt;Node1 -->
<g id="edge10" class="edge"><title>Node10&#45;&gt;Node1</title>
<path fill="none" stroke="midnightblue" d="M399.665,-4.92399C327.918,-0.614311 210.335,3.0158 110,-10 95.6411,-11.8627 80.0649,-15.7323 67.0851,-19.4961"/>
<polygon fill="midnightblue" stroke="midnightblue" points="399.712,-8.43362 409.91,-5.56287 400.148,-1.44719 399.712,-8.43362"/>
</g>
</g>
</svg>
