<?xml version="1.0" encoding="UTF-8" standalone="no"?>
<!DOCTYPE svg PUBLIC "-//W3C//DTD SVG 1.1//EN"
 "http://www.w3.org/Graphics/SVG/1.1/DTD/svg11.dtd">
<!-- Generated by graphviz version 2.36.0 (20140111.2315)
 -->
<!-- Title: Level1.updateSprites Pages: 1 -->
<svg width="1048pt" height="104pt"
 viewBox="0.00 0.00 1048.00 104.00" xmlns="http://www.w3.org/2000/svg" xmlns:xlink="http://www.w3.org/1999/xlink">
<g id="graph0" class="graph" transform="scale(1 1) rotate(0) translate(4 100)">
<title>Level1.updateSprites</title>
<polygon fill="white" stroke="none" points="-4,4 -4,-100 1044,-100 1044,4 -4,4"/>
<!-- Node1 -->
<g id="node1" class="node"><title>Node1</title>
<polygon fill="#bfbfbf" stroke="black" points="0,-19.5 0,-38.5 118,-38.5 118,-19.5 0,-19.5"/>
<text text-anchor="middle" x="59" y="-26.5" font-family="Helvetica,sans-Serif" font-size="10.00">Level1.updateSprites</text>
</g>
<!-- Node2 -->
<g id="node2" class="node"><title>Node2</title>
<g id="a_node2"><a xlink:href="../../d2/d3e/class_level1.html#a324da1e22a7a87fa4bb1859b5774bdba" target="_top" xlink:title="Level1.updateFrame">
<polygon fill="white" stroke="black" points="154,-38.5 154,-57.5 268,-57.5 268,-38.5 154,-38.5"/>
<text text-anchor="middle" x="211" y="-45.5" font-family="Helvetica,sans-Serif" font-size="10.00">Level1.updateFrame</text>
</a>
</g>
</g>
<!-- Node1&#45;&gt;Node2 -->
<g id="edge1" class="edge"><title>Node1&#45;&gt;Node2</title>
<path fill="none" stroke="midnightblue" d="M128.386,-37.6623C136.941,-38.7459 145.612,-39.8442 153.949,-40.9002"/>
<polygon fill="midnightblue" stroke="midnightblue" points="128.784,-34.1848 118.423,-36.4003 127.904,-41.1293 128.784,-34.1848"/>
</g>
<!-- Node3 -->
<g id="node3" class="node"><title>Node3</title>
<g id="a_node3"><a xlink:href="../../d2/d3e/class_level1.html#a0871325d07c0614d5f1f2df7df13b703" target="_top" xlink:title="Level1.start">
<polygon fill="white" stroke="black" points="304.5,-38.5 304.5,-57.5 377.5,-57.5 377.5,-38.5 304.5,-38.5"/>
<text text-anchor="middle" x="341" y="-45.5" font-family="Helvetica,sans-Serif" font-size="10.00">Level1.start</text>
</a>
</g>
</g>
<!-- Node2&#45;&gt;Node3 -->
<g id="edge2" class="edge"><title>Node2&#45;&gt;Node3</title>
<path fill="none" stroke="midnightblue" d="M278.221,-48C287.159,-48 296.039,-48 304.163,-48"/>
<polygon fill="midnightblue" stroke="midnightblue" points="278.143,-44.5001 268.143,-48 278.143,-51.5001 278.143,-44.5001"/>
</g>
<!-- Node4 -->
<g id="node4" class="node"><title>Node4</title>
<g id="a_node4"><a xlink:href="../../d2/db8/class_menu.html#ab6296880308728ced459f772430d025b" target="_top" xlink:title="Menu.createGame">
<polygon fill="white" stroke="black" points="416,-38.5 416,-57.5 522,-57.5 522,-38.5 416,-38.5"/>
<text text-anchor="middle" x="469" y="-45.5" font-family="Helvetica,sans-Serif" font-size="10.00">Menu.createGame</text>
</a>
</g>
</g>
<!-- Node3&#45;&gt;Node4 -->
<g id="edge3" class="edge"><title>Node3&#45;&gt;Node4</title>
<path fill="none" stroke="midnightblue" d="M388.04,-48C397.024,-48 406.506,-48 415.676,-48"/>
<polygon fill="midnightblue" stroke="midnightblue" points="387.77,-44.5001 377.77,-48 387.769,-51.5001 387.77,-44.5001"/>
</g>
<!-- Node11 -->
<g id="node11" class="node"><title>Node11</title>
<g id="a_node11"><a xlink:href="../../d2/d3e/class_level1.html#ac56e75129bb2946c38cfcf43608f3f05" target="_top" xlink:title="Level1.goNextLevel">
<polygon fill="white" stroke="black" points="414,-0.5 414,-19.5 524,-19.5 524,-0.5 414,-0.5"/>
<text text-anchor="middle" x="469" y="-7.5" font-family="Helvetica,sans-Serif" font-size="10.00">Level1.goNextLevel</text>
</a>
</g>
</g>
<!-- Node3&#45;&gt;Node11 -->
<g id="edge10" class="edge"><title>Node3&#45;&gt;Node11</title>
<path fill="none" stroke="midnightblue" d="M383.564,-35.4647C400.705,-30.2952 420.25,-24.4009 436.215,-19.5859"/>
<polygon fill="midnightblue" stroke="midnightblue" points="382.359,-32.1726 373.795,-38.411 384.38,-38.8744 382.359,-32.1726"/>
</g>
<!-- Node5 -->
<g id="node5" class="node"><title>Node5</title>
<g id="a_node5"><a xlink:href="../../d2/db8/class_menu.html#a53c8b072d5ec777994fed9ee76c98561" target="_top" xlink:title="Menu.handle">
<polygon fill="white" stroke="black" points="560,-38.5 560,-57.5 638,-57.5 638,-38.5 560,-38.5"/>
<text text-anchor="middle" x="599" y="-45.5" font-family="Helvetica,sans-Serif" font-size="10.00">Menu.handle</text>
</a>
</g>
</g>
<!-- Node4&#45;&gt;Node5 -->
<g id="edge4" class="edge"><title>Node4&#45;&gt;Node5</title>
<path fill="none" stroke="midnightblue" d="M532.198,-48C541.592,-48 551.038,-48 559.726,-48"/>
<polygon fill="midnightblue" stroke="midnightblue" points="532.063,-44.5001 522.062,-48 532.062,-51.5001 532.063,-44.5001"/>
</g>
<!-- Node6 -->
<g id="node6" class="node"><title>Node6</title>
<g id="a_node6"><a xlink:href="../../d2/db8/class_menu.html#aff7a7627619921545f94547ab6135007" target="_top" xlink:title="Menu.addButton">
<polygon fill="white" stroke="black" points="674,-38.5 674,-57.5 770,-57.5 770,-38.5 674,-38.5"/>
<text text-anchor="middle" x="722" y="-45.5" font-family="Helvetica,sans-Serif" font-size="10.00">Menu.addButton</text>
</a>
</g>
</g>
<!-- Node5&#45;&gt;Node6 -->
<g id="edge5" class="edge"><title>Node5&#45;&gt;Node6</title>
<path fill="none" stroke="midnightblue" d="M648.539,-48C656.803,-48 665.377,-48 673.612,-48"/>
<polygon fill="midnightblue" stroke="midnightblue" points="648.285,-44.5001 638.285,-48 648.285,-51.5001 648.285,-44.5001"/>
</g>
<!-- Node7 -->
<g id="node7" class="node"><title>Node7</title>
<g id="a_node7"><a xlink:href="../../d5/db1/class_game_over.html#abb505ac8c26999beff755f4c299370da" target="_top" xlink:title="GameOver.addAllButtons">
<polygon fill="white" stroke="black" points="806.5,-76.5 806.5,-95.5 943.5,-95.5 943.5,-76.5 806.5,-76.5"/>
<text text-anchor="middle" x="875" y="-83.5" font-family="Helvetica,sans-Serif" font-size="10.00">GameOver.addAllButtons</text>
</a>
</g>
</g>
<!-- Node6&#45;&gt;Node7 -->
<g id="edge6" class="edge"><title>Node6&#45;&gt;Node7</title>
<path fill="none" stroke="midnightblue" d="M770.843,-60.04C791.939,-65.3488 816.377,-71.4988 836.17,-76.4799"/>
<polygon fill="midnightblue" stroke="midnightblue" points="771.656,-56.6354 761.104,-57.589 769.947,-63.4237 771.656,-56.6354"/>
</g>
<!-- Node8 -->
<g id="node8" class="node"><title>Node8</title>
<g id="a_node8"><a xlink:href="../../dd/d7f/class_game_win.html#a0ebbfe299d7456f57ae3dbf3817b7f8d" target="_top" xlink:title="GameWin.addAllButtons">
<polygon fill="white" stroke="black" points="809,-38.5 809,-57.5 941,-57.5 941,-38.5 809,-38.5"/>
<text text-anchor="middle" x="875" y="-45.5" font-family="Helvetica,sans-Serif" font-size="10.00">GameWin.addAllButtons</text>
</a>
</g>
</g>
<!-- Node6&#45;&gt;Node8 -->
<g id="edge7" class="edge"><title>Node6&#45;&gt;Node8</title>
<path fill="none" stroke="midnightblue" d="M780.592,-48C789.822,-48 799.431,-48 808.823,-48"/>
<polygon fill="midnightblue" stroke="midnightblue" points="780.363,-44.5001 770.363,-48 780.363,-51.5001 780.363,-44.5001"/>
</g>
<!-- Node9 -->
<g id="node9" class="node"><title>Node9</title>
<g id="a_node9"><a xlink:href="../../d2/db8/class_menu.html#a461e62e606af2391013ce3aaf92a8cc7" target="_top" xlink:title="Menu.addAllButtons">
<polygon fill="white" stroke="black" points="818.5,-0.5 818.5,-19.5 931.5,-19.5 931.5,-0.5 818.5,-0.5"/>
<text text-anchor="middle" x="875" y="-7.5" font-family="Helvetica,sans-Serif" font-size="10.00">Menu.addAllButtons</text>
</a>
</g>
</g>
<!-- Node6&#45;&gt;Node9 -->
<g id="edge8" class="edge"><title>Node6&#45;&gt;Node9</title>
<path fill="none" stroke="midnightblue" d="M770.843,-35.96C791.939,-30.6512 816.377,-24.5012 836.17,-19.5201"/>
<polygon fill="midnightblue" stroke="midnightblue" points="769.947,-32.5763 761.104,-38.411 771.656,-39.3646 769.947,-32.5763"/>
</g>
<!-- Node10 -->
<g id="node10" class="node"><title>Node10</title>
<g id="a_node10"><a xlink:href="../../d2/db8/class_menu.html#a3c99ad09e9f2f975c1a0d0597642651a" target="_top" xlink:title="Menu.init">
<polygon fill="white" stroke="black" points="980,-0.5 980,-19.5 1040,-19.5 1040,-0.5 980,-0.5"/>
<text text-anchor="middle" x="1010" y="-7.5" font-family="Helvetica,sans-Serif" font-size="10.00">Menu.init</text>
</a>
</g>
</g>
<!-- Node9&#45;&gt;Node10 -->
<g id="edge9" class="edge"><title>Node9&#45;&gt;Node10</title>
<path fill="none" stroke="midnightblue" d="M941.775,-10C955.094,-10 968.451,-10 979.71,-10"/>
<polygon fill="midnightblue" stroke="midnightblue" points="941.633,-6.5001 931.633,-10 941.633,-13.5001 941.633,-6.5001"/>
</g>
<!-- Node11&#45;&gt;Node1 -->
<g id="edge11" class="edge"><title>Node11&#45;&gt;Node1</title>
<path fill="none" stroke="midnightblue" d="M403.511,-13.0032C324.981,-16.6602 193.505,-22.7828 118.023,-26.2979"/>
<polygon fill="midnightblue" stroke="midnightblue" points="403.932,-16.4874 413.759,-12.5259 403.607,-9.49501 403.932,-16.4874"/>
</g>
</g>
</svg>
