<?xml version="1.0" encoding="UTF-8" standalone="no"?>
<!DOCTYPE svg PUBLIC "-//W3C//DTD SVG 1.1//EN"
 "http://www.w3.org/Graphics/SVG/1.1/DTD/svg11.dtd">
<!-- Generated by graphviz version 2.36.0 (20140111.2315)
 -->
<!-- Title: Level1.init Pages: 1 -->
<svg width="526pt" height="142pt"
 viewBox="0.00 0.00 526.00 142.00" xmlns="http://www.w3.org/2000/svg" xmlns:xlink="http://www.w3.org/1999/xlink">
<g id="graph0" class="graph" transform="scale(1 1) rotate(0) translate(4 138)">
<title>Level1.init</title>
<polygon fill="white" stroke="none" points="-4,4 -4,-138 522,-138 522,4 -4,4"/>
<!-- Node1 -->
<g id="node1" class="node"><title>Node1</title>
<polygon fill="#bfbfbf" stroke="black" points="0.5,-38.5 0.5,-57.5 65.5,-57.5 65.5,-38.5 0.5,-38.5"/>
<text text-anchor="middle" x="33" y="-45.5" font-family="Helvetica,sans-Serif" font-size="10.00">Level1.init</text>
</g>
<!-- Node2 -->
<g id="node2" class="node"><title>Node2</title>
<g id="a_node2"><a xlink:href="../../d2/d3e/class_level1.html#a7a6c3c5e659524ade852b1b959144034" target="_top" xlink:title="Level1.makeScene">
<polygon fill="white" stroke="black" points="102.5,-76.5 102.5,-95.5 209.5,-95.5 209.5,-76.5 102.5,-76.5"/>
<text text-anchor="middle" x="156" y="-83.5" font-family="Helvetica,sans-Serif" font-size="10.00">Level1.makeScene</text>
</a>
</g>
</g>
<!-- Node1&#45;&gt;Node2 -->
<g id="edge1" class="edge"><title>Node1&#45;&gt;Node2</title>
<path fill="none" stroke="midnightblue" d="M64.5334,-57.589C79.7234,-62.3594 98.2853,-68.1888 114.633,-73.3229"/>
<polygon fill="midnightblue" stroke="midnightblue" points="113.887,-76.757 124.476,-76.4141 115.984,-70.0786 113.887,-76.757"/>
</g>
<!-- Node7 -->
<g id="node7" class="node"><title>Node7</title>
<g id="a_node7"><a xlink:href="../../d2/d3e/class_level1.html#a59e45786a8a03f932910b3315ebb3ed4" target="_top" xlink:title="Level1.makeTimer">
<polygon fill="white" stroke="black" points="104,-38.5 104,-57.5 208,-57.5 208,-38.5 104,-38.5"/>
<text text-anchor="middle" x="156" y="-45.5" font-family="Helvetica,sans-Serif" font-size="10.00">Level1.makeTimer</text>
</a>
</g>
</g>
<!-- Node1&#45;&gt;Node7 -->
<g id="edge6" class="edge"><title>Node1&#45;&gt;Node7</title>
<path fill="none" stroke="midnightblue" d="M65.7913,-48C74.418,-48 84.0585,-48 93.7253,-48"/>
<polygon fill="midnightblue" stroke="midnightblue" points="93.7674,-51.5001 103.767,-48 93.7673,-44.5001 93.7674,-51.5001"/>
</g>
<!-- Node8 -->
<g id="node8" class="node"><title>Node8</title>
<g id="a_node8"><a xlink:href="../../d7/dbf/class_sprite.html#accdf1c21264c6ff648ece508cf176bfb" target="_top" xlink:title="Sprite.setVelocity">
<polygon fill="white" stroke="black" points="106,-0.5 106,-19.5 206,-19.5 206,-0.5 106,-0.5"/>
<text text-anchor="middle" x="156" y="-7.5" font-family="Helvetica,sans-Serif" font-size="10.00">Sprite.setVelocity</text>
</a>
</g>
</g>
<!-- Node1&#45;&gt;Node8 -->
<g id="edge7" class="edge"><title>Node1&#45;&gt;Node8</title>
<path fill="none" stroke="midnightblue" d="M64.5334,-38.411C79.7234,-33.6406 98.2853,-27.8112 114.633,-22.6771"/>
<polygon fill="midnightblue" stroke="midnightblue" points="115.984,-25.9214 124.476,-19.5859 113.887,-19.243 115.984,-25.9214"/>
</g>
<!-- Node3 -->
<g id="node3" class="node"><title>Node3</title>
<g id="a_node3"><a xlink:href="../../d2/d3e/class_level1.html#ac36d707d46288fb3ee16958317c6f68f" target="_top" xlink:title="Level1.handleMouseInput">
<polygon fill="white" stroke="black" points="246,-114.5 246,-133.5 384,-133.5 384,-114.5 246,-114.5"/>
<text text-anchor="middle" x="315" y="-121.5" font-family="Helvetica,sans-Serif" font-size="10.00">Level1.handleMouseInput</text>
</a>
</g>
</g>
<!-- Node2&#45;&gt;Node3 -->
<g id="edge2" class="edge"><title>Node2&#45;&gt;Node3</title>
<path fill="none" stroke="midnightblue" d="M196.618,-95.589C217.336,-100.604 242.888,-106.788 264.856,-112.105"/>
<polygon fill="midnightblue" stroke="midnightblue" points="264.124,-115.529 274.667,-114.48 265.771,-108.726 264.124,-115.529"/>
</g>
<!-- Node5 -->
<g id="node5" class="node"><title>Node5</title>
<g id="a_node5"><a xlink:href="../../d2/d3e/class_level1.html#a9ada798f6a1547c9ae408b800d76835b" target="_top" xlink:title="Level1.handleKeyInput">
<polygon fill="white" stroke="black" points="253.5,-76.5 253.5,-95.5 376.5,-95.5 376.5,-76.5 253.5,-76.5"/>
<text text-anchor="middle" x="315" y="-83.5" font-family="Helvetica,sans-Serif" font-size="10.00">Level1.handleKeyInput</text>
</a>
</g>
</g>
<!-- Node2&#45;&gt;Node5 -->
<g id="edge4" class="edge"><title>Node2&#45;&gt;Node5</title>
<path fill="none" stroke="midnightblue" d="M209.715,-86C220.423,-86 231.852,-86 243.071,-86"/>
<polygon fill="midnightblue" stroke="midnightblue" points="243.29,-89.5001 253.29,-86 243.29,-82.5001 243.29,-89.5001"/>
</g>
<!-- Node6 -->
<g id="node6" class="node"><title>Node6</title>
<g id="a_node6"><a xlink:href="../../d2/d3e/class_level1.html#a76b72ede88f469adb5f1b7da5ad39598" target="_top" xlink:title="Level1.handleKeyRelease">
<polygon fill="white" stroke="black" points="247,-38.5 247,-57.5 383,-57.5 383,-38.5 247,-38.5"/>
<text text-anchor="middle" x="315" y="-45.5" font-family="Helvetica,sans-Serif" font-size="10.00">Level1.handleKeyRelease</text>
</a>
</g>
</g>
<!-- Node2&#45;&gt;Node6 -->
<g id="edge5" class="edge"><title>Node2&#45;&gt;Node6</title>
<path fill="none" stroke="midnightblue" d="M196.618,-76.411C217.336,-71.3965 242.888,-65.2119 264.856,-59.8947"/>
<polygon fill="midnightblue" stroke="midnightblue" points="265.771,-63.2744 274.667,-57.5201 264.124,-56.4708 265.771,-63.2744"/>
</g>
<!-- Node4 -->
<g id="node4" class="node"><title>Node4</title>
<g id="a_node4"><a xlink:href="../../d8/d53/class_player.html#aabc2918b7a68a9557a2f01b243a21fa8" target="_top" xlink:title="Player.makeShot">
<polygon fill="white" stroke="black" points="420,-114.5 420,-133.5 518,-133.5 518,-114.5 420,-114.5"/>
<text text-anchor="middle" x="469" y="-121.5" font-family="Helvetica,sans-Serif" font-size="10.00">Player.makeShot</text>
</a>
</g>
</g>
<!-- Node3&#45;&gt;Node4 -->
<g id="edge3" class="edge"><title>Node3&#45;&gt;Node4</title>
<path fill="none" stroke="midnightblue" d="M384.441,-124C392.862,-124 401.409,-124 409.661,-124"/>
<polygon fill="midnightblue" stroke="midnightblue" points="409.926,-127.5 419.926,-124 409.926,-120.5 409.926,-127.5"/>
</g>
</g>
</svg>
