<?xml version="1.0" encoding="UTF-8" standalone="no"?>
<!DOCTYPE svg PUBLIC "-//W3C//DTD SVG 1.1//EN"
 "http://www.w3.org/Graphics/SVG/1.1/DTD/svg11.dtd">
<!-- Generated by graphviz version 2.36.0 (20140111.2315)
 -->
<!-- Title: Level1.makeScene Pages: 1 -->
<svg width="424pt" height="104pt"
 viewBox="0.00 0.00 424.00 104.00" xmlns="http://www.w3.org/2000/svg" xmlns:xlink="http://www.w3.org/1999/xlink">
<g id="graph0" class="graph" transform="scale(1 1) rotate(0) translate(4 100)">
<title>Level1.makeScene</title>
<polygon fill="white" stroke="none" points="-4,4 -4,-100 420,-100 420,4 -4,4"/>
<!-- Node1 -->
<g id="node1" class="node"><title>Node1</title>
<polygon fill="#bfbfbf" stroke="black" points="0.5,-38.5 0.5,-57.5 107.5,-57.5 107.5,-38.5 0.5,-38.5"/>
<text text-anchor="middle" x="54" y="-45.5" font-family="Helvetica,sans-Serif" font-size="10.00">Level1.makeScene</text>
</g>
<!-- Node2 -->
<g id="node2" class="node"><title>Node2</title>
<g id="a_node2"><a xlink:href="../../d2/d3e/class_level1.html#a9ada798f6a1547c9ae408b800d76835b" target="_top" xlink:title="Level1.handleKeyInput">
<polygon fill="white" stroke="black" points="151.5,-76.5 151.5,-95.5 274.5,-95.5 274.5,-76.5 151.5,-76.5"/>
<text text-anchor="middle" x="213" y="-83.5" font-family="Helvetica,sans-Serif" font-size="10.00">Level1.handleKeyInput</text>
</a>
</g>
</g>
<!-- Node1&#45;&gt;Node2 -->
<g id="edge1" class="edge"><title>Node1&#45;&gt;Node2</title>
<path fill="none" stroke="midnightblue" d="M94.6177,-57.589C115.336,-62.6035 140.888,-68.7881 162.856,-74.1053"/>
<polygon fill="midnightblue" stroke="midnightblue" points="162.124,-77.5292 172.667,-76.4799 163.771,-70.7256 162.124,-77.5292"/>
</g>
<!-- Node3 -->
<g id="node3" class="node"><title>Node3</title>
<g id="a_node3"><a xlink:href="../../d2/d3e/class_level1.html#a76b72ede88f469adb5f1b7da5ad39598" target="_top" xlink:title="Level1.handleKeyRelease">
<polygon fill="white" stroke="black" points="145,-38.5 145,-57.5 281,-57.5 281,-38.5 145,-38.5"/>
<text text-anchor="middle" x="213" y="-45.5" font-family="Helvetica,sans-Serif" font-size="10.00">Level1.handleKeyRelease</text>
</a>
</g>
</g>
<!-- Node1&#45;&gt;Node3 -->
<g id="edge2" class="edge"><title>Node1&#45;&gt;Node3</title>
<path fill="none" stroke="midnightblue" d="M107.715,-48C116.388,-48 125.534,-48 134.658,-48"/>
<polygon fill="midnightblue" stroke="midnightblue" points="134.925,-51.5001 144.925,-48 134.925,-44.5001 134.925,-51.5001"/>
</g>
<!-- Node4 -->
<g id="node4" class="node"><title>Node4</title>
<g id="a_node4"><a xlink:href="../../d2/d3e/class_level1.html#ac36d707d46288fb3ee16958317c6f68f" target="_top" xlink:title="Level1.handleMouseInput">
<polygon fill="white" stroke="black" points="144,-0.5 144,-19.5 282,-19.5 282,-0.5 144,-0.5"/>
<text text-anchor="middle" x="213" y="-7.5" font-family="Helvetica,sans-Serif" font-size="10.00">Level1.handleMouseInput</text>
</a>
</g>
</g>
<!-- Node1&#45;&gt;Node4 -->
<g id="edge3" class="edge"><title>Node1&#45;&gt;Node4</title>
<path fill="none" stroke="midnightblue" d="M94.6177,-38.411C115.336,-33.3965 140.888,-27.2119 162.856,-21.8947"/>
<polygon fill="midnightblue" stroke="midnightblue" points="163.771,-25.2744 172.667,-19.5201 162.124,-18.4708 163.771,-25.2744"/>
</g>
<!-- Node5 -->
<g id="node5" class="node"><title>Node5</title>
<g id="a_node5"><a xlink:href="../../d8/d53/class_player.html#aabc2918b7a68a9557a2f01b243a21fa8" target="_top" xlink:title="Player.makeShot">
<polygon fill="white" stroke="black" points="318,-0.5 318,-19.5 416,-19.5 416,-0.5 318,-0.5"/>
<text text-anchor="middle" x="367" y="-7.5" font-family="Helvetica,sans-Serif" font-size="10.00">Player.makeShot</text>
</a>
</g>
</g>
<!-- Node4&#45;&gt;Node5 -->
<g id="edge4" class="edge"><title>Node4&#45;&gt;Node5</title>
<path fill="none" stroke="midnightblue" d="M282.441,-10C290.862,-10 299.409,-10 307.661,-10"/>
<polygon fill="midnightblue" stroke="midnightblue" points="307.926,-13.5001 317.926,-10 307.926,-6.5001 307.926,-13.5001"/>
</g>
</g>
</svg>
