<?xml version="1.0" encoding="UTF-8" standalone="no"?>
<!DOCTYPE svg PUBLIC "-//W3C//DTD SVG 1.1//EN"
 "http://www.w3.org/Graphics/SVG/1.1/DTD/svg11.dtd">
<!-- Generated by graphviz version 2.36.0 (20140111.2315)
 -->
<!-- Title: Level1.goNextLevel Pages: 1 -->
<!--zoomable 446 -->
<svg id="main" version="1.1" xmlns="http://www.w3.org/2000/svg" xmlns:xlink="http://www.w3.org/1999/xlink" xml:space="preserve" onload="init(evt)">
<style type="text/css"><![CDATA[
.edge:hover path { stroke: red; }
.edge:hover polygon { stroke: red; fill: red; }
]]></style>
<script type="text/javascript"><![CDATA[
var edges = document.getElementsByTagName('g');
if (edges && edges.length) {
  for (var i=0;i<edges.length;i++) {
    if (edges[i].id.substr(0,4)=='edge') {
      edges[i].setAttribute('class','edge');
    }
  }
}
]]></script>
        <defs>
                <circle id="rim" cx="0" cy="0" r="7"/>
                <circle id="rim2" cx="0" cy="0" r="3.5"/>
                <g id="zoomPlus">
                        <use xlink:href="#rim" fill="#404040">
                                <set attributeName="fill" to="#808080" begin="zoomplus.mouseover" end="zoomplus.mouseout"/>
                        </use>
                        <path d="M-4,0h8M0,-4v8" fill="none" stroke="white" stroke-width="1.5" pointer-events="none"/>
                </g>
                <g id="zoomMin">
                        <use xlink:href="#rim" fill="#404040">
                                <set attributeName="fill" to="#808080" begin="zoomminus.mouseover" end="zoomminus.mouseout"/>
                        </use>
                        <path d="M-4,0h8" fill="none" stroke="white" stroke-width="1.5" pointer-events="none"/>
                </g>
                <g id="dirArrow">
                        <path fill="none" stroke="white" stroke-width="1.5" d="M0,-3.0v7 M-2.5,-0.5L0,-3.0L2.5,-0.5"/>
                </g>
               <g id="resetDef">
                       <use xlink:href="#rim2" fill="#404040">
                               <set attributeName="fill" to="#808080" begin="reset.mouseover" end="reset.mouseout"/>
                       </use>
               </g>
        </defs>

<script type="text/javascript">
var viewWidth = 1256;
var viewHeight = 446;
var sectionId = 'dynsection-5';
</script>
<script xlink:href="../../svgpan.js"/>
<svg id="graph" class="graph">
<g id="viewport">
<title>Level1.goNextLevel</title>
<polygon fill="white" stroke="none" points="-4,4 -4,-442 1252,-442 1252,4 -4,4"/>
<!-- Node1 -->
<g id="node1" class="node"><title>Node1</title>
<polygon fill="#bfbfbf" stroke="black" points="0,-114.5 0,-133.5 110,-133.5 110,-114.5 0,-114.5"/>
<text text-anchor="middle" x="55" y="-121.5" font-family="Helvetica,sans-Serif" font-size="10.00">Level1.goNextLevel</text>
</g>
<!-- Node2 -->
<g id="node2" class="node"><title>Node2</title>
<g id="a_node2"><a xlink:href="../../d2/d3e/class_level1.html#ac4098d447b9841cabec6be3bb719bd26" target="_top" xlink:title="Level1.clearElements">
<polygon fill="white" stroke="black" points="790.5,-133.5 790.5,-152.5 909.5,-152.5 909.5,-133.5 790.5,-133.5"/>
<text text-anchor="middle" x="850" y="-140.5" font-family="Helvetica,sans-Serif" font-size="10.00">Level1.clearElements</text>
</a>
</g>
</g>
<!-- Node1&#45;&gt;Node2 -->
<g id="edge1" class="edge"><title>Node1&#45;&gt;Node2</title>
<path fill="none" stroke="midnightblue" d="M102.903,-133.54C162.425,-144.796 268.383,-162 360,-162 360,-162 360,-162 514,-162 606.256,-162 712.573,-154.729 780.248,-149.182"/>
<polygon fill="midnightblue" stroke="midnightblue" points="780.681,-152.659 790.357,-148.343 780.102,-145.683 780.681,-152.659"/>
</g>
<!-- Node3 -->
<g id="node3" class="node"><title>Node3</title>
<g id="a_node3"><a xlink:href="../../d7/da7/class_character.html#a4dc23a76b34bcbb84abba1b116847268" target="_top" xlink:title="Character.getHP">
<polygon fill="white" stroke="black" points="802.5,-86.5 802.5,-105.5 897.5,-105.5 897.5,-86.5 802.5,-86.5"/>
<text text-anchor="middle" x="850" y="-93.5" font-family="Helvetica,sans-Serif" font-size="10.00">Character.getHP</text>
</a>
</g>
</g>
<!-- Node1&#45;&gt;Node3 -->
<g id="edge2" class="edge"><title>Node1&#45;&gt;Node3</title>
<path fill="none" stroke="midnightblue" d="M102.903,-114.46C162.425,-103.204 268.383,-86 360,-86 360,-86 360,-86 514,-86 611.759,-86 725.493,-90.3072 792.126,-93.2681"/>
<polygon fill="midnightblue" stroke="midnightblue" points="792.259,-96.7775 802.406,-93.7308 792.574,-89.7846 792.259,-96.7775"/>
</g>
<!-- Node4 -->
<g id="node4" class="node"><title>Node4</title>
<g id="a_node4"><a xlink:href="../../dd/d7a/class_enemy.html#a0b00e167bc151db783054dddb2f9b509" target="_top" xlink:title="Enemy.makeAngry">
<polygon fill="white" stroke="black" points="154,-0.5 154,-19.5 260,-19.5 260,-0.5 154,-0.5"/>
<text text-anchor="middle" x="207" y="-7.5" font-family="Helvetica,sans-Serif" font-size="10.00">Enemy.makeAngry</text>
</a>
</g>
</g>
<!-- Node1&#45;&gt;Node4 -->
<g id="edge3" class="edge"><title>Node1&#45;&gt;Node4</title>
<path fill="none" stroke="midnightblue" d="M62.4994,-114.394C75.8875,-95.3272 108.454,-52.5158 146,-29 149.342,-26.9066 152.935,-25.0259 156.641,-23.3394"/>
<polygon fill="midnightblue" stroke="midnightblue" points="158.058,-26.5413 166.008,-19.5369 155.425,-20.0554 158.058,-26.5413"/>
</g>
<!-- Node5 -->
<g id="node5" class="node"><title>Node5</title>
<g id="a_node5"><a xlink:href="../../d6/d21/class_screen.html#a5d40342bbe33c27c9e0e24bd8709d1f6" target="_top" xlink:title="Screen.showAndAnim">
<polygon fill="white" stroke="black" points="146.5,-38.5 146.5,-57.5 267.5,-57.5 267.5,-38.5 146.5,-38.5"/>
<text text-anchor="middle" x="207" y="-45.5" font-family="Helvetica,sans-Serif" font-size="10.00">Screen.showAndAnim</text>
</a>
</g>
</g>
<!-- Node1&#45;&gt;Node5 -->
<g id="edge4" class="edge"><title>Node1&#45;&gt;Node5</title>
<path fill="none" stroke="midnightblue" d="M70.9262,-114.487C88.4927,-103.502 118.731,-85.247 146,-72 153.677,-68.2708 162.089,-64.6388 170.122,-61.3754"/>
<polygon fill="midnightblue" stroke="midnightblue" points="171.65,-64.5344 179.657,-57.5958 169.071,-58.027 171.65,-64.5344"/>
</g>
<!-- Node9 -->
<g id="node9" class="node"><title>Node9</title>
<g id="a_node9"><a xlink:href="../../d2/d3e/class_level1.html#a0871325d07c0614d5f1f2df7df13b703" target="_top" xlink:title="Level1.start">
<polygon fill="white" stroke="black" points="170.5,-200.5 170.5,-219.5 243.5,-219.5 243.5,-200.5 170.5,-200.5"/>
<text text-anchor="middle" x="207" y="-207.5" font-family="Helvetica,sans-Serif" font-size="10.00">Level1.start</text>
</a>
</g>
</g>
<!-- Node1&#45;&gt;Node9 -->
<g id="edge8" class="edge"><title>Node1&#45;&gt;Node9</title>
<path fill="none" stroke="midnightblue" d="M72.5638,-133.626C90.6016,-144.095 120.313,-161.302 146,-176 157.172,-182.393 169.542,-189.412 180.134,-195.405"/>
<polygon fill="midnightblue" stroke="midnightblue" points="178.481,-198.491 188.909,-200.365 181.926,-192.398 178.481,-198.491"/>
</g>
<!-- Node6 -->
<g id="node6" class="node"><title>Node6</title>
<g id="a_node6"><a xlink:href="../../d6/d21/class_screen.html#a5d9534b81b96cfc0a00009dea6be6c09" target="_top" xlink:title="Screen.showScreen">
<polygon fill="white" stroke="black" points="794.5,-43.5 794.5,-62.5 905.5,-62.5 905.5,-43.5 794.5,-43.5"/>
<text text-anchor="middle" x="850" y="-50.5" font-family="Helvetica,sans-Serif" font-size="10.00">Screen.showScreen</text>
</a>
</g>
</g>
<!-- Node5&#45;&gt;Node6 -->
<g id="edge5" class="edge"><title>Node5&#45;&gt;Node6</title>
<path fill="none" stroke="midnightblue" d="M267.728,-48.4659C388.194,-49.4056 659.396,-51.521 784.069,-52.4935"/>
<polygon fill="midnightblue" stroke="midnightblue" points="784.202,-55.9946 794.229,-52.5728 784.257,-48.9948 784.202,-55.9946"/>
</g>
<!-- Node8 -->
<g id="node8" class="node"><title>Node8</title>
<g id="a_node8"><a xlink:href="../../d6/d21/class_screen.html#a601576a0d49770789b2eb08328f09c53" target="_top" xlink:title="Screen.startAnim">
<polygon fill="white" stroke="black" points="310.5,-0.5 310.5,-19.5 411.5,-19.5 411.5,-0.5 310.5,-0.5"/>
<text text-anchor="middle" x="361" y="-7.5" font-family="Helvetica,sans-Serif" font-size="10.00">Screen.startAnim</text>
</a>
</g>
</g>
<!-- Node5&#45;&gt;Node8 -->
<g id="edge7" class="edge"><title>Node5&#45;&gt;Node8</title>
<path fill="none" stroke="midnightblue" d="M246.356,-38.411C266.324,-33.4191 290.93,-27.2676 312.133,-21.9666"/>
<polygon fill="midnightblue" stroke="midnightblue" points="313.067,-25.341 321.92,-19.5201 311.369,-18.55 313.067,-25.341"/>
</g>
<!-- Node7 -->
<g id="node7" class="node"><title>Node7</title>
<g id="a_node7"><a xlink:href="../../d6/d21/class_screen.html#ac7ca0a382b3177bbea4e2a4e7c0f442e" target="_top" xlink:title="Screen.init">
<polygon fill="white" stroke="black" points="982,-43.5 982,-62.5 1050,-62.5 1050,-43.5 982,-43.5"/>
<text text-anchor="middle" x="1016" y="-50.5" font-family="Helvetica,sans-Serif" font-size="10.00">Screen.init</text>
</a>
</g>
</g>
<!-- Node6&#45;&gt;Node7 -->
<g id="edge6" class="edge"><title>Node6&#45;&gt;Node7</title>
<path fill="none" stroke="midnightblue" d="M905.61,-53C927.034,-53 951.276,-53 971.484,-53"/>
<polygon fill="midnightblue" stroke="midnightblue" points="971.649,-56.5001 981.648,-53 971.648,-49.5001 971.649,-56.5001"/>
</g>
<!-- Node10 -->
<g id="node10" class="node"><title>Node10</title>
<g id="a_node10"><a xlink:href="../../d2/d3e/class_level1.html#a324da1e22a7a87fa4bb1859b5774bdba" target="_top" xlink:title="Level1.updateFrame">
<polygon fill="white" stroke="black" points="304,-209.5 304,-228.5 418,-228.5 418,-209.5 304,-209.5"/>
<text text-anchor="middle" x="361" y="-216.5" font-family="Helvetica,sans-Serif" font-size="10.00">Level1.updateFrame</text>
</a>
</g>
</g>
<!-- Node9&#45;&gt;Node10 -->
<g id="edge9" class="edge"><title>Node9&#45;&gt;Node10</title>
<path fill="none" stroke="midnightblue" d="M243.637,-212.11C258.601,-212.996 276.505,-214.056 293.732,-215.076"/>
<polygon fill="midnightblue" stroke="midnightblue" points="293.579,-218.573 303.769,-215.671 293.993,-211.585 293.579,-218.573"/>
</g>
<!-- Node11 -->
<g id="node11" class="node"><title>Node11</title>
<g id="a_node11"><a xlink:href="../../d2/d3e/class_level1.html#a78a7fb5633734b1815af8db43db23a41" target="_top" xlink:title="Level1.updateSprites">
<polygon fill="white" stroke="black" points="454,-256.5 454,-275.5 572,-275.5 572,-256.5 454,-256.5"/>
<text text-anchor="middle" x="513" y="-263.5" font-family="Helvetica,sans-Serif" font-size="10.00">Level1.updateSprites</text>
</a>
</g>
</g>
<!-- Node10&#45;&gt;Node11 -->
<g id="edge10" class="edge"><title>Node10&#45;&gt;Node11</title>
<path fill="none" stroke="midnightblue" d="M392.355,-228.511C415.254,-235.686 446.883,-245.597 471.87,-253.426"/>
<polygon fill="midnightblue" stroke="midnightblue" points="470.844,-256.772 481.433,-256.422 472.937,-250.092 470.844,-256.772"/>
</g>
<!-- Node26 -->
<g id="node26" class="node"><title>Node26</title>
<g id="a_node26"><a xlink:href="../../d2/d3e/class_level1.html#a5f552e875916d0cf7a74896401584b2a" target="_top" xlink:title="Level1.updateTimer">
<polygon fill="white" stroke="black" points="457.5,-209.5 457.5,-228.5 568.5,-228.5 568.5,-209.5 457.5,-209.5"/>
<text text-anchor="middle" x="513" y="-216.5" font-family="Helvetica,sans-Serif" font-size="10.00">Level1.updateTimer</text>
</a>
</g>
</g>
<!-- Node10&#45;&gt;Node26 -->
<g id="edge32" class="edge"><title>Node10&#45;&gt;Node26</title>
<path fill="none" stroke="midnightblue" d="M418.281,-219C427.683,-219 437.504,-219 447.1,-219"/>
<polygon fill="midnightblue" stroke="midnightblue" points="447.394,-222.5 457.394,-219 447.394,-215.5 447.394,-222.5"/>
</g>
<!-- Node11&#45;&gt;Node1 -->
<g id="edge25" class="edge"><title>Node11&#45;&gt;Node1</title>
<path fill="none" stroke="midnightblue" d="M453.718,-272.883C378.18,-279.059 244.493,-280.46 146,-229 108.594,-209.457 80.1239,-167.246 65.9544,-142.712"/>
<polygon fill="midnightblue" stroke="midnightblue" points="68.8495,-140.717 60.9261,-133.683 62.7339,-144.122 68.8495,-140.717"/>
</g>
<!-- Node12 -->
<g id="node12" class="node"><title>Node12</title>
<g id="a_node12"><a xlink:href="../../d7/da7/class_character.html#ac0b4f4ace84c8e5aa60f05515806015d" target="_top" xlink:title="Character.setHP">
<polygon fill="white" stroke="black" points="633.5,-418.5 633.5,-437.5 728.5,-437.5 728.5,-418.5 633.5,-418.5"/>
<text text-anchor="middle" x="681" y="-425.5" font-family="Helvetica,sans-Serif" font-size="10.00">Character.setHP</text>
</a>
</g>
</g>
<!-- Node11&#45;&gt;Node12 -->
<g id="edge11" class="edge"><title>Node11&#45;&gt;Node12</title>
<path fill="none" stroke="midnightblue" d="M517.526,-275.764C527.43,-301.754 558.077,-373.085 608,-409 612.773,-412.434 618.123,-415.248 623.694,-417.553"/>
<polygon fill="midnightblue" stroke="midnightblue" points="622.622,-420.886 633.216,-420.972 624.987,-414.298 622.622,-420.886"/>
</g>
<!-- Node13 -->
<g id="node13" class="node"><title>Node13</title>
<g id="a_node13"><a xlink:href="../../dd/d7a/class_enemy.html#ab653212b50d9e64ba497ae18696d3678" target="_top" xlink:title="Enemy.moveSprite">
<polygon fill="white" stroke="black" points="627.5,-266.5 627.5,-285.5 734.5,-285.5 734.5,-266.5 627.5,-266.5"/>
<text text-anchor="middle" x="681" y="-273.5" font-family="Helvetica,sans-Serif" font-size="10.00">Enemy.moveSprite</text>
</a>
</g>
</g>
<!-- Node11&#45;&gt;Node13 -->
<g id="edge12" class="edge"><title>Node11&#45;&gt;Node13</title>
<path fill="none" stroke="midnightblue" d="M572.059,-269.498C586.644,-270.376 602.362,-271.323 617.169,-272.215"/>
<polygon fill="midnightblue" stroke="midnightblue" points="617.056,-275.714 627.248,-272.822 617.477,-268.727 617.056,-275.714"/>
</g>
<!-- Node17 -->
<g id="node17" class="node"><title>Node17</title>
<g id="a_node17"><a xlink:href="../../d8/d53/class_player.html#a1b7a0a6c68deb202a672d42e205d5a21" target="_top" xlink:title="Player.moveSprite">
<polygon fill="white" stroke="black" points="629,-304.5 629,-323.5 733,-323.5 733,-304.5 629,-304.5"/>
<text text-anchor="middle" x="681" y="-311.5" font-family="Helvetica,sans-Serif" font-size="10.00">Player.moveSprite</text>
</a>
</g>
</g>
<!-- Node11&#45;&gt;Node17 -->
<g id="edge16" class="edge"><title>Node11&#45;&gt;Node17</title>
<path fill="none" stroke="midnightblue" d="M543.963,-275.589C562.38,-281.397 586.49,-288.847 608,-295 615.953,-297.275 624.428,-299.6 632.668,-301.807"/>
<polygon fill="midnightblue" stroke="midnightblue" points="631.987,-305.248 642.55,-304.43 633.783,-298.482 631.987,-305.248"/>
</g>
<!-- Node18 -->
<g id="node18" class="node"><title>Node18</title>
<g id="a_node18"><a xlink:href="../../dd/d7a/class_enemy.html#a9b6840dcc6b8165268e957fc43d95b06" target="_top" xlink:title="Enemy.makePoop">
<polygon fill="white" stroke="black" points="630,-342.5 630,-361.5 732,-361.5 732,-342.5 630,-342.5"/>
<text text-anchor="middle" x="681" y="-349.5" font-family="Helvetica,sans-Serif" font-size="10.00">Enemy.makePoop</text>
</a>
</g>
</g>
<!-- Node11&#45;&gt;Node18 -->
<g id="edge19" class="edge"><title>Node11&#45;&gt;Node18</title>
<path fill="none" stroke="midnightblue" d="M524.745,-275.675C541.399,-290.181 574.979,-317.51 608,-333 613.047,-335.368 618.437,-337.477 623.911,-339.348"/>
<polygon fill="midnightblue" stroke="midnightblue" points="623.21,-342.796 633.8,-342.461 625.313,-336.119 623.21,-342.796"/>
</g>
<!-- Node19 -->
<g id="node19" class="node"><title>Node19</title>
<g id="a_node19"><a xlink:href="../../d2/d3e/class_level1.html#aa75f107bf925594da75a1d82cf64044d" target="_top" xlink:title="Level1.returnCollisions">
<polygon fill="white" stroke="black" points="619,-380.5 619,-399.5 743,-399.5 743,-380.5 619,-380.5"/>
<text text-anchor="middle" x="681" y="-387.5" font-family="Helvetica,sans-Serif" font-size="10.00">Level1.returnCollisions</text>
</a>
</g>
</g>
<!-- Node11&#45;&gt;Node19 -->
<g id="edge21" class="edge"><title>Node11&#45;&gt;Node19</title>
<path fill="none" stroke="midnightblue" d="M519.729,-275.518C532.707,-296.232 566.474,-345.579 608,-371 611.437,-373.104 615.105,-374.977 618.895,-376.645"/>
<polygon fill="midnightblue" stroke="midnightblue" points="617.923,-380.022 628.512,-380.381 620.458,-373.497 617.923,-380.022"/>
</g>
<!-- Node23 -->
<g id="node23" class="node"><title>Node23</title>
<g id="a_node23"><a xlink:href="../../d2/d3e/class_level1.html#a5e6976ef755d0e678034870e374ee4ca" target="_top" xlink:title="Level1.goGameOver">
<polygon fill="white" stroke="black" points="624,-114.5 624,-133.5 738,-133.5 738,-114.5 624,-114.5"/>
<text text-anchor="middle" x="681" y="-121.5" font-family="Helvetica,sans-Serif" font-size="10.00">Level1.goGameOver</text>
</a>
</g>
</g>
<!-- Node11&#45;&gt;Node23 -->
<g id="edge26" class="edge"><title>Node11&#45;&gt;Node23</title>
<path fill="none" stroke="midnightblue" d="M541.59,-256.426C551.909,-251.932 563.24,-245.817 572,-238 594.355,-218.049 587.969,-203.283 608,-181 622.434,-164.944 641.745,-149.924 656.734,-139.338"/>
<polygon fill="midnightblue" stroke="midnightblue" points="658.746,-142.202 664.99,-133.643 654.771,-136.44 658.746,-142.202"/>
</g>
<!-- Node24 -->
<g id="node24" class="node"><title>Node24</title>
<g id="a_node24"><a xlink:href="../../d2/d3e/class_level1.html#a5995ba731849ced54b8f97fcc93ce4d9" target="_top" xlink:title="Level1.removeFromScreen">
<polygon fill="white" stroke="black" points="608.5,-228.5 608.5,-247.5 753.5,-247.5 753.5,-228.5 608.5,-228.5"/>
<text text-anchor="middle" x="681" y="-235.5" font-family="Helvetica,sans-Serif" font-size="10.00">Level1.removeFromScreen</text>
</a>
</g>
</g>
<!-- Node11&#45;&gt;Node24 -->
<g id="edge30" class="edge"><title>Node11&#45;&gt;Node24</title>
<path fill="none" stroke="midnightblue" d="M570.663,-256.442C584.419,-254.122 599.251,-251.62 613.418,-249.231"/>
<polygon fill="midnightblue" stroke="midnightblue" points="614.313,-252.629 623.592,-247.515 613.149,-245.727 614.313,-252.629"/>
</g>
<!-- Node25 -->
<g id="node25" class="node"><title>Node25</title>
<g id="a_node25"><a xlink:href="../../d7/da7/class_character.html#aad64a9dc8ceea8b806cf2e1908cd0df8" target="_top" xlink:title="Character.setFull">
<polygon fill="white" stroke="black" points="633,-190.5 633,-209.5 729,-209.5 729,-190.5 633,-190.5"/>
<text text-anchor="middle" x="681" y="-197.5" font-family="Helvetica,sans-Serif" font-size="10.00">Character.setFull</text>
</a>
</g>
</g>
<!-- Node11&#45;&gt;Node25 -->
<g id="edge31" class="edge"><title>Node11&#45;&gt;Node25</title>
<path fill="none" stroke="midnightblue" d="M534.219,-256.458C545.403,-251.124 559.524,-244.301 572,-238 588.149,-229.844 591.145,-225.573 608,-219 614.231,-216.57 620.884,-214.346 627.534,-212.345"/>
<polygon fill="midnightblue" stroke="midnightblue" points="628.574,-215.688 637.226,-209.573 626.649,-208.958 628.574,-215.688"/>
</g>
<!-- Node14 -->
<g id="node14" class="node"><title>Node14</title>
<g id="a_node14"><a xlink:href="../../d7/dbf/class_sprite.html#a4dd4a643703de09c632a0e7d70a570e7" target="_top" xlink:title="Sprite.getVelocity">
<polygon fill="white" stroke="black" points="799.5,-247.5 799.5,-266.5 900.5,-266.5 900.5,-247.5 799.5,-247.5"/>
<text text-anchor="middle" x="850" y="-254.5" font-family="Helvetica,sans-Serif" font-size="10.00">Sprite.getVelocity</text>
</a>
</g>
</g>
<!-- Node13&#45;&gt;Node14 -->
<g id="edge13" class="edge"><title>Node13&#45;&gt;Node14</title>
<path fill="none" stroke="midnightblue" d="M734.84,-269.988C752.094,-268.025 771.377,-265.831 789.111,-263.814"/>
<polygon fill="midnightblue" stroke="midnightblue" points="789.806,-267.257 799.347,-262.649 789.015,-260.302 789.806,-267.257"/>
</g>
<!-- Node15 -->
<g id="node15" class="node"><title>Node15</title>
<g id="a_node15"><a xlink:href="../../d7/dbf/class_sprite.html#ab8f846b7ba77ae72ad09f48da22ceea7" target="_top" xlink:title="Sprite.moveSprite">
<polygon fill="white" stroke="black" points="798,-285.5 798,-304.5 902,-304.5 902,-285.5 798,-285.5"/>
<text text-anchor="middle" x="850" y="-292.5" font-family="Helvetica,sans-Serif" font-size="10.00">Sprite.moveSprite</text>
</a>
</g>
</g>
<!-- Node13&#45;&gt;Node15 -->
<g id="edge14" class="edge"><title>Node13&#45;&gt;Node15</title>
<path fill="none" stroke="midnightblue" d="M734.84,-282.012C751.695,-283.929 770.485,-286.067 787.877,-288.046"/>
<polygon fill="midnightblue" stroke="midnightblue" points="787.599,-291.537 797.93,-289.19 788.39,-284.582 787.599,-291.537"/>
</g>
<!-- Node16 -->
<g id="node16" class="node"><title>Node16</title>
<g id="a_node16"><a xlink:href="../../d7/dbf/class_sprite.html#accdf1c21264c6ff648ece508cf176bfb" target="_top" xlink:title="Sprite.setVelocity">
<polygon fill="white" stroke="black" points="800,-323.5 800,-342.5 900,-342.5 900,-323.5 800,-323.5"/>
<text text-anchor="middle" x="850" y="-330.5" font-family="Helvetica,sans-Serif" font-size="10.00">Sprite.setVelocity</text>
</a>
</g>
</g>
<!-- Node13&#45;&gt;Node16 -->
<g id="edge15" class="edge"><title>Node13&#45;&gt;Node16</title>
<path fill="none" stroke="midnightblue" d="M724.774,-285.573C734.517,-288.224 744.726,-291.383 754,-295 770.855,-301.573 773.327,-306.978 790,-314 795.145,-316.167 800.627,-318.235 806.099,-320.157"/>
<polygon fill="midnightblue" stroke="midnightblue" points="805.268,-323.57 815.862,-323.446 807.503,-316.936 805.268,-323.57"/>
</g>
<!-- Node17&#45;&gt;Node15 -->
<g id="edge18" class="edge"><title>Node17&#45;&gt;Node15</title>
<path fill="none" stroke="midnightblue" d="M733.013,-308.196C750.253,-306.235 769.681,-304.024 787.637,-301.981"/>
<polygon fill="midnightblue" stroke="midnightblue" points="788.184,-305.442 797.724,-300.834 787.392,-298.487 788.184,-305.442"/>
</g>
<!-- Node17&#45;&gt;Node16 -->
<g id="edge17" class="edge"><title>Node17&#45;&gt;Node16</title>
<path fill="none" stroke="midnightblue" d="M733.013,-319.804C750.899,-321.839 771.142,-324.142 789.652,-326.248"/>
<polygon fill="midnightblue" stroke="midnightblue" points="789.399,-329.742 799.731,-327.395 790.191,-322.786 789.399,-329.742"/>
</g>
<!-- Node18&#45;&gt;Node16 -->
<g id="edge20" class="edge"><title>Node18&#45;&gt;Node16</title>
<path fill="none" stroke="midnightblue" d="M732.106,-346.299C750.266,-344.233 770.951,-341.88 789.82,-339.733"/>
<polygon fill="midnightblue" stroke="midnightblue" points="790.252,-343.207 799.792,-338.598 789.461,-336.251 790.252,-343.207"/>
</g>
<!-- Node20 -->
<g id="node20" class="node"><title>Node20</title>
<g id="a_node20"><a xlink:href="../../d7/da7/class_character.html#aa2149c166e797ae0ded67d9f768ac7f3" target="_top" xlink:title="Character.updateAll">
<polygon fill="white" stroke="black" points="794.5,-380.5 794.5,-399.5 905.5,-399.5 905.5,-380.5 794.5,-380.5"/>
<text text-anchor="middle" x="850" y="-387.5" font-family="Helvetica,sans-Serif" font-size="10.00">Character.updateAll</text>
</a>
</g>
</g>
<!-- Node19&#45;&gt;Node20 -->
<g id="edge22" class="edge"><title>Node19&#45;&gt;Node20</title>
<path fill="none" stroke="midnightblue" d="M743.236,-390C756.589,-390 770.761,-390 784.245,-390"/>
<polygon fill="midnightblue" stroke="midnightblue" points="784.397,-393.5 794.397,-390 784.397,-386.5 784.397,-393.5"/>
</g>
<!-- Node21 -->
<g id="node21" class="node"><title>Node21</title>
<g id="a_node21"><a xlink:href="../../d7/da7/class_character.html#ade25acccb27ac9aeb2752b2df29d075f" target="_top" xlink:title="Character.collisionUpdate">
<polygon fill="white" stroke="black" points="946.5,-380.5 946.5,-399.5 1085.5,-399.5 1085.5,-380.5 946.5,-380.5"/>
<text text-anchor="middle" x="1016" y="-387.5" font-family="Helvetica,sans-Serif" font-size="10.00">Character.collisionUpdate</text>
</a>
</g>
</g>
<!-- Node20&#45;&gt;Node21 -->
<g id="edge23" class="edge"><title>Node20&#45;&gt;Node21</title>
<path fill="none" stroke="midnightblue" d="M905.61,-390C915.393,-390 925.765,-390 936.072,-390"/>
<polygon fill="midnightblue" stroke="midnightblue" points="936.333,-393.5 946.333,-390 936.333,-386.5 936.333,-393.5"/>
</g>
<!-- Node22 -->
<g id="node22" class="node"><title>Node22</title>
<g id="a_node22"><a xlink:href="../../d7/da7/class_character.html#ad223fcb54929116326bf8816d43f5173" target="_top" xlink:title="Character.checkCollide">
<polygon fill="white" stroke="black" points="1122.5,-380.5 1122.5,-399.5 1247.5,-399.5 1247.5,-380.5 1122.5,-380.5"/>
<text text-anchor="middle" x="1185" y="-387.5" font-family="Helvetica,sans-Serif" font-size="10.00">Character.checkCollide</text>
</a>
</g>
</g>
<!-- Node21&#45;&gt;Node22 -->
<g id="edge24" class="edge"><title>Node21&#45;&gt;Node22</title>
<path fill="none" stroke="midnightblue" d="M1085.89,-390C1094.61,-390 1103.54,-390 1112.31,-390"/>
<polygon fill="midnightblue" stroke="midnightblue" points="1112.48,-393.5 1122.48,-390 1112.48,-386.5 1112.48,-393.5"/>
</g>
<!-- Node23&#45;&gt;Node2 -->
<g id="edge27" class="edge"><title>Node23&#45;&gt;Node2</title>
<path fill="none" stroke="midnightblue" d="M738.073,-130.38C751.569,-131.915 766.141,-133.573 780.145,-135.166"/>
<polygon fill="midnightblue" stroke="midnightblue" points="779.887,-138.659 790.218,-136.312 780.678,-131.704 779.887,-138.659"/>
</g>
<!-- Node23&#45;&gt;Node3 -->
<g id="edge28" class="edge"><title>Node23&#45;&gt;Node3</title>
<path fill="none" stroke="midnightblue" d="M738.073,-114.599C755.499,-111.677 774.719,-108.454 792.194,-105.524"/>
<polygon fill="midnightblue" stroke="midnightblue" points="792.972,-108.943 802.256,-103.837 791.815,-102.039 792.972,-108.943"/>
</g>
<!-- Node23&#45;&gt;Node6 -->
<g id="edge29" class="edge"><title>Node23&#45;&gt;Node6</title>
<path fill="none" stroke="midnightblue" d="M703.45,-114.484C725.196,-104.879 759.845,-89.6927 790,-77 798.278,-73.5158 807.242,-69.8267 815.623,-66.4134"/>
<polygon fill="midnightblue" stroke="midnightblue" points="817.168,-69.564 825.119,-62.5619 814.537,-63.0772 817.168,-69.564"/>
</g>
</g>
</svg>
        <g id="navigator" transform="translate(0 0)" fill="#404254">
                <rect fill="#f2f5e9" fill-opacity="0.5" stroke="#606060" stroke-width=".5" x="0" y="0" width="60" height="60"/>
                <use id="zoomplus" xlink:href="#zoomPlus" x="17" y="9" onmousedown="handleZoom(evt,'in')"/>
                <use id="zoomminus" xlink:href="#zoomMin" x="42" y="9" onmousedown="handleZoom(evt,'out')"/>
                <use id="reset" xlink:href="#resetDef" x="30" y="36" onmousedown="handleReset()"/>
                <g id="arrowUp" xlink:href="#dirArrow" transform="translate(30 24)" onmousedown="handlePan(0,-1)">
                  <use xlink:href="#rim" fill="#404040">
                        <set attributeName="fill" to="#808080" begin="arrowUp.mouseover" end="arrowUp.mouseout"/>
                  </use>
                  <path fill="none" stroke="white" stroke-width="1.5" d="M0,-3.0v7 M-2.5,-0.5L0,-3.0L2.5,-0.5"/>
                </g>
                <g id="arrowRight" xlink:href="#dirArrow" transform="rotate(90) translate(36 -43)" onmousedown="handlePan(1,0)">
                  <use xlink:href="#rim" fill="#404040">
                        <set attributeName="fill" to="#808080" begin="arrowRight.mouseover" end="arrowRight.mouseout"/>
                  </use>
                  <path fill="none" stroke="white" stroke-width="1.5" d="M0,-3.0v7 M-2.5,-0.5L0,-3.0L2.5,-0.5"/>
                </g>
                <g id="arrowDown" xlink:href="#dirArrow" transform="rotate(180) translate(-30 -48)" onmousedown="handlePan(0,1)">
                  <use xlink:href="#rim" fill="#404040">
                        <set attributeName="fill" to="#808080" begin="arrowDown.mouseover" end="arrowDown.mouseout"/>
                  </use>
                  <path fill="none" stroke="white" stroke-width="1.5" d="M0,-3.0v7 M-2.5,-0.5L0,-3.0L2.5,-0.5"/>
                </g>
                <g id="arrowLeft" xlink:href="#dirArrow" transform="rotate(270) translate(-36 17)" onmousedown="handlePan(-1,0)">
                  <use xlink:href="#rim" fill="#404040">
                        <set attributeName="fill" to="#808080" begin="arrowLeft.mouseover" end="arrowLeft.mouseout"/>
                  </use>
                  <path fill="none" stroke="white" stroke-width="1.5" d="M0,-3.0v7 M-2.5,-0.5L0,-3.0L2.5,-0.5"/>
                </g>
        </g>
        <svg viewBox="0 0 15 15" width="100%" height="30px" preserveAspectRatio="xMaxYMin meet">
         <g id="arrow_out" transform="scale(0.3 0.3)">
          <a xlink:href="class_level1_ac56e75129bb2946c38cfcf43608f3f05_cgraph_org.svg" target="_base">
           <rect id="button" ry="5" rx="5" y="6" x="6" height="38" width="38"
                fill="#f2f5e9" fill-opacity="0.5" stroke="#606060" stroke-width="1.0"/>
           <path id="arrow"
             d="M 11.500037,31.436501 C 11.940474,20.09759 22.043105,11.32322 32.158766,21.979434 L 37.068811,17.246167 C 37.068811,17.246167 37.088388,32 37.088388,32 L 22.160133,31.978069 C 22.160133,31.978069 26.997745,27.140456 26.997745,27.140456 C 18.528582,18.264221 13.291696,25.230495 11.500037,31.436501 z"
             style="fill:#404040;"/>
          </a>
         </g>
        </svg>
</svg>
