<?xml version="1.0" encoding="UTF-8" standalone="no"?>
<!DOCTYPE svg PUBLIC "-//W3C//DTD SVG 1.1//EN"
 "http://www.w3.org/Graphics/SVG/1.1/DTD/svg11.dtd">
<!-- Generated by graphviz version 2.36.0 (20140111.2315)
 -->
<!-- Title: Level1.goNextLevel Pages: 1 -->
<svg width="1256pt" height="370pt"
 viewBox="0.00 0.00 1256.00 370.00" xmlns="http://www.w3.org/2000/svg" xmlns:xlink="http://www.w3.org/1999/xlink">
<g id="graph0" class="graph" transform="scale(1 1) rotate(0) translate(4 366)">
<title>Level1.goNextLevel</title>
<polygon fill="white" stroke="none" points="-4,4 -4,-366 1252,-366 1252,4 -4,4"/>
<!-- Node1 -->
<g id="node1" class="node"><title>Node1</title>
<polygon fill="#bfbfbf" stroke="black" points="0,-114.5 0,-133.5 110,-133.5 110,-114.5 0,-114.5"/>
<text text-anchor="middle" x="55" y="-121.5" font-family="Helvetica,sans-Serif" font-size="10.00">Level1.goNextLevel</text>
</g>
<!-- Node2 -->
<g id="node2" class="node"><title>Node2</title>
<g id="a_node2"><a xlink:href="../../d2/d3e/class_level1.html#ac4098d447b9841cabec6be3bb719bd26" target="_top" xlink:title="Level1.clearElements">
<polygon fill="white" stroke="black" points="790.5,-133.5 790.5,-152.5 909.5,-152.5 909.5,-133.5 790.5,-133.5"/>
<text text-anchor="middle" x="850" y="-140.5" font-family="Helvetica,sans-Serif" font-size="10.00">Level1.clearElements</text>
</a>
</g>
</g>
<!-- Node1&#45;&gt;Node2 -->
<g id="edge1" class="edge"><title>Node1&#45;&gt;Node2</title>
<path fill="none" stroke="midnightblue" d="M102.903,-133.54C162.425,-144.796 268.383,-162 360,-162 360,-162 360,-162 514,-162 606.256,-162 712.573,-154.729 780.248,-149.182"/>
<polygon fill="midnightblue" stroke="midnightblue" points="780.681,-152.659 790.357,-148.343 780.102,-145.683 780.681,-152.659"/>
</g>
<!-- Node3 -->
<g id="node3" class="node"><title>Node3</title>
<g id="a_node3"><a xlink:href="../../d7/da7/class_character.html#a4dc23a76b34bcbb84abba1b116847268" target="_top" xlink:title="Character.getHP">
<polygon fill="white" stroke="black" points="802.5,-86.5 802.5,-105.5 897.5,-105.5 897.5,-86.5 802.5,-86.5"/>
<text text-anchor="middle" x="850" y="-93.5" font-family="Helvetica,sans-Serif" font-size="10.00">Character.getHP</text>
</a>
</g>
</g>
<!-- Node1&#45;&gt;Node3 -->
<g id="edge2" class="edge"><title>Node1&#45;&gt;Node3</title>
<path fill="none" stroke="midnightblue" d="M102.903,-114.46C162.425,-103.204 268.383,-86 360,-86 360,-86 360,-86 514,-86 611.759,-86 725.493,-90.3072 792.126,-93.2681"/>
<polygon fill="midnightblue" stroke="midnightblue" points="792.259,-96.7775 802.406,-93.7308 792.574,-89.7846 792.259,-96.7775"/>
</g>
<!-- Node4 -->
<g id="node4" class="node"><title>Node4</title>
<g id="a_node4"><a xlink:href="../../dd/d7a/class_enemy.html#a0b00e167bc151db783054dddb2f9b509" target="_top" xlink:title="Enemy.makeAngry">
<polygon fill="white" stroke="black" points="154,-0.5 154,-19.5 260,-19.5 260,-0.5 154,-0.5"/>
<text text-anchor="middle" x="207" y="-7.5" font-family="Helvetica,sans-Serif" font-size="10.00">Enemy.makeAngry</text>
</a>
</g>
</g>
<!-- Node1&#45;&gt;Node4 -->
<g id="edge3" class="edge"><title>Node1&#45;&gt;Node4</title>
<path fill="none" stroke="midnightblue" d="M62.4994,-114.394C75.8875,-95.3272 108.454,-52.5158 146,-29 149.342,-26.9066 152.935,-25.0259 156.641,-23.3394"/>
<polygon fill="midnightblue" stroke="midnightblue" points="158.058,-26.5413 166.008,-19.5369 155.425,-20.0554 158.058,-26.5413"/>
</g>
<!-- Node5 -->
<g id="node5" class="node"><title>Node5</title>
<g id="a_node5"><a xlink:href="../../d6/d21/class_screen.html#a5d40342bbe33c27c9e0e24bd8709d1f6" target="_top" xlink:title="Screen.showAndAnim">
<polygon fill="white" stroke="black" points="146.5,-38.5 146.5,-57.5 267.5,-57.5 267.5,-38.5 146.5,-38.5"/>
<text text-anchor="middle" x="207" y="-45.5" font-family="Helvetica,sans-Serif" font-size="10.00">Screen.showAndAnim</text>
</a>
</g>
</g>
<!-- Node1&#45;&gt;Node5 -->
<g id="edge4" class="edge"><title>Node1&#45;&gt;Node5</title>
<path fill="none" stroke="midnightblue" d="M70.9262,-114.487C88.4927,-103.502 118.731,-85.247 146,-72 153.677,-68.2708 162.089,-64.6388 170.122,-61.3754"/>
<polygon fill="midnightblue" stroke="midnightblue" points="171.65,-64.5344 179.657,-57.5958 169.071,-58.027 171.65,-64.5344"/>
</g>
<!-- Node9 -->
<g id="node9" class="node"><title>Node9</title>
<g id="a_node9"><a xlink:href="../../d2/d3e/class_level1.html#a0871325d07c0614d5f1f2df7df13b703" target="_top" xlink:title="Level1.start">
<polygon fill="white" stroke="black" points="170.5,-190.5 170.5,-209.5 243.5,-209.5 243.5,-190.5 170.5,-190.5"/>
<text text-anchor="middle" x="207" y="-197.5" font-family="Helvetica,sans-Serif" font-size="10.00">Level1.start</text>
</a>
</g>
</g>
<!-- Node1&#45;&gt;Node9 -->
<g id="edge8" class="edge"><title>Node1&#45;&gt;Node9</title>
<path fill="none" stroke="midnightblue" d="M70.9262,-133.513C88.4927,-144.498 118.731,-162.753 146,-176 153.677,-179.729 162.089,-183.361 170.122,-186.625"/>
<polygon fill="midnightblue" stroke="midnightblue" points="169.071,-189.973 179.657,-190.404 171.65,-183.466 169.071,-189.973"/>
</g>
<!-- Node6 -->
<g id="node6" class="node"><title>Node6</title>
<g id="a_node6"><a xlink:href="../../d6/d21/class_screen.html#a5d9534b81b96cfc0a00009dea6be6c09" target="_top" xlink:title="Screen.showScreen">
<polygon fill="white" stroke="black" points="794.5,-43.5 794.5,-62.5 905.5,-62.5 905.5,-43.5 794.5,-43.5"/>
<text text-anchor="middle" x="850" y="-50.5" font-family="Helvetica,sans-Serif" font-size="10.00">Screen.showScreen</text>
</a>
</g>
</g>
<!-- Node5&#45;&gt;Node6 -->
<g id="edge5" class="edge"><title>Node5&#45;&gt;Node6</title>
<path fill="none" stroke="midnightblue" d="M267.728,-48.4659C388.194,-49.4056 659.396,-51.521 784.069,-52.4935"/>
<polygon fill="midnightblue" stroke="midnightblue" points="784.202,-55.9946 794.229,-52.5728 784.257,-48.9948 784.202,-55.9946"/>
</g>
<!-- Node8 -->
<g id="node8" class="node"><title>Node8</title>
<g id="a_node8"><a xlink:href="../../d6/d21/class_screen.html#a601576a0d49770789b2eb08328f09c53" target="_top" xlink:title="Screen.startAnim">
<polygon fill="white" stroke="black" points="310.5,-0.5 310.5,-19.5 411.5,-19.5 411.5,-0.5 310.5,-0.5"/>
<text text-anchor="middle" x="361" y="-7.5" font-family="Helvetica,sans-Serif" font-size="10.00">Screen.startAnim</text>
</a>
</g>
</g>
<!-- Node5&#45;&gt;Node8 -->
<g id="edge7" class="edge"><title>Node5&#45;&gt;Node8</title>
<path fill="none" stroke="midnightblue" d="M246.356,-38.411C266.324,-33.4191 290.93,-27.2676 312.133,-21.9666"/>
<polygon fill="midnightblue" stroke="midnightblue" points="313.067,-25.341 321.92,-19.5201 311.369,-18.55 313.067,-25.341"/>
</g>
<!-- Node7 -->
<g id="node7" class="node"><title>Node7</title>
<g id="a_node7"><a xlink:href="../../d6/d21/class_screen.html#ac7ca0a382b3177bbea4e2a4e7c0f442e" target="_top" xlink:title="Screen.init">
<polygon fill="white" stroke="black" points="982,-43.5 982,-62.5 1050,-62.5 1050,-43.5 982,-43.5"/>
<text text-anchor="middle" x="1016" y="-50.5" font-family="Helvetica,sans-Serif" font-size="10.00">Screen.init</text>
</a>
</g>
</g>
<!-- Node6&#45;&gt;Node7 -->
<g id="edge6" class="edge"><title>Node6&#45;&gt;Node7</title>
<path fill="none" stroke="midnightblue" d="M905.61,-53C927.034,-53 951.276,-53 971.484,-53"/>
<polygon fill="midnightblue" stroke="midnightblue" points="971.649,-56.5001 981.648,-53 971.648,-49.5001 971.649,-56.5001"/>
</g>
<!-- Node10 -->
<g id="node10" class="node"><title>Node10</title>
<g id="a_node10"><a xlink:href="../../d2/d3e/class_level1.html#a324da1e22a7a87fa4bb1859b5774bdba" target="_top" xlink:title="Level1.updateFrame">
<polygon fill="white" stroke="black" points="304,-190.5 304,-209.5 418,-209.5 418,-190.5 304,-190.5"/>
<text text-anchor="middle" x="361" y="-197.5" font-family="Helvetica,sans-Serif" font-size="10.00">Level1.updateFrame</text>
</a>
</g>
</g>
<!-- Node9&#45;&gt;Node10 -->
<g id="edge9" class="edge"><title>Node9&#45;&gt;Node10</title>
<path fill="none" stroke="midnightblue" d="M243.637,-200C258.601,-200 276.505,-200 293.732,-200"/>
<polygon fill="midnightblue" stroke="midnightblue" points="293.769,-203.5 303.769,-200 293.769,-196.5 293.769,-203.5"/>
</g>
<!-- Node11 -->
<g id="node11" class="node"><title>Node11</title>
<g id="a_node11"><a xlink:href="../../d2/d3e/class_level1.html#a78a7fb5633734b1815af8db43db23a41" target="_top" xlink:title="Level1.updateSprites">
<polygon fill="white" stroke="black" points="454,-228.5 454,-247.5 572,-247.5 572,-228.5 454,-228.5"/>
<text text-anchor="middle" x="513" y="-235.5" font-family="Helvetica,sans-Serif" font-size="10.00">Level1.updateSprites</text>
</a>
</g>
</g>
<!-- Node10&#45;&gt;Node11 -->
<g id="edge10" class="edge"><title>Node10&#45;&gt;Node11</title>
<path fill="none" stroke="midnightblue" d="M399.851,-209.589C419.467,-214.558 443.619,-220.677 464.479,-225.961"/>
<polygon fill="midnightblue" stroke="midnightblue" points="463.868,-229.417 474.421,-228.48 465.587,-222.631 463.868,-229.417"/>
</g>
<!-- Node24 -->
<g id="node24" class="node"><title>Node24</title>
<g id="a_node24"><a xlink:href="../../d2/d3e/class_level1.html#a5f552e875916d0cf7a74896401584b2a" target="_top" xlink:title="Level1.updateTimer">
<polygon fill="white" stroke="black" points="457.5,-190.5 457.5,-209.5 568.5,-209.5 568.5,-190.5 457.5,-190.5"/>
<text text-anchor="middle" x="513" y="-197.5" font-family="Helvetica,sans-Serif" font-size="10.00">Level1.updateTimer</text>
</a>
</g>
</g>
<!-- Node10&#45;&gt;Node24 -->
<g id="edge30" class="edge"><title>Node10&#45;&gt;Node24</title>
<path fill="none" stroke="midnightblue" d="M418.281,-200C427.683,-200 437.504,-200 447.1,-200"/>
<polygon fill="midnightblue" stroke="midnightblue" points="447.394,-203.5 457.394,-200 447.394,-196.5 447.394,-203.5"/>
</g>
<!-- Node11&#45;&gt;Node1 -->
<g id="edge24" class="edge"><title>Node11&#45;&gt;Node1</title>
<path fill="none" stroke="midnightblue" d="M455.631,-247.503C381.017,-257.389 247.112,-265.634 146,-219 110.257,-202.515 81.6729,-164.833 66.928,-142.194"/>
<polygon fill="midnightblue" stroke="midnightblue" points="69.7601,-140.123 61.4756,-133.518 63.8334,-143.848 69.7601,-140.123"/>
</g>
<!-- Node12 -->
<g id="node12" class="node"><title>Node12</title>
<g id="a_node12"><a xlink:href="../../dd/d7a/class_enemy.html#ab653212b50d9e64ba497ae18696d3678" target="_top" xlink:title="Enemy.moveSprite">
<polygon fill="white" stroke="black" points="627.5,-304.5 627.5,-323.5 734.5,-323.5 734.5,-304.5 627.5,-304.5"/>
<text text-anchor="middle" x="681" y="-311.5" font-family="Helvetica,sans-Serif" font-size="10.00">Enemy.moveSprite</text>
</a>
</g>
</g>
<!-- Node11&#45;&gt;Node12 -->
<g id="edge11" class="edge"><title>Node11&#45;&gt;Node12</title>
<path fill="none" stroke="midnightblue" d="M527.043,-247.588C544.619,-260.103 577.257,-281.946 608,-295 613.701,-297.421 619.789,-299.601 625.921,-301.545"/>
<polygon fill="midnightblue" stroke="midnightblue" points="624.959,-304.911 635.542,-304.408 626.955,-298.202 624.959,-304.911"/>
</g>
<!-- Node16 -->
<g id="node16" class="node"><title>Node16</title>
<g id="a_node16"><a xlink:href="../../d8/d53/class_player.html#a1b7a0a6c68deb202a672d42e205d5a21" target="_top" xlink:title="Player.moveSprite">
<polygon fill="white" stroke="black" points="629,-266.5 629,-285.5 733,-285.5 733,-266.5 629,-266.5"/>
<text text-anchor="middle" x="681" y="-273.5" font-family="Helvetica,sans-Serif" font-size="10.00">Player.moveSprite</text>
</a>
</g>
</g>
<!-- Node11&#45;&gt;Node16 -->
<g id="edge15" class="edge"><title>Node11&#45;&gt;Node16</title>
<path fill="none" stroke="midnightblue" d="M555.889,-247.589C577.893,-252.626 605.055,-258.844 628.352,-264.177"/>
<polygon fill="midnightblue" stroke="midnightblue" points="627.884,-267.66 638.412,-266.48 629.446,-260.837 627.884,-267.66"/>
</g>
<!-- Node17 -->
<g id="node17" class="node"><title>Node17</title>
<g id="a_node17"><a xlink:href="../../dd/d7a/class_enemy.html#a9b6840dcc6b8165268e957fc43d95b06" target="_top" xlink:title="Enemy.makePoop">
<polygon fill="white" stroke="black" points="630,-190.5 630,-209.5 732,-209.5 732,-190.5 630,-190.5"/>
<text text-anchor="middle" x="681" y="-197.5" font-family="Helvetica,sans-Serif" font-size="10.00">Enemy.makePoop</text>
</a>
</g>
</g>
<!-- Node11&#45;&gt;Node17 -->
<g id="edge18" class="edge"><title>Node11&#45;&gt;Node17</title>
<path fill="none" stroke="midnightblue" d="M555.889,-228.411C577.893,-223.374 605.055,-217.156 628.352,-211.823"/>
<polygon fill="midnightblue" stroke="midnightblue" points="629.446,-215.163 638.412,-209.52 627.884,-208.34 629.446,-215.163"/>
</g>
<!-- Node18 -->
<g id="node18" class="node"><title>Node18</title>
<g id="a_node18"><a xlink:href="../../d2/d3e/class_level1.html#aa75f107bf925594da75a1d82cf64044d" target="_top" xlink:title="Level1.returnCollisions">
<polygon fill="white" stroke="black" points="619,-342.5 619,-361.5 743,-361.5 743,-342.5 619,-342.5"/>
<text text-anchor="middle" x="681" y="-349.5" font-family="Helvetica,sans-Serif" font-size="10.00">Level1.returnCollisions</text>
</a>
</g>
</g>
<!-- Node11&#45;&gt;Node18 -->
<g id="edge20" class="edge"><title>Node11&#45;&gt;Node18</title>
<path fill="none" stroke="midnightblue" d="M520.797,-247.753C534.795,-267.085 568.834,-310.348 608,-333 611.882,-335.245 616.034,-337.231 620.311,-338.986"/>
<polygon fill="midnightblue" stroke="midnightblue" points="619.226,-342.315 629.819,-342.471 621.635,-335.743 619.226,-342.315"/>
</g>
<!-- Node22 -->
<g id="node22" class="node"><title>Node22</title>
<g id="a_node22"><a xlink:href="../../d2/d3e/class_level1.html#a5e6976ef755d0e678034870e374ee4ca" target="_top" xlink:title="Level1.goGameOver">
<polygon fill="white" stroke="black" points="624,-114.5 624,-133.5 738,-133.5 738,-114.5 624,-114.5"/>
<text text-anchor="middle" x="681" y="-121.5" font-family="Helvetica,sans-Serif" font-size="10.00">Level1.goGameOver</text>
</a>
</g>
</g>
<!-- Node11&#45;&gt;Node22 -->
<g id="edge25" class="edge"><title>Node11&#45;&gt;Node22</title>
<path fill="none" stroke="midnightblue" d="M552.353,-228.434C559.171,-225.909 566.002,-222.798 572,-219 591.655,-206.554 590.836,-196.705 608,-181 624.169,-166.205 643.735,-150.863 658.387,-139.828"/>
<polygon fill="midnightblue" stroke="midnightblue" points="660.874,-142.34 666.8,-133.557 656.691,-136.727 660.874,-142.34"/>
</g>
<!-- Node23 -->
<g id="node23" class="node"><title>Node23</title>
<g id="a_node23"><a xlink:href="../../d2/d3e/class_level1.html#a5995ba731849ced54b8f97fcc93ce4d9" target="_top" xlink:title="Level1.removeFromScreen">
<polygon fill="white" stroke="black" points="608.5,-228.5 608.5,-247.5 753.5,-247.5 753.5,-228.5 608.5,-228.5"/>
<text text-anchor="middle" x="681" y="-235.5" font-family="Helvetica,sans-Serif" font-size="10.00">Level1.removeFromScreen</text>
</a>
</g>
</g>
<!-- Node11&#45;&gt;Node23 -->
<g id="edge29" class="edge"><title>Node11&#45;&gt;Node23</title>
<path fill="none" stroke="midnightblue" d="M572.059,-238C580.459,-238 589.234,-238 597.995,-238"/>
<polygon fill="midnightblue" stroke="midnightblue" points="598.25,-241.5 608.25,-238 598.25,-234.5 598.25,-241.5"/>
</g>
<!-- Node13 -->
<g id="node13" class="node"><title>Node13</title>
<g id="a_node13"><a xlink:href="../../d7/dbf/class_sprite.html#a4dd4a643703de09c632a0e7d70a570e7" target="_top" xlink:title="Sprite.getVelocity">
<polygon fill="white" stroke="black" points="799.5,-304.5 799.5,-323.5 900.5,-323.5 900.5,-304.5 799.5,-304.5"/>
<text text-anchor="middle" x="850" y="-311.5" font-family="Helvetica,sans-Serif" font-size="10.00">Sprite.getVelocity</text>
</a>
</g>
</g>
<!-- Node12&#45;&gt;Node13 -->
<g id="edge12" class="edge"><title>Node12&#45;&gt;Node13</title>
<path fill="none" stroke="midnightblue" d="M734.84,-314C752.094,-314 771.377,-314 789.111,-314"/>
<polygon fill="midnightblue" stroke="midnightblue" points="789.347,-317.5 799.347,-314 789.347,-310.5 789.347,-317.5"/>
</g>
<!-- Node14 -->
<g id="node14" class="node"><title>Node14</title>
<g id="a_node14"><a xlink:href="../../d7/dbf/class_sprite.html#ab8f846b7ba77ae72ad09f48da22ceea7" target="_top" xlink:title="Sprite.moveSprite">
<polygon fill="white" stroke="black" points="798,-266.5 798,-285.5 902,-285.5 902,-266.5 798,-266.5"/>
<text text-anchor="middle" x="850" y="-273.5" font-family="Helvetica,sans-Serif" font-size="10.00">Sprite.moveSprite</text>
</a>
</g>
</g>
<!-- Node12&#45;&gt;Node14 -->
<g id="edge13" class="edge"><title>Node12&#45;&gt;Node14</title>
<path fill="none" stroke="midnightblue" d="M724.141,-304.411C746.377,-299.351 773.848,-293.1 797.356,-287.751"/>
<polygon fill="midnightblue" stroke="midnightblue" points="798.188,-291.152 807.162,-285.52 796.635,-284.326 798.188,-291.152"/>
</g>
<!-- Node15 -->
<g id="node15" class="node"><title>Node15</title>
<g id="a_node15"><a xlink:href="../../d7/dbf/class_sprite.html#accdf1c21264c6ff648ece508cf176bfb" target="_top" xlink:title="Sprite.setVelocity">
<polygon fill="white" stroke="black" points="800,-228.5 800,-247.5 900,-247.5 900,-228.5 800,-228.5"/>
<text text-anchor="middle" x="850" y="-235.5" font-family="Helvetica,sans-Serif" font-size="10.00">Sprite.setVelocity</text>
</a>
</g>
</g>
<!-- Node12&#45;&gt;Node15 -->
<g id="edge14" class="edge"><title>Node12&#45;&gt;Node15</title>
<path fill="none" stroke="midnightblue" d="M732.634,-304.473C740.078,-301.996 747.439,-298.89 754,-295 774.011,-283.135 770.314,-269.397 790,-257 793.193,-254.989 796.618,-253.173 800.151,-251.536"/>
<polygon fill="midnightblue" stroke="midnightblue" points="801.764,-254.657 809.674,-247.608 799.095,-248.185 801.764,-254.657"/>
</g>
<!-- Node16&#45;&gt;Node14 -->
<g id="edge17" class="edge"><title>Node16&#45;&gt;Node14</title>
<path fill="none" stroke="midnightblue" d="M733.013,-276C750.253,-276 769.681,-276 787.637,-276"/>
<polygon fill="midnightblue" stroke="midnightblue" points="787.724,-279.5 797.724,-276 787.724,-272.5 787.724,-279.5"/>
</g>
<!-- Node16&#45;&gt;Node15 -->
<g id="edge16" class="edge"><title>Node16&#45;&gt;Node15</title>
<path fill="none" stroke="midnightblue" d="M724.141,-266.411C746.377,-261.351 773.848,-255.1 797.356,-249.751"/>
<polygon fill="midnightblue" stroke="midnightblue" points="798.188,-253.152 807.162,-247.52 796.635,-246.326 798.188,-253.152"/>
</g>
<!-- Node17&#45;&gt;Node15 -->
<g id="edge19" class="edge"><title>Node17&#45;&gt;Node15</title>
<path fill="none" stroke="midnightblue" d="M724.141,-209.589C746.377,-214.649 773.848,-220.9 797.356,-226.249"/>
<polygon fill="midnightblue" stroke="midnightblue" points="796.635,-229.674 807.162,-228.48 798.188,-222.848 796.635,-229.674"/>
</g>
<!-- Node19 -->
<g id="node19" class="node"><title>Node19</title>
<g id="a_node19"><a xlink:href="../../d7/da7/class_character.html#aa2149c166e797ae0ded67d9f768ac7f3" target="_top" xlink:title="Character.updateAll">
<polygon fill="white" stroke="black" points="794.5,-342.5 794.5,-361.5 905.5,-361.5 905.5,-342.5 794.5,-342.5"/>
<text text-anchor="middle" x="850" y="-349.5" font-family="Helvetica,sans-Serif" font-size="10.00">Character.updateAll</text>
</a>
</g>
</g>
<!-- Node18&#45;&gt;Node19 -->
<g id="edge21" class="edge"><title>Node18&#45;&gt;Node19</title>
<path fill="none" stroke="midnightblue" d="M743.236,-352C756.589,-352 770.761,-352 784.245,-352"/>
<polygon fill="midnightblue" stroke="midnightblue" points="784.397,-355.5 794.397,-352 784.397,-348.5 784.397,-355.5"/>
</g>
<!-- Node20 -->
<g id="node20" class="node"><title>Node20</title>
<g id="a_node20"><a xlink:href="../../d7/da7/class_character.html#ade25acccb27ac9aeb2752b2df29d075f" target="_top" xlink:title="Character.collisionUpdate">
<polygon fill="white" stroke="black" points="946.5,-342.5 946.5,-361.5 1085.5,-361.5 1085.5,-342.5 946.5,-342.5"/>
<text text-anchor="middle" x="1016" y="-349.5" font-family="Helvetica,sans-Serif" font-size="10.00">Character.collisionUpdate</text>
</a>
</g>
</g>
<!-- Node19&#45;&gt;Node20 -->
<g id="edge22" class="edge"><title>Node19&#45;&gt;Node20</title>
<path fill="none" stroke="midnightblue" d="M905.61,-352C915.393,-352 925.765,-352 936.072,-352"/>
<polygon fill="midnightblue" stroke="midnightblue" points="936.333,-355.5 946.333,-352 936.333,-348.5 936.333,-355.5"/>
</g>
<!-- Node21 -->
<g id="node21" class="node"><title>Node21</title>
<g id="a_node21"><a xlink:href="../../d7/da7/class_character.html#ad223fcb54929116326bf8816d43f5173" target="_top" xlink:title="Character.checkCollide">
<polygon fill="white" stroke="black" points="1122.5,-342.5 1122.5,-361.5 1247.5,-361.5 1247.5,-342.5 1122.5,-342.5"/>
<text text-anchor="middle" x="1185" y="-349.5" font-family="Helvetica,sans-Serif" font-size="10.00">Character.checkCollide</text>
</a>
</g>
</g>
<!-- Node20&#45;&gt;Node21 -->
<g id="edge23" class="edge"><title>Node20&#45;&gt;Node21</title>
<path fill="none" stroke="midnightblue" d="M1085.89,-352C1094.61,-352 1103.54,-352 1112.31,-352"/>
<polygon fill="midnightblue" stroke="midnightblue" points="1112.48,-355.5 1122.48,-352 1112.48,-348.5 1112.48,-355.5"/>
</g>
<!-- Node22&#45;&gt;Node2 -->
<g id="edge26" class="edge"><title>Node22&#45;&gt;Node2</title>
<path fill="none" stroke="midnightblue" d="M738.073,-130.38C751.569,-131.915 766.141,-133.573 780.145,-135.166"/>
<polygon fill="midnightblue" stroke="midnightblue" points="779.887,-138.659 790.218,-136.312 780.678,-131.704 779.887,-138.659"/>
</g>
<!-- Node22&#45;&gt;Node3 -->
<g id="edge27" class="edge"><title>Node22&#45;&gt;Node3</title>
<path fill="none" stroke="midnightblue" d="M738.073,-114.599C755.499,-111.677 774.719,-108.454 792.194,-105.524"/>
<polygon fill="midnightblue" stroke="midnightblue" points="792.972,-108.943 802.256,-103.837 791.815,-102.039 792.972,-108.943"/>
</g>
<!-- Node22&#45;&gt;Node6 -->
<g id="edge28" class="edge"><title>Node22&#45;&gt;Node6</title>
<path fill="none" stroke="midnightblue" d="M703.45,-114.484C725.196,-104.879 759.845,-89.6927 790,-77 798.278,-73.5158 807.242,-69.8267 815.623,-66.4134"/>
<polygon fill="midnightblue" stroke="midnightblue" points="817.168,-69.564 825.119,-62.5619 814.537,-63.0772 817.168,-69.564"/>
</g>
</g>
</svg>
