<?xml version="1.0" encoding="UTF-8" standalone="no"?>
<!DOCTYPE svg PUBLIC "-//W3C//DTD SVG 1.1//EN"
 "http://www.w3.org/Graphics/SVG/1.1/DTD/svg11.dtd">
<!-- Generated by graphviz version 2.36.0 (20140111.2315)
 -->
<!-- Title: Level1.updateSprites Pages: 1 -->
<svg width="804pt" height="499pt"
 viewBox="0.00 0.00 804.00 499.30" xmlns="http://www.w3.org/2000/svg" xmlns:xlink="http://www.w3.org/1999/xlink">
<g id="graph0" class="graph" transform="scale(1 1) rotate(0) translate(4 495.296)">
<title>Level1.updateSprites</title>
<polygon fill="white" stroke="none" points="-4,4 -4,-495.296 800,-495.296 800,4 -4,4"/>
<!-- Node1 -->
<g id="node1" class="node"><title>Node1</title>
<polygon fill="#bfbfbf" stroke="black" points="0,-171.5 0,-190.5 118,-190.5 118,-171.5 0,-171.5"/>
<text text-anchor="middle" x="59" y="-178.5" font-family="Helvetica,sans-Serif" font-size="10.00">Level1.updateSprites</text>
</g>
<!-- Node2 -->
<g id="node2" class="node"><title>Node2</title>
<g id="a_node2"><a xlink:href="../../d2/d3e/class_level1.html#a5e6976ef755d0e678034870e374ee4ca" target="_top" xlink:title="Level1.goGameOver">
<polygon fill="white" stroke="black" points="170,-428.5 170,-447.5 284,-447.5 284,-428.5 170,-428.5"/>
<text text-anchor="middle" x="227" y="-435.5" font-family="Helvetica,sans-Serif" font-size="10.00">Level1.goGameOver</text>
</a>
</g>
</g>
<!-- Node1&#45;&gt;Node2 -->
<g id="edge1" class="edge"><title>Node1&#45;&gt;Node2</title>
<path fill="none" stroke="midnightblue" d="M61.7283,-190.559C68.1392,-223.567 93.3891,-334.324 154,-400 163.472,-410.264 176.359,-418.265 188.613,-424.222"/>
<polygon fill="midnightblue" stroke="midnightblue" points="187.241,-427.443 197.794,-428.383 190.13,-421.067 187.241,-427.443"/>
</g>
<!-- Node7 -->
<g id="node7" class="node"><title>Node7</title>
<g id="a_node7"><a xlink:href="../../d2/d3e/class_level1.html#ac56e75129bb2946c38cfcf43608f3f05" target="_top" xlink:title="Level1.goNextLevel">
<polygon fill="white" stroke="black" points="172,-371.5 172,-390.5 282,-390.5 282,-371.5 172,-371.5"/>
<text text-anchor="middle" x="227" y="-378.5" font-family="Helvetica,sans-Serif" font-size="10.00">Level1.goNextLevel</text>
</a>
</g>
</g>
<!-- Node1&#45;&gt;Node7 -->
<g id="edge6" class="edge"><title>Node1&#45;&gt;Node7</title>
<path fill="none" stroke="midnightblue" d="M68.0065,-190.646C94.2475,-222.262 177.901,-323.05 211.665,-363.729"/>
<polygon fill="midnightblue" stroke="midnightblue" points="208.994,-365.991 218.074,-371.45 214.38,-361.52 208.994,-365.991"/>
</g>
<!-- Node14 -->
<g id="node14" class="node"><title>Node14</title>
<g id="a_node14"><a xlink:href="../../dd/d7a/class_enemy.html#a9b6840dcc6b8165268e957fc43d95b06" target="_top" xlink:title="Enemy.makePoop">
<polygon fill="white" stroke="black" points="176,-228.5 176,-247.5 278,-247.5 278,-228.5 176,-228.5"/>
<text text-anchor="middle" x="227" y="-235.5" font-family="Helvetica,sans-Serif" font-size="10.00">Enemy.makePoop</text>
</a>
</g>
</g>
<!-- Node1&#45;&gt;Node14 -->
<g id="edge17" class="edge"><title>Node1&#45;&gt;Node14</title>
<path fill="none" stroke="midnightblue" d="M81.3659,-190.538C100.233,-198.743 128.612,-210.556 154,-219 161.165,-221.383 168.808,-223.668 176.339,-225.775"/>
<polygon fill="midnightblue" stroke="midnightblue" points="175.555,-229.189 186.123,-228.436 177.392,-222.434 175.555,-229.189"/>
</g>
<!-- Node16 -->
<g id="node16" class="node"><title>Node16</title>
<g id="a_node16"><a xlink:href="../../d8/d53/class_player.html#a1b7a0a6c68deb202a672d42e205d5a21" target="_top" xlink:title="Player.moveSprite">
<polygon fill="white" stroke="black" points="175,-190.5 175,-209.5 279,-209.5 279,-190.5 175,-190.5"/>
<text text-anchor="middle" x="227" y="-197.5" font-family="Helvetica,sans-Serif" font-size="10.00">Player.moveSprite</text>
</a>
</g>
</g>
<!-- Node1&#45;&gt;Node16 -->
<g id="edge19" class="edge"><title>Node1&#45;&gt;Node16</title>
<path fill="none" stroke="midnightblue" d="M118.059,-187.645C133.1,-189.367 149.346,-191.226 164.554,-192.967"/>
<polygon fill="midnightblue" stroke="midnightblue" points="164.556,-196.49 174.89,-194.15 165.352,-189.535 164.556,-196.49"/>
</g>
<!-- Node18 -->
<g id="node18" class="node"><title>Node18</title>
<g id="a_node18"><a xlink:href="../../dd/d7a/class_enemy.html#ab653212b50d9e64ba497ae18696d3678" target="_top" xlink:title="Enemy.moveSprite">
<polygon fill="white" stroke="black" points="173.5,-152.5 173.5,-171.5 280.5,-171.5 280.5,-152.5 173.5,-152.5"/>
<text text-anchor="middle" x="227" y="-159.5" font-family="Helvetica,sans-Serif" font-size="10.00">Enemy.moveSprite</text>
</a>
</g>
</g>
<!-- Node1&#45;&gt;Node18 -->
<g id="edge22" class="edge"><title>Node1&#45;&gt;Node18</title>
<path fill="none" stroke="midnightblue" d="M118.059,-174.355C132.644,-172.685 148.362,-170.886 163.169,-169.192"/>
<polygon fill="midnightblue" stroke="midnightblue" points="163.711,-172.652 173.248,-168.038 162.915,-165.698 163.711,-172.652"/>
</g>
<!-- Node20 -->
<g id="node20" class="node"><title>Node20</title>
<g id="a_node20"><a xlink:href="../../d2/d3e/class_level1.html#a5995ba731849ced54b8f97fcc93ce4d9" target="_top" xlink:title="Level1.removeFromScreen">
<polygon fill="white" stroke="black" points="154.5,-114.5 154.5,-133.5 299.5,-133.5 299.5,-114.5 154.5,-114.5"/>
<text text-anchor="middle" x="227" y="-121.5" font-family="Helvetica,sans-Serif" font-size="10.00">Level1.removeFromScreen</text>
</a>
</g>
</g>
<!-- Node1&#45;&gt;Node20 -->
<g id="edge26" class="edge"><title>Node1&#45;&gt;Node20</title>
<path fill="none" stroke="midnightblue" d="M81.3659,-171.462C100.233,-163.257 128.612,-151.444 154,-143 161.165,-140.617 168.808,-138.332 176.339,-136.225"/>
<polygon fill="midnightblue" stroke="midnightblue" points="177.392,-139.566 186.123,-133.564 175.555,-132.811 177.392,-139.566"/>
</g>
<!-- Node21 -->
<g id="node21" class="node"><title>Node21</title>
<g id="a_node21"><a xlink:href="../../d2/d3e/class_level1.html#aa75f107bf925594da75a1d82cf64044d" target="_top" xlink:title="Level1.returnCollisions">
<polygon fill="white" stroke="black" points="165,-76.5 165,-95.5 289,-95.5 289,-76.5 165,-76.5"/>
<text text-anchor="middle" x="227" y="-83.5" font-family="Helvetica,sans-Serif" font-size="10.00">Level1.returnCollisions</text>
</a>
</g>
</g>
<!-- Node1&#45;&gt;Node21 -->
<g id="edge27" class="edge"><title>Node1&#45;&gt;Node21</title>
<path fill="none" stroke="midnightblue" d="M69.1758,-171.278C84.9719,-155.114 118.993,-122.737 154,-105 158.568,-102.686 163.446,-100.633 168.429,-98.8155"/>
<polygon fill="midnightblue" stroke="midnightblue" points="169.701,-102.081 178.086,-95.605 167.492,-95.4384 169.701,-102.081"/>
</g>
<!-- Node25 -->
<g id="node25" class="node"><title>Node25</title>
<g id="a_node25"><a xlink:href="../../d7/da7/class_character.html#aad64a9dc8ceea8b806cf2e1908cd0df8" target="_top" xlink:title="Character.setFull">
<polygon fill="white" stroke="black" points="179,-38.5 179,-57.5 275,-57.5 275,-38.5 179,-38.5"/>
<text text-anchor="middle" x="227" y="-45.5" font-family="Helvetica,sans-Serif" font-size="10.00">Character.setFull</text>
</a>
</g>
</g>
<!-- Node1&#45;&gt;Node25 -->
<g id="edge31" class="edge"><title>Node1&#45;&gt;Node25</title>
<path fill="none" stroke="midnightblue" d="M65.1397,-171.326C77.395,-149.226 110.581,-94.8079 154,-67 158.695,-63.9932 163.851,-61.4602 169.18,-59.3268"/>
<polygon fill="midnightblue" stroke="midnightblue" points="170.629,-62.5273 178.897,-55.9021 168.302,-55.9254 170.629,-62.5273"/>
</g>
<!-- Node26 -->
<g id="node26" class="node"><title>Node26</title>
<g id="a_node26"><a xlink:href="../../d7/da7/class_character.html#ac0b4f4ace84c8e5aa60f05515806015d" target="_top" xlink:title="Character.setHP">
<polygon fill="white" stroke="black" points="179.5,-0.5 179.5,-19.5 274.5,-19.5 274.5,-0.5 179.5,-0.5"/>
<text text-anchor="middle" x="227" y="-7.5" font-family="Helvetica,sans-Serif" font-size="10.00">Character.setHP</text>
</a>
</g>
</g>
<!-- Node1&#45;&gt;Node26 -->
<g id="edge32" class="edge"><title>Node1&#45;&gt;Node26</title>
<path fill="none" stroke="midnightblue" d="M63.0724,-171.414C72.2126,-144.483 101.889,-67.595 154,-29 158.792,-25.451 164.194,-22.5641 169.832,-20.2159"/>
<polygon fill="midnightblue" stroke="midnightblue" points="171.248,-23.4264 179.475,-16.7509 168.88,-16.8387 171.248,-23.4264"/>
</g>
<!-- Node3 -->
<g id="node3" class="node"><title>Node3</title>
<g id="a_node3"><a xlink:href="../../d2/d3e/class_level1.html#ac4098d447b9841cabec6be3bb719bd26" target="_top" xlink:title="Level1.clearElements">
<polygon fill="white" stroke="black" points="337.5,-418.5 337.5,-437.5 456.5,-437.5 456.5,-418.5 337.5,-418.5"/>
<text text-anchor="middle" x="397" y="-425.5" font-family="Helvetica,sans-Serif" font-size="10.00">Level1.clearElements</text>
</a>
</g>
</g>
<!-- Node2&#45;&gt;Node3 -->
<g id="edge2" class="edge"><title>Node2&#45;&gt;Node3</title>
<path fill="none" stroke="midnightblue" d="M284.409,-434.642C298.139,-433.825 312.976,-432.942 327.21,-432.095"/>
<polygon fill="midnightblue" stroke="midnightblue" points="327.669,-435.574 337.444,-431.486 327.253,-428.586 327.669,-435.574"/>
</g>
<!-- Node4 -->
<g id="node4" class="node"><title>Node4</title>
<g id="a_node4"><a xlink:href="../../d7/da7/class_character.html#a4dc23a76b34bcbb84abba1b116847268" target="_top" xlink:title="Character.getHP">
<polygon fill="white" stroke="black" points="349.5,-456.5 349.5,-475.5 444.5,-475.5 444.5,-456.5 349.5,-456.5"/>
<text text-anchor="middle" x="397" y="-463.5" font-family="Helvetica,sans-Serif" font-size="10.00">Character.getHP</text>
</a>
</g>
</g>
<!-- Node2&#45;&gt;Node4 -->
<g id="edge3" class="edge"><title>Node2&#45;&gt;Node4</title>
<path fill="none" stroke="midnightblue" d="M284.409,-447.401C302.019,-450.337 321.45,-453.575 339.094,-456.516"/>
<polygon fill="midnightblue" stroke="midnightblue" points="338.809,-460.016 349.249,-458.208 339.96,-453.112 338.809,-460.016"/>
</g>
<!-- Node5 -->
<g id="node5" class="node"><title>Node5</title>
<g id="a_node5"><a xlink:href="../../d6/d21/class_screen.html#a5d9534b81b96cfc0a00009dea6be6c09" target="_top" xlink:title="Screen.showScreen">
<polygon fill="white" stroke="black" points="508.5,-456.5 508.5,-475.5 619.5,-475.5 619.5,-456.5 508.5,-456.5"/>
<text text-anchor="middle" x="564" y="-463.5" font-family="Helvetica,sans-Serif" font-size="10.00">Screen.showScreen</text>
</a>
</g>
</g>
<!-- Node2&#45;&gt;Node5 -->
<g id="edge4" class="edge"><title>Node2&#45;&gt;Node5</title>
<path fill="none" stroke="midnightblue" d="M244.131,-447.545C264.65,-459.08 301.567,-477.832 336,-485 397.372,-497.775 469.772,-487.446 516.015,-477.726"/>
<polygon fill="midnightblue" stroke="midnightblue" points="517.016,-481.09 526.042,-475.541 515.526,-474.25 517.016,-481.09"/>
</g>
<!-- Node6 -->
<g id="node6" class="node"><title>Node6</title>
<g id="a_node6"><a xlink:href="../../d6/d21/class_screen.html#ac7ca0a382b3177bbea4e2a4e7c0f442e" target="_top" xlink:title="Screen.init">
<polygon fill="white" stroke="black" points="699,-456.5 699,-475.5 767,-475.5 767,-456.5 699,-456.5"/>
<text text-anchor="middle" x="733" y="-463.5" font-family="Helvetica,sans-Serif" font-size="10.00">Screen.init</text>
</a>
</g>
</g>
<!-- Node5&#45;&gt;Node6 -->
<g id="edge5" class="edge"><title>Node5&#45;&gt;Node6</title>
<path fill="none" stroke="midnightblue" d="M619.682,-466C641.979,-466 667.401,-466 688.414,-466"/>
<polygon fill="midnightblue" stroke="midnightblue" points="688.65,-469.5 698.65,-466 688.65,-462.5 688.65,-469.5"/>
</g>
<!-- Node7&#45;&gt;Node3 -->
<g id="edge7" class="edge"><title>Node7&#45;&gt;Node3</title>
<path fill="none" stroke="midnightblue" d="M261.997,-390.511C287.871,-397.75 323.697,-407.772 351.795,-415.633"/>
<polygon fill="midnightblue" stroke="midnightblue" points="351.192,-419.099 361.765,-418.422 353.078,-412.358 351.192,-419.099"/>
</g>
<!-- Node7&#45;&gt;Node4 -->
<g id="edge8" class="edge"><title>Node7&#45;&gt;Node4</title>
<path fill="none" stroke="midnightblue" d="M248.399,-390.571C263.116,-397.76 283.258,-408.19 300,-419 317.029,-429.995 318.057,-437.571 336,-447 340.192,-449.203 344.685,-451.205 349.256,-453.01"/>
<polygon fill="midnightblue" stroke="midnightblue" points="348.084,-456.308 358.678,-456.442 350.48,-449.731 348.084,-456.308"/>
</g>
<!-- Node8 -->
<g id="node8" class="node"><title>Node8</title>
<g id="a_node8"><a xlink:href="../../dd/d7a/class_enemy.html#a0b00e167bc151db783054dddb2f9b509" target="_top" xlink:title="Enemy.makeAngry">
<polygon fill="white" stroke="black" points="344,-342.5 344,-361.5 450,-361.5 450,-342.5 344,-342.5"/>
<text text-anchor="middle" x="397" y="-349.5" font-family="Helvetica,sans-Serif" font-size="10.00">Enemy.makeAngry</text>
</a>
</g>
</g>
<!-- Node7&#45;&gt;Node8 -->
<g id="edge9" class="edge"><title>Node7&#45;&gt;Node8</title>
<path fill="none" stroke="midnightblue" d="M282.081,-371.665C298.445,-368.84 316.551,-365.714 333.421,-362.802"/>
<polygon fill="midnightblue" stroke="midnightblue" points="334.481,-366.171 343.74,-361.021 333.29,-359.273 334.481,-366.171"/>
</g>
<!-- Node9 -->
<g id="node9" class="node"><title>Node9</title>
<g id="a_node9"><a xlink:href="../../d6/d21/class_screen.html#a5d40342bbe33c27c9e0e24bd8709d1f6" target="_top" xlink:title="Screen.showAndAnim">
<polygon fill="white" stroke="black" points="336.5,-380.5 336.5,-399.5 457.5,-399.5 457.5,-380.5 336.5,-380.5"/>
<text text-anchor="middle" x="397" y="-387.5" font-family="Helvetica,sans-Serif" font-size="10.00">Screen.showAndAnim</text>
</a>
</g>
</g>
<!-- Node7&#45;&gt;Node9 -->
<g id="edge10" class="edge"><title>Node7&#45;&gt;Node9</title>
<path fill="none" stroke="midnightblue" d="M282.081,-383.897C296.187,-384.653 311.589,-385.478 326.377,-386.27"/>
<polygon fill="midnightblue" stroke="midnightblue" points="326.321,-389.772 336.494,-386.812 326.696,-382.782 326.321,-389.772"/>
</g>
<!-- Node11 -->
<g id="node11" class="node"><title>Node11</title>
<g id="a_node11"><a xlink:href="../../d2/d3e/class_level1.html#a0871325d07c0614d5f1f2df7df13b703" target="_top" xlink:title="Level1.start">
<polygon fill="white" stroke="black" points="360.5,-304.5 360.5,-323.5 433.5,-323.5 433.5,-304.5 360.5,-304.5"/>
<text text-anchor="middle" x="397" y="-311.5" font-family="Helvetica,sans-Serif" font-size="10.00">Level1.start</text>
</a>
</g>
</g>
<!-- Node7&#45;&gt;Node11 -->
<g id="edge13" class="edge"><title>Node7&#45;&gt;Node11</title>
<path fill="none" stroke="midnightblue" d="M247.629,-371.481C269.062,-361.275 304.536,-344.931 336,-333 341.694,-330.841 347.753,-328.721 353.747,-326.726"/>
<polygon fill="midnightblue" stroke="midnightblue" points="355.265,-329.914 363.7,-323.502 353.108,-323.254 355.265,-329.914"/>
</g>
<!-- Node9&#45;&gt;Node5 -->
<g id="edge11" class="edge"><title>Node9&#45;&gt;Node5</title>
<path fill="none" stroke="midnightblue" d="M432.048,-399.542C440.635,-402.285 449.755,-405.494 458,-409 486.637,-421.175 517.77,-438.656 538.639,-451.042"/>
<polygon fill="midnightblue" stroke="midnightblue" points="537.084,-454.191 547.459,-456.338 540.687,-448.19 537.084,-454.191"/>
</g>
<!-- Node10 -->
<g id="node10" class="node"><title>Node10</title>
<g id="a_node10"><a xlink:href="../../d6/d21/class_screen.html#a601576a0d49770789b2eb08328f09c53" target="_top" xlink:title="Screen.startAnim">
<polygon fill="white" stroke="black" points="513.5,-380.5 513.5,-399.5 614.5,-399.5 614.5,-380.5 513.5,-380.5"/>
<text text-anchor="middle" x="564" y="-387.5" font-family="Helvetica,sans-Serif" font-size="10.00">Screen.startAnim</text>
</a>
</g>
</g>
<!-- Node9&#45;&gt;Node10 -->
<g id="edge12" class="edge"><title>Node9&#45;&gt;Node10</title>
<path fill="none" stroke="midnightblue" d="M457.569,-390C472.419,-390 488.346,-390 503.207,-390"/>
<polygon fill="midnightblue" stroke="midnightblue" points="503.299,-393.5 513.299,-390 503.299,-386.5 503.299,-393.5"/>
</g>
<!-- Node12 -->
<g id="node12" class="node"><title>Node12</title>
<g id="a_node12"><a xlink:href="../../d2/d3e/class_level1.html#a324da1e22a7a87fa4bb1859b5774bdba" target="_top" xlink:title="Level1.updateFrame">
<polygon fill="white" stroke="black" points="507,-285.5 507,-304.5 621,-304.5 621,-285.5 507,-285.5"/>
<text text-anchor="middle" x="564" y="-292.5" font-family="Helvetica,sans-Serif" font-size="10.00">Level1.updateFrame</text>
</a>
</g>
</g>
<!-- Node11&#45;&gt;Node12 -->
<g id="edge14" class="edge"><title>Node11&#45;&gt;Node12</title>
<path fill="none" stroke="midnightblue" d="M433.803,-309.877C452.213,-307.757 475.249,-305.105 496.751,-302.629"/>
<polygon fill="midnightblue" stroke="midnightblue" points="497.293,-306.089 506.827,-301.468 496.493,-299.135 497.293,-306.089"/>
</g>
<!-- Node12&#45;&gt;Node1 -->
<g id="edge15" class="edge"><title>Node12&#45;&gt;Node1</title>
<path fill="none" stroke="midnightblue" d="M506.83,-293.782C410.116,-291.024 216.508,-282.422 154,-257 121.97,-243.973 92.2312,-216.232 75.1026,-198.114"/>
<polygon fill="midnightblue" stroke="midnightblue" points="77.5,-195.551 68.1571,-190.554 72.3452,-200.286 77.5,-195.551"/>
</g>
<!-- Node13 -->
<g id="node13" class="node"><title>Node13</title>
<g id="a_node13"><a xlink:href="../../d2/d3e/class_level1.html#a5f552e875916d0cf7a74896401584b2a" target="_top" xlink:title="Level1.updateTimer">
<polygon fill="white" stroke="black" points="677.5,-285.5 677.5,-304.5 788.5,-304.5 788.5,-285.5 677.5,-285.5"/>
<text text-anchor="middle" x="733" y="-292.5" font-family="Helvetica,sans-Serif" font-size="10.00">Level1.updateTimer</text>
</a>
</g>
</g>
<!-- Node12&#45;&gt;Node13 -->
<g id="edge16" class="edge"><title>Node12&#45;&gt;Node13</title>
<path fill="none" stroke="midnightblue" d="M621.073,-295C635.855,-295 651.927,-295 667.131,-295"/>
<polygon fill="midnightblue" stroke="midnightblue" points="667.491,-298.5 677.491,-295 667.491,-291.5 667.491,-298.5"/>
</g>
<!-- Node15 -->
<g id="node15" class="node"><title>Node15</title>
<g id="a_node15"><a xlink:href="../../d7/dbf/class_sprite.html#accdf1c21264c6ff648ece508cf176bfb" target="_top" xlink:title="Sprite.setVelocity">
<polygon fill="white" stroke="black" points="347,-209.5 347,-228.5 447,-228.5 447,-209.5 347,-209.5"/>
<text text-anchor="middle" x="397" y="-216.5" font-family="Helvetica,sans-Serif" font-size="10.00">Sprite.setVelocity</text>
</a>
</g>
</g>
<!-- Node14&#45;&gt;Node15 -->
<g id="edge18" class="edge"><title>Node14&#45;&gt;Node15</title>
<path fill="none" stroke="midnightblue" d="M278.406,-232.299C296.757,-230.224 317.67,-227.859 336.721,-225.704"/>
<polygon fill="midnightblue" stroke="midnightblue" points="337.243,-229.168 346.786,-224.566 336.456,-222.212 337.243,-229.168"/>
</g>
<!-- Node16&#45;&gt;Node15 -->
<g id="edge20" class="edge"><title>Node16&#45;&gt;Node15</title>
<path fill="none" stroke="midnightblue" d="M279.318,-205.804C297.393,-207.848 317.86,-210.163 336.549,-212.276"/>
<polygon fill="midnightblue" stroke="midnightblue" points="336.393,-215.781 346.723,-213.427 337.179,-208.825 336.393,-215.781"/>
</g>
<!-- Node17 -->
<g id="node17" class="node"><title>Node17</title>
<g id="a_node17"><a xlink:href="../../d7/dbf/class_sprite.html#ab8f846b7ba77ae72ad09f48da22ceea7" target="_top" xlink:title="Sprite.moveSprite">
<polygon fill="white" stroke="black" points="345,-171.5 345,-190.5 449,-190.5 449,-171.5 345,-171.5"/>
<text text-anchor="middle" x="397" y="-178.5" font-family="Helvetica,sans-Serif" font-size="10.00">Sprite.moveSprite</text>
</a>
</g>
</g>
<!-- Node16&#45;&gt;Node17 -->
<g id="edge21" class="edge"><title>Node16&#45;&gt;Node17</title>
<path fill="none" stroke="midnightblue" d="M279.318,-194.196C296.905,-192.207 316.755,-189.962 335.03,-187.895"/>
<polygon fill="midnightblue" stroke="midnightblue" points="335.453,-191.37 344.996,-186.768 334.666,-184.414 335.453,-191.37"/>
</g>
<!-- Node18&#45;&gt;Node15 -->
<g id="edge25" class="edge"><title>Node18&#45;&gt;Node15</title>
<path fill="none" stroke="midnightblue" d="M270.774,-171.573C280.517,-174.224 290.726,-177.383 300,-181 316.855,-187.573 319.309,-193.019 336,-200 341.36,-202.242 347.082,-204.372 352.784,-206.34"/>
<polygon fill="midnightblue" stroke="midnightblue" points="351.701,-209.669 362.294,-209.491 353.902,-203.024 351.701,-209.669"/>
</g>
<!-- Node18&#45;&gt;Node17 -->
<g id="edge24" class="edge"><title>Node18&#45;&gt;Node17</title>
<path fill="none" stroke="midnightblue" d="M280.695,-167.96C297.829,-169.897 316.991,-172.064 334.698,-174.067"/>
<polygon fill="midnightblue" stroke="midnightblue" points="334.599,-177.578 344.929,-175.224 335.386,-170.622 334.599,-177.578"/>
</g>
<!-- Node19 -->
<g id="node19" class="node"><title>Node19</title>
<g id="a_node19"><a xlink:href="../../d7/dbf/class_sprite.html#a4dd4a643703de09c632a0e7d70a570e7" target="_top" xlink:title="Sprite.getVelocity">
<polygon fill="white" stroke="black" points="346.5,-133.5 346.5,-152.5 447.5,-152.5 447.5,-133.5 346.5,-133.5"/>
<text text-anchor="middle" x="397" y="-140.5" font-family="Helvetica,sans-Serif" font-size="10.00">Sprite.getVelocity</text>
</a>
</g>
</g>
<!-- Node18&#45;&gt;Node19 -->
<g id="edge23" class="edge"><title>Node18&#45;&gt;Node19</title>
<path fill="none" stroke="midnightblue" d="M280.695,-156.04C298.313,-154.048 318.075,-151.813 336.195,-149.764"/>
<polygon fill="midnightblue" stroke="midnightblue" points="336.813,-153.216 346.356,-148.614 336.026,-146.261 336.813,-153.216"/>
</g>
<!-- Node22 -->
<g id="node22" class="node"><title>Node22</title>
<g id="a_node22"><a xlink:href="../../d7/da7/class_character.html#aa2149c166e797ae0ded67d9f768ac7f3" target="_top" xlink:title="Character.updateAll">
<polygon fill="white" stroke="black" points="341.5,-76.5 341.5,-95.5 452.5,-95.5 452.5,-76.5 341.5,-76.5"/>
<text text-anchor="middle" x="397" y="-83.5" font-family="Helvetica,sans-Serif" font-size="10.00">Character.updateAll</text>
</a>
</g>
</g>
<!-- Node21&#45;&gt;Node22 -->
<g id="edge28" class="edge"><title>Node21&#45;&gt;Node22</title>
<path fill="none" stroke="midnightblue" d="M289.127,-86C302.734,-86 317.207,-86 330.965,-86"/>
<polygon fill="midnightblue" stroke="midnightblue" points="331.319,-89.5001 341.319,-86 331.319,-82.5001 331.319,-89.5001"/>
</g>
<!-- Node23 -->
<g id="node23" class="node"><title>Node23</title>
<g id="a_node23"><a xlink:href="../../d7/da7/class_character.html#ade25acccb27ac9aeb2752b2df29d075f" target="_top" xlink:title="Character.collisionUpdate">
<polygon fill="white" stroke="black" points="494.5,-76.5 494.5,-95.5 633.5,-95.5 633.5,-76.5 494.5,-76.5"/>
<text text-anchor="middle" x="564" y="-83.5" font-family="Helvetica,sans-Serif" font-size="10.00">Character.collisionUpdate</text>
</a>
</g>
</g>
<!-- Node22&#45;&gt;Node23 -->
<g id="edge29" class="edge"><title>Node22&#45;&gt;Node23</title>
<path fill="none" stroke="midnightblue" d="M452.943,-86C463.031,-86 473.74,-86 484.363,-86"/>
<polygon fill="midnightblue" stroke="midnightblue" points="484.5,-89.5001 494.5,-86 484.5,-82.5001 484.5,-89.5001"/>
</g>
<!-- Node24 -->
<g id="node24" class="node"><title>Node24</title>
<g id="a_node24"><a xlink:href="../../d7/da7/class_character.html#ad223fcb54929116326bf8816d43f5173" target="_top" xlink:title="Character.checkCollide">
<polygon fill="white" stroke="black" points="670.5,-76.5 670.5,-95.5 795.5,-95.5 795.5,-76.5 670.5,-76.5"/>
<text text-anchor="middle" x="733" y="-83.5" font-family="Helvetica,sans-Serif" font-size="10.00">Character.checkCollide</text>
</a>
</g>
</g>
<!-- Node23&#45;&gt;Node24 -->
<g id="edge30" class="edge"><title>Node23&#45;&gt;Node24</title>
<path fill="none" stroke="midnightblue" d="M633.889,-86C642.607,-86 651.545,-86 660.305,-86"/>
<polygon fill="midnightblue" stroke="midnightblue" points="660.484,-89.5001 670.484,-86 660.484,-82.5001 660.484,-89.5001"/>
</g>
</g>
</svg>
