<?xml version="1.0" encoding="UTF-8" standalone="no"?>
<!DOCTYPE svg PUBLIC "-//W3C//DTD SVG 1.1//EN"
 "http://www.w3.org/Graphics/SVG/1.1/DTD/svg11.dtd">
<!-- Generated by graphviz version 2.36.0 (20140111.2315)
 -->
<!-- Title: Level1.goGameOver Pages: 1 -->
<svg width="1198pt" height="104pt"
 viewBox="0.00 0.00 1198.00 104.00" xmlns="http://www.w3.org/2000/svg" xmlns:xlink="http://www.w3.org/1999/xlink">
<g id="graph0" class="graph" transform="scale(1 1) rotate(0) translate(4 100)">
<title>Level1.goGameOver</title>
<polygon fill="white" stroke="none" points="-4,4 -4,-100 1194,-100 1194,4 -4,4"/>
<!-- Node1 -->
<g id="node1" class="node"><title>Node1</title>
<polygon fill="#bfbfbf" stroke="black" points="0,-19.5 0,-38.5 114,-38.5 114,-19.5 0,-19.5"/>
<text text-anchor="middle" x="57" y="-26.5" font-family="Helvetica,sans-Serif" font-size="10.00">Level1.goGameOver</text>
</g>
<!-- Node2 -->
<g id="node2" class="node"><title>Node2</title>
<g id="a_node2"><a xlink:href="../../d2/d3e/class_level1.html#a78a7fb5633734b1815af8db43db23a41" target="_top" xlink:title="Level1.updateSprites">
<polygon fill="white" stroke="black" points="150,-19.5 150,-38.5 268,-38.5 268,-19.5 150,-19.5"/>
<text text-anchor="middle" x="209" y="-26.5" font-family="Helvetica,sans-Serif" font-size="10.00">Level1.updateSprites</text>
</a>
</g>
</g>
<!-- Node1&#45;&gt;Node2 -->
<g id="edge1" class="edge"><title>Node1&#45;&gt;Node2</title>
<path fill="none" stroke="midnightblue" d="M124.505,-29C132.971,-29 141.583,-29 149.902,-29"/>
<polygon fill="midnightblue" stroke="midnightblue" points="124.281,-25.5001 114.281,-29 124.281,-32.5001 124.281,-25.5001"/>
</g>
<!-- Node3 -->
<g id="node3" class="node"><title>Node3</title>
<g id="a_node3"><a xlink:href="../../d2/d3e/class_level1.html#a324da1e22a7a87fa4bb1859b5774bdba" target="_top" xlink:title="Level1.updateFrame">
<polygon fill="white" stroke="black" points="304,-38.5 304,-57.5 418,-57.5 418,-38.5 304,-38.5"/>
<text text-anchor="middle" x="361" y="-45.5" font-family="Helvetica,sans-Serif" font-size="10.00">Level1.updateFrame</text>
</a>
</g>
</g>
<!-- Node2&#45;&gt;Node3 -->
<g id="edge2" class="edge"><title>Node2&#45;&gt;Node3</title>
<path fill="none" stroke="midnightblue" d="M278.386,-37.6623C286.941,-38.7459 295.612,-39.8442 303.949,-40.9002"/>
<polygon fill="midnightblue" stroke="midnightblue" points="278.784,-34.1848 268.423,-36.4003 277.904,-41.1293 278.784,-34.1848"/>
</g>
<!-- Node4 -->
<g id="node4" class="node"><title>Node4</title>
<g id="a_node4"><a xlink:href="../../d2/d3e/class_level1.html#a0871325d07c0614d5f1f2df7df13b703" target="_top" xlink:title="Level1.start">
<polygon fill="white" stroke="black" points="454.5,-38.5 454.5,-57.5 527.5,-57.5 527.5,-38.5 454.5,-38.5"/>
<text text-anchor="middle" x="491" y="-45.5" font-family="Helvetica,sans-Serif" font-size="10.00">Level1.start</text>
</a>
</g>
</g>
<!-- Node3&#45;&gt;Node4 -->
<g id="edge3" class="edge"><title>Node3&#45;&gt;Node4</title>
<path fill="none" stroke="midnightblue" d="M428.221,-48C437.159,-48 446.039,-48 454.163,-48"/>
<polygon fill="midnightblue" stroke="midnightblue" points="428.143,-44.5001 418.143,-48 428.143,-51.5001 428.143,-44.5001"/>
</g>
<!-- Node5 -->
<g id="node5" class="node"><title>Node5</title>
<g id="a_node5"><a xlink:href="../../d2/d3e/class_level1.html#ac56e75129bb2946c38cfcf43608f3f05" target="_top" xlink:title="Level1.goNextLevel">
<polygon fill="white" stroke="black" points="564,-0.5 564,-19.5 674,-19.5 674,-0.5 564,-0.5"/>
<text text-anchor="middle" x="619" y="-7.5" font-family="Helvetica,sans-Serif" font-size="10.00">Level1.goNextLevel</text>
</a>
</g>
</g>
<!-- Node4&#45;&gt;Node5 -->
<g id="edge4" class="edge"><title>Node4&#45;&gt;Node5</title>
<path fill="none" stroke="midnightblue" d="M533.564,-35.4647C550.705,-30.2952 570.25,-24.4009 586.215,-19.5859"/>
<polygon fill="midnightblue" stroke="midnightblue" points="532.359,-32.1726 523.795,-38.411 534.38,-38.8744 532.359,-32.1726"/>
</g>
<!-- Node6 -->
<g id="node6" class="node"><title>Node6</title>
<g id="a_node6"><a xlink:href="../../d2/db8/class_menu.html#ab6296880308728ced459f772430d025b" target="_top" xlink:title="Menu.createGame">
<polygon fill="white" stroke="black" points="566,-38.5 566,-57.5 672,-57.5 672,-38.5 566,-38.5"/>
<text text-anchor="middle" x="619" y="-45.5" font-family="Helvetica,sans-Serif" font-size="10.00">Menu.createGame</text>
</a>
</g>
</g>
<!-- Node4&#45;&gt;Node6 -->
<g id="edge6" class="edge"><title>Node4&#45;&gt;Node6</title>
<path fill="none" stroke="midnightblue" d="M538.04,-48C547.024,-48 556.506,-48 565.676,-48"/>
<polygon fill="midnightblue" stroke="midnightblue" points="537.77,-44.5001 527.77,-48 537.769,-51.5001 537.77,-44.5001"/>
</g>
<!-- Node5&#45;&gt;Node2 -->
<g id="edge5" class="edge"><title>Node5&#45;&gt;Node2</title>
<path fill="none" stroke="midnightblue" d="M553.511,-13.0032C474.981,-16.6602 343.505,-22.7828 268.023,-26.2979"/>
<polygon fill="midnightblue" stroke="midnightblue" points="553.932,-16.4874 563.759,-12.5259 553.607,-9.49501 553.932,-16.4874"/>
</g>
<!-- Node7 -->
<g id="node7" class="node"><title>Node7</title>
<g id="a_node7"><a xlink:href="../../d2/db8/class_menu.html#a53c8b072d5ec777994fed9ee76c98561" target="_top" xlink:title="Menu.handle">
<polygon fill="white" stroke="black" points="710,-38.5 710,-57.5 788,-57.5 788,-38.5 710,-38.5"/>
<text text-anchor="middle" x="749" y="-45.5" font-family="Helvetica,sans-Serif" font-size="10.00">Menu.handle</text>
</a>
</g>
</g>
<!-- Node6&#45;&gt;Node7 -->
<g id="edge7" class="edge"><title>Node6&#45;&gt;Node7</title>
<path fill="none" stroke="midnightblue" d="M682.198,-48C691.592,-48 701.038,-48 709.726,-48"/>
<polygon fill="midnightblue" stroke="midnightblue" points="682.063,-44.5001 672.062,-48 682.062,-51.5001 682.063,-44.5001"/>
</g>
<!-- Node8 -->
<g id="node8" class="node"><title>Node8</title>
<g id="a_node8"><a xlink:href="../../d2/db8/class_menu.html#aff7a7627619921545f94547ab6135007" target="_top" xlink:title="Menu.addButton">
<polygon fill="white" stroke="black" points="824,-38.5 824,-57.5 920,-57.5 920,-38.5 824,-38.5"/>
<text text-anchor="middle" x="872" y="-45.5" font-family="Helvetica,sans-Serif" font-size="10.00">Menu.addButton</text>
</a>
</g>
</g>
<!-- Node7&#45;&gt;Node8 -->
<g id="edge8" class="edge"><title>Node7&#45;&gt;Node8</title>
<path fill="none" stroke="midnightblue" d="M798.539,-48C806.803,-48 815.377,-48 823.612,-48"/>
<polygon fill="midnightblue" stroke="midnightblue" points="798.285,-44.5001 788.285,-48 798.285,-51.5001 798.285,-44.5001"/>
</g>
<!-- Node9 -->
<g id="node9" class="node"><title>Node9</title>
<g id="a_node9"><a xlink:href="../../d5/db1/class_game_over.html#abb505ac8c26999beff755f4c299370da" target="_top" xlink:title="GameOver.addAllButtons">
<polygon fill="white" stroke="black" points="956.5,-76.5 956.5,-95.5 1093.5,-95.5 1093.5,-76.5 956.5,-76.5"/>
<text text-anchor="middle" x="1025" y="-83.5" font-family="Helvetica,sans-Serif" font-size="10.00">GameOver.addAllButtons</text>
</a>
</g>
</g>
<!-- Node8&#45;&gt;Node9 -->
<g id="edge9" class="edge"><title>Node8&#45;&gt;Node9</title>
<path fill="none" stroke="midnightblue" d="M920.843,-60.04C941.939,-65.3488 966.377,-71.4988 986.17,-76.4799"/>
<polygon fill="midnightblue" stroke="midnightblue" points="921.656,-56.6354 911.104,-57.589 919.947,-63.4237 921.656,-56.6354"/>
</g>
<!-- Node10 -->
<g id="node10" class="node"><title>Node10</title>
<g id="a_node10"><a xlink:href="../../dd/d7f/class_game_win.html#a0ebbfe299d7456f57ae3dbf3817b7f8d" target="_top" xlink:title="GameWin.addAllButtons">
<polygon fill="white" stroke="black" points="959,-38.5 959,-57.5 1091,-57.5 1091,-38.5 959,-38.5"/>
<text text-anchor="middle" x="1025" y="-45.5" font-family="Helvetica,sans-Serif" font-size="10.00">GameWin.addAllButtons</text>
</a>
</g>
</g>
<!-- Node8&#45;&gt;Node10 -->
<g id="edge10" class="edge"><title>Node8&#45;&gt;Node10</title>
<path fill="none" stroke="midnightblue" d="M930.592,-48C939.822,-48 949.431,-48 958.823,-48"/>
<polygon fill="midnightblue" stroke="midnightblue" points="930.363,-44.5001 920.363,-48 930.363,-51.5001 930.363,-44.5001"/>
</g>
<!-- Node11 -->
<g id="node11" class="node"><title>Node11</title>
<g id="a_node11"><a xlink:href="../../d2/db8/class_menu.html#a461e62e606af2391013ce3aaf92a8cc7" target="_top" xlink:title="Menu.addAllButtons">
<polygon fill="white" stroke="black" points="968.5,-0.5 968.5,-19.5 1081.5,-19.5 1081.5,-0.5 968.5,-0.5"/>
<text text-anchor="middle" x="1025" y="-7.5" font-family="Helvetica,sans-Serif" font-size="10.00">Menu.addAllButtons</text>
</a>
</g>
</g>
<!-- Node8&#45;&gt;Node11 -->
<g id="edge11" class="edge"><title>Node8&#45;&gt;Node11</title>
<path fill="none" stroke="midnightblue" d="M920.843,-35.96C941.939,-30.6512 966.377,-24.5012 986.17,-19.5201"/>
<polygon fill="midnightblue" stroke="midnightblue" points="919.947,-32.5763 911.104,-38.411 921.656,-39.3646 919.947,-32.5763"/>
</g>
<!-- Node12 -->
<g id="node12" class="node"><title>Node12</title>
<g id="a_node12"><a xlink:href="../../d2/db8/class_menu.html#a3c99ad09e9f2f975c1a0d0597642651a" target="_top" xlink:title="Menu.init">
<polygon fill="white" stroke="black" points="1130,-0.5 1130,-19.5 1190,-19.5 1190,-0.5 1130,-0.5"/>
<text text-anchor="middle" x="1160" y="-7.5" font-family="Helvetica,sans-Serif" font-size="10.00">Menu.init</text>
</a>
</g>
</g>
<!-- Node11&#45;&gt;Node12 -->
<g id="edge12" class="edge"><title>Node11&#45;&gt;Node12</title>
<path fill="none" stroke="midnightblue" d="M1091.78,-10C1105.09,-10 1118.45,-10 1129.71,-10"/>
<polygon fill="midnightblue" stroke="midnightblue" points="1091.63,-6.5001 1081.63,-10 1091.63,-13.5001 1091.63,-6.5001"/>
</g>
</g>
</svg>
