<?xml version="1.0" encoding="UTF-8" standalone="no"?>
<!DOCTYPE svg PUBLIC "-//W3C//DTD SVG 1.1//EN"
 "http://www.w3.org/Graphics/SVG/1.1/DTD/svg11.dtd">
<!-- Generated by graphviz version 2.36.0 (20140111.2315)
 -->
<!-- Title: Level1.start Pages: 1 -->
<!--zoomable 351 -->
<svg id="main" version="1.1" xmlns="http://www.w3.org/2000/svg" xmlns:xlink="http://www.w3.org/1999/xlink" xml:space="preserve" onload="init(evt)">
<style type="text/css"><![CDATA[
.edge:hover path { stroke: red; }
.edge:hover polygon { stroke: red; fill: red; }
]]></style>
<script type="text/javascript"><![CDATA[
var edges = document.getElementsByTagName('g');
if (edges && edges.length) {
  for (var i=0;i<edges.length;i++) {
    if (edges[i].id.substr(0,4)=='edge') {
      edges[i].setAttribute('class','edge');
    }
  }
}
]]></script>
        <defs>
                <circle id="rim" cx="0" cy="0" r="7"/>
                <circle id="rim2" cx="0" cy="0" r="3.5"/>
                <g id="zoomPlus">
                        <use xlink:href="#rim" fill="#404040">
                                <set attributeName="fill" to="#808080" begin="zoomplus.mouseover" end="zoomplus.mouseout"/>
                        </use>
                        <path d="M-4,0h8M0,-4v8" fill="none" stroke="white" stroke-width="1.5" pointer-events="none"/>
                </g>
                <g id="zoomMin">
                        <use xlink:href="#rim" fill="#404040">
                                <set attributeName="fill" to="#808080" begin="zoomminus.mouseover" end="zoomminus.mouseout"/>
                        </use>
                        <path d="M-4,0h8" fill="none" stroke="white" stroke-width="1.5" pointer-events="none"/>
                </g>
                <g id="dirArrow">
                        <path fill="none" stroke="white" stroke-width="1.5" d="M0,-3.0v7 M-2.5,-0.5L0,-3.0L2.5,-0.5"/>
                </g>
               <g id="resetDef">
                       <use xlink:href="#rim2" fill="#404040">
                               <set attributeName="fill" to="#808080" begin="reset.mouseover" end="reset.mouseout"/>
                       </use>
               </g>
        </defs>

<script type="text/javascript">
var viewWidth = 1064;
var viewHeight = 351;
var sectionId = 'dynsection-18';
</script>
<script xlink:href="../../svgpan.js"/>
<svg id="graph" class="graph">
<g id="viewport">
<title>Level1.start</title>
<polygon fill="white" stroke="none" points="-4,4 -4,-347 1060,-347 1060,4 -4,4"/>
<!-- Node1 -->
<g id="node1" class="node"><title>Node1</title>
<polygon fill="#bfbfbf" stroke="black" points="0.5,-133.5 0.5,-152.5 73.5,-152.5 73.5,-133.5 0.5,-133.5"/>
<text text-anchor="middle" x="37" y="-140.5" font-family="Helvetica,sans-Serif" font-size="10.00">Level1.start</text>
</g>
<!-- Node2 -->
<g id="node2" class="node"><title>Node2</title>
<g id="a_node2"><a xlink:href="../../d2/d3e/class_level1.html#a324da1e22a7a87fa4bb1859b5774bdba" target="_top" xlink:title="Level1.updateFrame">
<polygon fill="white" stroke="black" points="110,-171.5 110,-190.5 224,-190.5 224,-171.5 110,-171.5"/>
<text text-anchor="middle" x="167" y="-178.5" font-family="Helvetica,sans-Serif" font-size="10.00">Level1.updateFrame</text>
</a>
</g>
</g>
<!-- Node1&#45;&gt;Node2 -->
<g id="edge1" class="edge"><title>Node1&#45;&gt;Node2</title>
<path fill="none" stroke="midnightblue" d="M70.2998,-152.589C86.5202,-157.404 106.375,-163.299 123.787,-168.468"/>
<polygon fill="midnightblue" stroke="midnightblue" points="123.128,-171.923 133.711,-171.414 125.12,-165.213 123.128,-171.923"/>
</g>
<!-- Node3 -->
<g id="node3" class="node"><title>Node3</title>
<g id="a_node3"><a xlink:href="../../d2/d3e/class_level1.html#a78a7fb5633734b1815af8db43db23a41" target="_top" xlink:title="Level1.updateSprites">
<polygon fill="white" stroke="black" points="260,-171.5 260,-190.5 378,-190.5 378,-171.5 260,-171.5"/>
<text text-anchor="middle" x="319" y="-178.5" font-family="Helvetica,sans-Serif" font-size="10.00">Level1.updateSprites</text>
</a>
</g>
</g>
<!-- Node2&#45;&gt;Node3 -->
<g id="edge2" class="edge"><title>Node2&#45;&gt;Node3</title>
<path fill="none" stroke="midnightblue" d="M224.281,-181C232.555,-181 241.154,-181 249.639,-181"/>
<polygon fill="midnightblue" stroke="midnightblue" points="249.902,-184.5 259.902,-181 249.902,-177.5 249.902,-184.5"/>
</g>
<!-- Node24 -->
<g id="node24" class="node"><title>Node24</title>
<g id="a_node24"><a xlink:href="../../d2/d3e/class_level1.html#a5f552e875916d0cf7a74896401584b2a" target="_top" xlink:title="Level1.updateTimer">
<polygon fill="white" stroke="black" points="263.5,-209.5 263.5,-228.5 374.5,-228.5 374.5,-209.5 263.5,-209.5"/>
<text text-anchor="middle" x="319" y="-216.5" font-family="Helvetica,sans-Serif" font-size="10.00">Level1.updateTimer</text>
</a>
</g>
</g>
<!-- Node2&#45;&gt;Node24 -->
<g id="edge30" class="edge"><title>Node2&#45;&gt;Node24</title>
<path fill="none" stroke="midnightblue" d="M205.851,-190.589C225.467,-195.558 249.619,-201.677 270.479,-206.961"/>
<polygon fill="midnightblue" stroke="midnightblue" points="269.868,-210.417 280.421,-209.48 271.587,-203.631 269.868,-210.417"/>
</g>
<!-- Node4 -->
<g id="node4" class="node"><title>Node4</title>
<g id="a_node4"><a xlink:href="../../dd/d7a/class_enemy.html#ab653212b50d9e64ba497ae18696d3678" target="_top" xlink:title="Enemy.moveSprite">
<polygon fill="white" stroke="black" points="433.5,-304.5 433.5,-323.5 540.5,-323.5 540.5,-304.5 433.5,-304.5"/>
<text text-anchor="middle" x="487" y="-311.5" font-family="Helvetica,sans-Serif" font-size="10.00">Enemy.moveSprite</text>
</a>
</g>
</g>
<!-- Node3&#45;&gt;Node4 -->
<g id="edge3" class="edge"><title>Node3&#45;&gt;Node4</title>
<path fill="none" stroke="midnightblue" d="M363.911,-190.576C369.074,-193.033 373.939,-196.121 378,-200 410.648,-231.19 380.453,-264.779 414,-295 417.047,-297.745 420.444,-300.101 424.057,-302.123"/>
<polygon fill="midnightblue" stroke="midnightblue" points="422.869,-305.43 433.411,-306.49 425.831,-299.088 422.869,-305.43"/>
</g>
<!-- Node8 -->
<g id="node8" class="node"><title>Node8</title>
<g id="a_node8"><a xlink:href="../../d8/d53/class_player.html#a1b7a0a6c68deb202a672d42e205d5a21" target="_top" xlink:title="Player.moveSprite">
<polygon fill="white" stroke="black" points="435,-266.5 435,-285.5 539,-285.5 539,-266.5 435,-266.5"/>
<text text-anchor="middle" x="487" y="-273.5" font-family="Helvetica,sans-Serif" font-size="10.00">Player.moveSprite</text>
</a>
</g>
</g>
<!-- Node3&#45;&gt;Node8 -->
<g id="edge7" class="edge"><title>Node3&#45;&gt;Node8</title>
<path fill="none" stroke="midnightblue" d="M361.418,-190.61C367.33,-193.076 373.069,-196.157 378,-200 401.633,-218.419 389.838,-239.281 414,-257 417.46,-259.537 421.233,-261.736 425.179,-263.641"/>
<polygon fill="midnightblue" stroke="midnightblue" points="424.06,-266.966 434.637,-267.576 426.749,-260.503 424.06,-266.966"/>
</g>
<!-- Node9 -->
<g id="node9" class="node"><title>Node9</title>
<g id="a_node9"><a xlink:href="../../dd/d7a/class_enemy.html#a9b6840dcc6b8165268e957fc43d95b06" target="_top" xlink:title="Enemy.makePoop">
<polygon fill="white" stroke="black" points="436,-190.5 436,-209.5 538,-209.5 538,-190.5 436,-190.5"/>
<text text-anchor="middle" x="487" y="-197.5" font-family="Helvetica,sans-Serif" font-size="10.00">Enemy.makePoop</text>
</a>
</g>
</g>
<!-- Node3&#45;&gt;Node9 -->
<g id="edge10" class="edge"><title>Node3&#45;&gt;Node9</title>
<path fill="none" stroke="midnightblue" d="M378.059,-187.645C393.551,-189.419 410.322,-191.338 425.92,-193.123"/>
<polygon fill="midnightblue" stroke="midnightblue" points="425.643,-196.614 435.976,-194.274 426.439,-189.66 425.643,-196.614"/>
</g>
<!-- Node10 -->
<g id="node10" class="node"><title>Node10</title>
<g id="a_node10"><a xlink:href="../../d2/d3e/class_level1.html#aa75f107bf925594da75a1d82cf64044d" target="_top" xlink:title="Level1.returnCollisions">
<polygon fill="white" stroke="black" points="425,-152.5 425,-171.5 549,-171.5 549,-152.5 425,-152.5"/>
<text text-anchor="middle" x="487" y="-159.5" font-family="Helvetica,sans-Serif" font-size="10.00">Level1.returnCollisions</text>
</a>
</g>
</g>
<!-- Node3&#45;&gt;Node10 -->
<g id="edge12" class="edge"><title>Node3&#45;&gt;Node10</title>
<path fill="none" stroke="midnightblue" d="M378.059,-174.355C389.892,-173 402.47,-171.561 414.703,-170.161"/>
<polygon fill="midnightblue" stroke="midnightblue" points="415.336,-173.611 424.873,-168.996 414.54,-166.656 415.336,-173.611"/>
</g>
<!-- Node14 -->
<g id="node14" class="node"><title>Node14</title>
<g id="a_node14"><a xlink:href="../../d2/d3e/class_level1.html#ac56e75129bb2946c38cfcf43608f3f05" target="_top" xlink:title="Level1.goNextLevel">
<polygon fill="white" stroke="black" points="432,-76.5 432,-95.5 542,-95.5 542,-76.5 432,-76.5"/>
<text text-anchor="middle" x="487" y="-83.5" font-family="Helvetica,sans-Serif" font-size="10.00">Level1.goNextLevel</text>
</a>
</g>
</g>
<!-- Node3&#45;&gt;Node14 -->
<g id="edge16" class="edge"><title>Node3&#45;&gt;Node14</title>
<path fill="none" stroke="midnightblue" d="M329.176,-171.278C344.972,-155.114 378.993,-122.737 414,-105 418.568,-102.686 423.446,-100.633 428.429,-98.8155"/>
<polygon fill="midnightblue" stroke="midnightblue" points="429.701,-102.081 438.086,-95.605 427.492,-95.4384 429.701,-102.081"/>
</g>
<!-- Node22 -->
<g id="node22" class="node"><title>Node22</title>
<g id="a_node22"><a xlink:href="../../d2/d3e/class_level1.html#a5e6976ef755d0e678034870e374ee4ca" target="_top" xlink:title="Level1.goGameOver">
<polygon fill="white" stroke="black" points="430,-114.5 430,-133.5 544,-133.5 544,-114.5 430,-114.5"/>
<text text-anchor="middle" x="487" y="-121.5" font-family="Helvetica,sans-Serif" font-size="10.00">Level1.goGameOver</text>
</a>
</g>
</g>
<!-- Node3&#45;&gt;Node22 -->
<g id="edge25" class="edge"><title>Node3&#45;&gt;Node22</title>
<path fill="none" stroke="midnightblue" d="M341.366,-171.462C360.233,-163.257 388.612,-151.444 414,-143 421.165,-140.617 428.808,-138.332 436.339,-136.225"/>
<polygon fill="midnightblue" stroke="midnightblue" points="437.392,-139.566 446.123,-133.564 435.555,-132.811 437.392,-139.566"/>
</g>
<!-- Node23 -->
<g id="node23" class="node"><title>Node23</title>
<g id="a_node23"><a xlink:href="../../d2/d3e/class_level1.html#a5995ba731849ced54b8f97fcc93ce4d9" target="_top" xlink:title="Level1.removeFromScreen">
<polygon fill="white" stroke="black" points="414.5,-228.5 414.5,-247.5 559.5,-247.5 559.5,-228.5 414.5,-228.5"/>
<text text-anchor="middle" x="487" y="-235.5" font-family="Helvetica,sans-Serif" font-size="10.00">Level1.removeFromScreen</text>
</a>
</g>
</g>
<!-- Node3&#45;&gt;Node23 -->
<g id="edge29" class="edge"><title>Node3&#45;&gt;Node23</title>
<path fill="none" stroke="midnightblue" d="M352.57,-190.599C360.96,-193.362 369.903,-196.566 378,-200 394.656,-207.063 397.145,-212.427 414,-219 420.231,-221.43 426.884,-223.654 433.534,-225.655"/>
<polygon fill="midnightblue" stroke="midnightblue" points="432.649,-229.042 443.226,-228.427 434.574,-222.312 432.649,-229.042"/>
</g>
<!-- Node5 -->
<g id="node5" class="node"><title>Node5</title>
<g id="a_node5"><a xlink:href="../../d7/dbf/class_sprite.html#a4dd4a643703de09c632a0e7d70a570e7" target="_top" xlink:title="Sprite.getVelocity">
<polygon fill="white" stroke="black" points="606.5,-323.5 606.5,-342.5 707.5,-342.5 707.5,-323.5 606.5,-323.5"/>
<text text-anchor="middle" x="657" y="-330.5" font-family="Helvetica,sans-Serif" font-size="10.00">Sprite.getVelocity</text>
</a>
</g>
</g>
<!-- Node4&#45;&gt;Node5 -->
<g id="edge4" class="edge"><title>Node4&#45;&gt;Node5</title>
<path fill="none" stroke="midnightblue" d="M540.695,-319.96C558.313,-321.952 578.075,-324.187 596.195,-326.236"/>
<polygon fill="midnightblue" stroke="midnightblue" points="596.026,-329.739 606.356,-327.386 596.813,-322.784 596.026,-329.739"/>
</g>
<!-- Node6 -->
<g id="node6" class="node"><title>Node6</title>
<g id="a_node6"><a xlink:href="../../d7/dbf/class_sprite.html#ab8f846b7ba77ae72ad09f48da22ceea7" target="_top" xlink:title="Sprite.moveSprite">
<polygon fill="white" stroke="black" points="605,-285.5 605,-304.5 709,-304.5 709,-285.5 605,-285.5"/>
<text text-anchor="middle" x="657" y="-292.5" font-family="Helvetica,sans-Serif" font-size="10.00">Sprite.moveSprite</text>
</a>
</g>
</g>
<!-- Node4&#45;&gt;Node6 -->
<g id="edge5" class="edge"><title>Node4&#45;&gt;Node6</title>
<path fill="none" stroke="midnightblue" d="M540.695,-308.04C557.829,-306.103 576.991,-303.936 594.698,-301.933"/>
<polygon fill="midnightblue" stroke="midnightblue" points="595.386,-305.378 604.929,-300.776 594.599,-298.422 595.386,-305.378"/>
</g>
<!-- Node7 -->
<g id="node7" class="node"><title>Node7</title>
<g id="a_node7"><a xlink:href="../../d7/dbf/class_sprite.html#accdf1c21264c6ff648ece508cf176bfb" target="_top" xlink:title="Sprite.setVelocity">
<polygon fill="white" stroke="black" points="607,-247.5 607,-266.5 707,-266.5 707,-247.5 607,-247.5"/>
<text text-anchor="middle" x="657" y="-254.5" font-family="Helvetica,sans-Serif" font-size="10.00">Sprite.setVelocity</text>
</a>
</g>
</g>
<!-- Node4&#45;&gt;Node7 -->
<g id="edge6" class="edge"><title>Node4&#45;&gt;Node7</title>
<path fill="none" stroke="midnightblue" d="M530.774,-304.427C540.517,-301.776 550.726,-298.617 560,-295 576.855,-288.427 579.309,-282.981 596,-276 601.36,-273.758 607.082,-271.628 612.784,-269.66"/>
<polygon fill="midnightblue" stroke="midnightblue" points="613.902,-272.976 622.294,-266.509 611.701,-266.331 613.902,-272.976"/>
</g>
<!-- Node8&#45;&gt;Node6 -->
<g id="edge9" class="edge"><title>Node8&#45;&gt;Node6</title>
<path fill="none" stroke="midnightblue" d="M539.318,-281.804C556.905,-283.793 576.755,-286.038 595.03,-288.105"/>
<polygon fill="midnightblue" stroke="midnightblue" points="594.666,-291.586 604.996,-289.232 595.453,-284.63 594.666,-291.586"/>
</g>
<!-- Node8&#45;&gt;Node7 -->
<g id="edge8" class="edge"><title>Node8&#45;&gt;Node7</title>
<path fill="none" stroke="midnightblue" d="M539.318,-270.196C557.393,-268.152 577.86,-265.837 596.549,-263.724"/>
<polygon fill="midnightblue" stroke="midnightblue" points="597.179,-267.175 606.723,-262.573 596.393,-260.219 597.179,-267.175"/>
</g>
<!-- Node9&#45;&gt;Node7 -->
<g id="edge11" class="edge"><title>Node9&#45;&gt;Node7</title>
<path fill="none" stroke="midnightblue" d="M527.484,-209.516C538.116,-212.323 549.56,-215.57 560,-219 581.941,-226.209 606.114,-235.787 624.714,-243.524"/>
<polygon fill="midnightblue" stroke="midnightblue" points="623.583,-246.845 634.158,-247.492 626.294,-240.391 623.583,-246.845"/>
</g>
<!-- Node11 -->
<g id="node11" class="node"><title>Node11</title>
<g id="a_node11"><a xlink:href="../../d7/da7/class_character.html#aa2149c166e797ae0ded67d9f768ac7f3" target="_top" xlink:title="Character.updateAll">
<polygon fill="white" stroke="black" points="601.5,-190.5 601.5,-209.5 712.5,-209.5 712.5,-190.5 601.5,-190.5"/>
<text text-anchor="middle" x="657" y="-197.5" font-family="Helvetica,sans-Serif" font-size="10.00">Character.updateAll</text>
</a>
</g>
</g>
<!-- Node10&#45;&gt;Node11 -->
<g id="edge13" class="edge"><title>Node10&#45;&gt;Node11</title>
<path fill="none" stroke="midnightblue" d="M530.393,-171.589C552.763,-176.649 580.398,-182.9 604.047,-188.249"/>
<polygon fill="midnightblue" stroke="midnightblue" points="603.386,-191.687 613.911,-190.48 604.93,-184.86 603.386,-191.687"/>
</g>
<!-- Node12 -->
<g id="node12" class="node"><title>Node12</title>
<g id="a_node12"><a xlink:href="../../d7/da7/class_character.html#ade25acccb27ac9aeb2752b2df29d075f" target="_top" xlink:title="Character.collisionUpdate">
<polygon fill="white" stroke="black" points="754.5,-190.5 754.5,-209.5 893.5,-209.5 893.5,-190.5 754.5,-190.5"/>
<text text-anchor="middle" x="824" y="-197.5" font-family="Helvetica,sans-Serif" font-size="10.00">Character.collisionUpdate</text>
</a>
</g>
</g>
<!-- Node11&#45;&gt;Node12 -->
<g id="edge14" class="edge"><title>Node11&#45;&gt;Node12</title>
<path fill="none" stroke="midnightblue" d="M712.943,-200C723.031,-200 733.74,-200 744.363,-200"/>
<polygon fill="midnightblue" stroke="midnightblue" points="744.5,-203.5 754.5,-200 744.5,-196.5 744.5,-203.5"/>
</g>
<!-- Node13 -->
<g id="node13" class="node"><title>Node13</title>
<g id="a_node13"><a xlink:href="../../d7/da7/class_character.html#ad223fcb54929116326bf8816d43f5173" target="_top" xlink:title="Character.checkCollide">
<polygon fill="white" stroke="black" points="930.5,-190.5 930.5,-209.5 1055.5,-209.5 1055.5,-190.5 930.5,-190.5"/>
<text text-anchor="middle" x="993" y="-197.5" font-family="Helvetica,sans-Serif" font-size="10.00">Character.checkCollide</text>
</a>
</g>
</g>
<!-- Node12&#45;&gt;Node13 -->
<g id="edge15" class="edge"><title>Node12&#45;&gt;Node13</title>
<path fill="none" stroke="midnightblue" d="M893.889,-200C902.607,-200 911.545,-200 920.305,-200"/>
<polygon fill="midnightblue" stroke="midnightblue" points="920.484,-203.5 930.484,-200 920.484,-196.5 920.484,-203.5"/>
</g>
<!-- Node14&#45;&gt;Node1 -->
<g id="edge24" class="edge"><title>Node14&#45;&gt;Node1</title>
<path fill="none" stroke="midnightblue" d="M431.736,-92.9041C342.614,-104.243 166.848,-126.606 83.6776,-137.188"/>
<polygon fill="midnightblue" stroke="midnightblue" points="83.0065,-133.745 73.5283,-138.48 83.8901,-140.689 83.0065,-133.745"/>
</g>
<!-- Node15 -->
<g id="node15" class="node"><title>Node15</title>
<g id="a_node15"><a xlink:href="../../d2/d3e/class_level1.html#ac4098d447b9841cabec6be3bb719bd26" target="_top" xlink:title="Level1.clearElements">
<polygon fill="white" stroke="black" points="597.5,-76.5 597.5,-95.5 716.5,-95.5 716.5,-76.5 597.5,-76.5"/>
<text text-anchor="middle" x="657" y="-83.5" font-family="Helvetica,sans-Serif" font-size="10.00">Level1.clearElements</text>
</a>
</g>
</g>
<!-- Node14&#45;&gt;Node15 -->
<g id="edge17" class="edge"><title>Node14&#45;&gt;Node15</title>
<path fill="none" stroke="midnightblue" d="M542.081,-86C556.421,-86 572.1,-86 587.112,-86"/>
<polygon fill="midnightblue" stroke="midnightblue" points="587.374,-89.5001 597.374,-86 587.374,-82.5001 587.374,-89.5001"/>
</g>
<!-- Node16 -->
<g id="node16" class="node"><title>Node16</title>
<g id="a_node16"><a xlink:href="../../d7/da7/class_character.html#a4dc23a76b34bcbb84abba1b116847268" target="_top" xlink:title="Character.getHP">
<polygon fill="white" stroke="black" points="609.5,-114.5 609.5,-133.5 704.5,-133.5 704.5,-114.5 609.5,-114.5"/>
<text text-anchor="middle" x="657" y="-121.5" font-family="Helvetica,sans-Serif" font-size="10.00">Character.getHP</text>
</a>
</g>
</g>
<!-- Node14&#45;&gt;Node16 -->
<g id="edge18" class="edge"><title>Node14&#45;&gt;Node16</title>
<path fill="none" stroke="midnightblue" d="M530.393,-95.589C552.763,-100.649 580.398,-106.9 604.047,-112.249"/>
<polygon fill="midnightblue" stroke="midnightblue" points="603.386,-115.687 613.911,-114.48 604.93,-108.86 603.386,-115.687"/>
</g>
<!-- Node17 -->
<g id="node17" class="node"><title>Node17</title>
<g id="a_node17"><a xlink:href="../../dd/d7a/class_enemy.html#a0b00e167bc151db783054dddb2f9b509" target="_top" xlink:title="Enemy.makeAngry">
<polygon fill="white" stroke="black" points="604,-0.5 604,-19.5 710,-19.5 710,-0.5 604,-0.5"/>
<text text-anchor="middle" x="657" y="-7.5" font-family="Helvetica,sans-Serif" font-size="10.00">Enemy.makeAngry</text>
</a>
</g>
</g>
<!-- Node14&#45;&gt;Node17 -->
<g id="edge19" class="edge"><title>Node14&#45;&gt;Node17</title>
<path fill="none" stroke="midnightblue" d="M504.026,-76.3733C524.737,-64.2081 562.163,-43.1529 596,-29 601.36,-26.7582 607.082,-24.628 612.784,-22.6597"/>
<polygon fill="midnightblue" stroke="midnightblue" points="613.902,-25.9763 622.294,-19.509 611.701,-19.3315 613.902,-25.9763"/>
</g>
<!-- Node18 -->
<g id="node18" class="node"><title>Node18</title>
<g id="a_node18"><a xlink:href="../../d6/d21/class_screen.html#a5d40342bbe33c27c9e0e24bd8709d1f6" target="_top" xlink:title="Screen.showAndAnim">
<polygon fill="white" stroke="black" points="596.5,-38.5 596.5,-57.5 717.5,-57.5 717.5,-38.5 596.5,-38.5"/>
<text text-anchor="middle" x="657" y="-45.5" font-family="Helvetica,sans-Serif" font-size="10.00">Screen.showAndAnim</text>
</a>
</g>
</g>
<!-- Node14&#45;&gt;Node18 -->
<g id="edge20" class="edge"><title>Node14&#45;&gt;Node18</title>
<path fill="none" stroke="midnightblue" d="M530.393,-76.411C552.763,-71.3513 580.398,-65.1004 604.047,-59.7512"/>
<polygon fill="midnightblue" stroke="midnightblue" points="604.93,-63.1401 613.911,-57.5201 603.386,-56.3125 604.93,-63.1401"/>
</g>
<!-- Node19 -->
<g id="node19" class="node"><title>Node19</title>
<g id="a_node19"><a xlink:href="../../d6/d21/class_screen.html#a5d9534b81b96cfc0a00009dea6be6c09" target="_top" xlink:title="Screen.showScreen">
<polygon fill="white" stroke="black" points="768.5,-114.5 768.5,-133.5 879.5,-133.5 879.5,-114.5 768.5,-114.5"/>
<text text-anchor="middle" x="824" y="-121.5" font-family="Helvetica,sans-Serif" font-size="10.00">Screen.showScreen</text>
</a>
</g>
</g>
<!-- Node18&#45;&gt;Node19 -->
<g id="edge21" class="edge"><title>Node18&#45;&gt;Node19</title>
<path fill="none" stroke="midnightblue" d="M692.048,-57.5421C700.635,-60.2851 709.755,-63.4943 718,-67 746.637,-79.1754 777.77,-96.6561 798.639,-109.042"/>
<polygon fill="midnightblue" stroke="midnightblue" points="797.084,-112.191 807.459,-114.338 800.687,-106.19 797.084,-112.191"/>
</g>
<!-- Node21 -->
<g id="node21" class="node"><title>Node21</title>
<g id="a_node21"><a xlink:href="../../d6/d21/class_screen.html#a601576a0d49770789b2eb08328f09c53" target="_top" xlink:title="Screen.startAnim">
<polygon fill="white" stroke="black" points="773.5,-38.5 773.5,-57.5 874.5,-57.5 874.5,-38.5 773.5,-38.5"/>
<text text-anchor="middle" x="824" y="-45.5" font-family="Helvetica,sans-Serif" font-size="10.00">Screen.startAnim</text>
</a>
</g>
</g>
<!-- Node18&#45;&gt;Node21 -->
<g id="edge23" class="edge"><title>Node18&#45;&gt;Node21</title>
<path fill="none" stroke="midnightblue" d="M717.569,-48C732.419,-48 748.346,-48 763.207,-48"/>
<polygon fill="midnightblue" stroke="midnightblue" points="763.299,-51.5001 773.299,-48 763.299,-44.5001 763.299,-51.5001"/>
</g>
<!-- Node20 -->
<g id="node20" class="node"><title>Node20</title>
<g id="a_node20"><a xlink:href="../../d6/d21/class_screen.html#ac7ca0a382b3177bbea4e2a4e7c0f442e" target="_top" xlink:title="Screen.init">
<polygon fill="white" stroke="black" points="959,-114.5 959,-133.5 1027,-133.5 1027,-114.5 959,-114.5"/>
<text text-anchor="middle" x="993" y="-121.5" font-family="Helvetica,sans-Serif" font-size="10.00">Screen.init</text>
</a>
</g>
</g>
<!-- Node19&#45;&gt;Node20 -->
<g id="edge22" class="edge"><title>Node19&#45;&gt;Node20</title>
<path fill="none" stroke="midnightblue" d="M879.682,-124C901.979,-124 927.401,-124 948.414,-124"/>
<polygon fill="midnightblue" stroke="midnightblue" points="948.65,-127.5 958.65,-124 948.65,-120.5 948.65,-127.5"/>
</g>
<!-- Node22&#45;&gt;Node15 -->
<g id="edge26" class="edge"><title>Node22&#45;&gt;Node15</title>
<path fill="none" stroke="midnightblue" d="M530.393,-114.411C552.763,-109.351 580.398,-103.1 604.047,-97.7512"/>
<polygon fill="midnightblue" stroke="midnightblue" points="604.93,-101.14 613.911,-95.5201 603.386,-94.3125 604.93,-101.14"/>
</g>
<!-- Node22&#45;&gt;Node16 -->
<g id="edge27" class="edge"><title>Node22&#45;&gt;Node16</title>
<path fill="none" stroke="midnightblue" d="M544.409,-124C562.019,-124 581.45,-124 599.094,-124"/>
<polygon fill="midnightblue" stroke="midnightblue" points="599.249,-127.5 609.249,-124 599.249,-120.5 599.249,-127.5"/>
</g>
<!-- Node22&#45;&gt;Node19 -->
<g id="edge28" class="edge"><title>Node22&#45;&gt;Node19</title>
<path fill="none" stroke="midnightblue" d="M531.909,-133.512C551.431,-137.277 574.758,-141.146 596,-143 650.017,-147.715 663.995,-147.847 718,-143 735.113,-141.464 753.609,-138.547 770.239,-135.451"/>
<polygon fill="midnightblue" stroke="midnightblue" points="771.165,-138.838 780.323,-133.512 769.842,-131.964 771.165,-138.838"/>
</g>
</g>
</svg>
        <g id="navigator" transform="translate(0 0)" fill="#404254">
                <rect fill="#f2f5e9" fill-opacity="0.5" stroke="#606060" stroke-width=".5" x="0" y="0" width="60" height="60"/>
                <use id="zoomplus" xlink:href="#zoomPlus" x="17" y="9" onmousedown="handleZoom(evt,'in')"/>
                <use id="zoomminus" xlink:href="#zoomMin" x="42" y="9" onmousedown="handleZoom(evt,'out')"/>
                <use id="reset" xlink:href="#resetDef" x="30" y="36" onmousedown="handleReset()"/>
                <g id="arrowUp" xlink:href="#dirArrow" transform="translate(30 24)" onmousedown="handlePan(0,-1)">
                  <use xlink:href="#rim" fill="#404040">
                        <set attributeName="fill" to="#808080" begin="arrowUp.mouseover" end="arrowUp.mouseout"/>
                  </use>
                  <path fill="none" stroke="white" stroke-width="1.5" d="M0,-3.0v7 M-2.5,-0.5L0,-3.0L2.5,-0.5"/>
                </g>
                <g id="arrowRight" xlink:href="#dirArrow" transform="rotate(90) translate(36 -43)" onmousedown="handlePan(1,0)">
                  <use xlink:href="#rim" fill="#404040">
                        <set attributeName="fill" to="#808080" begin="arrowRight.mouseover" end="arrowRight.mouseout"/>
                  </use>
                  <path fill="none" stroke="white" stroke-width="1.5" d="M0,-3.0v7 M-2.5,-0.5L0,-3.0L2.5,-0.5"/>
                </g>
                <g id="arrowDown" xlink:href="#dirArrow" transform="rotate(180) translate(-30 -48)" onmousedown="handlePan(0,1)">
                  <use xlink:href="#rim" fill="#404040">
                        <set attributeName="fill" to="#808080" begin="arrowDown.mouseover" end="arrowDown.mouseout"/>
                  </use>
                  <path fill="none" stroke="white" stroke-width="1.5" d="M0,-3.0v7 M-2.5,-0.5L0,-3.0L2.5,-0.5"/>
                </g>
                <g id="arrowLeft" xlink:href="#dirArrow" transform="rotate(270) translate(-36 17)" onmousedown="handlePan(-1,0)">
                  <use xlink:href="#rim" fill="#404040">
                        <set attributeName="fill" to="#808080" begin="arrowLeft.mouseover" end="arrowLeft.mouseout"/>
                  </use>
                  <path fill="none" stroke="white" stroke-width="1.5" d="M0,-3.0v7 M-2.5,-0.5L0,-3.0L2.5,-0.5"/>
                </g>
        </g>
        <svg viewBox="0 0 15 15" width="100%" height="30px" preserveAspectRatio="xMaxYMin meet">
         <g id="arrow_out" transform="scale(0.3 0.3)">
          <a xlink:href="class_level1_a0871325d07c0614d5f1f2df7df13b703_cgraph_org.svg" target="_base">
           <rect id="button" ry="5" rx="5" y="6" x="6" height="38" width="38"
                fill="#f2f5e9" fill-opacity="0.5" stroke="#606060" stroke-width="1.0"/>
           <path id="arrow"
             d="M 11.500037,31.436501 C 11.940474,20.09759 22.043105,11.32322 32.158766,21.979434 L 37.068811,17.246167 C 37.068811,17.246167 37.088388,32 37.088388,32 L 22.160133,31.978069 C 22.160133,31.978069 26.997745,27.140456 26.997745,27.140456 C 18.528582,18.264221 13.291696,25.230495 11.500037,31.436501 z"
             style="fill:#404040;"/>
          </a>
         </g>
        </svg>
</svg>
