<?xml version="1.0" encoding="UTF-8" standalone="no"?>
<!DOCTYPE svg PUBLIC "-//W3C//DTD SVG 1.1//EN"
 "http://www.w3.org/Graphics/SVG/1.1/DTD/svg11.dtd">
<!-- Generated by graphviz version 2.36.0 (20140111.2315)
 -->
<!-- Title: Level1.clearElements Pages: 1 -->
<svg width="1354pt" height="113pt"
 viewBox="0.00 0.00 1354.00 113.00" xmlns="http://www.w3.org/2000/svg" xmlns:xlink="http://www.w3.org/1999/xlink">
<g id="graph0" class="graph" transform="scale(1 1) rotate(0) translate(4 109)">
<title>Level1.clearElements</title>
<polygon fill="white" stroke="none" points="-4,4 -4,-109 1350,-109 1350,4 -4,4"/>
<!-- Node1 -->
<g id="node1" class="node"><title>Node1</title>
<polygon fill="#bfbfbf" stroke="black" points="0.5,-9.5 0.5,-28.5 119.5,-28.5 119.5,-9.5 0.5,-9.5"/>
<text text-anchor="middle" x="60" y="-16.5" font-family="Helvetica,sans-Serif" font-size="10.00">Level1.clearElements</text>
</g>
<!-- Node2 -->
<g id="node2" class="node"><title>Node2</title>
<g id="a_node2"><a xlink:href="../../d2/d3e/class_level1.html#a5e6976ef755d0e678034870e374ee4ca" target="_top" xlink:title="Level1.goGameOver">
<polygon fill="white" stroke="black" points="156,-28.5 156,-47.5 270,-47.5 270,-28.5 156,-28.5"/>
<text text-anchor="middle" x="213" y="-35.5" font-family="Helvetica,sans-Serif" font-size="10.00">Level1.goGameOver</text>
</a>
</g>
</g>
<!-- Node1&#45;&gt;Node2 -->
<g id="edge1" class="edge"><title>Node1&#45;&gt;Node2</title>
<path fill="none" stroke="midnightblue" d="M129.842,-27.6623C138.454,-28.7459 147.183,-29.8442 155.575,-30.9002"/>
<polygon fill="midnightblue" stroke="midnightblue" points="130.172,-24.1762 119.813,-26.4003 129.298,-31.1214 130.172,-24.1762"/>
</g>
<!-- Node6 -->
<g id="node6" class="node"><title>Node6</title>
<g id="a_node6"><a xlink:href="../../d2/d3e/class_level1.html#ac56e75129bb2946c38cfcf43608f3f05" target="_top" xlink:title="Level1.goNextLevel">
<polygon fill="white" stroke="black" points="720,-28.5 720,-47.5 830,-47.5 830,-28.5 720,-28.5"/>
<text text-anchor="middle" x="775" y="-35.5" font-family="Helvetica,sans-Serif" font-size="10.00">Level1.goNextLevel</text>
</a>
</g>
</g>
<!-- Node1&#45;&gt;Node6 -->
<g id="edge13" class="edge"><title>Node1&#45;&gt;Node6</title>
<path fill="none" stroke="midnightblue" d="M129.916,-12.2122C191.28,-6.75724 283.533,-7.10543e-15 364,-0 364,-0 364,-0 518,-0 595.282,-0 684.279,-17.1538 734.362,-28.411"/>
<polygon fill="midnightblue" stroke="midnightblue" points="129.23,-8.75987 119.585,-13.1443 129.859,-15.7316 129.23,-8.75987"/>
</g>
<!-- Node3 -->
<g id="node3" class="node"><title>Node3</title>
<g id="a_node3"><a xlink:href="../../d2/d3e/class_level1.html#a78a7fb5633734b1815af8db43db23a41" target="_top" xlink:title="Level1.updateSprites">
<polygon fill="white" stroke="black" points="306,-28.5 306,-47.5 424,-47.5 424,-28.5 306,-28.5"/>
<text text-anchor="middle" x="365" y="-35.5" font-family="Helvetica,sans-Serif" font-size="10.00">Level1.updateSprites</text>
</a>
</g>
</g>
<!-- Node2&#45;&gt;Node3 -->
<g id="edge2" class="edge"><title>Node2&#45;&gt;Node3</title>
<path fill="none" stroke="midnightblue" d="M280.505,-38C288.971,-38 297.583,-38 305.902,-38"/>
<polygon fill="midnightblue" stroke="midnightblue" points="280.281,-34.5001 270.281,-38 280.281,-41.5001 280.281,-34.5001"/>
</g>
<!-- Node4 -->
<g id="node4" class="node"><title>Node4</title>
<g id="a_node4"><a xlink:href="../../d2/d3e/class_level1.html#a324da1e22a7a87fa4bb1859b5774bdba" target="_top" xlink:title="Level1.updateFrame">
<polygon fill="white" stroke="black" points="460,-66.5 460,-85.5 574,-85.5 574,-66.5 460,-66.5"/>
<text text-anchor="middle" x="517" y="-73.5" font-family="Helvetica,sans-Serif" font-size="10.00">Level1.updateFrame</text>
</a>
</g>
</g>
<!-- Node3&#45;&gt;Node4 -->
<g id="edge3" class="edge"><title>Node3&#45;&gt;Node4</title>
<path fill="none" stroke="midnightblue" d="M413.811,-50.1121C434.702,-55.4044 458.847,-61.5213 478.421,-66.4799"/>
<polygon fill="midnightblue" stroke="midnightblue" points="414.405,-46.652 403.851,-47.589 412.686,-53.4377 414.405,-46.652"/>
</g>
<!-- Node5 -->
<g id="node5" class="node"><title>Node5</title>
<g id="a_node5"><a xlink:href="../../d2/d3e/class_level1.html#a0871325d07c0614d5f1f2df7df13b703" target="_top" xlink:title="Level1.start">
<polygon fill="white" stroke="black" points="610.5,-66.5 610.5,-85.5 683.5,-85.5 683.5,-66.5 610.5,-66.5"/>
<text text-anchor="middle" x="647" y="-73.5" font-family="Helvetica,sans-Serif" font-size="10.00">Level1.start</text>
</a>
</g>
</g>
<!-- Node4&#45;&gt;Node5 -->
<g id="edge4" class="edge"><title>Node4&#45;&gt;Node5</title>
<path fill="none" stroke="midnightblue" d="M584.221,-76C593.159,-76 602.039,-76 610.163,-76"/>
<polygon fill="midnightblue" stroke="midnightblue" points="584.143,-72.5001 574.143,-76 584.143,-79.5001 584.143,-72.5001"/>
</g>
<!-- Node5&#45;&gt;Node6 -->
<g id="edge5" class="edge"><title>Node5&#45;&gt;Node6</title>
<path fill="none" stroke="midnightblue" d="M689.564,-63.4647C706.705,-58.2952 726.25,-52.4009 742.215,-47.5859"/>
<polygon fill="midnightblue" stroke="midnightblue" points="688.359,-60.1726 679.795,-66.411 690.38,-66.8744 688.359,-60.1726"/>
</g>
<!-- Node7 -->
<g id="node7" class="node"><title>Node7</title>
<g id="a_node7"><a xlink:href="../../d2/db8/class_menu.html#ab6296880308728ced459f772430d025b" target="_top" xlink:title="Menu.createGame">
<polygon fill="white" stroke="black" points="722,-66.5 722,-85.5 828,-85.5 828,-66.5 722,-66.5"/>
<text text-anchor="middle" x="775" y="-73.5" font-family="Helvetica,sans-Serif" font-size="10.00">Menu.createGame</text>
</a>
</g>
</g>
<!-- Node5&#45;&gt;Node7 -->
<g id="edge7" class="edge"><title>Node5&#45;&gt;Node7</title>
<path fill="none" stroke="midnightblue" d="M694.04,-76C703.024,-76 712.506,-76 721.676,-76"/>
<polygon fill="midnightblue" stroke="midnightblue" points="693.77,-72.5001 683.77,-76 693.769,-79.5001 693.77,-72.5001"/>
</g>
<!-- Node6&#45;&gt;Node3 -->
<g id="edge6" class="edge"><title>Node6&#45;&gt;Node3</title>
<path fill="none" stroke="midnightblue" d="M709.511,-38C630.981,-38 499.505,-38 424.023,-38"/>
<polygon fill="midnightblue" stroke="midnightblue" points="709.759,-41.5001 719.759,-38 709.759,-34.5001 709.759,-41.5001"/>
</g>
<!-- Node8 -->
<g id="node8" class="node"><title>Node8</title>
<g id="a_node8"><a xlink:href="../../d2/db8/class_menu.html#a53c8b072d5ec777994fed9ee76c98561" target="_top" xlink:title="Menu.handle">
<polygon fill="white" stroke="black" points="866,-66.5 866,-85.5 944,-85.5 944,-66.5 866,-66.5"/>
<text text-anchor="middle" x="905" y="-73.5" font-family="Helvetica,sans-Serif" font-size="10.00">Menu.handle</text>
</a>
</g>
</g>
<!-- Node7&#45;&gt;Node8 -->
<g id="edge8" class="edge"><title>Node7&#45;&gt;Node8</title>
<path fill="none" stroke="midnightblue" d="M838.198,-76C847.592,-76 857.038,-76 865.726,-76"/>
<polygon fill="midnightblue" stroke="midnightblue" points="838.063,-72.5001 828.062,-76 838.062,-79.5001 838.063,-72.5001"/>
</g>
<!-- Node9 -->
<g id="node9" class="node"><title>Node9</title>
<g id="a_node9"><a xlink:href="../../d2/db8/class_menu.html#aff7a7627619921545f94547ab6135007" target="_top" xlink:title="Menu.addButton">
<polygon fill="white" stroke="black" points="980,-66.5 980,-85.5 1076,-85.5 1076,-66.5 980,-66.5"/>
<text text-anchor="middle" x="1028" y="-73.5" font-family="Helvetica,sans-Serif" font-size="10.00">Menu.addButton</text>
</a>
</g>
</g>
<!-- Node8&#45;&gt;Node9 -->
<g id="edge9" class="edge"><title>Node8&#45;&gt;Node9</title>
<path fill="none" stroke="midnightblue" d="M954.539,-76C962.803,-76 971.377,-76 979.612,-76"/>
<polygon fill="midnightblue" stroke="midnightblue" points="954.285,-72.5001 944.285,-76 954.285,-79.5001 954.285,-72.5001"/>
</g>
<!-- Node10 -->
<g id="node10" class="node"><title>Node10</title>
<g id="a_node10"><a xlink:href="../../d5/db1/class_game_over.html#abb505ac8c26999beff755f4c299370da" target="_top" xlink:title="GameOver.addAllButtons">
<polygon fill="white" stroke="black" points="1112.5,-85.5 1112.5,-104.5 1249.5,-104.5 1249.5,-85.5 1112.5,-85.5"/>
<text text-anchor="middle" x="1181" y="-92.5" font-family="Helvetica,sans-Serif" font-size="10.00">GameOver.addAllButtons</text>
</a>
</g>
</g>
<!-- Node9&#45;&gt;Node10 -->
<g id="edge10" class="edge"><title>Node9&#45;&gt;Node10</title>
<path fill="none" stroke="midnightblue" d="M1086.48,-83.2331C1094.94,-84.2966 1103.71,-85.4005 1112.34,-86.4869"/>
<polygon fill="midnightblue" stroke="midnightblue" points="1086.72,-79.7355 1076.36,-81.9596 1085.85,-86.6807 1086.72,-79.7355"/>
</g>
<!-- Node11 -->
<g id="node11" class="node"><title>Node11</title>
<g id="a_node11"><a xlink:href="../../d2/db8/class_menu.html#a461e62e606af2391013ce3aaf92a8cc7" target="_top" xlink:title="Menu.addAllButtons">
<polygon fill="white" stroke="black" points="1124.5,-47.5 1124.5,-66.5 1237.5,-66.5 1237.5,-47.5 1124.5,-47.5"/>
<text text-anchor="middle" x="1181" y="-54.5" font-family="Helvetica,sans-Serif" font-size="10.00">Menu.addAllButtons</text>
</a>
</g>
</g>
<!-- Node9&#45;&gt;Node11 -->
<g id="edge11" class="edge"><title>Node9&#45;&gt;Node11</title>
<path fill="none" stroke="midnightblue" d="M1086.58,-68.7552C1098.96,-67.1965 1112.04,-65.5517 1124.35,-64.0024"/>
<polygon fill="midnightblue" stroke="midnightblue" points="1085.85,-65.3193 1076.36,-70.0404 1086.72,-72.2645 1085.85,-65.3193"/>
</g>
<!-- Node12 -->
<g id="node12" class="node"><title>Node12</title>
<g id="a_node12"><a xlink:href="../../d2/db8/class_menu.html#a3c99ad09e9f2f975c1a0d0597642651a" target="_top" xlink:title="Menu.init">
<polygon fill="white" stroke="black" points="1286,-47.5 1286,-66.5 1346,-66.5 1346,-47.5 1286,-47.5"/>
<text text-anchor="middle" x="1316" y="-54.5" font-family="Helvetica,sans-Serif" font-size="10.00">Menu.init</text>
</a>
</g>
</g>
<!-- Node11&#45;&gt;Node12 -->
<g id="edge12" class="edge"><title>Node11&#45;&gt;Node12</title>
<path fill="none" stroke="midnightblue" d="M1247.78,-57C1261.09,-57 1274.45,-57 1285.71,-57"/>
<polygon fill="midnightblue" stroke="midnightblue" points="1247.63,-53.5001 1237.63,-57 1247.63,-60.5001 1247.63,-53.5001"/>
</g>
</g>
</svg>
