<?xml version="1.0" encoding="UTF-8" standalone="no"?>
<!DOCTYPE svg PUBLIC "-//W3C//DTD SVG 1.1//EN"
 "http://www.w3.org/Graphics/SVG/1.1/DTD/svg11.dtd">
<!-- Generated by graphviz version 2.36.0 (20140111.2315)
 -->
<!-- Title: Level1.updateFrame Pages: 1 -->
<svg width="954pt" height="465pt"
 viewBox="0.00 0.00 954.00 465.00" xmlns="http://www.w3.org/2000/svg" xmlns:xlink="http://www.w3.org/1999/xlink">
<g id="graph0" class="graph" transform="scale(1 1) rotate(0) translate(4 461)">
<title>Level1.updateFrame</title>
<polygon fill="white" stroke="none" points="-4,4 -4,-461 950,-461 950,4 -4,4"/>
<!-- Node1 -->
<g id="node1" class="node"><title>Node1</title>
<polygon fill="#bfbfbf" stroke="black" points="0,-38.5 0,-57.5 114,-57.5 114,-38.5 0,-38.5"/>
<text text-anchor="middle" x="57" y="-45.5" font-family="Helvetica,sans-Serif" font-size="10.00">Level1.updateFrame</text>
</g>
<!-- Node2 -->
<g id="node2" class="node"><title>Node2</title>
<g id="a_node2"><a xlink:href="../../d2/d3e/class_level1.html#a78a7fb5633734b1815af8db43db23a41" target="_top" xlink:title="Level1.updateSprites">
<polygon fill="white" stroke="black" points="150,-266.5 150,-285.5 268,-285.5 268,-266.5 150,-266.5"/>
<text text-anchor="middle" x="209" y="-273.5" font-family="Helvetica,sans-Serif" font-size="10.00">Level1.updateSprites</text>
</a>
</g>
</g>
<!-- Node1&#45;&gt;Node2 -->
<g id="edge1" class="edge"><title>Node1&#45;&gt;Node2</title>
<path fill="none" stroke="midnightblue" d="M64.2543,-57.5066C87.0308,-92.1267 165.788,-211.838 196.038,-257.818"/>
<polygon fill="midnightblue" stroke="midnightblue" points="193.299,-260.022 201.719,-266.453 199.147,-256.175 193.299,-260.022"/>
</g>
<!-- Node26 -->
<g id="node26" class="node"><title>Node26</title>
<g id="a_node26"><a xlink:href="../../d2/d3e/class_level1.html#a5f552e875916d0cf7a74896401584b2a" target="_top" xlink:title="Level1.updateTimer">
<polygon fill="white" stroke="black" points="153.5,-0.5 153.5,-19.5 264.5,-19.5 264.5,-0.5 153.5,-0.5"/>
<text text-anchor="middle" x="209" y="-7.5" font-family="Helvetica,sans-Serif" font-size="10.00">Level1.updateTimer</text>
</a>
</g>
</g>
<!-- Node1&#45;&gt;Node26 -->
<g id="edge32" class="edge"><title>Node1&#45;&gt;Node26</title>
<path fill="none" stroke="midnightblue" d="M95.8513,-38.411C115.467,-33.4417 139.619,-27.3233 160.479,-22.0387"/>
<polygon fill="midnightblue" stroke="midnightblue" points="161.587,-25.3687 170.421,-19.5201 159.868,-18.5831 161.587,-25.3687"/>
</g>
<!-- Node3 -->
<g id="node3" class="node"><title>Node3</title>
<g id="a_node3"><a xlink:href="../../d7/da7/class_character.html#ac0b4f4ace84c8e5aa60f05515806015d" target="_top" xlink:title="Character.setHP">
<polygon fill="white" stroke="black" points="329.5,-361.5 329.5,-380.5 424.5,-380.5 424.5,-361.5 329.5,-361.5"/>
<text text-anchor="middle" x="377" y="-368.5" font-family="Helvetica,sans-Serif" font-size="10.00">Character.setHP</text>
</a>
</g>
</g>
<!-- Node2&#45;&gt;Node3 -->
<g id="edge2" class="edge"><title>Node2&#45;&gt;Node3</title>
<path fill="none" stroke="midnightblue" d="M219.176,-285.722C234.972,-301.886 268.993,-334.263 304,-352 308.901,-354.483 314.159,-356.666 319.521,-358.579"/>
<polygon fill="midnightblue" stroke="midnightblue" points="318.637,-361.971 329.229,-361.738 320.803,-355.315 318.637,-361.971"/>
</g>
<!-- Node4 -->
<g id="node4" class="node"><title>Node4</title>
<g id="a_node4"><a xlink:href="../../dd/d7a/class_enemy.html#ab653212b50d9e64ba497ae18696d3678" target="_top" xlink:title="Enemy.moveSprite">
<polygon fill="white" stroke="black" points="323.5,-323.5 323.5,-342.5 430.5,-342.5 430.5,-323.5 323.5,-323.5"/>
<text text-anchor="middle" x="377" y="-330.5" font-family="Helvetica,sans-Serif" font-size="10.00">Enemy.moveSprite</text>
</a>
</g>
</g>
<!-- Node2&#45;&gt;Node4 -->
<g id="edge3" class="edge"><title>Node2&#45;&gt;Node4</title>
<path fill="none" stroke="midnightblue" d="M231.366,-285.538C250.233,-293.743 278.612,-305.556 304,-314 311.165,-316.383 318.808,-318.668 326.339,-320.775"/>
<polygon fill="midnightblue" stroke="midnightblue" points="325.555,-324.189 336.123,-323.436 327.392,-317.434 325.555,-324.189"/>
</g>
<!-- Node8 -->
<g id="node8" class="node"><title>Node8</title>
<g id="a_node8"><a xlink:href="../../d8/d53/class_player.html#a1b7a0a6c68deb202a672d42e205d5a21" target="_top" xlink:title="Player.moveSprite">
<polygon fill="white" stroke="black" points="325,-285.5 325,-304.5 429,-304.5 429,-285.5 325,-285.5"/>
<text text-anchor="middle" x="377" y="-292.5" font-family="Helvetica,sans-Serif" font-size="10.00">Player.moveSprite</text>
</a>
</g>
</g>
<!-- Node2&#45;&gt;Node8 -->
<g id="edge7" class="edge"><title>Node2&#45;&gt;Node8</title>
<path fill="none" stroke="midnightblue" d="M268.059,-282.645C283.1,-284.367 299.346,-286.226 314.554,-287.967"/>
<polygon fill="midnightblue" stroke="midnightblue" points="314.556,-291.49 324.89,-289.15 315.352,-284.535 314.556,-291.49"/>
</g>
<!-- Node9 -->
<g id="node9" class="node"><title>Node9</title>
<g id="a_node9"><a xlink:href="../../dd/d7a/class_enemy.html#a9b6840dcc6b8165268e957fc43d95b06" target="_top" xlink:title="Enemy.makePoop">
<polygon fill="white" stroke="black" points="326,-247.5 326,-266.5 428,-266.5 428,-247.5 326,-247.5"/>
<text text-anchor="middle" x="377" y="-254.5" font-family="Helvetica,sans-Serif" font-size="10.00">Enemy.makePoop</text>
</a>
</g>
</g>
<!-- Node2&#45;&gt;Node9 -->
<g id="edge10" class="edge"><title>Node2&#45;&gt;Node9</title>
<path fill="none" stroke="midnightblue" d="M268.059,-269.355C283.551,-267.581 300.322,-265.662 315.92,-263.877"/>
<polygon fill="midnightblue" stroke="midnightblue" points="316.439,-267.34 325.976,-262.726 315.643,-260.386 316.439,-267.34"/>
</g>
<!-- Node10 -->
<g id="node10" class="node"><title>Node10</title>
<g id="a_node10"><a xlink:href="../../d2/d3e/class_level1.html#aa75f107bf925594da75a1d82cf64044d" target="_top" xlink:title="Level1.returnCollisions">
<polygon fill="white" stroke="black" points="315,-209.5 315,-228.5 439,-228.5 439,-209.5 315,-209.5"/>
<text text-anchor="middle" x="377" y="-216.5" font-family="Helvetica,sans-Serif" font-size="10.00">Level1.returnCollisions</text>
</a>
</g>
</g>
<!-- Node2&#45;&gt;Node10 -->
<g id="edge12" class="edge"><title>Node2&#45;&gt;Node10</title>
<path fill="none" stroke="midnightblue" d="M231.366,-266.462C250.233,-258.257 278.612,-246.444 304,-238 311.165,-235.617 318.808,-233.332 326.339,-231.225"/>
<polygon fill="midnightblue" stroke="midnightblue" points="327.392,-234.566 336.123,-228.564 325.555,-227.811 327.392,-234.566"/>
</g>
<!-- Node14 -->
<g id="node14" class="node"><title>Node14</title>
<g id="a_node14"><a xlink:href="../../d2/d3e/class_level1.html#ac56e75129bb2946c38cfcf43608f3f05" target="_top" xlink:title="Level1.goNextLevel">
<polygon fill="white" stroke="black" points="322,-114.5 322,-133.5 432,-133.5 432,-114.5 322,-114.5"/>
<text text-anchor="middle" x="377" y="-121.5" font-family="Helvetica,sans-Serif" font-size="10.00">Level1.goNextLevel</text>
</a>
</g>
</g>
<!-- Node2&#45;&gt;Node14 -->
<g id="edge16" class="edge"><title>Node2&#45;&gt;Node14</title>
<path fill="none" stroke="midnightblue" d="M216.018,-266.356C229.573,-245.241 264.417,-194.235 304,-162 315.818,-152.376 330.454,-144.118 343.437,-137.782"/>
<polygon fill="midnightblue" stroke="midnightblue" points="344.967,-140.931 352.535,-133.516 341.995,-134.593 344.967,-140.931"/>
</g>
<!-- Node23 -->
<g id="node23" class="node"><title>Node23</title>
<g id="a_node23"><a xlink:href="../../d2/d3e/class_level1.html#a5e6976ef755d0e678034870e374ee4ca" target="_top" xlink:title="Level1.goGameOver">
<polygon fill="white" stroke="black" points="320,-171.5 320,-190.5 434,-190.5 434,-171.5 320,-171.5"/>
<text text-anchor="middle" x="377" y="-178.5" font-family="Helvetica,sans-Serif" font-size="10.00">Level1.goGameOver</text>
</a>
</g>
</g>
<!-- Node2&#45;&gt;Node23 -->
<g id="edge26" class="edge"><title>Node2&#45;&gt;Node23</title>
<path fill="none" stroke="midnightblue" d="M219.176,-266.278C234.972,-250.114 268.993,-217.737 304,-200 308.568,-197.686 313.446,-195.633 318.429,-193.816"/>
<polygon fill="midnightblue" stroke="midnightblue" points="319.701,-197.081 328.086,-190.605 317.492,-190.438 319.701,-197.081"/>
</g>
<!-- Node24 -->
<g id="node24" class="node"><title>Node24</title>
<g id="a_node24"><a xlink:href="../../d2/d3e/class_level1.html#a5995ba731849ced54b8f97fcc93ce4d9" target="_top" xlink:title="Level1.removeFromScreen">
<polygon fill="white" stroke="black" points="304.5,-437.5 304.5,-456.5 449.5,-456.5 449.5,-437.5 304.5,-437.5"/>
<text text-anchor="middle" x="377" y="-444.5" font-family="Helvetica,sans-Serif" font-size="10.00">Level1.removeFromScreen</text>
</a>
</g>
</g>
<!-- Node2&#45;&gt;Node24 -->
<g id="edge30" class="edge"><title>Node2&#45;&gt;Node24</title>
<path fill="none" stroke="midnightblue" d="M213.072,-285.586C222.213,-312.517 251.889,-389.405 304,-428 306.516,-429.863 309.2,-431.544 311.999,-433.061"/>
<polygon fill="midnightblue" stroke="midnightblue" points="310.714,-436.323 321.257,-437.365 313.665,-429.975 310.714,-436.323"/>
</g>
<!-- Node25 -->
<g id="node25" class="node"><title>Node25</title>
<g id="a_node25"><a xlink:href="../../d7/da7/class_character.html#aad64a9dc8ceea8b806cf2e1908cd0df8" target="_top" xlink:title="Character.setFull">
<polygon fill="white" stroke="black" points="329,-399.5 329,-418.5 425,-418.5 425,-399.5 329,-399.5"/>
<text text-anchor="middle" x="377" y="-406.5" font-family="Helvetica,sans-Serif" font-size="10.00">Character.setFull</text>
</a>
</g>
</g>
<!-- Node2&#45;&gt;Node25 -->
<g id="edge31" class="edge"><title>Node2&#45;&gt;Node25</title>
<path fill="none" stroke="midnightblue" d="M215.14,-285.674C227.395,-307.774 260.581,-362.192 304,-390 308.695,-393.007 313.851,-395.54 319.18,-397.673"/>
<polygon fill="midnightblue" stroke="midnightblue" points="318.302,-401.075 328.897,-401.098 320.629,-394.473 318.302,-401.075"/>
</g>
<!-- Node5 -->
<g id="node5" class="node"><title>Node5</title>
<g id="a_node5"><a xlink:href="../../d7/dbf/class_sprite.html#a4dd4a643703de09c632a0e7d70a570e7" target="_top" xlink:title="Sprite.getVelocity">
<polygon fill="white" stroke="black" points="496.5,-361.5 496.5,-380.5 597.5,-380.5 597.5,-361.5 496.5,-361.5"/>
<text text-anchor="middle" x="547" y="-368.5" font-family="Helvetica,sans-Serif" font-size="10.00">Sprite.getVelocity</text>
</a>
</g>
</g>
<!-- Node4&#45;&gt;Node5 -->
<g id="edge4" class="edge"><title>Node4&#45;&gt;Node5</title>
<path fill="none" stroke="midnightblue" d="M420.393,-342.589C442.763,-347.649 470.398,-353.9 494.047,-359.249"/>
<polygon fill="midnightblue" stroke="midnightblue" points="493.386,-362.687 503.911,-361.48 494.93,-355.86 493.386,-362.687"/>
</g>
<!-- Node6 -->
<g id="node6" class="node"><title>Node6</title>
<g id="a_node6"><a xlink:href="../../d7/dbf/class_sprite.html#ab8f846b7ba77ae72ad09f48da22ceea7" target="_top" xlink:title="Sprite.moveSprite">
<polygon fill="white" stroke="black" points="495,-323.5 495,-342.5 599,-342.5 599,-323.5 495,-323.5"/>
<text text-anchor="middle" x="547" y="-330.5" font-family="Helvetica,sans-Serif" font-size="10.00">Sprite.moveSprite</text>
</a>
</g>
</g>
<!-- Node4&#45;&gt;Node6 -->
<g id="edge5" class="edge"><title>Node4&#45;&gt;Node6</title>
<path fill="none" stroke="midnightblue" d="M430.695,-333C447.829,-333 466.991,-333 484.698,-333"/>
<polygon fill="midnightblue" stroke="midnightblue" points="484.929,-336.5 494.929,-333 484.929,-329.5 484.929,-336.5"/>
</g>
<!-- Node7 -->
<g id="node7" class="node"><title>Node7</title>
<g id="a_node7"><a xlink:href="../../d7/dbf/class_sprite.html#accdf1c21264c6ff648ece508cf176bfb" target="_top" xlink:title="Sprite.setVelocity">
<polygon fill="white" stroke="black" points="497,-285.5 497,-304.5 597,-304.5 597,-285.5 497,-285.5"/>
<text text-anchor="middle" x="547" y="-292.5" font-family="Helvetica,sans-Serif" font-size="10.00">Sprite.setVelocity</text>
</a>
</g>
</g>
<!-- Node4&#45;&gt;Node7 -->
<g id="edge6" class="edge"><title>Node4&#45;&gt;Node7</title>
<path fill="none" stroke="midnightblue" d="M420.393,-323.411C442.763,-318.351 470.398,-312.1 494.047,-306.751"/>
<polygon fill="midnightblue" stroke="midnightblue" points="494.93,-310.14 503.911,-304.52 493.386,-303.313 494.93,-310.14"/>
</g>
<!-- Node8&#45;&gt;Node6 -->
<g id="edge9" class="edge"><title>Node8&#45;&gt;Node6</title>
<path fill="none" stroke="midnightblue" d="M420.393,-304.589C442.763,-309.649 470.398,-315.9 494.047,-321.249"/>
<polygon fill="midnightblue" stroke="midnightblue" points="493.386,-324.687 503.911,-323.48 494.93,-317.86 493.386,-324.687"/>
</g>
<!-- Node8&#45;&gt;Node7 -->
<g id="edge8" class="edge"><title>Node8&#45;&gt;Node7</title>
<path fill="none" stroke="midnightblue" d="M429.318,-295C447.393,-295 467.86,-295 486.549,-295"/>
<polygon fill="midnightblue" stroke="midnightblue" points="486.723,-298.5 496.723,-295 486.722,-291.5 486.723,-298.5"/>
</g>
<!-- Node9&#45;&gt;Node7 -->
<g id="edge11" class="edge"><title>Node9&#45;&gt;Node7</title>
<path fill="none" stroke="midnightblue" d="M420.393,-266.589C442.763,-271.649 470.398,-277.9 494.047,-283.249"/>
<polygon fill="midnightblue" stroke="midnightblue" points="493.386,-286.687 503.911,-285.48 494.93,-279.86 493.386,-286.687"/>
</g>
<!-- Node11 -->
<g id="node11" class="node"><title>Node11</title>
<g id="a_node11"><a xlink:href="../../d7/da7/class_character.html#aa2149c166e797ae0ded67d9f768ac7f3" target="_top" xlink:title="Character.updateAll">
<polygon fill="white" stroke="black" points="491.5,-247.5 491.5,-266.5 602.5,-266.5 602.5,-247.5 491.5,-247.5"/>
<text text-anchor="middle" x="547" y="-254.5" font-family="Helvetica,sans-Serif" font-size="10.00">Character.updateAll</text>
</a>
</g>
</g>
<!-- Node10&#45;&gt;Node11 -->
<g id="edge13" class="edge"><title>Node10&#45;&gt;Node11</title>
<path fill="none" stroke="midnightblue" d="M420.393,-228.589C442.763,-233.649 470.398,-239.9 494.047,-245.249"/>
<polygon fill="midnightblue" stroke="midnightblue" points="493.386,-248.687 503.911,-247.48 494.93,-241.86 493.386,-248.687"/>
</g>
<!-- Node12 -->
<g id="node12" class="node"><title>Node12</title>
<g id="a_node12"><a xlink:href="../../d7/da7/class_character.html#ade25acccb27ac9aeb2752b2df29d075f" target="_top" xlink:title="Character.collisionUpdate">
<polygon fill="white" stroke="black" points="644.5,-247.5 644.5,-266.5 783.5,-266.5 783.5,-247.5 644.5,-247.5"/>
<text text-anchor="middle" x="714" y="-254.5" font-family="Helvetica,sans-Serif" font-size="10.00">Character.collisionUpdate</text>
</a>
</g>
</g>
<!-- Node11&#45;&gt;Node12 -->
<g id="edge14" class="edge"><title>Node11&#45;&gt;Node12</title>
<path fill="none" stroke="midnightblue" d="M602.943,-257C613.031,-257 623.74,-257 634.363,-257"/>
<polygon fill="midnightblue" stroke="midnightblue" points="634.5,-260.5 644.5,-257 634.5,-253.5 634.5,-260.5"/>
</g>
<!-- Node13 -->
<g id="node13" class="node"><title>Node13</title>
<g id="a_node13"><a xlink:href="../../d7/da7/class_character.html#ad223fcb54929116326bf8816d43f5173" target="_top" xlink:title="Character.checkCollide">
<polygon fill="white" stroke="black" points="820.5,-247.5 820.5,-266.5 945.5,-266.5 945.5,-247.5 820.5,-247.5"/>
<text text-anchor="middle" x="883" y="-254.5" font-family="Helvetica,sans-Serif" font-size="10.00">Character.checkCollide</text>
</a>
</g>
</g>
<!-- Node12&#45;&gt;Node13 -->
<g id="edge15" class="edge"><title>Node12&#45;&gt;Node13</title>
<path fill="none" stroke="midnightblue" d="M783.889,-257C792.607,-257 801.545,-257 810.305,-257"/>
<polygon fill="midnightblue" stroke="midnightblue" points="810.484,-260.5 820.484,-257 810.484,-253.5 810.484,-260.5"/>
</g>
<!-- Node15 -->
<g id="node15" class="node"><title>Node15</title>
<g id="a_node15"><a xlink:href="../../d2/d3e/class_level1.html#ac4098d447b9841cabec6be3bb719bd26" target="_top" xlink:title="Level1.clearElements">
<polygon fill="white" stroke="black" points="487.5,-171.5 487.5,-190.5 606.5,-190.5 606.5,-171.5 487.5,-171.5"/>
<text text-anchor="middle" x="547" y="-178.5" font-family="Helvetica,sans-Serif" font-size="10.00">Level1.clearElements</text>
</a>
</g>
</g>
<!-- Node14&#45;&gt;Node15 -->
<g id="edge17" class="edge"><title>Node14&#45;&gt;Node15</title>
<path fill="none" stroke="midnightblue" d="M404.549,-133.605C426.362,-141.433 458.099,-152.676 486,-162 492.189,-164.068 498.755,-166.205 505.186,-168.267"/>
<polygon fill="midnightblue" stroke="midnightblue" points="504.517,-171.726 515.107,-171.423 506.639,-165.056 504.517,-171.726"/>
</g>
<!-- Node16 -->
<g id="node16" class="node"><title>Node16</title>
<g id="a_node16"><a xlink:href="../../d7/da7/class_character.html#a4dc23a76b34bcbb84abba1b116847268" target="_top" xlink:title="Character.getHP">
<polygon fill="white" stroke="black" points="499.5,-133.5 499.5,-152.5 594.5,-152.5 594.5,-133.5 499.5,-133.5"/>
<text text-anchor="middle" x="547" y="-140.5" font-family="Helvetica,sans-Serif" font-size="10.00">Character.getHP</text>
</a>
</g>
</g>
<!-- Node14&#45;&gt;Node16 -->
<g id="edge18" class="edge"><title>Node14&#45;&gt;Node16</title>
<path fill="none" stroke="midnightblue" d="M432.081,-130.116C450.372,-132.185 470.84,-134.5 489.327,-136.591"/>
<polygon fill="midnightblue" stroke="midnightblue" points="489.036,-140.08 499.367,-137.726 489.823,-133.124 489.036,-140.08"/>
</g>
<!-- Node17 -->
<g id="node17" class="node"><title>Node17</title>
<g id="a_node17"><a xlink:href="../../dd/d7a/class_enemy.html#a0b00e167bc151db783054dddb2f9b509" target="_top" xlink:title="Enemy.makeAngry">
<polygon fill="white" stroke="black" points="494,-57.5 494,-76.5 600,-76.5 600,-57.5 494,-57.5"/>
<text text-anchor="middle" x="547" y="-64.5" font-family="Helvetica,sans-Serif" font-size="10.00">Enemy.makeAngry</text>
</a>
</g>
</g>
<!-- Node14&#45;&gt;Node17 -->
<g id="edge19" class="edge"><title>Node14&#45;&gt;Node17</title>
<path fill="none" stroke="midnightblue" d="M404.549,-114.395C426.362,-106.567 458.099,-95.3236 486,-86 492.189,-83.9319 498.755,-81.7948 505.186,-79.7333"/>
<polygon fill="midnightblue" stroke="midnightblue" points="506.639,-82.9441 515.107,-76.577 504.517,-76.2735 506.639,-82.9441"/>
</g>
<!-- Node18 -->
<g id="node18" class="node"><title>Node18</title>
<g id="a_node18"><a xlink:href="../../d6/d21/class_screen.html#a5d40342bbe33c27c9e0e24bd8709d1f6" target="_top" xlink:title="Screen.showAndAnim">
<polygon fill="white" stroke="black" points="486.5,-95.5 486.5,-114.5 607.5,-114.5 607.5,-95.5 486.5,-95.5"/>
<text text-anchor="middle" x="547" y="-102.5" font-family="Helvetica,sans-Serif" font-size="10.00">Screen.showAndAnim</text>
</a>
</g>
</g>
<!-- Node14&#45;&gt;Node18 -->
<g id="edge20" class="edge"><title>Node14&#45;&gt;Node18</title>
<path fill="none" stroke="midnightblue" d="M432.081,-117.884C446.187,-116.288 461.589,-114.547 476.377,-112.874"/>
<polygon fill="midnightblue" stroke="midnightblue" points="476.951,-116.332 486.494,-111.73 476.164,-109.376 476.951,-116.332"/>
</g>
<!-- Node22 -->
<g id="node22" class="node"><title>Node22</title>
<g id="a_node22"><a xlink:href="../../d2/d3e/class_level1.html#a0871325d07c0614d5f1f2df7df13b703" target="_top" xlink:title="Level1.start">
<polygon fill="white" stroke="black" points="510.5,-19.5 510.5,-38.5 583.5,-38.5 583.5,-19.5 510.5,-19.5"/>
<text text-anchor="middle" x="547" y="-26.5" font-family="Helvetica,sans-Serif" font-size="10.00">Level1.start</text>
</a>
</g>
</g>
<!-- Node14&#45;&gt;Node22 -->
<g id="edge24" class="edge"><title>Node14&#45;&gt;Node22</title>
<path fill="none" stroke="midnightblue" d="M389.238,-114.306C408.09,-98.4721 447.787,-66.9298 486,-48 490.654,-45.6946 495.648,-43.5903 500.695,-41.692"/>
<polygon fill="midnightblue" stroke="midnightblue" points="502.111,-44.9046 510.392,-38.2963 499.798,-38.298 502.111,-44.9046"/>
</g>
<!-- Node19 -->
<g id="node19" class="node"><title>Node19</title>
<g id="a_node19"><a xlink:href="../../d6/d21/class_screen.html#a5d9534b81b96cfc0a00009dea6be6c09" target="_top" xlink:title="Screen.showScreen">
<polygon fill="white" stroke="black" points="658.5,-171.5 658.5,-190.5 769.5,-190.5 769.5,-171.5 658.5,-171.5"/>
<text text-anchor="middle" x="714" y="-178.5" font-family="Helvetica,sans-Serif" font-size="10.00">Screen.showScreen</text>
</a>
</g>
</g>
<!-- Node18&#45;&gt;Node19 -->
<g id="edge21" class="edge"><title>Node18&#45;&gt;Node19</title>
<path fill="none" stroke="midnightblue" d="M582.048,-114.542C590.635,-117.285 599.755,-120.494 608,-124 636.637,-136.175 667.77,-153.656 688.639,-166.042"/>
<polygon fill="midnightblue" stroke="midnightblue" points="687.084,-169.191 697.459,-171.338 690.687,-163.19 687.084,-169.191"/>
</g>
<!-- Node21 -->
<g id="node21" class="node"><title>Node21</title>
<g id="a_node21"><a xlink:href="../../d6/d21/class_screen.html#a601576a0d49770789b2eb08328f09c53" target="_top" xlink:title="Screen.startAnim">
<polygon fill="white" stroke="black" points="663.5,-95.5 663.5,-114.5 764.5,-114.5 764.5,-95.5 663.5,-95.5"/>
<text text-anchor="middle" x="714" y="-102.5" font-family="Helvetica,sans-Serif" font-size="10.00">Screen.startAnim</text>
</a>
</g>
</g>
<!-- Node18&#45;&gt;Node21 -->
<g id="edge23" class="edge"><title>Node18&#45;&gt;Node21</title>
<path fill="none" stroke="midnightblue" d="M607.569,-105C622.419,-105 638.346,-105 653.207,-105"/>
<polygon fill="midnightblue" stroke="midnightblue" points="653.299,-108.5 663.299,-105 653.299,-101.5 653.299,-108.5"/>
</g>
<!-- Node20 -->
<g id="node20" class="node"><title>Node20</title>
<g id="a_node20"><a xlink:href="../../d6/d21/class_screen.html#ac7ca0a382b3177bbea4e2a4e7c0f442e" target="_top" xlink:title="Screen.init">
<polygon fill="white" stroke="black" points="849,-171.5 849,-190.5 917,-190.5 917,-171.5 849,-171.5"/>
<text text-anchor="middle" x="883" y="-178.5" font-family="Helvetica,sans-Serif" font-size="10.00">Screen.init</text>
</a>
</g>
</g>
<!-- Node19&#45;&gt;Node20 -->
<g id="edge22" class="edge"><title>Node19&#45;&gt;Node20</title>
<path fill="none" stroke="midnightblue" d="M769.682,-181C791.979,-181 817.401,-181 838.414,-181"/>
<polygon fill="midnightblue" stroke="midnightblue" points="838.65,-184.5 848.65,-181 838.65,-177.5 838.65,-184.5"/>
</g>
<!-- Node22&#45;&gt;Node1 -->
<g id="edge25" class="edge"><title>Node22&#45;&gt;Node1</title>
<path fill="none" stroke="midnightblue" d="M510.338,-30.3885C429.13,-33.5503 229.377,-41.3275 124.6,-45.407"/>
<polygon fill="midnightblue" stroke="midnightblue" points="124.313,-41.9154 114.457,-45.8019 124.585,-48.9101 124.313,-41.9154"/>
</g>
<!-- Node23&#45;&gt;Node15 -->
<g id="edge27" class="edge"><title>Node23&#45;&gt;Node15</title>
<path fill="none" stroke="midnightblue" d="M434.409,-181C448.139,-181 462.976,-181 477.21,-181"/>
<polygon fill="midnightblue" stroke="midnightblue" points="477.444,-184.5 487.444,-181 477.443,-177.5 477.444,-184.5"/>
</g>
<!-- Node23&#45;&gt;Node16 -->
<g id="edge28" class="edge"><title>Node23&#45;&gt;Node16</title>
<path fill="none" stroke="midnightblue" d="M420.393,-171.411C442.763,-166.351 470.398,-160.1 494.047,-154.751"/>
<polygon fill="midnightblue" stroke="midnightblue" points="494.93,-158.14 503.911,-152.52 493.386,-151.313 494.93,-158.14"/>
</g>
<!-- Node23&#45;&gt;Node19 -->
<g id="edge29" class="edge"><title>Node23&#45;&gt;Node19</title>
<path fill="none" stroke="midnightblue" d="M421.909,-190.512C441.431,-194.277 464.758,-198.146 486,-200 540.017,-204.715 553.995,-204.847 608,-200 625.113,-198.464 643.609,-195.547 660.239,-192.451"/>
<polygon fill="midnightblue" stroke="midnightblue" points="661.165,-195.838 670.323,-190.512 659.842,-188.964 661.165,-195.838"/>
</g>
</g>
</svg>
