<?xml version="1.0" encoding="UTF-8" standalone="no"?>
<!DOCTYPE svg PUBLIC "-//W3C//DTD SVG 1.1//EN"
 "http://www.w3.org/Graphics/SVG/1.1/DTD/svg11.dtd">
<!-- Generated by graphviz version 2.36.0 (20140111.2315)
 -->
<!-- Title: Level1.handleKeyRelease Pages: 1 -->
<svg width="390pt" height="28pt"
 viewBox="0.00 0.00 390.00 28.00" xmlns="http://www.w3.org/2000/svg" xmlns:xlink="http://www.w3.org/1999/xlink">
<g id="graph0" class="graph" transform="scale(1 1) rotate(0) translate(4 24)">
<title>Level1.handleKeyRelease</title>
<polygon fill="white" stroke="none" points="-4,4 -4,-24 386,-24 386,4 -4,4"/>
<!-- Node1 -->
<g id="node1" class="node"><title>Node1</title>
<polygon fill="#bfbfbf" stroke="black" points="0,-0.5 0,-19.5 136,-19.5 136,-0.5 0,-0.5"/>
<text text-anchor="middle" x="68" y="-7.5" font-family="Helvetica,sans-Serif" font-size="10.00">Level1.handleKeyRelease</text>
</g>
<!-- Node2 -->
<g id="node2" class="node"><title>Node2</title>
<g id="a_node2"><a xlink:href="../../d2/d3e/class_level1.html#a7a6c3c5e659524ade852b1b959144034" target="_top" xlink:title="Level1.makeScene">
<polygon fill="white" stroke="black" points="172.5,-0.5 172.5,-19.5 279.5,-19.5 279.5,-0.5 172.5,-0.5"/>
<text text-anchor="middle" x="226" y="-7.5" font-family="Helvetica,sans-Serif" font-size="10.00">Level1.makeScene</text>
</a>
</g>
</g>
<!-- Node1&#45;&gt;Node2 -->
<g id="edge1" class="edge"><title>Node1&#45;&gt;Node2</title>
<path fill="none" stroke="midnightblue" d="M146.294,-10C155.037,-10 163.791,-10 172.118,-10"/>
<polygon fill="midnightblue" stroke="midnightblue" points="146.063,-6.5001 136.063,-10 146.063,-13.5001 146.063,-6.5001"/>
</g>
<!-- Node3 -->
<g id="node3" class="node"><title>Node3</title>
<g id="a_node3"><a xlink:href="../../d2/d3e/class_level1.html#a587fa04eadbb6b07c199ff971cff79df" target="_top" xlink:title="Level1.init">
<polygon fill="white" stroke="black" points="316.5,-0.5 316.5,-19.5 381.5,-19.5 381.5,-0.5 316.5,-0.5"/>
<text text-anchor="middle" x="349" y="-7.5" font-family="Helvetica,sans-Serif" font-size="10.00">Level1.init</text>
</a>
</g>
</g>
<!-- Node2&#45;&gt;Node3 -->
<g id="edge2" class="edge"><title>Node2&#45;&gt;Node3</title>
<path fill="none" stroke="midnightblue" d="M289.722,-10C298.951,-10 308.111,-10 316.342,-10"/>
<polygon fill="midnightblue" stroke="midnightblue" points="289.72,-6.5001 279.72,-10 289.72,-13.5001 289.72,-6.5001"/>
</g>
</g>
</svg>
