<?xml version="1.0" encoding="UTF-8" standalone="no"?>
<!DOCTYPE svg PUBLIC "-//W3C//DTD SVG 1.1//EN"
 "http://www.w3.org/Graphics/SVG/1.1/DTD/svg11.dtd">
<!-- Generated by graphviz version 2.36.0 (20140111.2315)
 -->
<!-- Title: Level1.handleMouseInput Pages: 1 -->
<svg width="418pt" height="66pt"
 viewBox="0.00 0.00 418.00 66.00" xmlns="http://www.w3.org/2000/svg" xmlns:xlink="http://www.w3.org/1999/xlink">
<g id="graph0" class="graph" transform="scale(1 1) rotate(0) translate(4 62)">
<title>Level1.handleMouseInput</title>
<polygon fill="white" stroke="none" points="-4,4 -4,-62 414,-62 414,4 -4,4"/>
<!-- Node1 -->
<g id="node1" class="node"><title>Node1</title>
<polygon fill="#bfbfbf" stroke="black" points="0,-19.5 0,-38.5 138,-38.5 138,-19.5 0,-19.5"/>
<text text-anchor="middle" x="69" y="-26.5" font-family="Helvetica,sans-Serif" font-size="10.00">Level1.handleMouseInput</text>
</g>
<!-- Node2 -->
<g id="node2" class="node"><title>Node2</title>
<g id="a_node2"><a xlink:href="../../d8/d53/class_player.html#aabc2918b7a68a9557a2f01b243a21fa8" target="_top" xlink:title="Player.makeShot">
<polygon fill="white" stroke="black" points="174,-19.5 174,-38.5 272,-38.5 272,-19.5 174,-19.5"/>
<text text-anchor="middle" x="223" y="-26.5" font-family="Helvetica,sans-Serif" font-size="10.00">Player.makeShot</text>
</a>
</g>
</g>
<!-- Node1&#45;&gt;Node2 -->
<g id="edge1" class="edge"><title>Node1&#45;&gt;Node2</title>
<path fill="none" stroke="midnightblue" d="M138.441,-29C146.862,-29 155.409,-29 163.661,-29"/>
<polygon fill="midnightblue" stroke="midnightblue" points="163.926,-32.5001 173.926,-29 163.926,-25.5001 163.926,-32.5001"/>
</g>
<!-- Node3 -->
<g id="node3" class="node"><title>Node3</title>
<g id="a_node3"><a xlink:href="../../d7/dbf/class_sprite.html#accdf1c21264c6ff648ece508cf176bfb" target="_top" xlink:title="Sprite.setVelocity">
<polygon fill="white" stroke="black" points="309,-38.5 309,-57.5 409,-57.5 409,-38.5 309,-38.5"/>
<text text-anchor="middle" x="359" y="-45.5" font-family="Helvetica,sans-Serif" font-size="10.00">Sprite.setVelocity</text>
</a>
</g>
</g>
<!-- Node2&#45;&gt;Node3 -->
<g id="edge2" class="edge"><title>Node2&#45;&gt;Node3</title>
<path fill="none" stroke="midnightblue" d="M272.377,-35.8594C280.89,-37.0666 289.84,-38.3355 298.612,-39.5794"/>
<polygon fill="midnightblue" stroke="midnightblue" points="298.401,-43.0843 308.793,-41.0229 299.383,-36.1536 298.401,-43.0843"/>
</g>
<!-- Node4 -->
<g id="node4" class="node"><title>Node4</title>
<g id="a_node4"><a xlink:href="../../d7/dbf/class_sprite.html#a4dd4a643703de09c632a0e7d70a570e7" target="_top" xlink:title="Sprite.getVelocity">
<polygon fill="white" stroke="black" points="308.5,-0.5 308.5,-19.5 409.5,-19.5 409.5,-0.5 308.5,-0.5"/>
<text text-anchor="middle" x="359" y="-7.5" font-family="Helvetica,sans-Serif" font-size="10.00">Sprite.getVelocity</text>
</a>
</g>
</g>
<!-- Node2&#45;&gt;Node4 -->
<g id="edge3" class="edge"><title>Node2&#45;&gt;Node4</title>
<path fill="none" stroke="midnightblue" d="M272.377,-22.1406C280.783,-20.9487 289.613,-19.6967 298.279,-18.4679"/>
<polygon fill="midnightblue" stroke="midnightblue" points="298.932,-21.9104 308.341,-17.0412 297.949,-14.9798 298.932,-21.9104"/>
</g>
</g>
</svg>
