<?xml version="1.0" encoding="UTF-8" standalone="no"?>
<!DOCTYPE svg PUBLIC "-//W3C//DTD SVG 1.1//EN"
 "http://www.w3.org/Graphics/SVG/1.1/DTD/svg11.dtd">
<!-- Generated by graphviz version 2.36.0 (20140111.2315)
 -->
<!-- Title: Level1.updateFrame Pages: 1 -->
<svg width="934pt" height="123pt"
 viewBox="0.00 0.00 934.00 123.00" xmlns="http://www.w3.org/2000/svg" xmlns:xlink="http://www.w3.org/1999/xlink">
<g id="graph0" class="graph" transform="scale(1 1) rotate(0) translate(4 119)">
<title>Level1.updateFrame</title>
<polygon fill="white" stroke="none" points="-4,4 -4,-119 930,-119 930,4 -4,4"/>
<!-- Node1 -->
<g id="node1" class="node"><title>Node1</title>
<polygon fill="#bfbfbf" stroke="black" points="0,-0.5 0,-19.5 114,-19.5 114,-0.5 0,-0.5"/>
<text text-anchor="middle" x="57" y="-7.5" font-family="Helvetica,sans-Serif" font-size="10.00">Level1.updateFrame</text>
</g>
<!-- Node2 -->
<g id="node2" class="node"><title>Node2</title>
<g id="a_node2"><a xlink:href="../../d2/d3e/class_level1.html#a0871325d07c0614d5f1f2df7df13b703" target="_top" xlink:title="Level1.start">
<polygon fill="white" stroke="black" points="150.5,-19.5 150.5,-38.5 223.5,-38.5 223.5,-19.5 150.5,-19.5"/>
<text text-anchor="middle" x="187" y="-26.5" font-family="Helvetica,sans-Serif" font-size="10.00">Level1.start</text>
</a>
</g>
</g>
<!-- Node1&#45;&gt;Node2 -->
<g id="edge1" class="edge"><title>Node1&#45;&gt;Node2</title>
<path fill="none" stroke="midnightblue" d="M124.221,-19.8297C133.159,-21.1564 142.039,-22.4745 150.163,-23.6804"/>
<polygon fill="midnightblue" stroke="midnightblue" points="124.548,-16.34 114.143,-18.3337 123.52,-23.2641 124.548,-16.34"/>
</g>
<!-- Node3 -->
<g id="node3" class="node"><title>Node3</title>
<g id="a_node3"><a xlink:href="../../d2/db8/class_menu.html#ab6296880308728ced459f772430d025b" target="_top" xlink:title="Menu.createGame">
<polygon fill="white" stroke="black" points="262,-57.5 262,-76.5 368,-76.5 368,-57.5 262,-57.5"/>
<text text-anchor="middle" x="315" y="-64.5" font-family="Helvetica,sans-Serif" font-size="10.00">Menu.createGame</text>
</a>
</g>
</g>
<!-- Node2&#45;&gt;Node3 -->
<g id="edge2" class="edge"><title>Node2&#45;&gt;Node3</title>
<path fill="none" stroke="midnightblue" d="M229.564,-41.5353C246.705,-46.7048 266.25,-52.5991 282.215,-57.4141"/>
<polygon fill="midnightblue" stroke="midnightblue" points="230.38,-38.1256 219.795,-38.589 228.359,-44.8274 230.38,-38.1256"/>
</g>
<!-- Node10 -->
<g id="node10" class="node"><title>Node10</title>
<g id="a_node10"><a xlink:href="../../d2/d3e/class_level1.html#ac56e75129bb2946c38cfcf43608f3f05" target="_top" xlink:title="Level1.goNextLevel">
<polygon fill="white" stroke="black" points="260,-19.5 260,-38.5 370,-38.5 370,-19.5 260,-19.5"/>
<text text-anchor="middle" x="315" y="-26.5" font-family="Helvetica,sans-Serif" font-size="10.00">Level1.goNextLevel</text>
</a>
</g>
</g>
<!-- Node2&#45;&gt;Node10 -->
<g id="edge9" class="edge"><title>Node2&#45;&gt;Node10</title>
<path fill="none" stroke="midnightblue" d="M233.797,-29C242.237,-29 251.122,-29 259.782,-29"/>
<polygon fill="midnightblue" stroke="midnightblue" points="233.77,-25.5001 223.77,-29 233.769,-32.5001 233.77,-25.5001"/>
</g>
<!-- Node4 -->
<g id="node4" class="node"><title>Node4</title>
<g id="a_node4"><a xlink:href="../../d2/db8/class_menu.html#a53c8b072d5ec777994fed9ee76c98561" target="_top" xlink:title="Menu.handle">
<polygon fill="white" stroke="black" points="426,-57.5 426,-76.5 504,-76.5 504,-57.5 426,-57.5"/>
<text text-anchor="middle" x="465" y="-64.5" font-family="Helvetica,sans-Serif" font-size="10.00">Menu.handle</text>
</a>
</g>
</g>
<!-- Node3&#45;&gt;Node4 -->
<g id="edge3" class="edge"><title>Node3&#45;&gt;Node4</title>
<path fill="none" stroke="midnightblue" d="M378.579,-67C394.615,-67 411.383,-67 425.775,-67"/>
<polygon fill="midnightblue" stroke="midnightblue" points="378.179,-63.5001 368.179,-67 378.179,-70.5001 378.179,-63.5001"/>
</g>
<!-- Node5 -->
<g id="node5" class="node"><title>Node5</title>
<g id="a_node5"><a xlink:href="../../d2/db8/class_menu.html#aff7a7627619921545f94547ab6135007" target="_top" xlink:title="Menu.addButton">
<polygon fill="white" stroke="black" points="560,-57.5 560,-76.5 656,-76.5 656,-57.5 560,-57.5"/>
<text text-anchor="middle" x="608" y="-64.5" font-family="Helvetica,sans-Serif" font-size="10.00">Menu.addButton</text>
</a>
</g>
</g>
<!-- Node4&#45;&gt;Node5 -->
<g id="edge4" class="edge"><title>Node4&#45;&gt;Node5</title>
<path fill="none" stroke="midnightblue" d="M514.523,-67C529.157,-67 545.194,-67 559.744,-67"/>
<polygon fill="midnightblue" stroke="midnightblue" points="514.157,-63.5001 504.157,-67 514.157,-70.5001 514.157,-63.5001"/>
</g>
<!-- Node6 -->
<g id="node6" class="node"><title>Node6</title>
<g id="a_node6"><a xlink:href="../../d5/db1/class_game_over.html#abb505ac8c26999beff755f4c299370da" target="_top" xlink:title="GameOver.addAllButtons">
<polygon fill="white" stroke="black" points="692.5,-95.5 692.5,-114.5 829.5,-114.5 829.5,-95.5 692.5,-95.5"/>
<text text-anchor="middle" x="761" y="-102.5" font-family="Helvetica,sans-Serif" font-size="10.00">GameOver.addAllButtons</text>
</a>
</g>
</g>
<!-- Node5&#45;&gt;Node6 -->
<g id="edge5" class="edge"><title>Node5&#45;&gt;Node6</title>
<path fill="none" stroke="midnightblue" d="M656.843,-79.04C677.939,-84.3488 702.377,-90.4988 722.17,-95.4799"/>
<polygon fill="midnightblue" stroke="midnightblue" points="657.656,-75.6354 647.104,-76.589 655.947,-82.4237 657.656,-75.6354"/>
</g>
<!-- Node7 -->
<g id="node7" class="node"><title>Node7</title>
<g id="a_node7"><a xlink:href="../../dd/d7f/class_game_win.html#a0ebbfe299d7456f57ae3dbf3817b7f8d" target="_top" xlink:title="GameWin.addAllButtons">
<polygon fill="white" stroke="black" points="695,-57.5 695,-76.5 827,-76.5 827,-57.5 695,-57.5"/>
<text text-anchor="middle" x="761" y="-64.5" font-family="Helvetica,sans-Serif" font-size="10.00">GameWin.addAllButtons</text>
</a>
</g>
</g>
<!-- Node5&#45;&gt;Node7 -->
<g id="edge6" class="edge"><title>Node5&#45;&gt;Node7</title>
<path fill="none" stroke="midnightblue" d="M666.592,-67C675.822,-67 685.431,-67 694.823,-67"/>
<polygon fill="midnightblue" stroke="midnightblue" points="666.363,-63.5001 656.363,-67 666.363,-70.5001 666.363,-63.5001"/>
</g>
<!-- Node8 -->
<g id="node8" class="node"><title>Node8</title>
<g id="a_node8"><a xlink:href="../../d2/db8/class_menu.html#a461e62e606af2391013ce3aaf92a8cc7" target="_top" xlink:title="Menu.addAllButtons">
<polygon fill="white" stroke="black" points="704.5,-19.5 704.5,-38.5 817.5,-38.5 817.5,-19.5 704.5,-19.5"/>
<text text-anchor="middle" x="761" y="-26.5" font-family="Helvetica,sans-Serif" font-size="10.00">Menu.addAllButtons</text>
</a>
</g>
</g>
<!-- Node5&#45;&gt;Node8 -->
<g id="edge7" class="edge"><title>Node5&#45;&gt;Node8</title>
<path fill="none" stroke="midnightblue" d="M656.843,-54.96C677.939,-49.6512 702.377,-43.5012 722.17,-38.5201"/>
<polygon fill="midnightblue" stroke="midnightblue" points="655.947,-51.5763 647.104,-57.411 657.656,-58.3646 655.947,-51.5763"/>
</g>
<!-- Node9 -->
<g id="node9" class="node"><title>Node9</title>
<g id="a_node9"><a xlink:href="../../d2/db8/class_menu.html#a3c99ad09e9f2f975c1a0d0597642651a" target="_top" xlink:title="Menu.init">
<polygon fill="white" stroke="black" points="866,-19.5 866,-38.5 926,-38.5 926,-19.5 866,-19.5"/>
<text text-anchor="middle" x="896" y="-26.5" font-family="Helvetica,sans-Serif" font-size="10.00">Menu.init</text>
</a>
</g>
</g>
<!-- Node8&#45;&gt;Node9 -->
<g id="edge8" class="edge"><title>Node8&#45;&gt;Node9</title>
<path fill="none" stroke="midnightblue" d="M827.775,-29C841.094,-29 854.451,-29 865.71,-29"/>
<polygon fill="midnightblue" stroke="midnightblue" points="827.633,-25.5001 817.633,-29 827.633,-32.5001 827.633,-25.5001"/>
</g>
<!-- Node11 -->
<g id="node11" class="node"><title>Node11</title>
<g id="a_node11"><a xlink:href="../../d2/d3e/class_level1.html#a78a7fb5633734b1815af8db43db23a41" target="_top" xlink:title="Level1.updateSprites">
<polygon fill="white" stroke="black" points="406,-0.5 406,-19.5 524,-19.5 524,-0.5 406,-0.5"/>
<text text-anchor="middle" x="465" y="-7.5" font-family="Helvetica,sans-Serif" font-size="10.00">Level1.updateSprites</text>
</a>
</g>
</g>
<!-- Node10&#45;&gt;Node11 -->
<g id="edge10" class="edge"><title>Node10&#45;&gt;Node11</title>
<path fill="none" stroke="midnightblue" d="M380.429,-20.7288C388.85,-19.6476 397.44,-18.5448 405.752,-17.4778"/>
<polygon fill="midnightblue" stroke="midnightblue" points="379.742,-17.2881 370.269,-22.033 380.634,-24.2311 379.742,-17.2881"/>
</g>
<!-- Node11&#45;&gt;Node1 -->
<g id="edge11" class="edge"><title>Node11&#45;&gt;Node1</title>
<path fill="none" stroke="midnightblue" d="M395.571,-10C316.393,-10 187.516,-10 114.026,-10"/>
<polygon fill="midnightblue" stroke="midnightblue" points="395.925,-13.5001 405.925,-10 395.925,-6.5001 395.925,-13.5001"/>
</g>
</g>
</svg>
