<?xml version="1.0" encoding="UTF-8" standalone="no"?>
<!DOCTYPE svg PUBLIC "-//W3C//DTD SVG 1.1//EN"
 "http://www.w3.org/Graphics/SVG/1.1/DTD/svg11.dtd">
<!-- Generated by graphviz version 2.36.0 (20140111.2315)
 -->
<!-- Title: Level1.makeScene Pages: 1 -->
<svg width="562pt" height="123pt"
 viewBox="0.00 0.00 562.00 123.00" xmlns="http://www.w3.org/2000/svg" xmlns:xlink="http://www.w3.org/1999/xlink">
<g id="graph0" class="graph" transform="scale(1 1) rotate(0) translate(4 119)">
<title>Level1.makeScene</title>
<polygon fill="white" stroke="none" points="-4,4 -4,-119 558,-119 558,4 -4,4"/>
<!-- Node1 -->
<g id="node1" class="node"><title>Node1</title>
<polygon fill="#bfbfbf" stroke="black" points="0.5,-57.5 0.5,-76.5 107.5,-76.5 107.5,-57.5 0.5,-57.5"/>
<text text-anchor="middle" x="54" y="-64.5" font-family="Helvetica,sans-Serif" font-size="10.00">Level1.makeScene</text>
</g>
<!-- Node2 -->
<g id="node2" class="node"><title>Node2</title>
<g id="a_node2"><a xlink:href="../../d2/d3e/class_level1.html#a9ada798f6a1547c9ae408b800d76835b" target="_top" xlink:title="Level1.handleKeyInput">
<polygon fill="white" stroke="black" points="151.5,-95.5 151.5,-114.5 274.5,-114.5 274.5,-95.5 151.5,-95.5"/>
<text text-anchor="middle" x="213" y="-102.5" font-family="Helvetica,sans-Serif" font-size="10.00">Level1.handleKeyInput</text>
</a>
</g>
</g>
<!-- Node1&#45;&gt;Node2 -->
<g id="edge1" class="edge"><title>Node1&#45;&gt;Node2</title>
<path fill="none" stroke="midnightblue" d="M94.6177,-76.589C115.336,-81.6035 140.888,-87.7881 162.856,-93.1053"/>
<polygon fill="midnightblue" stroke="midnightblue" points="162.124,-96.5292 172.667,-95.4799 163.771,-89.7256 162.124,-96.5292"/>
</g>
<!-- Node3 -->
<g id="node3" class="node"><title>Node3</title>
<g id="a_node3"><a xlink:href="../../d2/d3e/class_level1.html#a76b72ede88f469adb5f1b7da5ad39598" target="_top" xlink:title="Level1.handleKeyRelease">
<polygon fill="white" stroke="black" points="145,-57.5 145,-76.5 281,-76.5 281,-57.5 145,-57.5"/>
<text text-anchor="middle" x="213" y="-64.5" font-family="Helvetica,sans-Serif" font-size="10.00">Level1.handleKeyRelease</text>
</a>
</g>
</g>
<!-- Node1&#45;&gt;Node3 -->
<g id="edge2" class="edge"><title>Node1&#45;&gt;Node3</title>
<path fill="none" stroke="midnightblue" d="M107.715,-67C116.388,-67 125.534,-67 134.658,-67"/>
<polygon fill="midnightblue" stroke="midnightblue" points="134.925,-70.5001 144.925,-67 134.925,-63.5001 134.925,-70.5001"/>
</g>
<!-- Node4 -->
<g id="node4" class="node"><title>Node4</title>
<g id="a_node4"><a xlink:href="../../d2/d3e/class_level1.html#ac36d707d46288fb3ee16958317c6f68f" target="_top" xlink:title="Level1.handleMouseInput">
<polygon fill="white" stroke="black" points="144,-19.5 144,-38.5 282,-38.5 282,-19.5 144,-19.5"/>
<text text-anchor="middle" x="213" y="-26.5" font-family="Helvetica,sans-Serif" font-size="10.00">Level1.handleMouseInput</text>
</a>
</g>
</g>
<!-- Node1&#45;&gt;Node4 -->
<g id="edge3" class="edge"><title>Node1&#45;&gt;Node4</title>
<path fill="none" stroke="midnightblue" d="M94.6177,-57.411C115.336,-52.3965 140.888,-46.2119 162.856,-40.8947"/>
<polygon fill="midnightblue" stroke="midnightblue" points="163.771,-44.2744 172.667,-38.5201 162.124,-37.4708 163.771,-44.2744"/>
</g>
<!-- Node5 -->
<g id="node5" class="node"><title>Node5</title>
<g id="a_node5"><a xlink:href="../../d8/d53/class_player.html#aabc2918b7a68a9557a2f01b243a21fa8" target="_top" xlink:title="Player.makeShot">
<polygon fill="white" stroke="black" points="318,-19.5 318,-38.5 416,-38.5 416,-19.5 318,-19.5"/>
<text text-anchor="middle" x="367" y="-26.5" font-family="Helvetica,sans-Serif" font-size="10.00">Player.makeShot</text>
</a>
</g>
</g>
<!-- Node4&#45;&gt;Node5 -->
<g id="edge4" class="edge"><title>Node4&#45;&gt;Node5</title>
<path fill="none" stroke="midnightblue" d="M282.441,-29C290.862,-29 299.409,-29 307.661,-29"/>
<polygon fill="midnightblue" stroke="midnightblue" points="307.926,-32.5001 317.926,-29 307.926,-25.5001 307.926,-32.5001"/>
</g>
<!-- Node6 -->
<g id="node6" class="node"><title>Node6</title>
<g id="a_node6"><a xlink:href="../../d7/dbf/class_sprite.html#accdf1c21264c6ff648ece508cf176bfb" target="_top" xlink:title="Sprite.setVelocity">
<polygon fill="white" stroke="black" points="453,-38.5 453,-57.5 553,-57.5 553,-38.5 453,-38.5"/>
<text text-anchor="middle" x="503" y="-45.5" font-family="Helvetica,sans-Serif" font-size="10.00">Sprite.setVelocity</text>
</a>
</g>
</g>
<!-- Node5&#45;&gt;Node6 -->
<g id="edge5" class="edge"><title>Node5&#45;&gt;Node6</title>
<path fill="none" stroke="midnightblue" d="M416.377,-35.8594C424.89,-37.0666 433.84,-38.3355 442.612,-39.5794"/>
<polygon fill="midnightblue" stroke="midnightblue" points="442.401,-43.0843 452.793,-41.0229 443.383,-36.1536 442.401,-43.0843"/>
</g>
<!-- Node7 -->
<g id="node7" class="node"><title>Node7</title>
<g id="a_node7"><a xlink:href="../../d7/dbf/class_sprite.html#a4dd4a643703de09c632a0e7d70a570e7" target="_top" xlink:title="Sprite.getVelocity">
<polygon fill="white" stroke="black" points="452.5,-0.5 452.5,-19.5 553.5,-19.5 553.5,-0.5 452.5,-0.5"/>
<text text-anchor="middle" x="503" y="-7.5" font-family="Helvetica,sans-Serif" font-size="10.00">Sprite.getVelocity</text>
</a>
</g>
</g>
<!-- Node5&#45;&gt;Node7 -->
<g id="edge6" class="edge"><title>Node5&#45;&gt;Node7</title>
<path fill="none" stroke="midnightblue" d="M416.377,-22.1406C424.783,-20.9487 433.613,-19.6967 442.279,-18.4679"/>
<polygon fill="midnightblue" stroke="midnightblue" points="442.932,-21.9104 452.341,-17.0412 441.949,-14.9798 442.932,-21.9104"/>
</g>
</g>
</svg>
