<?xml version="1.0" encoding="UTF-8" standalone="no"?>
<!DOCTYPE svg PUBLIC "-//W3C//DTD SVG 1.1//EN"
 "http://www.w3.org/Graphics/SVG/1.1/DTD/svg11.dtd">
<!-- Generated by graphviz version 2.36.0 (20140111.2315)
 -->
<!-- Title: Level1.start Pages: 1 -->
<svg width="1064pt" height="408pt"
 viewBox="0.00 0.00 1064.00 408.00" xmlns="http://www.w3.org/2000/svg" xmlns:xlink="http://www.w3.org/1999/xlink">
<g id="graph0" class="graph" transform="scale(1 1) rotate(0) translate(4 404)">
<title>Level1.start</title>
<polygon fill="white" stroke="none" points="-4,4 -4,-404 1060,-404 1060,4 -4,4"/>
<!-- Node1 -->
<g id="node1" class="node"><title>Node1</title>
<polygon fill="#bfbfbf" stroke="black" points="0.5,-123.5 0.5,-142.5 73.5,-142.5 73.5,-123.5 0.5,-123.5"/>
<text text-anchor="middle" x="37" y="-130.5" font-family="Helvetica,sans-Serif" font-size="10.00">Level1.start</text>
</g>
<!-- Node2 -->
<g id="node2" class="node"><title>Node2</title>
<g id="a_node2"><a xlink:href="../../d2/d3e/class_level1.html#a324da1e22a7a87fa4bb1859b5774bdba" target="_top" xlink:title="Level1.updateFrame">
<polygon fill="white" stroke="black" points="110,-152.5 110,-171.5 224,-171.5 224,-152.5 110,-152.5"/>
<text text-anchor="middle" x="167" y="-159.5" font-family="Helvetica,sans-Serif" font-size="10.00">Level1.updateFrame</text>
</a>
</g>
</g>
<!-- Node1&#45;&gt;Node2 -->
<g id="edge1" class="edge"><title>Node1&#45;&gt;Node2</title>
<path fill="none" stroke="midnightblue" d="M73.6551,-141.078C86.0341,-143.883 100.186,-147.089 113.629,-150.135"/>
<polygon fill="midnightblue" stroke="midnightblue" points="113.204,-153.627 123.73,-152.423 114.751,-146.8 113.204,-153.627"/>
</g>
<!-- Node3 -->
<g id="node3" class="node"><title>Node3</title>
<g id="a_node3"><a xlink:href="../../d2/d3e/class_level1.html#a78a7fb5633734b1815af8db43db23a41" target="_top" xlink:title="Level1.updateSprites">
<polygon fill="white" stroke="black" points="260,-209.5 260,-228.5 378,-228.5 378,-209.5 260,-209.5"/>
<text text-anchor="middle" x="319" y="-216.5" font-family="Helvetica,sans-Serif" font-size="10.00">Level1.updateSprites</text>
</a>
</g>
</g>
<!-- Node2&#45;&gt;Node3 -->
<g id="edge2" class="edge"><title>Node2&#45;&gt;Node3</title>
<path fill="none" stroke="midnightblue" d="M193.107,-171.541C217.767,-180.912 255.599,-195.288 283.164,-205.762"/>
<polygon fill="midnightblue" stroke="midnightblue" points="282.22,-209.148 292.811,-209.428 284.707,-202.604 282.22,-209.148"/>
</g>
<!-- Node26 -->
<g id="node26" class="node"><title>Node26</title>
<g id="a_node26"><a xlink:href="../../d2/d3e/class_level1.html#a5f552e875916d0cf7a74896401584b2a" target="_top" xlink:title="Level1.updateTimer">
<polygon fill="white" stroke="black" points="263.5,-152.5 263.5,-171.5 374.5,-171.5 374.5,-152.5 263.5,-152.5"/>
<text text-anchor="middle" x="319" y="-159.5" font-family="Helvetica,sans-Serif" font-size="10.00">Level1.updateTimer</text>
</a>
</g>
</g>
<!-- Node2&#45;&gt;Node26 -->
<g id="edge32" class="edge"><title>Node2&#45;&gt;Node26</title>
<path fill="none" stroke="midnightblue" d="M224.281,-162C233.683,-162 243.504,-162 253.1,-162"/>
<polygon fill="midnightblue" stroke="midnightblue" points="253.394,-165.5 263.394,-162 253.394,-158.5 253.394,-165.5"/>
</g>
<!-- Node4 -->
<g id="node4" class="node"><title>Node4</title>
<g id="a_node4"><a xlink:href="../../d7/da7/class_character.html#ac0b4f4ace84c8e5aa60f05515806015d" target="_top" xlink:title="Character.setHP">
<polygon fill="white" stroke="black" points="439.5,-304.5 439.5,-323.5 534.5,-323.5 534.5,-304.5 439.5,-304.5"/>
<text text-anchor="middle" x="487" y="-311.5" font-family="Helvetica,sans-Serif" font-size="10.00">Character.setHP</text>
</a>
</g>
</g>
<!-- Node3&#45;&gt;Node4 -->
<g id="edge3" class="edge"><title>Node3&#45;&gt;Node4</title>
<path fill="none" stroke="midnightblue" d="M329.176,-228.722C344.972,-244.886 378.993,-277.263 414,-295 418.901,-297.483 424.159,-299.666 429.521,-301.579"/>
<polygon fill="midnightblue" stroke="midnightblue" points="428.637,-304.971 439.229,-304.738 430.803,-298.315 428.637,-304.971"/>
</g>
<!-- Node5 -->
<g id="node5" class="node"><title>Node5</title>
<g id="a_node5"><a xlink:href="../../dd/d7a/class_enemy.html#ab653212b50d9e64ba497ae18696d3678" target="_top" xlink:title="Enemy.moveSprite">
<polygon fill="white" stroke="black" points="433.5,-266.5 433.5,-285.5 540.5,-285.5 540.5,-266.5 433.5,-266.5"/>
<text text-anchor="middle" x="487" y="-273.5" font-family="Helvetica,sans-Serif" font-size="10.00">Enemy.moveSprite</text>
</a>
</g>
</g>
<!-- Node3&#45;&gt;Node5 -->
<g id="edge4" class="edge"><title>Node3&#45;&gt;Node5</title>
<path fill="none" stroke="midnightblue" d="M341.366,-228.538C360.233,-236.743 388.612,-248.556 414,-257 421.165,-259.383 428.808,-261.668 436.339,-263.775"/>
<polygon fill="midnightblue" stroke="midnightblue" points="435.555,-267.189 446.123,-266.436 437.392,-260.434 435.555,-267.189"/>
</g>
<!-- Node9 -->
<g id="node9" class="node"><title>Node9</title>
<g id="a_node9"><a xlink:href="../../d8/d53/class_player.html#a1b7a0a6c68deb202a672d42e205d5a21" target="_top" xlink:title="Player.moveSprite">
<polygon fill="white" stroke="black" points="435,-228.5 435,-247.5 539,-247.5 539,-228.5 435,-228.5"/>
<text text-anchor="middle" x="487" y="-235.5" font-family="Helvetica,sans-Serif" font-size="10.00">Player.moveSprite</text>
</a>
</g>
</g>
<!-- Node3&#45;&gt;Node9 -->
<g id="edge8" class="edge"><title>Node3&#45;&gt;Node9</title>
<path fill="none" stroke="midnightblue" d="M378.059,-225.645C393.1,-227.367 409.346,-229.226 424.554,-230.967"/>
<polygon fill="midnightblue" stroke="midnightblue" points="424.556,-234.49 434.89,-232.15 425.352,-227.535 424.556,-234.49"/>
</g>
<!-- Node10 -->
<g id="node10" class="node"><title>Node10</title>
<g id="a_node10"><a xlink:href="../../dd/d7a/class_enemy.html#a9b6840dcc6b8165268e957fc43d95b06" target="_top" xlink:title="Enemy.makePoop">
<polygon fill="white" stroke="black" points="436,-190.5 436,-209.5 538,-209.5 538,-190.5 436,-190.5"/>
<text text-anchor="middle" x="487" y="-197.5" font-family="Helvetica,sans-Serif" font-size="10.00">Enemy.makePoop</text>
</a>
</g>
</g>
<!-- Node3&#45;&gt;Node10 -->
<g id="edge11" class="edge"><title>Node3&#45;&gt;Node10</title>
<path fill="none" stroke="midnightblue" d="M378.059,-212.355C393.551,-210.581 410.322,-208.662 425.92,-206.877"/>
<polygon fill="midnightblue" stroke="midnightblue" points="426.439,-210.34 435.976,-205.726 425.643,-203.386 426.439,-210.34"/>
</g>
<!-- Node11 -->
<g id="node11" class="node"><title>Node11</title>
<g id="a_node11"><a xlink:href="../../d2/d3e/class_level1.html#aa75f107bf925594da75a1d82cf64044d" target="_top" xlink:title="Level1.returnCollisions">
<polygon fill="white" stroke="black" points="425,-152.5 425,-171.5 549,-171.5 549,-152.5 425,-152.5"/>
<text text-anchor="middle" x="487" y="-159.5" font-family="Helvetica,sans-Serif" font-size="10.00">Level1.returnCollisions</text>
</a>
</g>
</g>
<!-- Node3&#45;&gt;Node11 -->
<g id="edge13" class="edge"><title>Node3&#45;&gt;Node11</title>
<path fill="none" stroke="midnightblue" d="M341.366,-209.462C360.233,-201.257 388.612,-189.444 414,-181 421.165,-178.617 428.808,-176.332 436.339,-174.225"/>
<polygon fill="midnightblue" stroke="midnightblue" points="437.392,-177.566 446.123,-171.564 435.555,-170.811 437.392,-177.566"/>
</g>
<!-- Node15 -->
<g id="node15" class="node"><title>Node15</title>
<g id="a_node15"><a xlink:href="../../d2/d3e/class_level1.html#ac56e75129bb2946c38cfcf43608f3f05" target="_top" xlink:title="Level1.goNextLevel">
<polygon fill="white" stroke="black" points="432,-76.5 432,-95.5 542,-95.5 542,-76.5 432,-76.5"/>
<text text-anchor="middle" x="487" y="-83.5" font-family="Helvetica,sans-Serif" font-size="10.00">Level1.goNextLevel</text>
</a>
</g>
</g>
<!-- Node3&#45;&gt;Node15 -->
<g id="edge17" class="edge"><title>Node3&#45;&gt;Node15</title>
<path fill="none" stroke="midnightblue" d="M340.019,-209.474C352.24,-202.858 367.484,-193.073 378,-181 402.549,-152.817 385.251,-128.884 414,-105 416.718,-102.742 419.675,-100.75 422.791,-98.9927"/>
<polygon fill="midnightblue" stroke="midnightblue" points="424.405,-102.101 431.922,-94.6347 421.39,-95.7833 424.405,-102.101"/>
</g>
<!-- Node23 -->
<g id="node23" class="node"><title>Node23</title>
<g id="a_node23"><a xlink:href="../../d2/d3e/class_level1.html#a5e6976ef755d0e678034870e374ee4ca" target="_top" xlink:title="Level1.goGameOver">
<polygon fill="white" stroke="black" points="430,-114.5 430,-133.5 544,-133.5 544,-114.5 430,-114.5"/>
<text text-anchor="middle" x="487" y="-121.5" font-family="Helvetica,sans-Serif" font-size="10.00">Level1.goGameOver</text>
</a>
</g>
</g>
<!-- Node3&#45;&gt;Node23 -->
<g id="edge26" class="edge"><title>Node3&#45;&gt;Node23</title>
<path fill="none" stroke="midnightblue" d="M336.713,-209.475C348.704,-202.308 364.976,-191.886 378,-181 395.85,-166.08 393.989,-154.865 414,-143 417.69,-140.812 421.634,-138.872 425.703,-137.152"/>
<polygon fill="midnightblue" stroke="midnightblue" points="427.233,-140.316 435.366,-133.527 424.774,-133.763 427.233,-140.316"/>
</g>
<!-- Node24 -->
<g id="node24" class="node"><title>Node24</title>
<g id="a_node24"><a xlink:href="../../d2/d3e/class_level1.html#a5995ba731849ced54b8f97fcc93ce4d9" target="_top" xlink:title="Level1.removeFromScreen">
<polygon fill="white" stroke="black" points="414.5,-380.5 414.5,-399.5 559.5,-399.5 559.5,-380.5 414.5,-380.5"/>
<text text-anchor="middle" x="487" y="-387.5" font-family="Helvetica,sans-Serif" font-size="10.00">Level1.removeFromScreen</text>
</a>
</g>
</g>
<!-- Node3&#45;&gt;Node24 -->
<g id="edge30" class="edge"><title>Node3&#45;&gt;Node24</title>
<path fill="none" stroke="midnightblue" d="M323.072,-228.586C332.213,-255.517 361.889,-332.405 414,-371 416.516,-372.863 419.2,-374.544 421.999,-376.061"/>
<polygon fill="midnightblue" stroke="midnightblue" points="420.714,-379.323 431.257,-380.365 423.665,-372.975 420.714,-379.323"/>
</g>
<!-- Node25 -->
<g id="node25" class="node"><title>Node25</title>
<g id="a_node25"><a xlink:href="../../d7/da7/class_character.html#aad64a9dc8ceea8b806cf2e1908cd0df8" target="_top" xlink:title="Character.setFull">
<polygon fill="white" stroke="black" points="439,-342.5 439,-361.5 535,-361.5 535,-342.5 439,-342.5"/>
<text text-anchor="middle" x="487" y="-349.5" font-family="Helvetica,sans-Serif" font-size="10.00">Character.setFull</text>
</a>
</g>
</g>
<!-- Node3&#45;&gt;Node25 -->
<g id="edge31" class="edge"><title>Node3&#45;&gt;Node25</title>
<path fill="none" stroke="midnightblue" d="M325.14,-228.674C337.395,-250.774 370.581,-305.192 414,-333 418.695,-336.007 423.851,-338.54 429.18,-340.673"/>
<polygon fill="midnightblue" stroke="midnightblue" points="428.302,-344.075 438.897,-344.098 430.629,-337.473 428.302,-344.075"/>
</g>
<!-- Node6 -->
<g id="node6" class="node"><title>Node6</title>
<g id="a_node6"><a xlink:href="../../d7/dbf/class_sprite.html#a4dd4a643703de09c632a0e7d70a570e7" target="_top" xlink:title="Sprite.getVelocity">
<polygon fill="white" stroke="black" points="606.5,-304.5 606.5,-323.5 707.5,-323.5 707.5,-304.5 606.5,-304.5"/>
<text text-anchor="middle" x="657" y="-311.5" font-family="Helvetica,sans-Serif" font-size="10.00">Sprite.getVelocity</text>
</a>
</g>
</g>
<!-- Node5&#45;&gt;Node6 -->
<g id="edge5" class="edge"><title>Node5&#45;&gt;Node6</title>
<path fill="none" stroke="midnightblue" d="M530.393,-285.589C552.763,-290.649 580.398,-296.9 604.047,-302.249"/>
<polygon fill="midnightblue" stroke="midnightblue" points="603.386,-305.687 613.911,-304.48 604.93,-298.86 603.386,-305.687"/>
</g>
<!-- Node7 -->
<g id="node7" class="node"><title>Node7</title>
<g id="a_node7"><a xlink:href="../../d7/dbf/class_sprite.html#ab8f846b7ba77ae72ad09f48da22ceea7" target="_top" xlink:title="Sprite.moveSprite">
<polygon fill="white" stroke="black" points="605,-266.5 605,-285.5 709,-285.5 709,-266.5 605,-266.5"/>
<text text-anchor="middle" x="657" y="-273.5" font-family="Helvetica,sans-Serif" font-size="10.00">Sprite.moveSprite</text>
</a>
</g>
</g>
<!-- Node5&#45;&gt;Node7 -->
<g id="edge6" class="edge"><title>Node5&#45;&gt;Node7</title>
<path fill="none" stroke="midnightblue" d="M540.695,-276C557.829,-276 576.991,-276 594.698,-276"/>
<polygon fill="midnightblue" stroke="midnightblue" points="594.929,-279.5 604.929,-276 594.929,-272.5 594.929,-279.5"/>
</g>
<!-- Node8 -->
<g id="node8" class="node"><title>Node8</title>
<g id="a_node8"><a xlink:href="../../d7/dbf/class_sprite.html#accdf1c21264c6ff648ece508cf176bfb" target="_top" xlink:title="Sprite.setVelocity">
<polygon fill="white" stroke="black" points="607,-228.5 607,-247.5 707,-247.5 707,-228.5 607,-228.5"/>
<text text-anchor="middle" x="657" y="-235.5" font-family="Helvetica,sans-Serif" font-size="10.00">Sprite.setVelocity</text>
</a>
</g>
</g>
<!-- Node5&#45;&gt;Node8 -->
<g id="edge7" class="edge"><title>Node5&#45;&gt;Node8</title>
<path fill="none" stroke="midnightblue" d="M530.393,-266.411C552.763,-261.351 580.398,-255.1 604.047,-249.751"/>
<polygon fill="midnightblue" stroke="midnightblue" points="604.93,-253.14 613.911,-247.52 603.386,-246.313 604.93,-253.14"/>
</g>
<!-- Node9&#45;&gt;Node7 -->
<g id="edge10" class="edge"><title>Node9&#45;&gt;Node7</title>
<path fill="none" stroke="midnightblue" d="M530.393,-247.589C552.763,-252.649 580.398,-258.9 604.047,-264.249"/>
<polygon fill="midnightblue" stroke="midnightblue" points="603.386,-267.687 613.911,-266.48 604.93,-260.86 603.386,-267.687"/>
</g>
<!-- Node9&#45;&gt;Node8 -->
<g id="edge9" class="edge"><title>Node9&#45;&gt;Node8</title>
<path fill="none" stroke="midnightblue" d="M539.318,-238C557.393,-238 577.86,-238 596.549,-238"/>
<polygon fill="midnightblue" stroke="midnightblue" points="596.723,-241.5 606.723,-238 596.722,-234.5 596.723,-241.5"/>
</g>
<!-- Node10&#45;&gt;Node8 -->
<g id="edge12" class="edge"><title>Node10&#45;&gt;Node8</title>
<path fill="none" stroke="midnightblue" d="M530.393,-209.589C552.763,-214.649 580.398,-220.9 604.047,-226.249"/>
<polygon fill="midnightblue" stroke="midnightblue" points="603.386,-229.687 613.911,-228.48 604.93,-222.86 603.386,-229.687"/>
</g>
<!-- Node12 -->
<g id="node12" class="node"><title>Node12</title>
<g id="a_node12"><a xlink:href="../../d7/da7/class_character.html#aa2149c166e797ae0ded67d9f768ac7f3" target="_top" xlink:title="Character.updateAll">
<polygon fill="white" stroke="black" points="601.5,-190.5 601.5,-209.5 712.5,-209.5 712.5,-190.5 601.5,-190.5"/>
<text text-anchor="middle" x="657" y="-197.5" font-family="Helvetica,sans-Serif" font-size="10.00">Character.updateAll</text>
</a>
</g>
</g>
<!-- Node11&#45;&gt;Node12 -->
<g id="edge14" class="edge"><title>Node11&#45;&gt;Node12</title>
<path fill="none" stroke="midnightblue" d="M530.393,-171.589C552.763,-176.649 580.398,-182.9 604.047,-188.249"/>
<polygon fill="midnightblue" stroke="midnightblue" points="603.386,-191.687 613.911,-190.48 604.93,-184.86 603.386,-191.687"/>
</g>
<!-- Node13 -->
<g id="node13" class="node"><title>Node13</title>
<g id="a_node13"><a xlink:href="../../d7/da7/class_character.html#ade25acccb27ac9aeb2752b2df29d075f" target="_top" xlink:title="Character.collisionUpdate">
<polygon fill="white" stroke="black" points="754.5,-190.5 754.5,-209.5 893.5,-209.5 893.5,-190.5 754.5,-190.5"/>
<text text-anchor="middle" x="824" y="-197.5" font-family="Helvetica,sans-Serif" font-size="10.00">Character.collisionUpdate</text>
</a>
</g>
</g>
<!-- Node12&#45;&gt;Node13 -->
<g id="edge15" class="edge"><title>Node12&#45;&gt;Node13</title>
<path fill="none" stroke="midnightblue" d="M712.943,-200C723.031,-200 733.74,-200 744.363,-200"/>
<polygon fill="midnightblue" stroke="midnightblue" points="744.5,-203.5 754.5,-200 744.5,-196.5 744.5,-203.5"/>
</g>
<!-- Node14 -->
<g id="node14" class="node"><title>Node14</title>
<g id="a_node14"><a xlink:href="../../d7/da7/class_character.html#ad223fcb54929116326bf8816d43f5173" target="_top" xlink:title="Character.checkCollide">
<polygon fill="white" stroke="black" points="930.5,-190.5 930.5,-209.5 1055.5,-209.5 1055.5,-190.5 930.5,-190.5"/>
<text text-anchor="middle" x="993" y="-197.5" font-family="Helvetica,sans-Serif" font-size="10.00">Character.checkCollide</text>
</a>
</g>
</g>
<!-- Node13&#45;&gt;Node14 -->
<g id="edge16" class="edge"><title>Node13&#45;&gt;Node14</title>
<path fill="none" stroke="midnightblue" d="M893.889,-200C902.607,-200 911.545,-200 920.305,-200"/>
<polygon fill="midnightblue" stroke="midnightblue" points="920.484,-203.5 930.484,-200 920.484,-196.5 920.484,-203.5"/>
</g>
<!-- Node15&#45;&gt;Node1 -->
<g id="edge25" class="edge"><title>Node15&#45;&gt;Node1</title>
<path fill="none" stroke="midnightblue" d="M431.736,-91.6928C342.614,-101.043 166.848,-119.482 83.6776,-128.208"/>
<polygon fill="midnightblue" stroke="midnightblue" points="83.1085,-124.748 73.5283,-129.273 83.8389,-131.71 83.1085,-124.748"/>
</g>
<!-- Node16 -->
<g id="node16" class="node"><title>Node16</title>
<g id="a_node16"><a xlink:href="../../d2/d3e/class_level1.html#ac4098d447b9841cabec6be3bb719bd26" target="_top" xlink:title="Level1.clearElements">
<polygon fill="white" stroke="black" points="597.5,-114.5 597.5,-133.5 716.5,-133.5 716.5,-114.5 597.5,-114.5"/>
<text text-anchor="middle" x="657" y="-121.5" font-family="Helvetica,sans-Serif" font-size="10.00">Level1.clearElements</text>
</a>
</g>
</g>
<!-- Node15&#45;&gt;Node16 -->
<g id="edge18" class="edge"><title>Node15&#45;&gt;Node16</title>
<path fill="none" stroke="midnightblue" d="M530.393,-95.589C552.763,-100.649 580.398,-106.9 604.047,-112.249"/>
<polygon fill="midnightblue" stroke="midnightblue" points="603.386,-115.687 613.911,-114.48 604.93,-108.86 603.386,-115.687"/>
</g>
<!-- Node17 -->
<g id="node17" class="node"><title>Node17</title>
<g id="a_node17"><a xlink:href="../../d7/da7/class_character.html#a4dc23a76b34bcbb84abba1b116847268" target="_top" xlink:title="Character.getHP">
<polygon fill="white" stroke="black" points="609.5,-76.5 609.5,-95.5 704.5,-95.5 704.5,-76.5 609.5,-76.5"/>
<text text-anchor="middle" x="657" y="-83.5" font-family="Helvetica,sans-Serif" font-size="10.00">Character.getHP</text>
</a>
</g>
</g>
<!-- Node15&#45;&gt;Node17 -->
<g id="edge19" class="edge"><title>Node15&#45;&gt;Node17</title>
<path fill="none" stroke="midnightblue" d="M542.081,-86C560.372,-86 580.84,-86 599.327,-86"/>
<polygon fill="midnightblue" stroke="midnightblue" points="599.367,-89.5001 609.367,-86 599.366,-82.5001 599.367,-89.5001"/>
</g>
<!-- Node18 -->
<g id="node18" class="node"><title>Node18</title>
<g id="a_node18"><a xlink:href="../../dd/d7a/class_enemy.html#a0b00e167bc151db783054dddb2f9b509" target="_top" xlink:title="Enemy.makeAngry">
<polygon fill="white" stroke="black" points="604,-0.5 604,-19.5 710,-19.5 710,-0.5 604,-0.5"/>
<text text-anchor="middle" x="657" y="-7.5" font-family="Helvetica,sans-Serif" font-size="10.00">Enemy.makeAngry</text>
</a>
</g>
</g>
<!-- Node15&#45;&gt;Node18 -->
<g id="edge20" class="edge"><title>Node15&#45;&gt;Node18</title>
<path fill="none" stroke="midnightblue" d="M504.026,-76.3733C524.737,-64.2081 562.163,-43.1529 596,-29 601.36,-26.7582 607.082,-24.628 612.784,-22.6597"/>
<polygon fill="midnightblue" stroke="midnightblue" points="613.902,-25.9763 622.294,-19.509 611.701,-19.3315 613.902,-25.9763"/>
</g>
<!-- Node19 -->
<g id="node19" class="node"><title>Node19</title>
<g id="a_node19"><a xlink:href="../../d6/d21/class_screen.html#a5d40342bbe33c27c9e0e24bd8709d1f6" target="_top" xlink:title="Screen.showAndAnim">
<polygon fill="white" stroke="black" points="596.5,-38.5 596.5,-57.5 717.5,-57.5 717.5,-38.5 596.5,-38.5"/>
<text text-anchor="middle" x="657" y="-45.5" font-family="Helvetica,sans-Serif" font-size="10.00">Screen.showAndAnim</text>
</a>
</g>
</g>
<!-- Node15&#45;&gt;Node19 -->
<g id="edge21" class="edge"><title>Node15&#45;&gt;Node19</title>
<path fill="none" stroke="midnightblue" d="M530.393,-76.411C552.763,-71.3513 580.398,-65.1004 604.047,-59.7512"/>
<polygon fill="midnightblue" stroke="midnightblue" points="604.93,-63.1401 613.911,-57.5201 603.386,-56.3125 604.93,-63.1401"/>
</g>
<!-- Node20 -->
<g id="node20" class="node"><title>Node20</title>
<g id="a_node20"><a xlink:href="../../d6/d21/class_screen.html#a5d9534b81b96cfc0a00009dea6be6c09" target="_top" xlink:title="Screen.showScreen">
<polygon fill="white" stroke="black" points="768.5,-114.5 768.5,-133.5 879.5,-133.5 879.5,-114.5 768.5,-114.5"/>
<text text-anchor="middle" x="824" y="-121.5" font-family="Helvetica,sans-Serif" font-size="10.00">Screen.showScreen</text>
</a>
</g>
</g>
<!-- Node19&#45;&gt;Node20 -->
<g id="edge22" class="edge"><title>Node19&#45;&gt;Node20</title>
<path fill="none" stroke="midnightblue" d="M692.048,-57.5421C700.635,-60.2851 709.755,-63.4943 718,-67 746.637,-79.1754 777.77,-96.6561 798.639,-109.042"/>
<polygon fill="midnightblue" stroke="midnightblue" points="797.084,-112.191 807.459,-114.338 800.687,-106.19 797.084,-112.191"/>
</g>
<!-- Node22 -->
<g id="node22" class="node"><title>Node22</title>
<g id="a_node22"><a xlink:href="../../d6/d21/class_screen.html#a601576a0d49770789b2eb08328f09c53" target="_top" xlink:title="Screen.startAnim">
<polygon fill="white" stroke="black" points="773.5,-38.5 773.5,-57.5 874.5,-57.5 874.5,-38.5 773.5,-38.5"/>
<text text-anchor="middle" x="824" y="-45.5" font-family="Helvetica,sans-Serif" font-size="10.00">Screen.startAnim</text>
</a>
</g>
</g>
<!-- Node19&#45;&gt;Node22 -->
<g id="edge24" class="edge"><title>Node19&#45;&gt;Node22</title>
<path fill="none" stroke="midnightblue" d="M717.569,-48C732.419,-48 748.346,-48 763.207,-48"/>
<polygon fill="midnightblue" stroke="midnightblue" points="763.299,-51.5001 773.299,-48 763.299,-44.5001 763.299,-51.5001"/>
</g>
<!-- Node21 -->
<g id="node21" class="node"><title>Node21</title>
<g id="a_node21"><a xlink:href="../../d6/d21/class_screen.html#ac7ca0a382b3177bbea4e2a4e7c0f442e" target="_top" xlink:title="Screen.init">
<polygon fill="white" stroke="black" points="959,-114.5 959,-133.5 1027,-133.5 1027,-114.5 959,-114.5"/>
<text text-anchor="middle" x="993" y="-121.5" font-family="Helvetica,sans-Serif" font-size="10.00">Screen.init</text>
</a>
</g>
</g>
<!-- Node20&#45;&gt;Node21 -->
<g id="edge23" class="edge"><title>Node20&#45;&gt;Node21</title>
<path fill="none" stroke="midnightblue" d="M879.682,-124C901.979,-124 927.401,-124 948.414,-124"/>
<polygon fill="midnightblue" stroke="midnightblue" points="948.65,-127.5 958.65,-124 948.65,-120.5 948.65,-127.5"/>
</g>
<!-- Node23&#45;&gt;Node16 -->
<g id="edge27" class="edge"><title>Node23&#45;&gt;Node16</title>
<path fill="none" stroke="midnightblue" d="M544.409,-124C558.139,-124 572.976,-124 587.21,-124"/>
<polygon fill="midnightblue" stroke="midnightblue" points="587.444,-127.5 597.444,-124 587.443,-120.5 587.444,-127.5"/>
</g>
<!-- Node23&#45;&gt;Node17 -->
<g id="edge28" class="edge"><title>Node23&#45;&gt;Node17</title>
<path fill="none" stroke="midnightblue" d="M530.393,-114.411C552.763,-109.351 580.398,-103.1 604.047,-97.7512"/>
<polygon fill="midnightblue" stroke="midnightblue" points="604.93,-101.14 613.911,-95.5201 603.386,-94.3125 604.93,-101.14"/>
</g>
<!-- Node23&#45;&gt;Node20 -->
<g id="edge29" class="edge"><title>Node23&#45;&gt;Node20</title>
<path fill="none" stroke="midnightblue" d="M531.909,-133.512C551.431,-137.277 574.758,-141.146 596,-143 650.017,-147.715 663.995,-147.847 718,-143 735.113,-141.464 753.609,-138.547 770.239,-135.451"/>
<polygon fill="midnightblue" stroke="midnightblue" points="771.165,-138.838 780.323,-133.512 769.842,-131.964 771.165,-138.838"/>
</g>
</g>
</svg>
