<?xml version="1.0" encoding="UTF-8" standalone="no"?>
<!DOCTYPE svg PUBLIC "-//W3C//DTD SVG 1.1//EN"
 "http://www.w3.org/Graphics/SVG/1.1/DTD/svg11.dtd">
<!-- Generated by graphviz version 2.36.0 (20140111.2315)
 -->
<!-- Title: Level1.goNextLevel Pages: 1 -->
<svg width="1190pt" height="104pt"
 viewBox="0.00 0.00 1190.00 104.00" xmlns="http://www.w3.org/2000/svg" xmlns:xlink="http://www.w3.org/1999/xlink">
<g id="graph0" class="graph" transform="scale(1 1) rotate(0) translate(4 100)">
<title>Level1.goNextLevel</title>
<polygon fill="white" stroke="none" points="-4,4 -4,-100 1186,-100 1186,4 -4,4"/>
<!-- Node1 -->
<g id="node1" class="node"><title>Node1</title>
<polygon fill="#bfbfbf" stroke="black" points="0,-38.5 0,-57.5 110,-57.5 110,-38.5 0,-38.5"/>
<text text-anchor="middle" x="55" y="-45.5" font-family="Helvetica,sans-Serif" font-size="10.00">Level1.goNextLevel</text>
</g>
<!-- Node2 -->
<g id="node2" class="node"><title>Node2</title>
<g id="a_node2"><a xlink:href="../../d2/d3e/class_level1.html#a78a7fb5633734b1815af8db43db23a41" target="_top" xlink:title="Level1.updateSprites">
<polygon fill="white" stroke="black" points="146,-57.5 146,-76.5 264,-76.5 264,-57.5 146,-57.5"/>
<text text-anchor="middle" x="205" y="-64.5" font-family="Helvetica,sans-Serif" font-size="10.00">Level1.updateSprites</text>
</a>
</g>
</g>
<!-- Node1&#45;&gt;Node2 -->
<g id="edge1" class="edge"><title>Node1&#45;&gt;Node2</title>
<path fill="none" stroke="midnightblue" d="M120.429,-56.2712C128.85,-57.3524 137.44,-58.4552 145.752,-59.5222"/>
<polygon fill="midnightblue" stroke="midnightblue" points="120.634,-52.7689 110.269,-54.967 119.742,-59.7119 120.634,-52.7689"/>
</g>
<!-- Node3 -->
<g id="node3" class="node"><title>Node3</title>
<g id="a_node3"><a xlink:href="../../d2/d3e/class_level1.html#a324da1e22a7a87fa4bb1859b5774bdba" target="_top" xlink:title="Level1.updateFrame">
<polygon fill="white" stroke="black" points="300,-57.5 300,-76.5 414,-76.5 414,-57.5 300,-57.5"/>
<text text-anchor="middle" x="357" y="-64.5" font-family="Helvetica,sans-Serif" font-size="10.00">Level1.updateFrame</text>
</a>
</g>
</g>
<!-- Node2&#45;&gt;Node3 -->
<g id="edge2" class="edge"><title>Node2&#45;&gt;Node3</title>
<path fill="none" stroke="midnightblue" d="M274.665,-67C283.13,-67 291.703,-67 299.949,-67"/>
<polygon fill="midnightblue" stroke="midnightblue" points="274.423,-63.5001 264.423,-67 274.423,-70.5001 274.423,-63.5001"/>
</g>
<!-- Node4 -->
<g id="node4" class="node"><title>Node4</title>
<g id="a_node4"><a xlink:href="../../d2/d3e/class_level1.html#a0871325d07c0614d5f1f2df7df13b703" target="_top" xlink:title="Level1.start">
<polygon fill="white" stroke="black" points="450.5,-38.5 450.5,-57.5 523.5,-57.5 523.5,-38.5 450.5,-38.5"/>
<text text-anchor="middle" x="487" y="-45.5" font-family="Helvetica,sans-Serif" font-size="10.00">Level1.start</text>
</a>
</g>
</g>
<!-- Node3&#45;&gt;Node4 -->
<g id="edge3" class="edge"><title>Node3&#45;&gt;Node4</title>
<path fill="none" stroke="midnightblue" d="M424.221,-57.1703C433.159,-55.8436 442.039,-54.5255 450.163,-53.3196"/>
<polygon fill="midnightblue" stroke="midnightblue" points="423.52,-53.7359 414.143,-58.6663 424.548,-60.66 423.52,-53.7359"/>
</g>
<!-- Node4&#45;&gt;Node1 -->
<g id="edge4" class="edge"><title>Node4&#45;&gt;Node1</title>
<path fill="none" stroke="midnightblue" d="M440.063,-48C360.023,-48 195.402,-48 110.024,-48"/>
<polygon fill="midnightblue" stroke="midnightblue" points="440.318,-51.5001 450.318,-48 440.318,-44.5001 440.318,-51.5001"/>
</g>
<!-- Node5 -->
<g id="node5" class="node"><title>Node5</title>
<g id="a_node5"><a xlink:href="../../d2/db8/class_menu.html#ab6296880308728ced459f772430d025b" target="_top" xlink:title="Menu.createGame">
<polygon fill="white" stroke="black" points="560,-38.5 560,-57.5 666,-57.5 666,-38.5 560,-38.5"/>
<text text-anchor="middle" x="613" y="-45.5" font-family="Helvetica,sans-Serif" font-size="10.00">Menu.createGame</text>
</a>
</g>
</g>
<!-- Node4&#45;&gt;Node5 -->
<g id="edge5" class="edge"><title>Node4&#45;&gt;Node5</title>
<path fill="none" stroke="midnightblue" d="M533.654,-48C542.17,-48 551.129,-48 559.824,-48"/>
<polygon fill="midnightblue" stroke="midnightblue" points="533.533,-44.5001 523.533,-48 533.533,-51.5001 533.533,-44.5001"/>
</g>
<!-- Node6 -->
<g id="node6" class="node"><title>Node6</title>
<g id="a_node6"><a xlink:href="../../d2/db8/class_menu.html#a53c8b072d5ec777994fed9ee76c98561" target="_top" xlink:title="Menu.handle">
<polygon fill="white" stroke="black" points="702,-38.5 702,-57.5 780,-57.5 780,-38.5 702,-38.5"/>
<text text-anchor="middle" x="741" y="-45.5" font-family="Helvetica,sans-Serif" font-size="10.00">Menu.handle</text>
</a>
</g>
</g>
<!-- Node5&#45;&gt;Node6 -->
<g id="edge6" class="edge"><title>Node5&#45;&gt;Node6</title>
<path fill="none" stroke="midnightblue" d="M676.466,-48C685.13,-48 693.808,-48 701.843,-48"/>
<polygon fill="midnightblue" stroke="midnightblue" points="676.341,-44.5001 666.341,-48 676.341,-51.5001 676.341,-44.5001"/>
</g>
<!-- Node7 -->
<g id="node7" class="node"><title>Node7</title>
<g id="a_node7"><a xlink:href="../../d2/db8/class_menu.html#aff7a7627619921545f94547ab6135007" target="_top" xlink:title="Menu.addButton">
<polygon fill="white" stroke="black" points="816,-38.5 816,-57.5 912,-57.5 912,-38.5 816,-38.5"/>
<text text-anchor="middle" x="864" y="-45.5" font-family="Helvetica,sans-Serif" font-size="10.00">Menu.addButton</text>
</a>
</g>
</g>
<!-- Node6&#45;&gt;Node7 -->
<g id="edge7" class="edge"><title>Node6&#45;&gt;Node7</title>
<path fill="none" stroke="midnightblue" d="M790.539,-48C798.803,-48 807.377,-48 815.612,-48"/>
<polygon fill="midnightblue" stroke="midnightblue" points="790.285,-44.5001 780.285,-48 790.285,-51.5001 790.285,-44.5001"/>
</g>
<!-- Node8 -->
<g id="node8" class="node"><title>Node8</title>
<g id="a_node8"><a xlink:href="../../d5/db1/class_game_over.html#abb505ac8c26999beff755f4c299370da" target="_top" xlink:title="GameOver.addAllButtons">
<polygon fill="white" stroke="black" points="948.5,-76.5 948.5,-95.5 1085.5,-95.5 1085.5,-76.5 948.5,-76.5"/>
<text text-anchor="middle" x="1017" y="-83.5" font-family="Helvetica,sans-Serif" font-size="10.00">GameOver.addAllButtons</text>
</a>
</g>
</g>
<!-- Node7&#45;&gt;Node8 -->
<g id="edge8" class="edge"><title>Node7&#45;&gt;Node8</title>
<path fill="none" stroke="midnightblue" d="M912.843,-60.04C933.939,-65.3488 958.377,-71.4988 978.17,-76.4799"/>
<polygon fill="midnightblue" stroke="midnightblue" points="913.656,-56.6354 903.104,-57.589 911.947,-63.4237 913.656,-56.6354"/>
</g>
<!-- Node9 -->
<g id="node9" class="node"><title>Node9</title>
<g id="a_node9"><a xlink:href="../../dd/d7f/class_game_win.html#a0ebbfe299d7456f57ae3dbf3817b7f8d" target="_top" xlink:title="GameWin.addAllButtons">
<polygon fill="white" stroke="black" points="951,-38.5 951,-57.5 1083,-57.5 1083,-38.5 951,-38.5"/>
<text text-anchor="middle" x="1017" y="-45.5" font-family="Helvetica,sans-Serif" font-size="10.00">GameWin.addAllButtons</text>
</a>
</g>
</g>
<!-- Node7&#45;&gt;Node9 -->
<g id="edge9" class="edge"><title>Node7&#45;&gt;Node9</title>
<path fill="none" stroke="midnightblue" d="M922.592,-48C931.822,-48 941.431,-48 950.823,-48"/>
<polygon fill="midnightblue" stroke="midnightblue" points="922.363,-44.5001 912.363,-48 922.363,-51.5001 922.363,-44.5001"/>
</g>
<!-- Node10 -->
<g id="node10" class="node"><title>Node10</title>
<g id="a_node10"><a xlink:href="../../d2/db8/class_menu.html#a461e62e606af2391013ce3aaf92a8cc7" target="_top" xlink:title="Menu.addAllButtons">
<polygon fill="white" stroke="black" points="960.5,-0.5 960.5,-19.5 1073.5,-19.5 1073.5,-0.5 960.5,-0.5"/>
<text text-anchor="middle" x="1017" y="-7.5" font-family="Helvetica,sans-Serif" font-size="10.00">Menu.addAllButtons</text>
</a>
</g>
</g>
<!-- Node7&#45;&gt;Node10 -->
<g id="edge10" class="edge"><title>Node7&#45;&gt;Node10</title>
<path fill="none" stroke="midnightblue" d="M912.843,-35.96C933.939,-30.6512 958.377,-24.5012 978.17,-19.5201"/>
<polygon fill="midnightblue" stroke="midnightblue" points="911.947,-32.5763 903.104,-38.411 913.656,-39.3646 911.947,-32.5763"/>
</g>
<!-- Node11 -->
<g id="node11" class="node"><title>Node11</title>
<g id="a_node11"><a xlink:href="../../d2/db8/class_menu.html#a3c99ad09e9f2f975c1a0d0597642651a" target="_top" xlink:title="Menu.init">
<polygon fill="white" stroke="black" points="1122,-0.5 1122,-19.5 1182,-19.5 1182,-0.5 1122,-0.5"/>
<text text-anchor="middle" x="1152" y="-7.5" font-family="Helvetica,sans-Serif" font-size="10.00">Menu.init</text>
</a>
</g>
</g>
<!-- Node10&#45;&gt;Node11 -->
<g id="edge11" class="edge"><title>Node10&#45;&gt;Node11</title>
<path fill="none" stroke="midnightblue" d="M1083.78,-10C1097.09,-10 1110.45,-10 1121.71,-10"/>
<polygon fill="midnightblue" stroke="midnightblue" points="1083.63,-6.5001 1073.63,-10 1083.63,-13.5001 1083.63,-6.5001"/>
</g>
</g>
</svg>
