<?xml version="1.0" encoding="UTF-8" standalone="no"?>
<!DOCTYPE svg PUBLIC "-//W3C//DTD SVG 1.1//EN"
 "http://www.w3.org/Graphics/SVG/1.1/DTD/svg11.dtd">
<!-- Generated by graphviz version 2.36.0 (20140111.2315)
 -->
<!-- Title: Level1.clearElements Pages: 1 -->
<svg width="1354pt" height="180pt"
 viewBox="0.00 0.00 1354.00 180.00" xmlns="http://www.w3.org/2000/svg" xmlns:xlink="http://www.w3.org/1999/xlink">
<g id="graph0" class="graph" transform="scale(1 1) rotate(0) translate(4 176)">
<title>Level1.clearElements</title>
<polygon fill="white" stroke="none" points="-4,4 -4,-176 1350,-176 1350,4 -4,4"/>
<!-- Node1 -->
<g id="node1" class="node"><title>Node1</title>
<polygon fill="#bfbfbf" stroke="black" points="0.5,-38.5 0.5,-57.5 119.5,-57.5 119.5,-38.5 0.5,-38.5"/>
<text text-anchor="middle" x="60" y="-45.5" font-family="Helvetica,sans-Serif" font-size="10.00">Level1.clearElements</text>
</g>
<!-- Node2 -->
<g id="node2" class="node"><title>Node2</title>
<g id="a_node2"><a xlink:href="../../d2/d3e/class_level1.html#a5e6976ef755d0e678034870e374ee4ca" target="_top" xlink:title="Level1.goGameOver">
<polygon fill="white" stroke="black" points="156,-76.5 156,-95.5 270,-95.5 270,-76.5 156,-76.5"/>
<text text-anchor="middle" x="213" y="-83.5" font-family="Helvetica,sans-Serif" font-size="10.00">Level1.goGameOver</text>
</a>
</g>
</g>
<!-- Node1&#45;&gt;Node2 -->
<g id="edge1" class="edge"><title>Node1&#45;&gt;Node2</title>
<path fill="none" stroke="midnightblue" d="M108.843,-60.04C129.939,-65.3488 154.377,-71.4988 174.17,-76.4799"/>
<polygon fill="midnightblue" stroke="midnightblue" points="109.656,-56.6354 99.1037,-57.589 107.947,-63.4237 109.656,-56.6354"/>
</g>
<!-- Node6 -->
<g id="node6" class="node"><title>Node6</title>
<g id="a_node6"><a xlink:href="../../d2/d3e/class_level1.html#ac56e75129bb2946c38cfcf43608f3f05" target="_top" xlink:title="Level1.goNextLevel">
<polygon fill="white" stroke="black" points="720,-76.5 720,-95.5 830,-95.5 830,-76.5 720,-76.5"/>
<text text-anchor="middle" x="775" y="-83.5" font-family="Helvetica,sans-Serif" font-size="10.00">Level1.goNextLevel</text>
</a>
</g>
</g>
<!-- Node1&#45;&gt;Node6 -->
<g id="edge15" class="edge"><title>Node1&#45;&gt;Node6</title>
<path fill="none" stroke="midnightblue" d="M129.993,-48C191.407,-48 283.69,-48 364,-48 364,-48 364,-48 518,-48 595.282,-48 684.279,-65.1538 734.362,-76.411"/>
<polygon fill="midnightblue" stroke="midnightblue" points="129.653,-44.5001 119.653,-48 129.653,-51.5001 129.653,-44.5001"/>
</g>
<!-- Node14 -->
<g id="node14" class="node"><title>Node14</title>
<g id="a_node14"><a xlink:href="../../d0/dc8/class_level2.html#a5f48ec87e567f2e4994668ba29ac4266" target="_top" xlink:title="Level2.goNextLevel">
<polygon fill="white" stroke="black" points="158,-0.5 158,-19.5 268,-19.5 268,-0.5 158,-0.5"/>
<text text-anchor="middle" x="213" y="-7.5" font-family="Helvetica,sans-Serif" font-size="10.00">Level2.goNextLevel</text>
</a>
</g>
</g>
<!-- Node1&#45;&gt;Node14 -->
<g id="edge14" class="edge"><title>Node1&#45;&gt;Node14</title>
<path fill="none" stroke="midnightblue" d="M108.843,-35.96C129.939,-30.6512 154.377,-24.5012 174.17,-19.5201"/>
<polygon fill="midnightblue" stroke="midnightblue" points="107.947,-32.5763 99.1037,-38.411 109.656,-39.3646 107.947,-32.5763"/>
</g>
<!-- Node3 -->
<g id="node3" class="node"><title>Node3</title>
<g id="a_node3"><a xlink:href="../../d2/d3e/class_level1.html#a78a7fb5633734b1815af8db43db23a41" target="_top" xlink:title="Level1.updateSprites">
<polygon fill="white" stroke="black" points="306,-76.5 306,-95.5 424,-95.5 424,-76.5 306,-76.5"/>
<text text-anchor="middle" x="365" y="-83.5" font-family="Helvetica,sans-Serif" font-size="10.00">Level1.updateSprites</text>
</a>
</g>
</g>
<!-- Node2&#45;&gt;Node3 -->
<g id="edge2" class="edge"><title>Node2&#45;&gt;Node3</title>
<path fill="none" stroke="midnightblue" d="M280.505,-86C288.971,-86 297.583,-86 305.902,-86"/>
<polygon fill="midnightblue" stroke="midnightblue" points="280.281,-82.5001 270.281,-86 280.281,-89.5001 280.281,-82.5001"/>
</g>
<!-- Node4 -->
<g id="node4" class="node"><title>Node4</title>
<g id="a_node4"><a xlink:href="../../d2/d3e/class_level1.html#a324da1e22a7a87fa4bb1859b5774bdba" target="_top" xlink:title="Level1.updateFrame">
<polygon fill="white" stroke="black" points="460,-114.5 460,-133.5 574,-133.5 574,-114.5 460,-114.5"/>
<text text-anchor="middle" x="517" y="-121.5" font-family="Helvetica,sans-Serif" font-size="10.00">Level1.updateFrame</text>
</a>
</g>
</g>
<!-- Node3&#45;&gt;Node4 -->
<g id="edge3" class="edge"><title>Node3&#45;&gt;Node4</title>
<path fill="none" stroke="midnightblue" d="M413.811,-98.1121C434.702,-103.404 458.847,-109.521 478.421,-114.48"/>
<polygon fill="midnightblue" stroke="midnightblue" points="414.405,-94.652 403.851,-95.589 412.686,-101.438 414.405,-94.652"/>
</g>
<!-- Node5 -->
<g id="node5" class="node"><title>Node5</title>
<g id="a_node5"><a xlink:href="../../d2/d3e/class_level1.html#a0871325d07c0614d5f1f2df7df13b703" target="_top" xlink:title="Level1.start">
<polygon fill="white" stroke="black" points="610.5,-114.5 610.5,-133.5 683.5,-133.5 683.5,-114.5 610.5,-114.5"/>
<text text-anchor="middle" x="647" y="-121.5" font-family="Helvetica,sans-Serif" font-size="10.00">Level1.start</text>
</a>
</g>
</g>
<!-- Node4&#45;&gt;Node5 -->
<g id="edge4" class="edge"><title>Node4&#45;&gt;Node5</title>
<path fill="none" stroke="midnightblue" d="M584.221,-124C593.159,-124 602.039,-124 610.163,-124"/>
<polygon fill="midnightblue" stroke="midnightblue" points="584.143,-120.5 574.143,-124 584.143,-127.5 584.143,-120.5"/>
</g>
<!-- Node5&#45;&gt;Node6 -->
<g id="edge5" class="edge"><title>Node5&#45;&gt;Node6</title>
<path fill="none" stroke="midnightblue" d="M689.564,-111.465C706.705,-106.295 726.25,-100.401 742.215,-95.5859"/>
<polygon fill="midnightblue" stroke="midnightblue" points="688.359,-108.173 679.795,-114.411 690.38,-114.874 688.359,-108.173"/>
</g>
<!-- Node7 -->
<g id="node7" class="node"><title>Node7</title>
<g id="a_node7"><a xlink:href="../../d2/db8/class_menu.html#ab6296880308728ced459f772430d025b" target="_top" xlink:title="Menu.createGame">
<polygon fill="white" stroke="black" points="722,-114.5 722,-133.5 828,-133.5 828,-114.5 722,-114.5"/>
<text text-anchor="middle" x="775" y="-121.5" font-family="Helvetica,sans-Serif" font-size="10.00">Menu.createGame</text>
</a>
</g>
</g>
<!-- Node5&#45;&gt;Node7 -->
<g id="edge7" class="edge"><title>Node5&#45;&gt;Node7</title>
<path fill="none" stroke="midnightblue" d="M694.04,-124C703.024,-124 712.506,-124 721.676,-124"/>
<polygon fill="midnightblue" stroke="midnightblue" points="693.77,-120.5 683.77,-124 693.769,-127.5 693.77,-120.5"/>
</g>
<!-- Node6&#45;&gt;Node3 -->
<g id="edge6" class="edge"><title>Node6&#45;&gt;Node3</title>
<path fill="none" stroke="midnightblue" d="M709.511,-86C630.981,-86 499.505,-86 424.023,-86"/>
<polygon fill="midnightblue" stroke="midnightblue" points="709.759,-89.5001 719.759,-86 709.759,-82.5001 709.759,-89.5001"/>
</g>
<!-- Node8 -->
<g id="node8" class="node"><title>Node8</title>
<g id="a_node8"><a xlink:href="../../d2/db8/class_menu.html#a53c8b072d5ec777994fed9ee76c98561" target="_top" xlink:title="Menu.handle">
<polygon fill="white" stroke="black" points="866,-114.5 866,-133.5 944,-133.5 944,-114.5 866,-114.5"/>
<text text-anchor="middle" x="905" y="-121.5" font-family="Helvetica,sans-Serif" font-size="10.00">Menu.handle</text>
</a>
</g>
</g>
<!-- Node7&#45;&gt;Node8 -->
<g id="edge8" class="edge"><title>Node7&#45;&gt;Node8</title>
<path fill="none" stroke="midnightblue" d="M838.198,-124C847.592,-124 857.038,-124 865.726,-124"/>
<polygon fill="midnightblue" stroke="midnightblue" points="838.063,-120.5 828.062,-124 838.062,-127.5 838.063,-120.5"/>
</g>
<!-- Node9 -->
<g id="node9" class="node"><title>Node9</title>
<g id="a_node9"><a xlink:href="../../d2/db8/class_menu.html#aff7a7627619921545f94547ab6135007" target="_top" xlink:title="Menu.addButton">
<polygon fill="white" stroke="black" points="980,-114.5 980,-133.5 1076,-133.5 1076,-114.5 980,-114.5"/>
<text text-anchor="middle" x="1028" y="-121.5" font-family="Helvetica,sans-Serif" font-size="10.00">Menu.addButton</text>
</a>
</g>
</g>
<!-- Node8&#45;&gt;Node9 -->
<g id="edge9" class="edge"><title>Node8&#45;&gt;Node9</title>
<path fill="none" stroke="midnightblue" d="M954.539,-124C962.803,-124 971.377,-124 979.612,-124"/>
<polygon fill="midnightblue" stroke="midnightblue" points="954.285,-120.5 944.285,-124 954.285,-127.5 954.285,-120.5"/>
</g>
<!-- Node10 -->
<g id="node10" class="node"><title>Node10</title>
<g id="a_node10"><a xlink:href="../../d5/db1/class_game_over.html#abb505ac8c26999beff755f4c299370da" target="_top" xlink:title="GameOver.addAllButtons">
<polygon fill="white" stroke="black" points="1112.5,-152.5 1112.5,-171.5 1249.5,-171.5 1249.5,-152.5 1112.5,-152.5"/>
<text text-anchor="middle" x="1181" y="-159.5" font-family="Helvetica,sans-Serif" font-size="10.00">GameOver.addAllButtons</text>
</a>
</g>
</g>
<!-- Node9&#45;&gt;Node10 -->
<g id="edge10" class="edge"><title>Node9&#45;&gt;Node10</title>
<path fill="none" stroke="midnightblue" d="M1076.84,-136.04C1097.94,-141.349 1122.38,-147.499 1142.17,-152.48"/>
<polygon fill="midnightblue" stroke="midnightblue" points="1077.66,-132.635 1067.1,-133.589 1075.95,-139.424 1077.66,-132.635"/>
</g>
<!-- Node11 -->
<g id="node11" class="node"><title>Node11</title>
<g id="a_node11"><a xlink:href="../../dd/d7f/class_game_win.html#a0ebbfe299d7456f57ae3dbf3817b7f8d" target="_top" xlink:title="GameWin.addAllButtons">
<polygon fill="white" stroke="black" points="1115,-114.5 1115,-133.5 1247,-133.5 1247,-114.5 1115,-114.5"/>
<text text-anchor="middle" x="1181" y="-121.5" font-family="Helvetica,sans-Serif" font-size="10.00">GameWin.addAllButtons</text>
</a>
</g>
</g>
<!-- Node9&#45;&gt;Node11 -->
<g id="edge11" class="edge"><title>Node9&#45;&gt;Node11</title>
<path fill="none" stroke="midnightblue" d="M1086.59,-124C1095.82,-124 1105.43,-124 1114.82,-124"/>
<polygon fill="midnightblue" stroke="midnightblue" points="1086.36,-120.5 1076.36,-124 1086.36,-127.5 1086.36,-120.5"/>
</g>
<!-- Node12 -->
<g id="node12" class="node"><title>Node12</title>
<g id="a_node12"><a xlink:href="../../d2/db8/class_menu.html#a461e62e606af2391013ce3aaf92a8cc7" target="_top" xlink:title="Menu.addAllButtons">
<polygon fill="white" stroke="black" points="1124.5,-76.5 1124.5,-95.5 1237.5,-95.5 1237.5,-76.5 1124.5,-76.5"/>
<text text-anchor="middle" x="1181" y="-83.5" font-family="Helvetica,sans-Serif" font-size="10.00">Menu.addAllButtons</text>
</a>
</g>
</g>
<!-- Node9&#45;&gt;Node12 -->
<g id="edge12" class="edge"><title>Node9&#45;&gt;Node12</title>
<path fill="none" stroke="midnightblue" d="M1076.84,-111.96C1097.94,-106.651 1122.38,-100.501 1142.17,-95.5201"/>
<polygon fill="midnightblue" stroke="midnightblue" points="1075.95,-108.576 1067.1,-114.411 1077.66,-115.365 1075.95,-108.576"/>
</g>
<!-- Node13 -->
<g id="node13" class="node"><title>Node13</title>
<g id="a_node13"><a xlink:href="../../d2/db8/class_menu.html#a3c99ad09e9f2f975c1a0d0597642651a" target="_top" xlink:title="Menu.init">
<polygon fill="white" stroke="black" points="1286,-76.5 1286,-95.5 1346,-95.5 1346,-76.5 1286,-76.5"/>
<text text-anchor="middle" x="1316" y="-83.5" font-family="Helvetica,sans-Serif" font-size="10.00">Menu.init</text>
</a>
</g>
</g>
<!-- Node12&#45;&gt;Node13 -->
<g id="edge13" class="edge"><title>Node12&#45;&gt;Node13</title>
<path fill="none" stroke="midnightblue" d="M1247.78,-86C1261.09,-86 1274.45,-86 1285.71,-86"/>
<polygon fill="midnightblue" stroke="midnightblue" points="1247.63,-82.5001 1237.63,-86 1247.63,-89.5001 1247.63,-82.5001"/>
</g>
</g>
</svg>
