<?xml version="1.0" encoding="UTF-8" standalone="no"?>
<!DOCTYPE svg PUBLIC "-//W3C//DTD SVG 1.1//EN"
 "http://www.w3.org/Graphics/SVG/1.1/DTD/svg11.dtd">
<!-- Generated by graphviz version 2.36.0 (20140111.2315)
 -->
<!-- Title: Level1.updateSprites Pages: 1 -->
<svg width="804pt" height="422pt"
 viewBox="0.00 0.00 804.00 421.86" xmlns="http://www.w3.org/2000/svg" xmlns:xlink="http://www.w3.org/1999/xlink">
<g id="graph0" class="graph" transform="scale(1 1) rotate(0) translate(4 417.856)">
<title>Level1.updateSprites</title>
<polygon fill="white" stroke="none" points="-4,4 -4,-417.856 800,-417.856 800,4 -4,4"/>
<!-- Node1 -->
<g id="node1" class="node"><title>Node1</title>
<polygon fill="#bfbfbf" stroke="black" points="0,-133.5 0,-152.5 118,-152.5 118,-133.5 0,-133.5"/>
<text text-anchor="middle" x="59" y="-140.5" font-family="Helvetica,sans-Serif" font-size="10.00">Level1.updateSprites</text>
</g>
<!-- Node2 -->
<g id="node2" class="node"><title>Node2</title>
<g id="a_node2"><a xlink:href="../../d2/d3e/class_level1.html#a5e6976ef755d0e678034870e374ee4ca" target="_top" xlink:title="Level1.goGameOver">
<polygon fill="white" stroke="black" points="170,-361.5 170,-380.5 284,-380.5 284,-361.5 170,-361.5"/>
<text text-anchor="middle" x="227" y="-368.5" font-family="Helvetica,sans-Serif" font-size="10.00">Level1.goGameOver</text>
</a>
</g>
</g>
<!-- Node1&#45;&gt;Node2 -->
<g id="edge1" class="edge"><title>Node1&#45;&gt;Node2</title>
<path fill="none" stroke="midnightblue" d="M63.7192,-152.708C74.5612,-180.172 108.285,-259.933 154,-314 167.854,-330.385 187.041,-345.296 202.125,-355.754"/>
<polygon fill="midnightblue" stroke="midnightblue" points="200.212,-358.686 210.46,-361.375 204.126,-352.882 200.212,-358.686"/>
</g>
<!-- Node7 -->
<g id="node7" class="node"><title>Node7</title>
<g id="a_node7"><a xlink:href="../../d2/d3e/class_level1.html#ac56e75129bb2946c38cfcf43608f3f05" target="_top" xlink:title="Level1.goNextLevel">
<polygon fill="white" stroke="black" points="172,-285.5 172,-304.5 282,-304.5 282,-285.5 172,-285.5"/>
<text text-anchor="middle" x="227" y="-292.5" font-family="Helvetica,sans-Serif" font-size="10.00">Level1.goNextLevel</text>
</a>
</g>
</g>
<!-- Node1&#45;&gt;Node7 -->
<g id="edge6" class="edge"><title>Node1&#45;&gt;Node7</title>
<path fill="none" stroke="midnightblue" d="M70.384,-152.508C97.9828,-177.779 173.412,-246.847 208.107,-278.616"/>
<polygon fill="midnightblue" stroke="midnightblue" points="205.881,-281.323 215.62,-285.495 210.608,-276.161 205.881,-281.323"/>
</g>
<!-- Node14 -->
<g id="node14" class="node"><title>Node14</title>
<g id="a_node14"><a xlink:href="../../dd/d7a/class_enemy.html#a9b6840dcc6b8165268e957fc43d95b06" target="_top" xlink:title="Enemy.makePoop">
<polygon fill="white" stroke="black" points="176,-152.5 176,-171.5 278,-171.5 278,-152.5 176,-152.5"/>
<text text-anchor="middle" x="227" y="-159.5" font-family="Helvetica,sans-Serif" font-size="10.00">Enemy.makePoop</text>
</a>
</g>
</g>
<!-- Node1&#45;&gt;Node14 -->
<g id="edge17" class="edge"><title>Node1&#45;&gt;Node14</title>
<path fill="none" stroke="midnightblue" d="M118.059,-149.645C133.551,-151.419 150.322,-153.338 165.92,-155.123"/>
<polygon fill="midnightblue" stroke="midnightblue" points="165.643,-158.614 175.976,-156.274 166.439,-151.66 165.643,-158.614"/>
</g>
<!-- Node16 -->
<g id="node16" class="node"><title>Node16</title>
<g id="a_node16"><a xlink:href="../../d8/d53/class_player.html#a1b7a0a6c68deb202a672d42e205d5a21" target="_top" xlink:title="Player.moveSprite">
<polygon fill="white" stroke="black" points="175,-114.5 175,-133.5 279,-133.5 279,-114.5 175,-114.5"/>
<text text-anchor="middle" x="227" y="-121.5" font-family="Helvetica,sans-Serif" font-size="10.00">Player.moveSprite</text>
</a>
</g>
</g>
<!-- Node1&#45;&gt;Node16 -->
<g id="edge19" class="edge"><title>Node1&#45;&gt;Node16</title>
<path fill="none" stroke="midnightblue" d="M118.059,-136.355C133.1,-134.633 149.346,-132.774 164.554,-131.033"/>
<polygon fill="midnightblue" stroke="midnightblue" points="165.352,-134.465 174.89,-129.85 164.556,-127.51 165.352,-134.465"/>
</g>
<!-- Node18 -->
<g id="node18" class="node"><title>Node18</title>
<g id="a_node18"><a xlink:href="../../dd/d7a/class_enemy.html#ab653212b50d9e64ba497ae18696d3678" target="_top" xlink:title="Enemy.moveSprite">
<polygon fill="white" stroke="black" points="173.5,-76.5 173.5,-95.5 280.5,-95.5 280.5,-76.5 173.5,-76.5"/>
<text text-anchor="middle" x="227" y="-83.5" font-family="Helvetica,sans-Serif" font-size="10.00">Enemy.moveSprite</text>
</a>
</g>
</g>
<!-- Node1&#45;&gt;Node18 -->
<g id="edge22" class="edge"><title>Node1&#45;&gt;Node18</title>
<path fill="none" stroke="midnightblue" d="M81.3659,-133.462C100.233,-125.257 128.612,-113.444 154,-105 161.165,-102.617 168.808,-100.332 176.339,-98.2253"/>
<polygon fill="midnightblue" stroke="midnightblue" points="177.392,-101.566 186.123,-95.5642 175.555,-94.8112 177.392,-101.566"/>
</g>
<!-- Node20 -->
<g id="node20" class="node"><title>Node20</title>
<g id="a_node20"><a xlink:href="../../d2/d3e/class_level1.html#a5995ba731849ced54b8f97fcc93ce4d9" target="_top" xlink:title="Level1.removeFromScreen">
<polygon fill="white" stroke="black" points="154.5,-38.5 154.5,-57.5 299.5,-57.5 299.5,-38.5 154.5,-38.5"/>
<text text-anchor="middle" x="227" y="-45.5" font-family="Helvetica,sans-Serif" font-size="10.00">Level1.removeFromScreen</text>
</a>
</g>
</g>
<!-- Node1&#45;&gt;Node20 -->
<g id="edge26" class="edge"><title>Node1&#45;&gt;Node20</title>
<path fill="none" stroke="midnightblue" d="M69.1758,-133.278C84.9719,-117.114 118.993,-84.7366 154,-67 158.568,-64.6857 163.446,-62.6327 168.429,-60.8155"/>
<polygon fill="midnightblue" stroke="midnightblue" points="169.701,-64.081 178.086,-57.605 167.492,-57.4384 169.701,-64.081"/>
</g>
<!-- Node21 -->
<g id="node21" class="node"><title>Node21</title>
<g id="a_node21"><a xlink:href="../../d2/d3e/class_level1.html#aa75f107bf925594da75a1d82cf64044d" target="_top" xlink:title="Level1.returnCollisions">
<polygon fill="white" stroke="black" points="165,-0.5 165,-19.5 289,-19.5 289,-0.5 165,-0.5"/>
<text text-anchor="middle" x="227" y="-7.5" font-family="Helvetica,sans-Serif" font-size="10.00">Level1.returnCollisions</text>
</a>
</g>
</g>
<!-- Node1&#45;&gt;Node21 -->
<g id="edge27" class="edge"><title>Node1&#45;&gt;Node21</title>
<path fill="none" stroke="midnightblue" d="M65.1397,-133.326C77.395,-111.226 110.581,-56.8079 154,-29 157.334,-26.8647 160.901,-24.9684 164.597,-23.2845"/>
<polygon fill="midnightblue" stroke="midnightblue" points="166.01,-26.4887 173.992,-19.5209 163.407,-19.9907 166.01,-26.4887"/>
</g>
<!-- Node3 -->
<g id="node3" class="node"><title>Node3</title>
<g id="a_node3"><a xlink:href="../../d2/d3e/class_level1.html#ac4098d447b9841cabec6be3bb719bd26" target="_top" xlink:title="Level1.clearElements">
<polygon fill="white" stroke="black" points="337.5,-342.5 337.5,-361.5 456.5,-361.5 456.5,-342.5 337.5,-342.5"/>
<text text-anchor="middle" x="397" y="-349.5" font-family="Helvetica,sans-Serif" font-size="10.00">Level1.clearElements</text>
</a>
</g>
</g>
<!-- Node2&#45;&gt;Node3 -->
<g id="edge2" class="edge"><title>Node2&#45;&gt;Node3</title>
<path fill="none" stroke="midnightblue" d="M284.409,-364.62C298.139,-363.068 312.976,-361.39 327.21,-359.78"/>
<polygon fill="midnightblue" stroke="midnightblue" points="327.9,-363.224 337.444,-358.622 327.114,-356.269 327.9,-363.224"/>
</g>
<!-- Node4 -->
<g id="node4" class="node"><title>Node4</title>
<g id="a_node4"><a xlink:href="../../d7/da7/class_character.html#a4dc23a76b34bcbb84abba1b116847268" target="_top" xlink:title="Character.getHP">
<polygon fill="white" stroke="black" points="349.5,-380.5 349.5,-399.5 444.5,-399.5 444.5,-380.5 349.5,-380.5"/>
<text text-anchor="middle" x="397" y="-387.5" font-family="Helvetica,sans-Serif" font-size="10.00">Character.getHP</text>
</a>
</g>
</g>
<!-- Node2&#45;&gt;Node4 -->
<g id="edge3" class="edge"><title>Node2&#45;&gt;Node4</title>
<path fill="none" stroke="midnightblue" d="M284.409,-377.38C302.019,-379.371 321.45,-381.569 339.094,-383.564"/>
<polygon fill="midnightblue" stroke="midnightblue" points="338.919,-387.067 349.249,-384.713 339.706,-380.111 338.919,-387.067"/>
</g>
<!-- Node5 -->
<g id="node5" class="node"><title>Node5</title>
<g id="a_node5"><a xlink:href="../../d6/d21/class_screen.html#a5d9534b81b96cfc0a00009dea6be6c09" target="_top" xlink:title="Screen.showScreen">
<polygon fill="white" stroke="black" points="508.5,-380.5 508.5,-399.5 619.5,-399.5 619.5,-380.5 508.5,-380.5"/>
<text text-anchor="middle" x="564" y="-387.5" font-family="Helvetica,sans-Serif" font-size="10.00">Screen.showScreen</text>
</a>
</g>
</g>
<!-- Node2&#45;&gt;Node5 -->
<g id="edge4" class="edge"><title>Node2&#45;&gt;Node5</title>
<path fill="none" stroke="midnightblue" d="M248.548,-380.589C269.871,-389.971 304.455,-403.612 336,-409 395.981,-419.244 465.861,-410.311 512.075,-401.552"/>
<polygon fill="midnightblue" stroke="midnightblue" points="513.001,-404.937 522.14,-399.576 511.653,-398.068 513.001,-404.937"/>
</g>
<!-- Node6 -->
<g id="node6" class="node"><title>Node6</title>
<g id="a_node6"><a xlink:href="../../d6/d21/class_screen.html#ac7ca0a382b3177bbea4e2a4e7c0f442e" target="_top" xlink:title="Screen.init">
<polygon fill="white" stroke="black" points="699,-380.5 699,-399.5 767,-399.5 767,-380.5 699,-380.5"/>
<text text-anchor="middle" x="733" y="-387.5" font-family="Helvetica,sans-Serif" font-size="10.00">Screen.init</text>
</a>
</g>
</g>
<!-- Node5&#45;&gt;Node6 -->
<g id="edge5" class="edge"><title>Node5&#45;&gt;Node6</title>
<path fill="none" stroke="midnightblue" d="M619.682,-390C641.979,-390 667.401,-390 688.414,-390"/>
<polygon fill="midnightblue" stroke="midnightblue" points="688.65,-393.5 698.65,-390 688.65,-386.5 688.65,-393.5"/>
</g>
<!-- Node7&#45;&gt;Node3 -->
<g id="edge7" class="edge"><title>Node7&#45;&gt;Node3</title>
<path fill="none" stroke="midnightblue" d="M254.549,-304.605C276.362,-312.433 308.099,-323.676 336,-333 342.189,-335.068 348.755,-337.205 355.186,-339.267"/>
<polygon fill="midnightblue" stroke="midnightblue" points="354.517,-342.726 365.107,-342.423 356.639,-336.056 354.517,-342.726"/>
</g>
<!-- Node7&#45;&gt;Node4 -->
<g id="edge8" class="edge"><title>Node7&#45;&gt;Node4</title>
<path fill="none" stroke="midnightblue" d="M239.238,-304.694C258.09,-320.528 297.787,-352.07 336,-371 340.534,-373.246 345.392,-375.302 350.307,-377.162"/>
<polygon fill="midnightblue" stroke="midnightblue" points="349.166,-380.47 359.761,-380.497 351.495,-373.869 349.166,-380.47"/>
</g>
<!-- Node8 -->
<g id="node8" class="node"><title>Node8</title>
<g id="a_node8"><a xlink:href="../../dd/d7a/class_enemy.html#a0b00e167bc151db783054dddb2f9b509" target="_top" xlink:title="Enemy.makeAngry">
<polygon fill="white" stroke="black" points="344,-266.5 344,-285.5 450,-285.5 450,-266.5 344,-266.5"/>
<text text-anchor="middle" x="397" y="-273.5" font-family="Helvetica,sans-Serif" font-size="10.00">Enemy.makeAngry</text>
</a>
</g>
</g>
<!-- Node7&#45;&gt;Node8 -->
<g id="edge9" class="edge"><title>Node7&#45;&gt;Node8</title>
<path fill="none" stroke="midnightblue" d="M282.081,-288.884C298.445,-287.033 316.551,-284.985 333.421,-283.077"/>
<polygon fill="midnightblue" stroke="midnightblue" points="334.196,-286.512 343.74,-281.91 333.41,-279.556 334.196,-286.512"/>
</g>
<!-- Node9 -->
<g id="node9" class="node"><title>Node9</title>
<g id="a_node9"><a xlink:href="../../d6/d21/class_screen.html#a5d40342bbe33c27c9e0e24bd8709d1f6" target="_top" xlink:title="Screen.showAndAnim">
<polygon fill="white" stroke="black" points="336.5,-304.5 336.5,-323.5 457.5,-323.5 457.5,-304.5 336.5,-304.5"/>
<text text-anchor="middle" x="397" y="-311.5" font-family="Helvetica,sans-Serif" font-size="10.00">Screen.showAndAnim</text>
</a>
</g>
</g>
<!-- Node7&#45;&gt;Node9 -->
<g id="edge10" class="edge"><title>Node7&#45;&gt;Node9</title>
<path fill="none" stroke="midnightblue" d="M282.081,-301.116C296.187,-302.712 311.589,-304.453 326.377,-306.126"/>
<polygon fill="midnightblue" stroke="midnightblue" points="326.164,-309.624 336.494,-307.27 326.951,-302.668 326.164,-309.624"/>
</g>
<!-- Node11 -->
<g id="node11" class="node"><title>Node11</title>
<g id="a_node11"><a xlink:href="../../d2/d3e/class_level1.html#a0871325d07c0614d5f1f2df7df13b703" target="_top" xlink:title="Level1.start">
<polygon fill="white" stroke="black" points="360.5,-228.5 360.5,-247.5 433.5,-247.5 433.5,-228.5 360.5,-228.5"/>
<text text-anchor="middle" x="397" y="-235.5" font-family="Helvetica,sans-Serif" font-size="10.00">Level1.start</text>
</a>
</g>
</g>
<!-- Node7&#45;&gt;Node11 -->
<g id="edge13" class="edge"><title>Node7&#45;&gt;Node11</title>
<path fill="none" stroke="midnightblue" d="M254.549,-285.395C276.362,-277.567 308.099,-266.324 336,-257 342.189,-254.932 348.755,-252.795 355.186,-250.733"/>
<polygon fill="midnightblue" stroke="midnightblue" points="356.639,-253.944 365.107,-247.577 354.517,-247.274 356.639,-253.944"/>
</g>
<!-- Node9&#45;&gt;Node5 -->
<g id="edge11" class="edge"><title>Node9&#45;&gt;Node5</title>
<path fill="none" stroke="midnightblue" d="M432.048,-323.542C440.635,-326.285 449.755,-329.494 458,-333 486.637,-345.175 517.77,-362.656 538.639,-375.042"/>
<polygon fill="midnightblue" stroke="midnightblue" points="537.084,-378.191 547.459,-380.338 540.687,-372.19 537.084,-378.191"/>
</g>
<!-- Node10 -->
<g id="node10" class="node"><title>Node10</title>
<g id="a_node10"><a xlink:href="../../d6/d21/class_screen.html#a601576a0d49770789b2eb08328f09c53" target="_top" xlink:title="Screen.startAnim">
<polygon fill="white" stroke="black" points="513.5,-304.5 513.5,-323.5 614.5,-323.5 614.5,-304.5 513.5,-304.5"/>
<text text-anchor="middle" x="564" y="-311.5" font-family="Helvetica,sans-Serif" font-size="10.00">Screen.startAnim</text>
</a>
</g>
</g>
<!-- Node9&#45;&gt;Node10 -->
<g id="edge12" class="edge"><title>Node9&#45;&gt;Node10</title>
<path fill="none" stroke="midnightblue" d="M457.569,-314C472.419,-314 488.346,-314 503.207,-314"/>
<polygon fill="midnightblue" stroke="midnightblue" points="503.299,-317.5 513.299,-314 503.299,-310.5 503.299,-317.5"/>
</g>
<!-- Node12 -->
<g id="node12" class="node"><title>Node12</title>
<g id="a_node12"><a xlink:href="../../d2/d3e/class_level1.html#a324da1e22a7a87fa4bb1859b5774bdba" target="_top" xlink:title="Level1.updateFrame">
<polygon fill="white" stroke="black" points="507,-209.5 507,-228.5 621,-228.5 621,-209.5 507,-209.5"/>
<text text-anchor="middle" x="564" y="-216.5" font-family="Helvetica,sans-Serif" font-size="10.00">Level1.updateFrame</text>
</a>
</g>
</g>
<!-- Node11&#45;&gt;Node12 -->
<g id="edge14" class="edge"><title>Node11&#45;&gt;Node12</title>
<path fill="none" stroke="midnightblue" d="M433.803,-233.877C452.213,-231.757 475.249,-229.105 496.751,-226.629"/>
<polygon fill="midnightblue" stroke="midnightblue" points="497.293,-230.089 506.827,-225.468 496.493,-223.135 497.293,-230.089"/>
</g>
<!-- Node12&#45;&gt;Node1 -->
<g id="edge15" class="edge"><title>Node12&#45;&gt;Node1</title>
<path fill="none" stroke="midnightblue" d="M506.917,-218.921C427.319,-217.657 277.52,-211.019 154,-181 131.092,-175.433 106.425,-165.29 88.1102,-156.883"/>
<polygon fill="midnightblue" stroke="midnightblue" points="89.437,-153.639 78.8978,-152.555 86.4605,-159.975 89.437,-153.639"/>
</g>
<!-- Node13 -->
<g id="node13" class="node"><title>Node13</title>
<g id="a_node13"><a xlink:href="../../d2/d3e/class_level1.html#a5f552e875916d0cf7a74896401584b2a" target="_top" xlink:title="Level1.updateTimer">
<polygon fill="white" stroke="black" points="677.5,-209.5 677.5,-228.5 788.5,-228.5 788.5,-209.5 677.5,-209.5"/>
<text text-anchor="middle" x="733" y="-216.5" font-family="Helvetica,sans-Serif" font-size="10.00">Level1.updateTimer</text>
</a>
</g>
</g>
<!-- Node12&#45;&gt;Node13 -->
<g id="edge16" class="edge"><title>Node12&#45;&gt;Node13</title>
<path fill="none" stroke="midnightblue" d="M621.073,-219C635.855,-219 651.927,-219 667.131,-219"/>
<polygon fill="midnightblue" stroke="midnightblue" points="667.491,-222.5 677.491,-219 667.491,-215.5 667.491,-222.5"/>
</g>
<!-- Node15 -->
<g id="node15" class="node"><title>Node15</title>
<g id="a_node15"><a xlink:href="../../d7/dbf/class_sprite.html#accdf1c21264c6ff648ece508cf176bfb" target="_top" xlink:title="Sprite.setVelocity">
<polygon fill="white" stroke="black" points="347,-133.5 347,-152.5 447,-152.5 447,-133.5 347,-133.5"/>
<text text-anchor="middle" x="397" y="-140.5" font-family="Helvetica,sans-Serif" font-size="10.00">Sprite.setVelocity</text>
</a>
</g>
</g>
<!-- Node14&#45;&gt;Node15 -->
<g id="edge18" class="edge"><title>Node14&#45;&gt;Node15</title>
<path fill="none" stroke="midnightblue" d="M278.406,-156.299C296.757,-154.224 317.67,-151.859 336.721,-149.704"/>
<polygon fill="midnightblue" stroke="midnightblue" points="337.243,-153.168 346.786,-148.566 336.456,-146.212 337.243,-153.168"/>
</g>
<!-- Node16&#45;&gt;Node15 -->
<g id="edge20" class="edge"><title>Node16&#45;&gt;Node15</title>
<path fill="none" stroke="midnightblue" d="M279.318,-129.804C297.393,-131.848 317.86,-134.163 336.549,-136.276"/>
<polygon fill="midnightblue" stroke="midnightblue" points="336.393,-139.781 346.723,-137.427 337.179,-132.825 336.393,-139.781"/>
</g>
<!-- Node17 -->
<g id="node17" class="node"><title>Node17</title>
<g id="a_node17"><a xlink:href="../../d7/dbf/class_sprite.html#ab8f846b7ba77ae72ad09f48da22ceea7" target="_top" xlink:title="Sprite.moveSprite">
<polygon fill="white" stroke="black" points="345,-95.5 345,-114.5 449,-114.5 449,-95.5 345,-95.5"/>
<text text-anchor="middle" x="397" y="-102.5" font-family="Helvetica,sans-Serif" font-size="10.00">Sprite.moveSprite</text>
</a>
</g>
</g>
<!-- Node16&#45;&gt;Node17 -->
<g id="edge21" class="edge"><title>Node16&#45;&gt;Node17</title>
<path fill="none" stroke="midnightblue" d="M279.318,-118.196C296.905,-116.207 316.755,-113.962 335.03,-111.895"/>
<polygon fill="midnightblue" stroke="midnightblue" points="335.453,-115.37 344.996,-110.768 334.666,-108.414 335.453,-115.37"/>
</g>
<!-- Node18&#45;&gt;Node15 -->
<g id="edge25" class="edge"><title>Node18&#45;&gt;Node15</title>
<path fill="none" stroke="midnightblue" d="M270.774,-95.5728C280.517,-98.2236 290.726,-101.383 300,-105 316.855,-111.573 319.309,-117.019 336,-124 341.36,-126.242 347.082,-128.372 352.784,-130.34"/>
<polygon fill="midnightblue" stroke="midnightblue" points="351.701,-133.669 362.294,-133.491 353.902,-127.024 351.701,-133.669"/>
</g>
<!-- Node18&#45;&gt;Node17 -->
<g id="edge24" class="edge"><title>Node18&#45;&gt;Node17</title>
<path fill="none" stroke="midnightblue" d="M280.695,-91.9596C297.829,-93.8974 316.991,-96.0644 334.698,-98.067"/>
<polygon fill="midnightblue" stroke="midnightblue" points="334.599,-101.578 344.929,-99.2241 335.386,-94.6224 334.599,-101.578"/>
</g>
<!-- Node19 -->
<g id="node19" class="node"><title>Node19</title>
<g id="a_node19"><a xlink:href="../../d7/dbf/class_sprite.html#a4dd4a643703de09c632a0e7d70a570e7" target="_top" xlink:title="Sprite.getVelocity">
<polygon fill="white" stroke="black" points="346.5,-57.5 346.5,-76.5 447.5,-76.5 447.5,-57.5 346.5,-57.5"/>
<text text-anchor="middle" x="397" y="-64.5" font-family="Helvetica,sans-Serif" font-size="10.00">Sprite.getVelocity</text>
</a>
</g>
</g>
<!-- Node18&#45;&gt;Node19 -->
<g id="edge23" class="edge"><title>Node18&#45;&gt;Node19</title>
<path fill="none" stroke="midnightblue" d="M280.695,-80.0404C298.313,-78.0479 318.075,-75.8129 336.195,-73.7636"/>
<polygon fill="midnightblue" stroke="midnightblue" points="336.813,-77.2162 346.356,-72.6145 336.026,-70.2605 336.813,-77.2162"/>
</g>
<!-- Node22 -->
<g id="node22" class="node"><title>Node22</title>
<g id="a_node22"><a xlink:href="../../d7/da7/class_character.html#aa2149c166e797ae0ded67d9f768ac7f3" target="_top" xlink:title="Character.updateAll">
<polygon fill="white" stroke="black" points="341.5,-0.5 341.5,-19.5 452.5,-19.5 452.5,-0.5 341.5,-0.5"/>
<text text-anchor="middle" x="397" y="-7.5" font-family="Helvetica,sans-Serif" font-size="10.00">Character.updateAll</text>
</a>
</g>
</g>
<!-- Node21&#45;&gt;Node22 -->
<g id="edge28" class="edge"><title>Node21&#45;&gt;Node22</title>
<path fill="none" stroke="midnightblue" d="M289.127,-10C302.734,-10 317.207,-10 330.965,-10"/>
<polygon fill="midnightblue" stroke="midnightblue" points="331.319,-13.5001 341.319,-10 331.319,-6.5001 331.319,-13.5001"/>
</g>
<!-- Node23 -->
<g id="node23" class="node"><title>Node23</title>
<g id="a_node23"><a xlink:href="../../d7/da7/class_character.html#ade25acccb27ac9aeb2752b2df29d075f" target="_top" xlink:title="Character.collisionUpdate">
<polygon fill="white" stroke="black" points="494.5,-0.5 494.5,-19.5 633.5,-19.5 633.5,-0.5 494.5,-0.5"/>
<text text-anchor="middle" x="564" y="-7.5" font-family="Helvetica,sans-Serif" font-size="10.00">Character.collisionUpdate</text>
</a>
</g>
</g>
<!-- Node22&#45;&gt;Node23 -->
<g id="edge29" class="edge"><title>Node22&#45;&gt;Node23</title>
<path fill="none" stroke="midnightblue" d="M452.943,-10C463.031,-10 473.74,-10 484.363,-10"/>
<polygon fill="midnightblue" stroke="midnightblue" points="484.5,-13.5001 494.5,-10 484.5,-6.5001 484.5,-13.5001"/>
</g>
<!-- Node24 -->
<g id="node24" class="node"><title>Node24</title>
<g id="a_node24"><a xlink:href="../../d7/da7/class_character.html#ad223fcb54929116326bf8816d43f5173" target="_top" xlink:title="Character.checkCollide">
<polygon fill="white" stroke="black" points="670.5,-0.5 670.5,-19.5 795.5,-19.5 795.5,-0.5 670.5,-0.5"/>
<text text-anchor="middle" x="733" y="-7.5" font-family="Helvetica,sans-Serif" font-size="10.00">Character.checkCollide</text>
</a>
</g>
</g>
<!-- Node23&#45;&gt;Node24 -->
<g id="edge30" class="edge"><title>Node23&#45;&gt;Node24</title>
<path fill="none" stroke="midnightblue" d="M633.889,-10C642.607,-10 651.545,-10 660.305,-10"/>
<polygon fill="midnightblue" stroke="midnightblue" points="660.484,-13.5001 670.484,-10 660.484,-6.5001 660.484,-13.5001"/>
</g>
</g>
</svg>
