<?xml version="1.0" encoding="UTF-8" standalone="no"?>
<!DOCTYPE svg PUBLIC "-//W3C//DTD SVG 1.1//EN"
 "http://www.w3.org/Graphics/SVG/1.1/DTD/svg11.dtd">
<!-- Generated by graphviz version 2.36.0 (20140111.2315)
 -->
<!-- Title: Level1.returnCollisions Pages: 1 -->
<svg width="1208pt" height="104pt"
 viewBox="0.00 0.00 1208.00 104.00" xmlns="http://www.w3.org/2000/svg" xmlns:xlink="http://www.w3.org/1999/xlink">
<g id="graph0" class="graph" transform="scale(1 1) rotate(0) translate(4 100)">
<title>Level1.returnCollisions</title>
<polygon fill="white" stroke="none" points="-4,4 -4,-100 1204,-100 1204,4 -4,4"/>
<!-- Node1 -->
<g id="node1" class="node"><title>Node1</title>
<polygon fill="#bfbfbf" stroke="black" points="0,-19.5 0,-38.5 124,-38.5 124,-19.5 0,-19.5"/>
<text text-anchor="middle" x="62" y="-26.5" font-family="Helvetica,sans-Serif" font-size="10.00">Level1.returnCollisions</text>
</g>
<!-- Node2 -->
<g id="node2" class="node"><title>Node2</title>
<g id="a_node2"><a xlink:href="../../d2/d3e/class_level1.html#a78a7fb5633734b1815af8db43db23a41" target="_top" xlink:title="Level1.updateSprites">
<polygon fill="white" stroke="black" points="160,-19.5 160,-38.5 278,-38.5 278,-19.5 160,-19.5"/>
<text text-anchor="middle" x="219" y="-26.5" font-family="Helvetica,sans-Serif" font-size="10.00">Level1.updateSprites</text>
</a>
</g>
</g>
<!-- Node1&#45;&gt;Node2 -->
<g id="edge1" class="edge"><title>Node1&#45;&gt;Node2</title>
<path fill="none" stroke="midnightblue" d="M134.283,-29C142.883,-29 151.585,-29 159.963,-29"/>
<polygon fill="midnightblue" stroke="midnightblue" points="134.26,-25.5001 124.26,-29 134.26,-32.5001 134.26,-25.5001"/>
</g>
<!-- Node3 -->
<g id="node3" class="node"><title>Node3</title>
<g id="a_node3"><a xlink:href="../../d2/d3e/class_level1.html#a324da1e22a7a87fa4bb1859b5774bdba" target="_top" xlink:title="Level1.updateFrame">
<polygon fill="white" stroke="black" points="314,-38.5 314,-57.5 428,-57.5 428,-38.5 314,-38.5"/>
<text text-anchor="middle" x="371" y="-45.5" font-family="Helvetica,sans-Serif" font-size="10.00">Level1.updateFrame</text>
</a>
</g>
</g>
<!-- Node2&#45;&gt;Node3 -->
<g id="edge2" class="edge"><title>Node2&#45;&gt;Node3</title>
<path fill="none" stroke="midnightblue" d="M288.386,-37.6623C296.941,-38.7459 305.612,-39.8442 313.949,-40.9002"/>
<polygon fill="midnightblue" stroke="midnightblue" points="288.784,-34.1848 278.423,-36.4003 287.904,-41.1293 288.784,-34.1848"/>
</g>
<!-- Node4 -->
<g id="node4" class="node"><title>Node4</title>
<g id="a_node4"><a xlink:href="../../d2/d3e/class_level1.html#a0871325d07c0614d5f1f2df7df13b703" target="_top" xlink:title="Level1.start">
<polygon fill="white" stroke="black" points="464.5,-38.5 464.5,-57.5 537.5,-57.5 537.5,-38.5 464.5,-38.5"/>
<text text-anchor="middle" x="501" y="-45.5" font-family="Helvetica,sans-Serif" font-size="10.00">Level1.start</text>
</a>
</g>
</g>
<!-- Node3&#45;&gt;Node4 -->
<g id="edge3" class="edge"><title>Node3&#45;&gt;Node4</title>
<path fill="none" stroke="midnightblue" d="M438.221,-48C447.159,-48 456.039,-48 464.163,-48"/>
<polygon fill="midnightblue" stroke="midnightblue" points="438.143,-44.5001 428.143,-48 438.143,-51.5001 438.143,-44.5001"/>
</g>
<!-- Node5 -->
<g id="node5" class="node"><title>Node5</title>
<g id="a_node5"><a xlink:href="../../d2/d3e/class_level1.html#ac56e75129bb2946c38cfcf43608f3f05" target="_top" xlink:title="Level1.goNextLevel">
<polygon fill="white" stroke="black" points="574,-0.5 574,-19.5 684,-19.5 684,-0.5 574,-0.5"/>
<text text-anchor="middle" x="629" y="-7.5" font-family="Helvetica,sans-Serif" font-size="10.00">Level1.goNextLevel</text>
</a>
</g>
</g>
<!-- Node4&#45;&gt;Node5 -->
<g id="edge4" class="edge"><title>Node4&#45;&gt;Node5</title>
<path fill="none" stroke="midnightblue" d="M543.564,-35.4647C560.705,-30.2952 580.25,-24.4009 596.215,-19.5859"/>
<polygon fill="midnightblue" stroke="midnightblue" points="542.359,-32.1726 533.795,-38.411 544.38,-38.8744 542.359,-32.1726"/>
</g>
<!-- Node6 -->
<g id="node6" class="node"><title>Node6</title>
<g id="a_node6"><a xlink:href="../../d2/db8/class_menu.html#ab6296880308728ced459f772430d025b" target="_top" xlink:title="Menu.createGame">
<polygon fill="white" stroke="black" points="576,-38.5 576,-57.5 682,-57.5 682,-38.5 576,-38.5"/>
<text text-anchor="middle" x="629" y="-45.5" font-family="Helvetica,sans-Serif" font-size="10.00">Menu.createGame</text>
</a>
</g>
</g>
<!-- Node4&#45;&gt;Node6 -->
<g id="edge6" class="edge"><title>Node4&#45;&gt;Node6</title>
<path fill="none" stroke="midnightblue" d="M548.04,-48C557.024,-48 566.506,-48 575.676,-48"/>
<polygon fill="midnightblue" stroke="midnightblue" points="547.77,-44.5001 537.77,-48 547.769,-51.5001 547.77,-44.5001"/>
</g>
<!-- Node5&#45;&gt;Node2 -->
<g id="edge5" class="edge"><title>Node5&#45;&gt;Node2</title>
<path fill="none" stroke="midnightblue" d="M563.511,-13.0032C484.981,-16.6602 353.505,-22.7828 278.023,-26.2979"/>
<polygon fill="midnightblue" stroke="midnightblue" points="563.932,-16.4874 573.759,-12.5259 563.607,-9.49501 563.932,-16.4874"/>
</g>
<!-- Node7 -->
<g id="node7" class="node"><title>Node7</title>
<g id="a_node7"><a xlink:href="../../d2/db8/class_menu.html#a53c8b072d5ec777994fed9ee76c98561" target="_top" xlink:title="Menu.handle">
<polygon fill="white" stroke="black" points="720,-38.5 720,-57.5 798,-57.5 798,-38.5 720,-38.5"/>
<text text-anchor="middle" x="759" y="-45.5" font-family="Helvetica,sans-Serif" font-size="10.00">Menu.handle</text>
</a>
</g>
</g>
<!-- Node6&#45;&gt;Node7 -->
<g id="edge7" class="edge"><title>Node6&#45;&gt;Node7</title>
<path fill="none" stroke="midnightblue" d="M692.198,-48C701.592,-48 711.038,-48 719.726,-48"/>
<polygon fill="midnightblue" stroke="midnightblue" points="692.063,-44.5001 682.062,-48 692.062,-51.5001 692.063,-44.5001"/>
</g>
<!-- Node8 -->
<g id="node8" class="node"><title>Node8</title>
<g id="a_node8"><a xlink:href="../../d2/db8/class_menu.html#aff7a7627619921545f94547ab6135007" target="_top" xlink:title="Menu.addButton">
<polygon fill="white" stroke="black" points="834,-38.5 834,-57.5 930,-57.5 930,-38.5 834,-38.5"/>
<text text-anchor="middle" x="882" y="-45.5" font-family="Helvetica,sans-Serif" font-size="10.00">Menu.addButton</text>
</a>
</g>
</g>
<!-- Node7&#45;&gt;Node8 -->
<g id="edge8" class="edge"><title>Node7&#45;&gt;Node8</title>
<path fill="none" stroke="midnightblue" d="M808.539,-48C816.803,-48 825.377,-48 833.612,-48"/>
<polygon fill="midnightblue" stroke="midnightblue" points="808.285,-44.5001 798.285,-48 808.285,-51.5001 808.285,-44.5001"/>
</g>
<!-- Node9 -->
<g id="node9" class="node"><title>Node9</title>
<g id="a_node9"><a xlink:href="../../d5/db1/class_game_over.html#abb505ac8c26999beff755f4c299370da" target="_top" xlink:title="GameOver.addAllButtons">
<polygon fill="white" stroke="black" points="966.5,-76.5 966.5,-95.5 1103.5,-95.5 1103.5,-76.5 966.5,-76.5"/>
<text text-anchor="middle" x="1035" y="-83.5" font-family="Helvetica,sans-Serif" font-size="10.00">GameOver.addAllButtons</text>
</a>
</g>
</g>
<!-- Node8&#45;&gt;Node9 -->
<g id="edge9" class="edge"><title>Node8&#45;&gt;Node9</title>
<path fill="none" stroke="midnightblue" d="M930.843,-60.04C951.939,-65.3488 976.377,-71.4988 996.17,-76.4799"/>
<polygon fill="midnightblue" stroke="midnightblue" points="931.656,-56.6354 921.104,-57.589 929.947,-63.4237 931.656,-56.6354"/>
</g>
<!-- Node10 -->
<g id="node10" class="node"><title>Node10</title>
<g id="a_node10"><a xlink:href="../../dd/d7f/class_game_win.html#a0ebbfe299d7456f57ae3dbf3817b7f8d" target="_top" xlink:title="GameWin.addAllButtons">
<polygon fill="white" stroke="black" points="969,-38.5 969,-57.5 1101,-57.5 1101,-38.5 969,-38.5"/>
<text text-anchor="middle" x="1035" y="-45.5" font-family="Helvetica,sans-Serif" font-size="10.00">GameWin.addAllButtons</text>
</a>
</g>
</g>
<!-- Node8&#45;&gt;Node10 -->
<g id="edge10" class="edge"><title>Node8&#45;&gt;Node10</title>
<path fill="none" stroke="midnightblue" d="M940.592,-48C949.822,-48 959.431,-48 968.823,-48"/>
<polygon fill="midnightblue" stroke="midnightblue" points="940.363,-44.5001 930.363,-48 940.363,-51.5001 940.363,-44.5001"/>
</g>
<!-- Node11 -->
<g id="node11" class="node"><title>Node11</title>
<g id="a_node11"><a xlink:href="../../d2/db8/class_menu.html#a461e62e606af2391013ce3aaf92a8cc7" target="_top" xlink:title="Menu.addAllButtons">
<polygon fill="white" stroke="black" points="978.5,-0.5 978.5,-19.5 1091.5,-19.5 1091.5,-0.5 978.5,-0.5"/>
<text text-anchor="middle" x="1035" y="-7.5" font-family="Helvetica,sans-Serif" font-size="10.00">Menu.addAllButtons</text>
</a>
</g>
</g>
<!-- Node8&#45;&gt;Node11 -->
<g id="edge11" class="edge"><title>Node8&#45;&gt;Node11</title>
<path fill="none" stroke="midnightblue" d="M930.843,-35.96C951.939,-30.6512 976.377,-24.5012 996.17,-19.5201"/>
<polygon fill="midnightblue" stroke="midnightblue" points="929.947,-32.5763 921.104,-38.411 931.656,-39.3646 929.947,-32.5763"/>
</g>
<!-- Node12 -->
<g id="node12" class="node"><title>Node12</title>
<g id="a_node12"><a xlink:href="../../d2/db8/class_menu.html#a3c99ad09e9f2f975c1a0d0597642651a" target="_top" xlink:title="Menu.init">
<polygon fill="white" stroke="black" points="1140,-0.5 1140,-19.5 1200,-19.5 1200,-0.5 1140,-0.5"/>
<text text-anchor="middle" x="1170" y="-7.5" font-family="Helvetica,sans-Serif" font-size="10.00">Menu.init</text>
</a>
</g>
</g>
<!-- Node11&#45;&gt;Node12 -->
<g id="edge12" class="edge"><title>Node11&#45;&gt;Node12</title>
<path fill="none" stroke="midnightblue" d="M1101.78,-10C1115.09,-10 1128.45,-10 1139.71,-10"/>
<polygon fill="midnightblue" stroke="midnightblue" points="1101.63,-6.5001 1091.63,-10 1101.63,-13.5001 1101.63,-6.5001"/>
</g>
</g>
</svg>
