<?xml version="1.0" encoding="UTF-8" standalone="no"?>
<!DOCTYPE svg PUBLIC "-//W3C//DTD SVG 1.1//EN"
 "http://www.w3.org/Graphics/SVG/1.1/DTD/svg11.dtd">
<!-- Generated by graphviz version 2.36.0 (20140111.2315)
 -->
<!-- Title: Character Pages: 1 -->
<svg width="196pt" height="164pt"
 viewBox="0.00 0.00 196.00 164.00" xmlns="http://www.w3.org/2000/svg" xmlns:xlink="http://www.w3.org/1999/xlink">
<g id="graph0" class="graph" transform="scale(1 1) rotate(0) translate(4 160)">
<title>Character</title>
<polygon fill="white" stroke="none" points="-4,4 -4,-160 192,-160 192,4 -4,4"/>
<!-- Node1 -->
<g id="node1" class="node"><title>Node1</title>
<polygon fill="#bfbfbf" stroke="black" points="99,-0.5 99,-19.5 163,-19.5 163,-0.5 99,-0.5"/>
<text text-anchor="middle" x="131" y="-7.5" font-family="Helvetica,sans-Serif" font-size="10.00">Character</text>
</g>
<!-- Node2 -->
<g id="node2" class="node"><title>Node2</title>
<g id="a_node2"><a xlink:href="../../d7/dbf/class_sprite.html" target="_top" xlink:title="Sprite">
<polygon fill="white" stroke="black" points="50.5,-68.5 50.5,-87.5 95.5,-87.5 95.5,-68.5 50.5,-68.5"/>
<text text-anchor="middle" x="73" y="-75.5" font-family="Helvetica,sans-Serif" font-size="10.00">Sprite</text>
</a>
</g>
</g>
<!-- Node2&#45;&gt;Node1 -->
<g id="edge1" class="edge"><title>Node2&#45;&gt;Node1</title>
<path fill="none" stroke="midnightblue" d="M87.3418,-60.68C98.681,-47.7768 114.077,-30.2575 123.231,-19.8411"/>
<polygon fill="midnightblue" stroke="midnightblue" points="84.5546,-58.5496 80.5825,-68.3717 89.8128,-63.1704 84.5546,-58.5496"/>
</g>
<!-- Node3 -->
<g id="node3" class="node"><title>Node3</title>
<polygon fill="white" stroke="#bfbfbf" points="0,-136.5 0,-155.5 68,-155.5 68,-136.5 0,-136.5"/>
<text text-anchor="middle" x="34" y="-143.5" font-family="Helvetica,sans-Serif" font-size="10.00">ImageView</text>
</g>
<!-- Node3&#45;&gt;Node2 -->
<g id="edge2" class="edge"><title>Node3&#45;&gt;Node2</title>
<path fill="none" stroke="midnightblue" d="M44.3037,-127.563C51.8564,-114.781 61.7964,-97.9599 67.7757,-87.8411"/>
<polygon fill="midnightblue" stroke="midnightblue" points="41.1727,-125.982 39.0986,-136.372 47.1992,-129.543 41.1727,-125.982"/>
</g>
<!-- Node4 -->
<g id="node4" class="node"><title>Node4</title>
<polygon fill="white" stroke="#bfbfbf" points="86,-136.5 86,-155.5 140,-155.5 140,-136.5 86,-136.5"/>
<text text-anchor="middle" x="113" y="-143.5" font-family="Helvetica,sans-Serif" font-size="10.00">Point2D</text>
</g>
<!-- Node4&#45;&gt;Node2 -->
<g id="edge3" class="edge"><title>Node4&#45;&gt;Node2</title>
<path fill="none" stroke="#9a32cd" stroke-dasharray="5,2" d="M102.432,-127.563C94.6857,-114.781 84.4909,-97.9599 78.3583,-87.8411"/>
<polygon fill="#9a32cd" stroke="#9a32cd" points="99.5944,-129.634 107.771,-136.372 105.581,-126.006 99.5944,-129.634"/>
<text text-anchor="middle" x="124.5" y="-109.5" font-family="Helvetica,sans-Serif" font-size="10.00"> myVelocity</text>
</g>
<!-- Node5 -->
<g id="node5" class="node"><title>Node5</title>
<polygon fill="white" stroke="#bfbfbf" points="113.5,-68.5 113.5,-87.5 188.5,-87.5 188.5,-68.5 113.5,-68.5"/>
<text text-anchor="middle" x="151" y="-75.5" font-family="Helvetica,sans-Serif" font-size="10.00">ProgressBar</text>
</g>
<!-- Node5&#45;&gt;Node1 -->
<g id="edge4" class="edge"><title>Node5&#45;&gt;Node1</title>
<path fill="none" stroke="#9a32cd" stroke-dasharray="5,2" d="M145.371,-58.425C141.545,-45.7978 136.655,-29.6623 133.679,-19.8411"/>
<polygon fill="#9a32cd" stroke="#9a32cd" points="142.136,-59.8165 148.385,-68.3717 148.835,-57.7864 142.136,-59.8165"/>
<text text-anchor="middle" x="159" y="-41.5" font-family="Helvetica,sans-Serif" font-size="10.00"> HPBar</text>
</g>
</g>
</svg>
