<?xml version="1.0" encoding="UTF-8" standalone="no"?>
<!DOCTYPE svg PUBLIC "-//W3C//DTD SVG 1.1//EN"
 "http://www.w3.org/Graphics/SVG/1.1/DTD/svg11.dtd">
<!-- Generated by graphviz version 2.36.0 (20140111.2315)
 -->
<!-- Title: Sprite Pages: 1 -->
<svg width="214pt" height="196pt"
 viewBox="0.00 0.00 214.00 196.00" xmlns="http://www.w3.org/2000/svg" xmlns:xlink="http://www.w3.org/1999/xlink">
<g id="graph0" class="graph" transform="scale(1 1) rotate(0) translate(4 192)">
<title>Sprite</title>
<polygon fill="white" stroke="none" points="-4,4 -4,-192 210,-192 210,4 -4,4"/>
<!-- Node1 -->
<g id="node1" class="node"><title>Node1</title>
<polygon fill="#bfbfbf" stroke="black" points="106.5,-112.5 106.5,-131.5 151.5,-131.5 151.5,-112.5 106.5,-112.5"/>
<text text-anchor="middle" x="129" y="-119.5" font-family="Helvetica,sans-Serif" font-size="10.00">Sprite</text>
</g>
<!-- Node3 -->
<g id="node3" class="node"><title>Node3</title>
<g id="a_node3"><a xlink:href="../../d7/da7/class_character.html" target="_top" xlink:title="Character">
<polygon fill="white" stroke="black" points="26,-56.5 26,-75.5 90,-75.5 90,-56.5 26,-56.5"/>
<text text-anchor="middle" x="58" y="-63.5" font-family="Helvetica,sans-Serif" font-size="10.00">Character</text>
</a>
</g>
</g>
<!-- Node1&#45;&gt;Node3 -->
<g id="edge2" class="edge"><title>Node1&#45;&gt;Node3</title>
<path fill="none" stroke="midnightblue" d="M109.41,-106.101C96.6324,-96.3824 80.3873,-84.0269 69.6149,-75.8339"/>
<polygon fill="midnightblue" stroke="midnightblue" points="107.514,-109.056 117.593,-112.324 111.752,-103.484 107.514,-109.056"/>
</g>
<!-- Node6 -->
<g id="node6" class="node"><title>Node6</title>
<g id="a_node6"><a xlink:href="../../d3/d20/class_poop.html" target="_top" xlink:title="Poop">
<polygon fill="white" stroke="black" points="108.5,-56.5 108.5,-75.5 149.5,-75.5 149.5,-56.5 108.5,-56.5"/>
<text text-anchor="middle" x="129" y="-63.5" font-family="Helvetica,sans-Serif" font-size="10.00">Poop</text>
</a>
</g>
</g>
<!-- Node1&#45;&gt;Node6 -->
<g id="edge5" class="edge"><title>Node1&#45;&gt;Node6</title>
<path fill="none" stroke="midnightblue" d="M129,-101.805C129,-92.9102 129,-82.7798 129,-75.7511"/>
<polygon fill="midnightblue" stroke="midnightblue" points="125.5,-102.083 129,-112.083 132.5,-102.083 125.5,-102.083"/>
</g>
<!-- Node7 -->
<g id="node7" class="node"><title>Node7</title>
<g id="a_node7"><a xlink:href="../../de/d74/class_shot.html" target="_top" xlink:title="Shot">
<polygon fill="white" stroke="black" points="167.5,-56.5 167.5,-75.5 206.5,-75.5 206.5,-56.5 167.5,-56.5"/>
<text text-anchor="middle" x="187" y="-63.5" font-family="Helvetica,sans-Serif" font-size="10.00">Shot</text>
</a>
</g>
</g>
<!-- Node1&#45;&gt;Node7 -->
<g id="edge6" class="edge"><title>Node1&#45;&gt;Node7</title>
<path fill="none" stroke="midnightblue" d="M145.913,-105.253C156.203,-95.6731 168.966,-83.7906 177.512,-75.8339"/>
<polygon fill="midnightblue" stroke="midnightblue" points="143.253,-102.948 138.319,-112.324 148.023,-108.071 143.253,-102.948"/>
</g>
<!-- Node2 -->
<g id="node2" class="node"><title>Node2</title>
<polygon fill="white" stroke="#bfbfbf" points="95,-168.5 95,-187.5 163,-187.5 163,-168.5 95,-168.5"/>
<text text-anchor="middle" x="129" y="-175.5" font-family="Helvetica,sans-Serif" font-size="10.00">ImageView</text>
</g>
<!-- Node2&#45;&gt;Node1 -->
<g id="edge1" class="edge"><title>Node2&#45;&gt;Node1</title>
<path fill="none" stroke="midnightblue" d="M129,-157.805C129,-148.91 129,-138.78 129,-131.751"/>
<polygon fill="midnightblue" stroke="midnightblue" points="125.5,-158.083 129,-168.083 132.5,-158.083 125.5,-158.083"/>
</g>
<!-- Node4 -->
<g id="node4" class="node"><title>Node4</title>
<g id="a_node4"><a xlink:href="../../dd/d7a/class_enemy.html" target="_top" xlink:title="Enemy">
<polygon fill="white" stroke="black" points="0,-0.5 0,-19.5 50,-19.5 50,-0.5 0,-0.5"/>
<text text-anchor="middle" x="25" y="-7.5" font-family="Helvetica,sans-Serif" font-size="10.00">Enemy</text>
</a>
</g>
</g>
<!-- Node3&#45;&gt;Node4 -->
<g id="edge3" class="edge"><title>Node3&#45;&gt;Node4</title>
<path fill="none" stroke="midnightblue" d="M47.1679,-47.2747C41.5278,-38.0454 34.8819,-27.1703 30.3479,-19.7511"/>
<polygon fill="midnightblue" stroke="midnightblue" points="44.3497,-49.3753 52.5507,-56.083 50.3227,-45.7251 44.3497,-49.3753"/>
</g>
<!-- Node5 -->
<g id="node5" class="node"><title>Node5</title>
<g id="a_node5"><a xlink:href="../../d8/d53/class_player.html" target="_top" xlink:title="Player">
<polygon fill="white" stroke="black" points="68,-0.5 68,-19.5 114,-19.5 114,-0.5 68,-0.5"/>
<text text-anchor="middle" x="91" y="-7.5" font-family="Helvetica,sans-Serif" font-size="10.00">Player</text>
</a>
</g>
</g>
<!-- Node3&#45;&gt;Node5 -->
<g id="edge4" class="edge"><title>Node3&#45;&gt;Node5</title>
<path fill="none" stroke="midnightblue" d="M68.8321,-47.2747C74.4722,-38.0454 81.1181,-27.1703 85.6521,-19.7511"/>
<polygon fill="midnightblue" stroke="midnightblue" points="65.6773,-45.7251 63.4493,-56.083 71.6503,-49.3753 65.6773,-45.7251"/>
</g>
</g>
</svg>
