<?xml version="1.0" encoding="UTF-8" standalone="no"?>
<!DOCTYPE svg PUBLIC "-//W3C//DTD SVG 1.1//EN"
 "http://www.w3.org/Graphics/SVG/1.1/DTD/svg11.dtd">
<!-- Generated by graphviz version 2.36.0 (20140111.2315)
 -->
<!-- Title: GameOver.addAllButtons Pages: 1 -->
<!--zoomable 408 -->
<svg id="main" version="1.1" xmlns="http://www.w3.org/2000/svg" xmlns:xlink="http://www.w3.org/1999/xlink" xml:space="preserve" onload="init(evt)">
<style type="text/css"><![CDATA[
.edge:hover path { stroke: red; }
.edge:hover polygon { stroke: red; fill: red; }
]]></style>
<script type="text/javascript"><![CDATA[
var edges = document.getElementsByTagName('g');
if (edges && edges.length) {
  for (var i=0;i<edges.length;i++) {
    if (edges[i].id.substr(0,4)=='edge') {
      edges[i].setAttribute('class','edge');
    }
  }
}
]]></script>
        <defs>
                <circle id="rim" cx="0" cy="0" r="7"/>
                <circle id="rim2" cx="0" cy="0" r="3.5"/>
                <g id="zoomPlus">
                        <use xlink:href="#rim" fill="#404040">
                                <set attributeName="fill" to="#808080" begin="zoomplus.mouseover" end="zoomplus.mouseout"/>
                        </use>
                        <path d="M-4,0h8M0,-4v8" fill="none" stroke="white" stroke-width="1.5" pointer-events="none"/>
                </g>
                <g id="zoomMin">
                        <use xlink:href="#rim" fill="#404040">
                                <set attributeName="fill" to="#808080" begin="zoomminus.mouseover" end="zoomminus.mouseout"/>
                        </use>
                        <path d="M-4,0h8" fill="none" stroke="white" stroke-width="1.5" pointer-events="none"/>
                </g>
                <g id="dirArrow">
                        <path fill="none" stroke="white" stroke-width="1.5" d="M0,-3.0v7 M-2.5,-0.5L0,-3.0L2.5,-0.5"/>
                </g>
               <g id="resetDef">
                       <use xlink:href="#rim2" fill="#404040">
                               <set attributeName="fill" to="#808080" begin="reset.mouseover" end="reset.mouseout"/>
                       </use>
               </g>
        </defs>

<script type="text/javascript">
var viewWidth = 1626;
var viewHeight = 408;
var sectionId = 'dynsection-2';
</script>
<script xlink:href="../../svgpan.js"/>
<svg id="graph" class="graph">
<g id="viewport">
<title>GameOver.addAllButtons</title>
<polygon fill="white" stroke="none" points="-4,4 -4,-404 1622,-404 1622,4 -4,4"/>
<!-- Node1 -->
<g id="node1" class="node"><title>Node1</title>
<polygon fill="#bfbfbf" stroke="black" points="0.5,-47.5 0.5,-66.5 137.5,-66.5 137.5,-47.5 0.5,-47.5"/>
<text text-anchor="middle" x="69" y="-54.5" font-family="Helvetica,sans-Serif" font-size="10.00">GameOver.addAllButtons</text>
</g>
<!-- Node2 -->
<g id="node2" class="node"><title>Node2</title>
<g id="a_node2"><a xlink:href="../../d2/db8/class_menu.html#aff7a7627619921545f94547ab6135007" target="_top" xlink:title="Menu.addButton">
<polygon fill="white" stroke="black" points="174,-47.5 174,-66.5 270,-66.5 270,-47.5 174,-47.5"/>
<text text-anchor="middle" x="222" y="-54.5" font-family="Helvetica,sans-Serif" font-size="10.00">Menu.addButton</text>
</a>
</g>
</g>
<!-- Node1&#45;&gt;Node2 -->
<g id="edge1" class="edge"><title>Node1&#45;&gt;Node2</title>
<path fill="none" stroke="midnightblue" d="M137.55,-57C146.259,-57 155.111,-57 163.634,-57"/>
<polygon fill="midnightblue" stroke="midnightblue" points="163.837,-60.5001 173.837,-57 163.837,-53.5001 163.837,-60.5001"/>
</g>
<!-- Node3 -->
<g id="node3" class="node"><title>Node3</title>
<g id="a_node3"><a xlink:href="../../d2/db8/class_menu.html#a53c8b072d5ec777994fed9ee76c98561" target="_top" xlink:title="Menu.handle">
<polygon fill="white" stroke="black" points="306,-47.5 306,-66.5 384,-66.5 384,-47.5 306,-47.5"/>
<text text-anchor="middle" x="345" y="-54.5" font-family="Helvetica,sans-Serif" font-size="10.00">Menu.handle</text>
</a>
</g>
</g>
<!-- Node2&#45;&gt;Node3 -->
<g id="edge2" class="edge"><title>Node2&#45;&gt;Node3</title>
<path fill="none" stroke="midnightblue" d="M270.128,-57C278.526,-57 287.285,-57 295.714,-57"/>
<polygon fill="midnightblue" stroke="midnightblue" points="295.785,-60.5001 305.785,-57 295.785,-53.5001 295.785,-60.5001"/>
</g>
<!-- Node4 -->
<g id="node4" class="node"><title>Node4</title>
<g id="a_node4"><a xlink:href="../../d2/db8/class_menu.html#ab6296880308728ced459f772430d025b" target="_top" xlink:title="Menu.createGame">
<polygon fill="white" stroke="black" points="420,-47.5 420,-66.5 526,-66.5 526,-47.5 420,-47.5"/>
<text text-anchor="middle" x="473" y="-54.5" font-family="Helvetica,sans-Serif" font-size="10.00">Menu.createGame</text>
</a>
</g>
</g>
<!-- Node3&#45;&gt;Node4 -->
<g id="edge3" class="edge"><title>Node3&#45;&gt;Node4</title>
<path fill="none" stroke="midnightblue" d="M384.146,-57C392.163,-57 400.82,-57 409.465,-57"/>
<polygon fill="midnightblue" stroke="midnightblue" points="409.57,-60.5001 419.57,-57 409.57,-53.5001 409.57,-60.5001"/>
</g>
<!-- Node5 -->
<g id="node5" class="node"><title>Node5</title>
<g id="a_node5"><a xlink:href="../../d2/d3e/class_level1.html#a0871325d07c0614d5f1f2df7df13b703" target="_top" xlink:title="Level1.start">
<polygon fill="white" stroke="black" points="562.5,-76.5 562.5,-95.5 635.5,-95.5 635.5,-76.5 562.5,-76.5"/>
<text text-anchor="middle" x="599" y="-83.5" font-family="Helvetica,sans-Serif" font-size="10.00">Level1.start</text>
</a>
</g>
</g>
<!-- Node4&#45;&gt;Node5 -->
<g id="edge4" class="edge"><title>Node4&#45;&gt;Node5</title>
<path fill="none" stroke="midnightblue" d="M514.946,-66.5761C526.85,-69.3601 539.93,-72.419 552.116,-75.2691"/>
<polygon fill="midnightblue" stroke="midnightblue" points="551.563,-78.7342 562.098,-77.6035 553.157,-71.9181 551.563,-78.7342"/>
</g>
<!-- Node22 -->
<g id="node22" class="node"><title>Node22</title>
<g id="a_node22"><a xlink:href="../../d6/d21/class_screen.html#a5d40342bbe33c27c9e0e24bd8709d1f6" target="_top" xlink:title="Screen.showAndAnim">
<polygon fill="white" stroke="black" points="1158.5,-0.5 1158.5,-19.5 1279.5,-19.5 1279.5,-0.5 1158.5,-0.5"/>
<text text-anchor="middle" x="1219" y="-7.5" font-family="Helvetica,sans-Serif" font-size="10.00">Screen.showAndAnim</text>
</a>
</g>
</g>
<!-- Node4&#45;&gt;Node22 -->
<g id="edge37" class="edge"><title>Node4&#45;&gt;Node22</title>
<path fill="none" stroke="midnightblue" d="M526.353,-47.8318C577.579,-39.6658 657.904,-29 728,-29 728,-29 728,-29 882,-29 974.113,-29 1080.21,-21.7939 1148.12,-16.2575"/>
<polygon fill="midnightblue" stroke="midnightblue" points="1148.6,-19.7304 1158.27,-15.4192 1148.02,-12.7542 1148.6,-19.7304"/>
</g>
<!-- Node6 -->
<g id="node6" class="node"><title>Node6</title>
<g id="a_node6"><a xlink:href="../../d2/d3e/class_level1.html#a324da1e22a7a87fa4bb1859b5774bdba" target="_top" xlink:title="Level1.updateFrame">
<polygon fill="white" stroke="black" points="672,-209.5 672,-228.5 786,-228.5 786,-209.5 672,-209.5"/>
<text text-anchor="middle" x="729" y="-216.5" font-family="Helvetica,sans-Serif" font-size="10.00">Level1.updateFrame</text>
</a>
</g>
</g>
<!-- Node5&#45;&gt;Node6 -->
<g id="edge5" class="edge"><title>Node5&#45;&gt;Node6</title>
<path fill="none" stroke="midnightblue" d="M609.205,-95.565C630.596,-117.791 683.91,-173.188 711.251,-201.597"/>
<polygon fill="midnightblue" stroke="midnightblue" points="709.076,-204.385 718.533,-209.163 714.12,-199.531 709.076,-204.385"/>
</g>
<!-- Node7 -->
<g id="node7" class="node"><title>Node7</title>
<g id="a_node7"><a xlink:href="../../d2/d3e/class_level1.html#a78a7fb5633734b1815af8db43db23a41" target="_top" xlink:title="Level1.updateSprites">
<polygon fill="white" stroke="black" points="822,-209.5 822,-228.5 940,-228.5 940,-209.5 822,-209.5"/>
<text text-anchor="middle" x="881" y="-216.5" font-family="Helvetica,sans-Serif" font-size="10.00">Level1.updateSprites</text>
</a>
</g>
</g>
<!-- Node6&#45;&gt;Node7 -->
<g id="edge6" class="edge"><title>Node6&#45;&gt;Node7</title>
<path fill="none" stroke="midnightblue" d="M786.281,-219C794.555,-219 803.154,-219 811.639,-219"/>
<polygon fill="midnightblue" stroke="midnightblue" points="811.902,-222.5 821.902,-219 811.902,-215.5 811.902,-222.5"/>
</g>
<!-- Node30 -->
<g id="node30" class="node"><title>Node30</title>
<g id="a_node30"><a xlink:href="../../d2/d3e/class_level1.html#a5f552e875916d0cf7a74896401584b2a" target="_top" xlink:title="Level1.updateTimer">
<polygon fill="white" stroke="black" points="825.5,-247.5 825.5,-266.5 936.5,-266.5 936.5,-247.5 825.5,-247.5"/>
<text text-anchor="middle" x="881" y="-254.5" font-family="Helvetica,sans-Serif" font-size="10.00">Level1.updateTimer</text>
</a>
</g>
</g>
<!-- Node6&#45;&gt;Node30 -->
<g id="edge36" class="edge"><title>Node6&#45;&gt;Node30</title>
<path fill="none" stroke="midnightblue" d="M767.851,-228.589C787.467,-233.558 811.619,-239.677 832.479,-244.961"/>
<polygon fill="midnightblue" stroke="midnightblue" points="831.868,-248.417 842.421,-247.48 833.587,-241.631 831.868,-248.417"/>
</g>
<!-- Node8 -->
<g id="node8" class="node"><title>Node8</title>
<g id="a_node8"><a xlink:href="../../d7/da7/class_character.html#ac0b4f4ace84c8e5aa60f05515806015d" target="_top" xlink:title="Character.setHP">
<polygon fill="white" stroke="black" points="1001.5,-266.5 1001.5,-285.5 1096.5,-285.5 1096.5,-266.5 1001.5,-266.5"/>
<text text-anchor="middle" x="1049" y="-273.5" font-family="Helvetica,sans-Serif" font-size="10.00">Character.setHP</text>
</a>
</g>
</g>
<!-- Node7&#45;&gt;Node8 -->
<g id="edge7" class="edge"><title>Node7&#45;&gt;Node8</title>
<path fill="none" stroke="midnightblue" d="M914.57,-228.599C922.96,-231.362 931.903,-234.566 940,-238 956.656,-245.063 959.145,-250.427 976,-257 982.231,-259.43 988.884,-261.654 995.534,-263.655"/>
<polygon fill="midnightblue" stroke="midnightblue" points="994.649,-267.042 1005.23,-266.427 996.574,-260.312 994.649,-267.042"/>
</g>
<!-- Node9 -->
<g id="node9" class="node"><title>Node9</title>
<g id="a_node9"><a xlink:href="../../dd/d7a/class_enemy.html#ab653212b50d9e64ba497ae18696d3678" target="_top" xlink:title="Enemy.moveSprite">
<polygon fill="white" stroke="black" points="995.5,-228.5 995.5,-247.5 1102.5,-247.5 1102.5,-228.5 995.5,-228.5"/>
<text text-anchor="middle" x="1049" y="-235.5" font-family="Helvetica,sans-Serif" font-size="10.00">Enemy.moveSprite</text>
</a>
</g>
</g>
<!-- Node7&#45;&gt;Node9 -->
<g id="edge8" class="edge"><title>Node7&#45;&gt;Node9</title>
<path fill="none" stroke="midnightblue" d="M940.059,-225.645C954.644,-227.315 970.362,-229.114 985.169,-230.808"/>
<polygon fill="midnightblue" stroke="midnightblue" points="984.915,-234.302 995.248,-231.962 985.711,-227.348 984.915,-234.302"/>
</g>
<!-- Node13 -->
<g id="node13" class="node"><title>Node13</title>
<g id="a_node13"><a xlink:href="../../d8/d53/class_player.html#a1b7a0a6c68deb202a672d42e205d5a21" target="_top" xlink:title="Player.moveSprite">
<polygon fill="white" stroke="black" points="997,-190.5 997,-209.5 1101,-209.5 1101,-190.5 997,-190.5"/>
<text text-anchor="middle" x="1049" y="-197.5" font-family="Helvetica,sans-Serif" font-size="10.00">Player.moveSprite</text>
</a>
</g>
</g>
<!-- Node7&#45;&gt;Node13 -->
<g id="edge12" class="edge"><title>Node7&#45;&gt;Node13</title>
<path fill="none" stroke="midnightblue" d="M940.059,-212.355C955.1,-210.633 971.346,-208.774 986.554,-207.033"/>
<polygon fill="midnightblue" stroke="midnightblue" points="987.352,-210.465 996.89,-205.85 986.556,-203.51 987.352,-210.465"/>
</g>
<!-- Node14 -->
<g id="node14" class="node"><title>Node14</title>
<g id="a_node14"><a xlink:href="../../dd/d7a/class_enemy.html#a9b6840dcc6b8165268e957fc43d95b06" target="_top" xlink:title="Enemy.makePoop">
<polygon fill="white" stroke="black" points="998,-152.5 998,-171.5 1100,-171.5 1100,-152.5 998,-152.5"/>
<text text-anchor="middle" x="1049" y="-159.5" font-family="Helvetica,sans-Serif" font-size="10.00">Enemy.makePoop</text>
</a>
</g>
</g>
<!-- Node7&#45;&gt;Node14 -->
<g id="edge15" class="edge"><title>Node7&#45;&gt;Node14</title>
<path fill="none" stroke="midnightblue" d="M903.366,-209.462C922.233,-201.257 950.612,-189.444 976,-181 983.165,-178.617 990.808,-176.332 998.339,-174.225"/>
<polygon fill="midnightblue" stroke="midnightblue" points="999.392,-177.566 1008.12,-171.564 997.555,-170.811 999.392,-177.566"/>
</g>
<!-- Node15 -->
<g id="node15" class="node"><title>Node15</title>
<g id="a_node15"><a xlink:href="../../d2/d3e/class_level1.html#aa75f107bf925594da75a1d82cf64044d" target="_top" xlink:title="Level1.returnCollisions">
<polygon fill="white" stroke="black" points="987,-342.5 987,-361.5 1111,-361.5 1111,-342.5 987,-342.5"/>
<text text-anchor="middle" x="1049" y="-349.5" font-family="Helvetica,sans-Serif" font-size="10.00">Level1.returnCollisions</text>
</a>
</g>
</g>
<!-- Node7&#45;&gt;Node15 -->
<g id="edge17" class="edge"><title>Node7&#45;&gt;Node15</title>
<path fill="none" stroke="midnightblue" d="M925.911,-228.576C931.074,-231.033 935.939,-234.121 940,-238 972.648,-269.19 942.453,-302.779 976,-333 977.756,-334.582 979.628,-336.035 981.591,-337.369"/>
<polygon fill="midnightblue" stroke="midnightblue" points="980.269,-340.64 990.701,-342.49 983.699,-334.539 980.269,-340.64"/>
</g>
<!-- Node19 -->
<g id="node19" class="node"><title>Node19</title>
<g id="a_node19"><a xlink:href="../../d2/d3e/class_level1.html#ac56e75129bb2946c38cfcf43608f3f05" target="_top" xlink:title="Level1.goNextLevel">
<polygon fill="white" stroke="black" points="994,-76.5 994,-95.5 1104,-95.5 1104,-76.5 994,-76.5"/>
<text text-anchor="middle" x="1049" y="-83.5" font-family="Helvetica,sans-Serif" font-size="10.00">Level1.goNextLevel</text>
</a>
</g>
</g>
<!-- Node7&#45;&gt;Node19 -->
<g id="edge21" class="edge"><title>Node7&#45;&gt;Node19</title>
<path fill="none" stroke="midnightblue" d="M887.14,-209.326C899.395,-187.226 932.581,-132.808 976,-105 979.334,-102.865 982.901,-100.968 986.597,-99.2845"/>
<polygon fill="midnightblue" stroke="midnightblue" points="988.01,-102.489 995.992,-95.5209 985.407,-95.9907 988.01,-102.489"/>
</g>
<!-- Node27 -->
<g id="node27" class="node"><title>Node27</title>
<g id="a_node27"><a xlink:href="../../d2/d3e/class_level1.html#a5e6976ef755d0e678034870e374ee4ca" target="_top" xlink:title="Level1.goGameOver">
<polygon fill="white" stroke="black" points="992,-114.5 992,-133.5 1106,-133.5 1106,-114.5 992,-114.5"/>
<text text-anchor="middle" x="1049" y="-121.5" font-family="Helvetica,sans-Serif" font-size="10.00">Level1.goGameOver</text>
</a>
</g>
</g>
<!-- Node7&#45;&gt;Node27 -->
<g id="edge30" class="edge"><title>Node7&#45;&gt;Node27</title>
<path fill="none" stroke="midnightblue" d="M891.176,-209.278C906.972,-193.114 940.993,-160.737 976,-143 980.568,-140.686 985.446,-138.633 990.429,-136.816"/>
<polygon fill="midnightblue" stroke="midnightblue" points="991.701,-140.081 1000.09,-133.605 989.492,-133.438 991.701,-140.081"/>
</g>
<!-- Node28 -->
<g id="node28" class="node"><title>Node28</title>
<g id="a_node28"><a xlink:href="../../d2/d3e/class_level1.html#a5995ba731849ced54b8f97fcc93ce4d9" target="_top" xlink:title="Level1.removeFromScreen">
<polygon fill="white" stroke="black" points="976.5,-380.5 976.5,-399.5 1121.5,-399.5 1121.5,-380.5 976.5,-380.5"/>
<text text-anchor="middle" x="1049" y="-387.5" font-family="Helvetica,sans-Serif" font-size="10.00">Level1.removeFromScreen</text>
</a>
</g>
</g>
<!-- Node7&#45;&gt;Node28 -->
<g id="edge34" class="edge"><title>Node7&#45;&gt;Node28</title>
<path fill="none" stroke="midnightblue" d="M927.142,-228.644C931.918,-231.091 936.353,-234.157 940,-238 982.157,-282.418 932.561,-327.835 976,-371 977.444,-372.435 978.983,-373.766 980.6,-374.999"/>
<polygon fill="midnightblue" stroke="midnightblue" points="978.914,-378.072 989.252,-380.39 982.616,-372.131 978.914,-378.072"/>
</g>
<!-- Node29 -->
<g id="node29" class="node"><title>Node29</title>
<g id="a_node29"><a xlink:href="../../d7/da7/class_character.html#aad64a9dc8ceea8b806cf2e1908cd0df8" target="_top" xlink:title="Character.setFull">
<polygon fill="white" stroke="black" points="1001,-304.5 1001,-323.5 1097,-323.5 1097,-304.5 1001,-304.5"/>
<text text-anchor="middle" x="1049" y="-311.5" font-family="Helvetica,sans-Serif" font-size="10.00">Character.setFull</text>
</a>
</g>
</g>
<!-- Node7&#45;&gt;Node29 -->
<g id="edge35" class="edge"><title>Node7&#45;&gt;Node29</title>
<path fill="none" stroke="midnightblue" d="M923.418,-228.61C929.33,-231.076 935.069,-234.157 940,-238 963.633,-256.419 951.838,-277.281 976,-295 980.561,-298.345 985.666,-301.101 990.996,-303.373"/>
<polygon fill="midnightblue" stroke="midnightblue" points="990.169,-306.798 1000.76,-306.96 992.583,-300.227 990.169,-306.798"/>
</g>
<!-- Node10 -->
<g id="node10" class="node"><title>Node10</title>
<g id="a_node10"><a xlink:href="../../d7/dbf/class_sprite.html#a4dd4a643703de09c632a0e7d70a570e7" target="_top" xlink:title="Sprite.getVelocity">
<polygon fill="white" stroke="black" points="1168.5,-266.5 1168.5,-285.5 1269.5,-285.5 1269.5,-266.5 1168.5,-266.5"/>
<text text-anchor="middle" x="1219" y="-273.5" font-family="Helvetica,sans-Serif" font-size="10.00">Sprite.getVelocity</text>
</a>
</g>
</g>
<!-- Node9&#45;&gt;Node10 -->
<g id="edge9" class="edge"><title>Node9&#45;&gt;Node10</title>
<path fill="none" stroke="midnightblue" d="M1092.39,-247.589C1114.76,-252.649 1142.4,-258.9 1166.05,-264.249"/>
<polygon fill="midnightblue" stroke="midnightblue" points="1165.39,-267.687 1175.91,-266.48 1166.93,-260.86 1165.39,-267.687"/>
</g>
<!-- Node11 -->
<g id="node11" class="node"><title>Node11</title>
<g id="a_node11"><a xlink:href="../../d7/dbf/class_sprite.html#ab8f846b7ba77ae72ad09f48da22ceea7" target="_top" xlink:title="Sprite.moveSprite">
<polygon fill="white" stroke="black" points="1167,-228.5 1167,-247.5 1271,-247.5 1271,-228.5 1167,-228.5"/>
<text text-anchor="middle" x="1219" y="-235.5" font-family="Helvetica,sans-Serif" font-size="10.00">Sprite.moveSprite</text>
</a>
</g>
</g>
<!-- Node9&#45;&gt;Node11 -->
<g id="edge10" class="edge"><title>Node9&#45;&gt;Node11</title>
<path fill="none" stroke="midnightblue" d="M1102.7,-238C1119.83,-238 1138.99,-238 1156.7,-238"/>
<polygon fill="midnightblue" stroke="midnightblue" points="1156.93,-241.5 1166.93,-238 1156.93,-234.5 1156.93,-241.5"/>
</g>
<!-- Node12 -->
<g id="node12" class="node"><title>Node12</title>
<g id="a_node12"><a xlink:href="../../d7/dbf/class_sprite.html#accdf1c21264c6ff648ece508cf176bfb" target="_top" xlink:title="Sprite.setVelocity">
<polygon fill="white" stroke="black" points="1169,-190.5 1169,-209.5 1269,-209.5 1269,-190.5 1169,-190.5"/>
<text text-anchor="middle" x="1219" y="-197.5" font-family="Helvetica,sans-Serif" font-size="10.00">Sprite.setVelocity</text>
</a>
</g>
</g>
<!-- Node9&#45;&gt;Node12 -->
<g id="edge11" class="edge"><title>Node9&#45;&gt;Node12</title>
<path fill="none" stroke="midnightblue" d="M1092.39,-228.411C1114.76,-223.351 1142.4,-217.1 1166.05,-211.751"/>
<polygon fill="midnightblue" stroke="midnightblue" points="1166.93,-215.14 1175.91,-209.52 1165.39,-208.313 1166.93,-215.14"/>
</g>
<!-- Node13&#45;&gt;Node11 -->
<g id="edge14" class="edge"><title>Node13&#45;&gt;Node11</title>
<path fill="none" stroke="midnightblue" d="M1092.39,-209.589C1114.76,-214.649 1142.4,-220.9 1166.05,-226.249"/>
<polygon fill="midnightblue" stroke="midnightblue" points="1165.39,-229.687 1175.91,-228.48 1166.93,-222.86 1165.39,-229.687"/>
</g>
<!-- Node13&#45;&gt;Node12 -->
<g id="edge13" class="edge"><title>Node13&#45;&gt;Node12</title>
<path fill="none" stroke="midnightblue" d="M1101.32,-200C1119.39,-200 1139.86,-200 1158.55,-200"/>
<polygon fill="midnightblue" stroke="midnightblue" points="1158.72,-203.5 1168.72,-200 1158.72,-196.5 1158.72,-203.5"/>
</g>
<!-- Node14&#45;&gt;Node12 -->
<g id="edge16" class="edge"><title>Node14&#45;&gt;Node12</title>
<path fill="none" stroke="midnightblue" d="M1092.39,-171.589C1114.76,-176.649 1142.4,-182.9 1166.05,-188.249"/>
<polygon fill="midnightblue" stroke="midnightblue" points="1165.39,-191.687 1175.91,-190.48 1166.93,-184.86 1165.39,-191.687"/>
</g>
<!-- Node16 -->
<g id="node16" class="node"><title>Node16</title>
<g id="a_node16"><a xlink:href="../../d7/da7/class_character.html#aa2149c166e797ae0ded67d9f768ac7f3" target="_top" xlink:title="Character.updateAll">
<polygon fill="white" stroke="black" points="1163.5,-342.5 1163.5,-361.5 1274.5,-361.5 1274.5,-342.5 1163.5,-342.5"/>
<text text-anchor="middle" x="1219" y="-349.5" font-family="Helvetica,sans-Serif" font-size="10.00">Character.updateAll</text>
</a>
</g>
</g>
<!-- Node15&#45;&gt;Node16 -->
<g id="edge18" class="edge"><title>Node15&#45;&gt;Node16</title>
<path fill="none" stroke="midnightblue" d="M1111.13,-352C1124.73,-352 1139.21,-352 1152.96,-352"/>
<polygon fill="midnightblue" stroke="midnightblue" points="1153.32,-355.5 1163.32,-352 1153.32,-348.5 1153.32,-355.5"/>
</g>
<!-- Node17 -->
<g id="node17" class="node"><title>Node17</title>
<g id="a_node17"><a xlink:href="../../d7/da7/class_character.html#ade25acccb27ac9aeb2752b2df29d075f" target="_top" xlink:title="Character.collisionUpdate">
<polygon fill="white" stroke="black" points="1316.5,-342.5 1316.5,-361.5 1455.5,-361.5 1455.5,-342.5 1316.5,-342.5"/>
<text text-anchor="middle" x="1386" y="-349.5" font-family="Helvetica,sans-Serif" font-size="10.00">Character.collisionUpdate</text>
</a>
</g>
</g>
<!-- Node16&#45;&gt;Node17 -->
<g id="edge19" class="edge"><title>Node16&#45;&gt;Node17</title>
<path fill="none" stroke="midnightblue" d="M1274.94,-352C1285.03,-352 1295.74,-352 1306.36,-352"/>
<polygon fill="midnightblue" stroke="midnightblue" points="1306.5,-355.5 1316.5,-352 1306.5,-348.5 1306.5,-355.5"/>
</g>
<!-- Node18 -->
<g id="node18" class="node"><title>Node18</title>
<g id="a_node18"><a xlink:href="../../d7/da7/class_character.html#ad223fcb54929116326bf8816d43f5173" target="_top" xlink:title="Character.checkCollide">
<polygon fill="white" stroke="black" points="1492.5,-342.5 1492.5,-361.5 1617.5,-361.5 1617.5,-342.5 1492.5,-342.5"/>
<text text-anchor="middle" x="1555" y="-349.5" font-family="Helvetica,sans-Serif" font-size="10.00">Character.checkCollide</text>
</a>
</g>
</g>
<!-- Node17&#45;&gt;Node18 -->
<g id="edge20" class="edge"><title>Node17&#45;&gt;Node18</title>
<path fill="none" stroke="midnightblue" d="M1455.89,-352C1464.61,-352 1473.54,-352 1482.31,-352"/>
<polygon fill="midnightblue" stroke="midnightblue" points="1482.48,-355.5 1492.48,-352 1482.48,-348.5 1482.48,-355.5"/>
</g>
<!-- Node19&#45;&gt;Node5 -->
<g id="edge24" class="edge"><title>Node19&#45;&gt;Node5</title>
<path fill="none" stroke="midnightblue" d="M993.736,-86C904.614,-86 728.848,-86 645.678,-86"/>
<polygon fill="midnightblue" stroke="midnightblue" points="645.528,-82.5001 635.528,-86 645.528,-89.5001 645.528,-82.5001"/>
</g>
<!-- Node20 -->
<g id="node20" class="node"><title>Node20</title>
<g id="a_node20"><a xlink:href="../../d7/da7/class_character.html#a4dc23a76b34bcbb84abba1b116847268" target="_top" xlink:title="Character.getHP">
<polygon fill="white" stroke="black" points="1171.5,-114.5 1171.5,-133.5 1266.5,-133.5 1266.5,-114.5 1171.5,-114.5"/>
<text text-anchor="middle" x="1219" y="-121.5" font-family="Helvetica,sans-Serif" font-size="10.00">Character.getHP</text>
</a>
</g>
</g>
<!-- Node19&#45;&gt;Node20 -->
<g id="edge22" class="edge"><title>Node19&#45;&gt;Node20</title>
<path fill="none" stroke="midnightblue" d="M1092.39,-95.589C1114.76,-100.649 1142.4,-106.9 1166.05,-112.249"/>
<polygon fill="midnightblue" stroke="midnightblue" points="1165.39,-115.687 1175.91,-114.48 1166.93,-108.86 1165.39,-115.687"/>
</g>
<!-- Node21 -->
<g id="node21" class="node"><title>Node21</title>
<g id="a_node21"><a xlink:href="../../d2/d3e/class_level1.html#ac4098d447b9841cabec6be3bb719bd26" target="_top" xlink:title="Level1.clearElements">
<polygon fill="white" stroke="black" points="1159.5,-76.5 1159.5,-95.5 1278.5,-95.5 1278.5,-76.5 1159.5,-76.5"/>
<text text-anchor="middle" x="1219" y="-83.5" font-family="Helvetica,sans-Serif" font-size="10.00">Level1.clearElements</text>
</a>
</g>
</g>
<!-- Node19&#45;&gt;Node21 -->
<g id="edge23" class="edge"><title>Node19&#45;&gt;Node21</title>
<path fill="none" stroke="midnightblue" d="M1104.08,-86C1118.42,-86 1134.1,-86 1149.11,-86"/>
<polygon fill="midnightblue" stroke="midnightblue" points="1149.37,-89.5001 1159.37,-86 1149.37,-82.5001 1149.37,-89.5001"/>
</g>
<!-- Node19&#45;&gt;Node22 -->
<g id="edge25" class="edge"><title>Node19&#45;&gt;Node22</title>
<path fill="none" stroke="midnightblue" d="M1066.03,-76.3733C1086.74,-64.2081 1124.16,-43.1529 1158,-29 1163.36,-26.7582 1169.08,-24.628 1174.78,-22.6597"/>
<polygon fill="midnightblue" stroke="midnightblue" points="1175.9,-25.9763 1184.29,-19.509 1173.7,-19.3315 1175.9,-25.9763"/>
</g>
<!-- Node26 -->
<g id="node26" class="node"><title>Node26</title>
<g id="a_node26"><a xlink:href="../../dd/d7a/class_enemy.html#a0b00e167bc151db783054dddb2f9b509" target="_top" xlink:title="Enemy.makeAngry">
<polygon fill="white" stroke="black" points="1166,-38.5 1166,-57.5 1272,-57.5 1272,-38.5 1166,-38.5"/>
<text text-anchor="middle" x="1219" y="-45.5" font-family="Helvetica,sans-Serif" font-size="10.00">Enemy.makeAngry</text>
</a>
</g>
</g>
<!-- Node19&#45;&gt;Node26 -->
<g id="edge29" class="edge"><title>Node19&#45;&gt;Node26</title>
<path fill="none" stroke="midnightblue" d="M1092.39,-76.411C1114.76,-71.3513 1142.4,-65.1004 1166.05,-59.7512"/>
<polygon fill="midnightblue" stroke="midnightblue" points="1166.93,-63.1401 1175.91,-57.5201 1165.39,-56.3125 1166.93,-63.1401"/>
</g>
<!-- Node23 -->
<g id="node23" class="node"><title>Node23</title>
<g id="a_node23"><a xlink:href="../../d6/d21/class_screen.html#a5d9534b81b96cfc0a00009dea6be6c09" target="_top" xlink:title="Screen.showScreen">
<polygon fill="white" stroke="black" points="1330.5,-95.5 1330.5,-114.5 1441.5,-114.5 1441.5,-95.5 1330.5,-95.5"/>
<text text-anchor="middle" x="1386" y="-102.5" font-family="Helvetica,sans-Serif" font-size="10.00">Screen.showScreen</text>
</a>
</g>
</g>
<!-- Node22&#45;&gt;Node23 -->
<g id="edge26" class="edge"><title>Node22&#45;&gt;Node23</title>
<path fill="none" stroke="midnightblue" d="M1256.59,-19.5346C1264.5,-22.1563 1272.68,-25.3135 1280,-29 1312.71,-45.4755 1346.27,-71.7194 1366.37,-88.6525"/>
<polygon fill="midnightblue" stroke="midnightblue" points="1364.25,-91.4432 1374.13,-95.2839 1368.8,-86.1238 1364.25,-91.4432"/>
</g>
<!-- Node25 -->
<g id="node25" class="node"><title>Node25</title>
<g id="a_node25"><a xlink:href="../../d6/d21/class_screen.html#a601576a0d49770789b2eb08328f09c53" target="_top" xlink:title="Screen.startAnim">
<polygon fill="white" stroke="black" points="1335.5,-0.5 1335.5,-19.5 1436.5,-19.5 1436.5,-0.5 1335.5,-0.5"/>
<text text-anchor="middle" x="1386" y="-7.5" font-family="Helvetica,sans-Serif" font-size="10.00">Screen.startAnim</text>
</a>
</g>
</g>
<!-- Node22&#45;&gt;Node25 -->
<g id="edge28" class="edge"><title>Node22&#45;&gt;Node25</title>
<path fill="none" stroke="midnightblue" d="M1279.57,-10C1294.42,-10 1310.35,-10 1325.21,-10"/>
<polygon fill="midnightblue" stroke="midnightblue" points="1325.3,-13.5001 1335.3,-10 1325.3,-6.5001 1325.3,-13.5001"/>
</g>
<!-- Node24 -->
<g id="node24" class="node"><title>Node24</title>
<g id="a_node24"><a xlink:href="../../d6/d21/class_screen.html#ac7ca0a382b3177bbea4e2a4e7c0f442e" target="_top" xlink:title="Screen.init">
<polygon fill="white" stroke="black" points="1521,-95.5 1521,-114.5 1589,-114.5 1589,-95.5 1521,-95.5"/>
<text text-anchor="middle" x="1555" y="-102.5" font-family="Helvetica,sans-Serif" font-size="10.00">Screen.init</text>
</a>
</g>
</g>
<!-- Node23&#45;&gt;Node24 -->
<g id="edge27" class="edge"><title>Node23&#45;&gt;Node24</title>
<path fill="none" stroke="midnightblue" d="M1441.68,-105C1463.98,-105 1489.4,-105 1510.41,-105"/>
<polygon fill="midnightblue" stroke="midnightblue" points="1510.65,-108.5 1520.65,-105 1510.65,-101.5 1510.65,-108.5"/>
</g>
<!-- Node27&#45;&gt;Node20 -->
<g id="edge31" class="edge"><title>Node27&#45;&gt;Node20</title>
<path fill="none" stroke="midnightblue" d="M1106.41,-124C1124.02,-124 1143.45,-124 1161.09,-124"/>
<polygon fill="midnightblue" stroke="midnightblue" points="1161.25,-127.5 1171.25,-124 1161.25,-120.5 1161.25,-127.5"/>
</g>
<!-- Node27&#45;&gt;Node21 -->
<g id="edge32" class="edge"><title>Node27&#45;&gt;Node21</title>
<path fill="none" stroke="midnightblue" d="M1092.39,-114.411C1114.76,-109.351 1142.4,-103.1 1166.05,-97.7512"/>
<polygon fill="midnightblue" stroke="midnightblue" points="1166.93,-101.14 1175.91,-95.5201 1165.39,-94.3125 1166.93,-101.14"/>
</g>
<!-- Node27&#45;&gt;Node23 -->
<g id="edge33" class="edge"><title>Node27&#45;&gt;Node23</title>
<path fill="none" stroke="midnightblue" d="M1090.59,-133.569C1136.76,-143.021 1214.29,-154.524 1280,-143 1306.54,-138.345 1335.21,-127.544 1355.88,-118.642"/>
<polygon fill="midnightblue" stroke="midnightblue" points="1357.32,-121.831 1365.05,-114.588 1354.49,-115.428 1357.32,-121.831"/>
</g>
</g>
</svg>
        <g id="navigator" transform="translate(0 0)" fill="#404254">
                <rect fill="#f2f5e9" fill-opacity="0.5" stroke="#606060" stroke-width=".5" x="0" y="0" width="60" height="60"/>
                <use id="zoomplus" xlink:href="#zoomPlus" x="17" y="9" onmousedown="handleZoom(evt,'in')"/>
                <use id="zoomminus" xlink:href="#zoomMin" x="42" y="9" onmousedown="handleZoom(evt,'out')"/>
                <use id="reset" xlink:href="#resetDef" x="30" y="36" onmousedown="handleReset()"/>
                <g id="arrowUp" xlink:href="#dirArrow" transform="translate(30 24)" onmousedown="handlePan(0,-1)">
                  <use xlink:href="#rim" fill="#404040">
                        <set attributeName="fill" to="#808080" begin="arrowUp.mouseover" end="arrowUp.mouseout"/>
                  </use>
                  <path fill="none" stroke="white" stroke-width="1.5" d="M0,-3.0v7 M-2.5,-0.5L0,-3.0L2.5,-0.5"/>
                </g>
                <g id="arrowRight" xlink:href="#dirArrow" transform="rotate(90) translate(36 -43)" onmousedown="handlePan(1,0)">
                  <use xlink:href="#rim" fill="#404040">
                        <set attributeName="fill" to="#808080" begin="arrowRight.mouseover" end="arrowRight.mouseout"/>
                  </use>
                  <path fill="none" stroke="white" stroke-width="1.5" d="M0,-3.0v7 M-2.5,-0.5L0,-3.0L2.5,-0.5"/>
                </g>
                <g id="arrowDown" xlink:href="#dirArrow" transform="rotate(180) translate(-30 -48)" onmousedown="handlePan(0,1)">
                  <use xlink:href="#rim" fill="#404040">
                        <set attributeName="fill" to="#808080" begin="arrowDown.mouseover" end="arrowDown.mouseout"/>
                  </use>
                  <path fill="none" stroke="white" stroke-width="1.5" d="M0,-3.0v7 M-2.5,-0.5L0,-3.0L2.5,-0.5"/>
                </g>
                <g id="arrowLeft" xlink:href="#dirArrow" transform="rotate(270) translate(-36 17)" onmousedown="handlePan(-1,0)">
                  <use xlink:href="#rim" fill="#404040">
                        <set attributeName="fill" to="#808080" begin="arrowLeft.mouseover" end="arrowLeft.mouseout"/>
                  </use>
                  <path fill="none" stroke="white" stroke-width="1.5" d="M0,-3.0v7 M-2.5,-0.5L0,-3.0L2.5,-0.5"/>
                </g>
        </g>
        <svg viewBox="0 0 15 15" width="100%" height="30px" preserveAspectRatio="xMaxYMin meet">
         <g id="arrow_out" transform="scale(0.3 0.3)">
          <a xlink:href="class_game_over_abb505ac8c26999beff755f4c299370da_cgraph_org.svg" target="_base">
           <rect id="button" ry="5" rx="5" y="6" x="6" height="38" width="38"
                fill="#f2f5e9" fill-opacity="0.5" stroke="#606060" stroke-width="1.0"/>
           <path id="arrow"
             d="M 11.500037,31.436501 C 11.940474,20.09759 22.043105,11.32322 32.158766,21.979434 L 37.068811,17.246167 C 37.068811,17.246167 37.088388,32 37.088388,32 L 22.160133,31.978069 C 22.160133,31.978069 26.997745,27.140456 26.997745,27.140456 C 18.528582,18.264221 13.291696,25.230495 11.500037,31.436501 z"
             style="fill:#404040;"/>
          </a>
         </g>
        </svg>
</svg>
