<?xml version="1.0" encoding="UTF-8" standalone="no"?>
<!DOCTYPE svg PUBLIC "-//W3C//DTD SVG 1.1//EN"
 "http://www.w3.org/Graphics/SVG/1.1/DTD/svg11.dtd">
<!-- Generated by graphviz version 2.36.0 (20140111.2315)
 -->
<!-- Title: GameOver.addAllButtons Pages: 1 -->
<svg width="1626pt" height="332pt"
 viewBox="0.00 0.00 1626.00 332.00" xmlns="http://www.w3.org/2000/svg" xmlns:xlink="http://www.w3.org/1999/xlink">
<g id="graph0" class="graph" transform="scale(1 1) rotate(0) translate(4 328)">
<title>GameOver.addAllButtons</title>
<polygon fill="white" stroke="none" points="-4,4 -4,-328 1622,-328 1622,4 -4,4"/>
<!-- Node1 -->
<g id="node1" class="node"><title>Node1</title>
<polygon fill="#bfbfbf" stroke="black" points="0.5,-19.5 0.5,-38.5 137.5,-38.5 137.5,-19.5 0.5,-19.5"/>
<text text-anchor="middle" x="69" y="-26.5" font-family="Helvetica,sans-Serif" font-size="10.00">GameOver.addAllButtons</text>
</g>
<!-- Node2 -->
<g id="node2" class="node"><title>Node2</title>
<g id="a_node2"><a xlink:href="../../d2/db8/class_menu.html#aff7a7627619921545f94547ab6135007" target="_top" xlink:title="Menu.addButton">
<polygon fill="white" stroke="black" points="174,-19.5 174,-38.5 270,-38.5 270,-19.5 174,-19.5"/>
<text text-anchor="middle" x="222" y="-26.5" font-family="Helvetica,sans-Serif" font-size="10.00">Menu.addButton</text>
</a>
</g>
</g>
<!-- Node1&#45;&gt;Node2 -->
<g id="edge1" class="edge"><title>Node1&#45;&gt;Node2</title>
<path fill="none" stroke="midnightblue" d="M137.55,-29C146.259,-29 155.111,-29 163.634,-29"/>
<polygon fill="midnightblue" stroke="midnightblue" points="163.837,-32.5001 173.837,-29 163.837,-25.5001 163.837,-32.5001"/>
</g>
<!-- Node3 -->
<g id="node3" class="node"><title>Node3</title>
<g id="a_node3"><a xlink:href="../../d2/db8/class_menu.html#a53c8b072d5ec777994fed9ee76c98561" target="_top" xlink:title="Menu.handle">
<polygon fill="white" stroke="black" points="306,-19.5 306,-38.5 384,-38.5 384,-19.5 306,-19.5"/>
<text text-anchor="middle" x="345" y="-26.5" font-family="Helvetica,sans-Serif" font-size="10.00">Menu.handle</text>
</a>
</g>
</g>
<!-- Node2&#45;&gt;Node3 -->
<g id="edge2" class="edge"><title>Node2&#45;&gt;Node3</title>
<path fill="none" stroke="midnightblue" d="M270.128,-29C278.526,-29 287.285,-29 295.714,-29"/>
<polygon fill="midnightblue" stroke="midnightblue" points="295.785,-32.5001 305.785,-29 295.785,-25.5001 295.785,-32.5001"/>
</g>
<!-- Node4 -->
<g id="node4" class="node"><title>Node4</title>
<g id="a_node4"><a xlink:href="../../d2/db8/class_menu.html#ab6296880308728ced459f772430d025b" target="_top" xlink:title="Menu.createGame">
<polygon fill="white" stroke="black" points="420,-19.5 420,-38.5 526,-38.5 526,-19.5 420,-19.5"/>
<text text-anchor="middle" x="473" y="-26.5" font-family="Helvetica,sans-Serif" font-size="10.00">Menu.createGame</text>
</a>
</g>
</g>
<!-- Node3&#45;&gt;Node4 -->
<g id="edge3" class="edge"><title>Node3&#45;&gt;Node4</title>
<path fill="none" stroke="midnightblue" d="M384.146,-29C392.163,-29 400.82,-29 409.465,-29"/>
<polygon fill="midnightblue" stroke="midnightblue" points="409.57,-32.5001 419.57,-29 409.57,-25.5001 409.57,-32.5001"/>
</g>
<!-- Node5 -->
<g id="node5" class="node"><title>Node5</title>
<g id="a_node5"><a xlink:href="../../d2/d3e/class_level1.html#a0871325d07c0614d5f1f2df7df13b703" target="_top" xlink:title="Level1.start">
<polygon fill="white" stroke="black" points="562.5,-38.5 562.5,-57.5 635.5,-57.5 635.5,-38.5 562.5,-38.5"/>
<text text-anchor="middle" x="599" y="-45.5" font-family="Helvetica,sans-Serif" font-size="10.00">Level1.start</text>
</a>
</g>
</g>
<!-- Node4&#45;&gt;Node5 -->
<g id="edge4" class="edge"><title>Node4&#45;&gt;Node5</title>
<path fill="none" stroke="midnightblue" d="M526.228,-37.0026C534.886,-38.3293 543.805,-39.6959 552.286,-40.9955"/>
<polygon fill="midnightblue" stroke="midnightblue" points="551.953,-44.4852 562.368,-42.5403 553.013,-37.566 551.953,-44.4852"/>
</g>
<!-- Node21 -->
<g id="node21" class="node"><title>Node21</title>
<g id="a_node21"><a xlink:href="../../d6/d21/class_screen.html#a5d40342bbe33c27c9e0e24bd8709d1f6" target="_top" xlink:title="Screen.showAndAnim">
<polygon fill="white" stroke="black" points="1158.5,-0.5 1158.5,-19.5 1279.5,-19.5 1279.5,-0.5 1158.5,-0.5"/>
<text text-anchor="middle" x="1219" y="-7.5" font-family="Helvetica,sans-Serif" font-size="10.00">Screen.showAndAnim</text>
</a>
</g>
</g>
<!-- Node4&#45;&gt;Node21 -->
<g id="edge35" class="edge"><title>Node4&#45;&gt;Node21</title>
<path fill="none" stroke="midnightblue" d="M526.452,-22.7787C577.753,-17.2375 658.132,-10 728,-10 728,-10 728,-10 882,-10 973.966,-10 1080.09,-10 1148.06,-10"/>
<polygon fill="midnightblue" stroke="midnightblue" points="1148.22,-13.5001 1158.22,-10 1148.22,-6.5001 1148.22,-13.5001"/>
</g>
<!-- Node6 -->
<g id="node6" class="node"><title>Node6</title>
<g id="a_node6"><a xlink:href="../../d2/d3e/class_level1.html#a324da1e22a7a87fa4bb1859b5774bdba" target="_top" xlink:title="Level1.updateFrame">
<polygon fill="white" stroke="black" points="672,-95.5 672,-114.5 786,-114.5 786,-95.5 672,-95.5"/>
<text text-anchor="middle" x="729" y="-102.5" font-family="Helvetica,sans-Serif" font-size="10.00">Level1.updateFrame</text>
</a>
</g>
</g>
<!-- Node5&#45;&gt;Node6 -->
<g id="edge5" class="edge"><title>Node5&#45;&gt;Node6</title>
<path fill="none" stroke="midnightblue" d="M621.424,-57.5405C642.191,-66.7883 673.904,-80.9102 697.34,-91.3468"/>
<polygon fill="midnightblue" stroke="midnightblue" points="695.947,-94.5576 706.506,-95.4284 698.794,-88.163 695.947,-94.5576"/>
</g>
<!-- Node7 -->
<g id="node7" class="node"><title>Node7</title>
<g id="a_node7"><a xlink:href="../../d2/d3e/class_level1.html#a78a7fb5633734b1815af8db43db23a41" target="_top" xlink:title="Level1.updateSprites">
<polygon fill="white" stroke="black" points="822,-142.5 822,-161.5 940,-161.5 940,-142.5 822,-142.5"/>
<text text-anchor="middle" x="881" y="-149.5" font-family="Helvetica,sans-Serif" font-size="10.00">Level1.updateSprites</text>
</a>
</g>
</g>
<!-- Node6&#45;&gt;Node7 -->
<g id="edge6" class="edge"><title>Node6&#45;&gt;Node7</title>
<path fill="none" stroke="midnightblue" d="M760.355,-114.511C783.254,-121.686 814.883,-131.597 839.87,-139.426"/>
<polygon fill="midnightblue" stroke="midnightblue" points="838.844,-142.772 849.433,-142.422 840.937,-136.092 838.844,-142.772"/>
</g>
<!-- Node28 -->
<g id="node28" class="node"><title>Node28</title>
<g id="a_node28"><a xlink:href="../../d2/d3e/class_level1.html#a5f552e875916d0cf7a74896401584b2a" target="_top" xlink:title="Level1.updateTimer">
<polygon fill="white" stroke="black" points="825.5,-95.5 825.5,-114.5 936.5,-114.5 936.5,-95.5 825.5,-95.5"/>
<text text-anchor="middle" x="881" y="-102.5" font-family="Helvetica,sans-Serif" font-size="10.00">Level1.updateTimer</text>
</a>
</g>
</g>
<!-- Node6&#45;&gt;Node28 -->
<g id="edge34" class="edge"><title>Node6&#45;&gt;Node28</title>
<path fill="none" stroke="midnightblue" d="M786.281,-105C795.683,-105 805.504,-105 815.1,-105"/>
<polygon fill="midnightblue" stroke="midnightblue" points="815.394,-108.5 825.394,-105 815.394,-101.5 815.394,-108.5"/>
</g>
<!-- Node8 -->
<g id="node8" class="node"><title>Node8</title>
<g id="a_node8"><a xlink:href="../../dd/d7a/class_enemy.html#ab653212b50d9e64ba497ae18696d3678" target="_top" xlink:title="Enemy.moveSprite">
<polygon fill="white" stroke="black" points="995.5,-266.5 995.5,-285.5 1102.5,-285.5 1102.5,-266.5 995.5,-266.5"/>
<text text-anchor="middle" x="1049" y="-273.5" font-family="Helvetica,sans-Serif" font-size="10.00">Enemy.moveSprite</text>
</a>
</g>
</g>
<!-- Node7&#45;&gt;Node8 -->
<g id="edge7" class="edge"><title>Node7&#45;&gt;Node8</title>
<path fill="none" stroke="midnightblue" d="M887.729,-161.518C900.707,-182.232 934.474,-231.579 976,-257 979.437,-259.104 983.105,-260.977 986.895,-262.645"/>
<polygon fill="midnightblue" stroke="midnightblue" points="985.923,-266.022 996.512,-266.381 988.458,-259.497 985.923,-266.022"/>
</g>
<!-- Node12 -->
<g id="node12" class="node"><title>Node12</title>
<g id="a_node12"><a xlink:href="../../d8/d53/class_player.html#a1b7a0a6c68deb202a672d42e205d5a21" target="_top" xlink:title="Player.moveSprite">
<polygon fill="white" stroke="black" points="997,-228.5 997,-247.5 1101,-247.5 1101,-228.5 997,-228.5"/>
<text text-anchor="middle" x="1049" y="-235.5" font-family="Helvetica,sans-Serif" font-size="10.00">Player.moveSprite</text>
</a>
</g>
</g>
<!-- Node7&#45;&gt;Node12 -->
<g id="edge11" class="edge"><title>Node7&#45;&gt;Node12</title>
<path fill="none" stroke="midnightblue" d="M892.745,-161.675C909.399,-176.181 942.979,-203.51 976,-219 981.047,-221.368 986.437,-223.477 991.911,-225.348"/>
<polygon fill="midnightblue" stroke="midnightblue" points="991.21,-228.796 1001.8,-228.461 993.313,-222.119 991.21,-228.796"/>
</g>
<!-- Node13 -->
<g id="node13" class="node"><title>Node13</title>
<g id="a_node13"><a xlink:href="../../dd/d7a/class_enemy.html#a9b6840dcc6b8165268e957fc43d95b06" target="_top" xlink:title="Enemy.makePoop">
<polygon fill="white" stroke="black" points="998,-190.5 998,-209.5 1100,-209.5 1100,-190.5 998,-190.5"/>
<text text-anchor="middle" x="1049" y="-197.5" font-family="Helvetica,sans-Serif" font-size="10.00">Enemy.makePoop</text>
</a>
</g>
</g>
<!-- Node7&#45;&gt;Node13 -->
<g id="edge14" class="edge"><title>Node7&#45;&gt;Node13</title>
<path fill="none" stroke="midnightblue" d="M911.963,-161.589C930.38,-167.397 954.49,-174.847 976,-181 983.953,-183.275 992.428,-185.6 1000.67,-187.807"/>
<polygon fill="midnightblue" stroke="midnightblue" points="999.987,-191.248 1010.55,-190.43 1001.78,-184.482 999.987,-191.248"/>
</g>
<!-- Node14 -->
<g id="node14" class="node"><title>Node14</title>
<g id="a_node14"><a xlink:href="../../d2/d3e/class_level1.html#aa75f107bf925594da75a1d82cf64044d" target="_top" xlink:title="Level1.returnCollisions">
<polygon fill="white" stroke="black" points="987,-152.5 987,-171.5 1111,-171.5 1111,-152.5 987,-152.5"/>
<text text-anchor="middle" x="1049" y="-159.5" font-family="Helvetica,sans-Serif" font-size="10.00">Level1.returnCollisions</text>
</a>
</g>
</g>
<!-- Node7&#45;&gt;Node14 -->
<g id="edge16" class="edge"><title>Node7&#45;&gt;Node14</title>
<path fill="none" stroke="midnightblue" d="M940.059,-155.498C951.892,-156.21 964.47,-156.968 976.703,-157.705"/>
<polygon fill="midnightblue" stroke="midnightblue" points="976.68,-161.21 986.873,-158.318 977.101,-154.223 976.68,-161.21"/>
</g>
<!-- Node18 -->
<g id="node18" class="node"><title>Node18</title>
<g id="a_node18"><a xlink:href="../../d2/d3e/class_level1.html#ac56e75129bb2946c38cfcf43608f3f05" target="_top" xlink:title="Level1.goNextLevel">
<polygon fill="white" stroke="black" points="994,-38.5 994,-57.5 1104,-57.5 1104,-38.5 994,-38.5"/>
<text text-anchor="middle" x="1049" y="-45.5" font-family="Helvetica,sans-Serif" font-size="10.00">Level1.goNextLevel</text>
</a>
</g>
</g>
<!-- Node7&#45;&gt;Node18 -->
<g id="edge20" class="edge"><title>Node7&#45;&gt;Node18</title>
<path fill="none" stroke="midnightblue" d="M909.59,-142.426C919.909,-137.932 931.24,-131.817 940,-124 962.355,-104.049 951.838,-84.7189 976,-67 978.658,-65.0505 981.502,-63.3009 984.466,-61.7306"/>
<polygon fill="midnightblue" stroke="midnightblue" points="986.016,-64.871 993.662,-57.5376 983.111,-58.5018 986.016,-64.871"/>
</g>
<!-- Node26 -->
<g id="node26" class="node"><title>Node26</title>
<g id="a_node26"><a xlink:href="../../d2/d3e/class_level1.html#a5e6976ef755d0e678034870e374ee4ca" target="_top" xlink:title="Level1.goGameOver">
<polygon fill="white" stroke="black" points="992,-114.5 992,-133.5 1106,-133.5 1106,-114.5 992,-114.5"/>
<text text-anchor="middle" x="1049" y="-121.5" font-family="Helvetica,sans-Serif" font-size="10.00">Level1.goGameOver</text>
</a>
</g>
</g>
<!-- Node7&#45;&gt;Node26 -->
<g id="edge29" class="edge"><title>Node7&#45;&gt;Node26</title>
<path fill="none" stroke="midnightblue" d="M938.663,-142.442C952.494,-140.109 967.414,-137.593 981.652,-135.191"/>
<polygon fill="midnightblue" stroke="midnightblue" points="982.595,-138.582 991.873,-133.467 981.43,-131.679 982.595,-138.582"/>
</g>
<!-- Node27 -->
<g id="node27" class="node"><title>Node27</title>
<g id="a_node27"><a xlink:href="../../d2/d3e/class_level1.html#a5995ba731849ced54b8f97fcc93ce4d9" target="_top" xlink:title="Level1.removeFromScreen">
<polygon fill="white" stroke="black" points="976.5,-76.5 976.5,-95.5 1121.5,-95.5 1121.5,-76.5 976.5,-76.5"/>
<text text-anchor="middle" x="1049" y="-83.5" font-family="Helvetica,sans-Serif" font-size="10.00">Level1.removeFromScreen</text>
</a>
</g>
</g>
<!-- Node7&#45;&gt;Node27 -->
<g id="edge33" class="edge"><title>Node7&#45;&gt;Node27</title>
<path fill="none" stroke="midnightblue" d="M902.219,-142.458C913.403,-137.124 927.524,-130.301 940,-124 956.149,-115.844 959.145,-111.573 976,-105 982.231,-102.57 988.884,-100.346 995.534,-98.3448"/>
<polygon fill="midnightblue" stroke="midnightblue" points="996.574,-101.688 1005.23,-95.5728 994.649,-94.9578 996.574,-101.688"/>
</g>
<!-- Node9 -->
<g id="node9" class="node"><title>Node9</title>
<g id="a_node9"><a xlink:href="../../d7/dbf/class_sprite.html#a4dd4a643703de09c632a0e7d70a570e7" target="_top" xlink:title="Sprite.getVelocity">
<polygon fill="white" stroke="black" points="1168.5,-304.5 1168.5,-323.5 1269.5,-323.5 1269.5,-304.5 1168.5,-304.5"/>
<text text-anchor="middle" x="1219" y="-311.5" font-family="Helvetica,sans-Serif" font-size="10.00">Sprite.getVelocity</text>
</a>
</g>
</g>
<!-- Node8&#45;&gt;Node9 -->
<g id="edge8" class="edge"><title>Node8&#45;&gt;Node9</title>
<path fill="none" stroke="midnightblue" d="M1092.39,-285.589C1114.76,-290.649 1142.4,-296.9 1166.05,-302.249"/>
<polygon fill="midnightblue" stroke="midnightblue" points="1165.39,-305.687 1175.91,-304.48 1166.93,-298.86 1165.39,-305.687"/>
</g>
<!-- Node10 -->
<g id="node10" class="node"><title>Node10</title>
<g id="a_node10"><a xlink:href="../../d7/dbf/class_sprite.html#ab8f846b7ba77ae72ad09f48da22ceea7" target="_top" xlink:title="Sprite.moveSprite">
<polygon fill="white" stroke="black" points="1167,-266.5 1167,-285.5 1271,-285.5 1271,-266.5 1167,-266.5"/>
<text text-anchor="middle" x="1219" y="-273.5" font-family="Helvetica,sans-Serif" font-size="10.00">Sprite.moveSprite</text>
</a>
</g>
</g>
<!-- Node8&#45;&gt;Node10 -->
<g id="edge9" class="edge"><title>Node8&#45;&gt;Node10</title>
<path fill="none" stroke="midnightblue" d="M1102.7,-276C1119.83,-276 1138.99,-276 1156.7,-276"/>
<polygon fill="midnightblue" stroke="midnightblue" points="1156.93,-279.5 1166.93,-276 1156.93,-272.5 1156.93,-279.5"/>
</g>
<!-- Node11 -->
<g id="node11" class="node"><title>Node11</title>
<g id="a_node11"><a xlink:href="../../d7/dbf/class_sprite.html#accdf1c21264c6ff648ece508cf176bfb" target="_top" xlink:title="Sprite.setVelocity">
<polygon fill="white" stroke="black" points="1169,-228.5 1169,-247.5 1269,-247.5 1269,-228.5 1169,-228.5"/>
<text text-anchor="middle" x="1219" y="-235.5" font-family="Helvetica,sans-Serif" font-size="10.00">Sprite.setVelocity</text>
</a>
</g>
</g>
<!-- Node8&#45;&gt;Node11 -->
<g id="edge10" class="edge"><title>Node8&#45;&gt;Node11</title>
<path fill="none" stroke="midnightblue" d="M1092.39,-266.411C1114.76,-261.351 1142.4,-255.1 1166.05,-249.751"/>
<polygon fill="midnightblue" stroke="midnightblue" points="1166.93,-253.14 1175.91,-247.52 1165.39,-246.313 1166.93,-253.14"/>
</g>
<!-- Node12&#45;&gt;Node10 -->
<g id="edge13" class="edge"><title>Node12&#45;&gt;Node10</title>
<path fill="none" stroke="midnightblue" d="M1092.39,-247.589C1114.76,-252.649 1142.4,-258.9 1166.05,-264.249"/>
<polygon fill="midnightblue" stroke="midnightblue" points="1165.39,-267.687 1175.91,-266.48 1166.93,-260.86 1165.39,-267.687"/>
</g>
<!-- Node12&#45;&gt;Node11 -->
<g id="edge12" class="edge"><title>Node12&#45;&gt;Node11</title>
<path fill="none" stroke="midnightblue" d="M1101.32,-238C1119.39,-238 1139.86,-238 1158.55,-238"/>
<polygon fill="midnightblue" stroke="midnightblue" points="1158.72,-241.5 1168.72,-238 1158.72,-234.5 1158.72,-241.5"/>
</g>
<!-- Node13&#45;&gt;Node11 -->
<g id="edge15" class="edge"><title>Node13&#45;&gt;Node11</title>
<path fill="none" stroke="midnightblue" d="M1092.39,-209.589C1114.76,-214.649 1142.4,-220.9 1166.05,-226.249"/>
<polygon fill="midnightblue" stroke="midnightblue" points="1165.39,-229.687 1175.91,-228.48 1166.93,-222.86 1165.39,-229.687"/>
</g>
<!-- Node15 -->
<g id="node15" class="node"><title>Node15</title>
<g id="a_node15"><a xlink:href="../../d7/da7/class_character.html#aa2149c166e797ae0ded67d9f768ac7f3" target="_top" xlink:title="Character.updateAll">
<polygon fill="white" stroke="black" points="1163.5,-190.5 1163.5,-209.5 1274.5,-209.5 1274.5,-190.5 1163.5,-190.5"/>
<text text-anchor="middle" x="1219" y="-197.5" font-family="Helvetica,sans-Serif" font-size="10.00">Character.updateAll</text>
</a>
</g>
</g>
<!-- Node14&#45;&gt;Node15 -->
<g id="edge17" class="edge"><title>Node14&#45;&gt;Node15</title>
<path fill="none" stroke="midnightblue" d="M1092.39,-171.589C1114.76,-176.649 1142.4,-182.9 1166.05,-188.249"/>
<polygon fill="midnightblue" stroke="midnightblue" points="1165.39,-191.687 1175.91,-190.48 1166.93,-184.86 1165.39,-191.687"/>
</g>
<!-- Node16 -->
<g id="node16" class="node"><title>Node16</title>
<g id="a_node16"><a xlink:href="../../d7/da7/class_character.html#ade25acccb27ac9aeb2752b2df29d075f" target="_top" xlink:title="Character.collisionUpdate">
<polygon fill="white" stroke="black" points="1316.5,-190.5 1316.5,-209.5 1455.5,-209.5 1455.5,-190.5 1316.5,-190.5"/>
<text text-anchor="middle" x="1386" y="-197.5" font-family="Helvetica,sans-Serif" font-size="10.00">Character.collisionUpdate</text>
</a>
</g>
</g>
<!-- Node15&#45;&gt;Node16 -->
<g id="edge18" class="edge"><title>Node15&#45;&gt;Node16</title>
<path fill="none" stroke="midnightblue" d="M1274.94,-200C1285.03,-200 1295.74,-200 1306.36,-200"/>
<polygon fill="midnightblue" stroke="midnightblue" points="1306.5,-203.5 1316.5,-200 1306.5,-196.5 1306.5,-203.5"/>
</g>
<!-- Node17 -->
<g id="node17" class="node"><title>Node17</title>
<g id="a_node17"><a xlink:href="../../d7/da7/class_character.html#ad223fcb54929116326bf8816d43f5173" target="_top" xlink:title="Character.checkCollide">
<polygon fill="white" stroke="black" points="1492.5,-190.5 1492.5,-209.5 1617.5,-209.5 1617.5,-190.5 1492.5,-190.5"/>
<text text-anchor="middle" x="1555" y="-197.5" font-family="Helvetica,sans-Serif" font-size="10.00">Character.checkCollide</text>
</a>
</g>
</g>
<!-- Node16&#45;&gt;Node17 -->
<g id="edge19" class="edge"><title>Node16&#45;&gt;Node17</title>
<path fill="none" stroke="midnightblue" d="M1455.89,-200C1464.61,-200 1473.54,-200 1482.31,-200"/>
<polygon fill="midnightblue" stroke="midnightblue" points="1482.48,-203.5 1492.48,-200 1482.48,-196.5 1482.48,-203.5"/>
</g>
<!-- Node18&#45;&gt;Node5 -->
<g id="edge23" class="edge"><title>Node18&#45;&gt;Node5</title>
<path fill="none" stroke="midnightblue" d="M993.736,-48C904.614,-48 728.848,-48 645.678,-48"/>
<polygon fill="midnightblue" stroke="midnightblue" points="645.528,-44.5001 635.528,-48 645.528,-51.5001 645.528,-44.5001"/>
</g>
<!-- Node19 -->
<g id="node19" class="node"><title>Node19</title>
<g id="a_node19"><a xlink:href="../../d7/da7/class_character.html#a4dc23a76b34bcbb84abba1b116847268" target="_top" xlink:title="Character.getHP">
<polygon fill="white" stroke="black" points="1171.5,-114.5 1171.5,-133.5 1266.5,-133.5 1266.5,-114.5 1171.5,-114.5"/>
<text text-anchor="middle" x="1219" y="-121.5" font-family="Helvetica,sans-Serif" font-size="10.00">Character.getHP</text>
</a>
</g>
</g>
<!-- Node18&#45;&gt;Node19 -->
<g id="edge21" class="edge"><title>Node18&#45;&gt;Node19</title>
<path fill="none" stroke="midnightblue" d="M1100.63,-57.5265C1108.08,-60.0035 1115.44,-63.1098 1122,-67 1142.01,-78.8654 1138.28,-92.6512 1158,-105 1161.34,-107.093 1164.93,-108.974 1168.64,-110.661"/>
<polygon fill="midnightblue" stroke="midnightblue" points="1167.43,-113.945 1178.01,-114.463 1170.06,-107.459 1167.43,-113.945"/>
</g>
<!-- Node20 -->
<g id="node20" class="node"><title>Node20</title>
<g id="a_node20"><a xlink:href="../../d2/d3e/class_level1.html#ac4098d447b9841cabec6be3bb719bd26" target="_top" xlink:title="Level1.clearElements">
<polygon fill="white" stroke="black" points="1159.5,-76.5 1159.5,-95.5 1278.5,-95.5 1278.5,-76.5 1159.5,-76.5"/>
<text text-anchor="middle" x="1219" y="-83.5" font-family="Helvetica,sans-Serif" font-size="10.00">Level1.clearElements</text>
</a>
</g>
</g>
<!-- Node18&#45;&gt;Node20 -->
<g id="edge22" class="edge"><title>Node18&#45;&gt;Node20</title>
<path fill="none" stroke="midnightblue" d="M1092.39,-57.589C1114.76,-62.6487 1142.4,-68.8996 1166.05,-74.2488"/>
<polygon fill="midnightblue" stroke="midnightblue" points="1165.39,-77.6875 1175.91,-76.4799 1166.93,-70.8599 1165.39,-77.6875"/>
</g>
<!-- Node18&#45;&gt;Node21 -->
<g id="edge24" class="edge"><title>Node18&#45;&gt;Node21</title>
<path fill="none" stroke="midnightblue" d="M1092.39,-38.411C1114.76,-33.3513 1142.4,-27.1004 1166.05,-21.7512"/>
<polygon fill="midnightblue" stroke="midnightblue" points="1166.93,-25.1401 1175.91,-19.5201 1165.39,-18.3125 1166.93,-25.1401"/>
</g>
<!-- Node25 -->
<g id="node25" class="node"><title>Node25</title>
<g id="a_node25"><a xlink:href="../../dd/d7a/class_enemy.html#a0b00e167bc151db783054dddb2f9b509" target="_top" xlink:title="Enemy.makeAngry">
<polygon fill="white" stroke="black" points="1166,-38.5 1166,-57.5 1272,-57.5 1272,-38.5 1166,-38.5"/>
<text text-anchor="middle" x="1219" y="-45.5" font-family="Helvetica,sans-Serif" font-size="10.00">Enemy.makeAngry</text>
</a>
</g>
</g>
<!-- Node18&#45;&gt;Node25 -->
<g id="edge28" class="edge"><title>Node18&#45;&gt;Node25</title>
<path fill="none" stroke="midnightblue" d="M1104.08,-48C1120.44,-48 1138.55,-48 1155.42,-48"/>
<polygon fill="midnightblue" stroke="midnightblue" points="1155.74,-51.5001 1165.74,-48 1155.74,-44.5001 1155.74,-51.5001"/>
</g>
<!-- Node22 -->
<g id="node22" class="node"><title>Node22</title>
<g id="a_node22"><a xlink:href="../../d6/d21/class_screen.html#a5d9534b81b96cfc0a00009dea6be6c09" target="_top" xlink:title="Screen.showScreen">
<polygon fill="white" stroke="black" points="1330.5,-95.5 1330.5,-114.5 1441.5,-114.5 1441.5,-95.5 1330.5,-95.5"/>
<text text-anchor="middle" x="1386" y="-102.5" font-family="Helvetica,sans-Serif" font-size="10.00">Screen.showScreen</text>
</a>
</g>
</g>
<!-- Node21&#45;&gt;Node22 -->
<g id="edge25" class="edge"><title>Node21&#45;&gt;Node22</title>
<path fill="none" stroke="midnightblue" d="M1256.59,-19.5346C1264.5,-22.1563 1272.68,-25.3135 1280,-29 1312.71,-45.4755 1346.27,-71.7194 1366.37,-88.6525"/>
<polygon fill="midnightblue" stroke="midnightblue" points="1364.25,-91.4432 1374.13,-95.2839 1368.8,-86.1238 1364.25,-91.4432"/>
</g>
<!-- Node24 -->
<g id="node24" class="node"><title>Node24</title>
<g id="a_node24"><a xlink:href="../../d6/d21/class_screen.html#a601576a0d49770789b2eb08328f09c53" target="_top" xlink:title="Screen.startAnim">
<polygon fill="white" stroke="black" points="1335.5,-0.5 1335.5,-19.5 1436.5,-19.5 1436.5,-0.5 1335.5,-0.5"/>
<text text-anchor="middle" x="1386" y="-7.5" font-family="Helvetica,sans-Serif" font-size="10.00">Screen.startAnim</text>
</a>
</g>
</g>
<!-- Node21&#45;&gt;Node24 -->
<g id="edge27" class="edge"><title>Node21&#45;&gt;Node24</title>
<path fill="none" stroke="midnightblue" d="M1279.57,-10C1294.42,-10 1310.35,-10 1325.21,-10"/>
<polygon fill="midnightblue" stroke="midnightblue" points="1325.3,-13.5001 1335.3,-10 1325.3,-6.5001 1325.3,-13.5001"/>
</g>
<!-- Node23 -->
<g id="node23" class="node"><title>Node23</title>
<g id="a_node23"><a xlink:href="../../d6/d21/class_screen.html#ac7ca0a382b3177bbea4e2a4e7c0f442e" target="_top" xlink:title="Screen.init">
<polygon fill="white" stroke="black" points="1521,-95.5 1521,-114.5 1589,-114.5 1589,-95.5 1521,-95.5"/>
<text text-anchor="middle" x="1555" y="-102.5" font-family="Helvetica,sans-Serif" font-size="10.00">Screen.init</text>
</a>
</g>
</g>
<!-- Node22&#45;&gt;Node23 -->
<g id="edge26" class="edge"><title>Node22&#45;&gt;Node23</title>
<path fill="none" stroke="midnightblue" d="M1441.68,-105C1463.98,-105 1489.4,-105 1510.41,-105"/>
<polygon fill="midnightblue" stroke="midnightblue" points="1510.65,-108.5 1520.65,-105 1510.65,-101.5 1510.65,-108.5"/>
</g>
<!-- Node26&#45;&gt;Node19 -->
<g id="edge30" class="edge"><title>Node26&#45;&gt;Node19</title>
<path fill="none" stroke="midnightblue" d="M1106.41,-124C1124.02,-124 1143.45,-124 1161.09,-124"/>
<polygon fill="midnightblue" stroke="midnightblue" points="1161.25,-127.5 1171.25,-124 1161.25,-120.5 1161.25,-127.5"/>
</g>
<!-- Node26&#45;&gt;Node20 -->
<g id="edge31" class="edge"><title>Node26&#45;&gt;Node20</title>
<path fill="none" stroke="midnightblue" d="M1092.39,-114.411C1114.76,-109.351 1142.4,-103.1 1166.05,-97.7512"/>
<polygon fill="midnightblue" stroke="midnightblue" points="1166.93,-101.14 1175.91,-95.5201 1165.39,-94.3125 1166.93,-101.14"/>
</g>
<!-- Node26&#45;&gt;Node22 -->
<g id="edge32" class="edge"><title>Node26&#45;&gt;Node22</title>
<path fill="none" stroke="midnightblue" d="M1090.59,-133.569C1136.76,-143.021 1214.29,-154.524 1280,-143 1306.54,-138.345 1335.21,-127.544 1355.88,-118.642"/>
<polygon fill="midnightblue" stroke="midnightblue" points="1357.32,-121.831 1365.05,-114.588 1354.49,-115.428 1357.32,-121.831"/>
</g>
</g>
</svg>
