<?xml version="1.0" encoding="UTF-8" standalone="no"?>
<!DOCTYPE svg PUBLIC "-//W3C//DTD SVG 1.1//EN"
 "http://www.w3.org/Graphics/SVG/1.1/DTD/svg11.dtd">
<!-- Generated by graphviz version 2.36.0 (20140111.2315)
 -->
<!-- Title: GameWin.addAllButtons Pages: 1 -->
<svg width="1620pt" height="408pt"
 viewBox="0.00 0.00 1620.00 408.00" xmlns="http://www.w3.org/2000/svg" xmlns:xlink="http://www.w3.org/1999/xlink">
<g id="graph0" class="graph" transform="scale(1 1) rotate(0) translate(4 404)">
<title>GameWin.addAllButtons</title>
<polygon fill="white" stroke="none" points="-4,4 -4,-404 1616,-404 1616,4 -4,4"/>
<!-- Node1 -->
<g id="node1" class="node"><title>Node1</title>
<polygon fill="#bfbfbf" stroke="black" points="0,-47.5 0,-66.5 132,-66.5 132,-47.5 0,-47.5"/>
<text text-anchor="middle" x="66" y="-54.5" font-family="Helvetica,sans-Serif" font-size="10.00">GameWin.addAllButtons</text>
</g>
<!-- Node2 -->
<g id="node2" class="node"><title>Node2</title>
<g id="a_node2"><a xlink:href="../../d2/db8/class_menu.html#aff7a7627619921545f94547ab6135007" target="_top" xlink:title="Menu.addButton">
<polygon fill="white" stroke="black" points="168,-47.5 168,-66.5 264,-66.5 264,-47.5 168,-47.5"/>
<text text-anchor="middle" x="216" y="-54.5" font-family="Helvetica,sans-Serif" font-size="10.00">Menu.addButton</text>
</a>
</g>
</g>
<!-- Node1&#45;&gt;Node2 -->
<g id="edge1" class="edge"><title>Node1&#45;&gt;Node2</title>
<path fill="none" stroke="midnightblue" d="M132.346,-57C140.731,-57 149.266,-57 157.513,-57"/>
<polygon fill="midnightblue" stroke="midnightblue" points="157.771,-60.5001 167.771,-57 157.771,-53.5001 157.771,-60.5001"/>
</g>
<!-- Node3 -->
<g id="node3" class="node"><title>Node3</title>
<g id="a_node3"><a xlink:href="../../d2/db8/class_menu.html#a53c8b072d5ec777994fed9ee76c98561" target="_top" xlink:title="Menu.handle">
<polygon fill="white" stroke="black" points="300,-47.5 300,-66.5 378,-66.5 378,-47.5 300,-47.5"/>
<text text-anchor="middle" x="339" y="-54.5" font-family="Helvetica,sans-Serif" font-size="10.00">Menu.handle</text>
</a>
</g>
</g>
<!-- Node2&#45;&gt;Node3 -->
<g id="edge2" class="edge"><title>Node2&#45;&gt;Node3</title>
<path fill="none" stroke="midnightblue" d="M264.128,-57C272.526,-57 281.285,-57 289.714,-57"/>
<polygon fill="midnightblue" stroke="midnightblue" points="289.785,-60.5001 299.785,-57 289.785,-53.5001 289.785,-60.5001"/>
</g>
<!-- Node4 -->
<g id="node4" class="node"><title>Node4</title>
<g id="a_node4"><a xlink:href="../../d2/db8/class_menu.html#ab6296880308728ced459f772430d025b" target="_top" xlink:title="Menu.createGame">
<polygon fill="white" stroke="black" points="414,-47.5 414,-66.5 520,-66.5 520,-47.5 414,-47.5"/>
<text text-anchor="middle" x="467" y="-54.5" font-family="Helvetica,sans-Serif" font-size="10.00">Menu.createGame</text>
</a>
</g>
</g>
<!-- Node3&#45;&gt;Node4 -->
<g id="edge3" class="edge"><title>Node3&#45;&gt;Node4</title>
<path fill="none" stroke="midnightblue" d="M378.146,-57C386.163,-57 394.82,-57 403.465,-57"/>
<polygon fill="midnightblue" stroke="midnightblue" points="403.57,-60.5001 413.57,-57 403.57,-53.5001 403.57,-60.5001"/>
</g>
<!-- Node5 -->
<g id="node5" class="node"><title>Node5</title>
<g id="a_node5"><a xlink:href="../../d2/d3e/class_level1.html#a0871325d07c0614d5f1f2df7df13b703" target="_top" xlink:title="Level1.start">
<polygon fill="white" stroke="black" points="556.5,-76.5 556.5,-95.5 629.5,-95.5 629.5,-76.5 556.5,-76.5"/>
<text text-anchor="middle" x="593" y="-83.5" font-family="Helvetica,sans-Serif" font-size="10.00">Level1.start</text>
</a>
</g>
</g>
<!-- Node4&#45;&gt;Node5 -->
<g id="edge4" class="edge"><title>Node4&#45;&gt;Node5</title>
<path fill="none" stroke="midnightblue" d="M508.946,-66.5761C520.85,-69.3601 533.93,-72.419 546.116,-75.2691"/>
<polygon fill="midnightblue" stroke="midnightblue" points="545.563,-78.7342 556.098,-77.6035 547.157,-71.9181 545.563,-78.7342"/>
</g>
<!-- Node22 -->
<g id="node22" class="node"><title>Node22</title>
<g id="a_node22"><a xlink:href="../../d6/d21/class_screen.html#a5d40342bbe33c27c9e0e24bd8709d1f6" target="_top" xlink:title="Screen.showAndAnim">
<polygon fill="white" stroke="black" points="1152.5,-0.5 1152.5,-19.5 1273.5,-19.5 1273.5,-0.5 1152.5,-0.5"/>
<text text-anchor="middle" x="1213" y="-7.5" font-family="Helvetica,sans-Serif" font-size="10.00">Screen.showAndAnim</text>
</a>
</g>
</g>
<!-- Node4&#45;&gt;Node22 -->
<g id="edge37" class="edge"><title>Node4&#45;&gt;Node22</title>
<path fill="none" stroke="midnightblue" d="M520.353,-47.8318C571.579,-39.6658 651.904,-29 722,-29 722,-29 722,-29 876,-29 968.113,-29 1074.21,-21.7939 1142.12,-16.2575"/>
<polygon fill="midnightblue" stroke="midnightblue" points="1142.6,-19.7304 1152.27,-15.4192 1142.02,-12.7542 1142.6,-19.7304"/>
</g>
<!-- Node6 -->
<g id="node6" class="node"><title>Node6</title>
<g id="a_node6"><a xlink:href="../../d2/d3e/class_level1.html#a324da1e22a7a87fa4bb1859b5774bdba" target="_top" xlink:title="Level1.updateFrame">
<polygon fill="white" stroke="black" points="666,-209.5 666,-228.5 780,-228.5 780,-209.5 666,-209.5"/>
<text text-anchor="middle" x="723" y="-216.5" font-family="Helvetica,sans-Serif" font-size="10.00">Level1.updateFrame</text>
</a>
</g>
</g>
<!-- Node5&#45;&gt;Node6 -->
<g id="edge5" class="edge"><title>Node5&#45;&gt;Node6</title>
<path fill="none" stroke="midnightblue" d="M603.205,-95.565C624.596,-117.791 677.91,-173.188 705.251,-201.597"/>
<polygon fill="midnightblue" stroke="midnightblue" points="703.076,-204.385 712.533,-209.163 708.12,-199.531 703.076,-204.385"/>
</g>
<!-- Node7 -->
<g id="node7" class="node"><title>Node7</title>
<g id="a_node7"><a xlink:href="../../d2/d3e/class_level1.html#a78a7fb5633734b1815af8db43db23a41" target="_top" xlink:title="Level1.updateSprites">
<polygon fill="white" stroke="black" points="816,-209.5 816,-228.5 934,-228.5 934,-209.5 816,-209.5"/>
<text text-anchor="middle" x="875" y="-216.5" font-family="Helvetica,sans-Serif" font-size="10.00">Level1.updateSprites</text>
</a>
</g>
</g>
<!-- Node6&#45;&gt;Node7 -->
<g id="edge6" class="edge"><title>Node6&#45;&gt;Node7</title>
<path fill="none" stroke="midnightblue" d="M780.281,-219C788.555,-219 797.154,-219 805.639,-219"/>
<polygon fill="midnightblue" stroke="midnightblue" points="805.902,-222.5 815.902,-219 805.902,-215.5 805.902,-222.5"/>
</g>
<!-- Node30 -->
<g id="node30" class="node"><title>Node30</title>
<g id="a_node30"><a xlink:href="../../d2/d3e/class_level1.html#a5f552e875916d0cf7a74896401584b2a" target="_top" xlink:title="Level1.updateTimer">
<polygon fill="white" stroke="black" points="819.5,-247.5 819.5,-266.5 930.5,-266.5 930.5,-247.5 819.5,-247.5"/>
<text text-anchor="middle" x="875" y="-254.5" font-family="Helvetica,sans-Serif" font-size="10.00">Level1.updateTimer</text>
</a>
</g>
</g>
<!-- Node6&#45;&gt;Node30 -->
<g id="edge36" class="edge"><title>Node6&#45;&gt;Node30</title>
<path fill="none" stroke="midnightblue" d="M761.851,-228.589C781.467,-233.558 805.619,-239.677 826.479,-244.961"/>
<polygon fill="midnightblue" stroke="midnightblue" points="825.868,-248.417 836.421,-247.48 827.587,-241.631 825.868,-248.417"/>
</g>
<!-- Node8 -->
<g id="node8" class="node"><title>Node8</title>
<g id="a_node8"><a xlink:href="../../d7/da7/class_character.html#ac0b4f4ace84c8e5aa60f05515806015d" target="_top" xlink:title="Character.setHP">
<polygon fill="white" stroke="black" points="995.5,-266.5 995.5,-285.5 1090.5,-285.5 1090.5,-266.5 995.5,-266.5"/>
<text text-anchor="middle" x="1043" y="-273.5" font-family="Helvetica,sans-Serif" font-size="10.00">Character.setHP</text>
</a>
</g>
</g>
<!-- Node7&#45;&gt;Node8 -->
<g id="edge7" class="edge"><title>Node7&#45;&gt;Node8</title>
<path fill="none" stroke="midnightblue" d="M908.57,-228.599C916.96,-231.362 925.903,-234.566 934,-238 950.656,-245.063 953.145,-250.427 970,-257 976.231,-259.43 982.884,-261.654 989.534,-263.655"/>
<polygon fill="midnightblue" stroke="midnightblue" points="988.649,-267.042 999.226,-266.427 990.574,-260.312 988.649,-267.042"/>
</g>
<!-- Node9 -->
<g id="node9" class="node"><title>Node9</title>
<g id="a_node9"><a xlink:href="../../dd/d7a/class_enemy.html#ab653212b50d9e64ba497ae18696d3678" target="_top" xlink:title="Enemy.moveSprite">
<polygon fill="white" stroke="black" points="989.5,-228.5 989.5,-247.5 1096.5,-247.5 1096.5,-228.5 989.5,-228.5"/>
<text text-anchor="middle" x="1043" y="-235.5" font-family="Helvetica,sans-Serif" font-size="10.00">Enemy.moveSprite</text>
</a>
</g>
</g>
<!-- Node7&#45;&gt;Node9 -->
<g id="edge8" class="edge"><title>Node7&#45;&gt;Node9</title>
<path fill="none" stroke="midnightblue" d="M934.059,-225.645C948.644,-227.315 964.362,-229.114 979.169,-230.808"/>
<polygon fill="midnightblue" stroke="midnightblue" points="978.915,-234.302 989.248,-231.962 979.711,-227.348 978.915,-234.302"/>
</g>
<!-- Node13 -->
<g id="node13" class="node"><title>Node13</title>
<g id="a_node13"><a xlink:href="../../d8/d53/class_player.html#a1b7a0a6c68deb202a672d42e205d5a21" target="_top" xlink:title="Player.moveSprite">
<polygon fill="white" stroke="black" points="991,-190.5 991,-209.5 1095,-209.5 1095,-190.5 991,-190.5"/>
<text text-anchor="middle" x="1043" y="-197.5" font-family="Helvetica,sans-Serif" font-size="10.00">Player.moveSprite</text>
</a>
</g>
</g>
<!-- Node7&#45;&gt;Node13 -->
<g id="edge12" class="edge"><title>Node7&#45;&gt;Node13</title>
<path fill="none" stroke="midnightblue" d="M934.059,-212.355C949.1,-210.633 965.346,-208.774 980.554,-207.033"/>
<polygon fill="midnightblue" stroke="midnightblue" points="981.352,-210.465 990.89,-205.85 980.556,-203.51 981.352,-210.465"/>
</g>
<!-- Node14 -->
<g id="node14" class="node"><title>Node14</title>
<g id="a_node14"><a xlink:href="../../dd/d7a/class_enemy.html#a9b6840dcc6b8165268e957fc43d95b06" target="_top" xlink:title="Enemy.makePoop">
<polygon fill="white" stroke="black" points="992,-152.5 992,-171.5 1094,-171.5 1094,-152.5 992,-152.5"/>
<text text-anchor="middle" x="1043" y="-159.5" font-family="Helvetica,sans-Serif" font-size="10.00">Enemy.makePoop</text>
</a>
</g>
</g>
<!-- Node7&#45;&gt;Node14 -->
<g id="edge15" class="edge"><title>Node7&#45;&gt;Node14</title>
<path fill="none" stroke="midnightblue" d="M897.366,-209.462C916.233,-201.257 944.612,-189.444 970,-181 977.165,-178.617 984.808,-176.332 992.339,-174.225"/>
<polygon fill="midnightblue" stroke="midnightblue" points="993.392,-177.566 1002.12,-171.564 991.555,-170.811 993.392,-177.566"/>
</g>
<!-- Node15 -->
<g id="node15" class="node"><title>Node15</title>
<g id="a_node15"><a xlink:href="../../d2/d3e/class_level1.html#aa75f107bf925594da75a1d82cf64044d" target="_top" xlink:title="Level1.returnCollisions">
<polygon fill="white" stroke="black" points="981,-342.5 981,-361.5 1105,-361.5 1105,-342.5 981,-342.5"/>
<text text-anchor="middle" x="1043" y="-349.5" font-family="Helvetica,sans-Serif" font-size="10.00">Level1.returnCollisions</text>
</a>
</g>
</g>
<!-- Node7&#45;&gt;Node15 -->
<g id="edge17" class="edge"><title>Node7&#45;&gt;Node15</title>
<path fill="none" stroke="midnightblue" d="M919.911,-228.576C925.074,-231.033 929.939,-234.121 934,-238 966.648,-269.19 936.453,-302.779 970,-333 971.756,-334.582 973.628,-336.035 975.591,-337.369"/>
<polygon fill="midnightblue" stroke="midnightblue" points="974.269,-340.64 984.701,-342.49 977.699,-334.539 974.269,-340.64"/>
</g>
<!-- Node19 -->
<g id="node19" class="node"><title>Node19</title>
<g id="a_node19"><a xlink:href="../../d2/d3e/class_level1.html#ac56e75129bb2946c38cfcf43608f3f05" target="_top" xlink:title="Level1.goNextLevel">
<polygon fill="white" stroke="black" points="988,-76.5 988,-95.5 1098,-95.5 1098,-76.5 988,-76.5"/>
<text text-anchor="middle" x="1043" y="-83.5" font-family="Helvetica,sans-Serif" font-size="10.00">Level1.goNextLevel</text>
</a>
</g>
</g>
<!-- Node7&#45;&gt;Node19 -->
<g id="edge21" class="edge"><title>Node7&#45;&gt;Node19</title>
<path fill="none" stroke="midnightblue" d="M881.14,-209.326C893.395,-187.226 926.581,-132.808 970,-105 973.334,-102.865 976.901,-100.968 980.597,-99.2845"/>
<polygon fill="midnightblue" stroke="midnightblue" points="982.01,-102.489 989.992,-95.5209 979.407,-95.9907 982.01,-102.489"/>
</g>
<!-- Node27 -->
<g id="node27" class="node"><title>Node27</title>
<g id="a_node27"><a xlink:href="../../d2/d3e/class_level1.html#a5e6976ef755d0e678034870e374ee4ca" target="_top" xlink:title="Level1.goGameOver">
<polygon fill="white" stroke="black" points="986,-114.5 986,-133.5 1100,-133.5 1100,-114.5 986,-114.5"/>
<text text-anchor="middle" x="1043" y="-121.5" font-family="Helvetica,sans-Serif" font-size="10.00">Level1.goGameOver</text>
</a>
</g>
</g>
<!-- Node7&#45;&gt;Node27 -->
<g id="edge30" class="edge"><title>Node7&#45;&gt;Node27</title>
<path fill="none" stroke="midnightblue" d="M885.176,-209.278C900.972,-193.114 934.993,-160.737 970,-143 974.568,-140.686 979.446,-138.633 984.429,-136.816"/>
<polygon fill="midnightblue" stroke="midnightblue" points="985.701,-140.081 994.086,-133.605 983.492,-133.438 985.701,-140.081"/>
</g>
<!-- Node28 -->
<g id="node28" class="node"><title>Node28</title>
<g id="a_node28"><a xlink:href="../../d2/d3e/class_level1.html#a5995ba731849ced54b8f97fcc93ce4d9" target="_top" xlink:title="Level1.removeFromScreen">
<polygon fill="white" stroke="black" points="970.5,-380.5 970.5,-399.5 1115.5,-399.5 1115.5,-380.5 970.5,-380.5"/>
<text text-anchor="middle" x="1043" y="-387.5" font-family="Helvetica,sans-Serif" font-size="10.00">Level1.removeFromScreen</text>
</a>
</g>
</g>
<!-- Node7&#45;&gt;Node28 -->
<g id="edge34" class="edge"><title>Node7&#45;&gt;Node28</title>
<path fill="none" stroke="midnightblue" d="M921.142,-228.644C925.918,-231.091 930.353,-234.157 934,-238 976.157,-282.418 926.561,-327.835 970,-371 971.444,-372.435 972.983,-373.766 974.6,-374.999"/>
<polygon fill="midnightblue" stroke="midnightblue" points="972.914,-378.072 983.252,-380.39 976.616,-372.131 972.914,-378.072"/>
</g>
<!-- Node29 -->
<g id="node29" class="node"><title>Node29</title>
<g id="a_node29"><a xlink:href="../../d7/da7/class_character.html#aad64a9dc8ceea8b806cf2e1908cd0df8" target="_top" xlink:title="Character.setFull">
<polygon fill="white" stroke="black" points="995,-304.5 995,-323.5 1091,-323.5 1091,-304.5 995,-304.5"/>
<text text-anchor="middle" x="1043" y="-311.5" font-family="Helvetica,sans-Serif" font-size="10.00">Character.setFull</text>
</a>
</g>
</g>
<!-- Node7&#45;&gt;Node29 -->
<g id="edge35" class="edge"><title>Node7&#45;&gt;Node29</title>
<path fill="none" stroke="midnightblue" d="M917.418,-228.61C923.33,-231.076 929.069,-234.157 934,-238 957.633,-256.419 945.838,-277.281 970,-295 974.561,-298.345 979.666,-301.101 984.996,-303.373"/>
<polygon fill="midnightblue" stroke="midnightblue" points="984.169,-306.798 994.763,-306.96 986.583,-300.227 984.169,-306.798"/>
</g>
<!-- Node10 -->
<g id="node10" class="node"><title>Node10</title>
<g id="a_node10"><a xlink:href="../../d7/dbf/class_sprite.html#a4dd4a643703de09c632a0e7d70a570e7" target="_top" xlink:title="Sprite.getVelocity">
<polygon fill="white" stroke="black" points="1162.5,-266.5 1162.5,-285.5 1263.5,-285.5 1263.5,-266.5 1162.5,-266.5"/>
<text text-anchor="middle" x="1213" y="-273.5" font-family="Helvetica,sans-Serif" font-size="10.00">Sprite.getVelocity</text>
</a>
</g>
</g>
<!-- Node9&#45;&gt;Node10 -->
<g id="edge9" class="edge"><title>Node9&#45;&gt;Node10</title>
<path fill="none" stroke="midnightblue" d="M1086.39,-247.589C1108.76,-252.649 1136.4,-258.9 1160.05,-264.249"/>
<polygon fill="midnightblue" stroke="midnightblue" points="1159.39,-267.687 1169.91,-266.48 1160.93,-260.86 1159.39,-267.687"/>
</g>
<!-- Node11 -->
<g id="node11" class="node"><title>Node11</title>
<g id="a_node11"><a xlink:href="../../d7/dbf/class_sprite.html#ab8f846b7ba77ae72ad09f48da22ceea7" target="_top" xlink:title="Sprite.moveSprite">
<polygon fill="white" stroke="black" points="1161,-228.5 1161,-247.5 1265,-247.5 1265,-228.5 1161,-228.5"/>
<text text-anchor="middle" x="1213" y="-235.5" font-family="Helvetica,sans-Serif" font-size="10.00">Sprite.moveSprite</text>
</a>
</g>
</g>
<!-- Node9&#45;&gt;Node11 -->
<g id="edge10" class="edge"><title>Node9&#45;&gt;Node11</title>
<path fill="none" stroke="midnightblue" d="M1096.7,-238C1113.83,-238 1132.99,-238 1150.7,-238"/>
<polygon fill="midnightblue" stroke="midnightblue" points="1150.93,-241.5 1160.93,-238 1150.93,-234.5 1150.93,-241.5"/>
</g>
<!-- Node12 -->
<g id="node12" class="node"><title>Node12</title>
<g id="a_node12"><a xlink:href="../../d7/dbf/class_sprite.html#accdf1c21264c6ff648ece508cf176bfb" target="_top" xlink:title="Sprite.setVelocity">
<polygon fill="white" stroke="black" points="1163,-190.5 1163,-209.5 1263,-209.5 1263,-190.5 1163,-190.5"/>
<text text-anchor="middle" x="1213" y="-197.5" font-family="Helvetica,sans-Serif" font-size="10.00">Sprite.setVelocity</text>
</a>
</g>
</g>
<!-- Node9&#45;&gt;Node12 -->
<g id="edge11" class="edge"><title>Node9&#45;&gt;Node12</title>
<path fill="none" stroke="midnightblue" d="M1086.39,-228.411C1108.76,-223.351 1136.4,-217.1 1160.05,-211.751"/>
<polygon fill="midnightblue" stroke="midnightblue" points="1160.93,-215.14 1169.91,-209.52 1159.39,-208.313 1160.93,-215.14"/>
</g>
<!-- Node13&#45;&gt;Node11 -->
<g id="edge14" class="edge"><title>Node13&#45;&gt;Node11</title>
<path fill="none" stroke="midnightblue" d="M1086.39,-209.589C1108.76,-214.649 1136.4,-220.9 1160.05,-226.249"/>
<polygon fill="midnightblue" stroke="midnightblue" points="1159.39,-229.687 1169.91,-228.48 1160.93,-222.86 1159.39,-229.687"/>
</g>
<!-- Node13&#45;&gt;Node12 -->
<g id="edge13" class="edge"><title>Node13&#45;&gt;Node12</title>
<path fill="none" stroke="midnightblue" d="M1095.32,-200C1113.39,-200 1133.86,-200 1152.55,-200"/>
<polygon fill="midnightblue" stroke="midnightblue" points="1152.72,-203.5 1162.72,-200 1152.72,-196.5 1152.72,-203.5"/>
</g>
<!-- Node14&#45;&gt;Node12 -->
<g id="edge16" class="edge"><title>Node14&#45;&gt;Node12</title>
<path fill="none" stroke="midnightblue" d="M1086.39,-171.589C1108.76,-176.649 1136.4,-182.9 1160.05,-188.249"/>
<polygon fill="midnightblue" stroke="midnightblue" points="1159.39,-191.687 1169.91,-190.48 1160.93,-184.86 1159.39,-191.687"/>
</g>
<!-- Node16 -->
<g id="node16" class="node"><title>Node16</title>
<g id="a_node16"><a xlink:href="../../d7/da7/class_character.html#aa2149c166e797ae0ded67d9f768ac7f3" target="_top" xlink:title="Character.updateAll">
<polygon fill="white" stroke="black" points="1157.5,-342.5 1157.5,-361.5 1268.5,-361.5 1268.5,-342.5 1157.5,-342.5"/>
<text text-anchor="middle" x="1213" y="-349.5" font-family="Helvetica,sans-Serif" font-size="10.00">Character.updateAll</text>
</a>
</g>
</g>
<!-- Node15&#45;&gt;Node16 -->
<g id="edge18" class="edge"><title>Node15&#45;&gt;Node16</title>
<path fill="none" stroke="midnightblue" d="M1105.13,-352C1118.73,-352 1133.21,-352 1146.96,-352"/>
<polygon fill="midnightblue" stroke="midnightblue" points="1147.32,-355.5 1157.32,-352 1147.32,-348.5 1147.32,-355.5"/>
</g>
<!-- Node17 -->
<g id="node17" class="node"><title>Node17</title>
<g id="a_node17"><a xlink:href="../../d7/da7/class_character.html#ade25acccb27ac9aeb2752b2df29d075f" target="_top" xlink:title="Character.collisionUpdate">
<polygon fill="white" stroke="black" points="1310.5,-342.5 1310.5,-361.5 1449.5,-361.5 1449.5,-342.5 1310.5,-342.5"/>
<text text-anchor="middle" x="1380" y="-349.5" font-family="Helvetica,sans-Serif" font-size="10.00">Character.collisionUpdate</text>
</a>
</g>
</g>
<!-- Node16&#45;&gt;Node17 -->
<g id="edge19" class="edge"><title>Node16&#45;&gt;Node17</title>
<path fill="none" stroke="midnightblue" d="M1268.94,-352C1279.03,-352 1289.74,-352 1300.36,-352"/>
<polygon fill="midnightblue" stroke="midnightblue" points="1300.5,-355.5 1310.5,-352 1300.5,-348.5 1300.5,-355.5"/>
</g>
<!-- Node18 -->
<g id="node18" class="node"><title>Node18</title>
<g id="a_node18"><a xlink:href="../../d7/da7/class_character.html#ad223fcb54929116326bf8816d43f5173" target="_top" xlink:title="Character.checkCollide">
<polygon fill="white" stroke="black" points="1486.5,-342.5 1486.5,-361.5 1611.5,-361.5 1611.5,-342.5 1486.5,-342.5"/>
<text text-anchor="middle" x="1549" y="-349.5" font-family="Helvetica,sans-Serif" font-size="10.00">Character.checkCollide</text>
</a>
</g>
</g>
<!-- Node17&#45;&gt;Node18 -->
<g id="edge20" class="edge"><title>Node17&#45;&gt;Node18</title>
<path fill="none" stroke="midnightblue" d="M1449.89,-352C1458.61,-352 1467.54,-352 1476.31,-352"/>
<polygon fill="midnightblue" stroke="midnightblue" points="1476.48,-355.5 1486.48,-352 1476.48,-348.5 1476.48,-355.5"/>
</g>
<!-- Node19&#45;&gt;Node5 -->
<g id="edge24" class="edge"><title>Node19&#45;&gt;Node5</title>
<path fill="none" stroke="midnightblue" d="M987.736,-86C898.614,-86 722.848,-86 639.678,-86"/>
<polygon fill="midnightblue" stroke="midnightblue" points="639.528,-82.5001 629.528,-86 639.528,-89.5001 639.528,-82.5001"/>
</g>
<!-- Node20 -->
<g id="node20" class="node"><title>Node20</title>
<g id="a_node20"><a xlink:href="../../d7/da7/class_character.html#a4dc23a76b34bcbb84abba1b116847268" target="_top" xlink:title="Character.getHP">
<polygon fill="white" stroke="black" points="1165.5,-114.5 1165.5,-133.5 1260.5,-133.5 1260.5,-114.5 1165.5,-114.5"/>
<text text-anchor="middle" x="1213" y="-121.5" font-family="Helvetica,sans-Serif" font-size="10.00">Character.getHP</text>
</a>
</g>
</g>
<!-- Node19&#45;&gt;Node20 -->
<g id="edge22" class="edge"><title>Node19&#45;&gt;Node20</title>
<path fill="none" stroke="midnightblue" d="M1086.39,-95.589C1108.76,-100.649 1136.4,-106.9 1160.05,-112.249"/>
<polygon fill="midnightblue" stroke="midnightblue" points="1159.39,-115.687 1169.91,-114.48 1160.93,-108.86 1159.39,-115.687"/>
</g>
<!-- Node21 -->
<g id="node21" class="node"><title>Node21</title>
<g id="a_node21"><a xlink:href="../../d2/d3e/class_level1.html#ac4098d447b9841cabec6be3bb719bd26" target="_top" xlink:title="Level1.clearElements">
<polygon fill="white" stroke="black" points="1153.5,-76.5 1153.5,-95.5 1272.5,-95.5 1272.5,-76.5 1153.5,-76.5"/>
<text text-anchor="middle" x="1213" y="-83.5" font-family="Helvetica,sans-Serif" font-size="10.00">Level1.clearElements</text>
</a>
</g>
</g>
<!-- Node19&#45;&gt;Node21 -->
<g id="edge23" class="edge"><title>Node19&#45;&gt;Node21</title>
<path fill="none" stroke="midnightblue" d="M1098.08,-86C1112.42,-86 1128.1,-86 1143.11,-86"/>
<polygon fill="midnightblue" stroke="midnightblue" points="1143.37,-89.5001 1153.37,-86 1143.37,-82.5001 1143.37,-89.5001"/>
</g>
<!-- Node19&#45;&gt;Node22 -->
<g id="edge25" class="edge"><title>Node19&#45;&gt;Node22</title>
<path fill="none" stroke="midnightblue" d="M1060.03,-76.3733C1080.74,-64.2081 1118.16,-43.1529 1152,-29 1157.36,-26.7582 1163.08,-24.628 1168.78,-22.6597"/>
<polygon fill="midnightblue" stroke="midnightblue" points="1169.9,-25.9763 1178.29,-19.509 1167.7,-19.3315 1169.9,-25.9763"/>
</g>
<!-- Node26 -->
<g id="node26" class="node"><title>Node26</title>
<g id="a_node26"><a xlink:href="../../dd/d7a/class_enemy.html#a0b00e167bc151db783054dddb2f9b509" target="_top" xlink:title="Enemy.makeAngry">
<polygon fill="white" stroke="black" points="1160,-38.5 1160,-57.5 1266,-57.5 1266,-38.5 1160,-38.5"/>
<text text-anchor="middle" x="1213" y="-45.5" font-family="Helvetica,sans-Serif" font-size="10.00">Enemy.makeAngry</text>
</a>
</g>
</g>
<!-- Node19&#45;&gt;Node26 -->
<g id="edge29" class="edge"><title>Node19&#45;&gt;Node26</title>
<path fill="none" stroke="midnightblue" d="M1086.39,-76.411C1108.76,-71.3513 1136.4,-65.1004 1160.05,-59.7512"/>
<polygon fill="midnightblue" stroke="midnightblue" points="1160.93,-63.1401 1169.91,-57.5201 1159.39,-56.3125 1160.93,-63.1401"/>
</g>
<!-- Node23 -->
<g id="node23" class="node"><title>Node23</title>
<g id="a_node23"><a xlink:href="../../d6/d21/class_screen.html#a5d9534b81b96cfc0a00009dea6be6c09" target="_top" xlink:title="Screen.showScreen">
<polygon fill="white" stroke="black" points="1324.5,-95.5 1324.5,-114.5 1435.5,-114.5 1435.5,-95.5 1324.5,-95.5"/>
<text text-anchor="middle" x="1380" y="-102.5" font-family="Helvetica,sans-Serif" font-size="10.00">Screen.showScreen</text>
</a>
</g>
</g>
<!-- Node22&#45;&gt;Node23 -->
<g id="edge26" class="edge"><title>Node22&#45;&gt;Node23</title>
<path fill="none" stroke="midnightblue" d="M1250.59,-19.5346C1258.5,-22.1563 1266.68,-25.3135 1274,-29 1306.71,-45.4755 1340.27,-71.7194 1360.37,-88.6525"/>
<polygon fill="midnightblue" stroke="midnightblue" points="1358.25,-91.4432 1368.13,-95.2839 1362.8,-86.1238 1358.25,-91.4432"/>
</g>
<!-- Node25 -->
<g id="node25" class="node"><title>Node25</title>
<g id="a_node25"><a xlink:href="../../d6/d21/class_screen.html#a601576a0d49770789b2eb08328f09c53" target="_top" xlink:title="Screen.startAnim">
<polygon fill="white" stroke="black" points="1329.5,-0.5 1329.5,-19.5 1430.5,-19.5 1430.5,-0.5 1329.5,-0.5"/>
<text text-anchor="middle" x="1380" y="-7.5" font-family="Helvetica,sans-Serif" font-size="10.00">Screen.startAnim</text>
</a>
</g>
</g>
<!-- Node22&#45;&gt;Node25 -->
<g id="edge28" class="edge"><title>Node22&#45;&gt;Node25</title>
<path fill="none" stroke="midnightblue" d="M1273.57,-10C1288.42,-10 1304.35,-10 1319.21,-10"/>
<polygon fill="midnightblue" stroke="midnightblue" points="1319.3,-13.5001 1329.3,-10 1319.3,-6.5001 1319.3,-13.5001"/>
</g>
<!-- Node24 -->
<g id="node24" class="node"><title>Node24</title>
<g id="a_node24"><a xlink:href="../../d6/d21/class_screen.html#ac7ca0a382b3177bbea4e2a4e7c0f442e" target="_top" xlink:title="Screen.init">
<polygon fill="white" stroke="black" points="1515,-95.5 1515,-114.5 1583,-114.5 1583,-95.5 1515,-95.5"/>
<text text-anchor="middle" x="1549" y="-102.5" font-family="Helvetica,sans-Serif" font-size="10.00">Screen.init</text>
</a>
</g>
</g>
<!-- Node23&#45;&gt;Node24 -->
<g id="edge27" class="edge"><title>Node23&#45;&gt;Node24</title>
<path fill="none" stroke="midnightblue" d="M1435.68,-105C1457.98,-105 1483.4,-105 1504.41,-105"/>
<polygon fill="midnightblue" stroke="midnightblue" points="1504.65,-108.5 1514.65,-105 1504.65,-101.5 1504.65,-108.5"/>
</g>
<!-- Node27&#45;&gt;Node20 -->
<g id="edge31" class="edge"><title>Node27&#45;&gt;Node20</title>
<path fill="none" stroke="midnightblue" d="M1100.41,-124C1118.02,-124 1137.45,-124 1155.09,-124"/>
<polygon fill="midnightblue" stroke="midnightblue" points="1155.25,-127.5 1165.25,-124 1155.25,-120.5 1155.25,-127.5"/>
</g>
<!-- Node27&#45;&gt;Node21 -->
<g id="edge32" class="edge"><title>Node27&#45;&gt;Node21</title>
<path fill="none" stroke="midnightblue" d="M1086.39,-114.411C1108.76,-109.351 1136.4,-103.1 1160.05,-97.7512"/>
<polygon fill="midnightblue" stroke="midnightblue" points="1160.93,-101.14 1169.91,-95.5201 1159.39,-94.3125 1160.93,-101.14"/>
</g>
<!-- Node27&#45;&gt;Node23 -->
<g id="edge33" class="edge"><title>Node27&#45;&gt;Node23</title>
<path fill="none" stroke="midnightblue" d="M1084.59,-133.569C1130.76,-143.021 1208.29,-154.524 1274,-143 1300.54,-138.345 1329.21,-127.544 1349.88,-118.642"/>
<polygon fill="midnightblue" stroke="midnightblue" points="1351.32,-121.831 1359.05,-114.588 1348.49,-115.428 1351.32,-121.831"/>
</g>
</g>
</svg>
