<?xml version="1.0" encoding="UTF-8" standalone="no"?>
<!DOCTYPE svg PUBLIC "-//W3C//DTD SVG 1.1//EN"
 "http://www.w3.org/Graphics/SVG/1.1/DTD/svg11.dtd">
<!-- Generated by graphviz version 2.36.0 (20140111.2315)
 -->
<!-- Title: Enemy.moveSprite Pages: 1 -->
<svg width="1192pt" height="104pt"
 viewBox="0.00 0.00 1192.00 104.00" xmlns="http://www.w3.org/2000/svg" xmlns:xlink="http://www.w3.org/1999/xlink">
<g id="graph0" class="graph" transform="scale(1 1) rotate(0) translate(4 100)">
<title>Enemy.moveSprite</title>
<polygon fill="white" stroke="none" points="-4,4 -4,-100 1188,-100 1188,4 -4,4"/>
<!-- Node1 -->
<g id="node1" class="node"><title>Node1</title>
<polygon fill="#bfbfbf" stroke="black" points="0.5,-19.5 0.5,-38.5 107.5,-38.5 107.5,-19.5 0.5,-19.5"/>
<text text-anchor="middle" x="54" y="-26.5" font-family="Helvetica,sans-Serif" font-size="10.00">Enemy.moveSprite</text>
</g>
<!-- Node2 -->
<g id="node2" class="node"><title>Node2</title>
<g id="a_node2"><a xlink:href="../../d2/d3e/class_level1.html#a78a7fb5633734b1815af8db43db23a41" target="_top" xlink:title="Level1.updateSprites">
<polygon fill="white" stroke="black" points="144,-19.5 144,-38.5 262,-38.5 262,-19.5 144,-19.5"/>
<text text-anchor="middle" x="203" y="-26.5" font-family="Helvetica,sans-Serif" font-size="10.00">Level1.updateSprites</text>
</a>
</g>
</g>
<!-- Node1&#45;&gt;Node2 -->
<g id="edge1" class="edge"><title>Node1&#45;&gt;Node2</title>
<path fill="none" stroke="midnightblue" d="M117.75,-29C126.455,-29 135.366,-29 143.98,-29"/>
<polygon fill="midnightblue" stroke="midnightblue" points="117.655,-25.5001 107.655,-29 117.655,-32.5001 117.655,-25.5001"/>
</g>
<!-- Node3 -->
<g id="node3" class="node"><title>Node3</title>
<g id="a_node3"><a xlink:href="../../d2/d3e/class_level1.html#a324da1e22a7a87fa4bb1859b5774bdba" target="_top" xlink:title="Level1.updateFrame">
<polygon fill="white" stroke="black" points="298,-38.5 298,-57.5 412,-57.5 412,-38.5 298,-38.5"/>
<text text-anchor="middle" x="355" y="-45.5" font-family="Helvetica,sans-Serif" font-size="10.00">Level1.updateFrame</text>
</a>
</g>
</g>
<!-- Node2&#45;&gt;Node3 -->
<g id="edge2" class="edge"><title>Node2&#45;&gt;Node3</title>
<path fill="none" stroke="midnightblue" d="M272.386,-37.6623C280.941,-38.7459 289.612,-39.8442 297.949,-40.9002"/>
<polygon fill="midnightblue" stroke="midnightblue" points="272.784,-34.1848 262.423,-36.4003 271.904,-41.1293 272.784,-34.1848"/>
</g>
<!-- Node4 -->
<g id="node4" class="node"><title>Node4</title>
<g id="a_node4"><a xlink:href="../../d2/d3e/class_level1.html#a0871325d07c0614d5f1f2df7df13b703" target="_top" xlink:title="Level1.start">
<polygon fill="white" stroke="black" points="448.5,-38.5 448.5,-57.5 521.5,-57.5 521.5,-38.5 448.5,-38.5"/>
<text text-anchor="middle" x="485" y="-45.5" font-family="Helvetica,sans-Serif" font-size="10.00">Level1.start</text>
</a>
</g>
</g>
<!-- Node3&#45;&gt;Node4 -->
<g id="edge3" class="edge"><title>Node3&#45;&gt;Node4</title>
<path fill="none" stroke="midnightblue" d="M422.221,-48C431.159,-48 440.039,-48 448.163,-48"/>
<polygon fill="midnightblue" stroke="midnightblue" points="422.143,-44.5001 412.143,-48 422.143,-51.5001 422.143,-44.5001"/>
</g>
<!-- Node5 -->
<g id="node5" class="node"><title>Node5</title>
<g id="a_node5"><a xlink:href="../../d2/d3e/class_level1.html#ac56e75129bb2946c38cfcf43608f3f05" target="_top" xlink:title="Level1.goNextLevel">
<polygon fill="white" stroke="black" points="558,-0.5 558,-19.5 668,-19.5 668,-0.5 558,-0.5"/>
<text text-anchor="middle" x="613" y="-7.5" font-family="Helvetica,sans-Serif" font-size="10.00">Level1.goNextLevel</text>
</a>
</g>
</g>
<!-- Node4&#45;&gt;Node5 -->
<g id="edge4" class="edge"><title>Node4&#45;&gt;Node5</title>
<path fill="none" stroke="midnightblue" d="M527.564,-35.4647C544.705,-30.2952 564.25,-24.4009 580.215,-19.5859"/>
<polygon fill="midnightblue" stroke="midnightblue" points="526.359,-32.1726 517.795,-38.411 528.38,-38.8744 526.359,-32.1726"/>
</g>
<!-- Node6 -->
<g id="node6" class="node"><title>Node6</title>
<g id="a_node6"><a xlink:href="../../d2/db8/class_menu.html#ab6296880308728ced459f772430d025b" target="_top" xlink:title="Menu.createGame">
<polygon fill="white" stroke="black" points="560,-38.5 560,-57.5 666,-57.5 666,-38.5 560,-38.5"/>
<text text-anchor="middle" x="613" y="-45.5" font-family="Helvetica,sans-Serif" font-size="10.00">Menu.createGame</text>
</a>
</g>
</g>
<!-- Node4&#45;&gt;Node6 -->
<g id="edge6" class="edge"><title>Node4&#45;&gt;Node6</title>
<path fill="none" stroke="midnightblue" d="M532.04,-48C541.024,-48 550.506,-48 559.676,-48"/>
<polygon fill="midnightblue" stroke="midnightblue" points="531.77,-44.5001 521.77,-48 531.769,-51.5001 531.77,-44.5001"/>
</g>
<!-- Node5&#45;&gt;Node2 -->
<g id="edge5" class="edge"><title>Node5&#45;&gt;Node2</title>
<path fill="none" stroke="midnightblue" d="M547.511,-13.0032C468.981,-16.6602 337.505,-22.7828 262.023,-26.2979"/>
<polygon fill="midnightblue" stroke="midnightblue" points="547.932,-16.4874 557.759,-12.5259 547.607,-9.49501 547.932,-16.4874"/>
</g>
<!-- Node7 -->
<g id="node7" class="node"><title>Node7</title>
<g id="a_node7"><a xlink:href="../../d2/db8/class_menu.html#a53c8b072d5ec777994fed9ee76c98561" target="_top" xlink:title="Menu.handle">
<polygon fill="white" stroke="black" points="704,-38.5 704,-57.5 782,-57.5 782,-38.5 704,-38.5"/>
<text text-anchor="middle" x="743" y="-45.5" font-family="Helvetica,sans-Serif" font-size="10.00">Menu.handle</text>
</a>
</g>
</g>
<!-- Node6&#45;&gt;Node7 -->
<g id="edge7" class="edge"><title>Node6&#45;&gt;Node7</title>
<path fill="none" stroke="midnightblue" d="M676.198,-48C685.592,-48 695.038,-48 703.726,-48"/>
<polygon fill="midnightblue" stroke="midnightblue" points="676.063,-44.5001 666.062,-48 676.062,-51.5001 676.063,-44.5001"/>
</g>
<!-- Node8 -->
<g id="node8" class="node"><title>Node8</title>
<g id="a_node8"><a xlink:href="../../d2/db8/class_menu.html#aff7a7627619921545f94547ab6135007" target="_top" xlink:title="Menu.addButton">
<polygon fill="white" stroke="black" points="818,-38.5 818,-57.5 914,-57.5 914,-38.5 818,-38.5"/>
<text text-anchor="middle" x="866" y="-45.5" font-family="Helvetica,sans-Serif" font-size="10.00">Menu.addButton</text>
</a>
</g>
</g>
<!-- Node7&#45;&gt;Node8 -->
<g id="edge8" class="edge"><title>Node7&#45;&gt;Node8</title>
<path fill="none" stroke="midnightblue" d="M792.539,-48C800.803,-48 809.377,-48 817.612,-48"/>
<polygon fill="midnightblue" stroke="midnightblue" points="792.285,-44.5001 782.285,-48 792.285,-51.5001 792.285,-44.5001"/>
</g>
<!-- Node9 -->
<g id="node9" class="node"><title>Node9</title>
<g id="a_node9"><a xlink:href="../../d5/db1/class_game_over.html#abb505ac8c26999beff755f4c299370da" target="_top" xlink:title="GameOver.addAllButtons">
<polygon fill="white" stroke="black" points="950.5,-76.5 950.5,-95.5 1087.5,-95.5 1087.5,-76.5 950.5,-76.5"/>
<text text-anchor="middle" x="1019" y="-83.5" font-family="Helvetica,sans-Serif" font-size="10.00">GameOver.addAllButtons</text>
</a>
</g>
</g>
<!-- Node8&#45;&gt;Node9 -->
<g id="edge9" class="edge"><title>Node8&#45;&gt;Node9</title>
<path fill="none" stroke="midnightblue" d="M914.843,-60.04C935.939,-65.3488 960.377,-71.4988 980.17,-76.4799"/>
<polygon fill="midnightblue" stroke="midnightblue" points="915.656,-56.6354 905.104,-57.589 913.947,-63.4237 915.656,-56.6354"/>
</g>
<!-- Node10 -->
<g id="node10" class="node"><title>Node10</title>
<g id="a_node10"><a xlink:href="../../dd/d7f/class_game_win.html#a0ebbfe299d7456f57ae3dbf3817b7f8d" target="_top" xlink:title="GameWin.addAllButtons">
<polygon fill="white" stroke="black" points="953,-38.5 953,-57.5 1085,-57.5 1085,-38.5 953,-38.5"/>
<text text-anchor="middle" x="1019" y="-45.5" font-family="Helvetica,sans-Serif" font-size="10.00">GameWin.addAllButtons</text>
</a>
</g>
</g>
<!-- Node8&#45;&gt;Node10 -->
<g id="edge10" class="edge"><title>Node8&#45;&gt;Node10</title>
<path fill="none" stroke="midnightblue" d="M924.592,-48C933.822,-48 943.431,-48 952.823,-48"/>
<polygon fill="midnightblue" stroke="midnightblue" points="924.363,-44.5001 914.363,-48 924.363,-51.5001 924.363,-44.5001"/>
</g>
<!-- Node11 -->
<g id="node11" class="node"><title>Node11</title>
<g id="a_node11"><a xlink:href="../../d2/db8/class_menu.html#a461e62e606af2391013ce3aaf92a8cc7" target="_top" xlink:title="Menu.addAllButtons">
<polygon fill="white" stroke="black" points="962.5,-0.5 962.5,-19.5 1075.5,-19.5 1075.5,-0.5 962.5,-0.5"/>
<text text-anchor="middle" x="1019" y="-7.5" font-family="Helvetica,sans-Serif" font-size="10.00">Menu.addAllButtons</text>
</a>
</g>
</g>
<!-- Node8&#45;&gt;Node11 -->
<g id="edge11" class="edge"><title>Node8&#45;&gt;Node11</title>
<path fill="none" stroke="midnightblue" d="M914.843,-35.96C935.939,-30.6512 960.377,-24.5012 980.17,-19.5201"/>
<polygon fill="midnightblue" stroke="midnightblue" points="913.947,-32.5763 905.104,-38.411 915.656,-39.3646 913.947,-32.5763"/>
</g>
<!-- Node12 -->
<g id="node12" class="node"><title>Node12</title>
<g id="a_node12"><a xlink:href="../../d2/db8/class_menu.html#a3c99ad09e9f2f975c1a0d0597642651a" target="_top" xlink:title="Menu.init">
<polygon fill="white" stroke="black" points="1124,-0.5 1124,-19.5 1184,-19.5 1184,-0.5 1124,-0.5"/>
<text text-anchor="middle" x="1154" y="-7.5" font-family="Helvetica,sans-Serif" font-size="10.00">Menu.init</text>
</a>
</g>
</g>
<!-- Node11&#45;&gt;Node12 -->
<g id="edge12" class="edge"><title>Node11&#45;&gt;Node12</title>
<path fill="none" stroke="midnightblue" d="M1085.78,-10C1099.09,-10 1112.45,-10 1123.71,-10"/>
<polygon fill="midnightblue" stroke="midnightblue" points="1085.63,-6.5001 1075.63,-10 1085.63,-13.5001 1085.63,-6.5001"/>
</g>
</g>
</svg>
