<?xml version="1.0" encoding="UTF-8" standalone="no"?>
<!DOCTYPE svg PUBLIC "-//W3C//DTD SVG 1.1//EN"
 "http://www.w3.org/Graphics/SVG/1.1/DTD/svg11.dtd">
<!-- Generated by graphviz version 2.36.0 (20140111.2315)
 -->
<!-- Title: Enemy.makePoop Pages: 1 -->
<svg width="1186pt" height="85pt"
 viewBox="0.00 0.00 1186.00 85.00" xmlns="http://www.w3.org/2000/svg" xmlns:xlink="http://www.w3.org/1999/xlink">
<g id="graph0" class="graph" transform="scale(1 1) rotate(0) translate(4 81)">
<title>Enemy.makePoop</title>
<polygon fill="white" stroke="none" points="-4,4 -4,-81 1182,-81 1182,4 -4,4"/>
<!-- Node1 -->
<g id="node1" class="node"><title>Node1</title>
<polygon fill="#bfbfbf" stroke="black" points="0,-19.5 0,-38.5 102,-38.5 102,-19.5 0,-19.5"/>
<text text-anchor="middle" x="51" y="-26.5" font-family="Helvetica,sans-Serif" font-size="10.00">Enemy.makePoop</text>
</g>
<!-- Node2 -->
<g id="node2" class="node"><title>Node2</title>
<g id="a_node2"><a xlink:href="../../d2/d3e/class_level1.html#a78a7fb5633734b1815af8db43db23a41" target="_top" xlink:title="Level1.updateSprites">
<polygon fill="white" stroke="black" points="138,-19.5 138,-38.5 256,-38.5 256,-19.5 138,-19.5"/>
<text text-anchor="middle" x="197" y="-26.5" font-family="Helvetica,sans-Serif" font-size="10.00">Level1.updateSprites</text>
</a>
</g>
</g>
<!-- Node1&#45;&gt;Node2 -->
<g id="edge1" class="edge"><title>Node1&#45;&gt;Node2</title>
<path fill="none" stroke="midnightblue" d="M112.378,-29C120.7,-29 129.234,-29 137.521,-29"/>
<polygon fill="midnightblue" stroke="midnightblue" points="112.364,-25.5001 102.364,-29 112.364,-32.5001 112.364,-25.5001"/>
</g>
<!-- Node3 -->
<g id="node3" class="node"><title>Node3</title>
<g id="a_node3"><a xlink:href="../../d2/d3e/class_level1.html#a324da1e22a7a87fa4bb1859b5774bdba" target="_top" xlink:title="Level1.updateFrame">
<polygon fill="white" stroke="black" points="292,-38.5 292,-57.5 406,-57.5 406,-38.5 292,-38.5"/>
<text text-anchor="middle" x="349" y="-45.5" font-family="Helvetica,sans-Serif" font-size="10.00">Level1.updateFrame</text>
</a>
</g>
</g>
<!-- Node2&#45;&gt;Node3 -->
<g id="edge2" class="edge"><title>Node2&#45;&gt;Node3</title>
<path fill="none" stroke="midnightblue" d="M266.386,-37.6623C274.941,-38.7459 283.612,-39.8442 291.949,-40.9002"/>
<polygon fill="midnightblue" stroke="midnightblue" points="266.784,-34.1848 256.423,-36.4003 265.904,-41.1293 266.784,-34.1848"/>
</g>
<!-- Node4 -->
<g id="node4" class="node"><title>Node4</title>
<g id="a_node4"><a xlink:href="../../d2/d3e/class_level1.html#a0871325d07c0614d5f1f2df7df13b703" target="_top" xlink:title="Level1.start">
<polygon fill="white" stroke="black" points="442.5,-38.5 442.5,-57.5 515.5,-57.5 515.5,-38.5 442.5,-38.5"/>
<text text-anchor="middle" x="479" y="-45.5" font-family="Helvetica,sans-Serif" font-size="10.00">Level1.start</text>
</a>
</g>
</g>
<!-- Node3&#45;&gt;Node4 -->
<g id="edge3" class="edge"><title>Node3&#45;&gt;Node4</title>
<path fill="none" stroke="midnightblue" d="M416.221,-48C425.159,-48 434.039,-48 442.163,-48"/>
<polygon fill="midnightblue" stroke="midnightblue" points="416.143,-44.5001 406.143,-48 416.143,-51.5001 416.143,-44.5001"/>
</g>
<!-- Node5 -->
<g id="node5" class="node"><title>Node5</title>
<g id="a_node5"><a xlink:href="../../d2/d3e/class_level1.html#ac56e75129bb2946c38cfcf43608f3f05" target="_top" xlink:title="Level1.goNextLevel">
<polygon fill="white" stroke="black" points="552,-0.5 552,-19.5 662,-19.5 662,-0.5 552,-0.5"/>
<text text-anchor="middle" x="607" y="-7.5" font-family="Helvetica,sans-Serif" font-size="10.00">Level1.goNextLevel</text>
</a>
</g>
</g>
<!-- Node4&#45;&gt;Node5 -->
<g id="edge4" class="edge"><title>Node4&#45;&gt;Node5</title>
<path fill="none" stroke="midnightblue" d="M521.564,-35.4647C538.705,-30.2952 558.25,-24.4009 574.215,-19.5859"/>
<polygon fill="midnightblue" stroke="midnightblue" points="520.359,-32.1726 511.795,-38.411 522.38,-38.8744 520.359,-32.1726"/>
</g>
<!-- Node6 -->
<g id="node6" class="node"><title>Node6</title>
<g id="a_node6"><a xlink:href="../../d2/db8/class_menu.html#ab6296880308728ced459f772430d025b" target="_top" xlink:title="Menu.createGame">
<polygon fill="white" stroke="black" points="554,-38.5 554,-57.5 660,-57.5 660,-38.5 554,-38.5"/>
<text text-anchor="middle" x="607" y="-45.5" font-family="Helvetica,sans-Serif" font-size="10.00">Menu.createGame</text>
</a>
</g>
</g>
<!-- Node4&#45;&gt;Node6 -->
<g id="edge6" class="edge"><title>Node4&#45;&gt;Node6</title>
<path fill="none" stroke="midnightblue" d="M526.04,-48C535.024,-48 544.506,-48 553.676,-48"/>
<polygon fill="midnightblue" stroke="midnightblue" points="525.77,-44.5001 515.77,-48 525.769,-51.5001 525.77,-44.5001"/>
</g>
<!-- Node5&#45;&gt;Node2 -->
<g id="edge5" class="edge"><title>Node5&#45;&gt;Node2</title>
<path fill="none" stroke="midnightblue" d="M541.511,-13.0032C462.981,-16.6602 331.505,-22.7828 256.023,-26.2979"/>
<polygon fill="midnightblue" stroke="midnightblue" points="541.932,-16.4874 551.759,-12.5259 541.607,-9.49501 541.932,-16.4874"/>
</g>
<!-- Node7 -->
<g id="node7" class="node"><title>Node7</title>
<g id="a_node7"><a xlink:href="../../d2/db8/class_menu.html#a53c8b072d5ec777994fed9ee76c98561" target="_top" xlink:title="Menu.handle">
<polygon fill="white" stroke="black" points="698,-38.5 698,-57.5 776,-57.5 776,-38.5 698,-38.5"/>
<text text-anchor="middle" x="737" y="-45.5" font-family="Helvetica,sans-Serif" font-size="10.00">Menu.handle</text>
</a>
</g>
</g>
<!-- Node6&#45;&gt;Node7 -->
<g id="edge7" class="edge"><title>Node6&#45;&gt;Node7</title>
<path fill="none" stroke="midnightblue" d="M670.198,-48C679.592,-48 689.038,-48 697.726,-48"/>
<polygon fill="midnightblue" stroke="midnightblue" points="670.063,-44.5001 660.062,-48 670.062,-51.5001 670.063,-44.5001"/>
</g>
<!-- Node8 -->
<g id="node8" class="node"><title>Node8</title>
<g id="a_node8"><a xlink:href="../../d2/db8/class_menu.html#aff7a7627619921545f94547ab6135007" target="_top" xlink:title="Menu.addButton">
<polygon fill="white" stroke="black" points="812,-38.5 812,-57.5 908,-57.5 908,-38.5 812,-38.5"/>
<text text-anchor="middle" x="860" y="-45.5" font-family="Helvetica,sans-Serif" font-size="10.00">Menu.addButton</text>
</a>
</g>
</g>
<!-- Node7&#45;&gt;Node8 -->
<g id="edge8" class="edge"><title>Node7&#45;&gt;Node8</title>
<path fill="none" stroke="midnightblue" d="M786.539,-48C794.803,-48 803.377,-48 811.612,-48"/>
<polygon fill="midnightblue" stroke="midnightblue" points="786.285,-44.5001 776.285,-48 786.285,-51.5001 786.285,-44.5001"/>
</g>
<!-- Node9 -->
<g id="node9" class="node"><title>Node9</title>
<g id="a_node9"><a xlink:href="../../d5/db1/class_game_over.html#abb505ac8c26999beff755f4c299370da" target="_top" xlink:title="GameOver.addAllButtons">
<polygon fill="white" stroke="black" points="944.5,-57.5 944.5,-76.5 1081.5,-76.5 1081.5,-57.5 944.5,-57.5"/>
<text text-anchor="middle" x="1013" y="-64.5" font-family="Helvetica,sans-Serif" font-size="10.00">GameOver.addAllButtons</text>
</a>
</g>
</g>
<!-- Node8&#45;&gt;Node9 -->
<g id="edge9" class="edge"><title>Node8&#45;&gt;Node9</title>
<path fill="none" stroke="midnightblue" d="M918.484,-55.2331C926.936,-56.2966 935.709,-57.4005 944.343,-58.4869"/>
<polygon fill="midnightblue" stroke="midnightblue" points="918.722,-51.7355 908.363,-53.9596 917.848,-58.6807 918.722,-51.7355"/>
</g>
<!-- Node10 -->
<g id="node10" class="node"><title>Node10</title>
<g id="a_node10"><a xlink:href="../../d2/db8/class_menu.html#a461e62e606af2391013ce3aaf92a8cc7" target="_top" xlink:title="Menu.addAllButtons">
<polygon fill="white" stroke="black" points="956.5,-19.5 956.5,-38.5 1069.5,-38.5 1069.5,-19.5 956.5,-19.5"/>
<text text-anchor="middle" x="1013" y="-26.5" font-family="Helvetica,sans-Serif" font-size="10.00">Menu.addAllButtons</text>
</a>
</g>
</g>
<!-- Node8&#45;&gt;Node10 -->
<g id="edge10" class="edge"><title>Node8&#45;&gt;Node10</title>
<path fill="none" stroke="midnightblue" d="M918.577,-40.7552C930.965,-39.1965 944.036,-37.5517 956.35,-36.0024"/>
<polygon fill="midnightblue" stroke="midnightblue" points="917.848,-37.3193 908.363,-42.0404 918.722,-44.2645 917.848,-37.3193"/>
</g>
<!-- Node11 -->
<g id="node11" class="node"><title>Node11</title>
<g id="a_node11"><a xlink:href="../../d2/db8/class_menu.html#a3c99ad09e9f2f975c1a0d0597642651a" target="_top" xlink:title="Menu.init">
<polygon fill="white" stroke="black" points="1118,-19.5 1118,-38.5 1178,-38.5 1178,-19.5 1118,-19.5"/>
<text text-anchor="middle" x="1148" y="-26.5" font-family="Helvetica,sans-Serif" font-size="10.00">Menu.init</text>
</a>
</g>
</g>
<!-- Node10&#45;&gt;Node11 -->
<g id="edge11" class="edge"><title>Node10&#45;&gt;Node11</title>
<path fill="none" stroke="midnightblue" d="M1079.78,-29C1093.09,-29 1106.45,-29 1117.71,-29"/>
<polygon fill="midnightblue" stroke="midnightblue" points="1079.63,-25.5001 1069.63,-29 1079.63,-32.5001 1079.63,-25.5001"/>
</g>
</g>
</svg>
