<?xml version="1.0" encoding="UTF-8" standalone="no"?>
<!DOCTYPE svg PUBLIC "-//W3C//DTD SVG 1.1//EN"
 "http://www.w3.org/Graphics/SVG/1.1/DTD/svg11.dtd">
<!-- Generated by graphviz version 2.36.0 (20140111.2315)
 -->
<!-- Title: Menu.addAllButtons Pages: 1 -->
<!--zoomable 351 -->
<svg id="main" version="1.1" xmlns="http://www.w3.org/2000/svg" xmlns:xlink="http://www.w3.org/1999/xlink" xml:space="preserve" onload="init(evt)">
<style type="text/css"><![CDATA[
.edge:hover path { stroke: red; }
.edge:hover polygon { stroke: red; fill: red; }
]]></style>
<script type="text/javascript"><![CDATA[
var edges = document.getElementsByTagName('g');
if (edges && edges.length) {
  for (var i=0;i<edges.length;i++) {
    if (edges[i].id.substr(0,4)=='edge') {
      edges[i].setAttribute('class','edge');
    }
  }
}
]]></script>
        <defs>
                <circle id="rim" cx="0" cy="0" r="7"/>
                <circle id="rim2" cx="0" cy="0" r="3.5"/>
                <g id="zoomPlus">
                        <use xlink:href="#rim" fill="#404040">
                                <set attributeName="fill" to="#808080" begin="zoomplus.mouseover" end="zoomplus.mouseout"/>
                        </use>
                        <path d="M-4,0h8M0,-4v8" fill="none" stroke="white" stroke-width="1.5" pointer-events="none"/>
                </g>
                <g id="zoomMin">
                        <use xlink:href="#rim" fill="#404040">
                                <set attributeName="fill" to="#808080" begin="zoomminus.mouseover" end="zoomminus.mouseout"/>
                        </use>
                        <path d="M-4,0h8" fill="none" stroke="white" stroke-width="1.5" pointer-events="none"/>
                </g>
                <g id="dirArrow">
                        <path fill="none" stroke="white" stroke-width="1.5" d="M0,-3.0v7 M-2.5,-0.5L0,-3.0L2.5,-0.5"/>
                </g>
               <g id="resetDef">
                       <use xlink:href="#rim2" fill="#404040">
                               <set attributeName="fill" to="#808080" begin="reset.mouseover" end="reset.mouseout"/>
                       </use>
               </g>
        </defs>

<script type="text/javascript">
var viewWidth = 1602;
var viewHeight = 351;
var sectionId = 'dynsection-2';
</script>
<script xlink:href="../../svgpan.js"/>
<svg id="graph" class="graph">
<g id="viewport">
<title>Menu.addAllButtons</title>
<polygon fill="white" stroke="none" points="-4,4 -4,-347 1598,-347 1598,4 -4,4"/>
<!-- Node1 -->
<g id="node1" class="node"><title>Node1</title>
<polygon fill="#bfbfbf" stroke="black" points="0.5,-47.5 0.5,-66.5 113.5,-66.5 113.5,-47.5 0.5,-47.5"/>
<text text-anchor="middle" x="57" y="-54.5" font-family="Helvetica,sans-Serif" font-size="10.00">Menu.addAllButtons</text>
</g>
<!-- Node2 -->
<g id="node2" class="node"><title>Node2</title>
<g id="a_node2"><a xlink:href="../../d2/db8/class_menu.html#aff7a7627619921545f94547ab6135007" target="_top" xlink:title="Menu.addButton">
<polygon fill="white" stroke="black" points="150,-47.5 150,-66.5 246,-66.5 246,-47.5 150,-47.5"/>
<text text-anchor="middle" x="198" y="-54.5" font-family="Helvetica,sans-Serif" font-size="10.00">Menu.addButton</text>
</a>
</g>
</g>
<!-- Node1&#45;&gt;Node2 -->
<g id="edge1" class="edge"><title>Node1&#45;&gt;Node2</title>
<path fill="none" stroke="midnightblue" d="M113.736,-57C122.22,-57 130.989,-57 139.51,-57"/>
<polygon fill="midnightblue" stroke="midnightblue" points="139.744,-60.5001 149.744,-57 139.744,-53.5001 139.744,-60.5001"/>
</g>
<!-- Node3 -->
<g id="node3" class="node"><title>Node3</title>
<g id="a_node3"><a xlink:href="../../d2/db8/class_menu.html#a53c8b072d5ec777994fed9ee76c98561" target="_top" xlink:title="Menu.handle">
<polygon fill="white" stroke="black" points="282,-47.5 282,-66.5 360,-66.5 360,-47.5 282,-47.5"/>
<text text-anchor="middle" x="321" y="-54.5" font-family="Helvetica,sans-Serif" font-size="10.00">Menu.handle</text>
</a>
</g>
</g>
<!-- Node2&#45;&gt;Node3 -->
<g id="edge2" class="edge"><title>Node2&#45;&gt;Node3</title>
<path fill="none" stroke="midnightblue" d="M246.128,-57C254.526,-57 263.285,-57 271.714,-57"/>
<polygon fill="midnightblue" stroke="midnightblue" points="271.785,-60.5001 281.785,-57 271.785,-53.5001 271.785,-60.5001"/>
</g>
<!-- Node4 -->
<g id="node4" class="node"><title>Node4</title>
<g id="a_node4"><a xlink:href="../../d2/db8/class_menu.html#ab6296880308728ced459f772430d025b" target="_top" xlink:title="Menu.createGame">
<polygon fill="white" stroke="black" points="396,-47.5 396,-66.5 502,-66.5 502,-47.5 396,-47.5"/>
<text text-anchor="middle" x="449" y="-54.5" font-family="Helvetica,sans-Serif" font-size="10.00">Menu.createGame</text>
</a>
</g>
</g>
<!-- Node3&#45;&gt;Node4 -->
<g id="edge3" class="edge"><title>Node3&#45;&gt;Node4</title>
<path fill="none" stroke="midnightblue" d="M360.146,-57C368.163,-57 376.82,-57 385.465,-57"/>
<polygon fill="midnightblue" stroke="midnightblue" points="385.57,-60.5001 395.57,-57 385.57,-53.5001 385.57,-60.5001"/>
</g>
<!-- Node5 -->
<g id="node5" class="node"><title>Node5</title>
<g id="a_node5"><a xlink:href="../../d2/d3e/class_level1.html#a0871325d07c0614d5f1f2df7df13b703" target="_top" xlink:title="Level1.start">
<polygon fill="white" stroke="black" points="538.5,-76.5 538.5,-95.5 611.5,-95.5 611.5,-76.5 538.5,-76.5"/>
<text text-anchor="middle" x="575" y="-83.5" font-family="Helvetica,sans-Serif" font-size="10.00">Level1.start</text>
</a>
</g>
</g>
<!-- Node4&#45;&gt;Node5 -->
<g id="edge4" class="edge"><title>Node4&#45;&gt;Node5</title>
<path fill="none" stroke="midnightblue" d="M490.946,-66.5761C502.85,-69.3601 515.93,-72.419 528.116,-75.2691"/>
<polygon fill="midnightblue" stroke="midnightblue" points="527.563,-78.7342 538.098,-77.6035 529.157,-71.9181 527.563,-78.7342"/>
</g>
<!-- Node15 -->
<g id="node15" class="node"><title>Node15</title>
<g id="a_node15"><a xlink:href="../../d6/d21/class_screen.html#a5d40342bbe33c27c9e0e24bd8709d1f6" target="_top" xlink:title="Screen.showAndAnim">
<polygon fill="white" stroke="black" points="1134.5,-0.5 1134.5,-19.5 1255.5,-19.5 1255.5,-0.5 1134.5,-0.5"/>
<text text-anchor="middle" x="1195" y="-7.5" font-family="Helvetica,sans-Serif" font-size="10.00">Screen.showAndAnim</text>
</a>
</g>
</g>
<!-- Node4&#45;&gt;Node15 -->
<g id="edge35" class="edge"><title>Node4&#45;&gt;Node15</title>
<path fill="none" stroke="midnightblue" d="M502.353,-47.8318C553.579,-39.6658 633.904,-29 704,-29 704,-29 704,-29 858,-29 950.113,-29 1056.21,-21.7939 1124.12,-16.2575"/>
<polygon fill="midnightblue" stroke="midnightblue" points="1124.6,-19.7304 1134.27,-15.4192 1124.02,-12.7542 1124.6,-19.7304"/>
</g>
<!-- Node6 -->
<g id="node6" class="node"><title>Node6</title>
<g id="a_node6"><a xlink:href="../../d2/d3e/class_level1.html#a324da1e22a7a87fa4bb1859b5774bdba" target="_top" xlink:title="Level1.updateFrame">
<polygon fill="white" stroke="black" points="648,-171.5 648,-190.5 762,-190.5 762,-171.5 648,-171.5"/>
<text text-anchor="middle" x="705" y="-178.5" font-family="Helvetica,sans-Serif" font-size="10.00">Level1.updateFrame</text>
</a>
</g>
</g>
<!-- Node5&#45;&gt;Node6 -->
<g id="edge5" class="edge"><title>Node5&#45;&gt;Node6</title>
<path fill="none" stroke="midnightblue" d="M589.216,-95.8089C611.368,-112.249 656.172,-145.503 682.78,-165.251"/>
<polygon fill="midnightblue" stroke="midnightblue" points="680.93,-168.237 691.046,-171.386 685.102,-162.616 680.93,-168.237"/>
</g>
<!-- Node7 -->
<g id="node7" class="node"><title>Node7</title>
<g id="a_node7"><a xlink:href="../../d2/d3e/class_level1.html#a78a7fb5633734b1815af8db43db23a41" target="_top" xlink:title="Level1.updateSprites">
<polygon fill="white" stroke="black" points="798,-171.5 798,-190.5 916,-190.5 916,-171.5 798,-171.5"/>
<text text-anchor="middle" x="857" y="-178.5" font-family="Helvetica,sans-Serif" font-size="10.00">Level1.updateSprites</text>
</a>
</g>
</g>
<!-- Node6&#45;&gt;Node7 -->
<g id="edge6" class="edge"><title>Node6&#45;&gt;Node7</title>
<path fill="none" stroke="midnightblue" d="M762.281,-181C770.555,-181 779.154,-181 787.639,-181"/>
<polygon fill="midnightblue" stroke="midnightblue" points="787.902,-184.5 797.902,-181 787.902,-177.5 787.902,-184.5"/>
</g>
<!-- Node28 -->
<g id="node28" class="node"><title>Node28</title>
<g id="a_node28"><a xlink:href="../../d2/d3e/class_level1.html#a5f552e875916d0cf7a74896401584b2a" target="_top" xlink:title="Level1.updateTimer">
<polygon fill="white" stroke="black" points="801.5,-209.5 801.5,-228.5 912.5,-228.5 912.5,-209.5 801.5,-209.5"/>
<text text-anchor="middle" x="857" y="-216.5" font-family="Helvetica,sans-Serif" font-size="10.00">Level1.updateTimer</text>
</a>
</g>
</g>
<!-- Node6&#45;&gt;Node28 -->
<g id="edge34" class="edge"><title>Node6&#45;&gt;Node28</title>
<path fill="none" stroke="midnightblue" d="M743.851,-190.589C763.467,-195.558 787.619,-201.677 808.479,-206.961"/>
<polygon fill="midnightblue" stroke="midnightblue" points="807.868,-210.417 818.421,-209.48 809.587,-203.631 807.868,-210.417"/>
</g>
<!-- Node8 -->
<g id="node8" class="node"><title>Node8</title>
<g id="a_node8"><a xlink:href="../../d2/d3e/class_level1.html#a5e6976ef755d0e678034870e374ee4ca" target="_top" xlink:title="Level1.goGameOver">
<polygon fill="white" stroke="black" points="968,-114.5 968,-133.5 1082,-133.5 1082,-114.5 968,-114.5"/>
<text text-anchor="middle" x="1025" y="-121.5" font-family="Helvetica,sans-Serif" font-size="10.00">Level1.goGameOver</text>
</a>
</g>
</g>
<!-- Node7&#45;&gt;Node8 -->
<g id="edge7" class="edge"><title>Node7&#45;&gt;Node8</title>
<path fill="none" stroke="midnightblue" d="M879.366,-171.462C898.233,-163.257 926.612,-151.444 952,-143 959.165,-140.617 966.808,-138.332 974.339,-136.225"/>
<polygon fill="midnightblue" stroke="midnightblue" points="975.392,-139.566 984.123,-133.564 973.555,-132.811 975.392,-139.566"/>
</g>
<!-- Node13 -->
<g id="node13" class="node"><title>Node13</title>
<g id="a_node13"><a xlink:href="../../d2/d3e/class_level1.html#ac56e75129bb2946c38cfcf43608f3f05" target="_top" xlink:title="Level1.goNextLevel">
<polygon fill="white" stroke="black" points="970,-76.5 970,-95.5 1080,-95.5 1080,-76.5 970,-76.5"/>
<text text-anchor="middle" x="1025" y="-83.5" font-family="Helvetica,sans-Serif" font-size="10.00">Level1.goNextLevel</text>
</a>
</g>
</g>
<!-- Node7&#45;&gt;Node13 -->
<g id="edge12" class="edge"><title>Node7&#45;&gt;Node13</title>
<path fill="none" stroke="midnightblue" d="M867.176,-171.278C882.972,-155.114 916.993,-122.737 952,-105 956.568,-102.686 961.446,-100.633 966.429,-98.8155"/>
<polygon fill="midnightblue" stroke="midnightblue" points="967.701,-102.081 976.086,-95.605 965.492,-95.4384 967.701,-102.081"/>
</g>
<!-- Node17 -->
<g id="node17" class="node"><title>Node17</title>
<g id="a_node17"><a xlink:href="../../dd/d7a/class_enemy.html#a9b6840dcc6b8165268e957fc43d95b06" target="_top" xlink:title="Enemy.makePoop">
<polygon fill="white" stroke="black" points="974,-190.5 974,-209.5 1076,-209.5 1076,-190.5 974,-190.5"/>
<text text-anchor="middle" x="1025" y="-197.5" font-family="Helvetica,sans-Serif" font-size="10.00">Enemy.makePoop</text>
</a>
</g>
</g>
<!-- Node7&#45;&gt;Node17 -->
<g id="edge20" class="edge"><title>Node7&#45;&gt;Node17</title>
<path fill="none" stroke="midnightblue" d="M916.059,-187.645C931.551,-189.419 948.322,-191.338 963.92,-193.123"/>
<polygon fill="midnightblue" stroke="midnightblue" points="963.643,-196.614 973.976,-194.274 964.439,-189.66 963.643,-196.614"/>
</g>
<!-- Node19 -->
<g id="node19" class="node"><title>Node19</title>
<g id="a_node19"><a xlink:href="../../d8/d53/class_player.html#a1b7a0a6c68deb202a672d42e205d5a21" target="_top" xlink:title="Player.moveSprite">
<polygon fill="white" stroke="black" points="973,-266.5 973,-285.5 1077,-285.5 1077,-266.5 973,-266.5"/>
<text text-anchor="middle" x="1025" y="-273.5" font-family="Helvetica,sans-Serif" font-size="10.00">Player.moveSprite</text>
</a>
</g>
</g>
<!-- Node7&#45;&gt;Node19 -->
<g id="edge22" class="edge"><title>Node7&#45;&gt;Node19</title>
<path fill="none" stroke="midnightblue" d="M899.418,-190.61C905.33,-193.076 911.069,-196.157 916,-200 939.633,-218.419 927.838,-239.281 952,-257 955.46,-259.537 959.233,-261.736 963.179,-263.641"/>
<polygon fill="midnightblue" stroke="midnightblue" points="962.06,-266.966 972.637,-267.576 964.749,-260.503 962.06,-266.966"/>
</g>
<!-- Node21 -->
<g id="node21" class="node"><title>Node21</title>
<g id="a_node21"><a xlink:href="../../dd/d7a/class_enemy.html#ab653212b50d9e64ba497ae18696d3678" target="_top" xlink:title="Enemy.moveSprite">
<polygon fill="white" stroke="black" points="971.5,-304.5 971.5,-323.5 1078.5,-323.5 1078.5,-304.5 971.5,-304.5"/>
<text text-anchor="middle" x="1025" y="-311.5" font-family="Helvetica,sans-Serif" font-size="10.00">Enemy.moveSprite</text>
</a>
</g>
</g>
<!-- Node7&#45;&gt;Node21 -->
<g id="edge25" class="edge"><title>Node7&#45;&gt;Node21</title>
<path fill="none" stroke="midnightblue" d="M901.911,-190.576C907.074,-193.033 911.939,-196.121 916,-200 948.648,-231.19 918.453,-264.779 952,-295 955.047,-297.745 958.444,-300.101 962.057,-302.123"/>
<polygon fill="midnightblue" stroke="midnightblue" points="960.869,-305.43 971.411,-306.49 963.831,-299.088 960.869,-305.43"/>
</g>
<!-- Node23 -->
<g id="node23" class="node"><title>Node23</title>
<g id="a_node23"><a xlink:href="../../d2/d3e/class_level1.html#a5995ba731849ced54b8f97fcc93ce4d9" target="_top" xlink:title="Level1.removeFromScreen">
<polygon fill="white" stroke="black" points="952.5,-228.5 952.5,-247.5 1097.5,-247.5 1097.5,-228.5 952.5,-228.5"/>
<text text-anchor="middle" x="1025" y="-235.5" font-family="Helvetica,sans-Serif" font-size="10.00">Level1.removeFromScreen</text>
</a>
</g>
</g>
<!-- Node7&#45;&gt;Node23 -->
<g id="edge29" class="edge"><title>Node7&#45;&gt;Node23</title>
<path fill="none" stroke="midnightblue" d="M890.57,-190.599C898.96,-193.362 907.903,-196.566 916,-200 932.656,-207.063 935.145,-212.427 952,-219 958.231,-221.43 964.884,-223.654 971.534,-225.655"/>
<polygon fill="midnightblue" stroke="midnightblue" points="970.649,-229.042 981.226,-228.427 972.574,-222.312 970.649,-229.042"/>
</g>
<!-- Node24 -->
<g id="node24" class="node"><title>Node24</title>
<g id="a_node24"><a xlink:href="../../d2/d3e/class_level1.html#aa75f107bf925594da75a1d82cf64044d" target="_top" xlink:title="Level1.returnCollisions">
<polygon fill="white" stroke="black" points="963,-152.5 963,-171.5 1087,-171.5 1087,-152.5 963,-152.5"/>
<text text-anchor="middle" x="1025" y="-159.5" font-family="Helvetica,sans-Serif" font-size="10.00">Level1.returnCollisions</text>
</a>
</g>
</g>
<!-- Node7&#45;&gt;Node24 -->
<g id="edge30" class="edge"><title>Node7&#45;&gt;Node24</title>
<path fill="none" stroke="midnightblue" d="M916.059,-174.355C927.892,-173 940.47,-171.561 952.703,-170.161"/>
<polygon fill="midnightblue" stroke="midnightblue" points="953.336,-173.611 962.873,-168.996 952.54,-166.656 953.336,-173.611"/>
</g>
<!-- Node9 -->
<g id="node9" class="node"><title>Node9</title>
<g id="a_node9"><a xlink:href="../../d2/d3e/class_level1.html#ac4098d447b9841cabec6be3bb719bd26" target="_top" xlink:title="Level1.clearElements">
<polygon fill="white" stroke="black" points="1135.5,-114.5 1135.5,-133.5 1254.5,-133.5 1254.5,-114.5 1135.5,-114.5"/>
<text text-anchor="middle" x="1195" y="-121.5" font-family="Helvetica,sans-Serif" font-size="10.00">Level1.clearElements</text>
</a>
</g>
</g>
<!-- Node8&#45;&gt;Node9 -->
<g id="edge8" class="edge"><title>Node8&#45;&gt;Node9</title>
<path fill="none" stroke="midnightblue" d="M1082.41,-124C1096.14,-124 1110.98,-124 1125.21,-124"/>
<polygon fill="midnightblue" stroke="midnightblue" points="1125.44,-127.5 1135.44,-124 1125.44,-120.5 1125.44,-127.5"/>
</g>
<!-- Node10 -->
<g id="node10" class="node"><title>Node10</title>
<g id="a_node10"><a xlink:href="../../d7/da7/class_character.html#a4dc23a76b34bcbb84abba1b116847268" target="_top" xlink:title="Character.getHP">
<polygon fill="white" stroke="black" points="1147.5,-76.5 1147.5,-95.5 1242.5,-95.5 1242.5,-76.5 1147.5,-76.5"/>
<text text-anchor="middle" x="1195" y="-83.5" font-family="Helvetica,sans-Serif" font-size="10.00">Character.getHP</text>
</a>
</g>
</g>
<!-- Node8&#45;&gt;Node10 -->
<g id="edge9" class="edge"><title>Node8&#45;&gt;Node10</title>
<path fill="none" stroke="midnightblue" d="M1068.39,-114.411C1090.76,-109.351 1118.4,-103.1 1142.05,-97.7512"/>
<polygon fill="midnightblue" stroke="midnightblue" points="1142.93,-101.14 1151.91,-95.5201 1141.39,-94.3125 1142.93,-101.14"/>
</g>
<!-- Node11 -->
<g id="node11" class="node"><title>Node11</title>
<g id="a_node11"><a xlink:href="../../d6/d21/class_screen.html#a5d9534b81b96cfc0a00009dea6be6c09" target="_top" xlink:title="Screen.showScreen">
<polygon fill="white" stroke="black" points="1306.5,-95.5 1306.5,-114.5 1417.5,-114.5 1417.5,-95.5 1306.5,-95.5"/>
<text text-anchor="middle" x="1362" y="-102.5" font-family="Helvetica,sans-Serif" font-size="10.00">Screen.showScreen</text>
</a>
</g>
</g>
<!-- Node8&#45;&gt;Node11 -->
<g id="edge10" class="edge"><title>Node8&#45;&gt;Node11</title>
<path fill="none" stroke="midnightblue" d="M1066.59,-133.569C1112.76,-143.021 1190.29,-154.524 1256,-143 1282.54,-138.345 1311.21,-127.544 1331.88,-118.642"/>
<polygon fill="midnightblue" stroke="midnightblue" points="1333.32,-121.831 1341.05,-114.588 1330.49,-115.428 1333.32,-121.831"/>
</g>
<!-- Node12 -->
<g id="node12" class="node"><title>Node12</title>
<g id="a_node12"><a xlink:href="../../d6/d21/class_screen.html#ac7ca0a382b3177bbea4e2a4e7c0f442e" target="_top" xlink:title="Screen.init">
<polygon fill="white" stroke="black" points="1497,-95.5 1497,-114.5 1565,-114.5 1565,-95.5 1497,-95.5"/>
<text text-anchor="middle" x="1531" y="-102.5" font-family="Helvetica,sans-Serif" font-size="10.00">Screen.init</text>
</a>
</g>
</g>
<!-- Node11&#45;&gt;Node12 -->
<g id="edge11" class="edge"><title>Node11&#45;&gt;Node12</title>
<path fill="none" stroke="midnightblue" d="M1417.68,-105C1439.98,-105 1465.4,-105 1486.41,-105"/>
<polygon fill="midnightblue" stroke="midnightblue" points="1486.65,-108.5 1496.65,-105 1486.65,-101.5 1486.65,-108.5"/>
</g>
<!-- Node13&#45;&gt;Node5 -->
<g id="edge19" class="edge"><title>Node13&#45;&gt;Node5</title>
<path fill="none" stroke="midnightblue" d="M969.736,-86C880.614,-86 704.848,-86 621.678,-86"/>
<polygon fill="midnightblue" stroke="midnightblue" points="621.528,-82.5001 611.528,-86 621.528,-89.5001 621.528,-82.5001"/>
</g>
<!-- Node13&#45;&gt;Node9 -->
<g id="edge13" class="edge"><title>Node13&#45;&gt;Node9</title>
<path fill="none" stroke="midnightblue" d="M1068.39,-95.589C1090.76,-100.649 1118.4,-106.9 1142.05,-112.249"/>
<polygon fill="midnightblue" stroke="midnightblue" points="1141.39,-115.687 1151.91,-114.48 1142.93,-108.86 1141.39,-115.687"/>
</g>
<!-- Node13&#45;&gt;Node10 -->
<g id="edge14" class="edge"><title>Node13&#45;&gt;Node10</title>
<path fill="none" stroke="midnightblue" d="M1080.08,-86C1098.37,-86 1118.84,-86 1137.33,-86"/>
<polygon fill="midnightblue" stroke="midnightblue" points="1137.37,-89.5001 1147.37,-86 1137.37,-82.5001 1137.37,-89.5001"/>
</g>
<!-- Node14 -->
<g id="node14" class="node"><title>Node14</title>
<g id="a_node14"><a xlink:href="../../dd/d7a/class_enemy.html#a0b00e167bc151db783054dddb2f9b509" target="_top" xlink:title="Enemy.makeAngry">
<polygon fill="white" stroke="black" points="1142,-38.5 1142,-57.5 1248,-57.5 1248,-38.5 1142,-38.5"/>
<text text-anchor="middle" x="1195" y="-45.5" font-family="Helvetica,sans-Serif" font-size="10.00">Enemy.makeAngry</text>
</a>
</g>
</g>
<!-- Node13&#45;&gt;Node14 -->
<g id="edge15" class="edge"><title>Node13&#45;&gt;Node14</title>
<path fill="none" stroke="midnightblue" d="M1068.39,-76.411C1090.76,-71.3513 1118.4,-65.1004 1142.05,-59.7512"/>
<polygon fill="midnightblue" stroke="midnightblue" points="1142.93,-63.1401 1151.91,-57.5201 1141.39,-56.3125 1142.93,-63.1401"/>
</g>
<!-- Node13&#45;&gt;Node15 -->
<g id="edge16" class="edge"><title>Node13&#45;&gt;Node15</title>
<path fill="none" stroke="midnightblue" d="M1042.03,-76.3733C1062.74,-64.2081 1100.16,-43.1529 1134,-29 1139.36,-26.7582 1145.08,-24.628 1150.78,-22.6597"/>
<polygon fill="midnightblue" stroke="midnightblue" points="1151.9,-25.9763 1160.29,-19.509 1149.7,-19.3315 1151.9,-25.9763"/>
</g>
<!-- Node15&#45;&gt;Node11 -->
<g id="edge17" class="edge"><title>Node15&#45;&gt;Node11</title>
<path fill="none" stroke="midnightblue" d="M1232.59,-19.5346C1240.5,-22.1563 1248.68,-25.3135 1256,-29 1288.71,-45.4755 1322.27,-71.7194 1342.37,-88.6525"/>
<polygon fill="midnightblue" stroke="midnightblue" points="1340.25,-91.4432 1350.13,-95.2839 1344.8,-86.1238 1340.25,-91.4432"/>
</g>
<!-- Node16 -->
<g id="node16" class="node"><title>Node16</title>
<g id="a_node16"><a xlink:href="../../d6/d21/class_screen.html#a601576a0d49770789b2eb08328f09c53" target="_top" xlink:title="Screen.startAnim">
<polygon fill="white" stroke="black" points="1311.5,-0.5 1311.5,-19.5 1412.5,-19.5 1412.5,-0.5 1311.5,-0.5"/>
<text text-anchor="middle" x="1362" y="-7.5" font-family="Helvetica,sans-Serif" font-size="10.00">Screen.startAnim</text>
</a>
</g>
</g>
<!-- Node15&#45;&gt;Node16 -->
<g id="edge18" class="edge"><title>Node15&#45;&gt;Node16</title>
<path fill="none" stroke="midnightblue" d="M1255.57,-10C1270.42,-10 1286.35,-10 1301.21,-10"/>
<polygon fill="midnightblue" stroke="midnightblue" points="1301.3,-13.5001 1311.3,-10 1301.3,-6.5001 1301.3,-13.5001"/>
</g>
<!-- Node18 -->
<g id="node18" class="node"><title>Node18</title>
<g id="a_node18"><a xlink:href="../../d7/dbf/class_sprite.html#accdf1c21264c6ff648ece508cf176bfb" target="_top" xlink:title="Sprite.setVelocity">
<polygon fill="white" stroke="black" points="1145,-247.5 1145,-266.5 1245,-266.5 1245,-247.5 1145,-247.5"/>
<text text-anchor="middle" x="1195" y="-254.5" font-family="Helvetica,sans-Serif" font-size="10.00">Sprite.setVelocity</text>
</a>
</g>
</g>
<!-- Node17&#45;&gt;Node18 -->
<g id="edge21" class="edge"><title>Node17&#45;&gt;Node18</title>
<path fill="none" stroke="midnightblue" d="M1065.48,-209.516C1076.12,-212.323 1087.56,-215.57 1098,-219 1119.94,-226.209 1144.11,-235.787 1162.71,-243.524"/>
<polygon fill="midnightblue" stroke="midnightblue" points="1161.58,-246.845 1172.16,-247.492 1164.29,-240.391 1161.58,-246.845"/>
</g>
<!-- Node19&#45;&gt;Node18 -->
<g id="edge23" class="edge"><title>Node19&#45;&gt;Node18</title>
<path fill="none" stroke="midnightblue" d="M1077.32,-270.196C1095.39,-268.152 1115.86,-265.837 1134.55,-263.724"/>
<polygon fill="midnightblue" stroke="midnightblue" points="1135.18,-267.175 1144.72,-262.573 1134.39,-260.219 1135.18,-267.175"/>
</g>
<!-- Node20 -->
<g id="node20" class="node"><title>Node20</title>
<g id="a_node20"><a xlink:href="../../d7/dbf/class_sprite.html#ab8f846b7ba77ae72ad09f48da22ceea7" target="_top" xlink:title="Sprite.moveSprite">
<polygon fill="white" stroke="black" points="1143,-285.5 1143,-304.5 1247,-304.5 1247,-285.5 1143,-285.5"/>
<text text-anchor="middle" x="1195" y="-292.5" font-family="Helvetica,sans-Serif" font-size="10.00">Sprite.moveSprite</text>
</a>
</g>
</g>
<!-- Node19&#45;&gt;Node20 -->
<g id="edge24" class="edge"><title>Node19&#45;&gt;Node20</title>
<path fill="none" stroke="midnightblue" d="M1077.32,-281.804C1094.9,-283.793 1114.76,-286.038 1133.03,-288.105"/>
<polygon fill="midnightblue" stroke="midnightblue" points="1132.67,-291.586 1143,-289.232 1133.45,-284.63 1132.67,-291.586"/>
</g>
<!-- Node21&#45;&gt;Node18 -->
<g id="edge28" class="edge"><title>Node21&#45;&gt;Node18</title>
<path fill="none" stroke="midnightblue" d="M1068.77,-304.427C1078.52,-301.776 1088.73,-298.617 1098,-295 1114.86,-288.427 1117.31,-282.981 1134,-276 1139.36,-273.758 1145.08,-271.628 1150.78,-269.66"/>
<polygon fill="midnightblue" stroke="midnightblue" points="1151.9,-272.976 1160.29,-266.509 1149.7,-266.331 1151.9,-272.976"/>
</g>
<!-- Node21&#45;&gt;Node20 -->
<g id="edge27" class="edge"><title>Node21&#45;&gt;Node20</title>
<path fill="none" stroke="midnightblue" d="M1078.7,-308.04C1095.83,-306.103 1114.99,-303.936 1132.7,-301.933"/>
<polygon fill="midnightblue" stroke="midnightblue" points="1133.39,-305.378 1142.93,-300.776 1132.6,-298.422 1133.39,-305.378"/>
</g>
<!-- Node22 -->
<g id="node22" class="node"><title>Node22</title>
<g id="a_node22"><a xlink:href="../../d7/dbf/class_sprite.html#a4dd4a643703de09c632a0e7d70a570e7" target="_top" xlink:title="Sprite.getVelocity">
<polygon fill="white" stroke="black" points="1144.5,-323.5 1144.5,-342.5 1245.5,-342.5 1245.5,-323.5 1144.5,-323.5"/>
<text text-anchor="middle" x="1195" y="-330.5" font-family="Helvetica,sans-Serif" font-size="10.00">Sprite.getVelocity</text>
</a>
</g>
</g>
<!-- Node21&#45;&gt;Node22 -->
<g id="edge26" class="edge"><title>Node21&#45;&gt;Node22</title>
<path fill="none" stroke="midnightblue" d="M1078.7,-319.96C1096.31,-321.952 1116.08,-324.187 1134.2,-326.236"/>
<polygon fill="midnightblue" stroke="midnightblue" points="1134.03,-329.739 1144.36,-327.386 1134.81,-322.784 1134.03,-329.739"/>
</g>
<!-- Node25 -->
<g id="node25" class="node"><title>Node25</title>
<g id="a_node25"><a xlink:href="../../d7/da7/class_character.html#aa2149c166e797ae0ded67d9f768ac7f3" target="_top" xlink:title="Character.updateAll">
<polygon fill="white" stroke="black" points="1139.5,-190.5 1139.5,-209.5 1250.5,-209.5 1250.5,-190.5 1139.5,-190.5"/>
<text text-anchor="middle" x="1195" y="-197.5" font-family="Helvetica,sans-Serif" font-size="10.00">Character.updateAll</text>
</a>
</g>
</g>
<!-- Node24&#45;&gt;Node25 -->
<g id="edge31" class="edge"><title>Node24&#45;&gt;Node25</title>
<path fill="none" stroke="midnightblue" d="M1068.39,-171.589C1090.76,-176.649 1118.4,-182.9 1142.05,-188.249"/>
<polygon fill="midnightblue" stroke="midnightblue" points="1141.39,-191.687 1151.91,-190.48 1142.93,-184.86 1141.39,-191.687"/>
</g>
<!-- Node26 -->
<g id="node26" class="node"><title>Node26</title>
<g id="a_node26"><a xlink:href="../../d7/da7/class_character.html#ade25acccb27ac9aeb2752b2df29d075f" target="_top" xlink:title="Character.collisionUpdate">
<polygon fill="white" stroke="black" points="1292.5,-190.5 1292.5,-209.5 1431.5,-209.5 1431.5,-190.5 1292.5,-190.5"/>
<text text-anchor="middle" x="1362" y="-197.5" font-family="Helvetica,sans-Serif" font-size="10.00">Character.collisionUpdate</text>
</a>
</g>
</g>
<!-- Node25&#45;&gt;Node26 -->
<g id="edge32" class="edge"><title>Node25&#45;&gt;Node26</title>
<path fill="none" stroke="midnightblue" d="M1250.94,-200C1261.03,-200 1271.74,-200 1282.36,-200"/>
<polygon fill="midnightblue" stroke="midnightblue" points="1282.5,-203.5 1292.5,-200 1282.5,-196.5 1282.5,-203.5"/>
</g>
<!-- Node27 -->
<g id="node27" class="node"><title>Node27</title>
<g id="a_node27"><a xlink:href="../../d7/da7/class_character.html#ad223fcb54929116326bf8816d43f5173" target="_top" xlink:title="Character.checkCollide">
<polygon fill="white" stroke="black" points="1468.5,-190.5 1468.5,-209.5 1593.5,-209.5 1593.5,-190.5 1468.5,-190.5"/>
<text text-anchor="middle" x="1531" y="-197.5" font-family="Helvetica,sans-Serif" font-size="10.00">Character.checkCollide</text>
</a>
</g>
</g>
<!-- Node26&#45;&gt;Node27 -->
<g id="edge33" class="edge"><title>Node26&#45;&gt;Node27</title>
<path fill="none" stroke="midnightblue" d="M1431.89,-200C1440.61,-200 1449.54,-200 1458.31,-200"/>
<polygon fill="midnightblue" stroke="midnightblue" points="1458.48,-203.5 1468.48,-200 1458.48,-196.5 1458.48,-203.5"/>
</g>
</g>
</svg>
        <g id="navigator" transform="translate(0 0)" fill="#404254">
                <rect fill="#f2f5e9" fill-opacity="0.5" stroke="#606060" stroke-width=".5" x="0" y="0" width="60" height="60"/>
                <use id="zoomplus" xlink:href="#zoomPlus" x="17" y="9" onmousedown="handleZoom(evt,'in')"/>
                <use id="zoomminus" xlink:href="#zoomMin" x="42" y="9" onmousedown="handleZoom(evt,'out')"/>
                <use id="reset" xlink:href="#resetDef" x="30" y="36" onmousedown="handleReset()"/>
                <g id="arrowUp" xlink:href="#dirArrow" transform="translate(30 24)" onmousedown="handlePan(0,-1)">
                  <use xlink:href="#rim" fill="#404040">
                        <set attributeName="fill" to="#808080" begin="arrowUp.mouseover" end="arrowUp.mouseout"/>
                  </use>
                  <path fill="none" stroke="white" stroke-width="1.5" d="M0,-3.0v7 M-2.5,-0.5L0,-3.0L2.5,-0.5"/>
                </g>
                <g id="arrowRight" xlink:href="#dirArrow" transform="rotate(90) translate(36 -43)" onmousedown="handlePan(1,0)">
                  <use xlink:href="#rim" fill="#404040">
                        <set attributeName="fill" to="#808080" begin="arrowRight.mouseover" end="arrowRight.mouseout"/>
                  </use>
                  <path fill="none" stroke="white" stroke-width="1.5" d="M0,-3.0v7 M-2.5,-0.5L0,-3.0L2.5,-0.5"/>
                </g>
                <g id="arrowDown" xlink:href="#dirArrow" transform="rotate(180) translate(-30 -48)" onmousedown="handlePan(0,1)">
                  <use xlink:href="#rim" fill="#404040">
                        <set attributeName="fill" to="#808080" begin="arrowDown.mouseover" end="arrowDown.mouseout"/>
                  </use>
                  <path fill="none" stroke="white" stroke-width="1.5" d="M0,-3.0v7 M-2.5,-0.5L0,-3.0L2.5,-0.5"/>
                </g>
                <g id="arrowLeft" xlink:href="#dirArrow" transform="rotate(270) translate(-36 17)" onmousedown="handlePan(-1,0)">
                  <use xlink:href="#rim" fill="#404040">
                        <set attributeName="fill" to="#808080" begin="arrowLeft.mouseover" end="arrowLeft.mouseout"/>
                  </use>
                  <path fill="none" stroke="white" stroke-width="1.5" d="M0,-3.0v7 M-2.5,-0.5L0,-3.0L2.5,-0.5"/>
                </g>
        </g>
        <svg viewBox="0 0 15 15" width="100%" height="30px" preserveAspectRatio="xMaxYMin meet">
         <g id="arrow_out" transform="scale(0.3 0.3)">
          <a xlink:href="class_menu_a461e62e606af2391013ce3aaf92a8cc7_cgraph_org.svg" target="_base">
           <rect id="button" ry="5" rx="5" y="6" x="6" height="38" width="38"
                fill="#f2f5e9" fill-opacity="0.5" stroke="#606060" stroke-width="1.0"/>
           <path id="arrow"
             d="M 11.500037,31.436501 C 11.940474,20.09759 22.043105,11.32322 32.158766,21.979434 L 37.068811,17.246167 C 37.068811,17.246167 37.088388,32 37.088388,32 L 22.160133,31.978069 C 22.160133,31.978069 26.997745,27.140456 26.997745,27.140456 C 18.528582,18.264221 13.291696,25.230495 11.500037,31.436501 z"
             style="fill:#404040;"/>
          </a>
         </g>
        </svg>
</svg>
