<?xml version="1.0" encoding="UTF-8" standalone="no"?>
<!DOCTYPE svg PUBLIC "-//W3C//DTD SVG 1.1//EN"
 "http://www.w3.org/Graphics/SVG/1.1/DTD/svg11.dtd">
<!-- Generated by graphviz version 2.36.0 (20140111.2315)
 -->
<!-- Title: Menu.createGame Pages: 1 -->
<svg width="1206pt" height="370pt"
 viewBox="0.00 0.00 1206.00 370.00" xmlns="http://www.w3.org/2000/svg" xmlns:xlink="http://www.w3.org/1999/xlink">
<g id="graph0" class="graph" transform="scale(1 1) rotate(0) translate(4 366)">
<title>Menu.createGame</title>
<polygon fill="white" stroke="none" points="-4,4 -4,-366 1202,-366 1202,4 -4,4"/>
<!-- Node1 -->
<g id="node1" class="node"><title>Node1</title>
<polygon fill="#bfbfbf" stroke="black" points="0,-323.5 0,-342.5 106,-342.5 106,-323.5 0,-323.5"/>
<text text-anchor="middle" x="53" y="-330.5" font-family="Helvetica,sans-Serif" font-size="10.00">Menu.createGame</text>
</g>
<!-- Node2 -->
<g id="node2" class="node"><title>Node2</title>
<g id="a_node2"><a xlink:href="../../d6/d21/class_screen.html#a5d40342bbe33c27c9e0e24bd8709d1f6" target="_top" xlink:title="Screen.showAndAnim">
<polygon fill="white" stroke="black" points="738.5,-342.5 738.5,-361.5 859.5,-361.5 859.5,-342.5 738.5,-342.5"/>
<text text-anchor="middle" x="799" y="-349.5" font-family="Helvetica,sans-Serif" font-size="10.00">Screen.showAndAnim</text>
</a>
</g>
</g>
<!-- Node1&#45;&gt;Node2 -->
<g id="edge1" class="edge"><title>Node1&#45;&gt;Node2</title>
<path fill="none" stroke="midnightblue" d="M106.452,-339.221C157.753,-344.763 238.132,-352 308,-352 308,-352 308,-352 462,-352 553.966,-352 660.092,-352 728.057,-352"/>
<polygon fill="midnightblue" stroke="midnightblue" points="728.216,-355.5 738.216,-352 728.216,-348.5 728.216,-355.5"/>
</g>
<!-- Node6 -->
<g id="node6" class="node"><title>Node6</title>
<g id="a_node6"><a xlink:href="../../d2/d3e/class_level1.html#a0871325d07c0614d5f1f2df7df13b703" target="_top" xlink:title="Level1.start">
<polygon fill="white" stroke="black" points="142.5,-304.5 142.5,-323.5 215.5,-323.5 215.5,-304.5 142.5,-304.5"/>
<text text-anchor="middle" x="179" y="-311.5" font-family="Helvetica,sans-Serif" font-size="10.00">Level1.start</text>
</a>
</g>
</g>
<!-- Node1&#45;&gt;Node6 -->
<g id="edge5" class="edge"><title>Node1&#45;&gt;Node6</title>
<path fill="none" stroke="midnightblue" d="M106.228,-324.997C114.886,-323.671 123.805,-322.304 132.286,-321.004"/>
<polygon fill="midnightblue" stroke="midnightblue" points="133.013,-324.434 142.368,-319.46 131.953,-317.515 133.013,-324.434"/>
</g>
<!-- Node3 -->
<g id="node3" class="node"><title>Node3</title>
<g id="a_node3"><a xlink:href="../../d6/d21/class_screen.html#a5d9534b81b96cfc0a00009dea6be6c09" target="_top" xlink:title="Screen.showScreen">
<polygon fill="white" stroke="black" points="910.5,-247.5 910.5,-266.5 1021.5,-266.5 1021.5,-247.5 910.5,-247.5"/>
<text text-anchor="middle" x="966" y="-254.5" font-family="Helvetica,sans-Serif" font-size="10.00">Screen.showScreen</text>
</a>
</g>
</g>
<!-- Node2&#45;&gt;Node3 -->
<g id="edge2" class="edge"><title>Node2&#45;&gt;Node3</title>
<path fill="none" stroke="midnightblue" d="M836.592,-342.465C844.501,-339.844 852.681,-336.686 860,-333 892.709,-316.525 926.267,-290.281 946.374,-273.347"/>
<polygon fill="midnightblue" stroke="midnightblue" points="948.802,-275.876 954.126,-266.716 944.252,-270.557 948.802,-275.876"/>
</g>
<!-- Node5 -->
<g id="node5" class="node"><title>Node5</title>
<g id="a_node5"><a xlink:href="../../d6/d21/class_screen.html#a601576a0d49770789b2eb08328f09c53" target="_top" xlink:title="Screen.startAnim">
<polygon fill="white" stroke="black" points="915.5,-342.5 915.5,-361.5 1016.5,-361.5 1016.5,-342.5 915.5,-342.5"/>
<text text-anchor="middle" x="966" y="-349.5" font-family="Helvetica,sans-Serif" font-size="10.00">Screen.startAnim</text>
</a>
</g>
</g>
<!-- Node2&#45;&gt;Node5 -->
<g id="edge4" class="edge"><title>Node2&#45;&gt;Node5</title>
<path fill="none" stroke="midnightblue" d="M859.569,-352C874.419,-352 890.346,-352 905.207,-352"/>
<polygon fill="midnightblue" stroke="midnightblue" points="905.299,-355.5 915.299,-352 905.299,-348.5 905.299,-355.5"/>
</g>
<!-- Node4 -->
<g id="node4" class="node"><title>Node4</title>
<g id="a_node4"><a xlink:href="../../d6/d21/class_screen.html#ac7ca0a382b3177bbea4e2a4e7c0f442e" target="_top" xlink:title="Screen.init">
<polygon fill="white" stroke="black" points="1101,-247.5 1101,-266.5 1169,-266.5 1169,-247.5 1101,-247.5"/>
<text text-anchor="middle" x="1135" y="-254.5" font-family="Helvetica,sans-Serif" font-size="10.00">Screen.init</text>
</a>
</g>
</g>
<!-- Node3&#45;&gt;Node4 -->
<g id="edge3" class="edge"><title>Node3&#45;&gt;Node4</title>
<path fill="none" stroke="midnightblue" d="M1021.68,-257C1043.98,-257 1069.4,-257 1090.41,-257"/>
<polygon fill="midnightblue" stroke="midnightblue" points="1090.65,-260.5 1100.65,-257 1090.65,-253.5 1090.65,-260.5"/>
</g>
<!-- Node7 -->
<g id="node7" class="node"><title>Node7</title>
<g id="a_node7"><a xlink:href="../../d2/d3e/class_level1.html#a324da1e22a7a87fa4bb1859b5774bdba" target="_top" xlink:title="Level1.updateFrame">
<polygon fill="white" stroke="black" points="252,-228.5 252,-247.5 366,-247.5 366,-228.5 252,-228.5"/>
<text text-anchor="middle" x="309" y="-235.5" font-family="Helvetica,sans-Serif" font-size="10.00">Level1.updateFrame</text>
</a>
</g>
</g>
<!-- Node6&#45;&gt;Node7 -->
<g id="edge6" class="edge"><title>Node6&#45;&gt;Node7</title>
<path fill="none" stroke="midnightblue" d="M196.211,-304.375C218.14,-291.355 257.458,-268.009 283.135,-252.764"/>
<polygon fill="midnightblue" stroke="midnightblue" points="285.109,-255.662 291.92,-247.547 281.535,-249.643 285.109,-255.662"/>
</g>
<!-- Node8 -->
<g id="node8" class="node"><title>Node8</title>
<g id="a_node8"><a xlink:href="../../d2/d3e/class_level1.html#a78a7fb5633734b1815af8db43db23a41" target="_top" xlink:title="Level1.updateSprites">
<polygon fill="white" stroke="black" points="402,-171.5 402,-190.5 520,-190.5 520,-171.5 402,-171.5"/>
<text text-anchor="middle" x="461" y="-178.5" font-family="Helvetica,sans-Serif" font-size="10.00">Level1.updateSprites</text>
</a>
</g>
</g>
<!-- Node7&#45;&gt;Node8 -->
<g id="edge7" class="edge"><title>Node7&#45;&gt;Node8</title>
<path fill="none" stroke="midnightblue" d="M335.107,-228.459C359.767,-219.088 397.599,-204.712 425.164,-194.238"/>
<polygon fill="midnightblue" stroke="midnightblue" points="426.707,-197.396 434.811,-190.572 424.22,-190.852 426.707,-197.396"/>
</g>
<!-- Node27 -->
<g id="node27" class="node"><title>Node27</title>
<g id="a_node27"><a xlink:href="../../d2/d3e/class_level1.html#a5f552e875916d0cf7a74896401584b2a" target="_top" xlink:title="Level1.updateTimer">
<polygon fill="white" stroke="black" points="405.5,-228.5 405.5,-247.5 516.5,-247.5 516.5,-228.5 405.5,-228.5"/>
<text text-anchor="middle" x="461" y="-235.5" font-family="Helvetica,sans-Serif" font-size="10.00">Level1.updateTimer</text>
</a>
</g>
</g>
<!-- Node7&#45;&gt;Node27 -->
<g id="edge34" class="edge"><title>Node7&#45;&gt;Node27</title>
<path fill="none" stroke="midnightblue" d="M366.281,-238C375.683,-238 385.504,-238 395.1,-238"/>
<polygon fill="midnightblue" stroke="midnightblue" points="395.394,-241.5 405.394,-238 395.394,-234.5 395.394,-241.5"/>
</g>
<!-- Node9 -->
<g id="node9" class="node"><title>Node9</title>
<g id="a_node9"><a xlink:href="../../d2/d3e/class_level1.html#a5e6976ef755d0e678034870e374ee4ca" target="_top" xlink:title="Level1.goGameOver">
<polygon fill="white" stroke="black" points="572,-228.5 572,-247.5 686,-247.5 686,-228.5 572,-228.5"/>
<text text-anchor="middle" x="629" y="-235.5" font-family="Helvetica,sans-Serif" font-size="10.00">Level1.goGameOver</text>
</a>
</g>
</g>
<!-- Node8&#45;&gt;Node9 -->
<g id="edge8" class="edge"><title>Node8&#45;&gt;Node9</title>
<path fill="none" stroke="midnightblue" d="M483.366,-190.538C502.233,-198.743 530.612,-210.556 556,-219 563.165,-221.383 570.808,-223.668 578.339,-225.775"/>
<polygon fill="midnightblue" stroke="midnightblue" points="577.555,-229.189 588.123,-228.436 579.392,-222.434 577.555,-229.189"/>
</g>
<!-- Node12 -->
<g id="node12" class="node"><title>Node12</title>
<g id="a_node12"><a xlink:href="../../d2/d3e/class_level1.html#ac56e75129bb2946c38cfcf43608f3f05" target="_top" xlink:title="Level1.goNextLevel">
<polygon fill="white" stroke="black" points="574,-304.5 574,-323.5 684,-323.5 684,-304.5 574,-304.5"/>
<text text-anchor="middle" x="629" y="-311.5" font-family="Helvetica,sans-Serif" font-size="10.00">Level1.goNextLevel</text>
</a>
</g>
</g>
<!-- Node8&#45;&gt;Node12 -->
<g id="edge12" class="edge"><title>Node8&#45;&gt;Node12</title>
<path fill="none" stroke="midnightblue" d="M482.019,-190.526C494.24,-197.142 509.484,-206.927 520,-219 544.549,-247.183 527.251,-271.116 556,-295 558.718,-297.258 561.675,-299.25 564.791,-301.007"/>
<polygon fill="midnightblue" stroke="midnightblue" points="563.39,-304.217 573.922,-305.365 566.405,-297.899 563.39,-304.217"/>
</g>
<!-- Node14 -->
<g id="node14" class="node"><title>Node14</title>
<g id="a_node14"><a xlink:href="../../dd/d7a/class_enemy.html#a9b6840dcc6b8165268e957fc43d95b06" target="_top" xlink:title="Enemy.makePoop">
<polygon fill="white" stroke="black" points="578,-152.5 578,-171.5 680,-171.5 680,-152.5 578,-152.5"/>
<text text-anchor="middle" x="629" y="-159.5" font-family="Helvetica,sans-Serif" font-size="10.00">Enemy.makePoop</text>
</a>
</g>
</g>
<!-- Node8&#45;&gt;Node14 -->
<g id="edge18" class="edge"><title>Node8&#45;&gt;Node14</title>
<path fill="none" stroke="midnightblue" d="M520.059,-174.355C535.551,-172.581 552.322,-170.662 567.92,-168.877"/>
<polygon fill="midnightblue" stroke="midnightblue" points="568.439,-172.34 577.976,-167.726 567.643,-165.386 568.439,-172.34"/>
</g>
<!-- Node16 -->
<g id="node16" class="node"><title>Node16</title>
<g id="a_node16"><a xlink:href="../../d8/d53/class_player.html#a1b7a0a6c68deb202a672d42e205d5a21" target="_top" xlink:title="Player.moveSprite">
<polygon fill="white" stroke="black" points="577,-114.5 577,-133.5 681,-133.5 681,-114.5 577,-114.5"/>
<text text-anchor="middle" x="629" y="-121.5" font-family="Helvetica,sans-Serif" font-size="10.00">Player.moveSprite</text>
</a>
</g>
</g>
<!-- Node8&#45;&gt;Node16 -->
<g id="edge20" class="edge"><title>Node8&#45;&gt;Node16</title>
<path fill="none" stroke="midnightblue" d="M483.366,-171.462C502.233,-163.257 530.612,-151.444 556,-143 563.165,-140.617 570.808,-138.332 578.339,-136.225"/>
<polygon fill="midnightblue" stroke="midnightblue" points="579.392,-139.566 588.123,-133.564 577.555,-132.811 579.392,-139.566"/>
</g>
<!-- Node18 -->
<g id="node18" class="node"><title>Node18</title>
<g id="a_node18"><a xlink:href="../../dd/d7a/class_enemy.html#ab653212b50d9e64ba497ae18696d3678" target="_top" xlink:title="Enemy.moveSprite">
<polygon fill="white" stroke="black" points="575.5,-76.5 575.5,-95.5 682.5,-95.5 682.5,-76.5 575.5,-76.5"/>
<text text-anchor="middle" x="629" y="-83.5" font-family="Helvetica,sans-Serif" font-size="10.00">Enemy.moveSprite</text>
</a>
</g>
</g>
<!-- Node8&#45;&gt;Node18 -->
<g id="edge23" class="edge"><title>Node8&#45;&gt;Node18</title>
<path fill="none" stroke="midnightblue" d="M471.176,-171.278C486.972,-155.114 520.993,-122.737 556,-105 560.568,-102.686 565.446,-100.633 570.429,-98.8155"/>
<polygon fill="midnightblue" stroke="midnightblue" points="571.701,-102.081 580.086,-95.605 569.492,-95.4384 571.701,-102.081"/>
</g>
<!-- Node20 -->
<g id="node20" class="node"><title>Node20</title>
<g id="a_node20"><a xlink:href="../../d2/d3e/class_level1.html#a5995ba731849ced54b8f97fcc93ce4d9" target="_top" xlink:title="Level1.removeFromScreen">
<polygon fill="white" stroke="black" points="556.5,-38.5 556.5,-57.5 701.5,-57.5 701.5,-38.5 556.5,-38.5"/>
<text text-anchor="middle" x="629" y="-45.5" font-family="Helvetica,sans-Serif" font-size="10.00">Level1.removeFromScreen</text>
</a>
</g>
</g>
<!-- Node8&#45;&gt;Node20 -->
<g id="edge27" class="edge"><title>Node8&#45;&gt;Node20</title>
<path fill="none" stroke="midnightblue" d="M467.14,-171.326C479.395,-149.226 512.581,-94.8079 556,-67 559.334,-64.8647 562.901,-62.9684 566.597,-61.2845"/>
<polygon fill="midnightblue" stroke="midnightblue" points="568.01,-64.4887 575.992,-57.5209 565.407,-57.9907 568.01,-64.4887"/>
</g>
<!-- Node21 -->
<g id="node21" class="node"><title>Node21</title>
<g id="a_node21"><a xlink:href="../../d2/d3e/class_level1.html#aa75f107bf925594da75a1d82cf64044d" target="_top" xlink:title="Level1.returnCollisions">
<polygon fill="white" stroke="black" points="567,-0.5 567,-19.5 691,-19.5 691,-0.5 567,-0.5"/>
<text text-anchor="middle" x="629" y="-7.5" font-family="Helvetica,sans-Serif" font-size="10.00">Level1.returnCollisions</text>
</a>
</g>
</g>
<!-- Node8&#45;&gt;Node21 -->
<g id="edge28" class="edge"><title>Node8&#45;&gt;Node21</title>
<path fill="none" stroke="midnightblue" d="M465.072,-171.414C474.213,-144.483 503.889,-67.595 556,-29 558.516,-27.1365 561.2,-25.4556 563.999,-23.9394"/>
<polygon fill="midnightblue" stroke="midnightblue" points="565.665,-27.0247 573.257,-19.6354 562.714,-20.677 565.665,-27.0247"/>
</g>
<!-- Node25 -->
<g id="node25" class="node"><title>Node25</title>
<g id="a_node25"><a xlink:href="../../d7/da7/class_character.html#aad64a9dc8ceea8b806cf2e1908cd0df8" target="_top" xlink:title="Character.setFull">
<polygon fill="white" stroke="black" points="581,-266.5 581,-285.5 677,-285.5 677,-266.5 581,-266.5"/>
<text text-anchor="middle" x="629" y="-273.5" font-family="Helvetica,sans-Serif" font-size="10.00">Character.setFull</text>
</a>
</g>
</g>
<!-- Node8&#45;&gt;Node25 -->
<g id="edge32" class="edge"><title>Node8&#45;&gt;Node25</title>
<path fill="none" stroke="midnightblue" d="M478.713,-190.525C490.704,-197.692 506.976,-208.114 520,-219 537.85,-233.92 535.989,-245.135 556,-257 560.726,-259.802 565.867,-262.198 571.156,-264.244"/>
<polygon fill="midnightblue" stroke="midnightblue" points="570.181,-267.61 580.776,-267.564 572.464,-260.993 570.181,-267.61"/>
</g>
<!-- Node26 -->
<g id="node26" class="node"><title>Node26</title>
<g id="a_node26"><a xlink:href="../../d7/da7/class_character.html#ac0b4f4ace84c8e5aa60f05515806015d" target="_top" xlink:title="Character.setHP">
<polygon fill="white" stroke="black" points="581.5,-190.5 581.5,-209.5 676.5,-209.5 676.5,-190.5 581.5,-190.5"/>
<text text-anchor="middle" x="629" y="-197.5" font-family="Helvetica,sans-Serif" font-size="10.00">Character.setHP</text>
</a>
</g>
</g>
<!-- Node8&#45;&gt;Node26 -->
<g id="edge33" class="edge"><title>Node8&#45;&gt;Node26</title>
<path fill="none" stroke="midnightblue" d="M520.059,-187.645C536.705,-189.551 554.827,-191.625 571.386,-193.52"/>
<polygon fill="midnightblue" stroke="midnightblue" points="571.133,-197.014 581.467,-194.674 571.929,-190.059 571.133,-197.014"/>
</g>
<!-- Node9&#45;&gt;Node3 -->
<g id="edge11" class="edge"><title>Node9&#45;&gt;Node3</title>
<path fill="none" stroke="midnightblue" d="M670.586,-228.431C716.764,-218.979 794.292,-207.476 860,-219 886.539,-223.655 915.212,-234.456 935.878,-243.358"/>
<polygon fill="midnightblue" stroke="midnightblue" points="934.492,-246.572 945.054,-247.412 937.321,-240.169 934.492,-246.572"/>
</g>
<!-- Node10 -->
<g id="node10" class="node"><title>Node10</title>
<g id="a_node10"><a xlink:href="../../d2/d3e/class_level1.html#ac4098d447b9841cabec6be3bb719bd26" target="_top" xlink:title="Level1.clearElements">
<polygon fill="white" stroke="black" points="739.5,-266.5 739.5,-285.5 858.5,-285.5 858.5,-266.5 739.5,-266.5"/>
<text text-anchor="middle" x="799" y="-273.5" font-family="Helvetica,sans-Serif" font-size="10.00">Level1.clearElements</text>
</a>
</g>
</g>
<!-- Node9&#45;&gt;Node10 -->
<g id="edge9" class="edge"><title>Node9&#45;&gt;Node10</title>
<path fill="none" stroke="midnightblue" d="M672.393,-247.589C694.763,-252.649 722.398,-258.9 746.047,-264.249"/>
<polygon fill="midnightblue" stroke="midnightblue" points="745.386,-267.687 755.911,-266.48 746.93,-260.86 745.386,-267.687"/>
</g>
<!-- Node11 -->
<g id="node11" class="node"><title>Node11</title>
<g id="a_node11"><a xlink:href="../../d7/da7/class_character.html#a4dc23a76b34bcbb84abba1b116847268" target="_top" xlink:title="Character.getHP">
<polygon fill="white" stroke="black" points="751.5,-228.5 751.5,-247.5 846.5,-247.5 846.5,-228.5 751.5,-228.5"/>
<text text-anchor="middle" x="799" y="-235.5" font-family="Helvetica,sans-Serif" font-size="10.00">Character.getHP</text>
</a>
</g>
</g>
<!-- Node9&#45;&gt;Node11 -->
<g id="edge10" class="edge"><title>Node9&#45;&gt;Node11</title>
<path fill="none" stroke="midnightblue" d="M686.409,-238C704.019,-238 723.45,-238 741.094,-238"/>
<polygon fill="midnightblue" stroke="midnightblue" points="741.249,-241.5 751.249,-238 741.249,-234.5 741.249,-241.5"/>
</g>
<!-- Node12&#45;&gt;Node2 -->
<g id="edge16" class="edge"><title>Node12&#45;&gt;Node2</title>
<path fill="none" stroke="midnightblue" d="M672.393,-323.589C694.763,-328.649 722.398,-334.9 746.047,-340.249"/>
<polygon fill="midnightblue" stroke="midnightblue" points="745.386,-343.687 755.911,-342.48 746.93,-336.86 745.386,-343.687"/>
</g>
<!-- Node12&#45;&gt;Node6 -->
<g id="edge17" class="edge"><title>Node12&#45;&gt;Node6</title>
<path fill="none" stroke="midnightblue" d="M573.736,-314C484.614,-314 308.848,-314 225.678,-314"/>
<polygon fill="midnightblue" stroke="midnightblue" points="225.528,-310.5 215.528,-314 225.528,-317.5 225.528,-310.5"/>
</g>
<!-- Node12&#45;&gt;Node10 -->
<g id="edge13" class="edge"><title>Node12&#45;&gt;Node10</title>
<path fill="none" stroke="midnightblue" d="M672.393,-304.411C694.763,-299.351 722.398,-293.1 746.047,-287.751"/>
<polygon fill="midnightblue" stroke="midnightblue" points="746.93,-291.14 755.911,-285.52 745.386,-284.313 746.93,-291.14"/>
</g>
<!-- Node12&#45;&gt;Node11 -->
<g id="edge14" class="edge"><title>Node12&#45;&gt;Node11</title>
<path fill="none" stroke="midnightblue" d="M680.634,-304.473C688.078,-301.996 695.439,-298.89 702,-295 722.011,-283.135 718.283,-269.349 738,-257 741.342,-254.907 744.935,-253.026 748.641,-251.339"/>
<polygon fill="midnightblue" stroke="midnightblue" points="750.058,-254.541 758.008,-247.537 747.425,-248.055 750.058,-254.541"/>
</g>
<!-- Node13 -->
<g id="node13" class="node"><title>Node13</title>
<g id="a_node13"><a xlink:href="../../dd/d7a/class_enemy.html#a0b00e167bc151db783054dddb2f9b509" target="_top" xlink:title="Enemy.makeAngry">
<polygon fill="white" stroke="black" points="746,-304.5 746,-323.5 852,-323.5 852,-304.5 746,-304.5"/>
<text text-anchor="middle" x="799" y="-311.5" font-family="Helvetica,sans-Serif" font-size="10.00">Enemy.makeAngry</text>
</a>
</g>
</g>
<!-- Node12&#45;&gt;Node13 -->
<g id="edge15" class="edge"><title>Node12&#45;&gt;Node13</title>
<path fill="none" stroke="midnightblue" d="M684.081,-314C700.445,-314 718.551,-314 735.421,-314"/>
<polygon fill="midnightblue" stroke="midnightblue" points="735.74,-317.5 745.74,-314 735.739,-310.5 735.74,-317.5"/>
</g>
<!-- Node15 -->
<g id="node15" class="node"><title>Node15</title>
<g id="a_node15"><a xlink:href="../../d7/dbf/class_sprite.html#accdf1c21264c6ff648ece508cf176bfb" target="_top" xlink:title="Sprite.setVelocity">
<polygon fill="white" stroke="black" points="749,-133.5 749,-152.5 849,-152.5 849,-133.5 749,-133.5"/>
<text text-anchor="middle" x="799" y="-140.5" font-family="Helvetica,sans-Serif" font-size="10.00">Sprite.setVelocity</text>
</a>
</g>
</g>
<!-- Node14&#45;&gt;Node15 -->
<g id="edge19" class="edge"><title>Node14&#45;&gt;Node15</title>
<path fill="none" stroke="midnightblue" d="M680.406,-156.299C698.757,-154.224 719.67,-151.859 738.721,-149.704"/>
<polygon fill="midnightblue" stroke="midnightblue" points="739.243,-153.168 748.786,-148.566 738.456,-146.212 739.243,-153.168"/>
</g>
<!-- Node16&#45;&gt;Node15 -->
<g id="edge21" class="edge"><title>Node16&#45;&gt;Node15</title>
<path fill="none" stroke="midnightblue" d="M681.318,-129.804C699.393,-131.848 719.86,-134.163 738.549,-136.276"/>
<polygon fill="midnightblue" stroke="midnightblue" points="738.393,-139.781 748.723,-137.427 739.179,-132.825 738.393,-139.781"/>
</g>
<!-- Node17 -->
<g id="node17" class="node"><title>Node17</title>
<g id="a_node17"><a xlink:href="../../d7/dbf/class_sprite.html#ab8f846b7ba77ae72ad09f48da22ceea7" target="_top" xlink:title="Sprite.moveSprite">
<polygon fill="white" stroke="black" points="747,-95.5 747,-114.5 851,-114.5 851,-95.5 747,-95.5"/>
<text text-anchor="middle" x="799" y="-102.5" font-family="Helvetica,sans-Serif" font-size="10.00">Sprite.moveSprite</text>
</a>
</g>
</g>
<!-- Node16&#45;&gt;Node17 -->
<g id="edge22" class="edge"><title>Node16&#45;&gt;Node17</title>
<path fill="none" stroke="midnightblue" d="M681.318,-118.196C698.905,-116.207 718.755,-113.962 737.03,-111.895"/>
<polygon fill="midnightblue" stroke="midnightblue" points="737.453,-115.37 746.996,-110.768 736.666,-108.414 737.453,-115.37"/>
</g>
<!-- Node18&#45;&gt;Node15 -->
<g id="edge26" class="edge"><title>Node18&#45;&gt;Node15</title>
<path fill="none" stroke="midnightblue" d="M672.774,-95.5728C682.517,-98.2236 692.726,-101.383 702,-105 718.855,-111.573 721.309,-117.019 738,-124 743.36,-126.242 749.082,-128.372 754.784,-130.34"/>
<polygon fill="midnightblue" stroke="midnightblue" points="753.701,-133.669 764.294,-133.491 755.902,-127.024 753.701,-133.669"/>
</g>
<!-- Node18&#45;&gt;Node17 -->
<g id="edge25" class="edge"><title>Node18&#45;&gt;Node17</title>
<path fill="none" stroke="midnightblue" d="M682.695,-91.9596C699.829,-93.8974 718.991,-96.0644 736.698,-98.067"/>
<polygon fill="midnightblue" stroke="midnightblue" points="736.599,-101.578 746.929,-99.2241 737.386,-94.6224 736.599,-101.578"/>
</g>
<!-- Node19 -->
<g id="node19" class="node"><title>Node19</title>
<g id="a_node19"><a xlink:href="../../d7/dbf/class_sprite.html#a4dd4a643703de09c632a0e7d70a570e7" target="_top" xlink:title="Sprite.getVelocity">
<polygon fill="white" stroke="black" points="748.5,-57.5 748.5,-76.5 849.5,-76.5 849.5,-57.5 748.5,-57.5"/>
<text text-anchor="middle" x="799" y="-64.5" font-family="Helvetica,sans-Serif" font-size="10.00">Sprite.getVelocity</text>
</a>
</g>
</g>
<!-- Node18&#45;&gt;Node19 -->
<g id="edge24" class="edge"><title>Node18&#45;&gt;Node19</title>
<path fill="none" stroke="midnightblue" d="M682.695,-80.0404C700.313,-78.0479 720.075,-75.8129 738.195,-73.7636"/>
<polygon fill="midnightblue" stroke="midnightblue" points="738.813,-77.2162 748.356,-72.6145 738.026,-70.2605 738.813,-77.2162"/>
</g>
<!-- Node22 -->
<g id="node22" class="node"><title>Node22</title>
<g id="a_node22"><a xlink:href="../../d7/da7/class_character.html#aa2149c166e797ae0ded67d9f768ac7f3" target="_top" xlink:title="Character.updateAll">
<polygon fill="white" stroke="black" points="743.5,-0.5 743.5,-19.5 854.5,-19.5 854.5,-0.5 743.5,-0.5"/>
<text text-anchor="middle" x="799" y="-7.5" font-family="Helvetica,sans-Serif" font-size="10.00">Character.updateAll</text>
</a>
</g>
</g>
<!-- Node21&#45;&gt;Node22 -->
<g id="edge29" class="edge"><title>Node21&#45;&gt;Node22</title>
<path fill="none" stroke="midnightblue" d="M691.127,-10C704.734,-10 719.207,-10 732.965,-10"/>
<polygon fill="midnightblue" stroke="midnightblue" points="733.319,-13.5001 743.319,-10 733.319,-6.5001 733.319,-13.5001"/>
</g>
<!-- Node23 -->
<g id="node23" class="node"><title>Node23</title>
<g id="a_node23"><a xlink:href="../../d7/da7/class_character.html#ade25acccb27ac9aeb2752b2df29d075f" target="_top" xlink:title="Character.collisionUpdate">
<polygon fill="white" stroke="black" points="896.5,-0.5 896.5,-19.5 1035.5,-19.5 1035.5,-0.5 896.5,-0.5"/>
<text text-anchor="middle" x="966" y="-7.5" font-family="Helvetica,sans-Serif" font-size="10.00">Character.collisionUpdate</text>
</a>
</g>
</g>
<!-- Node22&#45;&gt;Node23 -->
<g id="edge30" class="edge"><title>Node22&#45;&gt;Node23</title>
<path fill="none" stroke="midnightblue" d="M854.943,-10C865.031,-10 875.74,-10 886.363,-10"/>
<polygon fill="midnightblue" stroke="midnightblue" points="886.5,-13.5001 896.5,-10 886.5,-6.5001 886.5,-13.5001"/>
</g>
<!-- Node24 -->
<g id="node24" class="node"><title>Node24</title>
<g id="a_node24"><a xlink:href="../../d7/da7/class_character.html#ad223fcb54929116326bf8816d43f5173" target="_top" xlink:title="Character.checkCollide">
<polygon fill="white" stroke="black" points="1072.5,-0.5 1072.5,-19.5 1197.5,-19.5 1197.5,-0.5 1072.5,-0.5"/>
<text text-anchor="middle" x="1135" y="-7.5" font-family="Helvetica,sans-Serif" font-size="10.00">Character.checkCollide</text>
</a>
</g>
</g>
<!-- Node23&#45;&gt;Node24 -->
<g id="edge31" class="edge"><title>Node23&#45;&gt;Node24</title>
<path fill="none" stroke="midnightblue" d="M1035.89,-10C1044.61,-10 1053.54,-10 1062.31,-10"/>
<polygon fill="midnightblue" stroke="midnightblue" points="1062.48,-13.5001 1072.48,-10 1062.48,-6.5001 1062.48,-13.5001"/>
</g>
</g>
</svg>
