<?xml version="1.0" encoding="UTF-8" standalone="no"?>
<!DOCTYPE svg PUBLIC "-//W3C//DTD SVG 1.1//EN"
 "http://www.w3.org/Graphics/SVG/1.1/DTD/svg11.dtd">
<!-- Generated by graphviz version 2.36.0 (20140111.2315)
 -->
<!-- Title: Menu.init Pages: 1 -->
<!--zoomable 370 -->
<svg id="main" version="1.1" xmlns="http://www.w3.org/2000/svg" xmlns:xlink="http://www.w3.org/1999/xlink" xml:space="preserve" onload="init(evt)">
<style type="text/css"><![CDATA[
.edge:hover path { stroke: red; }
.edge:hover polygon { stroke: red; fill: red; }
]]></style>
<script type="text/javascript"><![CDATA[
var edges = document.getElementsByTagName('g');
if (edges && edges.length) {
  for (var i=0;i<edges.length;i++) {
    if (edges[i].id.substr(0,4)=='edge') {
      edges[i].setAttribute('class','edge');
    }
  }
}
]]></script>
        <defs>
                <circle id="rim" cx="0" cy="0" r="7"/>
                <circle id="rim2" cx="0" cy="0" r="3.5"/>
                <g id="zoomPlus">
                        <use xlink:href="#rim" fill="#404040">
                                <set attributeName="fill" to="#808080" begin="zoomplus.mouseover" end="zoomplus.mouseout"/>
                        </use>
                        <path d="M-4,0h8M0,-4v8" fill="none" stroke="white" stroke-width="1.5" pointer-events="none"/>
                </g>
                <g id="zoomMin">
                        <use xlink:href="#rim" fill="#404040">
                                <set attributeName="fill" to="#808080" begin="zoomminus.mouseover" end="zoomminus.mouseout"/>
                        </use>
                        <path d="M-4,0h8" fill="none" stroke="white" stroke-width="1.5" pointer-events="none"/>
                </g>
                <g id="dirArrow">
                        <path fill="none" stroke="white" stroke-width="1.5" d="M0,-3.0v7 M-2.5,-0.5L0,-3.0L2.5,-0.5"/>
                </g>
               <g id="resetDef">
                       <use xlink:href="#rim2" fill="#404040">
                               <set attributeName="fill" to="#808080" begin="reset.mouseover" end="reset.mouseout"/>
                       </use>
               </g>
        </defs>

<script type="text/javascript">
var viewWidth = 1698;
var viewHeight = 370;
var sectionId = 'dynsection-13';
</script>
<script xlink:href="../../svgpan.js"/>
<svg id="graph" class="graph">
<g id="viewport">
<title>Menu.init</title>
<polygon fill="white" stroke="none" points="-4,4 -4,-366 1694,-366 1694,4 -4,4"/>
<!-- Node1 -->
<g id="node1" class="node"><title>Node1</title>
<polygon fill="#bfbfbf" stroke="black" points="0,-304.5 0,-323.5 60,-323.5 60,-304.5 0,-304.5"/>
<text text-anchor="middle" x="30" y="-311.5" font-family="Helvetica,sans-Serif" font-size="10.00">Menu.init</text>
</g>
<!-- Node2 -->
<g id="node2" class="node"><title>Node2</title>
<g id="a_node2"><a xlink:href="../../d2/db8/class_menu.html#a461e62e606af2391013ce3aaf92a8cc7" target="_top" xlink:title="Menu.addAllButtons">
<polygon fill="white" stroke="black" points="96.5,-323.5 96.5,-342.5 209.5,-342.5 209.5,-323.5 96.5,-323.5"/>
<text text-anchor="middle" x="153" y="-330.5" font-family="Helvetica,sans-Serif" font-size="10.00">Menu.addAllButtons</text>
</a>
</g>
</g>
<!-- Node1&#45;&gt;Node2 -->
<g id="edge1" class="edge"><title>Node1&#45;&gt;Node2</title>
<path fill="none" stroke="midnightblue" d="M60.2907,-318.599C68.3035,-319.858 77.3219,-321.274 86.4949,-322.714"/>
<polygon fill="midnightblue" stroke="midnightblue" points="86.0471,-326.187 96.469,-324.28 87.133,-319.271 86.0471,-326.187"/>
</g>
<!-- Node32 -->
<g id="node32" class="node"><title>Node32</title>
<g id="a_node32"><a xlink:href="../../d2/db8/class_menu.html#a4f437319f17d0d8c4169c8f8ba481ba7" target="_top" xlink:title="Menu.addAllText">
<polygon fill="white" stroke="black" points="106,-285.5 106,-304.5 200,-304.5 200,-285.5 106,-285.5"/>
<text text-anchor="middle" x="153" y="-292.5" font-family="Helvetica,sans-Serif" font-size="10.00">Menu.addAllText</text>
</a>
</g>
</g>
<!-- Node1&#45;&gt;Node32 -->
<g id="edge39" class="edge"><title>Node1&#45;&gt;Node32</title>
<path fill="none" stroke="midnightblue" d="M60.2907,-309.401C71.0006,-307.719 83.5073,-305.755 95.7781,-303.828"/>
<polygon fill="midnightblue" stroke="midnightblue" points="96.6495,-307.234 105.985,-302.225 95.5635,-300.319 96.6495,-307.234"/>
</g>
<!-- Node3 -->
<g id="node3" class="node"><title>Node3</title>
<g id="a_node3"><a xlink:href="../../d2/db8/class_menu.html#aff7a7627619921545f94547ab6135007" target="_top" xlink:title="Menu.addButton">
<polygon fill="white" stroke="black" points="246,-323.5 246,-342.5 342,-342.5 342,-323.5 246,-323.5"/>
<text text-anchor="middle" x="294" y="-330.5" font-family="Helvetica,sans-Serif" font-size="10.00">Menu.addButton</text>
</a>
</g>
</g>
<!-- Node2&#45;&gt;Node3 -->
<g id="edge2" class="edge"><title>Node2&#45;&gt;Node3</title>
<path fill="none" stroke="midnightblue" d="M209.736,-333C218.22,-333 226.989,-333 235.51,-333"/>
<polygon fill="midnightblue" stroke="midnightblue" points="235.744,-336.5 245.744,-333 235.744,-329.5 235.744,-336.5"/>
</g>
<!-- Node4 -->
<g id="node4" class="node"><title>Node4</title>
<g id="a_node4"><a xlink:href="../../d2/db8/class_menu.html#a53c8b072d5ec777994fed9ee76c98561" target="_top" xlink:title="Menu.handle">
<polygon fill="white" stroke="black" points="378,-323.5 378,-342.5 456,-342.5 456,-323.5 378,-323.5"/>
<text text-anchor="middle" x="417" y="-330.5" font-family="Helvetica,sans-Serif" font-size="10.00">Menu.handle</text>
</a>
</g>
</g>
<!-- Node3&#45;&gt;Node4 -->
<g id="edge3" class="edge"><title>Node3&#45;&gt;Node4</title>
<path fill="none" stroke="midnightblue" d="M342.128,-333C350.526,-333 359.285,-333 367.714,-333"/>
<polygon fill="midnightblue" stroke="midnightblue" points="367.785,-336.5 377.785,-333 367.785,-329.5 367.785,-336.5"/>
</g>
<!-- Node5 -->
<g id="node5" class="node"><title>Node5</title>
<g id="a_node5"><a xlink:href="../../d2/db8/class_menu.html#ab6296880308728ced459f772430d025b" target="_top" xlink:title="Menu.createGame">
<polygon fill="white" stroke="black" points="492,-323.5 492,-342.5 598,-342.5 598,-323.5 492,-323.5"/>
<text text-anchor="middle" x="545" y="-330.5" font-family="Helvetica,sans-Serif" font-size="10.00">Menu.createGame</text>
</a>
</g>
</g>
<!-- Node4&#45;&gt;Node5 -->
<g id="edge4" class="edge"><title>Node4&#45;&gt;Node5</title>
<path fill="none" stroke="midnightblue" d="M456.146,-333C464.163,-333 472.82,-333 481.465,-333"/>
<polygon fill="midnightblue" stroke="midnightblue" points="481.57,-336.5 491.57,-333 481.57,-329.5 481.57,-336.5"/>
</g>
<!-- Node6 -->
<g id="node6" class="node"><title>Node6</title>
<g id="a_node6"><a xlink:href="../../d6/d21/class_screen.html#a5d40342bbe33c27c9e0e24bd8709d1f6" target="_top" xlink:title="Screen.showAndAnim">
<polygon fill="white" stroke="black" points="1230.5,-342.5 1230.5,-361.5 1351.5,-361.5 1351.5,-342.5 1230.5,-342.5"/>
<text text-anchor="middle" x="1291" y="-349.5" font-family="Helvetica,sans-Serif" font-size="10.00">Screen.showAndAnim</text>
</a>
</g>
</g>
<!-- Node5&#45;&gt;Node6 -->
<g id="edge5" class="edge"><title>Node5&#45;&gt;Node6</title>
<path fill="none" stroke="midnightblue" d="M598.452,-339.221C649.753,-344.763 730.132,-352 800,-352 800,-352 800,-352 954,-352 1045.97,-352 1152.09,-352 1220.06,-352"/>
<polygon fill="midnightblue" stroke="midnightblue" points="1220.22,-355.5 1230.22,-352 1220.22,-348.5 1220.22,-355.5"/>
</g>
<!-- Node10 -->
<g id="node10" class="node"><title>Node10</title>
<g id="a_node10"><a xlink:href="../../d2/d3e/class_level1.html#a0871325d07c0614d5f1f2df7df13b703" target="_top" xlink:title="Level1.start">
<polygon fill="white" stroke="black" points="634.5,-304.5 634.5,-323.5 707.5,-323.5 707.5,-304.5 634.5,-304.5"/>
<text text-anchor="middle" x="671" y="-311.5" font-family="Helvetica,sans-Serif" font-size="10.00">Level1.start</text>
</a>
</g>
</g>
<!-- Node5&#45;&gt;Node10 -->
<g id="edge9" class="edge"><title>Node5&#45;&gt;Node10</title>
<path fill="none" stroke="midnightblue" d="M598.228,-324.997C606.886,-323.671 615.805,-322.304 624.286,-321.004"/>
<polygon fill="midnightblue" stroke="midnightblue" points="625.013,-324.434 634.368,-319.46 623.953,-317.515 625.013,-324.434"/>
</g>
<!-- Node7 -->
<g id="node7" class="node"><title>Node7</title>
<g id="a_node7"><a xlink:href="../../d6/d21/class_screen.html#a5d9534b81b96cfc0a00009dea6be6c09" target="_top" xlink:title="Screen.showScreen">
<polygon fill="white" stroke="black" points="1402.5,-247.5 1402.5,-266.5 1513.5,-266.5 1513.5,-247.5 1402.5,-247.5"/>
<text text-anchor="middle" x="1458" y="-254.5" font-family="Helvetica,sans-Serif" font-size="10.00">Screen.showScreen</text>
</a>
</g>
</g>
<!-- Node6&#45;&gt;Node7 -->
<g id="edge6" class="edge"><title>Node6&#45;&gt;Node7</title>
<path fill="none" stroke="midnightblue" d="M1328.59,-342.465C1336.5,-339.844 1344.68,-336.686 1352,-333 1384.71,-316.525 1418.27,-290.281 1438.37,-273.347"/>
<polygon fill="midnightblue" stroke="midnightblue" points="1440.8,-275.876 1446.13,-266.716 1436.25,-270.557 1440.8,-275.876"/>
</g>
<!-- Node9 -->
<g id="node9" class="node"><title>Node9</title>
<g id="a_node9"><a xlink:href="../../d6/d21/class_screen.html#a601576a0d49770789b2eb08328f09c53" target="_top" xlink:title="Screen.startAnim">
<polygon fill="white" stroke="black" points="1407.5,-342.5 1407.5,-361.5 1508.5,-361.5 1508.5,-342.5 1407.5,-342.5"/>
<text text-anchor="middle" x="1458" y="-349.5" font-family="Helvetica,sans-Serif" font-size="10.00">Screen.startAnim</text>
</a>
</g>
</g>
<!-- Node6&#45;&gt;Node9 -->
<g id="edge8" class="edge"><title>Node6&#45;&gt;Node9</title>
<path fill="none" stroke="midnightblue" d="M1351.57,-352C1366.42,-352 1382.35,-352 1397.21,-352"/>
<polygon fill="midnightblue" stroke="midnightblue" points="1397.3,-355.5 1407.3,-352 1397.3,-348.5 1397.3,-355.5"/>
</g>
<!-- Node8 -->
<g id="node8" class="node"><title>Node8</title>
<g id="a_node8"><a xlink:href="../../d6/d21/class_screen.html#ac7ca0a382b3177bbea4e2a4e7c0f442e" target="_top" xlink:title="Screen.init">
<polygon fill="white" stroke="black" points="1593,-247.5 1593,-266.5 1661,-266.5 1661,-247.5 1593,-247.5"/>
<text text-anchor="middle" x="1627" y="-254.5" font-family="Helvetica,sans-Serif" font-size="10.00">Screen.init</text>
</a>
</g>
</g>
<!-- Node7&#45;&gt;Node8 -->
<g id="edge7" class="edge"><title>Node7&#45;&gt;Node8</title>
<path fill="none" stroke="midnightblue" d="M1513.68,-257C1535.98,-257 1561.4,-257 1582.41,-257"/>
<polygon fill="midnightblue" stroke="midnightblue" points="1582.65,-260.5 1592.65,-257 1582.65,-253.5 1582.65,-260.5"/>
</g>
<!-- Node11 -->
<g id="node11" class="node"><title>Node11</title>
<g id="a_node11"><a xlink:href="../../d2/d3e/class_level1.html#a324da1e22a7a87fa4bb1859b5774bdba" target="_top" xlink:title="Level1.updateFrame">
<polygon fill="white" stroke="black" points="744,-228.5 744,-247.5 858,-247.5 858,-228.5 744,-228.5"/>
<text text-anchor="middle" x="801" y="-235.5" font-family="Helvetica,sans-Serif" font-size="10.00">Level1.updateFrame</text>
</a>
</g>
</g>
<!-- Node10&#45;&gt;Node11 -->
<g id="edge10" class="edge"><title>Node10&#45;&gt;Node11</title>
<path fill="none" stroke="midnightblue" d="M688.211,-304.375C710.14,-291.355 749.458,-268.009 775.135,-252.764"/>
<polygon fill="midnightblue" stroke="midnightblue" points="777.109,-255.662 783.92,-247.547 773.535,-249.643 777.109,-255.662"/>
</g>
<!-- Node12 -->
<g id="node12" class="node"><title>Node12</title>
<g id="a_node12"><a xlink:href="../../d2/d3e/class_level1.html#a78a7fb5633734b1815af8db43db23a41" target="_top" xlink:title="Level1.updateSprites">
<polygon fill="white" stroke="black" points="894,-171.5 894,-190.5 1012,-190.5 1012,-171.5 894,-171.5"/>
<text text-anchor="middle" x="953" y="-178.5" font-family="Helvetica,sans-Serif" font-size="10.00">Level1.updateSprites</text>
</a>
</g>
</g>
<!-- Node11&#45;&gt;Node12 -->
<g id="edge11" class="edge"><title>Node11&#45;&gt;Node12</title>
<path fill="none" stroke="midnightblue" d="M827.107,-228.459C851.767,-219.088 889.599,-204.712 917.164,-194.238"/>
<polygon fill="midnightblue" stroke="midnightblue" points="918.707,-197.396 926.811,-190.572 916.22,-190.852 918.707,-197.396"/>
</g>
<!-- Node31 -->
<g id="node31" class="node"><title>Node31</title>
<g id="a_node31"><a xlink:href="../../d2/d3e/class_level1.html#a5f552e875916d0cf7a74896401584b2a" target="_top" xlink:title="Level1.updateTimer">
<polygon fill="white" stroke="black" points="897.5,-228.5 897.5,-247.5 1008.5,-247.5 1008.5,-228.5 897.5,-228.5"/>
<text text-anchor="middle" x="953" y="-235.5" font-family="Helvetica,sans-Serif" font-size="10.00">Level1.updateTimer</text>
</a>
</g>
</g>
<!-- Node11&#45;&gt;Node31 -->
<g id="edge38" class="edge"><title>Node11&#45;&gt;Node31</title>
<path fill="none" stroke="midnightblue" d="M858.281,-238C867.683,-238 877.504,-238 887.1,-238"/>
<polygon fill="midnightblue" stroke="midnightblue" points="887.394,-241.5 897.394,-238 887.394,-234.5 887.394,-241.5"/>
</g>
<!-- Node13 -->
<g id="node13" class="node"><title>Node13</title>
<g id="a_node13"><a xlink:href="../../d2/d3e/class_level1.html#a5e6976ef755d0e678034870e374ee4ca" target="_top" xlink:title="Level1.goGameOver">
<polygon fill="white" stroke="black" points="1064,-228.5 1064,-247.5 1178,-247.5 1178,-228.5 1064,-228.5"/>
<text text-anchor="middle" x="1121" y="-235.5" font-family="Helvetica,sans-Serif" font-size="10.00">Level1.goGameOver</text>
</a>
</g>
</g>
<!-- Node12&#45;&gt;Node13 -->
<g id="edge12" class="edge"><title>Node12&#45;&gt;Node13</title>
<path fill="none" stroke="midnightblue" d="M975.366,-190.538C994.233,-198.743 1022.61,-210.556 1048,-219 1055.16,-221.383 1062.81,-223.668 1070.34,-225.775"/>
<polygon fill="midnightblue" stroke="midnightblue" points="1069.56,-229.189 1080.12,-228.436 1071.39,-222.434 1069.56,-229.189"/>
</g>
<!-- Node16 -->
<g id="node16" class="node"><title>Node16</title>
<g id="a_node16"><a xlink:href="../../d2/d3e/class_level1.html#ac56e75129bb2946c38cfcf43608f3f05" target="_top" xlink:title="Level1.goNextLevel">
<polygon fill="white" stroke="black" points="1066,-304.5 1066,-323.5 1176,-323.5 1176,-304.5 1066,-304.5"/>
<text text-anchor="middle" x="1121" y="-311.5" font-family="Helvetica,sans-Serif" font-size="10.00">Level1.goNextLevel</text>
</a>
</g>
</g>
<!-- Node12&#45;&gt;Node16 -->
<g id="edge16" class="edge"><title>Node12&#45;&gt;Node16</title>
<path fill="none" stroke="midnightblue" d="M974.019,-190.526C986.24,-197.142 1001.48,-206.927 1012,-219 1036.55,-247.183 1019.25,-271.116 1048,-295 1050.72,-297.258 1053.68,-299.25 1056.79,-301.007"/>
<polygon fill="midnightblue" stroke="midnightblue" points="1055.39,-304.217 1065.92,-305.365 1058.41,-297.899 1055.39,-304.217"/>
</g>
<!-- Node18 -->
<g id="node18" class="node"><title>Node18</title>
<g id="a_node18"><a xlink:href="../../dd/d7a/class_enemy.html#a9b6840dcc6b8165268e957fc43d95b06" target="_top" xlink:title="Enemy.makePoop">
<polygon fill="white" stroke="black" points="1070,-152.5 1070,-171.5 1172,-171.5 1172,-152.5 1070,-152.5"/>
<text text-anchor="middle" x="1121" y="-159.5" font-family="Helvetica,sans-Serif" font-size="10.00">Enemy.makePoop</text>
</a>
</g>
</g>
<!-- Node12&#45;&gt;Node18 -->
<g id="edge22" class="edge"><title>Node12&#45;&gt;Node18</title>
<path fill="none" stroke="midnightblue" d="M1012.06,-174.355C1027.55,-172.581 1044.32,-170.662 1059.92,-168.877"/>
<polygon fill="midnightblue" stroke="midnightblue" points="1060.44,-172.34 1069.98,-167.726 1059.64,-165.386 1060.44,-172.34"/>
</g>
<!-- Node20 -->
<g id="node20" class="node"><title>Node20</title>
<g id="a_node20"><a xlink:href="../../d8/d53/class_player.html#a1b7a0a6c68deb202a672d42e205d5a21" target="_top" xlink:title="Player.moveSprite">
<polygon fill="white" stroke="black" points="1069,-114.5 1069,-133.5 1173,-133.5 1173,-114.5 1069,-114.5"/>
<text text-anchor="middle" x="1121" y="-121.5" font-family="Helvetica,sans-Serif" font-size="10.00">Player.moveSprite</text>
</a>
</g>
</g>
<!-- Node12&#45;&gt;Node20 -->
<g id="edge24" class="edge"><title>Node12&#45;&gt;Node20</title>
<path fill="none" stroke="midnightblue" d="M975.366,-171.462C994.233,-163.257 1022.61,-151.444 1048,-143 1055.16,-140.617 1062.81,-138.332 1070.34,-136.225"/>
<polygon fill="midnightblue" stroke="midnightblue" points="1071.39,-139.566 1080.12,-133.564 1069.56,-132.811 1071.39,-139.566"/>
</g>
<!-- Node22 -->
<g id="node22" class="node"><title>Node22</title>
<g id="a_node22"><a xlink:href="../../dd/d7a/class_enemy.html#ab653212b50d9e64ba497ae18696d3678" target="_top" xlink:title="Enemy.moveSprite">
<polygon fill="white" stroke="black" points="1067.5,-76.5 1067.5,-95.5 1174.5,-95.5 1174.5,-76.5 1067.5,-76.5"/>
<text text-anchor="middle" x="1121" y="-83.5" font-family="Helvetica,sans-Serif" font-size="10.00">Enemy.moveSprite</text>
</a>
</g>
</g>
<!-- Node12&#45;&gt;Node22 -->
<g id="edge27" class="edge"><title>Node12&#45;&gt;Node22</title>
<path fill="none" stroke="midnightblue" d="M963.176,-171.278C978.972,-155.114 1012.99,-122.737 1048,-105 1052.57,-102.686 1057.45,-100.633 1062.43,-98.8155"/>
<polygon fill="midnightblue" stroke="midnightblue" points="1063.7,-102.081 1072.09,-95.605 1061.49,-95.4384 1063.7,-102.081"/>
</g>
<!-- Node24 -->
<g id="node24" class="node"><title>Node24</title>
<g id="a_node24"><a xlink:href="../../d2/d3e/class_level1.html#a5995ba731849ced54b8f97fcc93ce4d9" target="_top" xlink:title="Level1.removeFromScreen">
<polygon fill="white" stroke="black" points="1048.5,-38.5 1048.5,-57.5 1193.5,-57.5 1193.5,-38.5 1048.5,-38.5"/>
<text text-anchor="middle" x="1121" y="-45.5" font-family="Helvetica,sans-Serif" font-size="10.00">Level1.removeFromScreen</text>
</a>
</g>
</g>
<!-- Node12&#45;&gt;Node24 -->
<g id="edge31" class="edge"><title>Node12&#45;&gt;Node24</title>
<path fill="none" stroke="midnightblue" d="M959.14,-171.326C971.395,-149.226 1004.58,-94.8079 1048,-67 1051.33,-64.8647 1054.9,-62.9684 1058.6,-61.2845"/>
<polygon fill="midnightblue" stroke="midnightblue" points="1060.01,-64.4887 1067.99,-57.5209 1057.41,-57.9907 1060.01,-64.4887"/>
</g>
<!-- Node25 -->
<g id="node25" class="node"><title>Node25</title>
<g id="a_node25"><a xlink:href="../../d2/d3e/class_level1.html#aa75f107bf925594da75a1d82cf64044d" target="_top" xlink:title="Level1.returnCollisions">
<polygon fill="white" stroke="black" points="1059,-0.5 1059,-19.5 1183,-19.5 1183,-0.5 1059,-0.5"/>
<text text-anchor="middle" x="1121" y="-7.5" font-family="Helvetica,sans-Serif" font-size="10.00">Level1.returnCollisions</text>
</a>
</g>
</g>
<!-- Node12&#45;&gt;Node25 -->
<g id="edge32" class="edge"><title>Node12&#45;&gt;Node25</title>
<path fill="none" stroke="midnightblue" d="M957.072,-171.414C966.213,-144.483 995.889,-67.595 1048,-29 1050.52,-27.1365 1053.2,-25.4556 1056,-23.9394"/>
<polygon fill="midnightblue" stroke="midnightblue" points="1057.66,-27.0247 1065.26,-19.6354 1054.71,-20.677 1057.66,-27.0247"/>
</g>
<!-- Node29 -->
<g id="node29" class="node"><title>Node29</title>
<g id="a_node29"><a xlink:href="../../d7/da7/class_character.html#aad64a9dc8ceea8b806cf2e1908cd0df8" target="_top" xlink:title="Character.setFull">
<polygon fill="white" stroke="black" points="1073,-266.5 1073,-285.5 1169,-285.5 1169,-266.5 1073,-266.5"/>
<text text-anchor="middle" x="1121" y="-273.5" font-family="Helvetica,sans-Serif" font-size="10.00">Character.setFull</text>
</a>
</g>
</g>
<!-- Node12&#45;&gt;Node29 -->
<g id="edge36" class="edge"><title>Node12&#45;&gt;Node29</title>
<path fill="none" stroke="midnightblue" d="M970.713,-190.525C982.704,-197.692 998.976,-208.114 1012,-219 1029.85,-233.92 1027.99,-245.135 1048,-257 1052.73,-259.802 1057.87,-262.198 1063.16,-264.244"/>
<polygon fill="midnightblue" stroke="midnightblue" points="1062.18,-267.61 1072.78,-267.564 1064.46,-260.993 1062.18,-267.61"/>
</g>
<!-- Node30 -->
<g id="node30" class="node"><title>Node30</title>
<g id="a_node30"><a xlink:href="../../d7/da7/class_character.html#ac0b4f4ace84c8e5aa60f05515806015d" target="_top" xlink:title="Character.setHP">
<polygon fill="white" stroke="black" points="1073.5,-190.5 1073.5,-209.5 1168.5,-209.5 1168.5,-190.5 1073.5,-190.5"/>
<text text-anchor="middle" x="1121" y="-197.5" font-family="Helvetica,sans-Serif" font-size="10.00">Character.setHP</text>
</a>
</g>
</g>
<!-- Node12&#45;&gt;Node30 -->
<g id="edge37" class="edge"><title>Node12&#45;&gt;Node30</title>
<path fill="none" stroke="midnightblue" d="M1012.06,-187.645C1028.71,-189.551 1046.83,-191.625 1063.39,-193.52"/>
<polygon fill="midnightblue" stroke="midnightblue" points="1063.13,-197.014 1073.47,-194.674 1063.93,-190.059 1063.13,-197.014"/>
</g>
<!-- Node13&#45;&gt;Node7 -->
<g id="edge15" class="edge"><title>Node13&#45;&gt;Node7</title>
<path fill="none" stroke="midnightblue" d="M1162.59,-228.431C1208.76,-218.979 1286.29,-207.476 1352,-219 1378.54,-223.655 1407.21,-234.456 1427.88,-243.358"/>
<polygon fill="midnightblue" stroke="midnightblue" points="1426.49,-246.572 1437.05,-247.412 1429.32,-240.169 1426.49,-246.572"/>
</g>
<!-- Node14 -->
<g id="node14" class="node"><title>Node14</title>
<g id="a_node14"><a xlink:href="../../d2/d3e/class_level1.html#ac4098d447b9841cabec6be3bb719bd26" target="_top" xlink:title="Level1.clearElements">
<polygon fill="white" stroke="black" points="1231.5,-266.5 1231.5,-285.5 1350.5,-285.5 1350.5,-266.5 1231.5,-266.5"/>
<text text-anchor="middle" x="1291" y="-273.5" font-family="Helvetica,sans-Serif" font-size="10.00">Level1.clearElements</text>
</a>
</g>
</g>
<!-- Node13&#45;&gt;Node14 -->
<g id="edge13" class="edge"><title>Node13&#45;&gt;Node14</title>
<path fill="none" stroke="midnightblue" d="M1164.39,-247.589C1186.76,-252.649 1214.4,-258.9 1238.05,-264.249"/>
<polygon fill="midnightblue" stroke="midnightblue" points="1237.39,-267.687 1247.91,-266.48 1238.93,-260.86 1237.39,-267.687"/>
</g>
<!-- Node15 -->
<g id="node15" class="node"><title>Node15</title>
<g id="a_node15"><a xlink:href="../../d7/da7/class_character.html#a4dc23a76b34bcbb84abba1b116847268" target="_top" xlink:title="Character.getHP">
<polygon fill="white" stroke="black" points="1243.5,-228.5 1243.5,-247.5 1338.5,-247.5 1338.5,-228.5 1243.5,-228.5"/>
<text text-anchor="middle" x="1291" y="-235.5" font-family="Helvetica,sans-Serif" font-size="10.00">Character.getHP</text>
</a>
</g>
</g>
<!-- Node13&#45;&gt;Node15 -->
<g id="edge14" class="edge"><title>Node13&#45;&gt;Node15</title>
<path fill="none" stroke="midnightblue" d="M1178.41,-238C1196.02,-238 1215.45,-238 1233.09,-238"/>
<polygon fill="midnightblue" stroke="midnightblue" points="1233.25,-241.5 1243.25,-238 1233.25,-234.5 1233.25,-241.5"/>
</g>
<!-- Node16&#45;&gt;Node6 -->
<g id="edge20" class="edge"><title>Node16&#45;&gt;Node6</title>
<path fill="none" stroke="midnightblue" d="M1164.39,-323.589C1186.76,-328.649 1214.4,-334.9 1238.05,-340.249"/>
<polygon fill="midnightblue" stroke="midnightblue" points="1237.39,-343.687 1247.91,-342.48 1238.93,-336.86 1237.39,-343.687"/>
</g>
<!-- Node16&#45;&gt;Node10 -->
<g id="edge21" class="edge"><title>Node16&#45;&gt;Node10</title>
<path fill="none" stroke="midnightblue" d="M1065.74,-314C976.614,-314 800.848,-314 717.678,-314"/>
<polygon fill="midnightblue" stroke="midnightblue" points="717.528,-310.5 707.528,-314 717.528,-317.5 717.528,-310.5"/>
</g>
<!-- Node16&#45;&gt;Node14 -->
<g id="edge17" class="edge"><title>Node16&#45;&gt;Node14</title>
<path fill="none" stroke="midnightblue" d="M1164.39,-304.411C1186.76,-299.351 1214.4,-293.1 1238.05,-287.751"/>
<polygon fill="midnightblue" stroke="midnightblue" points="1238.93,-291.14 1247.91,-285.52 1237.39,-284.313 1238.93,-291.14"/>
</g>
<!-- Node16&#45;&gt;Node15 -->
<g id="edge18" class="edge"><title>Node16&#45;&gt;Node15</title>
<path fill="none" stroke="midnightblue" d="M1172.63,-304.473C1180.08,-301.996 1187.44,-298.89 1194,-295 1214.01,-283.135 1210.28,-269.349 1230,-257 1233.34,-254.907 1236.93,-253.026 1240.64,-251.339"/>
<polygon fill="midnightblue" stroke="midnightblue" points="1242.06,-254.541 1250.01,-247.537 1239.43,-248.055 1242.06,-254.541"/>
</g>
<!-- Node17 -->
<g id="node17" class="node"><title>Node17</title>
<g id="a_node17"><a xlink:href="../../dd/d7a/class_enemy.html#a0b00e167bc151db783054dddb2f9b509" target="_top" xlink:title="Enemy.makeAngry">
<polygon fill="white" stroke="black" points="1238,-304.5 1238,-323.5 1344,-323.5 1344,-304.5 1238,-304.5"/>
<text text-anchor="middle" x="1291" y="-311.5" font-family="Helvetica,sans-Serif" font-size="10.00">Enemy.makeAngry</text>
</a>
</g>
</g>
<!-- Node16&#45;&gt;Node17 -->
<g id="edge19" class="edge"><title>Node16&#45;&gt;Node17</title>
<path fill="none" stroke="midnightblue" d="M1176.08,-314C1192.44,-314 1210.55,-314 1227.42,-314"/>
<polygon fill="midnightblue" stroke="midnightblue" points="1227.74,-317.5 1237.74,-314 1227.74,-310.5 1227.74,-317.5"/>
</g>
<!-- Node19 -->
<g id="node19" class="node"><title>Node19</title>
<g id="a_node19"><a xlink:href="../../d7/dbf/class_sprite.html#accdf1c21264c6ff648ece508cf176bfb" target="_top" xlink:title="Sprite.setVelocity">
<polygon fill="white" stroke="black" points="1241,-133.5 1241,-152.5 1341,-152.5 1341,-133.5 1241,-133.5"/>
<text text-anchor="middle" x="1291" y="-140.5" font-family="Helvetica,sans-Serif" font-size="10.00">Sprite.setVelocity</text>
</a>
</g>
</g>
<!-- Node18&#45;&gt;Node19 -->
<g id="edge23" class="edge"><title>Node18&#45;&gt;Node19</title>
<path fill="none" stroke="midnightblue" d="M1172.41,-156.299C1190.76,-154.224 1211.67,-151.859 1230.72,-149.704"/>
<polygon fill="midnightblue" stroke="midnightblue" points="1231.24,-153.168 1240.79,-148.566 1230.46,-146.212 1231.24,-153.168"/>
</g>
<!-- Node20&#45;&gt;Node19 -->
<g id="edge25" class="edge"><title>Node20&#45;&gt;Node19</title>
<path fill="none" stroke="midnightblue" d="M1173.32,-129.804C1191.39,-131.848 1211.86,-134.163 1230.55,-136.276"/>
<polygon fill="midnightblue" stroke="midnightblue" points="1230.39,-139.781 1240.72,-137.427 1231.18,-132.825 1230.39,-139.781"/>
</g>
<!-- Node21 -->
<g id="node21" class="node"><title>Node21</title>
<g id="a_node21"><a xlink:href="../../d7/dbf/class_sprite.html#ab8f846b7ba77ae72ad09f48da22ceea7" target="_top" xlink:title="Sprite.moveSprite">
<polygon fill="white" stroke="black" points="1239,-95.5 1239,-114.5 1343,-114.5 1343,-95.5 1239,-95.5"/>
<text text-anchor="middle" x="1291" y="-102.5" font-family="Helvetica,sans-Serif" font-size="10.00">Sprite.moveSprite</text>
</a>
</g>
</g>
<!-- Node20&#45;&gt;Node21 -->
<g id="edge26" class="edge"><title>Node20&#45;&gt;Node21</title>
<path fill="none" stroke="midnightblue" d="M1173.32,-118.196C1190.9,-116.207 1210.76,-113.962 1229.03,-111.895"/>
<polygon fill="midnightblue" stroke="midnightblue" points="1229.45,-115.37 1239,-110.768 1228.67,-108.414 1229.45,-115.37"/>
</g>
<!-- Node22&#45;&gt;Node19 -->
<g id="edge30" class="edge"><title>Node22&#45;&gt;Node19</title>
<path fill="none" stroke="midnightblue" d="M1164.77,-95.5728C1174.52,-98.2236 1184.73,-101.383 1194,-105 1210.86,-111.573 1213.31,-117.019 1230,-124 1235.36,-126.242 1241.08,-128.372 1246.78,-130.34"/>
<polygon fill="midnightblue" stroke="midnightblue" points="1245.7,-133.669 1256.29,-133.491 1247.9,-127.024 1245.7,-133.669"/>
</g>
<!-- Node22&#45;&gt;Node21 -->
<g id="edge29" class="edge"><title>Node22&#45;&gt;Node21</title>
<path fill="none" stroke="midnightblue" d="M1174.7,-91.9596C1191.83,-93.8974 1210.99,-96.0644 1228.7,-98.067"/>
<polygon fill="midnightblue" stroke="midnightblue" points="1228.6,-101.578 1238.93,-99.2241 1229.39,-94.6224 1228.6,-101.578"/>
</g>
<!-- Node23 -->
<g id="node23" class="node"><title>Node23</title>
<g id="a_node23"><a xlink:href="../../d7/dbf/class_sprite.html#a4dd4a643703de09c632a0e7d70a570e7" target="_top" xlink:title="Sprite.getVelocity">
<polygon fill="white" stroke="black" points="1240.5,-57.5 1240.5,-76.5 1341.5,-76.5 1341.5,-57.5 1240.5,-57.5"/>
<text text-anchor="middle" x="1291" y="-64.5" font-family="Helvetica,sans-Serif" font-size="10.00">Sprite.getVelocity</text>
</a>
</g>
</g>
<!-- Node22&#45;&gt;Node23 -->
<g id="edge28" class="edge"><title>Node22&#45;&gt;Node23</title>
<path fill="none" stroke="midnightblue" d="M1174.7,-80.0404C1192.31,-78.0479 1212.08,-75.8129 1230.2,-73.7636"/>
<polygon fill="midnightblue" stroke="midnightblue" points="1230.81,-77.2162 1240.36,-72.6145 1230.03,-70.2605 1230.81,-77.2162"/>
</g>
<!-- Node26 -->
<g id="node26" class="node"><title>Node26</title>
<g id="a_node26"><a xlink:href="../../d7/da7/class_character.html#aa2149c166e797ae0ded67d9f768ac7f3" target="_top" xlink:title="Character.updateAll">
<polygon fill="white" stroke="black" points="1235.5,-0.5 1235.5,-19.5 1346.5,-19.5 1346.5,-0.5 1235.5,-0.5"/>
<text text-anchor="middle" x="1291" y="-7.5" font-family="Helvetica,sans-Serif" font-size="10.00">Character.updateAll</text>
</a>
</g>
</g>
<!-- Node25&#45;&gt;Node26 -->
<g id="edge33" class="edge"><title>Node25&#45;&gt;Node26</title>
<path fill="none" stroke="midnightblue" d="M1183.13,-10C1196.73,-10 1211.21,-10 1224.96,-10"/>
<polygon fill="midnightblue" stroke="midnightblue" points="1225.32,-13.5001 1235.32,-10 1225.32,-6.5001 1225.32,-13.5001"/>
</g>
<!-- Node27 -->
<g id="node27" class="node"><title>Node27</title>
<g id="a_node27"><a xlink:href="../../d7/da7/class_character.html#ade25acccb27ac9aeb2752b2df29d075f" target="_top" xlink:title="Character.collisionUpdate">
<polygon fill="white" stroke="black" points="1388.5,-0.5 1388.5,-19.5 1527.5,-19.5 1527.5,-0.5 1388.5,-0.5"/>
<text text-anchor="middle" x="1458" y="-7.5" font-family="Helvetica,sans-Serif" font-size="10.00">Character.collisionUpdate</text>
</a>
</g>
</g>
<!-- Node26&#45;&gt;Node27 -->
<g id="edge34" class="edge"><title>Node26&#45;&gt;Node27</title>
<path fill="none" stroke="midnightblue" d="M1346.94,-10C1357.03,-10 1367.74,-10 1378.36,-10"/>
<polygon fill="midnightblue" stroke="midnightblue" points="1378.5,-13.5001 1388.5,-10 1378.5,-6.5001 1378.5,-13.5001"/>
</g>
<!-- Node28 -->
<g id="node28" class="node"><title>Node28</title>
<g id="a_node28"><a xlink:href="../../d7/da7/class_character.html#ad223fcb54929116326bf8816d43f5173" target="_top" xlink:title="Character.checkCollide">
<polygon fill="white" stroke="black" points="1564.5,-0.5 1564.5,-19.5 1689.5,-19.5 1689.5,-0.5 1564.5,-0.5"/>
<text text-anchor="middle" x="1627" y="-7.5" font-family="Helvetica,sans-Serif" font-size="10.00">Character.checkCollide</text>
</a>
</g>
</g>
<!-- Node27&#45;&gt;Node28 -->
<g id="edge35" class="edge"><title>Node27&#45;&gt;Node28</title>
<path fill="none" stroke="midnightblue" d="M1527.89,-10C1536.61,-10 1545.54,-10 1554.31,-10"/>
<polygon fill="midnightblue" stroke="midnightblue" points="1554.48,-13.5001 1564.48,-10 1554.48,-6.5001 1554.48,-13.5001"/>
</g>
<!-- Node33 -->
<g id="node33" class="node"><title>Node33</title>
<g id="a_node33"><a xlink:href="../../d2/db8/class_menu.html#ae7a84dff285d306f8f11489072b94870" target="_top" xlink:title="Menu.addText">
<polygon fill="white" stroke="black" points="252.5,-285.5 252.5,-304.5 335.5,-304.5 335.5,-285.5 252.5,-285.5"/>
<text text-anchor="middle" x="294" y="-292.5" font-family="Helvetica,sans-Serif" font-size="10.00">Menu.addText</text>
</a>
</g>
</g>
<!-- Node32&#45;&gt;Node33 -->
<g id="edge40" class="edge"><title>Node32&#45;&gt;Node33</title>
<path fill="none" stroke="midnightblue" d="M200.285,-295C213.627,-295 228.258,-295 241.876,-295"/>
<polygon fill="midnightblue" stroke="midnightblue" points="242.053,-298.5 252.053,-295 242.053,-291.5 242.053,-298.5"/>
</g>
</g>
</svg>
        <g id="navigator" transform="translate(0 0)" fill="#404254">
                <rect fill="#f2f5e9" fill-opacity="0.5" stroke="#606060" stroke-width=".5" x="0" y="0" width="60" height="60"/>
                <use id="zoomplus" xlink:href="#zoomPlus" x="17" y="9" onmousedown="handleZoom(evt,'in')"/>
                <use id="zoomminus" xlink:href="#zoomMin" x="42" y="9" onmousedown="handleZoom(evt,'out')"/>
                <use id="reset" xlink:href="#resetDef" x="30" y="36" onmousedown="handleReset()"/>
                <g id="arrowUp" xlink:href="#dirArrow" transform="translate(30 24)" onmousedown="handlePan(0,-1)">
                  <use xlink:href="#rim" fill="#404040">
                        <set attributeName="fill" to="#808080" begin="arrowUp.mouseover" end="arrowUp.mouseout"/>
                  </use>
                  <path fill="none" stroke="white" stroke-width="1.5" d="M0,-3.0v7 M-2.5,-0.5L0,-3.0L2.5,-0.5"/>
                </g>
                <g id="arrowRight" xlink:href="#dirArrow" transform="rotate(90) translate(36 -43)" onmousedown="handlePan(1,0)">
                  <use xlink:href="#rim" fill="#404040">
                        <set attributeName="fill" to="#808080" begin="arrowRight.mouseover" end="arrowRight.mouseout"/>
                  </use>
                  <path fill="none" stroke="white" stroke-width="1.5" d="M0,-3.0v7 M-2.5,-0.5L0,-3.0L2.5,-0.5"/>
                </g>
                <g id="arrowDown" xlink:href="#dirArrow" transform="rotate(180) translate(-30 -48)" onmousedown="handlePan(0,1)">
                  <use xlink:href="#rim" fill="#404040">
                        <set attributeName="fill" to="#808080" begin="arrowDown.mouseover" end="arrowDown.mouseout"/>
                  </use>
                  <path fill="none" stroke="white" stroke-width="1.5" d="M0,-3.0v7 M-2.5,-0.5L0,-3.0L2.5,-0.5"/>
                </g>
                <g id="arrowLeft" xlink:href="#dirArrow" transform="rotate(270) translate(-36 17)" onmousedown="handlePan(-1,0)">
                  <use xlink:href="#rim" fill="#404040">
                        <set attributeName="fill" to="#808080" begin="arrowLeft.mouseover" end="arrowLeft.mouseout"/>
                  </use>
                  <path fill="none" stroke="white" stroke-width="1.5" d="M0,-3.0v7 M-2.5,-0.5L0,-3.0L2.5,-0.5"/>
                </g>
        </g>
        <svg viewBox="0 0 15 15" width="100%" height="30px" preserveAspectRatio="xMaxYMin meet">
         <g id="arrow_out" transform="scale(0.3 0.3)">
          <a xlink:href="class_menu_a3c99ad09e9f2f975c1a0d0597642651a_cgraph_org.svg" target="_base">
           <rect id="button" ry="5" rx="5" y="6" x="6" height="38" width="38"
                fill="#f2f5e9" fill-opacity="0.5" stroke="#606060" stroke-width="1.0"/>
           <path id="arrow"
             d="M 11.500037,31.436501 C 11.940474,20.09759 22.043105,11.32322 32.158766,21.979434 L 37.068811,17.246167 C 37.068811,17.246167 37.088388,32 37.088388,32 L 22.160133,31.978069 C 22.160133,31.978069 26.997745,27.140456 26.997745,27.140456 C 18.528582,18.264221 13.291696,25.230495 11.500037,31.436501 z"
             style="fill:#404040;"/>
          </a>
         </g>
        </svg>
</svg>
