<?xml version="1.0" encoding="UTF-8" standalone="no"?>
<!DOCTYPE svg PUBLIC "-//W3C//DTD SVG 1.1//EN"
 "http://www.w3.org/Graphics/SVG/1.1/DTD/svg11.dtd">
<!-- Generated by graphviz version 2.36.0 (20140111.2315)
 -->
<!-- Title: Menu.addButton Pages: 1 -->
<svg width="1452pt" height="351pt"
 viewBox="0.00 0.00 1452.00 351.00" xmlns="http://www.w3.org/2000/svg" xmlns:xlink="http://www.w3.org/1999/xlink">
<g id="graph0" class="graph" transform="scale(1 1) rotate(0) translate(4 347)">
<title>Menu.addButton</title>
<polygon fill="white" stroke="none" points="-4,4 -4,-347 1448,-347 1448,4 -4,4"/>
<!-- Node1 -->
<g id="node1" class="node"><title>Node1</title>
<polygon fill="#bfbfbf" stroke="black" points="0,-47.5 0,-66.5 96,-66.5 96,-47.5 0,-47.5"/>
<text text-anchor="middle" x="48" y="-54.5" font-family="Helvetica,sans-Serif" font-size="10.00">Menu.addButton</text>
</g>
<!-- Node2 -->
<g id="node2" class="node"><title>Node2</title>
<g id="a_node2"><a xlink:href="../../d2/db8/class_menu.html#a53c8b072d5ec777994fed9ee76c98561" target="_top" xlink:title="Menu.handle">
<polygon fill="white" stroke="black" points="132,-47.5 132,-66.5 210,-66.5 210,-47.5 132,-47.5"/>
<text text-anchor="middle" x="171" y="-54.5" font-family="Helvetica,sans-Serif" font-size="10.00">Menu.handle</text>
</a>
</g>
</g>
<!-- Node1&#45;&gt;Node2 -->
<g id="edge1" class="edge"><title>Node1&#45;&gt;Node2</title>
<path fill="none" stroke="midnightblue" d="M96.1282,-57C104.526,-57 113.285,-57 121.714,-57"/>
<polygon fill="midnightblue" stroke="midnightblue" points="121.785,-60.5001 131.785,-57 121.785,-53.5001 121.785,-60.5001"/>
</g>
<!-- Node3 -->
<g id="node3" class="node"><title>Node3</title>
<g id="a_node3"><a xlink:href="../../d2/db8/class_menu.html#ab6296880308728ced459f772430d025b" target="_top" xlink:title="Menu.createGame">
<polygon fill="white" stroke="black" points="246,-47.5 246,-66.5 352,-66.5 352,-47.5 246,-47.5"/>
<text text-anchor="middle" x="299" y="-54.5" font-family="Helvetica,sans-Serif" font-size="10.00">Menu.createGame</text>
</a>
</g>
</g>
<!-- Node2&#45;&gt;Node3 -->
<g id="edge2" class="edge"><title>Node2&#45;&gt;Node3</title>
<path fill="none" stroke="midnightblue" d="M210.146,-57C218.163,-57 226.82,-57 235.465,-57"/>
<polygon fill="midnightblue" stroke="midnightblue" points="235.57,-60.5001 245.57,-57 235.57,-53.5001 235.57,-60.5001"/>
</g>
<!-- Node4 -->
<g id="node4" class="node"><title>Node4</title>
<g id="a_node4"><a xlink:href="../../d2/d3e/class_level1.html#a0871325d07c0614d5f1f2df7df13b703" target="_top" xlink:title="Level1.start">
<polygon fill="white" stroke="black" points="388.5,-76.5 388.5,-95.5 461.5,-95.5 461.5,-76.5 388.5,-76.5"/>
<text text-anchor="middle" x="425" y="-83.5" font-family="Helvetica,sans-Serif" font-size="10.00">Level1.start</text>
</a>
</g>
</g>
<!-- Node3&#45;&gt;Node4 -->
<g id="edge3" class="edge"><title>Node3&#45;&gt;Node4</title>
<path fill="none" stroke="midnightblue" d="M340.946,-66.5761C352.85,-69.3601 365.93,-72.419 378.116,-75.2691"/>
<polygon fill="midnightblue" stroke="midnightblue" points="377.563,-78.7342 388.098,-77.6035 379.157,-71.9181 377.563,-78.7342"/>
</g>
<!-- Node14 -->
<g id="node14" class="node"><title>Node14</title>
<g id="a_node14"><a xlink:href="../../d6/d21/class_screen.html#a5d40342bbe33c27c9e0e24bd8709d1f6" target="_top" xlink:title="Screen.showAndAnim">
<polygon fill="white" stroke="black" points="984.5,-0.5 984.5,-19.5 1105.5,-19.5 1105.5,-0.5 984.5,-0.5"/>
<text text-anchor="middle" x="1045" y="-7.5" font-family="Helvetica,sans-Serif" font-size="10.00">Screen.showAndAnim</text>
</a>
</g>
</g>
<!-- Node3&#45;&gt;Node14 -->
<g id="edge34" class="edge"><title>Node3&#45;&gt;Node14</title>
<path fill="none" stroke="midnightblue" d="M352.353,-47.8318C403.579,-39.6658 483.904,-29 554,-29 554,-29 554,-29 708,-29 800.113,-29 906.205,-21.7939 974.122,-16.2575"/>
<polygon fill="midnightblue" stroke="midnightblue" points="974.595,-19.7304 984.273,-15.4192 974.019,-12.7542 974.595,-19.7304"/>
</g>
<!-- Node5 -->
<g id="node5" class="node"><title>Node5</title>
<g id="a_node5"><a xlink:href="../../d2/d3e/class_level1.html#a324da1e22a7a87fa4bb1859b5774bdba" target="_top" xlink:title="Level1.updateFrame">
<polygon fill="white" stroke="black" points="498,-171.5 498,-190.5 612,-190.5 612,-171.5 498,-171.5"/>
<text text-anchor="middle" x="555" y="-178.5" font-family="Helvetica,sans-Serif" font-size="10.00">Level1.updateFrame</text>
</a>
</g>
</g>
<!-- Node4&#45;&gt;Node5 -->
<g id="edge4" class="edge"><title>Node4&#45;&gt;Node5</title>
<path fill="none" stroke="midnightblue" d="M439.216,-95.8089C461.368,-112.249 506.172,-145.503 532.78,-165.251"/>
<polygon fill="midnightblue" stroke="midnightblue" points="530.93,-168.237 541.046,-171.386 535.102,-162.616 530.93,-168.237"/>
</g>
<!-- Node6 -->
<g id="node6" class="node"><title>Node6</title>
<g id="a_node6"><a xlink:href="../../d2/d3e/class_level1.html#a78a7fb5633734b1815af8db43db23a41" target="_top" xlink:title="Level1.updateSprites">
<polygon fill="white" stroke="black" points="648,-171.5 648,-190.5 766,-190.5 766,-171.5 648,-171.5"/>
<text text-anchor="middle" x="707" y="-178.5" font-family="Helvetica,sans-Serif" font-size="10.00">Level1.updateSprites</text>
</a>
</g>
</g>
<!-- Node5&#45;&gt;Node6 -->
<g id="edge5" class="edge"><title>Node5&#45;&gt;Node6</title>
<path fill="none" stroke="midnightblue" d="M612.281,-181C620.555,-181 629.154,-181 637.639,-181"/>
<polygon fill="midnightblue" stroke="midnightblue" points="637.902,-184.5 647.902,-181 637.902,-177.5 637.902,-184.5"/>
</g>
<!-- Node27 -->
<g id="node27" class="node"><title>Node27</title>
<g id="a_node27"><a xlink:href="../../d2/d3e/class_level1.html#a5f552e875916d0cf7a74896401584b2a" target="_top" xlink:title="Level1.updateTimer">
<polygon fill="white" stroke="black" points="651.5,-209.5 651.5,-228.5 762.5,-228.5 762.5,-209.5 651.5,-209.5"/>
<text text-anchor="middle" x="707" y="-216.5" font-family="Helvetica,sans-Serif" font-size="10.00">Level1.updateTimer</text>
</a>
</g>
</g>
<!-- Node5&#45;&gt;Node27 -->
<g id="edge33" class="edge"><title>Node5&#45;&gt;Node27</title>
<path fill="none" stroke="midnightblue" d="M593.851,-190.589C613.467,-195.558 637.619,-201.677 658.479,-206.961"/>
<polygon fill="midnightblue" stroke="midnightblue" points="657.868,-210.417 668.421,-209.48 659.587,-203.631 657.868,-210.417"/>
</g>
<!-- Node7 -->
<g id="node7" class="node"><title>Node7</title>
<g id="a_node7"><a xlink:href="../../d2/d3e/class_level1.html#a5e6976ef755d0e678034870e374ee4ca" target="_top" xlink:title="Level1.goGameOver">
<polygon fill="white" stroke="black" points="818,-114.5 818,-133.5 932,-133.5 932,-114.5 818,-114.5"/>
<text text-anchor="middle" x="875" y="-121.5" font-family="Helvetica,sans-Serif" font-size="10.00">Level1.goGameOver</text>
</a>
</g>
</g>
<!-- Node6&#45;&gt;Node7 -->
<g id="edge6" class="edge"><title>Node6&#45;&gt;Node7</title>
<path fill="none" stroke="midnightblue" d="M729.366,-171.462C748.233,-163.257 776.612,-151.444 802,-143 809.165,-140.617 816.808,-138.332 824.339,-136.225"/>
<polygon fill="midnightblue" stroke="midnightblue" points="825.392,-139.566 834.123,-133.564 823.555,-132.811 825.392,-139.566"/>
</g>
<!-- Node12 -->
<g id="node12" class="node"><title>Node12</title>
<g id="a_node12"><a xlink:href="../../d2/d3e/class_level1.html#ac56e75129bb2946c38cfcf43608f3f05" target="_top" xlink:title="Level1.goNextLevel">
<polygon fill="white" stroke="black" points="820,-76.5 820,-95.5 930,-95.5 930,-76.5 820,-76.5"/>
<text text-anchor="middle" x="875" y="-83.5" font-family="Helvetica,sans-Serif" font-size="10.00">Level1.goNextLevel</text>
</a>
</g>
</g>
<!-- Node6&#45;&gt;Node12 -->
<g id="edge11" class="edge"><title>Node6&#45;&gt;Node12</title>
<path fill="none" stroke="midnightblue" d="M717.176,-171.278C732.972,-155.114 766.993,-122.737 802,-105 806.568,-102.686 811.446,-100.633 816.429,-98.8155"/>
<polygon fill="midnightblue" stroke="midnightblue" points="817.701,-102.081 826.086,-95.605 815.492,-95.4384 817.701,-102.081"/>
</g>
<!-- Node16 -->
<g id="node16" class="node"><title>Node16</title>
<g id="a_node16"><a xlink:href="../../dd/d7a/class_enemy.html#a9b6840dcc6b8165268e957fc43d95b06" target="_top" xlink:title="Enemy.makePoop">
<polygon fill="white" stroke="black" points="824,-190.5 824,-209.5 926,-209.5 926,-190.5 824,-190.5"/>
<text text-anchor="middle" x="875" y="-197.5" font-family="Helvetica,sans-Serif" font-size="10.00">Enemy.makePoop</text>
</a>
</g>
</g>
<!-- Node6&#45;&gt;Node16 -->
<g id="edge19" class="edge"><title>Node6&#45;&gt;Node16</title>
<path fill="none" stroke="midnightblue" d="M766.059,-187.645C781.551,-189.419 798.322,-191.338 813.92,-193.123"/>
<polygon fill="midnightblue" stroke="midnightblue" points="813.643,-196.614 823.976,-194.274 814.439,-189.66 813.643,-196.614"/>
</g>
<!-- Node18 -->
<g id="node18" class="node"><title>Node18</title>
<g id="a_node18"><a xlink:href="../../d8/d53/class_player.html#a1b7a0a6c68deb202a672d42e205d5a21" target="_top" xlink:title="Player.moveSprite">
<polygon fill="white" stroke="black" points="823,-266.5 823,-285.5 927,-285.5 927,-266.5 823,-266.5"/>
<text text-anchor="middle" x="875" y="-273.5" font-family="Helvetica,sans-Serif" font-size="10.00">Player.moveSprite</text>
</a>
</g>
</g>
<!-- Node6&#45;&gt;Node18 -->
<g id="edge21" class="edge"><title>Node6&#45;&gt;Node18</title>
<path fill="none" stroke="midnightblue" d="M749.418,-190.61C755.33,-193.076 761.069,-196.157 766,-200 789.633,-218.419 777.838,-239.281 802,-257 805.46,-259.537 809.233,-261.736 813.179,-263.641"/>
<polygon fill="midnightblue" stroke="midnightblue" points="812.06,-266.966 822.637,-267.576 814.749,-260.503 812.06,-266.966"/>
</g>
<!-- Node20 -->
<g id="node20" class="node"><title>Node20</title>
<g id="a_node20"><a xlink:href="../../dd/d7a/class_enemy.html#ab653212b50d9e64ba497ae18696d3678" target="_top" xlink:title="Enemy.moveSprite">
<polygon fill="white" stroke="black" points="821.5,-304.5 821.5,-323.5 928.5,-323.5 928.5,-304.5 821.5,-304.5"/>
<text text-anchor="middle" x="875" y="-311.5" font-family="Helvetica,sans-Serif" font-size="10.00">Enemy.moveSprite</text>
</a>
</g>
</g>
<!-- Node6&#45;&gt;Node20 -->
<g id="edge24" class="edge"><title>Node6&#45;&gt;Node20</title>
<path fill="none" stroke="midnightblue" d="M751.911,-190.576C757.074,-193.033 761.939,-196.121 766,-200 798.648,-231.19 768.453,-264.779 802,-295 805.047,-297.745 808.444,-300.101 812.057,-302.123"/>
<polygon fill="midnightblue" stroke="midnightblue" points="810.869,-305.43 821.411,-306.49 813.831,-299.088 810.869,-305.43"/>
</g>
<!-- Node22 -->
<g id="node22" class="node"><title>Node22</title>
<g id="a_node22"><a xlink:href="../../d2/d3e/class_level1.html#a5995ba731849ced54b8f97fcc93ce4d9" target="_top" xlink:title="Level1.removeFromScreen">
<polygon fill="white" stroke="black" points="802.5,-228.5 802.5,-247.5 947.5,-247.5 947.5,-228.5 802.5,-228.5"/>
<text text-anchor="middle" x="875" y="-235.5" font-family="Helvetica,sans-Serif" font-size="10.00">Level1.removeFromScreen</text>
</a>
</g>
</g>
<!-- Node6&#45;&gt;Node22 -->
<g id="edge28" class="edge"><title>Node6&#45;&gt;Node22</title>
<path fill="none" stroke="midnightblue" d="M740.57,-190.599C748.96,-193.362 757.903,-196.566 766,-200 782.656,-207.063 785.145,-212.427 802,-219 808.231,-221.43 814.884,-223.654 821.534,-225.655"/>
<polygon fill="midnightblue" stroke="midnightblue" points="820.649,-229.042 831.226,-228.427 822.574,-222.312 820.649,-229.042"/>
</g>
<!-- Node23 -->
<g id="node23" class="node"><title>Node23</title>
<g id="a_node23"><a xlink:href="../../d2/d3e/class_level1.html#aa75f107bf925594da75a1d82cf64044d" target="_top" xlink:title="Level1.returnCollisions">
<polygon fill="white" stroke="black" points="813,-152.5 813,-171.5 937,-171.5 937,-152.5 813,-152.5"/>
<text text-anchor="middle" x="875" y="-159.5" font-family="Helvetica,sans-Serif" font-size="10.00">Level1.returnCollisions</text>
</a>
</g>
</g>
<!-- Node6&#45;&gt;Node23 -->
<g id="edge29" class="edge"><title>Node6&#45;&gt;Node23</title>
<path fill="none" stroke="midnightblue" d="M766.059,-174.355C777.892,-173 790.47,-171.561 802.703,-170.161"/>
<polygon fill="midnightblue" stroke="midnightblue" points="803.336,-173.611 812.873,-168.996 802.54,-166.656 803.336,-173.611"/>
</g>
<!-- Node8 -->
<g id="node8" class="node"><title>Node8</title>
<g id="a_node8"><a xlink:href="../../d2/d3e/class_level1.html#ac4098d447b9841cabec6be3bb719bd26" target="_top" xlink:title="Level1.clearElements">
<polygon fill="white" stroke="black" points="985.5,-114.5 985.5,-133.5 1104.5,-133.5 1104.5,-114.5 985.5,-114.5"/>
<text text-anchor="middle" x="1045" y="-121.5" font-family="Helvetica,sans-Serif" font-size="10.00">Level1.clearElements</text>
</a>
</g>
</g>
<!-- Node7&#45;&gt;Node8 -->
<g id="edge7" class="edge"><title>Node7&#45;&gt;Node8</title>
<path fill="none" stroke="midnightblue" d="M932.409,-124C946.139,-124 960.976,-124 975.21,-124"/>
<polygon fill="midnightblue" stroke="midnightblue" points="975.444,-127.5 985.444,-124 975.443,-120.5 975.444,-127.5"/>
</g>
<!-- Node9 -->
<g id="node9" class="node"><title>Node9</title>
<g id="a_node9"><a xlink:href="../../d7/da7/class_character.html#a4dc23a76b34bcbb84abba1b116847268" target="_top" xlink:title="Character.getHP">
<polygon fill="white" stroke="black" points="997.5,-76.5 997.5,-95.5 1092.5,-95.5 1092.5,-76.5 997.5,-76.5"/>
<text text-anchor="middle" x="1045" y="-83.5" font-family="Helvetica,sans-Serif" font-size="10.00">Character.getHP</text>
</a>
</g>
</g>
<!-- Node7&#45;&gt;Node9 -->
<g id="edge8" class="edge"><title>Node7&#45;&gt;Node9</title>
<path fill="none" stroke="midnightblue" d="M918.393,-114.411C940.763,-109.351 968.398,-103.1 992.047,-97.7512"/>
<polygon fill="midnightblue" stroke="midnightblue" points="992.93,-101.14 1001.91,-95.5201 991.386,-94.3125 992.93,-101.14"/>
</g>
<!-- Node10 -->
<g id="node10" class="node"><title>Node10</title>
<g id="a_node10"><a xlink:href="../../d6/d21/class_screen.html#a5d9534b81b96cfc0a00009dea6be6c09" target="_top" xlink:title="Screen.showScreen">
<polygon fill="white" stroke="black" points="1156.5,-95.5 1156.5,-114.5 1267.5,-114.5 1267.5,-95.5 1156.5,-95.5"/>
<text text-anchor="middle" x="1212" y="-102.5" font-family="Helvetica,sans-Serif" font-size="10.00">Screen.showScreen</text>
</a>
</g>
</g>
<!-- Node7&#45;&gt;Node10 -->
<g id="edge9" class="edge"><title>Node7&#45;&gt;Node10</title>
<path fill="none" stroke="midnightblue" d="M916.586,-133.569C962.764,-143.021 1040.29,-154.524 1106,-143 1132.54,-138.345 1161.21,-127.544 1181.88,-118.642"/>
<polygon fill="midnightblue" stroke="midnightblue" points="1183.32,-121.831 1191.05,-114.588 1180.49,-115.428 1183.32,-121.831"/>
</g>
<!-- Node11 -->
<g id="node11" class="node"><title>Node11</title>
<g id="a_node11"><a xlink:href="../../d6/d21/class_screen.html#ac7ca0a382b3177bbea4e2a4e7c0f442e" target="_top" xlink:title="Screen.init">
<polygon fill="white" stroke="black" points="1347,-95.5 1347,-114.5 1415,-114.5 1415,-95.5 1347,-95.5"/>
<text text-anchor="middle" x="1381" y="-102.5" font-family="Helvetica,sans-Serif" font-size="10.00">Screen.init</text>
</a>
</g>
</g>
<!-- Node10&#45;&gt;Node11 -->
<g id="edge10" class="edge"><title>Node10&#45;&gt;Node11</title>
<path fill="none" stroke="midnightblue" d="M1267.68,-105C1289.98,-105 1315.4,-105 1336.41,-105"/>
<polygon fill="midnightblue" stroke="midnightblue" points="1336.65,-108.5 1346.65,-105 1336.65,-101.5 1336.65,-108.5"/>
</g>
<!-- Node12&#45;&gt;Node4 -->
<g id="edge18" class="edge"><title>Node12&#45;&gt;Node4</title>
<path fill="none" stroke="midnightblue" d="M819.736,-86C730.614,-86 554.848,-86 471.678,-86"/>
<polygon fill="midnightblue" stroke="midnightblue" points="471.528,-82.5001 461.528,-86 471.528,-89.5001 471.528,-82.5001"/>
</g>
<!-- Node12&#45;&gt;Node8 -->
<g id="edge12" class="edge"><title>Node12&#45;&gt;Node8</title>
<path fill="none" stroke="midnightblue" d="M918.393,-95.589C940.763,-100.649 968.398,-106.9 992.047,-112.249"/>
<polygon fill="midnightblue" stroke="midnightblue" points="991.386,-115.687 1001.91,-114.48 992.93,-108.86 991.386,-115.687"/>
</g>
<!-- Node12&#45;&gt;Node9 -->
<g id="edge13" class="edge"><title>Node12&#45;&gt;Node9</title>
<path fill="none" stroke="midnightblue" d="M930.081,-86C948.372,-86 968.84,-86 987.327,-86"/>
<polygon fill="midnightblue" stroke="midnightblue" points="987.367,-89.5001 997.367,-86 987.366,-82.5001 987.367,-89.5001"/>
</g>
<!-- Node13 -->
<g id="node13" class="node"><title>Node13</title>
<g id="a_node13"><a xlink:href="../../dd/d7a/class_enemy.html#a0b00e167bc151db783054dddb2f9b509" target="_top" xlink:title="Enemy.makeAngry">
<polygon fill="white" stroke="black" points="992,-38.5 992,-57.5 1098,-57.5 1098,-38.5 992,-38.5"/>
<text text-anchor="middle" x="1045" y="-45.5" font-family="Helvetica,sans-Serif" font-size="10.00">Enemy.makeAngry</text>
</a>
</g>
</g>
<!-- Node12&#45;&gt;Node13 -->
<g id="edge14" class="edge"><title>Node12&#45;&gt;Node13</title>
<path fill="none" stroke="midnightblue" d="M918.393,-76.411C940.763,-71.3513 968.398,-65.1004 992.047,-59.7512"/>
<polygon fill="midnightblue" stroke="midnightblue" points="992.93,-63.1401 1001.91,-57.5201 991.386,-56.3125 992.93,-63.1401"/>
</g>
<!-- Node12&#45;&gt;Node14 -->
<g id="edge15" class="edge"><title>Node12&#45;&gt;Node14</title>
<path fill="none" stroke="midnightblue" d="M892.026,-76.3733C912.737,-64.2081 950.163,-43.1529 984,-29 989.36,-26.7582 995.082,-24.628 1000.78,-22.6597"/>
<polygon fill="midnightblue" stroke="midnightblue" points="1001.9,-25.9763 1010.29,-19.509 999.701,-19.3315 1001.9,-25.9763"/>
</g>
<!-- Node14&#45;&gt;Node10 -->
<g id="edge16" class="edge"><title>Node14&#45;&gt;Node10</title>
<path fill="none" stroke="midnightblue" d="M1082.59,-19.5346C1090.5,-22.1563 1098.68,-25.3135 1106,-29 1138.71,-45.4755 1172.27,-71.7194 1192.37,-88.6525"/>
<polygon fill="midnightblue" stroke="midnightblue" points="1190.25,-91.4432 1200.13,-95.2839 1194.8,-86.1238 1190.25,-91.4432"/>
</g>
<!-- Node15 -->
<g id="node15" class="node"><title>Node15</title>
<g id="a_node15"><a xlink:href="../../d6/d21/class_screen.html#a601576a0d49770789b2eb08328f09c53" target="_top" xlink:title="Screen.startAnim">
<polygon fill="white" stroke="black" points="1161.5,-0.5 1161.5,-19.5 1262.5,-19.5 1262.5,-0.5 1161.5,-0.5"/>
<text text-anchor="middle" x="1212" y="-7.5" font-family="Helvetica,sans-Serif" font-size="10.00">Screen.startAnim</text>
</a>
</g>
</g>
<!-- Node14&#45;&gt;Node15 -->
<g id="edge17" class="edge"><title>Node14&#45;&gt;Node15</title>
<path fill="none" stroke="midnightblue" d="M1105.57,-10C1120.42,-10 1136.35,-10 1151.21,-10"/>
<polygon fill="midnightblue" stroke="midnightblue" points="1151.3,-13.5001 1161.3,-10 1151.3,-6.5001 1151.3,-13.5001"/>
</g>
<!-- Node17 -->
<g id="node17" class="node"><title>Node17</title>
<g id="a_node17"><a xlink:href="../../d7/dbf/class_sprite.html#accdf1c21264c6ff648ece508cf176bfb" target="_top" xlink:title="Sprite.setVelocity">
<polygon fill="white" stroke="black" points="995,-247.5 995,-266.5 1095,-266.5 1095,-247.5 995,-247.5"/>
<text text-anchor="middle" x="1045" y="-254.5" font-family="Helvetica,sans-Serif" font-size="10.00">Sprite.setVelocity</text>
</a>
</g>
</g>
<!-- Node16&#45;&gt;Node17 -->
<g id="edge20" class="edge"><title>Node16&#45;&gt;Node17</title>
<path fill="none" stroke="midnightblue" d="M915.484,-209.516C926.116,-212.323 937.56,-215.57 948,-219 969.941,-226.209 994.114,-235.787 1012.71,-243.524"/>
<polygon fill="midnightblue" stroke="midnightblue" points="1011.58,-246.845 1022.16,-247.492 1014.29,-240.391 1011.58,-246.845"/>
</g>
<!-- Node18&#45;&gt;Node17 -->
<g id="edge22" class="edge"><title>Node18&#45;&gt;Node17</title>
<path fill="none" stroke="midnightblue" d="M927.318,-270.196C945.393,-268.152 965.86,-265.837 984.549,-263.724"/>
<polygon fill="midnightblue" stroke="midnightblue" points="985.179,-267.175 994.723,-262.573 984.393,-260.219 985.179,-267.175"/>
</g>
<!-- Node19 -->
<g id="node19" class="node"><title>Node19</title>
<g id="a_node19"><a xlink:href="../../d7/dbf/class_sprite.html#ab8f846b7ba77ae72ad09f48da22ceea7" target="_top" xlink:title="Sprite.moveSprite">
<polygon fill="white" stroke="black" points="993,-285.5 993,-304.5 1097,-304.5 1097,-285.5 993,-285.5"/>
<text text-anchor="middle" x="1045" y="-292.5" font-family="Helvetica,sans-Serif" font-size="10.00">Sprite.moveSprite</text>
</a>
</g>
</g>
<!-- Node18&#45;&gt;Node19 -->
<g id="edge23" class="edge"><title>Node18&#45;&gt;Node19</title>
<path fill="none" stroke="midnightblue" d="M927.318,-281.804C944.905,-283.793 964.755,-286.038 983.03,-288.105"/>
<polygon fill="midnightblue" stroke="midnightblue" points="982.666,-291.586 992.996,-289.232 983.453,-284.63 982.666,-291.586"/>
</g>
<!-- Node20&#45;&gt;Node17 -->
<g id="edge27" class="edge"><title>Node20&#45;&gt;Node17</title>
<path fill="none" stroke="midnightblue" d="M918.774,-304.427C928.517,-301.776 938.726,-298.617 948,-295 964.855,-288.427 967.309,-282.981 984,-276 989.36,-273.758 995.082,-271.628 1000.78,-269.66"/>
<polygon fill="midnightblue" stroke="midnightblue" points="1001.9,-272.976 1010.29,-266.509 999.701,-266.331 1001.9,-272.976"/>
</g>
<!-- Node20&#45;&gt;Node19 -->
<g id="edge26" class="edge"><title>Node20&#45;&gt;Node19</title>
<path fill="none" stroke="midnightblue" d="M928.695,-308.04C945.829,-306.103 964.991,-303.936 982.698,-301.933"/>
<polygon fill="midnightblue" stroke="midnightblue" points="983.386,-305.378 992.929,-300.776 982.599,-298.422 983.386,-305.378"/>
</g>
<!-- Node21 -->
<g id="node21" class="node"><title>Node21</title>
<g id="a_node21"><a xlink:href="../../d7/dbf/class_sprite.html#a4dd4a643703de09c632a0e7d70a570e7" target="_top" xlink:title="Sprite.getVelocity">
<polygon fill="white" stroke="black" points="994.5,-323.5 994.5,-342.5 1095.5,-342.5 1095.5,-323.5 994.5,-323.5"/>
<text text-anchor="middle" x="1045" y="-330.5" font-family="Helvetica,sans-Serif" font-size="10.00">Sprite.getVelocity</text>
</a>
</g>
</g>
<!-- Node20&#45;&gt;Node21 -->
<g id="edge25" class="edge"><title>Node20&#45;&gt;Node21</title>
<path fill="none" stroke="midnightblue" d="M928.695,-319.96C946.313,-321.952 966.075,-324.187 984.195,-326.236"/>
<polygon fill="midnightblue" stroke="midnightblue" points="984.026,-329.739 994.356,-327.386 984.813,-322.784 984.026,-329.739"/>
</g>
<!-- Node24 -->
<g id="node24" class="node"><title>Node24</title>
<g id="a_node24"><a xlink:href="../../d7/da7/class_character.html#aa2149c166e797ae0ded67d9f768ac7f3" target="_top" xlink:title="Character.updateAll">
<polygon fill="white" stroke="black" points="989.5,-190.5 989.5,-209.5 1100.5,-209.5 1100.5,-190.5 989.5,-190.5"/>
<text text-anchor="middle" x="1045" y="-197.5" font-family="Helvetica,sans-Serif" font-size="10.00">Character.updateAll</text>
</a>
</g>
</g>
<!-- Node23&#45;&gt;Node24 -->
<g id="edge30" class="edge"><title>Node23&#45;&gt;Node24</title>
<path fill="none" stroke="midnightblue" d="M918.393,-171.589C940.763,-176.649 968.398,-182.9 992.047,-188.249"/>
<polygon fill="midnightblue" stroke="midnightblue" points="991.386,-191.687 1001.91,-190.48 992.93,-184.86 991.386,-191.687"/>
</g>
<!-- Node25 -->
<g id="node25" class="node"><title>Node25</title>
<g id="a_node25"><a xlink:href="../../d7/da7/class_character.html#ade25acccb27ac9aeb2752b2df29d075f" target="_top" xlink:title="Character.collisionUpdate">
<polygon fill="white" stroke="black" points="1142.5,-190.5 1142.5,-209.5 1281.5,-209.5 1281.5,-190.5 1142.5,-190.5"/>
<text text-anchor="middle" x="1212" y="-197.5" font-family="Helvetica,sans-Serif" font-size="10.00">Character.collisionUpdate</text>
</a>
</g>
</g>
<!-- Node24&#45;&gt;Node25 -->
<g id="edge31" class="edge"><title>Node24&#45;&gt;Node25</title>
<path fill="none" stroke="midnightblue" d="M1100.94,-200C1111.03,-200 1121.74,-200 1132.36,-200"/>
<polygon fill="midnightblue" stroke="midnightblue" points="1132.5,-203.5 1142.5,-200 1132.5,-196.5 1132.5,-203.5"/>
</g>
<!-- Node26 -->
<g id="node26" class="node"><title>Node26</title>
<g id="a_node26"><a xlink:href="../../d7/da7/class_character.html#ad223fcb54929116326bf8816d43f5173" target="_top" xlink:title="Character.checkCollide">
<polygon fill="white" stroke="black" points="1318.5,-190.5 1318.5,-209.5 1443.5,-209.5 1443.5,-190.5 1318.5,-190.5"/>
<text text-anchor="middle" x="1381" y="-197.5" font-family="Helvetica,sans-Serif" font-size="10.00">Character.checkCollide</text>
</a>
</g>
</g>
<!-- Node25&#45;&gt;Node26 -->
<g id="edge32" class="edge"><title>Node25&#45;&gt;Node26</title>
<path fill="none" stroke="midnightblue" d="M1281.89,-200C1290.61,-200 1299.54,-200 1308.31,-200"/>
<polygon fill="midnightblue" stroke="midnightblue" points="1308.48,-203.5 1318.48,-200 1308.48,-196.5 1308.48,-203.5"/>
</g>
</g>
</svg>
