<?xml version="1.0" encoding="UTF-8" standalone="no"?>
<!DOCTYPE svg PUBLIC "-//W3C//DTD SVG 1.1//EN"
 "http://www.w3.org/Graphics/SVG/1.1/DTD/svg11.dtd">
<!-- Generated by graphviz version 2.36.0 (20140111.2315)
 -->
<!-- Title: Menu.addText Pages: 1 -->
<svg width="344pt" height="66pt"
 viewBox="0.00 0.00 344.00 66.00" xmlns="http://www.w3.org/2000/svg" xmlns:xlink="http://www.w3.org/1999/xlink">
<g id="graph0" class="graph" transform="scale(1 1) rotate(0) translate(4 62)">
<title>Menu.addText</title>
<polygon fill="white" stroke="none" points="-4,4 -4,-62 340,-62 340,4 -4,4"/>
<!-- Node1 -->
<g id="node1" class="node"><title>Node1</title>
<polygon fill="#bfbfbf" stroke="black" points="0.5,-19.5 0.5,-38.5 83.5,-38.5 83.5,-19.5 0.5,-19.5"/>
<text text-anchor="middle" x="42" y="-26.5" font-family="Helvetica,sans-Serif" font-size="10.00">Menu.addText</text>
</g>
<!-- Node2 -->
<g id="node2" class="node"><title>Node2</title>
<g id="a_node2"><a xlink:href="../../d5/db1/class_game_over.html#a56532bb1e6900777117530bf53929e98" target="_top" xlink:title="GameOver.addAllText">
<polygon fill="white" stroke="black" points="120.5,-38.5 120.5,-57.5 239.5,-57.5 239.5,-38.5 120.5,-38.5"/>
<text text-anchor="middle" x="180" y="-45.5" font-family="Helvetica,sans-Serif" font-size="10.00">GameOver.addAllText</text>
</a>
</g>
</g>
<!-- Node1&#45;&gt;Node2 -->
<g id="edge1" class="edge"><title>Node1&#45;&gt;Node2</title>
<path fill="none" stroke="midnightblue" d="M93.7668,-36.0924C102.441,-37.3043 111.517,-38.5722 120.376,-39.8098"/>
<polygon fill="midnightblue" stroke="midnightblue" points="94.1926,-32.618 83.8045,-34.7006 93.224,-39.5507 94.1926,-32.618"/>
</g>
<!-- Node3 -->
<g id="node3" class="node"><title>Node3</title>
<g id="a_node3"><a xlink:href="../../d2/db8/class_menu.html#a4f437319f17d0d8c4169c8f8ba481ba7" target="_top" xlink:title="Menu.addAllText">
<polygon fill="white" stroke="black" points="133,-0.5 133,-19.5 227,-19.5 227,-0.5 133,-0.5"/>
<text text-anchor="middle" x="180" y="-7.5" font-family="Helvetica,sans-Serif" font-size="10.00">Menu.addAllText</text>
</a>
</g>
</g>
<!-- Node1&#45;&gt;Node3 -->
<g id="edge2" class="edge"><title>Node1&#45;&gt;Node3</title>
<path fill="none" stroke="midnightblue" d="M93.8708,-21.8931C106.703,-20.1004 120.405,-18.186 132.983,-16.4288"/>
<polygon fill="midnightblue" stroke="midnightblue" points="93.224,-18.4493 83.8045,-23.2994 94.1926,-25.382 93.224,-18.4493"/>
</g>
<!-- Node4 -->
<g id="node4" class="node"><title>Node4</title>
<g id="a_node4"><a xlink:href="../../d2/db8/class_menu.html#a3c99ad09e9f2f975c1a0d0597642651a" target="_top" xlink:title="Menu.init">
<polygon fill="white" stroke="black" points="276,-0.5 276,-19.5 336,-19.5 336,-0.5 276,-0.5"/>
<text text-anchor="middle" x="306" y="-7.5" font-family="Helvetica,sans-Serif" font-size="10.00">Menu.init</text>
</a>
</g>
</g>
<!-- Node3&#45;&gt;Node4 -->
<g id="edge3" class="edge"><title>Node3&#45;&gt;Node4</title>
<path fill="none" stroke="midnightblue" d="M237.227,-10C250.519,-10 264.168,-10 275.702,-10"/>
<polygon fill="midnightblue" stroke="midnightblue" points="237.173,-6.5001 227.173,-10 237.173,-13.5001 237.173,-6.5001"/>
</g>
</g>
</svg>
