<?xml version="1.0" encoding="UTF-8" standalone="no"?>
<!DOCTYPE svg PUBLIC "-//W3C//DTD SVG 1.1//EN"
 "http://www.w3.org/Graphics/SVG/1.1/DTD/svg11.dtd">
<!-- Generated by graphviz version 2.36.0 (20140111.2315)
 -->
<!-- Title: Menu.addButton Pages: 1 -->
<!--zoomable 370 -->
<svg id="main" version="1.1" xmlns="http://www.w3.org/2000/svg" xmlns:xlink="http://www.w3.org/1999/xlink" xml:space="preserve" onload="init(evt)">
<style type="text/css"><![CDATA[
.edge:hover path { stroke: red; }
.edge:hover polygon { stroke: red; fill: red; }
]]></style>
<script type="text/javascript"><![CDATA[
var edges = document.getElementsByTagName('g');
if (edges && edges.length) {
  for (var i=0;i<edges.length;i++) {
    if (edges[i].id.substr(0,4)=='edge') {
      edges[i].setAttribute('class','edge');
    }
  }
}
]]></script>
        <defs>
                <circle id="rim" cx="0" cy="0" r="7"/>
                <circle id="rim2" cx="0" cy="0" r="3.5"/>
                <g id="zoomPlus">
                        <use xlink:href="#rim" fill="#404040">
                                <set attributeName="fill" to="#808080" begin="zoomplus.mouseover" end="zoomplus.mouseout"/>
                        </use>
                        <path d="M-4,0h8M0,-4v8" fill="none" stroke="white" stroke-width="1.5" pointer-events="none"/>
                </g>
                <g id="zoomMin">
                        <use xlink:href="#rim" fill="#404040">
                                <set attributeName="fill" to="#808080" begin="zoomminus.mouseover" end="zoomminus.mouseout"/>
                        </use>
                        <path d="M-4,0h8" fill="none" stroke="white" stroke-width="1.5" pointer-events="none"/>
                </g>
                <g id="dirArrow">
                        <path fill="none" stroke="white" stroke-width="1.5" d="M0,-3.0v7 M-2.5,-0.5L0,-3.0L2.5,-0.5"/>
                </g>
               <g id="resetDef">
                       <use xlink:href="#rim2" fill="#404040">
                               <set attributeName="fill" to="#808080" begin="reset.mouseover" end="reset.mouseout"/>
                       </use>
               </g>
        </defs>

<script type="text/javascript">
var viewWidth = 1452;
var viewHeight = 370;
var sectionId = 'dynsection-6';
</script>
<script xlink:href="../../svgpan.js"/>
<svg id="graph" class="graph">
<g id="viewport">
<title>Menu.addButton</title>
<polygon fill="white" stroke="none" points="-4,4 -4,-366 1448,-366 1448,4 -4,4"/>
<!-- Node1 -->
<g id="node1" class="node"><title>Node1</title>
<polygon fill="#bfbfbf" stroke="black" points="0,-19.5 0,-38.5 96,-38.5 96,-19.5 0,-19.5"/>
<text text-anchor="middle" x="48" y="-26.5" font-family="Helvetica,sans-Serif" font-size="10.00">Menu.addButton</text>
</g>
<!-- Node2 -->
<g id="node2" class="node"><title>Node2</title>
<g id="a_node2"><a xlink:href="../../d2/db8/class_menu.html#a53c8b072d5ec777994fed9ee76c98561" target="_top" xlink:title="Menu.handle">
<polygon fill="white" stroke="black" points="132,-19.5 132,-38.5 210,-38.5 210,-19.5 132,-19.5"/>
<text text-anchor="middle" x="171" y="-26.5" font-family="Helvetica,sans-Serif" font-size="10.00">Menu.handle</text>
</a>
</g>
</g>
<!-- Node1&#45;&gt;Node2 -->
<g id="edge1" class="edge"><title>Node1&#45;&gt;Node2</title>
<path fill="none" stroke="midnightblue" d="M96.1282,-29C104.526,-29 113.285,-29 121.714,-29"/>
<polygon fill="midnightblue" stroke="midnightblue" points="121.785,-32.5001 131.785,-29 121.785,-25.5001 121.785,-32.5001"/>
</g>
<!-- Node3 -->
<g id="node3" class="node"><title>Node3</title>
<g id="a_node3"><a xlink:href="../../d2/db8/class_menu.html#ab6296880308728ced459f772430d025b" target="_top" xlink:title="Menu.createGame">
<polygon fill="white" stroke="black" points="246,-19.5 246,-38.5 352,-38.5 352,-19.5 246,-19.5"/>
<text text-anchor="middle" x="299" y="-26.5" font-family="Helvetica,sans-Serif" font-size="10.00">Menu.createGame</text>
</a>
</g>
</g>
<!-- Node2&#45;&gt;Node3 -->
<g id="edge2" class="edge"><title>Node2&#45;&gt;Node3</title>
<path fill="none" stroke="midnightblue" d="M210.146,-29C218.163,-29 226.82,-29 235.465,-29"/>
<polygon fill="midnightblue" stroke="midnightblue" points="235.57,-32.5001 245.57,-29 235.57,-25.5001 235.57,-32.5001"/>
</g>
<!-- Node4 -->
<g id="node4" class="node"><title>Node4</title>
<g id="a_node4"><a xlink:href="../../d2/d3e/class_level1.html#a0871325d07c0614d5f1f2df7df13b703" target="_top" xlink:title="Level1.start">
<polygon fill="white" stroke="black" points="388.5,-38.5 388.5,-57.5 461.5,-57.5 461.5,-38.5 388.5,-38.5"/>
<text text-anchor="middle" x="425" y="-45.5" font-family="Helvetica,sans-Serif" font-size="10.00">Level1.start</text>
</a>
</g>
</g>
<!-- Node3&#45;&gt;Node4 -->
<g id="edge3" class="edge"><title>Node3&#45;&gt;Node4</title>
<path fill="none" stroke="midnightblue" d="M352.228,-37.0026C360.886,-38.3293 369.805,-39.6959 378.286,-40.9955"/>
<polygon fill="midnightblue" stroke="midnightblue" points="377.953,-44.4852 388.368,-42.5403 379.013,-37.566 377.953,-44.4852"/>
</g>
<!-- Node14 -->
<g id="node14" class="node"><title>Node14</title>
<g id="a_node14"><a xlink:href="../../d6/d21/class_screen.html#a5d40342bbe33c27c9e0e24bd8709d1f6" target="_top" xlink:title="Screen.showAndAnim">
<polygon fill="white" stroke="black" points="984.5,-0.5 984.5,-19.5 1105.5,-19.5 1105.5,-0.5 984.5,-0.5"/>
<text text-anchor="middle" x="1045" y="-7.5" font-family="Helvetica,sans-Serif" font-size="10.00">Screen.showAndAnim</text>
</a>
</g>
</g>
<!-- Node3&#45;&gt;Node14 -->
<g id="edge36" class="edge"><title>Node3&#45;&gt;Node14</title>
<path fill="none" stroke="midnightblue" d="M352.452,-22.7787C403.753,-17.2375 484.132,-10 554,-10 554,-10 554,-10 708,-10 799.966,-10 906.092,-10 974.057,-10"/>
<polygon fill="midnightblue" stroke="midnightblue" points="974.216,-13.5001 984.216,-10 974.216,-6.5001 974.216,-13.5001"/>
</g>
<!-- Node5 -->
<g id="node5" class="node"><title>Node5</title>
<g id="a_node5"><a xlink:href="../../d2/d3e/class_level1.html#a324da1e22a7a87fa4bb1859b5774bdba" target="_top" xlink:title="Level1.updateFrame">
<polygon fill="white" stroke="black" points="498,-171.5 498,-190.5 612,-190.5 612,-171.5 498,-171.5"/>
<text text-anchor="middle" x="555" y="-178.5" font-family="Helvetica,sans-Serif" font-size="10.00">Level1.updateFrame</text>
</a>
</g>
</g>
<!-- Node4&#45;&gt;Node5 -->
<g id="edge4" class="edge"><title>Node4&#45;&gt;Node5</title>
<path fill="none" stroke="midnightblue" d="M435.205,-57.565C456.596,-79.7914 509.91,-135.188 537.251,-163.597"/>
<polygon fill="midnightblue" stroke="midnightblue" points="535.076,-166.385 544.533,-171.163 540.12,-161.531 535.076,-166.385"/>
</g>
<!-- Node6 -->
<g id="node6" class="node"><title>Node6</title>
<g id="a_node6"><a xlink:href="../../d2/d3e/class_level1.html#a78a7fb5633734b1815af8db43db23a41" target="_top" xlink:title="Level1.updateSprites">
<polygon fill="white" stroke="black" points="648,-171.5 648,-190.5 766,-190.5 766,-171.5 648,-171.5"/>
<text text-anchor="middle" x="707" y="-178.5" font-family="Helvetica,sans-Serif" font-size="10.00">Level1.updateSprites</text>
</a>
</g>
</g>
<!-- Node5&#45;&gt;Node6 -->
<g id="edge5" class="edge"><title>Node5&#45;&gt;Node6</title>
<path fill="none" stroke="midnightblue" d="M612.281,-181C620.555,-181 629.154,-181 637.639,-181"/>
<polygon fill="midnightblue" stroke="midnightblue" points="637.902,-184.5 647.902,-181 637.902,-177.5 637.902,-184.5"/>
</g>
<!-- Node29 -->
<g id="node29" class="node"><title>Node29</title>
<g id="a_node29"><a xlink:href="../../d2/d3e/class_level1.html#a5f552e875916d0cf7a74896401584b2a" target="_top" xlink:title="Level1.updateTimer">
<polygon fill="white" stroke="black" points="651.5,-209.5 651.5,-228.5 762.5,-228.5 762.5,-209.5 651.5,-209.5"/>
<text text-anchor="middle" x="707" y="-216.5" font-family="Helvetica,sans-Serif" font-size="10.00">Level1.updateTimer</text>
</a>
</g>
</g>
<!-- Node5&#45;&gt;Node29 -->
<g id="edge35" class="edge"><title>Node5&#45;&gt;Node29</title>
<path fill="none" stroke="midnightblue" d="M593.851,-190.589C613.467,-195.558 637.619,-201.677 658.479,-206.961"/>
<polygon fill="midnightblue" stroke="midnightblue" points="657.868,-210.417 668.421,-209.48 659.587,-203.631 657.868,-210.417"/>
</g>
<!-- Node7 -->
<g id="node7" class="node"><title>Node7</title>
<g id="a_node7"><a xlink:href="../../d2/d3e/class_level1.html#a5e6976ef755d0e678034870e374ee4ca" target="_top" xlink:title="Level1.goGameOver">
<polygon fill="white" stroke="black" points="818,-114.5 818,-133.5 932,-133.5 932,-114.5 818,-114.5"/>
<text text-anchor="middle" x="875" y="-121.5" font-family="Helvetica,sans-Serif" font-size="10.00">Level1.goGameOver</text>
</a>
</g>
</g>
<!-- Node6&#45;&gt;Node7 -->
<g id="edge6" class="edge"><title>Node6&#45;&gt;Node7</title>
<path fill="none" stroke="midnightblue" d="M729.366,-171.462C748.233,-163.257 776.612,-151.444 802,-143 809.165,-140.617 816.808,-138.332 824.339,-136.225"/>
<polygon fill="midnightblue" stroke="midnightblue" points="825.392,-139.566 834.123,-133.564 823.555,-132.811 825.392,-139.566"/>
</g>
<!-- Node12 -->
<g id="node12" class="node"><title>Node12</title>
<g id="a_node12"><a xlink:href="../../d2/d3e/class_level1.html#ac56e75129bb2946c38cfcf43608f3f05" target="_top" xlink:title="Level1.goNextLevel">
<polygon fill="white" stroke="black" points="820,-38.5 820,-57.5 930,-57.5 930,-38.5 820,-38.5"/>
<text text-anchor="middle" x="875" y="-45.5" font-family="Helvetica,sans-Serif" font-size="10.00">Level1.goNextLevel</text>
</a>
</g>
</g>
<!-- Node6&#45;&gt;Node12 -->
<g id="edge11" class="edge"><title>Node6&#45;&gt;Node12</title>
<path fill="none" stroke="midnightblue" d="M713.14,-171.326C725.395,-149.226 758.581,-94.8079 802,-67 805.334,-64.8647 808.901,-62.9684 812.597,-61.2845"/>
<polygon fill="midnightblue" stroke="midnightblue" points="814.01,-64.4887 821.992,-57.5209 811.407,-57.9907 814.01,-64.4887"/>
</g>
<!-- Node16 -->
<g id="node16" class="node"><title>Node16</title>
<g id="a_node16"><a xlink:href="../../dd/d7a/class_enemy.html#a9b6840dcc6b8165268e957fc43d95b06" target="_top" xlink:title="Enemy.makePoop">
<polygon fill="white" stroke="black" points="824,-152.5 824,-171.5 926,-171.5 926,-152.5 824,-152.5"/>
<text text-anchor="middle" x="875" y="-159.5" font-family="Helvetica,sans-Serif" font-size="10.00">Enemy.makePoop</text>
</a>
</g>
</g>
<!-- Node6&#45;&gt;Node16 -->
<g id="edge19" class="edge"><title>Node6&#45;&gt;Node16</title>
<path fill="none" stroke="midnightblue" d="M766.059,-174.355C781.551,-172.581 798.322,-170.662 813.92,-168.877"/>
<polygon fill="midnightblue" stroke="midnightblue" points="814.439,-172.34 823.976,-167.726 813.643,-165.386 814.439,-172.34"/>
</g>
<!-- Node18 -->
<g id="node18" class="node"><title>Node18</title>
<g id="a_node18"><a xlink:href="../../d8/d53/class_player.html#a1b7a0a6c68deb202a672d42e205d5a21" target="_top" xlink:title="Player.moveSprite">
<polygon fill="white" stroke="black" points="823,-228.5 823,-247.5 927,-247.5 927,-228.5 823,-228.5"/>
<text text-anchor="middle" x="875" y="-235.5" font-family="Helvetica,sans-Serif" font-size="10.00">Player.moveSprite</text>
</a>
</g>
</g>
<!-- Node6&#45;&gt;Node18 -->
<g id="edge21" class="edge"><title>Node6&#45;&gt;Node18</title>
<path fill="none" stroke="midnightblue" d="M740.57,-190.599C748.96,-193.362 757.903,-196.566 766,-200 782.656,-207.063 785.145,-212.427 802,-219 808.231,-221.43 814.884,-223.654 821.534,-225.655"/>
<polygon fill="midnightblue" stroke="midnightblue" points="820.649,-229.042 831.226,-228.427 822.574,-222.312 820.649,-229.042"/>
</g>
<!-- Node20 -->
<g id="node20" class="node"><title>Node20</title>
<g id="a_node20"><a xlink:href="../../dd/d7a/class_enemy.html#ab653212b50d9e64ba497ae18696d3678" target="_top" xlink:title="Enemy.moveSprite">
<polygon fill="white" stroke="black" points="821.5,-304.5 821.5,-323.5 928.5,-323.5 928.5,-304.5 821.5,-304.5"/>
<text text-anchor="middle" x="875" y="-311.5" font-family="Helvetica,sans-Serif" font-size="10.00">Enemy.moveSprite</text>
</a>
</g>
</g>
<!-- Node6&#45;&gt;Node20 -->
<g id="edge24" class="edge"><title>Node6&#45;&gt;Node20</title>
<path fill="none" stroke="midnightblue" d="M751.911,-190.576C757.074,-193.033 761.939,-196.121 766,-200 798.648,-231.19 768.453,-264.779 802,-295 805.047,-297.745 808.444,-300.101 812.057,-302.123"/>
<polygon fill="midnightblue" stroke="midnightblue" points="810.869,-305.43 821.411,-306.49 813.831,-299.088 810.869,-305.43"/>
</g>
<!-- Node22 -->
<g id="node22" class="node"><title>Node22</title>
<g id="a_node22"><a xlink:href="../../d2/d3e/class_level1.html#a5995ba731849ced54b8f97fcc93ce4d9" target="_top" xlink:title="Level1.removeFromScreen">
<polygon fill="white" stroke="black" points="802.5,-76.5 802.5,-95.5 947.5,-95.5 947.5,-76.5 802.5,-76.5"/>
<text text-anchor="middle" x="875" y="-83.5" font-family="Helvetica,sans-Serif" font-size="10.00">Level1.removeFromScreen</text>
</a>
</g>
</g>
<!-- Node6&#45;&gt;Node22 -->
<g id="edge28" class="edge"><title>Node6&#45;&gt;Node22</title>
<path fill="none" stroke="midnightblue" d="M717.176,-171.278C732.972,-155.114 766.993,-122.737 802,-105 806.568,-102.686 811.446,-100.633 816.429,-98.8155"/>
<polygon fill="midnightblue" stroke="midnightblue" points="817.701,-102.081 826.086,-95.605 815.492,-95.4384 817.701,-102.081"/>
</g>
<!-- Node23 -->
<g id="node23" class="node"><title>Node23</title>
<g id="a_node23"><a xlink:href="../../d2/d3e/class_level1.html#aa75f107bf925594da75a1d82cf64044d" target="_top" xlink:title="Level1.returnCollisions">
<polygon fill="white" stroke="black" points="813,-342.5 813,-361.5 937,-361.5 937,-342.5 813,-342.5"/>
<text text-anchor="middle" x="875" y="-349.5" font-family="Helvetica,sans-Serif" font-size="10.00">Level1.returnCollisions</text>
</a>
</g>
</g>
<!-- Node6&#45;&gt;Node23 -->
<g id="edge29" class="edge"><title>Node6&#45;&gt;Node23</title>
<path fill="none" stroke="midnightblue" d="M753.142,-190.644C757.918,-193.091 762.353,-196.157 766,-200 808.157,-244.418 758.561,-289.835 802,-333 803.444,-334.435 804.983,-335.766 806.6,-336.999"/>
<polygon fill="midnightblue" stroke="midnightblue" points="804.914,-340.072 815.252,-342.39 808.616,-334.131 804.914,-340.072"/>
</g>
<!-- Node27 -->
<g id="node27" class="node"><title>Node27</title>
<g id="a_node27"><a xlink:href="../../d7/da7/class_character.html#aad64a9dc8ceea8b806cf2e1908cd0df8" target="_top" xlink:title="Character.setFull">
<polygon fill="white" stroke="black" points="827,-266.5 827,-285.5 923,-285.5 923,-266.5 827,-266.5"/>
<text text-anchor="middle" x="875" y="-273.5" font-family="Helvetica,sans-Serif" font-size="10.00">Character.setFull</text>
</a>
</g>
</g>
<!-- Node6&#45;&gt;Node27 -->
<g id="edge33" class="edge"><title>Node6&#45;&gt;Node27</title>
<path fill="none" stroke="midnightblue" d="M749.418,-190.61C755.33,-193.076 761.069,-196.157 766,-200 789.633,-218.419 777.838,-239.281 802,-257 806.561,-260.345 811.666,-263.101 816.996,-265.373"/>
<polygon fill="midnightblue" stroke="midnightblue" points="816.169,-268.798 826.763,-268.96 818.583,-262.227 816.169,-268.798"/>
</g>
<!-- Node28 -->
<g id="node28" class="node"><title>Node28</title>
<g id="a_node28"><a xlink:href="../../d7/da7/class_character.html#ac0b4f4ace84c8e5aa60f05515806015d" target="_top" xlink:title="Character.setHP">
<polygon fill="white" stroke="black" points="827.5,-190.5 827.5,-209.5 922.5,-209.5 922.5,-190.5 827.5,-190.5"/>
<text text-anchor="middle" x="875" y="-197.5" font-family="Helvetica,sans-Serif" font-size="10.00">Character.setHP</text>
</a>
</g>
</g>
<!-- Node6&#45;&gt;Node28 -->
<g id="edge34" class="edge"><title>Node6&#45;&gt;Node28</title>
<path fill="none" stroke="midnightblue" d="M766.059,-187.645C782.705,-189.551 800.827,-191.625 817.386,-193.52"/>
<polygon fill="midnightblue" stroke="midnightblue" points="817.133,-197.014 827.467,-194.674 817.929,-190.059 817.133,-197.014"/>
</g>
<!-- Node8 -->
<g id="node8" class="node"><title>Node8</title>
<g id="a_node8"><a xlink:href="../../d2/d3e/class_level1.html#ac4098d447b9841cabec6be3bb719bd26" target="_top" xlink:title="Level1.clearElements">
<polygon fill="white" stroke="black" points="985.5,-114.5 985.5,-133.5 1104.5,-133.5 1104.5,-114.5 985.5,-114.5"/>
<text text-anchor="middle" x="1045" y="-121.5" font-family="Helvetica,sans-Serif" font-size="10.00">Level1.clearElements</text>
</a>
</g>
</g>
<!-- Node7&#45;&gt;Node8 -->
<g id="edge7" class="edge"><title>Node7&#45;&gt;Node8</title>
<path fill="none" stroke="midnightblue" d="M932.409,-124C946.139,-124 960.976,-124 975.21,-124"/>
<polygon fill="midnightblue" stroke="midnightblue" points="975.444,-127.5 985.444,-124 975.443,-120.5 975.444,-127.5"/>
</g>
<!-- Node9 -->
<g id="node9" class="node"><title>Node9</title>
<g id="a_node9"><a xlink:href="../../d7/da7/class_character.html#a4dc23a76b34bcbb84abba1b116847268" target="_top" xlink:title="Character.getHP">
<polygon fill="white" stroke="black" points="997.5,-76.5 997.5,-95.5 1092.5,-95.5 1092.5,-76.5 997.5,-76.5"/>
<text text-anchor="middle" x="1045" y="-83.5" font-family="Helvetica,sans-Serif" font-size="10.00">Character.getHP</text>
</a>
</g>
</g>
<!-- Node7&#45;&gt;Node9 -->
<g id="edge8" class="edge"><title>Node7&#45;&gt;Node9</title>
<path fill="none" stroke="midnightblue" d="M918.393,-114.411C940.763,-109.351 968.398,-103.1 992.047,-97.7512"/>
<polygon fill="midnightblue" stroke="midnightblue" points="992.93,-101.14 1001.91,-95.5201 991.386,-94.3125 992.93,-101.14"/>
</g>
<!-- Node10 -->
<g id="node10" class="node"><title>Node10</title>
<g id="a_node10"><a xlink:href="../../d6/d21/class_screen.html#a5d9534b81b96cfc0a00009dea6be6c09" target="_top" xlink:title="Screen.showScreen">
<polygon fill="white" stroke="black" points="1156.5,-95.5 1156.5,-114.5 1267.5,-114.5 1267.5,-95.5 1156.5,-95.5"/>
<text text-anchor="middle" x="1212" y="-102.5" font-family="Helvetica,sans-Serif" font-size="10.00">Screen.showScreen</text>
</a>
</g>
</g>
<!-- Node7&#45;&gt;Node10 -->
<g id="edge9" class="edge"><title>Node7&#45;&gt;Node10</title>
<path fill="none" stroke="midnightblue" d="M916.586,-133.569C962.764,-143.021 1040.29,-154.524 1106,-143 1132.54,-138.345 1161.21,-127.544 1181.88,-118.642"/>
<polygon fill="midnightblue" stroke="midnightblue" points="1183.32,-121.831 1191.05,-114.588 1180.49,-115.428 1183.32,-121.831"/>
</g>
<!-- Node11 -->
<g id="node11" class="node"><title>Node11</title>
<g id="a_node11"><a xlink:href="../../d6/d21/class_screen.html#ac7ca0a382b3177bbea4e2a4e7c0f442e" target="_top" xlink:title="Screen.init">
<polygon fill="white" stroke="black" points="1347,-95.5 1347,-114.5 1415,-114.5 1415,-95.5 1347,-95.5"/>
<text text-anchor="middle" x="1381" y="-102.5" font-family="Helvetica,sans-Serif" font-size="10.00">Screen.init</text>
</a>
</g>
</g>
<!-- Node10&#45;&gt;Node11 -->
<g id="edge10" class="edge"><title>Node10&#45;&gt;Node11</title>
<path fill="none" stroke="midnightblue" d="M1267.68,-105C1289.98,-105 1315.4,-105 1336.41,-105"/>
<polygon fill="midnightblue" stroke="midnightblue" points="1336.65,-108.5 1346.65,-105 1336.65,-101.5 1336.65,-108.5"/>
</g>
<!-- Node12&#45;&gt;Node4 -->
<g id="edge18" class="edge"><title>Node12&#45;&gt;Node4</title>
<path fill="none" stroke="midnightblue" d="M819.736,-48C730.614,-48 554.848,-48 471.678,-48"/>
<polygon fill="midnightblue" stroke="midnightblue" points="471.528,-44.5001 461.528,-48 471.528,-51.5001 471.528,-44.5001"/>
</g>
<!-- Node12&#45;&gt;Node8 -->
<g id="edge12" class="edge"><title>Node12&#45;&gt;Node8</title>
<path fill="none" stroke="midnightblue" d="M926.634,-57.5265C934.078,-60.0035 941.439,-63.1098 948,-67 968.011,-78.8654 964.283,-92.6512 984,-105 987.342,-107.093 990.935,-108.974 994.641,-110.661"/>
<polygon fill="midnightblue" stroke="midnightblue" points="993.425,-113.945 1004.01,-114.463 996.058,-107.459 993.425,-113.945"/>
</g>
<!-- Node12&#45;&gt;Node9 -->
<g id="edge13" class="edge"><title>Node12&#45;&gt;Node9</title>
<path fill="none" stroke="midnightblue" d="M918.393,-57.589C940.763,-62.6487 968.398,-68.8996 992.047,-74.2488"/>
<polygon fill="midnightblue" stroke="midnightblue" points="991.386,-77.6875 1001.91,-76.4799 992.93,-70.8599 991.386,-77.6875"/>
</g>
<!-- Node13 -->
<g id="node13" class="node"><title>Node13</title>
<g id="a_node13"><a xlink:href="../../dd/d7a/class_enemy.html#a0b00e167bc151db783054dddb2f9b509" target="_top" xlink:title="Enemy.makeAngry">
<polygon fill="white" stroke="black" points="992,-38.5 992,-57.5 1098,-57.5 1098,-38.5 992,-38.5"/>
<text text-anchor="middle" x="1045" y="-45.5" font-family="Helvetica,sans-Serif" font-size="10.00">Enemy.makeAngry</text>
</a>
</g>
</g>
<!-- Node12&#45;&gt;Node13 -->
<g id="edge14" class="edge"><title>Node12&#45;&gt;Node13</title>
<path fill="none" stroke="midnightblue" d="M930.081,-48C946.445,-48 964.551,-48 981.421,-48"/>
<polygon fill="midnightblue" stroke="midnightblue" points="981.74,-51.5001 991.74,-48 981.739,-44.5001 981.74,-51.5001"/>
</g>
<!-- Node12&#45;&gt;Node14 -->
<g id="edge15" class="edge"><title>Node12&#45;&gt;Node14</title>
<path fill="none" stroke="midnightblue" d="M918.393,-38.411C940.763,-33.3513 968.398,-27.1004 992.047,-21.7512"/>
<polygon fill="midnightblue" stroke="midnightblue" points="992.93,-25.1401 1001.91,-19.5201 991.386,-18.3125 992.93,-25.1401"/>
</g>
<!-- Node14&#45;&gt;Node10 -->
<g id="edge16" class="edge"><title>Node14&#45;&gt;Node10</title>
<path fill="none" stroke="midnightblue" d="M1082.59,-19.5346C1090.5,-22.1563 1098.68,-25.3135 1106,-29 1138.71,-45.4755 1172.27,-71.7194 1192.37,-88.6525"/>
<polygon fill="midnightblue" stroke="midnightblue" points="1190.25,-91.4432 1200.13,-95.2839 1194.8,-86.1238 1190.25,-91.4432"/>
</g>
<!-- Node15 -->
<g id="node15" class="node"><title>Node15</title>
<g id="a_node15"><a xlink:href="../../d6/d21/class_screen.html#a601576a0d49770789b2eb08328f09c53" target="_top" xlink:title="Screen.startAnim">
<polygon fill="white" stroke="black" points="1161.5,-0.5 1161.5,-19.5 1262.5,-19.5 1262.5,-0.5 1161.5,-0.5"/>
<text text-anchor="middle" x="1212" y="-7.5" font-family="Helvetica,sans-Serif" font-size="10.00">Screen.startAnim</text>
</a>
</g>
</g>
<!-- Node14&#45;&gt;Node15 -->
<g id="edge17" class="edge"><title>Node14&#45;&gt;Node15</title>
<path fill="none" stroke="midnightblue" d="M1105.57,-10C1120.42,-10 1136.35,-10 1151.21,-10"/>
<polygon fill="midnightblue" stroke="midnightblue" points="1151.3,-13.5001 1161.3,-10 1151.3,-6.5001 1151.3,-13.5001"/>
</g>
<!-- Node17 -->
<g id="node17" class="node"><title>Node17</title>
<g id="a_node17"><a xlink:href="../../d7/dbf/class_sprite.html#accdf1c21264c6ff648ece508cf176bfb" target="_top" xlink:title="Sprite.setVelocity">
<polygon fill="white" stroke="black" points="995,-228.5 995,-247.5 1095,-247.5 1095,-228.5 995,-228.5"/>
<text text-anchor="middle" x="1045" y="-235.5" font-family="Helvetica,sans-Serif" font-size="10.00">Sprite.setVelocity</text>
</a>
</g>
</g>
<!-- Node16&#45;&gt;Node17 -->
<g id="edge20" class="edge"><title>Node16&#45;&gt;Node17</title>
<path fill="none" stroke="midnightblue" d="M920.052,-171.548C929.439,-174.154 939.177,-177.302 948,-181 974.884,-192.269 1003.31,-209.969 1022.19,-222.655"/>
<polygon fill="midnightblue" stroke="midnightblue" points="1020.41,-225.679 1030.64,-228.43 1024.36,-219.899 1020.41,-225.679"/>
</g>
<!-- Node18&#45;&gt;Node17 -->
<g id="edge22" class="edge"><title>Node18&#45;&gt;Node17</title>
<path fill="none" stroke="midnightblue" d="M927.318,-238C945.393,-238 965.86,-238 984.549,-238"/>
<polygon fill="midnightblue" stroke="midnightblue" points="984.723,-241.5 994.723,-238 984.722,-234.5 984.723,-241.5"/>
</g>
<!-- Node19 -->
<g id="node19" class="node"><title>Node19</title>
<g id="a_node19"><a xlink:href="../../d7/dbf/class_sprite.html#ab8f846b7ba77ae72ad09f48da22ceea7" target="_top" xlink:title="Sprite.moveSprite">
<polygon fill="white" stroke="black" points="993,-266.5 993,-285.5 1097,-285.5 1097,-266.5 993,-266.5"/>
<text text-anchor="middle" x="1045" y="-273.5" font-family="Helvetica,sans-Serif" font-size="10.00">Sprite.moveSprite</text>
</a>
</g>
</g>
<!-- Node18&#45;&gt;Node19 -->
<g id="edge23" class="edge"><title>Node18&#45;&gt;Node19</title>
<path fill="none" stroke="midnightblue" d="M918.393,-247.589C940.763,-252.649 968.398,-258.9 992.047,-264.249"/>
<polygon fill="midnightblue" stroke="midnightblue" points="991.386,-267.687 1001.91,-266.48 992.93,-260.86 991.386,-267.687"/>
</g>
<!-- Node20&#45;&gt;Node17 -->
<g id="edge27" class="edge"><title>Node20&#45;&gt;Node17</title>
<path fill="none" stroke="midnightblue" d="M926.634,-304.473C934.078,-301.996 941.439,-298.89 948,-295 968.011,-283.135 964.283,-269.349 984,-257 987.342,-254.907 990.935,-253.026 994.641,-251.339"/>
<polygon fill="midnightblue" stroke="midnightblue" points="996.058,-254.541 1004.01,-247.537 993.425,-248.055 996.058,-254.541"/>
</g>
<!-- Node20&#45;&gt;Node19 -->
<g id="edge26" class="edge"><title>Node20&#45;&gt;Node19</title>
<path fill="none" stroke="midnightblue" d="M918.393,-304.411C940.763,-299.351 968.398,-293.1 992.047,-287.751"/>
<polygon fill="midnightblue" stroke="midnightblue" points="992.93,-291.14 1001.91,-285.52 991.386,-284.313 992.93,-291.14"/>
</g>
<!-- Node21 -->
<g id="node21" class="node"><title>Node21</title>
<g id="a_node21"><a xlink:href="../../d7/dbf/class_sprite.html#a4dd4a643703de09c632a0e7d70a570e7" target="_top" xlink:title="Sprite.getVelocity">
<polygon fill="white" stroke="black" points="994.5,-304.5 994.5,-323.5 1095.5,-323.5 1095.5,-304.5 994.5,-304.5"/>
<text text-anchor="middle" x="1045" y="-311.5" font-family="Helvetica,sans-Serif" font-size="10.00">Sprite.getVelocity</text>
</a>
</g>
</g>
<!-- Node20&#45;&gt;Node21 -->
<g id="edge25" class="edge"><title>Node20&#45;&gt;Node21</title>
<path fill="none" stroke="midnightblue" d="M928.695,-314C946.313,-314 966.075,-314 984.195,-314"/>
<polygon fill="midnightblue" stroke="midnightblue" points="984.356,-317.5 994.356,-314 984.356,-310.5 984.356,-317.5"/>
</g>
<!-- Node24 -->
<g id="node24" class="node"><title>Node24</title>
<g id="a_node24"><a xlink:href="../../d7/da7/class_character.html#aa2149c166e797ae0ded67d9f768ac7f3" target="_top" xlink:title="Character.updateAll">
<polygon fill="white" stroke="black" points="989.5,-342.5 989.5,-361.5 1100.5,-361.5 1100.5,-342.5 989.5,-342.5"/>
<text text-anchor="middle" x="1045" y="-349.5" font-family="Helvetica,sans-Serif" font-size="10.00">Character.updateAll</text>
</a>
</g>
</g>
<!-- Node23&#45;&gt;Node24 -->
<g id="edge30" class="edge"><title>Node23&#45;&gt;Node24</title>
<path fill="none" stroke="midnightblue" d="M937.127,-352C950.734,-352 965.207,-352 978.965,-352"/>
<polygon fill="midnightblue" stroke="midnightblue" points="979.319,-355.5 989.319,-352 979.319,-348.5 979.319,-355.5"/>
</g>
<!-- Node25 -->
<g id="node25" class="node"><title>Node25</title>
<g id="a_node25"><a xlink:href="../../d7/da7/class_character.html#ade25acccb27ac9aeb2752b2df29d075f" target="_top" xlink:title="Character.collisionUpdate">
<polygon fill="white" stroke="black" points="1142.5,-342.5 1142.5,-361.5 1281.5,-361.5 1281.5,-342.5 1142.5,-342.5"/>
<text text-anchor="middle" x="1212" y="-349.5" font-family="Helvetica,sans-Serif" font-size="10.00">Character.collisionUpdate</text>
</a>
</g>
</g>
<!-- Node24&#45;&gt;Node25 -->
<g id="edge31" class="edge"><title>Node24&#45;&gt;Node25</title>
<path fill="none" stroke="midnightblue" d="M1100.94,-352C1111.03,-352 1121.74,-352 1132.36,-352"/>
<polygon fill="midnightblue" stroke="midnightblue" points="1132.5,-355.5 1142.5,-352 1132.5,-348.5 1132.5,-355.5"/>
</g>
<!-- Node26 -->
<g id="node26" class="node"><title>Node26</title>
<g id="a_node26"><a xlink:href="../../d7/da7/class_character.html#ad223fcb54929116326bf8816d43f5173" target="_top" xlink:title="Character.checkCollide">
<polygon fill="white" stroke="black" points="1318.5,-342.5 1318.5,-361.5 1443.5,-361.5 1443.5,-342.5 1318.5,-342.5"/>
<text text-anchor="middle" x="1381" y="-349.5" font-family="Helvetica,sans-Serif" font-size="10.00">Character.checkCollide</text>
</a>
</g>
</g>
<!-- Node25&#45;&gt;Node26 -->
<g id="edge32" class="edge"><title>Node25&#45;&gt;Node26</title>
<path fill="none" stroke="midnightblue" d="M1281.89,-352C1290.61,-352 1299.54,-352 1308.31,-352"/>
<polygon fill="midnightblue" stroke="midnightblue" points="1308.48,-355.5 1318.48,-352 1308.48,-348.5 1308.48,-355.5"/>
</g>
</g>
</svg>
        <g id="navigator" transform="translate(0 0)" fill="#404254">
                <rect fill="#f2f5e9" fill-opacity="0.5" stroke="#606060" stroke-width=".5" x="0" y="0" width="60" height="60"/>
                <use id="zoomplus" xlink:href="#zoomPlus" x="17" y="9" onmousedown="handleZoom(evt,'in')"/>
                <use id="zoomminus" xlink:href="#zoomMin" x="42" y="9" onmousedown="handleZoom(evt,'out')"/>
                <use id="reset" xlink:href="#resetDef" x="30" y="36" onmousedown="handleReset()"/>
                <g id="arrowUp" xlink:href="#dirArrow" transform="translate(30 24)" onmousedown="handlePan(0,-1)">
                  <use xlink:href="#rim" fill="#404040">
                        <set attributeName="fill" to="#808080" begin="arrowUp.mouseover" end="arrowUp.mouseout"/>
                  </use>
                  <path fill="none" stroke="white" stroke-width="1.5" d="M0,-3.0v7 M-2.5,-0.5L0,-3.0L2.5,-0.5"/>
                </g>
                <g id="arrowRight" xlink:href="#dirArrow" transform="rotate(90) translate(36 -43)" onmousedown="handlePan(1,0)">
                  <use xlink:href="#rim" fill="#404040">
                        <set attributeName="fill" to="#808080" begin="arrowRight.mouseover" end="arrowRight.mouseout"/>
                  </use>
                  <path fill="none" stroke="white" stroke-width="1.5" d="M0,-3.0v7 M-2.5,-0.5L0,-3.0L2.5,-0.5"/>
                </g>
                <g id="arrowDown" xlink:href="#dirArrow" transform="rotate(180) translate(-30 -48)" onmousedown="handlePan(0,1)">
                  <use xlink:href="#rim" fill="#404040">
                        <set attributeName="fill" to="#808080" begin="arrowDown.mouseover" end="arrowDown.mouseout"/>
                  </use>
                  <path fill="none" stroke="white" stroke-width="1.5" d="M0,-3.0v7 M-2.5,-0.5L0,-3.0L2.5,-0.5"/>
                </g>
                <g id="arrowLeft" xlink:href="#dirArrow" transform="rotate(270) translate(-36 17)" onmousedown="handlePan(-1,0)">
                  <use xlink:href="#rim" fill="#404040">
                        <set attributeName="fill" to="#808080" begin="arrowLeft.mouseover" end="arrowLeft.mouseout"/>
                  </use>
                  <path fill="none" stroke="white" stroke-width="1.5" d="M0,-3.0v7 M-2.5,-0.5L0,-3.0L2.5,-0.5"/>
                </g>
        </g>
        <svg viewBox="0 0 15 15" width="100%" height="30px" preserveAspectRatio="xMaxYMin meet">
         <g id="arrow_out" transform="scale(0.3 0.3)">
          <a xlink:href="class_menu_aff7a7627619921545f94547ab6135007_cgraph_org.svg" target="_base">
           <rect id="button" ry="5" rx="5" y="6" x="6" height="38" width="38"
                fill="#f2f5e9" fill-opacity="0.5" stroke="#606060" stroke-width="1.0"/>
           <path id="arrow"
             d="M 11.500037,31.436501 C 11.940474,20.09759 22.043105,11.32322 32.158766,21.979434 L 37.068811,17.246167 C 37.068811,17.246167 37.088388,32 37.088388,32 L 22.160133,31.978069 C 22.160133,31.978069 26.997745,27.140456 26.997745,27.140456 C 18.528582,18.264221 13.291696,25.230495 11.500037,31.436501 z"
             style="fill:#404040;"/>
          </a>
         </g>
        </svg>
</svg>
