<?xml version="1.0" encoding="UTF-8" standalone="no"?>
<!DOCTYPE svg PUBLIC "-//W3C//DTD SVG 1.1//EN"
 "http://www.w3.org/Graphics/SVG/1.1/DTD/svg11.dtd">
<!-- Generated by graphviz version 2.36.0 (20140111.2315)
 -->
<!-- Title: Menu.handle Pages: 1 -->
<!--zoomable 332 -->
<svg id="main" version="1.1" xmlns="http://www.w3.org/2000/svg" xmlns:xlink="http://www.w3.org/1999/xlink" xml:space="preserve" onload="init(evt)">
<style type="text/css"><![CDATA[
.edge:hover path { stroke: red; }
.edge:hover polygon { stroke: red; fill: red; }
]]></style>
<script type="text/javascript"><![CDATA[
var edges = document.getElementsByTagName('g');
if (edges && edges.length) {
  for (var i=0;i<edges.length;i++) {
    if (edges[i].id.substr(0,4)=='edge') {
      edges[i].setAttribute('class','edge');
    }
  }
}
]]></script>
        <defs>
                <circle id="rim" cx="0" cy="0" r="7"/>
                <circle id="rim2" cx="0" cy="0" r="3.5"/>
                <g id="zoomPlus">
                        <use xlink:href="#rim" fill="#404040">
                                <set attributeName="fill" to="#808080" begin="zoomplus.mouseover" end="zoomplus.mouseout"/>
                        </use>
                        <path d="M-4,0h8M0,-4v8" fill="none" stroke="white" stroke-width="1.5" pointer-events="none"/>
                </g>
                <g id="zoomMin">
                        <use xlink:href="#rim" fill="#404040">
                                <set attributeName="fill" to="#808080" begin="zoomminus.mouseover" end="zoomminus.mouseout"/>
                        </use>
                        <path d="M-4,0h8" fill="none" stroke="white" stroke-width="1.5" pointer-events="none"/>
                </g>
                <g id="dirArrow">
                        <path fill="none" stroke="white" stroke-width="1.5" d="M0,-3.0v7 M-2.5,-0.5L0,-3.0L2.5,-0.5"/>
                </g>
               <g id="resetDef">
                       <use xlink:href="#rim2" fill="#404040">
                               <set attributeName="fill" to="#808080" begin="reset.mouseover" end="reset.mouseout"/>
                       </use>
               </g>
        </defs>

<script type="text/javascript">
var viewWidth = 1320;
var viewHeight = 332;
var sectionId = 'dynsection-11';
</script>
<script xlink:href="../../svgpan.js"/>
<svg id="graph" class="graph">
<g id="viewport">
<title>Menu.handle</title>
<polygon fill="white" stroke="none" points="-4,4 -4,-328 1316,-328 1316,4 -4,4"/>
<!-- Node1 -->
<g id="node1" class="node"><title>Node1</title>
<polygon fill="#bfbfbf" stroke="black" points="0,-256.5 0,-275.5 78,-275.5 78,-256.5 0,-256.5"/>
<text text-anchor="middle" x="39" y="-263.5" font-family="Helvetica,sans-Serif" font-size="10.00">Menu.handle</text>
</g>
<!-- Node2 -->
<g id="node2" class="node"><title>Node2</title>
<g id="a_node2"><a xlink:href="../../d2/db8/class_menu.html#ab6296880308728ced459f772430d025b" target="_top" xlink:title="Menu.createGame">
<polygon fill="white" stroke="black" points="114,-256.5 114,-275.5 220,-275.5 220,-256.5 114,-256.5"/>
<text text-anchor="middle" x="167" y="-263.5" font-family="Helvetica,sans-Serif" font-size="10.00">Menu.createGame</text>
</a>
</g>
</g>
<!-- Node1&#45;&gt;Node2 -->
<g id="edge1" class="edge"><title>Node1&#45;&gt;Node2</title>
<path fill="none" stroke="midnightblue" d="M78.1461,-266C86.1634,-266 94.8202,-266 103.465,-266"/>
<polygon fill="midnightblue" stroke="midnightblue" points="103.57,-269.5 113.57,-266 103.57,-262.5 103.57,-269.5"/>
</g>
<!-- Node3 -->
<g id="node3" class="node"><title>Node3</title>
<g id="a_node3"><a xlink:href="../../d6/d21/class_screen.html#a5d40342bbe33c27c9e0e24bd8709d1f6" target="_top" xlink:title="Screen.showAndAnim">
<polygon fill="white" stroke="black" points="852.5,-304.5 852.5,-323.5 973.5,-323.5 973.5,-304.5 852.5,-304.5"/>
<text text-anchor="middle" x="913" y="-311.5" font-family="Helvetica,sans-Serif" font-size="10.00">Screen.showAndAnim</text>
</a>
</g>
</g>
<!-- Node2&#45;&gt;Node3 -->
<g id="edge2" class="edge"><title>Node2&#45;&gt;Node3</title>
<path fill="none" stroke="midnightblue" d="M220.339,-275.496C271.556,-283.953 351.874,-295 422,-295 422,-295 422,-295 576,-295 668.113,-295 774.205,-302.206 842.122,-307.743"/>
<polygon fill="midnightblue" stroke="midnightblue" points="842.019,-311.246 852.273,-308.581 842.595,-304.27 842.019,-311.246"/>
</g>
<!-- Node7 -->
<g id="node7" class="node"><title>Node7</title>
<g id="a_node7"><a xlink:href="../../d2/d3e/class_level1.html#a0871325d07c0614d5f1f2df7df13b703" target="_top" xlink:title="Level1.start">
<polygon fill="white" stroke="black" points="256.5,-228.5 256.5,-247.5 329.5,-247.5 329.5,-228.5 256.5,-228.5"/>
<text text-anchor="middle" x="293" y="-235.5" font-family="Helvetica,sans-Serif" font-size="10.00">Level1.start</text>
</a>
</g>
</g>
<!-- Node2&#45;&gt;Node7 -->
<g id="edge6" class="edge"><title>Node2&#45;&gt;Node7</title>
<path fill="none" stroke="midnightblue" d="M210.327,-256.442C221.94,-253.82 234.579,-250.966 246.369,-248.304"/>
<polygon fill="midnightblue" stroke="midnightblue" points="247.479,-251.641 256.463,-246.025 245.937,-244.813 247.479,-251.641"/>
</g>
<!-- Node4 -->
<g id="node4" class="node"><title>Node4</title>
<g id="a_node4"><a xlink:href="../../d6/d21/class_screen.html#a5d9534b81b96cfc0a00009dea6be6c09" target="_top" xlink:title="Screen.showScreen">
<polygon fill="white" stroke="black" points="1024.5,-209.5 1024.5,-228.5 1135.5,-228.5 1135.5,-209.5 1024.5,-209.5"/>
<text text-anchor="middle" x="1080" y="-216.5" font-family="Helvetica,sans-Serif" font-size="10.00">Screen.showScreen</text>
</a>
</g>
</g>
<!-- Node3&#45;&gt;Node4 -->
<g id="edge3" class="edge"><title>Node3&#45;&gt;Node4</title>
<path fill="none" stroke="midnightblue" d="M950.592,-304.465C958.501,-301.844 966.681,-298.686 974,-295 1006.71,-278.525 1040.27,-252.281 1060.37,-235.347"/>
<polygon fill="midnightblue" stroke="midnightblue" points="1062.8,-237.876 1068.13,-228.716 1058.25,-232.557 1062.8,-237.876"/>
</g>
<!-- Node6 -->
<g id="node6" class="node"><title>Node6</title>
<g id="a_node6"><a xlink:href="../../d6/d21/class_screen.html#a601576a0d49770789b2eb08328f09c53" target="_top" xlink:title="Screen.startAnim">
<polygon fill="white" stroke="black" points="1029.5,-304.5 1029.5,-323.5 1130.5,-323.5 1130.5,-304.5 1029.5,-304.5"/>
<text text-anchor="middle" x="1080" y="-311.5" font-family="Helvetica,sans-Serif" font-size="10.00">Screen.startAnim</text>
</a>
</g>
</g>
<!-- Node3&#45;&gt;Node6 -->
<g id="edge5" class="edge"><title>Node3&#45;&gt;Node6</title>
<path fill="none" stroke="midnightblue" d="M973.569,-314C988.419,-314 1004.35,-314 1019.21,-314"/>
<polygon fill="midnightblue" stroke="midnightblue" points="1019.3,-317.5 1029.3,-314 1019.3,-310.5 1019.3,-317.5"/>
</g>
<!-- Node5 -->
<g id="node5" class="node"><title>Node5</title>
<g id="a_node5"><a xlink:href="../../d6/d21/class_screen.html#ac7ca0a382b3177bbea4e2a4e7c0f442e" target="_top" xlink:title="Screen.init">
<polygon fill="white" stroke="black" points="1215,-209.5 1215,-228.5 1283,-228.5 1283,-209.5 1215,-209.5"/>
<text text-anchor="middle" x="1249" y="-216.5" font-family="Helvetica,sans-Serif" font-size="10.00">Screen.init</text>
</a>
</g>
</g>
<!-- Node4&#45;&gt;Node5 -->
<g id="edge4" class="edge"><title>Node4&#45;&gt;Node5</title>
<path fill="none" stroke="midnightblue" d="M1135.68,-219C1157.98,-219 1183.4,-219 1204.41,-219"/>
<polygon fill="midnightblue" stroke="midnightblue" points="1204.65,-222.5 1214.65,-219 1204.65,-215.5 1204.65,-222.5"/>
</g>
<!-- Node8 -->
<g id="node8" class="node"><title>Node8</title>
<g id="a_node8"><a xlink:href="../../d2/d3e/class_level1.html#a324da1e22a7a87fa4bb1859b5774bdba" target="_top" xlink:title="Level1.updateFrame">
<polygon fill="white" stroke="black" points="366,-171.5 366,-190.5 480,-190.5 480,-171.5 366,-171.5"/>
<text text-anchor="middle" x="423" y="-178.5" font-family="Helvetica,sans-Serif" font-size="10.00">Level1.updateFrame</text>
</a>
</g>
</g>
<!-- Node7&#45;&gt;Node8 -->
<g id="edge7" class="edge"><title>Node7&#45;&gt;Node8</title>
<path fill="none" stroke="midnightblue" d="M315.424,-228.459C336.191,-219.212 367.904,-205.09 391.34,-194.653"/>
<polygon fill="midnightblue" stroke="midnightblue" points="392.794,-197.837 400.506,-190.572 389.947,-191.442 392.794,-197.837"/>
</g>
<!-- Node9 -->
<g id="node9" class="node"><title>Node9</title>
<g id="a_node9"><a xlink:href="../../d2/d3e/class_level1.html#a78a7fb5633734b1815af8db43db23a41" target="_top" xlink:title="Level1.updateSprites">
<polygon fill="white" stroke="black" points="516,-123.5 516,-142.5 634,-142.5 634,-123.5 516,-123.5"/>
<text text-anchor="middle" x="575" y="-130.5" font-family="Helvetica,sans-Serif" font-size="10.00">Level1.updateSprites</text>
</a>
</g>
</g>
<!-- Node8&#45;&gt;Node9 -->
<g id="edge8" class="edge"><title>Node8&#45;&gt;Node9</title>
<path fill="none" stroke="midnightblue" d="M453.994,-171.402C477.09,-164.011 509.222,-153.729 534.425,-145.664"/>
<polygon fill="midnightblue" stroke="midnightblue" points="535.6,-148.963 544.058,-142.582 533.467,-142.296 535.6,-148.963"/>
</g>
<!-- Node26 -->
<g id="node26" class="node"><title>Node26</title>
<g id="a_node26"><a xlink:href="../../d2/d3e/class_level1.html#a5f552e875916d0cf7a74896401584b2a" target="_top" xlink:title="Level1.updateTimer">
<polygon fill="white" stroke="black" points="519.5,-171.5 519.5,-190.5 630.5,-190.5 630.5,-171.5 519.5,-171.5"/>
<text text-anchor="middle" x="575" y="-178.5" font-family="Helvetica,sans-Serif" font-size="10.00">Level1.updateTimer</text>
</a>
</g>
</g>
<!-- Node8&#45;&gt;Node26 -->
<g id="edge33" class="edge"><title>Node8&#45;&gt;Node26</title>
<path fill="none" stroke="midnightblue" d="M480.281,-181C489.683,-181 499.504,-181 509.1,-181"/>
<polygon fill="midnightblue" stroke="midnightblue" points="509.394,-184.5 519.394,-181 509.394,-177.5 509.394,-184.5"/>
</g>
<!-- Node10 -->
<g id="node10" class="node"><title>Node10</title>
<g id="a_node10"><a xlink:href="../../d2/d3e/class_level1.html#a5e6976ef755d0e678034870e374ee4ca" target="_top" xlink:title="Level1.goGameOver">
<polygon fill="white" stroke="black" points="686,-190.5 686,-209.5 800,-209.5 800,-190.5 686,-190.5"/>
<text text-anchor="middle" x="743" y="-197.5" font-family="Helvetica,sans-Serif" font-size="10.00">Level1.goGameOver</text>
</a>
</g>
</g>
<!-- Node9&#45;&gt;Node10 -->
<g id="edge9" class="edge"><title>Node9&#45;&gt;Node10</title>
<path fill="none" stroke="midnightblue" d="M595.387,-142.561C606.683,-148.164 621.183,-155.414 634,-162 650.092,-170.268 653.145,-174.427 670,-181 676.231,-183.43 682.884,-185.654 689.534,-187.655"/>
<polygon fill="midnightblue" stroke="midnightblue" points="688.649,-191.042 699.226,-190.427 690.574,-184.312 688.649,-191.042"/>
</g>
<!-- Node13 -->
<g id="node13" class="node"><title>Node13</title>
<g id="a_node13"><a xlink:href="../../d2/d3e/class_level1.html#ac56e75129bb2946c38cfcf43608f3f05" target="_top" xlink:title="Level1.goNextLevel">
<polygon fill="white" stroke="black" points="688,-228.5 688,-247.5 798,-247.5 798,-228.5 688,-228.5"/>
<text text-anchor="middle" x="743" y="-235.5" font-family="Helvetica,sans-Serif" font-size="10.00">Level1.goNextLevel</text>
</a>
</g>
</g>
<!-- Node9&#45;&gt;Node13 -->
<g id="edge13" class="edge"><title>Node9&#45;&gt;Node13</title>
<path fill="none" stroke="midnightblue" d="M602.41,-142.56C613.036,-147.286 624.901,-153.766 634,-162 656.216,-182.105 645.838,-201.281 670,-219 672.658,-220.949 675.502,-222.699 678.466,-224.269"/>
<polygon fill="midnightblue" stroke="midnightblue" points="677.111,-227.498 687.662,-228.462 680.016,-221.129 677.111,-227.498"/>
</g>
<!-- Node15 -->
<g id="node15" class="node"><title>Node15</title>
<g id="a_node15"><a xlink:href="../../dd/d7a/class_enemy.html#a9b6840dcc6b8165268e957fc43d95b06" target="_top" xlink:title="Enemy.makePoop">
<polygon fill="white" stroke="black" points="692,-152.5 692,-171.5 794,-171.5 794,-152.5 692,-152.5"/>
<text text-anchor="middle" x="743" y="-159.5" font-family="Helvetica,sans-Serif" font-size="10.00">Enemy.makePoop</text>
</a>
</g>
</g>
<!-- Node9&#45;&gt;Node15 -->
<g id="edge19" class="edge"><title>Node9&#45;&gt;Node15</title>
<path fill="none" stroke="midnightblue" d="M630.815,-142.576C647.082,-145.418 664.987,-148.546 681.588,-151.446"/>
<polygon fill="midnightblue" stroke="midnightblue" points="681.277,-154.945 691.73,-153.218 682.481,-148.049 681.277,-154.945"/>
</g>
<!-- Node17 -->
<g id="node17" class="node"><title>Node17</title>
<g id="a_node17"><a xlink:href="../../d8/d53/class_player.html#a1b7a0a6c68deb202a672d42e205d5a21" target="_top" xlink:title="Player.moveSprite">
<polygon fill="white" stroke="black" points="691,-114.5 691,-133.5 795,-133.5 795,-114.5 691,-114.5"/>
<text text-anchor="middle" x="743" y="-121.5" font-family="Helvetica,sans-Serif" font-size="10.00">Player.moveSprite</text>
</a>
</g>
</g>
<!-- Node9&#45;&gt;Node17 -->
<g id="edge21" class="edge"><title>Node9&#45;&gt;Node17</title>
<path fill="none" stroke="midnightblue" d="M634.059,-129.852C649.1,-129.037 665.346,-128.156 680.554,-127.331"/>
<polygon fill="midnightblue" stroke="midnightblue" points="681.094,-130.807 690.89,-126.771 680.715,-123.818 681.094,-130.807"/>
</g>
<!-- Node19 -->
<g id="node19" class="node"><title>Node19</title>
<g id="a_node19"><a xlink:href="../../dd/d7a/class_enemy.html#ab653212b50d9e64ba497ae18696d3678" target="_top" xlink:title="Enemy.moveSprite">
<polygon fill="white" stroke="black" points="689.5,-76.5 689.5,-95.5 796.5,-95.5 796.5,-76.5 689.5,-76.5"/>
<text text-anchor="middle" x="743" y="-83.5" font-family="Helvetica,sans-Serif" font-size="10.00">Enemy.moveSprite</text>
</a>
</g>
</g>
<!-- Node9&#45;&gt;Node19 -->
<g id="edge24" class="edge"><title>Node9&#45;&gt;Node19</title>
<path fill="none" stroke="midnightblue" d="M607.262,-123.419C625.516,-117.893 649.016,-110.893 670,-105 678.141,-102.714 686.822,-100.356 695.235,-98.1117"/>
<polygon fill="midnightblue" stroke="midnightblue" points="696.171,-101.485 704.941,-95.5407 694.378,-94.7181 696.171,-101.485"/>
</g>
<!-- Node21 -->
<g id="node21" class="node"><title>Node21</title>
<g id="a_node21"><a xlink:href="../../d2/d3e/class_level1.html#a5995ba731849ced54b8f97fcc93ce4d9" target="_top" xlink:title="Level1.removeFromScreen">
<polygon fill="white" stroke="black" points="670.5,-38.5 670.5,-57.5 815.5,-57.5 815.5,-38.5 670.5,-38.5"/>
<text text-anchor="middle" x="743" y="-45.5" font-family="Helvetica,sans-Serif" font-size="10.00">Level1.removeFromScreen</text>
</a>
</g>
</g>
<!-- Node9&#45;&gt;Node21 -->
<g id="edge28" class="edge"><title>Node9&#45;&gt;Node21</title>
<path fill="none" stroke="midnightblue" d="M586.773,-123.478C603.463,-109.202 637.09,-82.2962 670,-67 675.056,-64.6502 680.451,-62.5528 685.929,-60.6896"/>
<polygon fill="midnightblue" stroke="midnightblue" points="687.328,-63.9189 695.821,-57.5848 685.232,-57.2401 687.328,-63.9189"/>
</g>
<!-- Node22 -->
<g id="node22" class="node"><title>Node22</title>
<g id="a_node22"><a xlink:href="../../d2/d3e/class_level1.html#aa75f107bf925594da75a1d82cf64044d" target="_top" xlink:title="Level1.returnCollisions">
<polygon fill="white" stroke="black" points="681,-0.5 681,-19.5 805,-19.5 805,-0.5 681,-0.5"/>
<text text-anchor="middle" x="743" y="-7.5" font-family="Helvetica,sans-Serif" font-size="10.00">Level1.returnCollisions</text>
</a>
</g>
</g>
<!-- Node9&#45;&gt;Node22 -->
<g id="edge29" class="edge"><title>Node9&#45;&gt;Node22</title>
<path fill="none" stroke="midnightblue" d="M581.951,-123.263C595.118,-102.569 628.841,-54.0616 670,-29 673.602,-26.8065 677.456,-24.8635 681.438,-23.1427"/>
<polygon fill="midnightblue" stroke="midnightblue" points="682.819,-26.3621 690.906,-19.5178 680.316,-19.8248 682.819,-26.3621"/>
</g>
<!-- Node10&#45;&gt;Node4 -->
<g id="edge12" class="edge"><title>Node10&#45;&gt;Node4</title>
<path fill="none" stroke="midnightblue" d="M784.586,-190.431C830.764,-180.979 908.292,-169.476 974,-181 1000.54,-185.655 1029.21,-196.456 1049.88,-205.358"/>
<polygon fill="midnightblue" stroke="midnightblue" points="1048.49,-208.572 1059.05,-209.412 1051.32,-202.169 1048.49,-208.572"/>
</g>
<!-- Node11 -->
<g id="node11" class="node"><title>Node11</title>
<g id="a_node11"><a xlink:href="../../d2/d3e/class_level1.html#ac4098d447b9841cabec6be3bb719bd26" target="_top" xlink:title="Level1.clearElements">
<polygon fill="white" stroke="black" points="853.5,-190.5 853.5,-209.5 972.5,-209.5 972.5,-190.5 853.5,-190.5"/>
<text text-anchor="middle" x="913" y="-197.5" font-family="Helvetica,sans-Serif" font-size="10.00">Level1.clearElements</text>
</a>
</g>
</g>
<!-- Node10&#45;&gt;Node11 -->
<g id="edge10" class="edge"><title>Node10&#45;&gt;Node11</title>
<path fill="none" stroke="midnightblue" d="M800.409,-200C814.139,-200 828.976,-200 843.21,-200"/>
<polygon fill="midnightblue" stroke="midnightblue" points="843.444,-203.5 853.444,-200 843.443,-196.5 843.444,-203.5"/>
</g>
<!-- Node12 -->
<g id="node12" class="node"><title>Node12</title>
<g id="a_node12"><a xlink:href="../../d7/da7/class_character.html#a4dc23a76b34bcbb84abba1b116847268" target="_top" xlink:title="Character.getHP">
<polygon fill="white" stroke="black" points="865.5,-228.5 865.5,-247.5 960.5,-247.5 960.5,-228.5 865.5,-228.5"/>
<text text-anchor="middle" x="913" y="-235.5" font-family="Helvetica,sans-Serif" font-size="10.00">Character.getHP</text>
</a>
</g>
</g>
<!-- Node10&#45;&gt;Node12 -->
<g id="edge11" class="edge"><title>Node10&#45;&gt;Node12</title>
<path fill="none" stroke="midnightblue" d="M786.393,-209.589C808.763,-214.649 836.398,-220.9 860.047,-226.249"/>
<polygon fill="midnightblue" stroke="midnightblue" points="859.386,-229.687 869.911,-228.48 860.93,-222.86 859.386,-229.687"/>
</g>
<!-- Node13&#45;&gt;Node3 -->
<g id="edge17" class="edge"><title>Node13&#45;&gt;Node3</title>
<path fill="none" stroke="midnightblue" d="M760.026,-247.627C780.737,-259.792 818.163,-280.847 852,-295 857.36,-297.242 863.082,-299.372 868.784,-301.34"/>
<polygon fill="midnightblue" stroke="midnightblue" points="867.701,-304.669 878.294,-304.491 869.902,-298.024 867.701,-304.669"/>
</g>
<!-- Node13&#45;&gt;Node7 -->
<g id="edge18" class="edge"><title>Node13&#45;&gt;Node7</title>
<path fill="none" stroke="midnightblue" d="M687.736,-238C598.614,-238 422.848,-238 339.678,-238"/>
<polygon fill="midnightblue" stroke="midnightblue" points="339.528,-234.5 329.528,-238 339.528,-241.5 339.528,-234.5"/>
</g>
<!-- Node13&#45;&gt;Node11 -->
<g id="edge14" class="edge"><title>Node13&#45;&gt;Node11</title>
<path fill="none" stroke="midnightblue" d="M786.393,-228.411C808.763,-223.351 836.398,-217.1 860.047,-211.751"/>
<polygon fill="midnightblue" stroke="midnightblue" points="860.93,-215.14 869.911,-209.52 859.386,-208.313 860.93,-215.14"/>
</g>
<!-- Node13&#45;&gt;Node12 -->
<g id="edge15" class="edge"><title>Node13&#45;&gt;Node12</title>
<path fill="none" stroke="midnightblue" d="M798.081,-238C816.372,-238 836.84,-238 855.327,-238"/>
<polygon fill="midnightblue" stroke="midnightblue" points="855.367,-241.5 865.367,-238 855.366,-234.5 855.367,-241.5"/>
</g>
<!-- Node14 -->
<g id="node14" class="node"><title>Node14</title>
<g id="a_node14"><a xlink:href="../../dd/d7a/class_enemy.html#a0b00e167bc151db783054dddb2f9b509" target="_top" xlink:title="Enemy.makeAngry">
<polygon fill="white" stroke="black" points="860,-266.5 860,-285.5 966,-285.5 966,-266.5 860,-266.5"/>
<text text-anchor="middle" x="913" y="-273.5" font-family="Helvetica,sans-Serif" font-size="10.00">Enemy.makeAngry</text>
</a>
</g>
</g>
<!-- Node13&#45;&gt;Node14 -->
<g id="edge16" class="edge"><title>Node13&#45;&gt;Node14</title>
<path fill="none" stroke="midnightblue" d="M786.393,-247.589C808.763,-252.649 836.398,-258.9 860.047,-264.249"/>
<polygon fill="midnightblue" stroke="midnightblue" points="859.386,-267.687 869.911,-266.48 860.93,-260.86 859.386,-267.687"/>
</g>
<!-- Node16 -->
<g id="node16" class="node"><title>Node16</title>
<g id="a_node16"><a xlink:href="../../d7/dbf/class_sprite.html#accdf1c21264c6ff648ece508cf176bfb" target="_top" xlink:title="Sprite.setVelocity">
<polygon fill="white" stroke="black" points="863,-114.5 863,-133.5 963,-133.5 963,-114.5 863,-114.5"/>
<text text-anchor="middle" x="913" y="-121.5" font-family="Helvetica,sans-Serif" font-size="10.00">Sprite.setVelocity</text>
</a>
</g>
</g>
<!-- Node15&#45;&gt;Node16 -->
<g id="edge20" class="edge"><title>Node15&#45;&gt;Node16</title>
<path fill="none" stroke="midnightblue" d="M786.393,-152.411C808.763,-147.351 836.398,-141.1 860.047,-135.751"/>
<polygon fill="midnightblue" stroke="midnightblue" points="860.93,-139.14 869.911,-133.52 859.386,-132.313 860.93,-139.14"/>
</g>
<!-- Node17&#45;&gt;Node16 -->
<g id="edge22" class="edge"><title>Node17&#45;&gt;Node16</title>
<path fill="none" stroke="midnightblue" d="M795.318,-124C813.393,-124 833.86,-124 852.549,-124"/>
<polygon fill="midnightblue" stroke="midnightblue" points="852.723,-127.5 862.723,-124 852.722,-120.5 852.723,-127.5"/>
</g>
<!-- Node18 -->
<g id="node18" class="node"><title>Node18</title>
<g id="a_node18"><a xlink:href="../../d7/dbf/class_sprite.html#ab8f846b7ba77ae72ad09f48da22ceea7" target="_top" xlink:title="Sprite.moveSprite">
<polygon fill="white" stroke="black" points="861,-76.5 861,-95.5 965,-95.5 965,-76.5 861,-76.5"/>
<text text-anchor="middle" x="913" y="-83.5" font-family="Helvetica,sans-Serif" font-size="10.00">Sprite.moveSprite</text>
</a>
</g>
</g>
<!-- Node17&#45;&gt;Node18 -->
<g id="edge23" class="edge"><title>Node17&#45;&gt;Node18</title>
<path fill="none" stroke="midnightblue" d="M786.393,-114.411C808.763,-109.351 836.398,-103.1 860.047,-97.7512"/>
<polygon fill="midnightblue" stroke="midnightblue" points="860.93,-101.14 869.911,-95.5201 859.386,-94.3125 860.93,-101.14"/>
</g>
<!-- Node19&#45;&gt;Node16 -->
<g id="edge27" class="edge"><title>Node19&#45;&gt;Node16</title>
<path fill="none" stroke="midnightblue" d="M786.393,-95.589C808.763,-100.649 836.398,-106.9 860.047,-112.249"/>
<polygon fill="midnightblue" stroke="midnightblue" points="859.386,-115.687 869.911,-114.48 860.93,-108.86 859.386,-115.687"/>
</g>
<!-- Node19&#45;&gt;Node18 -->
<g id="edge26" class="edge"><title>Node19&#45;&gt;Node18</title>
<path fill="none" stroke="midnightblue" d="M796.695,-86C813.829,-86 832.991,-86 850.698,-86"/>
<polygon fill="midnightblue" stroke="midnightblue" points="850.929,-89.5001 860.929,-86 850.929,-82.5001 850.929,-89.5001"/>
</g>
<!-- Node20 -->
<g id="node20" class="node"><title>Node20</title>
<g id="a_node20"><a xlink:href="../../d7/dbf/class_sprite.html#a4dd4a643703de09c632a0e7d70a570e7" target="_top" xlink:title="Sprite.getVelocity">
<polygon fill="white" stroke="black" points="862.5,-38.5 862.5,-57.5 963.5,-57.5 963.5,-38.5 862.5,-38.5"/>
<text text-anchor="middle" x="913" y="-45.5" font-family="Helvetica,sans-Serif" font-size="10.00">Sprite.getVelocity</text>
</a>
</g>
</g>
<!-- Node19&#45;&gt;Node20 -->
<g id="edge25" class="edge"><title>Node19&#45;&gt;Node20</title>
<path fill="none" stroke="midnightblue" d="M786.393,-76.411C808.763,-71.3513 836.398,-65.1004 860.047,-59.7512"/>
<polygon fill="midnightblue" stroke="midnightblue" points="860.93,-63.1401 869.911,-57.5201 859.386,-56.3125 860.93,-63.1401"/>
</g>
<!-- Node23 -->
<g id="node23" class="node"><title>Node23</title>
<g id="a_node23"><a xlink:href="../../d7/da7/class_character.html#aa2149c166e797ae0ded67d9f768ac7f3" target="_top" xlink:title="Character.updateAll">
<polygon fill="white" stroke="black" points="857.5,-0.5 857.5,-19.5 968.5,-19.5 968.5,-0.5 857.5,-0.5"/>
<text text-anchor="middle" x="913" y="-7.5" font-family="Helvetica,sans-Serif" font-size="10.00">Character.updateAll</text>
</a>
</g>
</g>
<!-- Node22&#45;&gt;Node23 -->
<g id="edge30" class="edge"><title>Node22&#45;&gt;Node23</title>
<path fill="none" stroke="midnightblue" d="M805.127,-10C818.734,-10 833.207,-10 846.965,-10"/>
<polygon fill="midnightblue" stroke="midnightblue" points="847.319,-13.5001 857.319,-10 847.319,-6.5001 847.319,-13.5001"/>
</g>
<!-- Node24 -->
<g id="node24" class="node"><title>Node24</title>
<g id="a_node24"><a xlink:href="../../d7/da7/class_character.html#ade25acccb27ac9aeb2752b2df29d075f" target="_top" xlink:title="Character.collisionUpdate">
<polygon fill="white" stroke="black" points="1010.5,-0.5 1010.5,-19.5 1149.5,-19.5 1149.5,-0.5 1010.5,-0.5"/>
<text text-anchor="middle" x="1080" y="-7.5" font-family="Helvetica,sans-Serif" font-size="10.00">Character.collisionUpdate</text>
</a>
</g>
</g>
<!-- Node23&#45;&gt;Node24 -->
<g id="edge31" class="edge"><title>Node23&#45;&gt;Node24</title>
<path fill="none" stroke="midnightblue" d="M968.943,-10C979.031,-10 989.74,-10 1000.36,-10"/>
<polygon fill="midnightblue" stroke="midnightblue" points="1000.5,-13.5001 1010.5,-10 1000.5,-6.5001 1000.5,-13.5001"/>
</g>
<!-- Node25 -->
<g id="node25" class="node"><title>Node25</title>
<g id="a_node25"><a xlink:href="../../d7/da7/class_character.html#ad223fcb54929116326bf8816d43f5173" target="_top" xlink:title="Character.checkCollide">
<polygon fill="white" stroke="black" points="1186.5,-0.5 1186.5,-19.5 1311.5,-19.5 1311.5,-0.5 1186.5,-0.5"/>
<text text-anchor="middle" x="1249" y="-7.5" font-family="Helvetica,sans-Serif" font-size="10.00">Character.checkCollide</text>
</a>
</g>
</g>
<!-- Node24&#45;&gt;Node25 -->
<g id="edge32" class="edge"><title>Node24&#45;&gt;Node25</title>
<path fill="none" stroke="midnightblue" d="M1149.89,-10C1158.61,-10 1167.54,-10 1176.31,-10"/>
<polygon fill="midnightblue" stroke="midnightblue" points="1176.48,-13.5001 1186.48,-10 1176.48,-6.5001 1176.48,-13.5001"/>
</g>
</g>
</svg>
        <g id="navigator" transform="translate(0 0)" fill="#404254">
                <rect fill="#f2f5e9" fill-opacity="0.5" stroke="#606060" stroke-width=".5" x="0" y="0" width="60" height="60"/>
                <use id="zoomplus" xlink:href="#zoomPlus" x="17" y="9" onmousedown="handleZoom(evt,'in')"/>
                <use id="zoomminus" xlink:href="#zoomMin" x="42" y="9" onmousedown="handleZoom(evt,'out')"/>
                <use id="reset" xlink:href="#resetDef" x="30" y="36" onmousedown="handleReset()"/>
                <g id="arrowUp" xlink:href="#dirArrow" transform="translate(30 24)" onmousedown="handlePan(0,-1)">
                  <use xlink:href="#rim" fill="#404040">
                        <set attributeName="fill" to="#808080" begin="arrowUp.mouseover" end="arrowUp.mouseout"/>
                  </use>
                  <path fill="none" stroke="white" stroke-width="1.5" d="M0,-3.0v7 M-2.5,-0.5L0,-3.0L2.5,-0.5"/>
                </g>
                <g id="arrowRight" xlink:href="#dirArrow" transform="rotate(90) translate(36 -43)" onmousedown="handlePan(1,0)">
                  <use xlink:href="#rim" fill="#404040">
                        <set attributeName="fill" to="#808080" begin="arrowRight.mouseover" end="arrowRight.mouseout"/>
                  </use>
                  <path fill="none" stroke="white" stroke-width="1.5" d="M0,-3.0v7 M-2.5,-0.5L0,-3.0L2.5,-0.5"/>
                </g>
                <g id="arrowDown" xlink:href="#dirArrow" transform="rotate(180) translate(-30 -48)" onmousedown="handlePan(0,1)">
                  <use xlink:href="#rim" fill="#404040">
                        <set attributeName="fill" to="#808080" begin="arrowDown.mouseover" end="arrowDown.mouseout"/>
                  </use>
                  <path fill="none" stroke="white" stroke-width="1.5" d="M0,-3.0v7 M-2.5,-0.5L0,-3.0L2.5,-0.5"/>
                </g>
                <g id="arrowLeft" xlink:href="#dirArrow" transform="rotate(270) translate(-36 17)" onmousedown="handlePan(-1,0)">
                  <use xlink:href="#rim" fill="#404040">
                        <set attributeName="fill" to="#808080" begin="arrowLeft.mouseover" end="arrowLeft.mouseout"/>
                  </use>
                  <path fill="none" stroke="white" stroke-width="1.5" d="M0,-3.0v7 M-2.5,-0.5L0,-3.0L2.5,-0.5"/>
                </g>
        </g>
        <svg viewBox="0 0 15 15" width="100%" height="30px" preserveAspectRatio="xMaxYMin meet">
         <g id="arrow_out" transform="scale(0.3 0.3)">
          <a xlink:href="class_menu_a53c8b072d5ec777994fed9ee76c98561_cgraph_org.svg" target="_base">
           <rect id="button" ry="5" rx="5" y="6" x="6" height="38" width="38"
                fill="#f2f5e9" fill-opacity="0.5" stroke="#606060" stroke-width="1.0"/>
           <path id="arrow"
             d="M 11.500037,31.436501 C 11.940474,20.09759 22.043105,11.32322 32.158766,21.979434 L 37.068811,17.246167 C 37.068811,17.246167 37.088388,32 37.088388,32 L 22.160133,31.978069 C 22.160133,31.978069 26.997745,27.140456 26.997745,27.140456 C 18.528582,18.264221 13.291696,25.230495 11.500037,31.436501 z"
             style="fill:#404040;"/>
          </a>
         </g>
        </svg>
</svg>
