<?xml version="1.0" encoding="UTF-8" standalone="no"?>
<!DOCTYPE svg PUBLIC "-//W3C//DTD SVG 1.1//EN"
 "http://www.w3.org/Graphics/SVG/1.1/DTD/svg11.dtd">
<!-- Generated by graphviz version 2.36.0 (20140111.2315)
 -->
<!-- Title: Menu.handle Pages: 1 -->
<svg width="1320pt" height="370pt"
 viewBox="0.00 0.00 1320.00 370.00" xmlns="http://www.w3.org/2000/svg" xmlns:xlink="http://www.w3.org/1999/xlink">
<g id="graph0" class="graph" transform="scale(1 1) rotate(0) translate(4 366)">
<title>Menu.handle</title>
<polygon fill="white" stroke="none" points="-4,4 -4,-366 1316,-366 1316,4 -4,4"/>
<!-- Node1 -->
<g id="node1" class="node"><title>Node1</title>
<polygon fill="#bfbfbf" stroke="black" points="0,-323.5 0,-342.5 78,-342.5 78,-323.5 0,-323.5"/>
<text text-anchor="middle" x="39" y="-330.5" font-family="Helvetica,sans-Serif" font-size="10.00">Menu.handle</text>
</g>
<!-- Node2 -->
<g id="node2" class="node"><title>Node2</title>
<g id="a_node2"><a xlink:href="../../d2/db8/class_menu.html#ab6296880308728ced459f772430d025b" target="_top" xlink:title="Menu.createGame">
<polygon fill="white" stroke="black" points="114,-323.5 114,-342.5 220,-342.5 220,-323.5 114,-323.5"/>
<text text-anchor="middle" x="167" y="-330.5" font-family="Helvetica,sans-Serif" font-size="10.00">Menu.createGame</text>
</a>
</g>
</g>
<!-- Node1&#45;&gt;Node2 -->
<g id="edge1" class="edge"><title>Node1&#45;&gt;Node2</title>
<path fill="none" stroke="midnightblue" d="M78.1461,-333C86.1634,-333 94.8202,-333 103.465,-333"/>
<polygon fill="midnightblue" stroke="midnightblue" points="103.57,-336.5 113.57,-333 103.57,-329.5 103.57,-336.5"/>
</g>
<!-- Node3 -->
<g id="node3" class="node"><title>Node3</title>
<g id="a_node3"><a xlink:href="../../d6/d21/class_screen.html#a5d40342bbe33c27c9e0e24bd8709d1f6" target="_top" xlink:title="Screen.showAndAnim">
<polygon fill="white" stroke="black" points="852.5,-342.5 852.5,-361.5 973.5,-361.5 973.5,-342.5 852.5,-342.5"/>
<text text-anchor="middle" x="913" y="-349.5" font-family="Helvetica,sans-Serif" font-size="10.00">Screen.showAndAnim</text>
</a>
</g>
</g>
<!-- Node2&#45;&gt;Node3 -->
<g id="edge2" class="edge"><title>Node2&#45;&gt;Node3</title>
<path fill="none" stroke="midnightblue" d="M220.452,-339.221C271.753,-344.763 352.132,-352 422,-352 422,-352 422,-352 576,-352 667.966,-352 774.092,-352 842.057,-352"/>
<polygon fill="midnightblue" stroke="midnightblue" points="842.216,-355.5 852.216,-352 842.216,-348.5 842.216,-355.5"/>
</g>
<!-- Node7 -->
<g id="node7" class="node"><title>Node7</title>
<g id="a_node7"><a xlink:href="../../d2/d3e/class_level1.html#a0871325d07c0614d5f1f2df7df13b703" target="_top" xlink:title="Level1.start">
<polygon fill="white" stroke="black" points="256.5,-304.5 256.5,-323.5 329.5,-323.5 329.5,-304.5 256.5,-304.5"/>
<text text-anchor="middle" x="293" y="-311.5" font-family="Helvetica,sans-Serif" font-size="10.00">Level1.start</text>
</a>
</g>
</g>
<!-- Node2&#45;&gt;Node7 -->
<g id="edge6" class="edge"><title>Node2&#45;&gt;Node7</title>
<path fill="none" stroke="midnightblue" d="M220.228,-324.997C228.886,-323.671 237.805,-322.304 246.286,-321.004"/>
<polygon fill="midnightblue" stroke="midnightblue" points="247.013,-324.434 256.368,-319.46 245.953,-317.515 247.013,-324.434"/>
</g>
<!-- Node4 -->
<g id="node4" class="node"><title>Node4</title>
<g id="a_node4"><a xlink:href="../../d6/d21/class_screen.html#a5d9534b81b96cfc0a00009dea6be6c09" target="_top" xlink:title="Screen.showScreen">
<polygon fill="white" stroke="black" points="1024.5,-247.5 1024.5,-266.5 1135.5,-266.5 1135.5,-247.5 1024.5,-247.5"/>
<text text-anchor="middle" x="1080" y="-254.5" font-family="Helvetica,sans-Serif" font-size="10.00">Screen.showScreen</text>
</a>
</g>
</g>
<!-- Node3&#45;&gt;Node4 -->
<g id="edge3" class="edge"><title>Node3&#45;&gt;Node4</title>
<path fill="none" stroke="midnightblue" d="M950.592,-342.465C958.501,-339.844 966.681,-336.686 974,-333 1006.71,-316.525 1040.27,-290.281 1060.37,-273.347"/>
<polygon fill="midnightblue" stroke="midnightblue" points="1062.8,-275.876 1068.13,-266.716 1058.25,-270.557 1062.8,-275.876"/>
</g>
<!-- Node6 -->
<g id="node6" class="node"><title>Node6</title>
<g id="a_node6"><a xlink:href="../../d6/d21/class_screen.html#a601576a0d49770789b2eb08328f09c53" target="_top" xlink:title="Screen.startAnim">
<polygon fill="white" stroke="black" points="1029.5,-342.5 1029.5,-361.5 1130.5,-361.5 1130.5,-342.5 1029.5,-342.5"/>
<text text-anchor="middle" x="1080" y="-349.5" font-family="Helvetica,sans-Serif" font-size="10.00">Screen.startAnim</text>
</a>
</g>
</g>
<!-- Node3&#45;&gt;Node6 -->
<g id="edge5" class="edge"><title>Node3&#45;&gt;Node6</title>
<path fill="none" stroke="midnightblue" d="M973.569,-352C988.419,-352 1004.35,-352 1019.21,-352"/>
<polygon fill="midnightblue" stroke="midnightblue" points="1019.3,-355.5 1029.3,-352 1019.3,-348.5 1019.3,-355.5"/>
</g>
<!-- Node5 -->
<g id="node5" class="node"><title>Node5</title>
<g id="a_node5"><a xlink:href="../../d6/d21/class_screen.html#ac7ca0a382b3177bbea4e2a4e7c0f442e" target="_top" xlink:title="Screen.init">
<polygon fill="white" stroke="black" points="1215,-247.5 1215,-266.5 1283,-266.5 1283,-247.5 1215,-247.5"/>
<text text-anchor="middle" x="1249" y="-254.5" font-family="Helvetica,sans-Serif" font-size="10.00">Screen.init</text>
</a>
</g>
</g>
<!-- Node4&#45;&gt;Node5 -->
<g id="edge4" class="edge"><title>Node4&#45;&gt;Node5</title>
<path fill="none" stroke="midnightblue" d="M1135.68,-257C1157.98,-257 1183.4,-257 1204.41,-257"/>
<polygon fill="midnightblue" stroke="midnightblue" points="1204.65,-260.5 1214.65,-257 1204.65,-253.5 1204.65,-260.5"/>
</g>
<!-- Node8 -->
<g id="node8" class="node"><title>Node8</title>
<g id="a_node8"><a xlink:href="../../d2/d3e/class_level1.html#a324da1e22a7a87fa4bb1859b5774bdba" target="_top" xlink:title="Level1.updateFrame">
<polygon fill="white" stroke="black" points="366,-228.5 366,-247.5 480,-247.5 480,-228.5 366,-228.5"/>
<text text-anchor="middle" x="423" y="-235.5" font-family="Helvetica,sans-Serif" font-size="10.00">Level1.updateFrame</text>
</a>
</g>
</g>
<!-- Node7&#45;&gt;Node8 -->
<g id="edge7" class="edge"><title>Node7&#45;&gt;Node8</title>
<path fill="none" stroke="midnightblue" d="M310.211,-304.375C332.14,-291.355 371.458,-268.009 397.135,-252.764"/>
<polygon fill="midnightblue" stroke="midnightblue" points="399.109,-255.662 405.92,-247.547 395.535,-249.643 399.109,-255.662"/>
</g>
<!-- Node9 -->
<g id="node9" class="node"><title>Node9</title>
<g id="a_node9"><a xlink:href="../../d2/d3e/class_level1.html#a78a7fb5633734b1815af8db43db23a41" target="_top" xlink:title="Level1.updateSprites">
<polygon fill="white" stroke="black" points="516,-171.5 516,-190.5 634,-190.5 634,-171.5 516,-171.5"/>
<text text-anchor="middle" x="575" y="-178.5" font-family="Helvetica,sans-Serif" font-size="10.00">Level1.updateSprites</text>
</a>
</g>
</g>
<!-- Node8&#45;&gt;Node9 -->
<g id="edge8" class="edge"><title>Node8&#45;&gt;Node9</title>
<path fill="none" stroke="midnightblue" d="M449.107,-228.459C473.767,-219.088 511.599,-204.712 539.164,-194.238"/>
<polygon fill="midnightblue" stroke="midnightblue" points="540.707,-197.396 548.811,-190.572 538.22,-190.852 540.707,-197.396"/>
</g>
<!-- Node28 -->
<g id="node28" class="node"><title>Node28</title>
<g id="a_node28"><a xlink:href="../../d2/d3e/class_level1.html#a5f552e875916d0cf7a74896401584b2a" target="_top" xlink:title="Level1.updateTimer">
<polygon fill="white" stroke="black" points="519.5,-228.5 519.5,-247.5 630.5,-247.5 630.5,-228.5 519.5,-228.5"/>
<text text-anchor="middle" x="575" y="-235.5" font-family="Helvetica,sans-Serif" font-size="10.00">Level1.updateTimer</text>
</a>
</g>
</g>
<!-- Node8&#45;&gt;Node28 -->
<g id="edge35" class="edge"><title>Node8&#45;&gt;Node28</title>
<path fill="none" stroke="midnightblue" d="M480.281,-238C489.683,-238 499.504,-238 509.1,-238"/>
<polygon fill="midnightblue" stroke="midnightblue" points="509.394,-241.5 519.394,-238 509.394,-234.5 509.394,-241.5"/>
</g>
<!-- Node10 -->
<g id="node10" class="node"><title>Node10</title>
<g id="a_node10"><a xlink:href="../../d2/d3e/class_level1.html#a5e6976ef755d0e678034870e374ee4ca" target="_top" xlink:title="Level1.goGameOver">
<polygon fill="white" stroke="black" points="686,-228.5 686,-247.5 800,-247.5 800,-228.5 686,-228.5"/>
<text text-anchor="middle" x="743" y="-235.5" font-family="Helvetica,sans-Serif" font-size="10.00">Level1.goGameOver</text>
</a>
</g>
</g>
<!-- Node9&#45;&gt;Node10 -->
<g id="edge9" class="edge"><title>Node9&#45;&gt;Node10</title>
<path fill="none" stroke="midnightblue" d="M597.366,-190.538C616.233,-198.743 644.612,-210.556 670,-219 677.165,-221.383 684.808,-223.668 692.339,-225.775"/>
<polygon fill="midnightblue" stroke="midnightblue" points="691.555,-229.189 702.123,-228.436 693.392,-222.434 691.555,-229.189"/>
</g>
<!-- Node13 -->
<g id="node13" class="node"><title>Node13</title>
<g id="a_node13"><a xlink:href="../../d2/d3e/class_level1.html#ac56e75129bb2946c38cfcf43608f3f05" target="_top" xlink:title="Level1.goNextLevel">
<polygon fill="white" stroke="black" points="688,-304.5 688,-323.5 798,-323.5 798,-304.5 688,-304.5"/>
<text text-anchor="middle" x="743" y="-311.5" font-family="Helvetica,sans-Serif" font-size="10.00">Level1.goNextLevel</text>
</a>
</g>
</g>
<!-- Node9&#45;&gt;Node13 -->
<g id="edge13" class="edge"><title>Node9&#45;&gt;Node13</title>
<path fill="none" stroke="midnightblue" d="M596.019,-190.526C608.24,-197.142 623.484,-206.927 634,-219 658.549,-247.183 641.251,-271.116 670,-295 672.718,-297.258 675.675,-299.25 678.791,-301.007"/>
<polygon fill="midnightblue" stroke="midnightblue" points="677.39,-304.217 687.922,-305.365 680.405,-297.899 677.39,-304.217"/>
</g>
<!-- Node15 -->
<g id="node15" class="node"><title>Node15</title>
<g id="a_node15"><a xlink:href="../../dd/d7a/class_enemy.html#a9b6840dcc6b8165268e957fc43d95b06" target="_top" xlink:title="Enemy.makePoop">
<polygon fill="white" stroke="black" points="692,-152.5 692,-171.5 794,-171.5 794,-152.5 692,-152.5"/>
<text text-anchor="middle" x="743" y="-159.5" font-family="Helvetica,sans-Serif" font-size="10.00">Enemy.makePoop</text>
</a>
</g>
</g>
<!-- Node9&#45;&gt;Node15 -->
<g id="edge19" class="edge"><title>Node9&#45;&gt;Node15</title>
<path fill="none" stroke="midnightblue" d="M634.059,-174.355C649.551,-172.581 666.322,-170.662 681.92,-168.877"/>
<polygon fill="midnightblue" stroke="midnightblue" points="682.439,-172.34 691.976,-167.726 681.643,-165.386 682.439,-172.34"/>
</g>
<!-- Node17 -->
<g id="node17" class="node"><title>Node17</title>
<g id="a_node17"><a xlink:href="../../d8/d53/class_player.html#a1b7a0a6c68deb202a672d42e205d5a21" target="_top" xlink:title="Player.moveSprite">
<polygon fill="white" stroke="black" points="691,-114.5 691,-133.5 795,-133.5 795,-114.5 691,-114.5"/>
<text text-anchor="middle" x="743" y="-121.5" font-family="Helvetica,sans-Serif" font-size="10.00">Player.moveSprite</text>
</a>
</g>
</g>
<!-- Node9&#45;&gt;Node17 -->
<g id="edge21" class="edge"><title>Node9&#45;&gt;Node17</title>
<path fill="none" stroke="midnightblue" d="M597.366,-171.462C616.233,-163.257 644.612,-151.444 670,-143 677.165,-140.617 684.808,-138.332 692.339,-136.225"/>
<polygon fill="midnightblue" stroke="midnightblue" points="693.392,-139.566 702.123,-133.564 691.555,-132.811 693.392,-139.566"/>
</g>
<!-- Node19 -->
<g id="node19" class="node"><title>Node19</title>
<g id="a_node19"><a xlink:href="../../dd/d7a/class_enemy.html#ab653212b50d9e64ba497ae18696d3678" target="_top" xlink:title="Enemy.moveSprite">
<polygon fill="white" stroke="black" points="689.5,-76.5 689.5,-95.5 796.5,-95.5 796.5,-76.5 689.5,-76.5"/>
<text text-anchor="middle" x="743" y="-83.5" font-family="Helvetica,sans-Serif" font-size="10.00">Enemy.moveSprite</text>
</a>
</g>
</g>
<!-- Node9&#45;&gt;Node19 -->
<g id="edge24" class="edge"><title>Node9&#45;&gt;Node19</title>
<path fill="none" stroke="midnightblue" d="M585.176,-171.278C600.972,-155.114 634.993,-122.737 670,-105 674.568,-102.686 679.446,-100.633 684.429,-98.8155"/>
<polygon fill="midnightblue" stroke="midnightblue" points="685.701,-102.081 694.086,-95.605 683.492,-95.4384 685.701,-102.081"/>
</g>
<!-- Node21 -->
<g id="node21" class="node"><title>Node21</title>
<g id="a_node21"><a xlink:href="../../d2/d3e/class_level1.html#a5995ba731849ced54b8f97fcc93ce4d9" target="_top" xlink:title="Level1.removeFromScreen">
<polygon fill="white" stroke="black" points="670.5,-38.5 670.5,-57.5 815.5,-57.5 815.5,-38.5 670.5,-38.5"/>
<text text-anchor="middle" x="743" y="-45.5" font-family="Helvetica,sans-Serif" font-size="10.00">Level1.removeFromScreen</text>
</a>
</g>
</g>
<!-- Node9&#45;&gt;Node21 -->
<g id="edge28" class="edge"><title>Node9&#45;&gt;Node21</title>
<path fill="none" stroke="midnightblue" d="M581.14,-171.326C593.395,-149.226 626.581,-94.8079 670,-67 673.334,-64.8647 676.901,-62.9684 680.597,-61.2845"/>
<polygon fill="midnightblue" stroke="midnightblue" points="682.01,-64.4887 689.992,-57.5209 679.407,-57.9907 682.01,-64.4887"/>
</g>
<!-- Node22 -->
<g id="node22" class="node"><title>Node22</title>
<g id="a_node22"><a xlink:href="../../d2/d3e/class_level1.html#aa75f107bf925594da75a1d82cf64044d" target="_top" xlink:title="Level1.returnCollisions">
<polygon fill="white" stroke="black" points="681,-0.5 681,-19.5 805,-19.5 805,-0.5 681,-0.5"/>
<text text-anchor="middle" x="743" y="-7.5" font-family="Helvetica,sans-Serif" font-size="10.00">Level1.returnCollisions</text>
</a>
</g>
</g>
<!-- Node9&#45;&gt;Node22 -->
<g id="edge29" class="edge"><title>Node9&#45;&gt;Node22</title>
<path fill="none" stroke="midnightblue" d="M579.072,-171.414C588.213,-144.483 617.889,-67.595 670,-29 672.516,-27.1365 675.2,-25.4556 677.999,-23.9394"/>
<polygon fill="midnightblue" stroke="midnightblue" points="679.665,-27.0247 687.257,-19.6354 676.714,-20.677 679.665,-27.0247"/>
</g>
<!-- Node26 -->
<g id="node26" class="node"><title>Node26</title>
<g id="a_node26"><a xlink:href="../../d7/da7/class_character.html#aad64a9dc8ceea8b806cf2e1908cd0df8" target="_top" xlink:title="Character.setFull">
<polygon fill="white" stroke="black" points="695,-266.5 695,-285.5 791,-285.5 791,-266.5 695,-266.5"/>
<text text-anchor="middle" x="743" y="-273.5" font-family="Helvetica,sans-Serif" font-size="10.00">Character.setFull</text>
</a>
</g>
</g>
<!-- Node9&#45;&gt;Node26 -->
<g id="edge33" class="edge"><title>Node9&#45;&gt;Node26</title>
<path fill="none" stroke="midnightblue" d="M592.713,-190.525C604.704,-197.692 620.976,-208.114 634,-219 651.85,-233.92 649.989,-245.135 670,-257 674.726,-259.802 679.867,-262.198 685.156,-264.244"/>
<polygon fill="midnightblue" stroke="midnightblue" points="684.181,-267.61 694.776,-267.564 686.464,-260.993 684.181,-267.61"/>
</g>
<!-- Node27 -->
<g id="node27" class="node"><title>Node27</title>
<g id="a_node27"><a xlink:href="../../d7/da7/class_character.html#ac0b4f4ace84c8e5aa60f05515806015d" target="_top" xlink:title="Character.setHP">
<polygon fill="white" stroke="black" points="695.5,-190.5 695.5,-209.5 790.5,-209.5 790.5,-190.5 695.5,-190.5"/>
<text text-anchor="middle" x="743" y="-197.5" font-family="Helvetica,sans-Serif" font-size="10.00">Character.setHP</text>
</a>
</g>
</g>
<!-- Node9&#45;&gt;Node27 -->
<g id="edge34" class="edge"><title>Node9&#45;&gt;Node27</title>
<path fill="none" stroke="midnightblue" d="M634.059,-187.645C650.705,-189.551 668.827,-191.625 685.386,-193.52"/>
<polygon fill="midnightblue" stroke="midnightblue" points="685.133,-197.014 695.467,-194.674 685.929,-190.059 685.133,-197.014"/>
</g>
<!-- Node10&#45;&gt;Node4 -->
<g id="edge12" class="edge"><title>Node10&#45;&gt;Node4</title>
<path fill="none" stroke="midnightblue" d="M784.586,-228.431C830.764,-218.979 908.292,-207.476 974,-219 1000.54,-223.655 1029.21,-234.456 1049.88,-243.358"/>
<polygon fill="midnightblue" stroke="midnightblue" points="1048.49,-246.572 1059.05,-247.412 1051.32,-240.169 1048.49,-246.572"/>
</g>
<!-- Node11 -->
<g id="node11" class="node"><title>Node11</title>
<g id="a_node11"><a xlink:href="../../d2/d3e/class_level1.html#ac4098d447b9841cabec6be3bb719bd26" target="_top" xlink:title="Level1.clearElements">
<polygon fill="white" stroke="black" points="853.5,-266.5 853.5,-285.5 972.5,-285.5 972.5,-266.5 853.5,-266.5"/>
<text text-anchor="middle" x="913" y="-273.5" font-family="Helvetica,sans-Serif" font-size="10.00">Level1.clearElements</text>
</a>
</g>
</g>
<!-- Node10&#45;&gt;Node11 -->
<g id="edge10" class="edge"><title>Node10&#45;&gt;Node11</title>
<path fill="none" stroke="midnightblue" d="M786.393,-247.589C808.763,-252.649 836.398,-258.9 860.047,-264.249"/>
<polygon fill="midnightblue" stroke="midnightblue" points="859.386,-267.687 869.911,-266.48 860.93,-260.86 859.386,-267.687"/>
</g>
<!-- Node12 -->
<g id="node12" class="node"><title>Node12</title>
<g id="a_node12"><a xlink:href="../../d7/da7/class_character.html#a4dc23a76b34bcbb84abba1b116847268" target="_top" xlink:title="Character.getHP">
<polygon fill="white" stroke="black" points="865.5,-228.5 865.5,-247.5 960.5,-247.5 960.5,-228.5 865.5,-228.5"/>
<text text-anchor="middle" x="913" y="-235.5" font-family="Helvetica,sans-Serif" font-size="10.00">Character.getHP</text>
</a>
</g>
</g>
<!-- Node10&#45;&gt;Node12 -->
<g id="edge11" class="edge"><title>Node10&#45;&gt;Node12</title>
<path fill="none" stroke="midnightblue" d="M800.409,-238C818.019,-238 837.45,-238 855.094,-238"/>
<polygon fill="midnightblue" stroke="midnightblue" points="855.249,-241.5 865.249,-238 855.249,-234.5 855.249,-241.5"/>
</g>
<!-- Node13&#45;&gt;Node3 -->
<g id="edge17" class="edge"><title>Node13&#45;&gt;Node3</title>
<path fill="none" stroke="midnightblue" d="M786.393,-323.589C808.763,-328.649 836.398,-334.9 860.047,-340.249"/>
<polygon fill="midnightblue" stroke="midnightblue" points="859.386,-343.687 869.911,-342.48 860.93,-336.86 859.386,-343.687"/>
</g>
<!-- Node13&#45;&gt;Node7 -->
<g id="edge18" class="edge"><title>Node13&#45;&gt;Node7</title>
<path fill="none" stroke="midnightblue" d="M687.736,-314C598.614,-314 422.848,-314 339.678,-314"/>
<polygon fill="midnightblue" stroke="midnightblue" points="339.528,-310.5 329.528,-314 339.528,-317.5 339.528,-310.5"/>
</g>
<!-- Node13&#45;&gt;Node11 -->
<g id="edge14" class="edge"><title>Node13&#45;&gt;Node11</title>
<path fill="none" stroke="midnightblue" d="M786.393,-304.411C808.763,-299.351 836.398,-293.1 860.047,-287.751"/>
<polygon fill="midnightblue" stroke="midnightblue" points="860.93,-291.14 869.911,-285.52 859.386,-284.313 860.93,-291.14"/>
</g>
<!-- Node13&#45;&gt;Node12 -->
<g id="edge15" class="edge"><title>Node13&#45;&gt;Node12</title>
<path fill="none" stroke="midnightblue" d="M794.634,-304.473C802.078,-301.996 809.439,-298.89 816,-295 836.011,-283.135 832.283,-269.349 852,-257 855.342,-254.907 858.935,-253.026 862.641,-251.339"/>
<polygon fill="midnightblue" stroke="midnightblue" points="864.058,-254.541 872.008,-247.537 861.425,-248.055 864.058,-254.541"/>
</g>
<!-- Node14 -->
<g id="node14" class="node"><title>Node14</title>
<g id="a_node14"><a xlink:href="../../dd/d7a/class_enemy.html#a0b00e167bc151db783054dddb2f9b509" target="_top" xlink:title="Enemy.makeAngry">
<polygon fill="white" stroke="black" points="860,-304.5 860,-323.5 966,-323.5 966,-304.5 860,-304.5"/>
<text text-anchor="middle" x="913" y="-311.5" font-family="Helvetica,sans-Serif" font-size="10.00">Enemy.makeAngry</text>
</a>
</g>
</g>
<!-- Node13&#45;&gt;Node14 -->
<g id="edge16" class="edge"><title>Node13&#45;&gt;Node14</title>
<path fill="none" stroke="midnightblue" d="M798.081,-314C814.445,-314 832.551,-314 849.421,-314"/>
<polygon fill="midnightblue" stroke="midnightblue" points="849.74,-317.5 859.74,-314 849.739,-310.5 849.74,-317.5"/>
</g>
<!-- Node16 -->
<g id="node16" class="node"><title>Node16</title>
<g id="a_node16"><a xlink:href="../../d7/dbf/class_sprite.html#accdf1c21264c6ff648ece508cf176bfb" target="_top" xlink:title="Sprite.setVelocity">
<polygon fill="white" stroke="black" points="863,-133.5 863,-152.5 963,-152.5 963,-133.5 863,-133.5"/>
<text text-anchor="middle" x="913" y="-140.5" font-family="Helvetica,sans-Serif" font-size="10.00">Sprite.setVelocity</text>
</a>
</g>
</g>
<!-- Node15&#45;&gt;Node16 -->
<g id="edge20" class="edge"><title>Node15&#45;&gt;Node16</title>
<path fill="none" stroke="midnightblue" d="M794.406,-156.299C812.757,-154.224 833.67,-151.859 852.721,-149.704"/>
<polygon fill="midnightblue" stroke="midnightblue" points="853.243,-153.168 862.786,-148.566 852.456,-146.212 853.243,-153.168"/>
</g>
<!-- Node17&#45;&gt;Node16 -->
<g id="edge22" class="edge"><title>Node17&#45;&gt;Node16</title>
<path fill="none" stroke="midnightblue" d="M795.318,-129.804C813.393,-131.848 833.86,-134.163 852.549,-136.276"/>
<polygon fill="midnightblue" stroke="midnightblue" points="852.393,-139.781 862.723,-137.427 853.179,-132.825 852.393,-139.781"/>
</g>
<!-- Node18 -->
<g id="node18" class="node"><title>Node18</title>
<g id="a_node18"><a xlink:href="../../d7/dbf/class_sprite.html#ab8f846b7ba77ae72ad09f48da22ceea7" target="_top" xlink:title="Sprite.moveSprite">
<polygon fill="white" stroke="black" points="861,-95.5 861,-114.5 965,-114.5 965,-95.5 861,-95.5"/>
<text text-anchor="middle" x="913" y="-102.5" font-family="Helvetica,sans-Serif" font-size="10.00">Sprite.moveSprite</text>
</a>
</g>
</g>
<!-- Node17&#45;&gt;Node18 -->
<g id="edge23" class="edge"><title>Node17&#45;&gt;Node18</title>
<path fill="none" stroke="midnightblue" d="M795.318,-118.196C812.905,-116.207 832.755,-113.962 851.03,-111.895"/>
<polygon fill="midnightblue" stroke="midnightblue" points="851.453,-115.37 860.996,-110.768 850.666,-108.414 851.453,-115.37"/>
</g>
<!-- Node19&#45;&gt;Node16 -->
<g id="edge27" class="edge"><title>Node19&#45;&gt;Node16</title>
<path fill="none" stroke="midnightblue" d="M786.774,-95.5728C796.517,-98.2236 806.726,-101.383 816,-105 832.855,-111.573 835.309,-117.019 852,-124 857.36,-126.242 863.082,-128.372 868.784,-130.34"/>
<polygon fill="midnightblue" stroke="midnightblue" points="867.701,-133.669 878.294,-133.491 869.902,-127.024 867.701,-133.669"/>
</g>
<!-- Node19&#45;&gt;Node18 -->
<g id="edge26" class="edge"><title>Node19&#45;&gt;Node18</title>
<path fill="none" stroke="midnightblue" d="M796.695,-91.9596C813.829,-93.8974 832.991,-96.0644 850.698,-98.067"/>
<polygon fill="midnightblue" stroke="midnightblue" points="850.599,-101.578 860.929,-99.2241 851.386,-94.6224 850.599,-101.578"/>
</g>
<!-- Node20 -->
<g id="node20" class="node"><title>Node20</title>
<g id="a_node20"><a xlink:href="../../d7/dbf/class_sprite.html#a4dd4a643703de09c632a0e7d70a570e7" target="_top" xlink:title="Sprite.getVelocity">
<polygon fill="white" stroke="black" points="862.5,-57.5 862.5,-76.5 963.5,-76.5 963.5,-57.5 862.5,-57.5"/>
<text text-anchor="middle" x="913" y="-64.5" font-family="Helvetica,sans-Serif" font-size="10.00">Sprite.getVelocity</text>
</a>
</g>
</g>
<!-- Node19&#45;&gt;Node20 -->
<g id="edge25" class="edge"><title>Node19&#45;&gt;Node20</title>
<path fill="none" stroke="midnightblue" d="M796.695,-80.0404C814.313,-78.0479 834.075,-75.8129 852.195,-73.7636"/>
<polygon fill="midnightblue" stroke="midnightblue" points="852.813,-77.2162 862.356,-72.6145 852.026,-70.2605 852.813,-77.2162"/>
</g>
<!-- Node23 -->
<g id="node23" class="node"><title>Node23</title>
<g id="a_node23"><a xlink:href="../../d7/da7/class_character.html#aa2149c166e797ae0ded67d9f768ac7f3" target="_top" xlink:title="Character.updateAll">
<polygon fill="white" stroke="black" points="857.5,-0.5 857.5,-19.5 968.5,-19.5 968.5,-0.5 857.5,-0.5"/>
<text text-anchor="middle" x="913" y="-7.5" font-family="Helvetica,sans-Serif" font-size="10.00">Character.updateAll</text>
</a>
</g>
</g>
<!-- Node22&#45;&gt;Node23 -->
<g id="edge30" class="edge"><title>Node22&#45;&gt;Node23</title>
<path fill="none" stroke="midnightblue" d="M805.127,-10C818.734,-10 833.207,-10 846.965,-10"/>
<polygon fill="midnightblue" stroke="midnightblue" points="847.319,-13.5001 857.319,-10 847.319,-6.5001 847.319,-13.5001"/>
</g>
<!-- Node24 -->
<g id="node24" class="node"><title>Node24</title>
<g id="a_node24"><a xlink:href="../../d7/da7/class_character.html#ade25acccb27ac9aeb2752b2df29d075f" target="_top" xlink:title="Character.collisionUpdate">
<polygon fill="white" stroke="black" points="1010.5,-0.5 1010.5,-19.5 1149.5,-19.5 1149.5,-0.5 1010.5,-0.5"/>
<text text-anchor="middle" x="1080" y="-7.5" font-family="Helvetica,sans-Serif" font-size="10.00">Character.collisionUpdate</text>
</a>
</g>
</g>
<!-- Node23&#45;&gt;Node24 -->
<g id="edge31" class="edge"><title>Node23&#45;&gt;Node24</title>
<path fill="none" stroke="midnightblue" d="M968.943,-10C979.031,-10 989.74,-10 1000.36,-10"/>
<polygon fill="midnightblue" stroke="midnightblue" points="1000.5,-13.5001 1010.5,-10 1000.5,-6.5001 1000.5,-13.5001"/>
</g>
<!-- Node25 -->
<g id="node25" class="node"><title>Node25</title>
<g id="a_node25"><a xlink:href="../../d7/da7/class_character.html#ad223fcb54929116326bf8816d43f5173" target="_top" xlink:title="Character.checkCollide">
<polygon fill="white" stroke="black" points="1186.5,-0.5 1186.5,-19.5 1311.5,-19.5 1311.5,-0.5 1186.5,-0.5"/>
<text text-anchor="middle" x="1249" y="-7.5" font-family="Helvetica,sans-Serif" font-size="10.00">Character.checkCollide</text>
</a>
</g>
</g>
<!-- Node24&#45;&gt;Node25 -->
<g id="edge32" class="edge"><title>Node24&#45;&gt;Node25</title>
<path fill="none" stroke="midnightblue" d="M1149.89,-10C1158.61,-10 1167.54,-10 1176.31,-10"/>
<polygon fill="midnightblue" stroke="midnightblue" points="1176.48,-13.5001 1186.48,-10 1176.48,-6.5001 1176.48,-13.5001"/>
</g>
</g>
</svg>
