<?xml version="1.0" encoding="UTF-8" standalone="no"?>
<!DOCTYPE svg PUBLIC "-//W3C//DTD SVG 1.1//EN"
 "http://www.w3.org/Graphics/SVG/1.1/DTD/svg11.dtd">
<!-- Generated by graphviz version 2.36.0 (20140111.2315)
 -->
<!-- Title: Menu.handle Pages: 1 -->
<svg width="488pt" height="104pt"
 viewBox="0.00 0.00 488.00 104.00" xmlns="http://www.w3.org/2000/svg" xmlns:xlink="http://www.w3.org/1999/xlink">
<g id="graph0" class="graph" transform="scale(1 1) rotate(0) translate(4 100)">
<title>Menu.handle</title>
<polygon fill="white" stroke="none" points="-4,4 -4,-100 484,-100 484,4 -4,4"/>
<!-- Node1 -->
<g id="node1" class="node"><title>Node1</title>
<polygon fill="#bfbfbf" stroke="black" points="0,-38.5 0,-57.5 78,-57.5 78,-38.5 0,-38.5"/>
<text text-anchor="middle" x="39" y="-45.5" font-family="Helvetica,sans-Serif" font-size="10.00">Menu.handle</text>
</g>
<!-- Node2 -->
<g id="node2" class="node"><title>Node2</title>
<g id="a_node2"><a xlink:href="../../d2/db8/class_menu.html#aff7a7627619921545f94547ab6135007" target="_top" xlink:title="Menu.addButton">
<polygon fill="white" stroke="black" points="114,-38.5 114,-57.5 210,-57.5 210,-38.5 114,-38.5"/>
<text text-anchor="middle" x="162" y="-45.5" font-family="Helvetica,sans-Serif" font-size="10.00">Menu.addButton</text>
</a>
</g>
</g>
<!-- Node1&#45;&gt;Node2 -->
<g id="edge1" class="edge"><title>Node1&#45;&gt;Node2</title>
<path fill="none" stroke="midnightblue" d="M88.5385,-48C96.8029,-48 105.377,-48 113.612,-48"/>
<polygon fill="midnightblue" stroke="midnightblue" points="88.2852,-44.5001 78.2852,-48 88.2851,-51.5001 88.2852,-44.5001"/>
</g>
<!-- Node3 -->
<g id="node3" class="node"><title>Node3</title>
<g id="a_node3"><a xlink:href="../../dd/d7f/class_game_win.html#a0ebbfe299d7456f57ae3dbf3817b7f8d" target="_top" xlink:title="GameWin.addAllButtons">
<polygon fill="white" stroke="black" points="249,-76.5 249,-95.5 381,-95.5 381,-76.5 249,-76.5"/>
<text text-anchor="middle" x="315" y="-83.5" font-family="Helvetica,sans-Serif" font-size="10.00">GameWin.addAllButtons</text>
</a>
</g>
</g>
<!-- Node2&#45;&gt;Node3 -->
<g id="edge2" class="edge"><title>Node2&#45;&gt;Node3</title>
<path fill="none" stroke="midnightblue" d="M210.843,-60.04C231.939,-65.3488 256.377,-71.4988 276.17,-76.4799"/>
<polygon fill="midnightblue" stroke="midnightblue" points="211.656,-56.6354 201.104,-57.589 209.947,-63.4237 211.656,-56.6354"/>
</g>
<!-- Node4 -->
<g id="node4" class="node"><title>Node4</title>
<g id="a_node4"><a xlink:href="../../d5/db1/class_game_over.html#abb505ac8c26999beff755f4c299370da" target="_top" xlink:title="GameOver.addAllButtons">
<polygon fill="white" stroke="black" points="246.5,-38.5 246.5,-57.5 383.5,-57.5 383.5,-38.5 246.5,-38.5"/>
<text text-anchor="middle" x="315" y="-45.5" font-family="Helvetica,sans-Serif" font-size="10.00">GameOver.addAllButtons</text>
</a>
</g>
</g>
<!-- Node2&#45;&gt;Node4 -->
<g id="edge3" class="edge"><title>Node2&#45;&gt;Node4</title>
<path fill="none" stroke="midnightblue" d="M220.484,-48C228.936,-48 237.709,-48 246.343,-48"/>
<polygon fill="midnightblue" stroke="midnightblue" points="220.363,-44.5001 210.363,-48 220.363,-51.5001 220.363,-44.5001"/>
</g>
<!-- Node5 -->
<g id="node5" class="node"><title>Node5</title>
<g id="a_node5"><a xlink:href="../../d2/db8/class_menu.html#a461e62e606af2391013ce3aaf92a8cc7" target="_top" xlink:title="Menu.addAllButtons">
<polygon fill="white" stroke="black" points="258.5,-0.5 258.5,-19.5 371.5,-19.5 371.5,-0.5 258.5,-0.5"/>
<text text-anchor="middle" x="315" y="-7.5" font-family="Helvetica,sans-Serif" font-size="10.00">Menu.addAllButtons</text>
</a>
</g>
</g>
<!-- Node2&#45;&gt;Node5 -->
<g id="edge4" class="edge"><title>Node2&#45;&gt;Node5</title>
<path fill="none" stroke="midnightblue" d="M210.843,-35.96C231.939,-30.6512 256.377,-24.5012 276.17,-19.5201"/>
<polygon fill="midnightblue" stroke="midnightblue" points="209.947,-32.5763 201.104,-38.411 211.656,-39.3646 209.947,-32.5763"/>
</g>
<!-- Node6 -->
<g id="node6" class="node"><title>Node6</title>
<g id="a_node6"><a xlink:href="../../d2/db8/class_menu.html#a3c99ad09e9f2f975c1a0d0597642651a" target="_top" xlink:title="Menu.init">
<polygon fill="white" stroke="black" points="420,-0.5 420,-19.5 480,-19.5 480,-0.5 420,-0.5"/>
<text text-anchor="middle" x="450" y="-7.5" font-family="Helvetica,sans-Serif" font-size="10.00">Menu.init</text>
</a>
</g>
</g>
<!-- Node5&#45;&gt;Node6 -->
<g id="edge5" class="edge"><title>Node5&#45;&gt;Node6</title>
<path fill="none" stroke="midnightblue" d="M381.775,-10C395.094,-10 408.451,-10 419.71,-10"/>
<polygon fill="midnightblue" stroke="midnightblue" points="381.633,-6.5001 371.633,-10 381.633,-13.5001 381.633,-6.5001"/>
</g>
</g>
</svg>
