<?xml version="1.0" encoding="UTF-8" standalone="no"?>
<!DOCTYPE svg PUBLIC "-//W3C//DTD SVG 1.1//EN"
 "http://www.w3.org/Graphics/SVG/1.1/DTD/svg11.dtd">
<!-- Generated by graphviz version 2.36.0 (20140111.2315)
 -->
<!-- Title: Menu.createGame Pages: 1 -->
<svg width="1206pt" height="332pt"
 viewBox="0.00 0.00 1206.00 332.00" xmlns="http://www.w3.org/2000/svg" xmlns:xlink="http://www.w3.org/1999/xlink">
<g id="graph0" class="graph" transform="scale(1 1) rotate(0) translate(4 328)">
<title>Menu.createGame</title>
<polygon fill="white" stroke="none" points="-4,4 -4,-328 1202,-328 1202,4 -4,4"/>
<!-- Node1 -->
<g id="node1" class="node"><title>Node1</title>
<polygon fill="#bfbfbf" stroke="black" points="0,-256.5 0,-275.5 106,-275.5 106,-256.5 0,-256.5"/>
<text text-anchor="middle" x="53" y="-263.5" font-family="Helvetica,sans-Serif" font-size="10.00">Menu.createGame</text>
</g>
<!-- Node2 -->
<g id="node2" class="node"><title>Node2</title>
<g id="a_node2"><a xlink:href="../../d6/d21/class_screen.html#a5d40342bbe33c27c9e0e24bd8709d1f6" target="_top" xlink:title="Screen.showAndAnim">
<polygon fill="white" stroke="black" points="738.5,-304.5 738.5,-323.5 859.5,-323.5 859.5,-304.5 738.5,-304.5"/>
<text text-anchor="middle" x="799" y="-311.5" font-family="Helvetica,sans-Serif" font-size="10.00">Screen.showAndAnim</text>
</a>
</g>
</g>
<!-- Node1&#45;&gt;Node2 -->
<g id="edge1" class="edge"><title>Node1&#45;&gt;Node2</title>
<path fill="none" stroke="midnightblue" d="M106.339,-275.496C157.556,-283.953 237.874,-295 308,-295 308,-295 308,-295 462,-295 554.113,-295 660.205,-302.206 728.122,-307.743"/>
<polygon fill="midnightblue" stroke="midnightblue" points="728.019,-311.246 738.273,-308.581 728.595,-304.27 728.019,-311.246"/>
</g>
<!-- Node6 -->
<g id="node6" class="node"><title>Node6</title>
<g id="a_node6"><a xlink:href="../../d2/d3e/class_level1.html#a0871325d07c0614d5f1f2df7df13b703" target="_top" xlink:title="Level1.start">
<polygon fill="white" stroke="black" points="142.5,-228.5 142.5,-247.5 215.5,-247.5 215.5,-228.5 142.5,-228.5"/>
<text text-anchor="middle" x="179" y="-235.5" font-family="Helvetica,sans-Serif" font-size="10.00">Level1.start</text>
</a>
</g>
</g>
<!-- Node1&#45;&gt;Node6 -->
<g id="edge5" class="edge"><title>Node1&#45;&gt;Node6</title>
<path fill="none" stroke="midnightblue" d="M96.3269,-256.442C107.94,-253.82 120.579,-250.966 132.369,-248.304"/>
<polygon fill="midnightblue" stroke="midnightblue" points="133.479,-251.641 142.463,-246.025 131.937,-244.813 133.479,-251.641"/>
</g>
<!-- Node3 -->
<g id="node3" class="node"><title>Node3</title>
<g id="a_node3"><a xlink:href="../../d6/d21/class_screen.html#a5d9534b81b96cfc0a00009dea6be6c09" target="_top" xlink:title="Screen.showScreen">
<polygon fill="white" stroke="black" points="910.5,-209.5 910.5,-228.5 1021.5,-228.5 1021.5,-209.5 910.5,-209.5"/>
<text text-anchor="middle" x="966" y="-216.5" font-family="Helvetica,sans-Serif" font-size="10.00">Screen.showScreen</text>
</a>
</g>
</g>
<!-- Node2&#45;&gt;Node3 -->
<g id="edge2" class="edge"><title>Node2&#45;&gt;Node3</title>
<path fill="none" stroke="midnightblue" d="M836.592,-304.465C844.501,-301.844 852.681,-298.686 860,-295 892.709,-278.525 926.267,-252.281 946.374,-235.347"/>
<polygon fill="midnightblue" stroke="midnightblue" points="948.802,-237.876 954.126,-228.716 944.252,-232.557 948.802,-237.876"/>
</g>
<!-- Node5 -->
<g id="node5" class="node"><title>Node5</title>
<g id="a_node5"><a xlink:href="../../d6/d21/class_screen.html#a601576a0d49770789b2eb08328f09c53" target="_top" xlink:title="Screen.startAnim">
<polygon fill="white" stroke="black" points="915.5,-304.5 915.5,-323.5 1016.5,-323.5 1016.5,-304.5 915.5,-304.5"/>
<text text-anchor="middle" x="966" y="-311.5" font-family="Helvetica,sans-Serif" font-size="10.00">Screen.startAnim</text>
</a>
</g>
</g>
<!-- Node2&#45;&gt;Node5 -->
<g id="edge4" class="edge"><title>Node2&#45;&gt;Node5</title>
<path fill="none" stroke="midnightblue" d="M859.569,-314C874.419,-314 890.346,-314 905.207,-314"/>
<polygon fill="midnightblue" stroke="midnightblue" points="905.299,-317.5 915.299,-314 905.299,-310.5 905.299,-317.5"/>
</g>
<!-- Node4 -->
<g id="node4" class="node"><title>Node4</title>
<g id="a_node4"><a xlink:href="../../d6/d21/class_screen.html#ac7ca0a382b3177bbea4e2a4e7c0f442e" target="_top" xlink:title="Screen.init">
<polygon fill="white" stroke="black" points="1101,-209.5 1101,-228.5 1169,-228.5 1169,-209.5 1101,-209.5"/>
<text text-anchor="middle" x="1135" y="-216.5" font-family="Helvetica,sans-Serif" font-size="10.00">Screen.init</text>
</a>
</g>
</g>
<!-- Node3&#45;&gt;Node4 -->
<g id="edge3" class="edge"><title>Node3&#45;&gt;Node4</title>
<path fill="none" stroke="midnightblue" d="M1021.68,-219C1043.98,-219 1069.4,-219 1090.41,-219"/>
<polygon fill="midnightblue" stroke="midnightblue" points="1090.65,-222.5 1100.65,-219 1090.65,-215.5 1090.65,-222.5"/>
</g>
<!-- Node7 -->
<g id="node7" class="node"><title>Node7</title>
<g id="a_node7"><a xlink:href="../../d2/d3e/class_level1.html#a324da1e22a7a87fa4bb1859b5774bdba" target="_top" xlink:title="Level1.updateFrame">
<polygon fill="white" stroke="black" points="252,-171.5 252,-190.5 366,-190.5 366,-171.5 252,-171.5"/>
<text text-anchor="middle" x="309" y="-178.5" font-family="Helvetica,sans-Serif" font-size="10.00">Level1.updateFrame</text>
</a>
</g>
</g>
<!-- Node6&#45;&gt;Node7 -->
<g id="edge6" class="edge"><title>Node6&#45;&gt;Node7</title>
<path fill="none" stroke="midnightblue" d="M201.424,-228.459C222.191,-219.212 253.904,-205.09 277.34,-194.653"/>
<polygon fill="midnightblue" stroke="midnightblue" points="278.794,-197.837 286.506,-190.572 275.947,-191.442 278.794,-197.837"/>
</g>
<!-- Node8 -->
<g id="node8" class="node"><title>Node8</title>
<g id="a_node8"><a xlink:href="../../d2/d3e/class_level1.html#a78a7fb5633734b1815af8db43db23a41" target="_top" xlink:title="Level1.updateSprites">
<polygon fill="white" stroke="black" points="402,-123.5 402,-142.5 520,-142.5 520,-123.5 402,-123.5"/>
<text text-anchor="middle" x="461" y="-130.5" font-family="Helvetica,sans-Serif" font-size="10.00">Level1.updateSprites</text>
</a>
</g>
</g>
<!-- Node7&#45;&gt;Node8 -->
<g id="edge7" class="edge"><title>Node7&#45;&gt;Node8</title>
<path fill="none" stroke="midnightblue" d="M339.994,-171.402C363.09,-164.011 395.222,-153.729 420.425,-145.664"/>
<polygon fill="midnightblue" stroke="midnightblue" points="421.6,-148.963 430.058,-142.582 419.467,-142.296 421.6,-148.963"/>
</g>
<!-- Node25 -->
<g id="node25" class="node"><title>Node25</title>
<g id="a_node25"><a xlink:href="../../d2/d3e/class_level1.html#a5f552e875916d0cf7a74896401584b2a" target="_top" xlink:title="Level1.updateTimer">
<polygon fill="white" stroke="black" points="405.5,-171.5 405.5,-190.5 516.5,-190.5 516.5,-171.5 405.5,-171.5"/>
<text text-anchor="middle" x="461" y="-178.5" font-family="Helvetica,sans-Serif" font-size="10.00">Level1.updateTimer</text>
</a>
</g>
</g>
<!-- Node7&#45;&gt;Node25 -->
<g id="edge32" class="edge"><title>Node7&#45;&gt;Node25</title>
<path fill="none" stroke="midnightblue" d="M366.281,-181C375.683,-181 385.504,-181 395.1,-181"/>
<polygon fill="midnightblue" stroke="midnightblue" points="395.394,-184.5 405.394,-181 395.394,-177.5 395.394,-184.5"/>
</g>
<!-- Node9 -->
<g id="node9" class="node"><title>Node9</title>
<g id="a_node9"><a xlink:href="../../d2/d3e/class_level1.html#a5e6976ef755d0e678034870e374ee4ca" target="_top" xlink:title="Level1.goGameOver">
<polygon fill="white" stroke="black" points="572,-190.5 572,-209.5 686,-209.5 686,-190.5 572,-190.5"/>
<text text-anchor="middle" x="629" y="-197.5" font-family="Helvetica,sans-Serif" font-size="10.00">Level1.goGameOver</text>
</a>
</g>
</g>
<!-- Node8&#45;&gt;Node9 -->
<g id="edge8" class="edge"><title>Node8&#45;&gt;Node9</title>
<path fill="none" stroke="midnightblue" d="M481.387,-142.561C492.683,-148.164 507.183,-155.414 520,-162 536.092,-170.268 539.145,-174.427 556,-181 562.231,-183.43 568.884,-185.654 575.534,-187.655"/>
<polygon fill="midnightblue" stroke="midnightblue" points="574.649,-191.042 585.226,-190.427 576.574,-184.312 574.649,-191.042"/>
</g>
<!-- Node12 -->
<g id="node12" class="node"><title>Node12</title>
<g id="a_node12"><a xlink:href="../../d2/d3e/class_level1.html#ac56e75129bb2946c38cfcf43608f3f05" target="_top" xlink:title="Level1.goNextLevel">
<polygon fill="white" stroke="black" points="574,-228.5 574,-247.5 684,-247.5 684,-228.5 574,-228.5"/>
<text text-anchor="middle" x="629" y="-235.5" font-family="Helvetica,sans-Serif" font-size="10.00">Level1.goNextLevel</text>
</a>
</g>
</g>
<!-- Node8&#45;&gt;Node12 -->
<g id="edge12" class="edge"><title>Node8&#45;&gt;Node12</title>
<path fill="none" stroke="midnightblue" d="M488.41,-142.56C499.036,-147.286 510.901,-153.766 520,-162 542.216,-182.105 531.838,-201.281 556,-219 558.658,-220.949 561.502,-222.699 564.466,-224.269"/>
<polygon fill="midnightblue" stroke="midnightblue" points="563.111,-227.498 573.662,-228.462 566.016,-221.129 563.111,-227.498"/>
</g>
<!-- Node14 -->
<g id="node14" class="node"><title>Node14</title>
<g id="a_node14"><a xlink:href="../../dd/d7a/class_enemy.html#a9b6840dcc6b8165268e957fc43d95b06" target="_top" xlink:title="Enemy.makePoop">
<polygon fill="white" stroke="black" points="578,-152.5 578,-171.5 680,-171.5 680,-152.5 578,-152.5"/>
<text text-anchor="middle" x="629" y="-159.5" font-family="Helvetica,sans-Serif" font-size="10.00">Enemy.makePoop</text>
</a>
</g>
</g>
<!-- Node8&#45;&gt;Node14 -->
<g id="edge18" class="edge"><title>Node8&#45;&gt;Node14</title>
<path fill="none" stroke="midnightblue" d="M516.815,-142.576C533.082,-145.418 550.987,-148.546 567.588,-151.446"/>
<polygon fill="midnightblue" stroke="midnightblue" points="567.277,-154.945 577.73,-153.218 568.481,-148.049 567.277,-154.945"/>
</g>
<!-- Node16 -->
<g id="node16" class="node"><title>Node16</title>
<g id="a_node16"><a xlink:href="../../d8/d53/class_player.html#a1b7a0a6c68deb202a672d42e205d5a21" target="_top" xlink:title="Player.moveSprite">
<polygon fill="white" stroke="black" points="577,-114.5 577,-133.5 681,-133.5 681,-114.5 577,-114.5"/>
<text text-anchor="middle" x="629" y="-121.5" font-family="Helvetica,sans-Serif" font-size="10.00">Player.moveSprite</text>
</a>
</g>
</g>
<!-- Node8&#45;&gt;Node16 -->
<g id="edge20" class="edge"><title>Node8&#45;&gt;Node16</title>
<path fill="none" stroke="midnightblue" d="M520.059,-129.852C535.1,-129.037 551.346,-128.156 566.554,-127.331"/>
<polygon fill="midnightblue" stroke="midnightblue" points="567.094,-130.807 576.89,-126.771 566.715,-123.818 567.094,-130.807"/>
</g>
<!-- Node18 -->
<g id="node18" class="node"><title>Node18</title>
<g id="a_node18"><a xlink:href="../../dd/d7a/class_enemy.html#ab653212b50d9e64ba497ae18696d3678" target="_top" xlink:title="Enemy.moveSprite">
<polygon fill="white" stroke="black" points="575.5,-76.5 575.5,-95.5 682.5,-95.5 682.5,-76.5 575.5,-76.5"/>
<text text-anchor="middle" x="629" y="-83.5" font-family="Helvetica,sans-Serif" font-size="10.00">Enemy.moveSprite</text>
</a>
</g>
</g>
<!-- Node8&#45;&gt;Node18 -->
<g id="edge23" class="edge"><title>Node8&#45;&gt;Node18</title>
<path fill="none" stroke="midnightblue" d="M493.262,-123.419C511.516,-117.893 535.016,-110.893 556,-105 564.141,-102.714 572.822,-100.356 581.235,-98.1117"/>
<polygon fill="midnightblue" stroke="midnightblue" points="582.171,-101.485 590.941,-95.5407 580.378,-94.7181 582.171,-101.485"/>
</g>
<!-- Node20 -->
<g id="node20" class="node"><title>Node20</title>
<g id="a_node20"><a xlink:href="../../d2/d3e/class_level1.html#a5995ba731849ced54b8f97fcc93ce4d9" target="_top" xlink:title="Level1.removeFromScreen">
<polygon fill="white" stroke="black" points="556.5,-38.5 556.5,-57.5 701.5,-57.5 701.5,-38.5 556.5,-38.5"/>
<text text-anchor="middle" x="629" y="-45.5" font-family="Helvetica,sans-Serif" font-size="10.00">Level1.removeFromScreen</text>
</a>
</g>
</g>
<!-- Node8&#45;&gt;Node20 -->
<g id="edge27" class="edge"><title>Node8&#45;&gt;Node20</title>
<path fill="none" stroke="midnightblue" d="M472.773,-123.478C489.463,-109.202 523.09,-82.2962 556,-67 561.056,-64.6502 566.451,-62.5528 571.929,-60.6896"/>
<polygon fill="midnightblue" stroke="midnightblue" points="573.328,-63.9189 581.821,-57.5848 571.232,-57.2401 573.328,-63.9189"/>
</g>
<!-- Node21 -->
<g id="node21" class="node"><title>Node21</title>
<g id="a_node21"><a xlink:href="../../d2/d3e/class_level1.html#aa75f107bf925594da75a1d82cf64044d" target="_top" xlink:title="Level1.returnCollisions">
<polygon fill="white" stroke="black" points="567,-0.5 567,-19.5 691,-19.5 691,-0.5 567,-0.5"/>
<text text-anchor="middle" x="629" y="-7.5" font-family="Helvetica,sans-Serif" font-size="10.00">Level1.returnCollisions</text>
</a>
</g>
</g>
<!-- Node8&#45;&gt;Node21 -->
<g id="edge28" class="edge"><title>Node8&#45;&gt;Node21</title>
<path fill="none" stroke="midnightblue" d="M467.951,-123.263C481.118,-102.569 514.841,-54.0616 556,-29 559.602,-26.8065 563.456,-24.8635 567.438,-23.1427"/>
<polygon fill="midnightblue" stroke="midnightblue" points="568.819,-26.3621 576.906,-19.5178 566.316,-19.8248 568.819,-26.3621"/>
</g>
<!-- Node9&#45;&gt;Node3 -->
<g id="edge11" class="edge"><title>Node9&#45;&gt;Node3</title>
<path fill="none" stroke="midnightblue" d="M670.586,-190.431C716.764,-180.979 794.292,-169.476 860,-181 886.539,-185.655 915.212,-196.456 935.878,-205.358"/>
<polygon fill="midnightblue" stroke="midnightblue" points="934.492,-208.572 945.054,-209.412 937.321,-202.169 934.492,-208.572"/>
</g>
<!-- Node10 -->
<g id="node10" class="node"><title>Node10</title>
<g id="a_node10"><a xlink:href="../../d2/d3e/class_level1.html#ac4098d447b9841cabec6be3bb719bd26" target="_top" xlink:title="Level1.clearElements">
<polygon fill="white" stroke="black" points="739.5,-190.5 739.5,-209.5 858.5,-209.5 858.5,-190.5 739.5,-190.5"/>
<text text-anchor="middle" x="799" y="-197.5" font-family="Helvetica,sans-Serif" font-size="10.00">Level1.clearElements</text>
</a>
</g>
</g>
<!-- Node9&#45;&gt;Node10 -->
<g id="edge9" class="edge"><title>Node9&#45;&gt;Node10</title>
<path fill="none" stroke="midnightblue" d="M686.409,-200C700.139,-200 714.976,-200 729.21,-200"/>
<polygon fill="midnightblue" stroke="midnightblue" points="729.444,-203.5 739.444,-200 729.443,-196.5 729.444,-203.5"/>
</g>
<!-- Node11 -->
<g id="node11" class="node"><title>Node11</title>
<g id="a_node11"><a xlink:href="../../d7/da7/class_character.html#a4dc23a76b34bcbb84abba1b116847268" target="_top" xlink:title="Character.getHP">
<polygon fill="white" stroke="black" points="751.5,-228.5 751.5,-247.5 846.5,-247.5 846.5,-228.5 751.5,-228.5"/>
<text text-anchor="middle" x="799" y="-235.5" font-family="Helvetica,sans-Serif" font-size="10.00">Character.getHP</text>
</a>
</g>
</g>
<!-- Node9&#45;&gt;Node11 -->
<g id="edge10" class="edge"><title>Node9&#45;&gt;Node11</title>
<path fill="none" stroke="midnightblue" d="M672.393,-209.589C694.763,-214.649 722.398,-220.9 746.047,-226.249"/>
<polygon fill="midnightblue" stroke="midnightblue" points="745.386,-229.687 755.911,-228.48 746.93,-222.86 745.386,-229.687"/>
</g>
<!-- Node12&#45;&gt;Node2 -->
<g id="edge16" class="edge"><title>Node12&#45;&gt;Node2</title>
<path fill="none" stroke="midnightblue" d="M646.026,-247.627C666.737,-259.792 704.163,-280.847 738,-295 743.36,-297.242 749.082,-299.372 754.784,-301.34"/>
<polygon fill="midnightblue" stroke="midnightblue" points="753.701,-304.669 764.294,-304.491 755.902,-298.024 753.701,-304.669"/>
</g>
<!-- Node12&#45;&gt;Node6 -->
<g id="edge17" class="edge"><title>Node12&#45;&gt;Node6</title>
<path fill="none" stroke="midnightblue" d="M573.736,-238C484.614,-238 308.848,-238 225.678,-238"/>
<polygon fill="midnightblue" stroke="midnightblue" points="225.528,-234.5 215.528,-238 225.528,-241.5 225.528,-234.5"/>
</g>
<!-- Node12&#45;&gt;Node10 -->
<g id="edge13" class="edge"><title>Node12&#45;&gt;Node10</title>
<path fill="none" stroke="midnightblue" d="M672.393,-228.411C694.763,-223.351 722.398,-217.1 746.047,-211.751"/>
<polygon fill="midnightblue" stroke="midnightblue" points="746.93,-215.14 755.911,-209.52 745.386,-208.313 746.93,-215.14"/>
</g>
<!-- Node12&#45;&gt;Node11 -->
<g id="edge14" class="edge"><title>Node12&#45;&gt;Node11</title>
<path fill="none" stroke="midnightblue" d="M684.081,-238C702.372,-238 722.84,-238 741.327,-238"/>
<polygon fill="midnightblue" stroke="midnightblue" points="741.367,-241.5 751.367,-238 741.366,-234.5 741.367,-241.5"/>
</g>
<!-- Node13 -->
<g id="node13" class="node"><title>Node13</title>
<g id="a_node13"><a xlink:href="../../dd/d7a/class_enemy.html#a0b00e167bc151db783054dddb2f9b509" target="_top" xlink:title="Enemy.makeAngry">
<polygon fill="white" stroke="black" points="746,-266.5 746,-285.5 852,-285.5 852,-266.5 746,-266.5"/>
<text text-anchor="middle" x="799" y="-273.5" font-family="Helvetica,sans-Serif" font-size="10.00">Enemy.makeAngry</text>
</a>
</g>
</g>
<!-- Node12&#45;&gt;Node13 -->
<g id="edge15" class="edge"><title>Node12&#45;&gt;Node13</title>
<path fill="none" stroke="midnightblue" d="M672.393,-247.589C694.763,-252.649 722.398,-258.9 746.047,-264.249"/>
<polygon fill="midnightblue" stroke="midnightblue" points="745.386,-267.687 755.911,-266.48 746.93,-260.86 745.386,-267.687"/>
</g>
<!-- Node15 -->
<g id="node15" class="node"><title>Node15</title>
<g id="a_node15"><a xlink:href="../../d7/dbf/class_sprite.html#accdf1c21264c6ff648ece508cf176bfb" target="_top" xlink:title="Sprite.setVelocity">
<polygon fill="white" stroke="black" points="749,-114.5 749,-133.5 849,-133.5 849,-114.5 749,-114.5"/>
<text text-anchor="middle" x="799" y="-121.5" font-family="Helvetica,sans-Serif" font-size="10.00">Sprite.setVelocity</text>
</a>
</g>
</g>
<!-- Node14&#45;&gt;Node15 -->
<g id="edge19" class="edge"><title>Node14&#45;&gt;Node15</title>
<path fill="none" stroke="midnightblue" d="M672.393,-152.411C694.763,-147.351 722.398,-141.1 746.047,-135.751"/>
<polygon fill="midnightblue" stroke="midnightblue" points="746.93,-139.14 755.911,-133.52 745.386,-132.313 746.93,-139.14"/>
</g>
<!-- Node16&#45;&gt;Node15 -->
<g id="edge21" class="edge"><title>Node16&#45;&gt;Node15</title>
<path fill="none" stroke="midnightblue" d="M681.318,-124C699.393,-124 719.86,-124 738.549,-124"/>
<polygon fill="midnightblue" stroke="midnightblue" points="738.723,-127.5 748.723,-124 738.722,-120.5 738.723,-127.5"/>
</g>
<!-- Node17 -->
<g id="node17" class="node"><title>Node17</title>
<g id="a_node17"><a xlink:href="../../d7/dbf/class_sprite.html#ab8f846b7ba77ae72ad09f48da22ceea7" target="_top" xlink:title="Sprite.moveSprite">
<polygon fill="white" stroke="black" points="747,-76.5 747,-95.5 851,-95.5 851,-76.5 747,-76.5"/>
<text text-anchor="middle" x="799" y="-83.5" font-family="Helvetica,sans-Serif" font-size="10.00">Sprite.moveSprite</text>
</a>
</g>
</g>
<!-- Node16&#45;&gt;Node17 -->
<g id="edge22" class="edge"><title>Node16&#45;&gt;Node17</title>
<path fill="none" stroke="midnightblue" d="M672.393,-114.411C694.763,-109.351 722.398,-103.1 746.047,-97.7512"/>
<polygon fill="midnightblue" stroke="midnightblue" points="746.93,-101.14 755.911,-95.5201 745.386,-94.3125 746.93,-101.14"/>
</g>
<!-- Node18&#45;&gt;Node15 -->
<g id="edge26" class="edge"><title>Node18&#45;&gt;Node15</title>
<path fill="none" stroke="midnightblue" d="M672.393,-95.589C694.763,-100.649 722.398,-106.9 746.047,-112.249"/>
<polygon fill="midnightblue" stroke="midnightblue" points="745.386,-115.687 755.911,-114.48 746.93,-108.86 745.386,-115.687"/>
</g>
<!-- Node18&#45;&gt;Node17 -->
<g id="edge25" class="edge"><title>Node18&#45;&gt;Node17</title>
<path fill="none" stroke="midnightblue" d="M682.695,-86C699.829,-86 718.991,-86 736.698,-86"/>
<polygon fill="midnightblue" stroke="midnightblue" points="736.929,-89.5001 746.929,-86 736.929,-82.5001 736.929,-89.5001"/>
</g>
<!-- Node19 -->
<g id="node19" class="node"><title>Node19</title>
<g id="a_node19"><a xlink:href="../../d7/dbf/class_sprite.html#a4dd4a643703de09c632a0e7d70a570e7" target="_top" xlink:title="Sprite.getVelocity">
<polygon fill="white" stroke="black" points="748.5,-38.5 748.5,-57.5 849.5,-57.5 849.5,-38.5 748.5,-38.5"/>
<text text-anchor="middle" x="799" y="-45.5" font-family="Helvetica,sans-Serif" font-size="10.00">Sprite.getVelocity</text>
</a>
</g>
</g>
<!-- Node18&#45;&gt;Node19 -->
<g id="edge24" class="edge"><title>Node18&#45;&gt;Node19</title>
<path fill="none" stroke="midnightblue" d="M672.393,-76.411C694.763,-71.3513 722.398,-65.1004 746.047,-59.7512"/>
<polygon fill="midnightblue" stroke="midnightblue" points="746.93,-63.1401 755.911,-57.5201 745.386,-56.3125 746.93,-63.1401"/>
</g>
<!-- Node22 -->
<g id="node22" class="node"><title>Node22</title>
<g id="a_node22"><a xlink:href="../../d7/da7/class_character.html#aa2149c166e797ae0ded67d9f768ac7f3" target="_top" xlink:title="Character.updateAll">
<polygon fill="white" stroke="black" points="743.5,-0.5 743.5,-19.5 854.5,-19.5 854.5,-0.5 743.5,-0.5"/>
<text text-anchor="middle" x="799" y="-7.5" font-family="Helvetica,sans-Serif" font-size="10.00">Character.updateAll</text>
</a>
</g>
</g>
<!-- Node21&#45;&gt;Node22 -->
<g id="edge29" class="edge"><title>Node21&#45;&gt;Node22</title>
<path fill="none" stroke="midnightblue" d="M691.127,-10C704.734,-10 719.207,-10 732.965,-10"/>
<polygon fill="midnightblue" stroke="midnightblue" points="733.319,-13.5001 743.319,-10 733.319,-6.5001 733.319,-13.5001"/>
</g>
<!-- Node23 -->
<g id="node23" class="node"><title>Node23</title>
<g id="a_node23"><a xlink:href="../../d7/da7/class_character.html#ade25acccb27ac9aeb2752b2df29d075f" target="_top" xlink:title="Character.collisionUpdate">
<polygon fill="white" stroke="black" points="896.5,-0.5 896.5,-19.5 1035.5,-19.5 1035.5,-0.5 896.5,-0.5"/>
<text text-anchor="middle" x="966" y="-7.5" font-family="Helvetica,sans-Serif" font-size="10.00">Character.collisionUpdate</text>
</a>
</g>
</g>
<!-- Node22&#45;&gt;Node23 -->
<g id="edge30" class="edge"><title>Node22&#45;&gt;Node23</title>
<path fill="none" stroke="midnightblue" d="M854.943,-10C865.031,-10 875.74,-10 886.363,-10"/>
<polygon fill="midnightblue" stroke="midnightblue" points="886.5,-13.5001 896.5,-10 886.5,-6.5001 886.5,-13.5001"/>
</g>
<!-- Node24 -->
<g id="node24" class="node"><title>Node24</title>
<g id="a_node24"><a xlink:href="../../d7/da7/class_character.html#ad223fcb54929116326bf8816d43f5173" target="_top" xlink:title="Character.checkCollide">
<polygon fill="white" stroke="black" points="1072.5,-0.5 1072.5,-19.5 1197.5,-19.5 1197.5,-0.5 1072.5,-0.5"/>
<text text-anchor="middle" x="1135" y="-7.5" font-family="Helvetica,sans-Serif" font-size="10.00">Character.checkCollide</text>
</a>
</g>
</g>
<!-- Node23&#45;&gt;Node24 -->
<g id="edge31" class="edge"><title>Node23&#45;&gt;Node24</title>
<path fill="none" stroke="midnightblue" d="M1035.89,-10C1044.61,-10 1053.54,-10 1062.31,-10"/>
<polygon fill="midnightblue" stroke="midnightblue" points="1062.48,-13.5001 1072.48,-10 1062.48,-6.5001 1062.48,-13.5001"/>
</g>
</g>
</svg>
