<?xml version="1.0" encoding="UTF-8" standalone="no"?>
<!DOCTYPE svg PUBLIC "-//W3C//DTD SVG 1.1//EN"
 "http://www.w3.org/Graphics/SVG/1.1/DTD/svg11.dtd">
<!-- Generated by graphviz version 2.36.0 (20140111.2315)
 -->
<!-- Title: Menu.init Pages: 1 -->
<!--zoomable 332 -->
<svg id="main" version="1.1" xmlns="http://www.w3.org/2000/svg" xmlns:xlink="http://www.w3.org/1999/xlink" xml:space="preserve" onload="init(evt)">
<style type="text/css"><![CDATA[
.edge:hover path { stroke: red; }
.edge:hover polygon { stroke: red; fill: red; }
]]></style>
<script type="text/javascript"><![CDATA[
var edges = document.getElementsByTagName('g');
if (edges && edges.length) {
  for (var i=0;i<edges.length;i++) {
    if (edges[i].id.substr(0,4)=='edge') {
      edges[i].setAttribute('class','edge');
    }
  }
}
]]></script>
        <defs>
                <circle id="rim" cx="0" cy="0" r="7"/>
                <circle id="rim2" cx="0" cy="0" r="3.5"/>
                <g id="zoomPlus">
                        <use xlink:href="#rim" fill="#404040">
                                <set attributeName="fill" to="#808080" begin="zoomplus.mouseover" end="zoomplus.mouseout"/>
                        </use>
                        <path d="M-4,0h8M0,-4v8" fill="none" stroke="white" stroke-width="1.5" pointer-events="none"/>
                </g>
                <g id="zoomMin">
                        <use xlink:href="#rim" fill="#404040">
                                <set attributeName="fill" to="#808080" begin="zoomminus.mouseover" end="zoomminus.mouseout"/>
                        </use>
                        <path d="M-4,0h8" fill="none" stroke="white" stroke-width="1.5" pointer-events="none"/>
                </g>
                <g id="dirArrow">
                        <path fill="none" stroke="white" stroke-width="1.5" d="M0,-3.0v7 M-2.5,-0.5L0,-3.0L2.5,-0.5"/>
                </g>
               <g id="resetDef">
                       <use xlink:href="#rim2" fill="#404040">
                               <set attributeName="fill" to="#808080" begin="reset.mouseover" end="reset.mouseout"/>
                       </use>
               </g>
        </defs>

<script type="text/javascript">
var viewWidth = 1698;
var viewHeight = 332;
var sectionId = 'dynsection-13';
</script>
<script xlink:href="../../svgpan.js"/>
<svg id="graph" class="graph">
<g id="viewport">
<title>Menu.init</title>
<polygon fill="white" stroke="none" points="-4,4 -4,-328 1694,-328 1694,4 -4,4"/>
<!-- Node1 -->
<g id="node1" class="node"><title>Node1</title>
<polygon fill="#bfbfbf" stroke="black" points="0,-228.5 0,-247.5 60,-247.5 60,-228.5 0,-228.5"/>
<text text-anchor="middle" x="30" y="-235.5" font-family="Helvetica,sans-Serif" font-size="10.00">Menu.init</text>
</g>
<!-- Node2 -->
<g id="node2" class="node"><title>Node2</title>
<g id="a_node2"><a xlink:href="../../d2/db8/class_menu.html#a461e62e606af2391013ce3aaf92a8cc7" target="_top" xlink:title="Menu.addAllButtons">
<polygon fill="white" stroke="black" points="96.5,-247.5 96.5,-266.5 209.5,-266.5 209.5,-247.5 96.5,-247.5"/>
<text text-anchor="middle" x="153" y="-254.5" font-family="Helvetica,sans-Serif" font-size="10.00">Menu.addAllButtons</text>
</a>
</g>
</g>
<!-- Node1&#45;&gt;Node2 -->
<g id="edge1" class="edge"><title>Node1&#45;&gt;Node2</title>
<path fill="none" stroke="midnightblue" d="M60.2907,-242.599C68.3035,-243.858 77.3219,-245.274 86.4949,-246.714"/>
<polygon fill="midnightblue" stroke="midnightblue" points="86.0471,-250.187 96.469,-248.28 87.133,-243.271 86.0471,-250.187"/>
</g>
<!-- Node30 -->
<g id="node30" class="node"><title>Node30</title>
<g id="a_node30"><a xlink:href="../../d2/db8/class_menu.html#a4f437319f17d0d8c4169c8f8ba481ba7" target="_top" xlink:title="Menu.addAllText">
<polygon fill="white" stroke="black" points="106,-209.5 106,-228.5 200,-228.5 200,-209.5 106,-209.5"/>
<text text-anchor="middle" x="153" y="-216.5" font-family="Helvetica,sans-Serif" font-size="10.00">Menu.addAllText</text>
</a>
</g>
</g>
<!-- Node1&#45;&gt;Node30 -->
<g id="edge37" class="edge"><title>Node1&#45;&gt;Node30</title>
<path fill="none" stroke="midnightblue" d="M60.2907,-233.401C71.0006,-231.719 83.5073,-229.755 95.7781,-227.828"/>
<polygon fill="midnightblue" stroke="midnightblue" points="96.6495,-231.234 105.985,-226.225 95.5635,-224.319 96.6495,-231.234"/>
</g>
<!-- Node3 -->
<g id="node3" class="node"><title>Node3</title>
<g id="a_node3"><a xlink:href="../../d2/db8/class_menu.html#aff7a7627619921545f94547ab6135007" target="_top" xlink:title="Menu.addButton">
<polygon fill="white" stroke="black" points="246,-247.5 246,-266.5 342,-266.5 342,-247.5 246,-247.5"/>
<text text-anchor="middle" x="294" y="-254.5" font-family="Helvetica,sans-Serif" font-size="10.00">Menu.addButton</text>
</a>
</g>
</g>
<!-- Node2&#45;&gt;Node3 -->
<g id="edge2" class="edge"><title>Node2&#45;&gt;Node3</title>
<path fill="none" stroke="midnightblue" d="M209.736,-257C218.22,-257 226.989,-257 235.51,-257"/>
<polygon fill="midnightblue" stroke="midnightblue" points="235.744,-260.5 245.744,-257 235.744,-253.5 235.744,-260.5"/>
</g>
<!-- Node4 -->
<g id="node4" class="node"><title>Node4</title>
<g id="a_node4"><a xlink:href="../../d2/db8/class_menu.html#a53c8b072d5ec777994fed9ee76c98561" target="_top" xlink:title="Menu.handle">
<polygon fill="white" stroke="black" points="378,-247.5 378,-266.5 456,-266.5 456,-247.5 378,-247.5"/>
<text text-anchor="middle" x="417" y="-254.5" font-family="Helvetica,sans-Serif" font-size="10.00">Menu.handle</text>
</a>
</g>
</g>
<!-- Node3&#45;&gt;Node4 -->
<g id="edge3" class="edge"><title>Node3&#45;&gt;Node4</title>
<path fill="none" stroke="midnightblue" d="M342.128,-257C350.526,-257 359.285,-257 367.714,-257"/>
<polygon fill="midnightblue" stroke="midnightblue" points="367.785,-260.5 377.785,-257 367.785,-253.5 367.785,-260.5"/>
</g>
<!-- Node5 -->
<g id="node5" class="node"><title>Node5</title>
<g id="a_node5"><a xlink:href="../../d2/db8/class_menu.html#ab6296880308728ced459f772430d025b" target="_top" xlink:title="Menu.createGame">
<polygon fill="white" stroke="black" points="492,-247.5 492,-266.5 598,-266.5 598,-247.5 492,-247.5"/>
<text text-anchor="middle" x="545" y="-254.5" font-family="Helvetica,sans-Serif" font-size="10.00">Menu.createGame</text>
</a>
</g>
</g>
<!-- Node4&#45;&gt;Node5 -->
<g id="edge4" class="edge"><title>Node4&#45;&gt;Node5</title>
<path fill="none" stroke="midnightblue" d="M456.146,-257C464.163,-257 472.82,-257 481.465,-257"/>
<polygon fill="midnightblue" stroke="midnightblue" points="481.57,-260.5 491.57,-257 481.57,-253.5 481.57,-260.5"/>
</g>
<!-- Node6 -->
<g id="node6" class="node"><title>Node6</title>
<g id="a_node6"><a xlink:href="../../d6/d21/class_screen.html#a5d40342bbe33c27c9e0e24bd8709d1f6" target="_top" xlink:title="Screen.showAndAnim">
<polygon fill="white" stroke="black" points="1230.5,-304.5 1230.5,-323.5 1351.5,-323.5 1351.5,-304.5 1230.5,-304.5"/>
<text text-anchor="middle" x="1291" y="-311.5" font-family="Helvetica,sans-Serif" font-size="10.00">Screen.showAndAnim</text>
</a>
</g>
</g>
<!-- Node5&#45;&gt;Node6 -->
<g id="edge5" class="edge"><title>Node5&#45;&gt;Node6</title>
<path fill="none" stroke="midnightblue" d="M585.324,-266.589C635.012,-277.846 723.309,-295 800,-295 800,-295 800,-295 954,-295 1046.11,-295 1152.21,-302.206 1220.12,-307.743"/>
<polygon fill="midnightblue" stroke="midnightblue" points="1220.02,-311.246 1230.27,-308.581 1220.6,-304.27 1220.02,-311.246"/>
</g>
<!-- Node10 -->
<g id="node10" class="node"><title>Node10</title>
<g id="a_node10"><a xlink:href="../../d2/d3e/class_level1.html#a0871325d07c0614d5f1f2df7df13b703" target="_top" xlink:title="Level1.start">
<polygon fill="white" stroke="black" points="634.5,-228.5 634.5,-247.5 707.5,-247.5 707.5,-228.5 634.5,-228.5"/>
<text text-anchor="middle" x="671" y="-235.5" font-family="Helvetica,sans-Serif" font-size="10.00">Level1.start</text>
</a>
</g>
</g>
<!-- Node5&#45;&gt;Node10 -->
<g id="edge9" class="edge"><title>Node5&#45;&gt;Node10</title>
<path fill="none" stroke="midnightblue" d="M598.228,-248.997C606.886,-247.671 615.805,-246.304 624.286,-245.004"/>
<polygon fill="midnightblue" stroke="midnightblue" points="625.013,-248.434 634.368,-243.46 623.953,-241.515 625.013,-248.434"/>
</g>
<!-- Node7 -->
<g id="node7" class="node"><title>Node7</title>
<g id="a_node7"><a xlink:href="../../d6/d21/class_screen.html#a5d9534b81b96cfc0a00009dea6be6c09" target="_top" xlink:title="Screen.showScreen">
<polygon fill="white" stroke="black" points="1402.5,-209.5 1402.5,-228.5 1513.5,-228.5 1513.5,-209.5 1402.5,-209.5"/>
<text text-anchor="middle" x="1458" y="-216.5" font-family="Helvetica,sans-Serif" font-size="10.00">Screen.showScreen</text>
</a>
</g>
</g>
<!-- Node6&#45;&gt;Node7 -->
<g id="edge6" class="edge"><title>Node6&#45;&gt;Node7</title>
<path fill="none" stroke="midnightblue" d="M1328.59,-304.465C1336.5,-301.844 1344.68,-298.686 1352,-295 1384.71,-278.525 1418.27,-252.281 1438.37,-235.347"/>
<polygon fill="midnightblue" stroke="midnightblue" points="1440.8,-237.876 1446.13,-228.716 1436.25,-232.557 1440.8,-237.876"/>
</g>
<!-- Node9 -->
<g id="node9" class="node"><title>Node9</title>
<g id="a_node9"><a xlink:href="../../d6/d21/class_screen.html#a601576a0d49770789b2eb08328f09c53" target="_top" xlink:title="Screen.startAnim">
<polygon fill="white" stroke="black" points="1407.5,-304.5 1407.5,-323.5 1508.5,-323.5 1508.5,-304.5 1407.5,-304.5"/>
<text text-anchor="middle" x="1458" y="-311.5" font-family="Helvetica,sans-Serif" font-size="10.00">Screen.startAnim</text>
</a>
</g>
</g>
<!-- Node6&#45;&gt;Node9 -->
<g id="edge8" class="edge"><title>Node6&#45;&gt;Node9</title>
<path fill="none" stroke="midnightblue" d="M1351.57,-314C1366.42,-314 1382.35,-314 1397.21,-314"/>
<polygon fill="midnightblue" stroke="midnightblue" points="1397.3,-317.5 1407.3,-314 1397.3,-310.5 1397.3,-317.5"/>
</g>
<!-- Node8 -->
<g id="node8" class="node"><title>Node8</title>
<g id="a_node8"><a xlink:href="../../d6/d21/class_screen.html#ac7ca0a382b3177bbea4e2a4e7c0f442e" target="_top" xlink:title="Screen.init">
<polygon fill="white" stroke="black" points="1593,-209.5 1593,-228.5 1661,-228.5 1661,-209.5 1593,-209.5"/>
<text text-anchor="middle" x="1627" y="-216.5" font-family="Helvetica,sans-Serif" font-size="10.00">Screen.init</text>
</a>
</g>
</g>
<!-- Node7&#45;&gt;Node8 -->
<g id="edge7" class="edge"><title>Node7&#45;&gt;Node8</title>
<path fill="none" stroke="midnightblue" d="M1513.68,-219C1535.98,-219 1561.4,-219 1582.41,-219"/>
<polygon fill="midnightblue" stroke="midnightblue" points="1582.65,-222.5 1592.65,-219 1582.65,-215.5 1582.65,-222.5"/>
</g>
<!-- Node11 -->
<g id="node11" class="node"><title>Node11</title>
<g id="a_node11"><a xlink:href="../../d2/d3e/class_level1.html#a324da1e22a7a87fa4bb1859b5774bdba" target="_top" xlink:title="Level1.updateFrame">
<polygon fill="white" stroke="black" points="744,-171.5 744,-190.5 858,-190.5 858,-171.5 744,-171.5"/>
<text text-anchor="middle" x="801" y="-178.5" font-family="Helvetica,sans-Serif" font-size="10.00">Level1.updateFrame</text>
</a>
</g>
</g>
<!-- Node10&#45;&gt;Node11 -->
<g id="edge10" class="edge"><title>Node10&#45;&gt;Node11</title>
<path fill="none" stroke="midnightblue" d="M693.424,-228.459C714.191,-219.212 745.904,-205.09 769.34,-194.653"/>
<polygon fill="midnightblue" stroke="midnightblue" points="770.794,-197.837 778.506,-190.572 767.947,-191.442 770.794,-197.837"/>
</g>
<!-- Node12 -->
<g id="node12" class="node"><title>Node12</title>
<g id="a_node12"><a xlink:href="../../d2/d3e/class_level1.html#a78a7fb5633734b1815af8db43db23a41" target="_top" xlink:title="Level1.updateSprites">
<polygon fill="white" stroke="black" points="894,-123.5 894,-142.5 1012,-142.5 1012,-123.5 894,-123.5"/>
<text text-anchor="middle" x="953" y="-130.5" font-family="Helvetica,sans-Serif" font-size="10.00">Level1.updateSprites</text>
</a>
</g>
</g>
<!-- Node11&#45;&gt;Node12 -->
<g id="edge11" class="edge"><title>Node11&#45;&gt;Node12</title>
<path fill="none" stroke="midnightblue" d="M831.994,-171.402C855.09,-164.011 887.222,-153.729 912.425,-145.664"/>
<polygon fill="midnightblue" stroke="midnightblue" points="913.6,-148.963 922.058,-142.582 911.467,-142.296 913.6,-148.963"/>
</g>
<!-- Node29 -->
<g id="node29" class="node"><title>Node29</title>
<g id="a_node29"><a xlink:href="../../d2/d3e/class_level1.html#a5f552e875916d0cf7a74896401584b2a" target="_top" xlink:title="Level1.updateTimer">
<polygon fill="white" stroke="black" points="897.5,-171.5 897.5,-190.5 1008.5,-190.5 1008.5,-171.5 897.5,-171.5"/>
<text text-anchor="middle" x="953" y="-178.5" font-family="Helvetica,sans-Serif" font-size="10.00">Level1.updateTimer</text>
</a>
</g>
</g>
<!-- Node11&#45;&gt;Node29 -->
<g id="edge36" class="edge"><title>Node11&#45;&gt;Node29</title>
<path fill="none" stroke="midnightblue" d="M858.281,-181C867.683,-181 877.504,-181 887.1,-181"/>
<polygon fill="midnightblue" stroke="midnightblue" points="887.394,-184.5 897.394,-181 887.394,-177.5 887.394,-184.5"/>
</g>
<!-- Node13 -->
<g id="node13" class="node"><title>Node13</title>
<g id="a_node13"><a xlink:href="../../d2/d3e/class_level1.html#a5e6976ef755d0e678034870e374ee4ca" target="_top" xlink:title="Level1.goGameOver">
<polygon fill="white" stroke="black" points="1064,-190.5 1064,-209.5 1178,-209.5 1178,-190.5 1064,-190.5"/>
<text text-anchor="middle" x="1121" y="-197.5" font-family="Helvetica,sans-Serif" font-size="10.00">Level1.goGameOver</text>
</a>
</g>
</g>
<!-- Node12&#45;&gt;Node13 -->
<g id="edge12" class="edge"><title>Node12&#45;&gt;Node13</title>
<path fill="none" stroke="midnightblue" d="M973.387,-142.561C984.683,-148.164 999.183,-155.414 1012,-162 1028.09,-170.268 1031.14,-174.427 1048,-181 1054.23,-183.43 1060.88,-185.654 1067.53,-187.655"/>
<polygon fill="midnightblue" stroke="midnightblue" points="1066.65,-191.042 1077.23,-190.427 1068.57,-184.312 1066.65,-191.042"/>
</g>
<!-- Node16 -->
<g id="node16" class="node"><title>Node16</title>
<g id="a_node16"><a xlink:href="../../d2/d3e/class_level1.html#ac56e75129bb2946c38cfcf43608f3f05" target="_top" xlink:title="Level1.goNextLevel">
<polygon fill="white" stroke="black" points="1066,-228.5 1066,-247.5 1176,-247.5 1176,-228.5 1066,-228.5"/>
<text text-anchor="middle" x="1121" y="-235.5" font-family="Helvetica,sans-Serif" font-size="10.00">Level1.goNextLevel</text>
</a>
</g>
</g>
<!-- Node12&#45;&gt;Node16 -->
<g id="edge16" class="edge"><title>Node12&#45;&gt;Node16</title>
<path fill="none" stroke="midnightblue" d="M980.41,-142.56C991.036,-147.286 1002.9,-153.766 1012,-162 1034.22,-182.105 1023.84,-201.281 1048,-219 1050.66,-220.949 1053.5,-222.699 1056.47,-224.269"/>
<polygon fill="midnightblue" stroke="midnightblue" points="1055.11,-227.498 1065.66,-228.462 1058.02,-221.129 1055.11,-227.498"/>
</g>
<!-- Node18 -->
<g id="node18" class="node"><title>Node18</title>
<g id="a_node18"><a xlink:href="../../dd/d7a/class_enemy.html#a9b6840dcc6b8165268e957fc43d95b06" target="_top" xlink:title="Enemy.makePoop">
<polygon fill="white" stroke="black" points="1070,-152.5 1070,-171.5 1172,-171.5 1172,-152.5 1070,-152.5"/>
<text text-anchor="middle" x="1121" y="-159.5" font-family="Helvetica,sans-Serif" font-size="10.00">Enemy.makePoop</text>
</a>
</g>
</g>
<!-- Node12&#45;&gt;Node18 -->
<g id="edge22" class="edge"><title>Node12&#45;&gt;Node18</title>
<path fill="none" stroke="midnightblue" d="M1008.81,-142.576C1025.08,-145.418 1042.99,-148.546 1059.59,-151.446"/>
<polygon fill="midnightblue" stroke="midnightblue" points="1059.28,-154.945 1069.73,-153.218 1060.48,-148.049 1059.28,-154.945"/>
</g>
<!-- Node20 -->
<g id="node20" class="node"><title>Node20</title>
<g id="a_node20"><a xlink:href="../../d8/d53/class_player.html#a1b7a0a6c68deb202a672d42e205d5a21" target="_top" xlink:title="Player.moveSprite">
<polygon fill="white" stroke="black" points="1069,-114.5 1069,-133.5 1173,-133.5 1173,-114.5 1069,-114.5"/>
<text text-anchor="middle" x="1121" y="-121.5" font-family="Helvetica,sans-Serif" font-size="10.00">Player.moveSprite</text>
</a>
</g>
</g>
<!-- Node12&#45;&gt;Node20 -->
<g id="edge24" class="edge"><title>Node12&#45;&gt;Node20</title>
<path fill="none" stroke="midnightblue" d="M1012.06,-129.852C1027.1,-129.037 1043.35,-128.156 1058.55,-127.331"/>
<polygon fill="midnightblue" stroke="midnightblue" points="1059.09,-130.807 1068.89,-126.771 1058.71,-123.818 1059.09,-130.807"/>
</g>
<!-- Node22 -->
<g id="node22" class="node"><title>Node22</title>
<g id="a_node22"><a xlink:href="../../dd/d7a/class_enemy.html#ab653212b50d9e64ba497ae18696d3678" target="_top" xlink:title="Enemy.moveSprite">
<polygon fill="white" stroke="black" points="1067.5,-76.5 1067.5,-95.5 1174.5,-95.5 1174.5,-76.5 1067.5,-76.5"/>
<text text-anchor="middle" x="1121" y="-83.5" font-family="Helvetica,sans-Serif" font-size="10.00">Enemy.moveSprite</text>
</a>
</g>
</g>
<!-- Node12&#45;&gt;Node22 -->
<g id="edge27" class="edge"><title>Node12&#45;&gt;Node22</title>
<path fill="none" stroke="midnightblue" d="M985.262,-123.419C1003.52,-117.893 1027.02,-110.893 1048,-105 1056.14,-102.714 1064.82,-100.356 1073.24,-98.1117"/>
<polygon fill="midnightblue" stroke="midnightblue" points="1074.17,-101.485 1082.94,-95.5407 1072.38,-94.7181 1074.17,-101.485"/>
</g>
<!-- Node24 -->
<g id="node24" class="node"><title>Node24</title>
<g id="a_node24"><a xlink:href="../../d2/d3e/class_level1.html#a5995ba731849ced54b8f97fcc93ce4d9" target="_top" xlink:title="Level1.removeFromScreen">
<polygon fill="white" stroke="black" points="1048.5,-38.5 1048.5,-57.5 1193.5,-57.5 1193.5,-38.5 1048.5,-38.5"/>
<text text-anchor="middle" x="1121" y="-45.5" font-family="Helvetica,sans-Serif" font-size="10.00">Level1.removeFromScreen</text>
</a>
</g>
</g>
<!-- Node12&#45;&gt;Node24 -->
<g id="edge31" class="edge"><title>Node12&#45;&gt;Node24</title>
<path fill="none" stroke="midnightblue" d="M964.773,-123.478C981.463,-109.202 1015.09,-82.2962 1048,-67 1053.06,-64.6502 1058.45,-62.5528 1063.93,-60.6896"/>
<polygon fill="midnightblue" stroke="midnightblue" points="1065.33,-63.9189 1073.82,-57.5848 1063.23,-57.2401 1065.33,-63.9189"/>
</g>
<!-- Node25 -->
<g id="node25" class="node"><title>Node25</title>
<g id="a_node25"><a xlink:href="../../d2/d3e/class_level1.html#aa75f107bf925594da75a1d82cf64044d" target="_top" xlink:title="Level1.returnCollisions">
<polygon fill="white" stroke="black" points="1059,-0.5 1059,-19.5 1183,-19.5 1183,-0.5 1059,-0.5"/>
<text text-anchor="middle" x="1121" y="-7.5" font-family="Helvetica,sans-Serif" font-size="10.00">Level1.returnCollisions</text>
</a>
</g>
</g>
<!-- Node12&#45;&gt;Node25 -->
<g id="edge32" class="edge"><title>Node12&#45;&gt;Node25</title>
<path fill="none" stroke="midnightblue" d="M959.951,-123.263C973.118,-102.569 1006.84,-54.0616 1048,-29 1051.6,-26.8065 1055.46,-24.8635 1059.44,-23.1427"/>
<polygon fill="midnightblue" stroke="midnightblue" points="1060.82,-26.3621 1068.91,-19.5178 1058.32,-19.8248 1060.82,-26.3621"/>
</g>
<!-- Node13&#45;&gt;Node7 -->
<g id="edge15" class="edge"><title>Node13&#45;&gt;Node7</title>
<path fill="none" stroke="midnightblue" d="M1162.59,-190.431C1208.76,-180.979 1286.29,-169.476 1352,-181 1378.54,-185.655 1407.21,-196.456 1427.88,-205.358"/>
<polygon fill="midnightblue" stroke="midnightblue" points="1426.49,-208.572 1437.05,-209.412 1429.32,-202.169 1426.49,-208.572"/>
</g>
<!-- Node14 -->
<g id="node14" class="node"><title>Node14</title>
<g id="a_node14"><a xlink:href="../../d2/d3e/class_level1.html#ac4098d447b9841cabec6be3bb719bd26" target="_top" xlink:title="Level1.clearElements">
<polygon fill="white" stroke="black" points="1231.5,-190.5 1231.5,-209.5 1350.5,-209.5 1350.5,-190.5 1231.5,-190.5"/>
<text text-anchor="middle" x="1291" y="-197.5" font-family="Helvetica,sans-Serif" font-size="10.00">Level1.clearElements</text>
</a>
</g>
</g>
<!-- Node13&#45;&gt;Node14 -->
<g id="edge13" class="edge"><title>Node13&#45;&gt;Node14</title>
<path fill="none" stroke="midnightblue" d="M1178.41,-200C1192.14,-200 1206.98,-200 1221.21,-200"/>
<polygon fill="midnightblue" stroke="midnightblue" points="1221.44,-203.5 1231.44,-200 1221.44,-196.5 1221.44,-203.5"/>
</g>
<!-- Node15 -->
<g id="node15" class="node"><title>Node15</title>
<g id="a_node15"><a xlink:href="../../d7/da7/class_character.html#a4dc23a76b34bcbb84abba1b116847268" target="_top" xlink:title="Character.getHP">
<polygon fill="white" stroke="black" points="1243.5,-228.5 1243.5,-247.5 1338.5,-247.5 1338.5,-228.5 1243.5,-228.5"/>
<text text-anchor="middle" x="1291" y="-235.5" font-family="Helvetica,sans-Serif" font-size="10.00">Character.getHP</text>
</a>
</g>
</g>
<!-- Node13&#45;&gt;Node15 -->
<g id="edge14" class="edge"><title>Node13&#45;&gt;Node15</title>
<path fill="none" stroke="midnightblue" d="M1164.39,-209.589C1186.76,-214.649 1214.4,-220.9 1238.05,-226.249"/>
<polygon fill="midnightblue" stroke="midnightblue" points="1237.39,-229.687 1247.91,-228.48 1238.93,-222.86 1237.39,-229.687"/>
</g>
<!-- Node16&#45;&gt;Node6 -->
<g id="edge20" class="edge"><title>Node16&#45;&gt;Node6</title>
<path fill="none" stroke="midnightblue" d="M1138.03,-247.627C1158.74,-259.792 1196.16,-280.847 1230,-295 1235.36,-297.242 1241.08,-299.372 1246.78,-301.34"/>
<polygon fill="midnightblue" stroke="midnightblue" points="1245.7,-304.669 1256.29,-304.491 1247.9,-298.024 1245.7,-304.669"/>
</g>
<!-- Node16&#45;&gt;Node10 -->
<g id="edge21" class="edge"><title>Node16&#45;&gt;Node10</title>
<path fill="none" stroke="midnightblue" d="M1065.74,-238C976.614,-238 800.848,-238 717.678,-238"/>
<polygon fill="midnightblue" stroke="midnightblue" points="717.528,-234.5 707.528,-238 717.528,-241.5 717.528,-234.5"/>
</g>
<!-- Node16&#45;&gt;Node14 -->
<g id="edge17" class="edge"><title>Node16&#45;&gt;Node14</title>
<path fill="none" stroke="midnightblue" d="M1164.39,-228.411C1186.76,-223.351 1214.4,-217.1 1238.05,-211.751"/>
<polygon fill="midnightblue" stroke="midnightblue" points="1238.93,-215.14 1247.91,-209.52 1237.39,-208.313 1238.93,-215.14"/>
</g>
<!-- Node16&#45;&gt;Node15 -->
<g id="edge18" class="edge"><title>Node16&#45;&gt;Node15</title>
<path fill="none" stroke="midnightblue" d="M1176.08,-238C1194.37,-238 1214.84,-238 1233.33,-238"/>
<polygon fill="midnightblue" stroke="midnightblue" points="1233.37,-241.5 1243.37,-238 1233.37,-234.5 1233.37,-241.5"/>
</g>
<!-- Node17 -->
<g id="node17" class="node"><title>Node17</title>
<g id="a_node17"><a xlink:href="../../dd/d7a/class_enemy.html#a0b00e167bc151db783054dddb2f9b509" target="_top" xlink:title="Enemy.makeAngry">
<polygon fill="white" stroke="black" points="1238,-266.5 1238,-285.5 1344,-285.5 1344,-266.5 1238,-266.5"/>
<text text-anchor="middle" x="1291" y="-273.5" font-family="Helvetica,sans-Serif" font-size="10.00">Enemy.makeAngry</text>
</a>
</g>
</g>
<!-- Node16&#45;&gt;Node17 -->
<g id="edge19" class="edge"><title>Node16&#45;&gt;Node17</title>
<path fill="none" stroke="midnightblue" d="M1164.39,-247.589C1186.76,-252.649 1214.4,-258.9 1238.05,-264.249"/>
<polygon fill="midnightblue" stroke="midnightblue" points="1237.39,-267.687 1247.91,-266.48 1238.93,-260.86 1237.39,-267.687"/>
</g>
<!-- Node19 -->
<g id="node19" class="node"><title>Node19</title>
<g id="a_node19"><a xlink:href="../../d7/dbf/class_sprite.html#accdf1c21264c6ff648ece508cf176bfb" target="_top" xlink:title="Sprite.setVelocity">
<polygon fill="white" stroke="black" points="1241,-114.5 1241,-133.5 1341,-133.5 1341,-114.5 1241,-114.5"/>
<text text-anchor="middle" x="1291" y="-121.5" font-family="Helvetica,sans-Serif" font-size="10.00">Sprite.setVelocity</text>
</a>
</g>
</g>
<!-- Node18&#45;&gt;Node19 -->
<g id="edge23" class="edge"><title>Node18&#45;&gt;Node19</title>
<path fill="none" stroke="midnightblue" d="M1164.39,-152.411C1186.76,-147.351 1214.4,-141.1 1238.05,-135.751"/>
<polygon fill="midnightblue" stroke="midnightblue" points="1238.93,-139.14 1247.91,-133.52 1237.39,-132.313 1238.93,-139.14"/>
</g>
<!-- Node20&#45;&gt;Node19 -->
<g id="edge25" class="edge"><title>Node20&#45;&gt;Node19</title>
<path fill="none" stroke="midnightblue" d="M1173.32,-124C1191.39,-124 1211.86,-124 1230.55,-124"/>
<polygon fill="midnightblue" stroke="midnightblue" points="1230.72,-127.5 1240.72,-124 1230.72,-120.5 1230.72,-127.5"/>
</g>
<!-- Node21 -->
<g id="node21" class="node"><title>Node21</title>
<g id="a_node21"><a xlink:href="../../d7/dbf/class_sprite.html#ab8f846b7ba77ae72ad09f48da22ceea7" target="_top" xlink:title="Sprite.moveSprite">
<polygon fill="white" stroke="black" points="1239,-76.5 1239,-95.5 1343,-95.5 1343,-76.5 1239,-76.5"/>
<text text-anchor="middle" x="1291" y="-83.5" font-family="Helvetica,sans-Serif" font-size="10.00">Sprite.moveSprite</text>
</a>
</g>
</g>
<!-- Node20&#45;&gt;Node21 -->
<g id="edge26" class="edge"><title>Node20&#45;&gt;Node21</title>
<path fill="none" stroke="midnightblue" d="M1164.39,-114.411C1186.76,-109.351 1214.4,-103.1 1238.05,-97.7512"/>
<polygon fill="midnightblue" stroke="midnightblue" points="1238.93,-101.14 1247.91,-95.5201 1237.39,-94.3125 1238.93,-101.14"/>
</g>
<!-- Node22&#45;&gt;Node19 -->
<g id="edge30" class="edge"><title>Node22&#45;&gt;Node19</title>
<path fill="none" stroke="midnightblue" d="M1164.39,-95.589C1186.76,-100.649 1214.4,-106.9 1238.05,-112.249"/>
<polygon fill="midnightblue" stroke="midnightblue" points="1237.39,-115.687 1247.91,-114.48 1238.93,-108.86 1237.39,-115.687"/>
</g>
<!-- Node22&#45;&gt;Node21 -->
<g id="edge29" class="edge"><title>Node22&#45;&gt;Node21</title>
<path fill="none" stroke="midnightblue" d="M1174.7,-86C1191.83,-86 1210.99,-86 1228.7,-86"/>
<polygon fill="midnightblue" stroke="midnightblue" points="1228.93,-89.5001 1238.93,-86 1228.93,-82.5001 1228.93,-89.5001"/>
</g>
<!-- Node23 -->
<g id="node23" class="node"><title>Node23</title>
<g id="a_node23"><a xlink:href="../../d7/dbf/class_sprite.html#a4dd4a643703de09c632a0e7d70a570e7" target="_top" xlink:title="Sprite.getVelocity">
<polygon fill="white" stroke="black" points="1240.5,-38.5 1240.5,-57.5 1341.5,-57.5 1341.5,-38.5 1240.5,-38.5"/>
<text text-anchor="middle" x="1291" y="-45.5" font-family="Helvetica,sans-Serif" font-size="10.00">Sprite.getVelocity</text>
</a>
</g>
</g>
<!-- Node22&#45;&gt;Node23 -->
<g id="edge28" class="edge"><title>Node22&#45;&gt;Node23</title>
<path fill="none" stroke="midnightblue" d="M1164.39,-76.411C1186.76,-71.3513 1214.4,-65.1004 1238.05,-59.7512"/>
<polygon fill="midnightblue" stroke="midnightblue" points="1238.93,-63.1401 1247.91,-57.5201 1237.39,-56.3125 1238.93,-63.1401"/>
</g>
<!-- Node26 -->
<g id="node26" class="node"><title>Node26</title>
<g id="a_node26"><a xlink:href="../../d7/da7/class_character.html#aa2149c166e797ae0ded67d9f768ac7f3" target="_top" xlink:title="Character.updateAll">
<polygon fill="white" stroke="black" points="1235.5,-0.5 1235.5,-19.5 1346.5,-19.5 1346.5,-0.5 1235.5,-0.5"/>
<text text-anchor="middle" x="1291" y="-7.5" font-family="Helvetica,sans-Serif" font-size="10.00">Character.updateAll</text>
</a>
</g>
</g>
<!-- Node25&#45;&gt;Node26 -->
<g id="edge33" class="edge"><title>Node25&#45;&gt;Node26</title>
<path fill="none" stroke="midnightblue" d="M1183.13,-10C1196.73,-10 1211.21,-10 1224.96,-10"/>
<polygon fill="midnightblue" stroke="midnightblue" points="1225.32,-13.5001 1235.32,-10 1225.32,-6.5001 1225.32,-13.5001"/>
</g>
<!-- Node27 -->
<g id="node27" class="node"><title>Node27</title>
<g id="a_node27"><a xlink:href="../../d7/da7/class_character.html#ade25acccb27ac9aeb2752b2df29d075f" target="_top" xlink:title="Character.collisionUpdate">
<polygon fill="white" stroke="black" points="1388.5,-0.5 1388.5,-19.5 1527.5,-19.5 1527.5,-0.5 1388.5,-0.5"/>
<text text-anchor="middle" x="1458" y="-7.5" font-family="Helvetica,sans-Serif" font-size="10.00">Character.collisionUpdate</text>
</a>
</g>
</g>
<!-- Node26&#45;&gt;Node27 -->
<g id="edge34" class="edge"><title>Node26&#45;&gt;Node27</title>
<path fill="none" stroke="midnightblue" d="M1346.94,-10C1357.03,-10 1367.74,-10 1378.36,-10"/>
<polygon fill="midnightblue" stroke="midnightblue" points="1378.5,-13.5001 1388.5,-10 1378.5,-6.5001 1378.5,-13.5001"/>
</g>
<!-- Node28 -->
<g id="node28" class="node"><title>Node28</title>
<g id="a_node28"><a xlink:href="../../d7/da7/class_character.html#ad223fcb54929116326bf8816d43f5173" target="_top" xlink:title="Character.checkCollide">
<polygon fill="white" stroke="black" points="1564.5,-0.5 1564.5,-19.5 1689.5,-19.5 1689.5,-0.5 1564.5,-0.5"/>
<text text-anchor="middle" x="1627" y="-7.5" font-family="Helvetica,sans-Serif" font-size="10.00">Character.checkCollide</text>
</a>
</g>
</g>
<!-- Node27&#45;&gt;Node28 -->
<g id="edge35" class="edge"><title>Node27&#45;&gt;Node28</title>
<path fill="none" stroke="midnightblue" d="M1527.89,-10C1536.61,-10 1545.54,-10 1554.31,-10"/>
<polygon fill="midnightblue" stroke="midnightblue" points="1554.48,-13.5001 1564.48,-10 1554.48,-6.5001 1554.48,-13.5001"/>
</g>
<!-- Node31 -->
<g id="node31" class="node"><title>Node31</title>
<g id="a_node31"><a xlink:href="../../d2/db8/class_menu.html#ae7a84dff285d306f8f11489072b94870" target="_top" xlink:title="Menu.addText">
<polygon fill="white" stroke="black" points="252.5,-209.5 252.5,-228.5 335.5,-228.5 335.5,-209.5 252.5,-209.5"/>
<text text-anchor="middle" x="294" y="-216.5" font-family="Helvetica,sans-Serif" font-size="10.00">Menu.addText</text>
</a>
</g>
</g>
<!-- Node30&#45;&gt;Node31 -->
<g id="edge38" class="edge"><title>Node30&#45;&gt;Node31</title>
<path fill="none" stroke="midnightblue" d="M200.285,-219C213.627,-219 228.258,-219 241.876,-219"/>
<polygon fill="midnightblue" stroke="midnightblue" points="242.053,-222.5 252.053,-219 242.053,-215.5 242.053,-222.5"/>
</g>
</g>
</svg>
        <g id="navigator" transform="translate(0 0)" fill="#404254">
                <rect fill="#f2f5e9" fill-opacity="0.5" stroke="#606060" stroke-width=".5" x="0" y="0" width="60" height="60"/>
                <use id="zoomplus" xlink:href="#zoomPlus" x="17" y="9" onmousedown="handleZoom(evt,'in')"/>
                <use id="zoomminus" xlink:href="#zoomMin" x="42" y="9" onmousedown="handleZoom(evt,'out')"/>
                <use id="reset" xlink:href="#resetDef" x="30" y="36" onmousedown="handleReset()"/>
                <g id="arrowUp" xlink:href="#dirArrow" transform="translate(30 24)" onmousedown="handlePan(0,-1)">
                  <use xlink:href="#rim" fill="#404040">
                        <set attributeName="fill" to="#808080" begin="arrowUp.mouseover" end="arrowUp.mouseout"/>
                  </use>
                  <path fill="none" stroke="white" stroke-width="1.5" d="M0,-3.0v7 M-2.5,-0.5L0,-3.0L2.5,-0.5"/>
                </g>
                <g id="arrowRight" xlink:href="#dirArrow" transform="rotate(90) translate(36 -43)" onmousedown="handlePan(1,0)">
                  <use xlink:href="#rim" fill="#404040">
                        <set attributeName="fill" to="#808080" begin="arrowRight.mouseover" end="arrowRight.mouseout"/>
                  </use>
                  <path fill="none" stroke="white" stroke-width="1.5" d="M0,-3.0v7 M-2.5,-0.5L0,-3.0L2.5,-0.5"/>
                </g>
                <g id="arrowDown" xlink:href="#dirArrow" transform="rotate(180) translate(-30 -48)" onmousedown="handlePan(0,1)">
                  <use xlink:href="#rim" fill="#404040">
                        <set attributeName="fill" to="#808080" begin="arrowDown.mouseover" end="arrowDown.mouseout"/>
                  </use>
                  <path fill="none" stroke="white" stroke-width="1.5" d="M0,-3.0v7 M-2.5,-0.5L0,-3.0L2.5,-0.5"/>
                </g>
                <g id="arrowLeft" xlink:href="#dirArrow" transform="rotate(270) translate(-36 17)" onmousedown="handlePan(-1,0)">
                  <use xlink:href="#rim" fill="#404040">
                        <set attributeName="fill" to="#808080" begin="arrowLeft.mouseover" end="arrowLeft.mouseout"/>
                  </use>
                  <path fill="none" stroke="white" stroke-width="1.5" d="M0,-3.0v7 M-2.5,-0.5L0,-3.0L2.5,-0.5"/>
                </g>
        </g>
        <svg viewBox="0 0 15 15" width="100%" height="30px" preserveAspectRatio="xMaxYMin meet">
         <g id="arrow_out" transform="scale(0.3 0.3)">
          <a xlink:href="class_menu_a3c99ad09e9f2f975c1a0d0597642651a_cgraph_org.svg" target="_base">
           <rect id="button" ry="5" rx="5" y="6" x="6" height="38" width="38"
                fill="#f2f5e9" fill-opacity="0.5" stroke="#606060" stroke-width="1.0"/>
           <path id="arrow"
             d="M 11.500037,31.436501 C 11.940474,20.09759 22.043105,11.32322 32.158766,21.979434 L 37.068811,17.246167 C 37.068811,17.246167 37.088388,32 37.088388,32 L 22.160133,31.978069 C 22.160133,31.978069 26.997745,27.140456 26.997745,27.140456 C 18.528582,18.264221 13.291696,25.230495 11.500037,31.436501 z"
             style="fill:#404040;"/>
          </a>
         </g>
        </svg>
</svg>
