<?xml version="1.0" encoding="UTF-8" standalone="no"?>
<!DOCTYPE svg PUBLIC "-//W3C//DTD SVG 1.1//EN"
 "http://www.w3.org/Graphics/SVG/1.1/DTD/svg11.dtd">
<!-- Generated by graphviz version 2.36.0 (20140111.2315)
 -->
<!-- Title: Menu.addText Pages: 1 -->
<svg width="344pt" height="104pt"
 viewBox="0.00 0.00 344.00 104.00" xmlns="http://www.w3.org/2000/svg" xmlns:xlink="http://www.w3.org/1999/xlink">
<g id="graph0" class="graph" transform="scale(1 1) rotate(0) translate(4 100)">
<title>Menu.addText</title>
<polygon fill="white" stroke="none" points="-4,4 -4,-100 340,-100 340,4 -4,4"/>
<!-- Node1 -->
<g id="node1" class="node"><title>Node1</title>
<polygon fill="#bfbfbf" stroke="black" points="0.5,-38.5 0.5,-57.5 83.5,-57.5 83.5,-38.5 0.5,-38.5"/>
<text text-anchor="middle" x="42" y="-45.5" font-family="Helvetica,sans-Serif" font-size="10.00">Menu.addText</text>
</g>
<!-- Node2 -->
<g id="node2" class="node"><title>Node2</title>
<g id="a_node2"><a xlink:href="../../dd/d7f/class_game_win.html#a6f1b4a33a891f68be45645a8a48160ee" target="_top" xlink:title="GameWin.addAllText">
<polygon fill="white" stroke="black" points="123.5,-76.5 123.5,-95.5 236.5,-95.5 236.5,-76.5 123.5,-76.5"/>
<text text-anchor="middle" x="180" y="-83.5" font-family="Helvetica,sans-Serif" font-size="10.00">GameWin.addAllText</text>
</a>
</g>
</g>
<!-- Node1&#45;&gt;Node2 -->
<g id="edge1" class="edge"><title>Node1&#45;&gt;Node2</title>
<path fill="none" stroke="midnightblue" d="M87.0866,-60.3183C105.772,-65.5393 127.218,-71.5316 144.692,-76.4141"/>
<polygon fill="midnightblue" stroke="midnightblue" points="87.8915,-56.9092 77.3185,-57.589 86.0078,-63.651 87.8915,-56.9092"/>
</g>
<!-- Node3 -->
<g id="node3" class="node"><title>Node3</title>
<g id="a_node3"><a xlink:href="../../d5/db1/class_game_over.html#a56532bb1e6900777117530bf53929e98" target="_top" xlink:title="GameOver.addAllText">
<polygon fill="white" stroke="black" points="120.5,-38.5 120.5,-57.5 239.5,-57.5 239.5,-38.5 120.5,-38.5"/>
<text text-anchor="middle" x="180" y="-45.5" font-family="Helvetica,sans-Serif" font-size="10.00">GameOver.addAllText</text>
</a>
</g>
</g>
<!-- Node1&#45;&gt;Node3 -->
<g id="edge2" class="edge"><title>Node1&#45;&gt;Node3</title>
<path fill="none" stroke="midnightblue" d="M94.0498,-48C102.639,-48 111.613,-48 120.376,-48"/>
<polygon fill="midnightblue" stroke="midnightblue" points="93.8045,-44.5001 83.8045,-48 93.8045,-51.5001 93.8045,-44.5001"/>
</g>
<!-- Node4 -->
<g id="node4" class="node"><title>Node4</title>
<g id="a_node4"><a xlink:href="../../d2/db8/class_menu.html#a4f437319f17d0d8c4169c8f8ba481ba7" target="_top" xlink:title="Menu.addAllText">
<polygon fill="white" stroke="black" points="133,-0.5 133,-19.5 227,-19.5 227,-0.5 133,-0.5"/>
<text text-anchor="middle" x="180" y="-7.5" font-family="Helvetica,sans-Serif" font-size="10.00">Menu.addAllText</text>
</a>
</g>
</g>
<!-- Node1&#45;&gt;Node4 -->
<g id="edge3" class="edge"><title>Node1&#45;&gt;Node4</title>
<path fill="none" stroke="midnightblue" d="M87.0866,-35.6817C105.772,-30.4607 127.218,-24.4684 144.692,-19.5859"/>
<polygon fill="midnightblue" stroke="midnightblue" points="86.0078,-32.349 77.3185,-38.411 87.8915,-39.0908 86.0078,-32.349"/>
</g>
<!-- Node5 -->
<g id="node5" class="node"><title>Node5</title>
<g id="a_node5"><a xlink:href="../../d2/db8/class_menu.html#a3c99ad09e9f2f975c1a0d0597642651a" target="_top" xlink:title="Menu.init">
<polygon fill="white" stroke="black" points="276,-0.5 276,-19.5 336,-19.5 336,-0.5 276,-0.5"/>
<text text-anchor="middle" x="306" y="-7.5" font-family="Helvetica,sans-Serif" font-size="10.00">Menu.init</text>
</a>
</g>
</g>
<!-- Node4&#45;&gt;Node5 -->
<g id="edge4" class="edge"><title>Node4&#45;&gt;Node5</title>
<path fill="none" stroke="midnightblue" d="M237.227,-10C250.519,-10 264.168,-10 275.702,-10"/>
<polygon fill="midnightblue" stroke="midnightblue" points="237.173,-6.5001 227.173,-10 237.173,-13.5001 237.173,-6.5001"/>
</g>
</g>
</svg>
