<?xml version="1.0" encoding="UTF-8" standalone="no"?>
<!DOCTYPE svg PUBLIC "-//W3C//DTD SVG 1.1//EN"
 "http://www.w3.org/Graphics/SVG/1.1/DTD/svg11.dtd">
<!-- Generated by graphviz version 2.36.0 (20140111.2315)
 -->
<!-- Title: Character.getHP Pages: 1 -->
<svg width="1330pt" height="113pt"
 viewBox="0.00 0.00 1330.00 113.00" xmlns="http://www.w3.org/2000/svg" xmlns:xlink="http://www.w3.org/1999/xlink">
<g id="graph0" class="graph" transform="scale(1 1) rotate(0) translate(4 109)">
<title>Character.getHP</title>
<polygon fill="white" stroke="none" points="-4,4 -4,-109 1326,-109 1326,4 -4,4"/>
<!-- Node1 -->
<g id="node1" class="node"><title>Node1</title>
<polygon fill="#bfbfbf" stroke="black" points="0.5,-9.5 0.5,-28.5 95.5,-28.5 95.5,-9.5 0.5,-9.5"/>
<text text-anchor="middle" x="48" y="-16.5" font-family="Helvetica,sans-Serif" font-size="10.00">Character.getHP</text>
</g>
<!-- Node2 -->
<g id="node2" class="node"><title>Node2</title>
<g id="a_node2"><a xlink:href="../../d2/d3e/class_level1.html#a5e6976ef755d0e678034870e374ee4ca" target="_top" xlink:title="Level1.goGameOver">
<polygon fill="white" stroke="black" points="132,-28.5 132,-47.5 246,-47.5 246,-28.5 132,-28.5"/>
<text text-anchor="middle" x="189" y="-35.5" font-family="Helvetica,sans-Serif" font-size="10.00">Level1.goGameOver</text>
</a>
</g>
</g>
<!-- Node1&#45;&gt;Node2 -->
<g id="edge1" class="edge"><title>Node1&#45;&gt;Node2</title>
<path fill="none" stroke="midnightblue" d="M105.857,-26.7719C114.343,-27.9318 123.088,-29.1272 131.565,-30.2859"/>
<polygon fill="midnightblue" stroke="midnightblue" points="106.054,-23.2662 95.6717,-25.3796 105.105,-30.2017 106.054,-23.2662"/>
</g>
<!-- Node6 -->
<g id="node6" class="node"><title>Node6</title>
<g id="a_node6"><a xlink:href="../../d2/d3e/class_level1.html#ac56e75129bb2946c38cfcf43608f3f05" target="_top" xlink:title="Level1.goNextLevel">
<polygon fill="white" stroke="black" points="696,-28.5 696,-47.5 806,-47.5 806,-28.5 696,-28.5"/>
<text text-anchor="middle" x="751" y="-35.5" font-family="Helvetica,sans-Serif" font-size="10.00">Level1.goNextLevel</text>
</a>
</g>
</g>
<!-- Node1&#45;&gt;Node6 -->
<g id="edge13" class="edge"><title>Node1&#45;&gt;Node6</title>
<path fill="none" stroke="midnightblue" d="M105.718,-13.1006C164.314,-7.52228 258.448,-7.10543e-15 340,-0 340,-0 340,-0 494,-0 571.282,-0 660.279,-17.1538 710.362,-28.411"/>
<polygon fill="midnightblue" stroke="midnightblue" points="105.175,-9.63665 95.5584,-14.0823 105.849,-16.6042 105.175,-9.63665"/>
</g>
<!-- Node3 -->
<g id="node3" class="node"><title>Node3</title>
<g id="a_node3"><a xlink:href="../../d2/d3e/class_level1.html#a78a7fb5633734b1815af8db43db23a41" target="_top" xlink:title="Level1.updateSprites">
<polygon fill="white" stroke="black" points="282,-28.5 282,-47.5 400,-47.5 400,-28.5 282,-28.5"/>
<text text-anchor="middle" x="341" y="-35.5" font-family="Helvetica,sans-Serif" font-size="10.00">Level1.updateSprites</text>
</a>
</g>
</g>
<!-- Node2&#45;&gt;Node3 -->
<g id="edge2" class="edge"><title>Node2&#45;&gt;Node3</title>
<path fill="none" stroke="midnightblue" d="M256.505,-38C264.971,-38 273.583,-38 281.902,-38"/>
<polygon fill="midnightblue" stroke="midnightblue" points="256.281,-34.5001 246.281,-38 256.281,-41.5001 256.281,-34.5001"/>
</g>
<!-- Node4 -->
<g id="node4" class="node"><title>Node4</title>
<g id="a_node4"><a xlink:href="../../d2/d3e/class_level1.html#a324da1e22a7a87fa4bb1859b5774bdba" target="_top" xlink:title="Level1.updateFrame">
<polygon fill="white" stroke="black" points="436,-66.5 436,-85.5 550,-85.5 550,-66.5 436,-66.5"/>
<text text-anchor="middle" x="493" y="-73.5" font-family="Helvetica,sans-Serif" font-size="10.00">Level1.updateFrame</text>
</a>
</g>
</g>
<!-- Node3&#45;&gt;Node4 -->
<g id="edge3" class="edge"><title>Node3&#45;&gt;Node4</title>
<path fill="none" stroke="midnightblue" d="M389.811,-50.1121C410.702,-55.4044 434.847,-61.5213 454.421,-66.4799"/>
<polygon fill="midnightblue" stroke="midnightblue" points="390.405,-46.652 379.851,-47.589 388.686,-53.4377 390.405,-46.652"/>
</g>
<!-- Node5 -->
<g id="node5" class="node"><title>Node5</title>
<g id="a_node5"><a xlink:href="../../d2/d3e/class_level1.html#a0871325d07c0614d5f1f2df7df13b703" target="_top" xlink:title="Level1.start">
<polygon fill="white" stroke="black" points="586.5,-66.5 586.5,-85.5 659.5,-85.5 659.5,-66.5 586.5,-66.5"/>
<text text-anchor="middle" x="623" y="-73.5" font-family="Helvetica,sans-Serif" font-size="10.00">Level1.start</text>
</a>
</g>
</g>
<!-- Node4&#45;&gt;Node5 -->
<g id="edge4" class="edge"><title>Node4&#45;&gt;Node5</title>
<path fill="none" stroke="midnightblue" d="M560.221,-76C569.159,-76 578.039,-76 586.163,-76"/>
<polygon fill="midnightblue" stroke="midnightblue" points="560.143,-72.5001 550.143,-76 560.143,-79.5001 560.143,-72.5001"/>
</g>
<!-- Node5&#45;&gt;Node6 -->
<g id="edge5" class="edge"><title>Node5&#45;&gt;Node6</title>
<path fill="none" stroke="midnightblue" d="M665.564,-63.4647C682.705,-58.2952 702.25,-52.4009 718.215,-47.5859"/>
<polygon fill="midnightblue" stroke="midnightblue" points="664.359,-60.1726 655.795,-66.411 666.38,-66.8744 664.359,-60.1726"/>
</g>
<!-- Node7 -->
<g id="node7" class="node"><title>Node7</title>
<g id="a_node7"><a xlink:href="../../d2/db8/class_menu.html#ab6296880308728ced459f772430d025b" target="_top" xlink:title="Menu.createGame">
<polygon fill="white" stroke="black" points="698,-66.5 698,-85.5 804,-85.5 804,-66.5 698,-66.5"/>
<text text-anchor="middle" x="751" y="-73.5" font-family="Helvetica,sans-Serif" font-size="10.00">Menu.createGame</text>
</a>
</g>
</g>
<!-- Node5&#45;&gt;Node7 -->
<g id="edge7" class="edge"><title>Node5&#45;&gt;Node7</title>
<path fill="none" stroke="midnightblue" d="M670.04,-76C679.024,-76 688.506,-76 697.676,-76"/>
<polygon fill="midnightblue" stroke="midnightblue" points="669.77,-72.5001 659.77,-76 669.769,-79.5001 669.77,-72.5001"/>
</g>
<!-- Node6&#45;&gt;Node3 -->
<g id="edge6" class="edge"><title>Node6&#45;&gt;Node3</title>
<path fill="none" stroke="midnightblue" d="M685.511,-38C606.981,-38 475.505,-38 400.023,-38"/>
<polygon fill="midnightblue" stroke="midnightblue" points="685.759,-41.5001 695.759,-38 685.759,-34.5001 685.759,-41.5001"/>
</g>
<!-- Node8 -->
<g id="node8" class="node"><title>Node8</title>
<g id="a_node8"><a xlink:href="../../d2/db8/class_menu.html#a53c8b072d5ec777994fed9ee76c98561" target="_top" xlink:title="Menu.handle">
<polygon fill="white" stroke="black" points="842,-66.5 842,-85.5 920,-85.5 920,-66.5 842,-66.5"/>
<text text-anchor="middle" x="881" y="-73.5" font-family="Helvetica,sans-Serif" font-size="10.00">Menu.handle</text>
</a>
</g>
</g>
<!-- Node7&#45;&gt;Node8 -->
<g id="edge8" class="edge"><title>Node7&#45;&gt;Node8</title>
<path fill="none" stroke="midnightblue" d="M814.198,-76C823.592,-76 833.038,-76 841.726,-76"/>
<polygon fill="midnightblue" stroke="midnightblue" points="814.063,-72.5001 804.062,-76 814.062,-79.5001 814.063,-72.5001"/>
</g>
<!-- Node9 -->
<g id="node9" class="node"><title>Node9</title>
<g id="a_node9"><a xlink:href="../../d2/db8/class_menu.html#aff7a7627619921545f94547ab6135007" target="_top" xlink:title="Menu.addButton">
<polygon fill="white" stroke="black" points="956,-66.5 956,-85.5 1052,-85.5 1052,-66.5 956,-66.5"/>
<text text-anchor="middle" x="1004" y="-73.5" font-family="Helvetica,sans-Serif" font-size="10.00">Menu.addButton</text>
</a>
</g>
</g>
<!-- Node8&#45;&gt;Node9 -->
<g id="edge9" class="edge"><title>Node8&#45;&gt;Node9</title>
<path fill="none" stroke="midnightblue" d="M930.539,-76C938.803,-76 947.377,-76 955.612,-76"/>
<polygon fill="midnightblue" stroke="midnightblue" points="930.285,-72.5001 920.285,-76 930.285,-79.5001 930.285,-72.5001"/>
</g>
<!-- Node10 -->
<g id="node10" class="node"><title>Node10</title>
<g id="a_node10"><a xlink:href="../../d5/db1/class_game_over.html#abb505ac8c26999beff755f4c299370da" target="_top" xlink:title="GameOver.addAllButtons">
<polygon fill="white" stroke="black" points="1088.5,-85.5 1088.5,-104.5 1225.5,-104.5 1225.5,-85.5 1088.5,-85.5"/>
<text text-anchor="middle" x="1157" y="-92.5" font-family="Helvetica,sans-Serif" font-size="10.00">GameOver.addAllButtons</text>
</a>
</g>
</g>
<!-- Node9&#45;&gt;Node10 -->
<g id="edge10" class="edge"><title>Node9&#45;&gt;Node10</title>
<path fill="none" stroke="midnightblue" d="M1062.48,-83.2331C1070.94,-84.2966 1079.71,-85.4005 1088.34,-86.4869"/>
<polygon fill="midnightblue" stroke="midnightblue" points="1062.72,-79.7355 1052.36,-81.9596 1061.85,-86.6807 1062.72,-79.7355"/>
</g>
<!-- Node11 -->
<g id="node11" class="node"><title>Node11</title>
<g id="a_node11"><a xlink:href="../../d2/db8/class_menu.html#a461e62e606af2391013ce3aaf92a8cc7" target="_top" xlink:title="Menu.addAllButtons">
<polygon fill="white" stroke="black" points="1100.5,-47.5 1100.5,-66.5 1213.5,-66.5 1213.5,-47.5 1100.5,-47.5"/>
<text text-anchor="middle" x="1157" y="-54.5" font-family="Helvetica,sans-Serif" font-size="10.00">Menu.addAllButtons</text>
</a>
</g>
</g>
<!-- Node9&#45;&gt;Node11 -->
<g id="edge11" class="edge"><title>Node9&#45;&gt;Node11</title>
<path fill="none" stroke="midnightblue" d="M1062.58,-68.7552C1074.96,-67.1965 1088.04,-65.5517 1100.35,-64.0024"/>
<polygon fill="midnightblue" stroke="midnightblue" points="1061.85,-65.3193 1052.36,-70.0404 1062.72,-72.2645 1061.85,-65.3193"/>
</g>
<!-- Node12 -->
<g id="node12" class="node"><title>Node12</title>
<g id="a_node12"><a xlink:href="../../d2/db8/class_menu.html#a3c99ad09e9f2f975c1a0d0597642651a" target="_top" xlink:title="Menu.init">
<polygon fill="white" stroke="black" points="1262,-47.5 1262,-66.5 1322,-66.5 1322,-47.5 1262,-47.5"/>
<text text-anchor="middle" x="1292" y="-54.5" font-family="Helvetica,sans-Serif" font-size="10.00">Menu.init</text>
</a>
</g>
</g>
<!-- Node11&#45;&gt;Node12 -->
<g id="edge12" class="edge"><title>Node11&#45;&gt;Node12</title>
<path fill="none" stroke="midnightblue" d="M1223.78,-57C1237.09,-57 1250.45,-57 1261.71,-57"/>
<polygon fill="midnightblue" stroke="midnightblue" points="1223.63,-53.5001 1213.63,-57 1223.63,-60.5001 1223.63,-53.5001"/>
</g>
</g>
</svg>
