<?xml version="1.0" encoding="UTF-8" standalone="no"?>
<!DOCTYPE svg PUBLIC "-//W3C//DTD SVG 1.1//EN"
 "http://www.w3.org/Graphics/SVG/1.1/DTD/svg11.dtd">
<!-- Generated by graphviz version 2.36.0 (20140111.2315)
 -->
<!-- Title: Character.checkCollide Pages: 1 -->
<svg width="1694pt" height="104pt"
 viewBox="0.00 0.00 1694.00 104.00" xmlns="http://www.w3.org/2000/svg" xmlns:xlink="http://www.w3.org/1999/xlink">
<g id="graph0" class="graph" transform="scale(1 1) rotate(0) translate(4 100)">
<title>Character.checkCollide</title>
<polygon fill="white" stroke="none" points="-4,4 -4,-100 1690,-100 1690,4 -4,4"/>
<!-- Node1 -->
<g id="node1" class="node"><title>Node1</title>
<polygon fill="#bfbfbf" stroke="black" points="0.5,-19.5 0.5,-38.5 125.5,-38.5 125.5,-19.5 0.5,-19.5"/>
<text text-anchor="middle" x="63" y="-26.5" font-family="Helvetica,sans-Serif" font-size="10.00">Character.checkCollide</text>
</g>
<!-- Node2 -->
<g id="node2" class="node"><title>Node2</title>
<g id="a_node2"><a xlink:href="../../d7/da7/class_character.html#ade25acccb27ac9aeb2752b2df29d075f" target="_top" xlink:title="Character.collisionUpdate">
<polygon fill="white" stroke="black" points="162.5,-19.5 162.5,-38.5 301.5,-38.5 301.5,-19.5 162.5,-19.5"/>
<text text-anchor="middle" x="232" y="-26.5" font-family="Helvetica,sans-Serif" font-size="10.00">Character.collisionUpdate</text>
</a>
</g>
</g>
<!-- Node1&#45;&gt;Node2 -->
<g id="edge1" class="edge"><title>Node1&#45;&gt;Node2</title>
<path fill="none" stroke="midnightblue" d="M135.872,-29C144.616,-29 153.534,-29 162.231,-29"/>
<polygon fill="midnightblue" stroke="midnightblue" points="135.71,-25.5001 125.71,-29 135.71,-32.5001 135.71,-25.5001"/>
</g>
<!-- Node3 -->
<g id="node3" class="node"><title>Node3</title>
<g id="a_node3"><a xlink:href="../../d7/da7/class_character.html#aa2149c166e797ae0ded67d9f768ac7f3" target="_top" xlink:title="Character.updateAll">
<polygon fill="white" stroke="black" points="338.5,-19.5 338.5,-38.5 449.5,-38.5 449.5,-19.5 338.5,-19.5"/>
<text text-anchor="middle" x="394" y="-26.5" font-family="Helvetica,sans-Serif" font-size="10.00">Character.updateAll</text>
</a>
</g>
</g>
<!-- Node2&#45;&gt;Node3 -->
<g id="edge2" class="edge"><title>Node2&#45;&gt;Node3</title>
<path fill="none" stroke="midnightblue" d="M311.844,-29C320.783,-29 329.742,-29 338.273,-29"/>
<polygon fill="midnightblue" stroke="midnightblue" points="311.783,-25.5001 301.783,-29 311.783,-32.5001 311.783,-25.5001"/>
</g>
<!-- Node4 -->
<g id="node4" class="node"><title>Node4</title>
<g id="a_node4"><a xlink:href="../../d2/d3e/class_level1.html#aa75f107bf925594da75a1d82cf64044d" target="_top" xlink:title="Level1.returnCollisions">
<polygon fill="white" stroke="black" points="486,-19.5 486,-38.5 610,-38.5 610,-19.5 486,-19.5"/>
<text text-anchor="middle" x="548" y="-26.5" font-family="Helvetica,sans-Serif" font-size="10.00">Level1.returnCollisions</text>
</a>
</g>
</g>
<!-- Node3&#45;&gt;Node4 -->
<g id="edge3" class="edge"><title>Node3&#45;&gt;Node4</title>
<path fill="none" stroke="midnightblue" d="M460.129,-29C468.635,-29 477.326,-29 485.764,-29"/>
<polygon fill="midnightblue" stroke="midnightblue" points="459.876,-25.5001 449.875,-29 459.875,-32.5001 459.876,-25.5001"/>
</g>
<!-- Node5 -->
<g id="node5" class="node"><title>Node5</title>
<g id="a_node5"><a xlink:href="../../d2/d3e/class_level1.html#a78a7fb5633734b1815af8db43db23a41" target="_top" xlink:title="Level1.updateSprites">
<polygon fill="white" stroke="black" points="646,-19.5 646,-38.5 764,-38.5 764,-19.5 646,-19.5"/>
<text text-anchor="middle" x="705" y="-26.5" font-family="Helvetica,sans-Serif" font-size="10.00">Level1.updateSprites</text>
</a>
</g>
</g>
<!-- Node4&#45;&gt;Node5 -->
<g id="edge4" class="edge"><title>Node4&#45;&gt;Node5</title>
<path fill="none" stroke="midnightblue" d="M620.283,-29C628.883,-29 637.585,-29 645.963,-29"/>
<polygon fill="midnightblue" stroke="midnightblue" points="620.26,-25.5001 610.26,-29 620.26,-32.5001 620.26,-25.5001"/>
</g>
<!-- Node6 -->
<g id="node6" class="node"><title>Node6</title>
<g id="a_node6"><a xlink:href="../../d2/d3e/class_level1.html#a324da1e22a7a87fa4bb1859b5774bdba" target="_top" xlink:title="Level1.updateFrame">
<polygon fill="white" stroke="black" points="800,-38.5 800,-57.5 914,-57.5 914,-38.5 800,-38.5"/>
<text text-anchor="middle" x="857" y="-45.5" font-family="Helvetica,sans-Serif" font-size="10.00">Level1.updateFrame</text>
</a>
</g>
</g>
<!-- Node5&#45;&gt;Node6 -->
<g id="edge5" class="edge"><title>Node5&#45;&gt;Node6</title>
<path fill="none" stroke="midnightblue" d="M774.386,-37.6623C782.941,-38.7459 791.612,-39.8442 799.949,-40.9002"/>
<polygon fill="midnightblue" stroke="midnightblue" points="774.784,-34.1848 764.423,-36.4003 773.904,-41.1293 774.784,-34.1848"/>
</g>
<!-- Node7 -->
<g id="node7" class="node"><title>Node7</title>
<g id="a_node7"><a xlink:href="../../d2/d3e/class_level1.html#a0871325d07c0614d5f1f2df7df13b703" target="_top" xlink:title="Level1.start">
<polygon fill="white" stroke="black" points="950.5,-38.5 950.5,-57.5 1023.5,-57.5 1023.5,-38.5 950.5,-38.5"/>
<text text-anchor="middle" x="987" y="-45.5" font-family="Helvetica,sans-Serif" font-size="10.00">Level1.start</text>
</a>
</g>
</g>
<!-- Node6&#45;&gt;Node7 -->
<g id="edge6" class="edge"><title>Node6&#45;&gt;Node7</title>
<path fill="none" stroke="midnightblue" d="M924.221,-48C933.159,-48 942.039,-48 950.163,-48"/>
<polygon fill="midnightblue" stroke="midnightblue" points="924.143,-44.5001 914.143,-48 924.143,-51.5001 924.143,-44.5001"/>
</g>
<!-- Node8 -->
<g id="node8" class="node"><title>Node8</title>
<g id="a_node8"><a xlink:href="../../d2/d3e/class_level1.html#ac56e75129bb2946c38cfcf43608f3f05" target="_top" xlink:title="Level1.goNextLevel">
<polygon fill="white" stroke="black" points="1060,-0.5 1060,-19.5 1170,-19.5 1170,-0.5 1060,-0.5"/>
<text text-anchor="middle" x="1115" y="-7.5" font-family="Helvetica,sans-Serif" font-size="10.00">Level1.goNextLevel</text>
</a>
</g>
</g>
<!-- Node7&#45;&gt;Node8 -->
<g id="edge7" class="edge"><title>Node7&#45;&gt;Node8</title>
<path fill="none" stroke="midnightblue" d="M1029.56,-35.4647C1046.71,-30.2952 1066.25,-24.4009 1082.22,-19.5859"/>
<polygon fill="midnightblue" stroke="midnightblue" points="1028.36,-32.1726 1019.8,-38.411 1030.38,-38.8744 1028.36,-32.1726"/>
</g>
<!-- Node9 -->
<g id="node9" class="node"><title>Node9</title>
<g id="a_node9"><a xlink:href="../../d2/db8/class_menu.html#ab6296880308728ced459f772430d025b" target="_top" xlink:title="Menu.createGame">
<polygon fill="white" stroke="black" points="1062,-38.5 1062,-57.5 1168,-57.5 1168,-38.5 1062,-38.5"/>
<text text-anchor="middle" x="1115" y="-45.5" font-family="Helvetica,sans-Serif" font-size="10.00">Menu.createGame</text>
</a>
</g>
</g>
<!-- Node7&#45;&gt;Node9 -->
<g id="edge9" class="edge"><title>Node7&#45;&gt;Node9</title>
<path fill="none" stroke="midnightblue" d="M1034.04,-48C1043.02,-48 1052.51,-48 1061.68,-48"/>
<polygon fill="midnightblue" stroke="midnightblue" points="1033.77,-44.5001 1023.77,-48 1033.77,-51.5001 1033.77,-44.5001"/>
</g>
<!-- Node8&#45;&gt;Node5 -->
<g id="edge8" class="edge"><title>Node8&#45;&gt;Node5</title>
<path fill="none" stroke="midnightblue" d="M1049.51,-13.0032C970.981,-16.6602 839.505,-22.7828 764.023,-26.2979"/>
<polygon fill="midnightblue" stroke="midnightblue" points="1049.93,-16.4874 1059.76,-12.5259 1049.61,-9.49501 1049.93,-16.4874"/>
</g>
<!-- Node10 -->
<g id="node10" class="node"><title>Node10</title>
<g id="a_node10"><a xlink:href="../../d2/db8/class_menu.html#a53c8b072d5ec777994fed9ee76c98561" target="_top" xlink:title="Menu.handle">
<polygon fill="white" stroke="black" points="1206,-38.5 1206,-57.5 1284,-57.5 1284,-38.5 1206,-38.5"/>
<text text-anchor="middle" x="1245" y="-45.5" font-family="Helvetica,sans-Serif" font-size="10.00">Menu.handle</text>
</a>
</g>
</g>
<!-- Node9&#45;&gt;Node10 -->
<g id="edge10" class="edge"><title>Node9&#45;&gt;Node10</title>
<path fill="none" stroke="midnightblue" d="M1178.2,-48C1187.59,-48 1197.04,-48 1205.73,-48"/>
<polygon fill="midnightblue" stroke="midnightblue" points="1178.06,-44.5001 1168.06,-48 1178.06,-51.5001 1178.06,-44.5001"/>
</g>
<!-- Node11 -->
<g id="node11" class="node"><title>Node11</title>
<g id="a_node11"><a xlink:href="../../d2/db8/class_menu.html#aff7a7627619921545f94547ab6135007" target="_top" xlink:title="Menu.addButton">
<polygon fill="white" stroke="black" points="1320,-38.5 1320,-57.5 1416,-57.5 1416,-38.5 1320,-38.5"/>
<text text-anchor="middle" x="1368" y="-45.5" font-family="Helvetica,sans-Serif" font-size="10.00">Menu.addButton</text>
</a>
</g>
</g>
<!-- Node10&#45;&gt;Node11 -->
<g id="edge11" class="edge"><title>Node10&#45;&gt;Node11</title>
<path fill="none" stroke="midnightblue" d="M1294.54,-48C1302.8,-48 1311.38,-48 1319.61,-48"/>
<polygon fill="midnightblue" stroke="midnightblue" points="1294.29,-44.5001 1284.29,-48 1294.29,-51.5001 1294.29,-44.5001"/>
</g>
<!-- Node12 -->
<g id="node12" class="node"><title>Node12</title>
<g id="a_node12"><a xlink:href="../../d5/db1/class_game_over.html#abb505ac8c26999beff755f4c299370da" target="_top" xlink:title="GameOver.addAllButtons">
<polygon fill="white" stroke="black" points="1452.5,-76.5 1452.5,-95.5 1589.5,-95.5 1589.5,-76.5 1452.5,-76.5"/>
<text text-anchor="middle" x="1521" y="-83.5" font-family="Helvetica,sans-Serif" font-size="10.00">GameOver.addAllButtons</text>
</a>
</g>
</g>
<!-- Node11&#45;&gt;Node12 -->
<g id="edge12" class="edge"><title>Node11&#45;&gt;Node12</title>
<path fill="none" stroke="midnightblue" d="M1416.84,-60.04C1437.94,-65.3488 1462.38,-71.4988 1482.17,-76.4799"/>
<polygon fill="midnightblue" stroke="midnightblue" points="1417.66,-56.6354 1407.1,-57.589 1415.95,-63.4237 1417.66,-56.6354"/>
</g>
<!-- Node13 -->
<g id="node13" class="node"><title>Node13</title>
<g id="a_node13"><a xlink:href="../../dd/d7f/class_game_win.html#a0ebbfe299d7456f57ae3dbf3817b7f8d" target="_top" xlink:title="GameWin.addAllButtons">
<polygon fill="white" stroke="black" points="1455,-38.5 1455,-57.5 1587,-57.5 1587,-38.5 1455,-38.5"/>
<text text-anchor="middle" x="1521" y="-45.5" font-family="Helvetica,sans-Serif" font-size="10.00">GameWin.addAllButtons</text>
</a>
</g>
</g>
<!-- Node11&#45;&gt;Node13 -->
<g id="edge13" class="edge"><title>Node11&#45;&gt;Node13</title>
<path fill="none" stroke="midnightblue" d="M1426.59,-48C1435.82,-48 1445.43,-48 1454.82,-48"/>
<polygon fill="midnightblue" stroke="midnightblue" points="1426.36,-44.5001 1416.36,-48 1426.36,-51.5001 1426.36,-44.5001"/>
</g>
<!-- Node14 -->
<g id="node14" class="node"><title>Node14</title>
<g id="a_node14"><a xlink:href="../../d2/db8/class_menu.html#a461e62e606af2391013ce3aaf92a8cc7" target="_top" xlink:title="Menu.addAllButtons">
<polygon fill="white" stroke="black" points="1464.5,-0.5 1464.5,-19.5 1577.5,-19.5 1577.5,-0.5 1464.5,-0.5"/>
<text text-anchor="middle" x="1521" y="-7.5" font-family="Helvetica,sans-Serif" font-size="10.00">Menu.addAllButtons</text>
</a>
</g>
</g>
<!-- Node11&#45;&gt;Node14 -->
<g id="edge14" class="edge"><title>Node11&#45;&gt;Node14</title>
<path fill="none" stroke="midnightblue" d="M1416.84,-35.96C1437.94,-30.6512 1462.38,-24.5012 1482.17,-19.5201"/>
<polygon fill="midnightblue" stroke="midnightblue" points="1415.95,-32.5763 1407.1,-38.411 1417.66,-39.3646 1415.95,-32.5763"/>
</g>
<!-- Node15 -->
<g id="node15" class="node"><title>Node15</title>
<g id="a_node15"><a xlink:href="../../d2/db8/class_menu.html#a3c99ad09e9f2f975c1a0d0597642651a" target="_top" xlink:title="Menu.init">
<polygon fill="white" stroke="black" points="1626,-0.5 1626,-19.5 1686,-19.5 1686,-0.5 1626,-0.5"/>
<text text-anchor="middle" x="1656" y="-7.5" font-family="Helvetica,sans-Serif" font-size="10.00">Menu.init</text>
</a>
</g>
</g>
<!-- Node14&#45;&gt;Node15 -->
<g id="edge15" class="edge"><title>Node14&#45;&gt;Node15</title>
<path fill="none" stroke="midnightblue" d="M1587.78,-10C1601.09,-10 1614.45,-10 1625.71,-10"/>
<polygon fill="midnightblue" stroke="midnightblue" points="1587.63,-6.5001 1577.63,-10 1587.63,-13.5001 1587.63,-6.5001"/>
</g>
</g>
</svg>
