<?xml version="1.0" encoding="UTF-8" standalone="no"?>
<!DOCTYPE svg PUBLIC "-//W3C//DTD SVG 1.1//EN"
 "http://www.w3.org/Graphics/SVG/1.1/DTD/svg11.dtd">
<!-- Generated by graphviz version 2.36.0 (20140111.2315)
 -->
<!-- Title: Character.updateAll Pages: 1 -->
<svg width="1356pt" height="85pt"
 viewBox="0.00 0.00 1356.00 85.00" xmlns="http://www.w3.org/2000/svg" xmlns:xlink="http://www.w3.org/1999/xlink">
<g id="graph0" class="graph" transform="scale(1 1) rotate(0) translate(4 81)">
<title>Character.updateAll</title>
<polygon fill="white" stroke="none" points="-4,4 -4,-81 1352,-81 1352,4 -4,4"/>
<!-- Node1 -->
<g id="node1" class="node"><title>Node1</title>
<polygon fill="#bfbfbf" stroke="black" points="0.5,-19.5 0.5,-38.5 111.5,-38.5 111.5,-19.5 0.5,-19.5"/>
<text text-anchor="middle" x="56" y="-26.5" font-family="Helvetica,sans-Serif" font-size="10.00">Character.updateAll</text>
</g>
<!-- Node2 -->
<g id="node2" class="node"><title>Node2</title>
<g id="a_node2"><a xlink:href="../../d2/d3e/class_level1.html#aa75f107bf925594da75a1d82cf64044d" target="_top" xlink:title="Level1.returnCollisions">
<polygon fill="white" stroke="black" points="148,-19.5 148,-38.5 272,-38.5 272,-19.5 148,-19.5"/>
<text text-anchor="middle" x="210" y="-26.5" font-family="Helvetica,sans-Serif" font-size="10.00">Level1.returnCollisions</text>
</a>
</g>
</g>
<!-- Node1&#45;&gt;Node2 -->
<g id="edge1" class="edge"><title>Node1&#45;&gt;Node2</title>
<path fill="none" stroke="midnightblue" d="M122.129,-29C130.635,-29 139.326,-29 147.764,-29"/>
<polygon fill="midnightblue" stroke="midnightblue" points="121.876,-25.5001 111.875,-29 121.875,-32.5001 121.876,-25.5001"/>
</g>
<!-- Node3 -->
<g id="node3" class="node"><title>Node3</title>
<g id="a_node3"><a xlink:href="../../d2/d3e/class_level1.html#a78a7fb5633734b1815af8db43db23a41" target="_top" xlink:title="Level1.updateSprites">
<polygon fill="white" stroke="black" points="308,-19.5 308,-38.5 426,-38.5 426,-19.5 308,-19.5"/>
<text text-anchor="middle" x="367" y="-26.5" font-family="Helvetica,sans-Serif" font-size="10.00">Level1.updateSprites</text>
</a>
</g>
</g>
<!-- Node2&#45;&gt;Node3 -->
<g id="edge2" class="edge"><title>Node2&#45;&gt;Node3</title>
<path fill="none" stroke="midnightblue" d="M282.283,-29C290.883,-29 299.585,-29 307.963,-29"/>
<polygon fill="midnightblue" stroke="midnightblue" points="282.26,-25.5001 272.26,-29 282.26,-32.5001 282.26,-25.5001"/>
</g>
<!-- Node4 -->
<g id="node4" class="node"><title>Node4</title>
<g id="a_node4"><a xlink:href="../../d2/d3e/class_level1.html#a324da1e22a7a87fa4bb1859b5774bdba" target="_top" xlink:title="Level1.updateFrame">
<polygon fill="white" stroke="black" points="462,-38.5 462,-57.5 576,-57.5 576,-38.5 462,-38.5"/>
<text text-anchor="middle" x="519" y="-45.5" font-family="Helvetica,sans-Serif" font-size="10.00">Level1.updateFrame</text>
</a>
</g>
</g>
<!-- Node3&#45;&gt;Node4 -->
<g id="edge3" class="edge"><title>Node3&#45;&gt;Node4</title>
<path fill="none" stroke="midnightblue" d="M436.386,-37.6623C444.941,-38.7459 453.612,-39.8442 461.949,-40.9002"/>
<polygon fill="midnightblue" stroke="midnightblue" points="436.784,-34.1848 426.423,-36.4003 435.904,-41.1293 436.784,-34.1848"/>
</g>
<!-- Node5 -->
<g id="node5" class="node"><title>Node5</title>
<g id="a_node5"><a xlink:href="../../d2/d3e/class_level1.html#a0871325d07c0614d5f1f2df7df13b703" target="_top" xlink:title="Level1.start">
<polygon fill="white" stroke="black" points="612.5,-38.5 612.5,-57.5 685.5,-57.5 685.5,-38.5 612.5,-38.5"/>
<text text-anchor="middle" x="649" y="-45.5" font-family="Helvetica,sans-Serif" font-size="10.00">Level1.start</text>
</a>
</g>
</g>
<!-- Node4&#45;&gt;Node5 -->
<g id="edge4" class="edge"><title>Node4&#45;&gt;Node5</title>
<path fill="none" stroke="midnightblue" d="M586.221,-48C595.159,-48 604.039,-48 612.163,-48"/>
<polygon fill="midnightblue" stroke="midnightblue" points="586.143,-44.5001 576.143,-48 586.143,-51.5001 586.143,-44.5001"/>
</g>
<!-- Node6 -->
<g id="node6" class="node"><title>Node6</title>
<g id="a_node6"><a xlink:href="../../d2/d3e/class_level1.html#ac56e75129bb2946c38cfcf43608f3f05" target="_top" xlink:title="Level1.goNextLevel">
<polygon fill="white" stroke="black" points="722,-0.5 722,-19.5 832,-19.5 832,-0.5 722,-0.5"/>
<text text-anchor="middle" x="777" y="-7.5" font-family="Helvetica,sans-Serif" font-size="10.00">Level1.goNextLevel</text>
</a>
</g>
</g>
<!-- Node5&#45;&gt;Node6 -->
<g id="edge5" class="edge"><title>Node5&#45;&gt;Node6</title>
<path fill="none" stroke="midnightblue" d="M691.564,-35.4647C708.705,-30.2952 728.25,-24.4009 744.215,-19.5859"/>
<polygon fill="midnightblue" stroke="midnightblue" points="690.359,-32.1726 681.795,-38.411 692.38,-38.8744 690.359,-32.1726"/>
</g>
<!-- Node7 -->
<g id="node7" class="node"><title>Node7</title>
<g id="a_node7"><a xlink:href="../../d2/db8/class_menu.html#ab6296880308728ced459f772430d025b" target="_top" xlink:title="Menu.createGame">
<polygon fill="white" stroke="black" points="724,-38.5 724,-57.5 830,-57.5 830,-38.5 724,-38.5"/>
<text text-anchor="middle" x="777" y="-45.5" font-family="Helvetica,sans-Serif" font-size="10.00">Menu.createGame</text>
</a>
</g>
</g>
<!-- Node5&#45;&gt;Node7 -->
<g id="edge7" class="edge"><title>Node5&#45;&gt;Node7</title>
<path fill="none" stroke="midnightblue" d="M696.04,-48C705.024,-48 714.506,-48 723.676,-48"/>
<polygon fill="midnightblue" stroke="midnightblue" points="695.77,-44.5001 685.77,-48 695.769,-51.5001 695.77,-44.5001"/>
</g>
<!-- Node6&#45;&gt;Node3 -->
<g id="edge6" class="edge"><title>Node6&#45;&gt;Node3</title>
<path fill="none" stroke="midnightblue" d="M711.511,-13.0032C632.981,-16.6602 501.505,-22.7828 426.023,-26.2979"/>
<polygon fill="midnightblue" stroke="midnightblue" points="711.932,-16.4874 721.759,-12.5259 711.607,-9.49501 711.932,-16.4874"/>
</g>
<!-- Node8 -->
<g id="node8" class="node"><title>Node8</title>
<g id="a_node8"><a xlink:href="../../d2/db8/class_menu.html#a53c8b072d5ec777994fed9ee76c98561" target="_top" xlink:title="Menu.handle">
<polygon fill="white" stroke="black" points="868,-38.5 868,-57.5 946,-57.5 946,-38.5 868,-38.5"/>
<text text-anchor="middle" x="907" y="-45.5" font-family="Helvetica,sans-Serif" font-size="10.00">Menu.handle</text>
</a>
</g>
</g>
<!-- Node7&#45;&gt;Node8 -->
<g id="edge8" class="edge"><title>Node7&#45;&gt;Node8</title>
<path fill="none" stroke="midnightblue" d="M840.198,-48C849.592,-48 859.038,-48 867.726,-48"/>
<polygon fill="midnightblue" stroke="midnightblue" points="840.063,-44.5001 830.062,-48 840.062,-51.5001 840.063,-44.5001"/>
</g>
<!-- Node9 -->
<g id="node9" class="node"><title>Node9</title>
<g id="a_node9"><a xlink:href="../../d2/db8/class_menu.html#aff7a7627619921545f94547ab6135007" target="_top" xlink:title="Menu.addButton">
<polygon fill="white" stroke="black" points="982,-38.5 982,-57.5 1078,-57.5 1078,-38.5 982,-38.5"/>
<text text-anchor="middle" x="1030" y="-45.5" font-family="Helvetica,sans-Serif" font-size="10.00">Menu.addButton</text>
</a>
</g>
</g>
<!-- Node8&#45;&gt;Node9 -->
<g id="edge9" class="edge"><title>Node8&#45;&gt;Node9</title>
<path fill="none" stroke="midnightblue" d="M956.539,-48C964.803,-48 973.377,-48 981.612,-48"/>
<polygon fill="midnightblue" stroke="midnightblue" points="956.285,-44.5001 946.285,-48 956.285,-51.5001 956.285,-44.5001"/>
</g>
<!-- Node10 -->
<g id="node10" class="node"><title>Node10</title>
<g id="a_node10"><a xlink:href="../../d5/db1/class_game_over.html#abb505ac8c26999beff755f4c299370da" target="_top" xlink:title="GameOver.addAllButtons">
<polygon fill="white" stroke="black" points="1114.5,-57.5 1114.5,-76.5 1251.5,-76.5 1251.5,-57.5 1114.5,-57.5"/>
<text text-anchor="middle" x="1183" y="-64.5" font-family="Helvetica,sans-Serif" font-size="10.00">GameOver.addAllButtons</text>
</a>
</g>
</g>
<!-- Node9&#45;&gt;Node10 -->
<g id="edge10" class="edge"><title>Node9&#45;&gt;Node10</title>
<path fill="none" stroke="midnightblue" d="M1088.48,-55.2331C1096.94,-56.2966 1105.71,-57.4005 1114.34,-58.4869"/>
<polygon fill="midnightblue" stroke="midnightblue" points="1088.72,-51.7355 1078.36,-53.9596 1087.85,-58.6807 1088.72,-51.7355"/>
</g>
<!-- Node11 -->
<g id="node11" class="node"><title>Node11</title>
<g id="a_node11"><a xlink:href="../../d2/db8/class_menu.html#a461e62e606af2391013ce3aaf92a8cc7" target="_top" xlink:title="Menu.addAllButtons">
<polygon fill="white" stroke="black" points="1126.5,-19.5 1126.5,-38.5 1239.5,-38.5 1239.5,-19.5 1126.5,-19.5"/>
<text text-anchor="middle" x="1183" y="-26.5" font-family="Helvetica,sans-Serif" font-size="10.00">Menu.addAllButtons</text>
</a>
</g>
</g>
<!-- Node9&#45;&gt;Node11 -->
<g id="edge11" class="edge"><title>Node9&#45;&gt;Node11</title>
<path fill="none" stroke="midnightblue" d="M1088.58,-40.7552C1100.96,-39.1965 1114.04,-37.5517 1126.35,-36.0024"/>
<polygon fill="midnightblue" stroke="midnightblue" points="1087.85,-37.3193 1078.36,-42.0404 1088.72,-44.2645 1087.85,-37.3193"/>
</g>
<!-- Node12 -->
<g id="node12" class="node"><title>Node12</title>
<g id="a_node12"><a xlink:href="../../d2/db8/class_menu.html#a3c99ad09e9f2f975c1a0d0597642651a" target="_top" xlink:title="Menu.init">
<polygon fill="white" stroke="black" points="1288,-19.5 1288,-38.5 1348,-38.5 1348,-19.5 1288,-19.5"/>
<text text-anchor="middle" x="1318" y="-26.5" font-family="Helvetica,sans-Serif" font-size="10.00">Menu.init</text>
</a>
</g>
</g>
<!-- Node11&#45;&gt;Node12 -->
<g id="edge12" class="edge"><title>Node11&#45;&gt;Node12</title>
<path fill="none" stroke="midnightblue" d="M1249.78,-29C1263.09,-29 1276.45,-29 1287.71,-29"/>
<polygon fill="midnightblue" stroke="midnightblue" points="1249.63,-25.5001 1239.63,-29 1249.63,-32.5001 1249.63,-25.5001"/>
</g>
</g>
</svg>
