<?xml version="1.0" encoding="UTF-8" standalone="no"?>
<!DOCTYPE svg PUBLIC "-//W3C//DTD SVG 1.1//EN"
 "http://www.w3.org/Graphics/SVG/1.1/DTD/svg11.dtd">
<!-- Generated by graphviz version 2.36.0 (20140111.2315)
 -->
<!-- Title: Character.collisionUpdate Pages: 1 -->
<svg width="1532pt" height="104pt"
 viewBox="0.00 0.00 1532.00 104.00" xmlns="http://www.w3.org/2000/svg" xmlns:xlink="http://www.w3.org/1999/xlink">
<g id="graph0" class="graph" transform="scale(1 1) rotate(0) translate(4 100)">
<title>Character.collisionUpdate</title>
<polygon fill="white" stroke="none" points="-4,4 -4,-100 1528,-100 1528,4 -4,4"/>
<!-- Node1 -->
<g id="node1" class="node"><title>Node1</title>
<polygon fill="#bfbfbf" stroke="black" points="0.5,-19.5 0.5,-38.5 139.5,-38.5 139.5,-19.5 0.5,-19.5"/>
<text text-anchor="middle" x="70" y="-26.5" font-family="Helvetica,sans-Serif" font-size="10.00">Character.collisionUpdate</text>
</g>
<!-- Node2 -->
<g id="node2" class="node"><title>Node2</title>
<g id="a_node2"><a xlink:href="../../d7/da7/class_character.html#aa2149c166e797ae0ded67d9f768ac7f3" target="_top" xlink:title="Character.updateAll">
<polygon fill="white" stroke="black" points="176.5,-19.5 176.5,-38.5 287.5,-38.5 287.5,-19.5 176.5,-19.5"/>
<text text-anchor="middle" x="232" y="-26.5" font-family="Helvetica,sans-Serif" font-size="10.00">Character.updateAll</text>
</a>
</g>
</g>
<!-- Node1&#45;&gt;Node2 -->
<g id="edge1" class="edge"><title>Node1&#45;&gt;Node2</title>
<path fill="none" stroke="midnightblue" d="M149.844,-29C158.783,-29 167.742,-29 176.273,-29"/>
<polygon fill="midnightblue" stroke="midnightblue" points="149.783,-25.5001 139.783,-29 149.783,-32.5001 149.783,-25.5001"/>
</g>
<!-- Node3 -->
<g id="node3" class="node"><title>Node3</title>
<g id="a_node3"><a xlink:href="../../d2/d3e/class_level1.html#aa75f107bf925594da75a1d82cf64044d" target="_top" xlink:title="Level1.returnCollisions">
<polygon fill="white" stroke="black" points="324,-19.5 324,-38.5 448,-38.5 448,-19.5 324,-19.5"/>
<text text-anchor="middle" x="386" y="-26.5" font-family="Helvetica,sans-Serif" font-size="10.00">Level1.returnCollisions</text>
</a>
</g>
</g>
<!-- Node2&#45;&gt;Node3 -->
<g id="edge2" class="edge"><title>Node2&#45;&gt;Node3</title>
<path fill="none" stroke="midnightblue" d="M298.129,-29C306.635,-29 315.326,-29 323.764,-29"/>
<polygon fill="midnightblue" stroke="midnightblue" points="297.876,-25.5001 287.875,-29 297.875,-32.5001 297.876,-25.5001"/>
</g>
<!-- Node4 -->
<g id="node4" class="node"><title>Node4</title>
<g id="a_node4"><a xlink:href="../../d2/d3e/class_level1.html#a78a7fb5633734b1815af8db43db23a41" target="_top" xlink:title="Level1.updateSprites">
<polygon fill="white" stroke="black" points="484,-19.5 484,-38.5 602,-38.5 602,-19.5 484,-19.5"/>
<text text-anchor="middle" x="543" y="-26.5" font-family="Helvetica,sans-Serif" font-size="10.00">Level1.updateSprites</text>
</a>
</g>
</g>
<!-- Node3&#45;&gt;Node4 -->
<g id="edge3" class="edge"><title>Node3&#45;&gt;Node4</title>
<path fill="none" stroke="midnightblue" d="M458.283,-29C466.883,-29 475.585,-29 483.963,-29"/>
<polygon fill="midnightblue" stroke="midnightblue" points="458.26,-25.5001 448.26,-29 458.26,-32.5001 458.26,-25.5001"/>
</g>
<!-- Node5 -->
<g id="node5" class="node"><title>Node5</title>
<g id="a_node5"><a xlink:href="../../d2/d3e/class_level1.html#a324da1e22a7a87fa4bb1859b5774bdba" target="_top" xlink:title="Level1.updateFrame">
<polygon fill="white" stroke="black" points="638,-38.5 638,-57.5 752,-57.5 752,-38.5 638,-38.5"/>
<text text-anchor="middle" x="695" y="-45.5" font-family="Helvetica,sans-Serif" font-size="10.00">Level1.updateFrame</text>
</a>
</g>
</g>
<!-- Node4&#45;&gt;Node5 -->
<g id="edge4" class="edge"><title>Node4&#45;&gt;Node5</title>
<path fill="none" stroke="midnightblue" d="M612.386,-37.6623C620.941,-38.7459 629.612,-39.8442 637.949,-40.9002"/>
<polygon fill="midnightblue" stroke="midnightblue" points="612.784,-34.1848 602.423,-36.4003 611.904,-41.1293 612.784,-34.1848"/>
</g>
<!-- Node6 -->
<g id="node6" class="node"><title>Node6</title>
<g id="a_node6"><a xlink:href="../../d2/d3e/class_level1.html#a0871325d07c0614d5f1f2df7df13b703" target="_top" xlink:title="Level1.start">
<polygon fill="white" stroke="black" points="788.5,-38.5 788.5,-57.5 861.5,-57.5 861.5,-38.5 788.5,-38.5"/>
<text text-anchor="middle" x="825" y="-45.5" font-family="Helvetica,sans-Serif" font-size="10.00">Level1.start</text>
</a>
</g>
</g>
<!-- Node5&#45;&gt;Node6 -->
<g id="edge5" class="edge"><title>Node5&#45;&gt;Node6</title>
<path fill="none" stroke="midnightblue" d="M762.221,-48C771.159,-48 780.039,-48 788.163,-48"/>
<polygon fill="midnightblue" stroke="midnightblue" points="762.143,-44.5001 752.143,-48 762.143,-51.5001 762.143,-44.5001"/>
</g>
<!-- Node7 -->
<g id="node7" class="node"><title>Node7</title>
<g id="a_node7"><a xlink:href="../../d2/d3e/class_level1.html#ac56e75129bb2946c38cfcf43608f3f05" target="_top" xlink:title="Level1.goNextLevel">
<polygon fill="white" stroke="black" points="898,-0.5 898,-19.5 1008,-19.5 1008,-0.5 898,-0.5"/>
<text text-anchor="middle" x="953" y="-7.5" font-family="Helvetica,sans-Serif" font-size="10.00">Level1.goNextLevel</text>
</a>
</g>
</g>
<!-- Node6&#45;&gt;Node7 -->
<g id="edge6" class="edge"><title>Node6&#45;&gt;Node7</title>
<path fill="none" stroke="midnightblue" d="M867.564,-35.4647C884.705,-30.2952 904.25,-24.4009 920.215,-19.5859"/>
<polygon fill="midnightblue" stroke="midnightblue" points="866.359,-32.1726 857.795,-38.411 868.38,-38.8744 866.359,-32.1726"/>
</g>
<!-- Node8 -->
<g id="node8" class="node"><title>Node8</title>
<g id="a_node8"><a xlink:href="../../d2/db8/class_menu.html#ab6296880308728ced459f772430d025b" target="_top" xlink:title="Menu.createGame">
<polygon fill="white" stroke="black" points="900,-38.5 900,-57.5 1006,-57.5 1006,-38.5 900,-38.5"/>
<text text-anchor="middle" x="953" y="-45.5" font-family="Helvetica,sans-Serif" font-size="10.00">Menu.createGame</text>
</a>
</g>
</g>
<!-- Node6&#45;&gt;Node8 -->
<g id="edge8" class="edge"><title>Node6&#45;&gt;Node8</title>
<path fill="none" stroke="midnightblue" d="M872.04,-48C881.024,-48 890.506,-48 899.676,-48"/>
<polygon fill="midnightblue" stroke="midnightblue" points="871.77,-44.5001 861.77,-48 871.769,-51.5001 871.77,-44.5001"/>
</g>
<!-- Node7&#45;&gt;Node4 -->
<g id="edge7" class="edge"><title>Node7&#45;&gt;Node4</title>
<path fill="none" stroke="midnightblue" d="M887.511,-13.0032C808.981,-16.6602 677.505,-22.7828 602.023,-26.2979"/>
<polygon fill="midnightblue" stroke="midnightblue" points="887.932,-16.4874 897.759,-12.5259 887.607,-9.49501 887.932,-16.4874"/>
</g>
<!-- Node9 -->
<g id="node9" class="node"><title>Node9</title>
<g id="a_node9"><a xlink:href="../../d2/db8/class_menu.html#a53c8b072d5ec777994fed9ee76c98561" target="_top" xlink:title="Menu.handle">
<polygon fill="white" stroke="black" points="1044,-38.5 1044,-57.5 1122,-57.5 1122,-38.5 1044,-38.5"/>
<text text-anchor="middle" x="1083" y="-45.5" font-family="Helvetica,sans-Serif" font-size="10.00">Menu.handle</text>
</a>
</g>
</g>
<!-- Node8&#45;&gt;Node9 -->
<g id="edge9" class="edge"><title>Node8&#45;&gt;Node9</title>
<path fill="none" stroke="midnightblue" d="M1016.2,-48C1025.59,-48 1035.04,-48 1043.73,-48"/>
<polygon fill="midnightblue" stroke="midnightblue" points="1016.06,-44.5001 1006.06,-48 1016.06,-51.5001 1016.06,-44.5001"/>
</g>
<!-- Node10 -->
<g id="node10" class="node"><title>Node10</title>
<g id="a_node10"><a xlink:href="../../d2/db8/class_menu.html#aff7a7627619921545f94547ab6135007" target="_top" xlink:title="Menu.addButton">
<polygon fill="white" stroke="black" points="1158,-38.5 1158,-57.5 1254,-57.5 1254,-38.5 1158,-38.5"/>
<text text-anchor="middle" x="1206" y="-45.5" font-family="Helvetica,sans-Serif" font-size="10.00">Menu.addButton</text>
</a>
</g>
</g>
<!-- Node9&#45;&gt;Node10 -->
<g id="edge10" class="edge"><title>Node9&#45;&gt;Node10</title>
<path fill="none" stroke="midnightblue" d="M1132.54,-48C1140.8,-48 1149.38,-48 1157.61,-48"/>
<polygon fill="midnightblue" stroke="midnightblue" points="1132.29,-44.5001 1122.29,-48 1132.29,-51.5001 1132.29,-44.5001"/>
</g>
<!-- Node11 -->
<g id="node11" class="node"><title>Node11</title>
<g id="a_node11"><a xlink:href="../../d5/db1/class_game_over.html#abb505ac8c26999beff755f4c299370da" target="_top" xlink:title="GameOver.addAllButtons">
<polygon fill="white" stroke="black" points="1290.5,-76.5 1290.5,-95.5 1427.5,-95.5 1427.5,-76.5 1290.5,-76.5"/>
<text text-anchor="middle" x="1359" y="-83.5" font-family="Helvetica,sans-Serif" font-size="10.00">GameOver.addAllButtons</text>
</a>
</g>
</g>
<!-- Node10&#45;&gt;Node11 -->
<g id="edge11" class="edge"><title>Node10&#45;&gt;Node11</title>
<path fill="none" stroke="midnightblue" d="M1254.84,-60.04C1275.94,-65.3488 1300.38,-71.4988 1320.17,-76.4799"/>
<polygon fill="midnightblue" stroke="midnightblue" points="1255.66,-56.6354 1245.1,-57.589 1253.95,-63.4237 1255.66,-56.6354"/>
</g>
<!-- Node12 -->
<g id="node12" class="node"><title>Node12</title>
<g id="a_node12"><a xlink:href="../../dd/d7f/class_game_win.html#a0ebbfe299d7456f57ae3dbf3817b7f8d" target="_top" xlink:title="GameWin.addAllButtons">
<polygon fill="white" stroke="black" points="1293,-38.5 1293,-57.5 1425,-57.5 1425,-38.5 1293,-38.5"/>
<text text-anchor="middle" x="1359" y="-45.5" font-family="Helvetica,sans-Serif" font-size="10.00">GameWin.addAllButtons</text>
</a>
</g>
</g>
<!-- Node10&#45;&gt;Node12 -->
<g id="edge12" class="edge"><title>Node10&#45;&gt;Node12</title>
<path fill="none" stroke="midnightblue" d="M1264.59,-48C1273.82,-48 1283.43,-48 1292.82,-48"/>
<polygon fill="midnightblue" stroke="midnightblue" points="1264.36,-44.5001 1254.36,-48 1264.36,-51.5001 1264.36,-44.5001"/>
</g>
<!-- Node13 -->
<g id="node13" class="node"><title>Node13</title>
<g id="a_node13"><a xlink:href="../../d2/db8/class_menu.html#a461e62e606af2391013ce3aaf92a8cc7" target="_top" xlink:title="Menu.addAllButtons">
<polygon fill="white" stroke="black" points="1302.5,-0.5 1302.5,-19.5 1415.5,-19.5 1415.5,-0.5 1302.5,-0.5"/>
<text text-anchor="middle" x="1359" y="-7.5" font-family="Helvetica,sans-Serif" font-size="10.00">Menu.addAllButtons</text>
</a>
</g>
</g>
<!-- Node10&#45;&gt;Node13 -->
<g id="edge13" class="edge"><title>Node10&#45;&gt;Node13</title>
<path fill="none" stroke="midnightblue" d="M1254.84,-35.96C1275.94,-30.6512 1300.38,-24.5012 1320.17,-19.5201"/>
<polygon fill="midnightblue" stroke="midnightblue" points="1253.95,-32.5763 1245.1,-38.411 1255.66,-39.3646 1253.95,-32.5763"/>
</g>
<!-- Node14 -->
<g id="node14" class="node"><title>Node14</title>
<g id="a_node14"><a xlink:href="../../d2/db8/class_menu.html#a3c99ad09e9f2f975c1a0d0597642651a" target="_top" xlink:title="Menu.init">
<polygon fill="white" stroke="black" points="1464,-0.5 1464,-19.5 1524,-19.5 1524,-0.5 1464,-0.5"/>
<text text-anchor="middle" x="1494" y="-7.5" font-family="Helvetica,sans-Serif" font-size="10.00">Menu.init</text>
</a>
</g>
</g>
<!-- Node13&#45;&gt;Node14 -->
<g id="edge14" class="edge"><title>Node13&#45;&gt;Node14</title>
<path fill="none" stroke="midnightblue" d="M1425.78,-10C1439.09,-10 1452.45,-10 1463.71,-10"/>
<polygon fill="midnightblue" stroke="midnightblue" points="1425.63,-6.5001 1415.63,-10 1425.63,-13.5001 1425.63,-6.5001"/>
</g>
</g>
</svg>
