<?xml version="1.0" encoding="UTF-8" standalone="no"?>
<!DOCTYPE svg PUBLIC "-//W3C//DTD SVG 1.1//EN"
 "http://www.w3.org/Graphics/SVG/1.1/DTD/svg11.dtd">
<!-- Generated by graphviz version 2.36.0 (20140111.2315)
 -->
<!-- Title: Character.setBarLocation Pages: 1 -->
<svg width="266pt" height="66pt"
 viewBox="0.00 0.00 266.00 66.00" xmlns="http://www.w3.org/2000/svg" xmlns:xlink="http://www.w3.org/1999/xlink">
<g id="graph0" class="graph" transform="scale(1 1) rotate(0) translate(4 62)">
<title>Character.setBarLocation</title>
<polygon fill="white" stroke="none" points="-4,4 -4,-62 262,-62 262,4 -4,4"/>
<!-- Node1 -->
<g id="node1" class="node"><title>Node1</title>
<polygon fill="#bfbfbf" stroke="black" points="0,-19.5 0,-38.5 138,-38.5 138,-19.5 0,-19.5"/>
<text text-anchor="middle" x="69" y="-26.5" font-family="Helvetica,sans-Serif" font-size="10.00">Character.setBarLocation</text>
</g>
<!-- Node2 -->
<g id="node2" class="node"><title>Node2</title>
<g id="a_node2"><a xlink:href="../../dd/d7a/class_enemy.html#a837aaeb79ea3e113e4cdbfeb9eac9150" target="_top" xlink:title="Enemy.Enemy">
<polygon fill="white" stroke="black" points="174,-38.5 174,-57.5 258,-57.5 258,-38.5 174,-38.5"/>
<text text-anchor="middle" x="216" y="-45.5" font-family="Helvetica,sans-Serif" font-size="10.00">Enemy.Enemy</text>
</a>
</g>
</g>
<!-- Node1&#45;&gt;Node2 -->
<g id="edge1" class="edge"><title>Node1&#45;&gt;Node2</title>
<path fill="none" stroke="midnightblue" d="M148.264,-39.2553C157.112,-40.4147 165.845,-41.559 173.93,-42.6185"/>
<polygon fill="midnightblue" stroke="midnightblue" points="148.624,-35.7726 138.254,-37.9436 147.715,-42.7133 148.624,-35.7726"/>
</g>
<!-- Node3 -->
<g id="node3" class="node"><title>Node3</title>
<g id="a_node3"><a xlink:href="../../d8/d53/class_player.html#a44760fa5535d7ed4c9beec56a3a1a046" target="_top" xlink:title="Player.Player">
<polygon fill="white" stroke="black" points="177.5,-0.5 177.5,-19.5 254.5,-19.5 254.5,-0.5 177.5,-0.5"/>
<text text-anchor="middle" x="216" y="-7.5" font-family="Helvetica,sans-Serif" font-size="10.00">Player.Player</text>
</a>
</g>
</g>
<!-- Node1&#45;&gt;Node3 -->
<g id="edge2" class="edge"><title>Node1&#45;&gt;Node3</title>
<path fill="none" stroke="midnightblue" d="M148.288,-18.7415C158.302,-17.4294 168.167,-16.1368 177.113,-14.9645"/>
<polygon fill="midnightblue" stroke="midnightblue" points="147.715,-15.2867 138.254,-20.0564 148.624,-22.2274 147.715,-15.2867"/>
</g>
</g>
</svg>
