<?xml version="1.0" encoding="UTF-8" standalone="no"?>
<!DOCTYPE svg PUBLIC "-//W3C//DTD SVG 1.1//EN"
 "http://www.w3.org/Graphics/SVG/1.1/DTD/svg11.dtd">
<!-- Generated by graphviz version 2.36.0 (20140111.2315)
 -->
<!-- Title: Character.setHP Pages: 1 -->
<!--zoomable 104 -->
<svg id="main" version="1.1" xmlns="http://www.w3.org/2000/svg" xmlns:xlink="http://www.w3.org/1999/xlink" xml:space="preserve" onload="init(evt)">
<style type="text/css"><![CDATA[
.edge:hover path { stroke: red; }
.edge:hover polygon { stroke: red; fill: red; }
]]></style>
<script type="text/javascript"><![CDATA[
var edges = document.getElementsByTagName('g');
if (edges && edges.length) {
  for (var i=0;i<edges.length;i++) {
    if (edges[i].id.substr(0,4)=='edge') {
      edges[i].setAttribute('class','edge');
    }
  }
}
]]></script>
        <defs>
                <circle id="rim" cx="0" cy="0" r="7"/>
                <circle id="rim2" cx="0" cy="0" r="3.5"/>
                <g id="zoomPlus">
                        <use xlink:href="#rim" fill="#404040">
                                <set attributeName="fill" to="#808080" begin="zoomplus.mouseover" end="zoomplus.mouseout"/>
                        </use>
                        <path d="M-4,0h8M0,-4v8" fill="none" stroke="white" stroke-width="1.5" pointer-events="none"/>
                </g>
                <g id="zoomMin">
                        <use xlink:href="#rim" fill="#404040">
                                <set attributeName="fill" to="#808080" begin="zoomminus.mouseover" end="zoomminus.mouseout"/>
                        </use>
                        <path d="M-4,0h8" fill="none" stroke="white" stroke-width="1.5" pointer-events="none"/>
                </g>
                <g id="dirArrow">
                        <path fill="none" stroke="white" stroke-width="1.5" d="M0,-3.0v7 M-2.5,-0.5L0,-3.0L2.5,-0.5"/>
                </g>
               <g id="resetDef">
                       <use xlink:href="#rim2" fill="#404040">
                               <set attributeName="fill" to="#808080" begin="reset.mouseover" end="reset.mouseout"/>
                       </use>
               </g>
        </defs>

<script type="text/javascript">
var viewWidth = 1180;
var viewHeight = 104;
var sectionId = 'dynsection-8';
</script>
<script xlink:href="../../svgpan.js"/>
<svg id="graph" class="graph">
<g id="viewport">
<title>Character.setHP</title>
<polygon fill="white" stroke="none" points="-4,4 -4,-100 1176,-100 1176,4 -4,4"/>
<!-- Node1 -->
<g id="node1" class="node"><title>Node1</title>
<polygon fill="#bfbfbf" stroke="black" points="0.5,-19.5 0.5,-38.5 95.5,-38.5 95.5,-19.5 0.5,-19.5"/>
<text text-anchor="middle" x="48" y="-26.5" font-family="Helvetica,sans-Serif" font-size="10.00">Character.setHP</text>
</g>
<!-- Node2 -->
<g id="node2" class="node"><title>Node2</title>
<g id="a_node2"><a xlink:href="../../d2/d3e/class_level1.html#a78a7fb5633734b1815af8db43db23a41" target="_top" xlink:title="Level1.updateSprites">
<polygon fill="white" stroke="black" points="132,-19.5 132,-38.5 250,-38.5 250,-19.5 132,-19.5"/>
<text text-anchor="middle" x="191" y="-26.5" font-family="Helvetica,sans-Serif" font-size="10.00">Level1.updateSprites</text>
</a>
</g>
</g>
<!-- Node1&#45;&gt;Node2 -->
<g id="edge1" class="edge"><title>Node1&#45;&gt;Node2</title>
<path fill="none" stroke="midnightblue" d="M105.574,-29C114.248,-29 123.215,-29 131.921,-29"/>
<polygon fill="midnightblue" stroke="midnightblue" points="105.559,-25.5001 95.5594,-29 105.559,-32.5001 105.559,-25.5001"/>
</g>
<!-- Node3 -->
<g id="node3" class="node"><title>Node3</title>
<g id="a_node3"><a xlink:href="../../d2/d3e/class_level1.html#a324da1e22a7a87fa4bb1859b5774bdba" target="_top" xlink:title="Level1.updateFrame">
<polygon fill="white" stroke="black" points="286,-38.5 286,-57.5 400,-57.5 400,-38.5 286,-38.5"/>
<text text-anchor="middle" x="343" y="-45.5" font-family="Helvetica,sans-Serif" font-size="10.00">Level1.updateFrame</text>
</a>
</g>
</g>
<!-- Node2&#45;&gt;Node3 -->
<g id="edge2" class="edge"><title>Node2&#45;&gt;Node3</title>
<path fill="none" stroke="midnightblue" d="M260.386,-37.6623C268.941,-38.7459 277.612,-39.8442 285.949,-40.9002"/>
<polygon fill="midnightblue" stroke="midnightblue" points="260.784,-34.1848 250.423,-36.4003 259.904,-41.1293 260.784,-34.1848"/>
</g>
<!-- Node4 -->
<g id="node4" class="node"><title>Node4</title>
<g id="a_node4"><a xlink:href="../../d2/d3e/class_level1.html#a0871325d07c0614d5f1f2df7df13b703" target="_top" xlink:title="Level1.start">
<polygon fill="white" stroke="black" points="436.5,-38.5 436.5,-57.5 509.5,-57.5 509.5,-38.5 436.5,-38.5"/>
<text text-anchor="middle" x="473" y="-45.5" font-family="Helvetica,sans-Serif" font-size="10.00">Level1.start</text>
</a>
</g>
</g>
<!-- Node3&#45;&gt;Node4 -->
<g id="edge3" class="edge"><title>Node3&#45;&gt;Node4</title>
<path fill="none" stroke="midnightblue" d="M410.221,-48C419.159,-48 428.039,-48 436.163,-48"/>
<polygon fill="midnightblue" stroke="midnightblue" points="410.143,-44.5001 400.143,-48 410.143,-51.5001 410.143,-44.5001"/>
</g>
<!-- Node5 -->
<g id="node5" class="node"><title>Node5</title>
<g id="a_node5"><a xlink:href="../../d2/d3e/class_level1.html#ac56e75129bb2946c38cfcf43608f3f05" target="_top" xlink:title="Level1.goNextLevel">
<polygon fill="white" stroke="black" points="546,-0.5 546,-19.5 656,-19.5 656,-0.5 546,-0.5"/>
<text text-anchor="middle" x="601" y="-7.5" font-family="Helvetica,sans-Serif" font-size="10.00">Level1.goNextLevel</text>
</a>
</g>
</g>
<!-- Node4&#45;&gt;Node5 -->
<g id="edge4" class="edge"><title>Node4&#45;&gt;Node5</title>
<path fill="none" stroke="midnightblue" d="M515.564,-35.4647C532.705,-30.2952 552.25,-24.4009 568.215,-19.5859"/>
<polygon fill="midnightblue" stroke="midnightblue" points="514.359,-32.1726 505.795,-38.411 516.38,-38.8744 514.359,-32.1726"/>
</g>
<!-- Node6 -->
<g id="node6" class="node"><title>Node6</title>
<g id="a_node6"><a xlink:href="../../d2/db8/class_menu.html#ab6296880308728ced459f772430d025b" target="_top" xlink:title="Menu.createGame">
<polygon fill="white" stroke="black" points="548,-38.5 548,-57.5 654,-57.5 654,-38.5 548,-38.5"/>
<text text-anchor="middle" x="601" y="-45.5" font-family="Helvetica,sans-Serif" font-size="10.00">Menu.createGame</text>
</a>
</g>
</g>
<!-- Node4&#45;&gt;Node6 -->
<g id="edge6" class="edge"><title>Node4&#45;&gt;Node6</title>
<path fill="none" stroke="midnightblue" d="M520.04,-48C529.024,-48 538.506,-48 547.676,-48"/>
<polygon fill="midnightblue" stroke="midnightblue" points="519.77,-44.5001 509.77,-48 519.769,-51.5001 519.77,-44.5001"/>
</g>
<!-- Node5&#45;&gt;Node2 -->
<g id="edge5" class="edge"><title>Node5&#45;&gt;Node2</title>
<path fill="none" stroke="midnightblue" d="M535.511,-13.0032C456.981,-16.6602 325.505,-22.7828 250.023,-26.2979"/>
<polygon fill="midnightblue" stroke="midnightblue" points="535.932,-16.4874 545.759,-12.5259 535.607,-9.49501 535.932,-16.4874"/>
</g>
<!-- Node7 -->
<g id="node7" class="node"><title>Node7</title>
<g id="a_node7"><a xlink:href="../../d2/db8/class_menu.html#a53c8b072d5ec777994fed9ee76c98561" target="_top" xlink:title="Menu.handle">
<polygon fill="white" stroke="black" points="692,-38.5 692,-57.5 770,-57.5 770,-38.5 692,-38.5"/>
<text text-anchor="middle" x="731" y="-45.5" font-family="Helvetica,sans-Serif" font-size="10.00">Menu.handle</text>
</a>
</g>
</g>
<!-- Node6&#45;&gt;Node7 -->
<g id="edge7" class="edge"><title>Node6&#45;&gt;Node7</title>
<path fill="none" stroke="midnightblue" d="M664.198,-48C673.592,-48 683.038,-48 691.726,-48"/>
<polygon fill="midnightblue" stroke="midnightblue" points="664.063,-44.5001 654.062,-48 664.062,-51.5001 664.063,-44.5001"/>
</g>
<!-- Node8 -->
<g id="node8" class="node"><title>Node8</title>
<g id="a_node8"><a xlink:href="../../d2/db8/class_menu.html#aff7a7627619921545f94547ab6135007" target="_top" xlink:title="Menu.addButton">
<polygon fill="white" stroke="black" points="806,-38.5 806,-57.5 902,-57.5 902,-38.5 806,-38.5"/>
<text text-anchor="middle" x="854" y="-45.5" font-family="Helvetica,sans-Serif" font-size="10.00">Menu.addButton</text>
</a>
</g>
</g>
<!-- Node7&#45;&gt;Node8 -->
<g id="edge8" class="edge"><title>Node7&#45;&gt;Node8</title>
<path fill="none" stroke="midnightblue" d="M780.539,-48C788.803,-48 797.377,-48 805.612,-48"/>
<polygon fill="midnightblue" stroke="midnightblue" points="780.285,-44.5001 770.285,-48 780.285,-51.5001 780.285,-44.5001"/>
</g>
<!-- Node9 -->
<g id="node9" class="node"><title>Node9</title>
<g id="a_node9"><a xlink:href="../../d5/db1/class_game_over.html#abb505ac8c26999beff755f4c299370da" target="_top" xlink:title="GameOver.addAllButtons">
<polygon fill="white" stroke="black" points="938.5,-76.5 938.5,-95.5 1075.5,-95.5 1075.5,-76.5 938.5,-76.5"/>
<text text-anchor="middle" x="1007" y="-83.5" font-family="Helvetica,sans-Serif" font-size="10.00">GameOver.addAllButtons</text>
</a>
</g>
</g>
<!-- Node8&#45;&gt;Node9 -->
<g id="edge9" class="edge"><title>Node8&#45;&gt;Node9</title>
<path fill="none" stroke="midnightblue" d="M902.843,-60.04C923.939,-65.3488 948.377,-71.4988 968.17,-76.4799"/>
<polygon fill="midnightblue" stroke="midnightblue" points="903.656,-56.6354 893.104,-57.589 901.947,-63.4237 903.656,-56.6354"/>
</g>
<!-- Node10 -->
<g id="node10" class="node"><title>Node10</title>
<g id="a_node10"><a xlink:href="../../dd/d7f/class_game_win.html#a0ebbfe299d7456f57ae3dbf3817b7f8d" target="_top" xlink:title="GameWin.addAllButtons">
<polygon fill="white" stroke="black" points="941,-38.5 941,-57.5 1073,-57.5 1073,-38.5 941,-38.5"/>
<text text-anchor="middle" x="1007" y="-45.5" font-family="Helvetica,sans-Serif" font-size="10.00">GameWin.addAllButtons</text>
</a>
</g>
</g>
<!-- Node8&#45;&gt;Node10 -->
<g id="edge10" class="edge"><title>Node8&#45;&gt;Node10</title>
<path fill="none" stroke="midnightblue" d="M912.592,-48C921.822,-48 931.431,-48 940.823,-48"/>
<polygon fill="midnightblue" stroke="midnightblue" points="912.363,-44.5001 902.363,-48 912.363,-51.5001 912.363,-44.5001"/>
</g>
<!-- Node11 -->
<g id="node11" class="node"><title>Node11</title>
<g id="a_node11"><a xlink:href="../../d2/db8/class_menu.html#a461e62e606af2391013ce3aaf92a8cc7" target="_top" xlink:title="Menu.addAllButtons">
<polygon fill="white" stroke="black" points="950.5,-0.5 950.5,-19.5 1063.5,-19.5 1063.5,-0.5 950.5,-0.5"/>
<text text-anchor="middle" x="1007" y="-7.5" font-family="Helvetica,sans-Serif" font-size="10.00">Menu.addAllButtons</text>
</a>
</g>
</g>
<!-- Node8&#45;&gt;Node11 -->
<g id="edge11" class="edge"><title>Node8&#45;&gt;Node11</title>
<path fill="none" stroke="midnightblue" d="M902.843,-35.96C923.939,-30.6512 948.377,-24.5012 968.17,-19.5201"/>
<polygon fill="midnightblue" stroke="midnightblue" points="901.947,-32.5763 893.104,-38.411 903.656,-39.3646 901.947,-32.5763"/>
</g>
<!-- Node12 -->
<g id="node12" class="node"><title>Node12</title>
<g id="a_node12"><a xlink:href="../../d2/db8/class_menu.html#a3c99ad09e9f2f975c1a0d0597642651a" target="_top" xlink:title="Menu.init">
<polygon fill="white" stroke="black" points="1112,-0.5 1112,-19.5 1172,-19.5 1172,-0.5 1112,-0.5"/>
<text text-anchor="middle" x="1142" y="-7.5" font-family="Helvetica,sans-Serif" font-size="10.00">Menu.init</text>
</a>
</g>
</g>
<!-- Node11&#45;&gt;Node12 -->
<g id="edge12" class="edge"><title>Node11&#45;&gt;Node12</title>
<path fill="none" stroke="midnightblue" d="M1073.78,-10C1087.09,-10 1100.45,-10 1111.71,-10"/>
<polygon fill="midnightblue" stroke="midnightblue" points="1073.63,-6.5001 1063.63,-10 1073.63,-13.5001 1073.63,-6.5001"/>
</g>
</g>
</svg>
        <g id="navigator" transform="translate(0 0)" fill="#404254">
                <rect fill="#f2f5e9" fill-opacity="0.5" stroke="#606060" stroke-width=".5" x="0" y="0" width="60" height="60"/>
                <use id="zoomplus" xlink:href="#zoomPlus" x="17" y="9" onmousedown="handleZoom(evt,'in')"/>
                <use id="zoomminus" xlink:href="#zoomMin" x="42" y="9" onmousedown="handleZoom(evt,'out')"/>
                <use id="reset" xlink:href="#resetDef" x="30" y="36" onmousedown="handleReset()"/>
                <g id="arrowUp" xlink:href="#dirArrow" transform="translate(30 24)" onmousedown="handlePan(0,-1)">
                  <use xlink:href="#rim" fill="#404040">
                        <set attributeName="fill" to="#808080" begin="arrowUp.mouseover" end="arrowUp.mouseout"/>
                  </use>
                  <path fill="none" stroke="white" stroke-width="1.5" d="M0,-3.0v7 M-2.5,-0.5L0,-3.0L2.5,-0.5"/>
                </g>
                <g id="arrowRight" xlink:href="#dirArrow" transform="rotate(90) translate(36 -43)" onmousedown="handlePan(1,0)">
                  <use xlink:href="#rim" fill="#404040">
                        <set attributeName="fill" to="#808080" begin="arrowRight.mouseover" end="arrowRight.mouseout"/>
                  </use>
                  <path fill="none" stroke="white" stroke-width="1.5" d="M0,-3.0v7 M-2.5,-0.5L0,-3.0L2.5,-0.5"/>
                </g>
                <g id="arrowDown" xlink:href="#dirArrow" transform="rotate(180) translate(-30 -48)" onmousedown="handlePan(0,1)">
                  <use xlink:href="#rim" fill="#404040">
                        <set attributeName="fill" to="#808080" begin="arrowDown.mouseover" end="arrowDown.mouseout"/>
                  </use>
                  <path fill="none" stroke="white" stroke-width="1.5" d="M0,-3.0v7 M-2.5,-0.5L0,-3.0L2.5,-0.5"/>
                </g>
                <g id="arrowLeft" xlink:href="#dirArrow" transform="rotate(270) translate(-36 17)" onmousedown="handlePan(-1,0)">
                  <use xlink:href="#rim" fill="#404040">
                        <set attributeName="fill" to="#808080" begin="arrowLeft.mouseover" end="arrowLeft.mouseout"/>
                  </use>
                  <path fill="none" stroke="white" stroke-width="1.5" d="M0,-3.0v7 M-2.5,-0.5L0,-3.0L2.5,-0.5"/>
                </g>
        </g>
        <svg viewBox="0 0 15 15" width="100%" height="30px" preserveAspectRatio="xMaxYMin meet">
         <g id="arrow_out" transform="scale(0.3 0.3)">
          <a xlink:href="class_character_ac0b4f4ace84c8e5aa60f05515806015d_icgraph_org.svg" target="_base">
           <rect id="button" ry="5" rx="5" y="6" x="6" height="38" width="38"
                fill="#f2f5e9" fill-opacity="0.5" stroke="#606060" stroke-width="1.0"/>
           <path id="arrow"
             d="M 11.500037,31.436501 C 11.940474,20.09759 22.043105,11.32322 32.158766,21.979434 L 37.068811,17.246167 C 37.068811,17.246167 37.088388,32 37.088388,32 L 22.160133,31.978069 C 22.160133,31.978069 26.997745,27.140456 26.997745,27.140456 C 18.528582,18.264221 13.291696,25.230495 11.500037,31.436501 z"
             style="fill:#404040;"/>
          </a>
         </g>
        </svg>
</svg>
