<?xml version="1.0" encoding="UTF-8" standalone="no"?>
<!DOCTYPE svg PUBLIC "-//W3C//DTD SVG 1.1//EN"
 "http://www.w3.org/Graphics/SVG/1.1/DTD/svg11.dtd">
<!-- Generated by graphviz version 2.36.0 (20140111.2315)
 -->
<!-- Title: Enemy Pages: 1 -->
<svg width="334pt" height="232pt"
 viewBox="0.00 0.00 334.00 232.00" xmlns="http://www.w3.org/2000/svg" xmlns:xlink="http://www.w3.org/1999/xlink">
<g id="graph0" class="graph" transform="scale(1 1) rotate(0) translate(4 228)">
<title>Enemy</title>
<polygon fill="white" stroke="none" points="-4,4 -4,-228 330,-228 330,4 -4,4"/>
<!-- Node1 -->
<g id="node1" class="node"><title>Node1</title>
<polygon fill="#bfbfbf" stroke="black" points="184,-0.5 184,-19.5 234,-19.5 234,-0.5 184,-0.5"/>
<text text-anchor="middle" x="209" y="-7.5" font-family="Helvetica,sans-Serif" font-size="10.00">Enemy</text>
</g>
<!-- Node2 -->
<g id="node2" class="node"><title>Node2</title>
<g id="a_node2"><a xlink:href="../../d7/da7/class_character.html" target="_top" xlink:title="Character">
<polygon fill="white" stroke="black" points="99,-68.5 99,-87.5 163,-87.5 163,-68.5 99,-68.5"/>
<text text-anchor="middle" x="131" y="-75.5" font-family="Helvetica,sans-Serif" font-size="10.00">Character</text>
</a>
</g>
</g>
<!-- Node2&#45;&gt;Node1 -->
<g id="edge1" class="edge"><title>Node2&#45;&gt;Node1</title>
<path fill="none" stroke="midnightblue" d="M148.994,-61.7744C164.347,-48.7837 185.889,-30.5551 198.551,-19.8411"/>
<polygon fill="midnightblue" stroke="midnightblue" points="146.57,-59.2403 141.197,-68.3717 151.092,-64.5841 146.57,-59.2403"/>
</g>
<!-- Node3 -->
<g id="node3" class="node"><title>Node3</title>
<g id="a_node3"><a xlink:href="../../d7/dbf/class_sprite.html" target="_top" xlink:title="Sprite">
<polygon fill="white" stroke="black" points="50.5,-136.5 50.5,-155.5 95.5,-155.5 95.5,-136.5 50.5,-136.5"/>
<text text-anchor="middle" x="73" y="-143.5" font-family="Helvetica,sans-Serif" font-size="10.00">Sprite</text>
</a>
</g>
</g>
<!-- Node3&#45;&gt;Node2 -->
<g id="edge2" class="edge"><title>Node3&#45;&gt;Node2</title>
<path fill="none" stroke="midnightblue" d="M87.3418,-128.68C98.681,-115.777 114.077,-98.2575 123.231,-87.8411"/>
<polygon fill="midnightblue" stroke="midnightblue" points="84.5546,-126.55 80.5825,-136.372 89.8128,-131.17 84.5546,-126.55"/>
</g>
<!-- Node4 -->
<g id="node4" class="node"><title>Node4</title>
<polygon fill="white" stroke="#bfbfbf" points="0,-204.5 0,-223.5 68,-223.5 68,-204.5 0,-204.5"/>
<text text-anchor="middle" x="34" y="-211.5" font-family="Helvetica,sans-Serif" font-size="10.00">ImageView</text>
</g>
<!-- Node4&#45;&gt;Node3 -->
<g id="edge3" class="edge"><title>Node4&#45;&gt;Node3</title>
<path fill="none" stroke="midnightblue" d="M44.3037,-195.563C51.8564,-182.781 61.7964,-165.96 67.7757,-155.841"/>
<polygon fill="midnightblue" stroke="midnightblue" points="41.1727,-193.982 39.0986,-204.372 47.1992,-197.543 41.1727,-193.982"/>
</g>
<!-- Node5 -->
<g id="node5" class="node"><title>Node5</title>
<polygon fill="white" stroke="#bfbfbf" points="86,-204.5 86,-223.5 140,-223.5 140,-204.5 86,-204.5"/>
<text text-anchor="middle" x="113" y="-211.5" font-family="Helvetica,sans-Serif" font-size="10.00">Point2D</text>
</g>
<!-- Node5&#45;&gt;Node3 -->
<g id="edge4" class="edge"><title>Node5&#45;&gt;Node3</title>
<path fill="none" stroke="#9a32cd" stroke-dasharray="5,2" d="M102.432,-195.563C94.6857,-182.781 84.4909,-165.96 78.3583,-155.841"/>
<polygon fill="#9a32cd" stroke="#9a32cd" points="99.5944,-197.634 107.771,-204.372 105.581,-194.006 99.5944,-197.634"/>
<text text-anchor="middle" x="124.5" y="-177.5" font-family="Helvetica,sans-Serif" font-size="10.00"> myVelocity</text>
</g>
<!-- Node6 -->
<g id="node6" class="node"><title>Node6</title>
<polygon fill="white" stroke="#bfbfbf" points="113.5,-136.5 113.5,-155.5 188.5,-155.5 188.5,-136.5 113.5,-136.5"/>
<text text-anchor="middle" x="151" y="-143.5" font-family="Helvetica,sans-Serif" font-size="10.00">ProgressBar</text>
</g>
<!-- Node6&#45;&gt;Node2 -->
<g id="edge5" class="edge"><title>Node6&#45;&gt;Node2</title>
<path fill="none" stroke="#9a32cd" stroke-dasharray="5,2" d="M145.371,-126.425C141.545,-113.798 136.655,-97.6623 133.679,-87.8411"/>
<polygon fill="#9a32cd" stroke="#9a32cd" points="142.136,-127.816 148.385,-136.372 148.835,-125.786 142.136,-127.816"/>
<text text-anchor="middle" x="160" y="-109.5" font-family="Helvetica,sans-Serif" font-size="10.00"> HPBar</text>
</g>
<!-- Node7 -->
<g id="node7" class="node"><title>Node7</title>
<polygon fill="white" stroke="#bfbfbf" points="181,-68.5 181,-87.5 237,-87.5 237,-68.5 181,-68.5"/>
<text text-anchor="middle" x="209" y="-75.5" font-family="Helvetica,sans-Serif" font-size="10.00">Random</text>
</g>
<!-- Node7&#45;&gt;Node1 -->
<g id="edge6" class="edge"><title>Node7&#45;&gt;Node1</title>
<path fill="none" stroke="#9a32cd" stroke-dasharray="5,2" d="M209,-58.0413C209,-45.4724 209,-29.5631 209,-19.8411"/>
<polygon fill="#9a32cd" stroke="#9a32cd" points="205.5,-58.3716 209,-68.3717 212.5,-58.3717 205.5,-58.3716"/>
<text text-anchor="middle" x="242.5" y="-41.5" font-family="Helvetica,sans-Serif" font-size="10.00"> myGenerator</text>
</g>
<!-- Node8 -->
<g id="node8" class="node"><title>Node8</title>
<polygon fill="white" stroke="#bfbfbf" points="276,-68.5 276,-87.5 322,-87.5 322,-68.5 276,-68.5"/>
<text text-anchor="middle" x="299" y="-75.5" font-family="Helvetica,sans-Serif" font-size="10.00">Group</text>
</g>
<!-- Node8&#45;&gt;Node1 -->
<g id="edge7" class="edge"><title>Node8&#45;&gt;Node1</title>
<path fill="none" stroke="#9a32cd" stroke-dasharray="5,2" d="M292.115,-59.1734C288.534,-51.8145 283.523,-43.6932 277,-38 264.846,-27.3924 248.016,-20.6646 234.14,-16.5777"/>
<polygon fill="#9a32cd" stroke="#9a32cd" points="288.938,-60.6452 296.117,-68.4363 295.363,-57.8684 288.938,-60.6452"/>
<text text-anchor="middle" x="306" y="-41.5" font-family="Helvetica,sans-Serif" font-size="10.00"> myRoot</text>
</g>
</g>
</svg>
