<?xml version="1.0" encoding="UTF-8" standalone="no"?>
<!DOCTYPE svg PUBLIC "-//W3C//DTD SVG 1.1//EN"
 "http://www.w3.org/Graphics/SVG/1.1/DTD/svg11.dtd">
<!-- Generated by graphviz version 2.36.0 (20140111.2315)
 -->
<!-- Title: GameLoop Pages: 1 -->
<svg width="316pt" height="96pt"
 viewBox="0.00 0.00 316.00 96.00" xmlns="http://www.w3.org/2000/svg" xmlns:xlink="http://www.w3.org/1999/xlink">
<g id="graph0" class="graph" transform="scale(1 1) rotate(0) translate(4 92)">
<title>GameLoop</title>
<polygon fill="white" stroke="none" points="-4,4 -4,-92 312,-92 312,4 -4,4"/>
<!-- Node1 -->
<g id="node1" class="node"><title>Node1</title>
<polygon fill="#bfbfbf" stroke="black" points="132.5,-0.5 132.5,-19.5 201.5,-19.5 201.5,-0.5 132.5,-0.5"/>
<text text-anchor="middle" x="167" y="-7.5" font-family="Helvetica,sans-Serif" font-size="10.00">GameLoop</text>
</g>
<!-- Node2 -->
<g id="node2" class="node"><title>Node2</title>
<polygon fill="white" stroke="#bfbfbf" points="0,-68.5 0,-87.5 68,-87.5 68,-68.5 0,-68.5"/>
<text text-anchor="middle" x="34" y="-75.5" font-family="Helvetica,sans-Serif" font-size="10.00">ImageView</text>
</g>
<!-- Node2&#45;&gt;Node1 -->
<g id="edge1" class="edge"><title>Node2&#45;&gt;Node1</title>
<path fill="none" stroke="#9a32cd" stroke-dasharray="5,2" d="M58.911,-63.4269C73.1811,-55.7638 91.4828,-46.124 108,-38 121.04,-31.5865 135.919,-24.7807 147.473,-19.6065"/>
<polygon fill="#9a32cd" stroke="#9a32cd" points="56.8845,-60.5434 49.7472,-68.3734 60.2096,-66.7033 56.8845,-60.5434"/>
<text text-anchor="middle" x="135.5" y="-41.5" font-family="Helvetica,sans-Serif" font-size="10.00"> imageView</text>
</g>
<!-- Node3 -->
<g id="node3" class="node"><title>Node3</title>
<polygon fill="white" stroke="#bfbfbf" points="86.5,-68.5 86.5,-87.5 247.5,-87.5 247.5,-68.5 86.5,-68.5"/>
<text text-anchor="middle" x="167" y="-75.5" font-family="Helvetica,sans-Serif" font-size="10.00">EventHandler&lt; ActionEvent &gt;</text>
</g>
<!-- Node3&#45;&gt;Node1 -->
<g id="edge2" class="edge"><title>Node3&#45;&gt;Node1</title>
<path fill="none" stroke="#9a32cd" stroke-dasharray="5,2" d="M167,-58.0413C167,-45.4724 167,-29.5631 167,-19.8411"/>
<polygon fill="#9a32cd" stroke="#9a32cd" points="163.5,-58.3716 167,-68.3717 170.5,-58.3717 163.5,-58.3716"/>
<text text-anchor="middle" x="193" y="-41.5" font-family="Helvetica,sans-Serif" font-size="10.00"> oneFrame</text>
</g>
<!-- Node4 -->
<g id="node4" class="node"><title>Node4</title>
<polygon fill="white" stroke="#bfbfbf" points="265.5,-68.5 265.5,-87.5 308.5,-87.5 308.5,-68.5 265.5,-68.5"/>
<text text-anchor="middle" x="287" y="-75.5" font-family="Helvetica,sans-Serif" font-size="10.00">Circle</text>
</g>
<!-- Node4&#45;&gt;Node1 -->
<g id="edge3" class="edge"><title>Node4&#45;&gt;Node1</title>
<path fill="none" stroke="#9a32cd" stroke-dasharray="5,2" d="M264.897,-62.7941C252.709,-55.1492 237.208,-45.7302 223,-38 210.864,-31.3975 196.864,-24.6475 185.898,-19.5481"/>
<polygon fill="#9a32cd" stroke="#9a32cd" points="263.173,-65.8453 273.494,-68.237 266.917,-59.9308 263.173,-65.8453"/>
<text text-anchor="middle" x="261" y="-41.5" font-family="Helvetica,sans-Serif" font-size="10.00"> myBall</text>
</g>
</g>
</svg>
